<svg version="1.1" xmlns="http://www.w3.org/2000/svg" xmlns:xlink="http://www.w3.org/1999/xlink" viewBox="1173.05 -3574.47 77346 33597">
  <style>.i0 { stroke:#000000;   } .body { stroke:#ff7f00;   } .rm { stroke:#00ffff;   } .gros { stroke:#ff00ff;   } .axis_text { stroke:#000000;   } .pub_wall { stroke:#c0c0c0;   } .pub_hatch { stroke:#808080;   } .rm-asset { stroke:#0000ff;   fill:#EEEEEE; fill-opacity:1;} .rmtc-asset { stroke:#0000ff;   } .rmtc { stroke:#00ffff;   } .rm-assettxt { stroke:#0000ff;   } .rmtc-assettxt { stroke:#0000ff;   } .cnc-0 { stroke:#ff7f00;  stroke-dasharray:0; } .cnc-1 { stroke:#ff7f00;  stroke-dasharray:0; } .blkclass0 { stroke:#ff7f00;  stroke-width:0.02;  fill:#ff7f00; fill-opacity:1; font-family:Arial; font-size:580.125; font-weight:normal; text-style:normal; text-anchor:start;}</style>
  <view id="defaultView" viewBox="1173.05 -3574.47 77346 33597" />
  <defs>
    <symbol id="_FZHK_1550x600" overflow="visible" class="i0">
      <path d="M-775,300l1550,0l0,-600l-1550,0z" />
    </symbol>
    <symbol id="$DorLib2D$00000003" overflow="visible" class="i0">
      <path d="M0.47,0l0,-0.97" />
      <path d="M-0.5,0a0.97,0.97 0 0,1 0.97,-0.97" />
    </symbol>
    <symbol id="$TCHSYS$WIN2D_1600x370" overflow="visible" class="i0">
      <path d="M-800,-185l1600,0" />
      <path d="M-800,185l1600,0" />
      <path d="M800,61.67l-1600,0" />
      <path d="M800,-61.67l-1600,0" />
      <path d="M-800,-185l0,370" />
      <path d="M800,-185l0,370" />
    </symbol>
    <symbol id="$TCHSYS$WIN2D_1200x370" overflow="visible" class="i0">
      <path d="M-600,-185l1200,0" />
      <path d="M-600,185l1200,0" />
      <path d="M600,61.67l-1200,0" />
      <path d="M600,-61.67l-1200,0" />
      <path d="M-600,-185l0,370" />
      <path d="M600,-185l0,370" />
    </symbol>
    <symbol id="$DorLib2D$00000130_3200x500" overflow="visible" class="i0">
      <path d="M0,-256.33l0,-73.74" />
      <path d="M1706.67,-330.07l-1706.67,0" />
      <path d="M1706.67,-256.33l-1706.67,0" />
      <path d="M-1706.67,-330.07l0,73.74" />
      <path d="M1706.67,-330.07l0,73.74" />
      <path d="M-1232.99,-134.69l786.4,0" />
      <path d="M1232.99,-134.69l-786.4,0" />
      <path d="M0,-256.33l-1706.67,0" />
      <path d="M0,-330.07l-1706.67,0" />
      <path d="M-959.73,-107.22l0,-27.48" />
      <path d="M-1232.99,-134.69l273.26,27.48" />
      <path d="M959.73,-107.22l0,-27.48" />
      <path d="M1232.99,-134.69l-273.26,27.48" />
    </symbol>
    <symbol id="$DorLib2D$00000004" overflow="visible" class="i0">
      <path d="M-0.48,0l0,-0.48" />
      <path d="M-0.48,-0.48a0.49,0.49 0 0,1 0.49,0.48" />
      <path d="M-0.01,0a0.49,0.49 0 0,1 0.49,-0.48" />
      <path d="M0.48,0l0,-0.48" />
    </symbol>
    <symbol id="$TCHSYS$WIN2D_1700x370" overflow="visible" class="i0">
      <path d="M-850,-185l1700,0" />
      <path d="M-850,185l1700,0" />
      <path d="M850,61.67l-1700,0" />
      <path d="M850,-61.67l-1700,0" />
      <path d="M-850,-185l0,370" />
      <path d="M850,-185l0,370" />
    </symbol>
    <symbol id="$TCHSYS$WIN2D_4900x200" overflow="visible" class="i0">
      <path d="M-2450,-100l4900,0" />
      <path d="M-2450,100l4900,0" />
      <path d="M2450,33.33l-4900,0" />
      <path d="M2450,-33.33l-4900,0" />
      <path d="M-2450,-100l0,200" />
      <path d="M2450,-100l0,200" />
    </symbol>
    <symbol id="$TCHSYS$WIN2D_3500x200" overflow="visible" class="i0">
      <path d="M-1750,-100l3500,0" />
      <path d="M-1750,100l3500,0" />
      <path d="M1750,33.33l-3500,0" />
      <path d="M1750,-33.33l-3500,0" />
      <path d="M-1750,-100l0,200" />
      <path d="M1750,-100l0,200" />
    </symbol>
    <symbol id="$TCHSYS$WIN2D_1800x370" overflow="visible" class="i0">
      <path d="M-900,-185l1800,0" />
      <path d="M-900,185l1800,0" />
      <path d="M900,61.67l-1800,0" />
      <path d="M900,-61.67l-1800,0" />
      <path d="M-900,-185l0,370" />
      <path d="M900,-185l0,370" />
    </symbol>
    <symbol id="$TCHSYS$WIN2D_3400x200" overflow="visible" class="i0">
      <path d="M-1700,-100l3400,0" />
      <path d="M-1700,100l3400,0" />
      <path d="M1700,33.33l-3400,0" />
      <path d="M1700,-33.33l-3400,0" />
      <path d="M-1700,-100l0,200" />
      <path d="M1700,-100l0,200" />
    </symbol>
    <symbol id="$TCHSYS$WIN2D_2000x200" overflow="visible" class="i0">
      <path d="M-1000,-100l2000,0" />
      <path d="M-1000,100l2000,0" />
      <path d="M1000,33.33l-2000,0" />
      <path d="M1000,-33.33l-2000,0" />
      <path d="M-1000,-100l0,200" />
      <path d="M1000,-100l0,200" />
    </symbol>
    <symbol id="$TCHSYS$WIN2D_1600x500" overflow="visible" class="i0">
      <path d="M-800,-250l1600,0" />
      <path d="M-800,250l1600,0" />
      <path d="M800,83.33l-1600,0" />
      <path d="M800,-83.33l-1600,0" />
      <path d="M-800,-250l0,500" />
      <path d="M800,-250l0,500" />
    </symbol>
  </defs>
  <g id="viewer">
    <g id="mirror" transform="scale(1, 1)" stroke-width="0.09%">
      <g id="background" fill="none">
        <g id="layer-GROS-fills" class="gros">
          <path d="M5615,-3561.1l7585,0l0,800l5800,0l0,-315l1600,0l0,315l11600,0l0,-315l1600,0l0,315l11900,0l0,-315l1600,0l0,315l11600,0l0,-315l1600,0l0,315l11600,0l0,-315l1600,0l0,315l3585,0l0,14470l-1800,0l0,15000l-2702.5,0l-267.5,0l0,315l-1600,0l0,-315l-6800,0l0,315l-1600,0l0,-315l-6815,0l0,315l-1600,0l0,-315l-7100,0l0,315l-1600,0l0,-315l-6800,0l0,315l-1600,0l0,-315l-6800,0l0,315l-1600,0l0,-315l-6800,0l0,315l-9200,0l0,475l-5185,0l0,-7190l-6237.14,0l9137.14,-7800l0,-2100l-4700,0l0,-13970z" />
        </g>
        <g id="layer-RM-fills" class="rm">
          <path d="M23685,7808.9l2530,0l0,1515l-2530,0l0,-1515z" />
          <path d="M73085,-2076.1l615,0l0,-315l3215,0l0,2515l-3830,0z" />
          <path d="M73085,2123.9l0,-1800l3830,0l0,1800z" />
          <path d="M69700,2323.9l3015,0l0,3400l-3015,0z" />
          <path d="M69700,5923.9l3015,0l0,3400l-3015,0z" />
          <path d="M27900,11623.9l5600,0l0,5500l-5600,0z" />
          <path d="M33870,11623.9l3830,0l0,5500l-3830,0z" />
          <path d="M40915,11793.9l5015,0l0,5160l-5015,0z" />
          <path d="M46770,11623.9l3830,0l0,5500l-3830,0z" />
        </g>
        <g id="layer-body-fills" class="body">
          <path d="M11536.5,27023.9l0,2993.5l2127,0l0,-793.5l6273,0l0,793.5l2127,0l0,-2993.5z" />
        </g>
        <g id="layer-body" class="cnc-0">
          <path d="M8215,26708.9l-800,790" class="body" />
          <path d="M5615,-3561.1l800,800" class="body" />
          <path d="M10315,12508.9l800,368.92" class="body" />
          <path d="M10315,10408.9l800,-800" class="body" />
          <path d="M6415,9608.9l-800,800" class="body" />
          <path d="M11536.5,30017.4l0,-1570.5" class="body" />
          <use xlink:href="#_FZHK_1550x600" x="12600" y="29523.9">.</use>
          <use xlink:href="#_FZHK_1550x600" x="21000" y="29523.9">.</use>
          <path d="M8515,-2761.1l4685,0" />
          <path d="M8885,-2261.1l4130,0" />
          <path d="M33800,-2391.1l800,0" />
          <path d="M34600,-2391.1l0,-370" />
          <path d="M34600,-2761.1l-800,0" />
          <path d="M39600,-2761.1l-700,0" />
          <path d="M38900,-2761.1l0,370" />
          <path d="M38900,-2391.1l515,0" />
          <path d="M36200,-2391.1l1100,0" />
          <path d="M37300,-2391.1l0,-370" />
          <path d="M37300,-2761.1l-1100,0" />
          <path d="M36200,-2761.1l0,370" />
          <path d="M47300,-2391.1l800,0" />
          <path d="M48100,-2391.1l0,-370" />
          <path d="M48100,-2761.1l-800,0" />
          <path d="M53100,-2761.1l-700,0" />
          <path d="M52400,-2761.1l0,370" />
          <path d="M52400,-2391.1l515,0" />
          <path d="M49700,-2391.1l1100,0" />
          <path d="M50800,-2391.1l0,-370" />
          <path d="M50800,-2761.1l-1100,0" />
          <path d="M49700,-2761.1l0,370" />
          <path d="M60500,-2391.1l800,0" />
          <path d="M61300,-2391.1l0,-370" />
          <path d="M61300,-2761.1l-800,0" />
          <path d="M66300,-2761.1l-700,0" />
          <path d="M65600,-2761.1l0,370" />
          <path d="M65600,-2391.1l515,0" />
          <path d="M62900,-2391.1l1100,0" />
          <path d="M64000,-2391.1l0,-370" />
          <path d="M64000,-2761.1l-1100,0" />
          <path d="M62900,-2761.1l0,370" />
          <path d="M73700,-2761.1l3585,0" />
          <path d="M73700,-2391.1l3215,0" />
          <path d="M76915,-2391.1l0,414.98" />
          <path d="M76915,-1976.12l370,0" />
          <path d="M77285,-1976.12l0,-784.98" />
          <path d="M77285,223.9l0,-1300.02" />
          <path d="M77285,-1076.12l-370,0" />
          <path d="M76915,-1076.12l0,1200.02" />
          <path d="M77285,11708.9l-1800,0" />
          <path d="M76915,11338.9l-1800,0" />
          <path d="M75485,11708.9l0,-100" />
          <path d="M75115,11338.9l0,85" />
          <path d="M75115,26338.9l-415,0" />
          <path d="M74700,26338.9l0,370" />
          <path d="M74700,26708.9l785,0" />
          <path d="M72515,26708.9l585,0" />
          <path d="M73100,26708.9l0,-370" />
          <path d="M73100,26338.9l-585,0" />
          <path d="M54100,26338.9l-900,0" />
          <path d="M53200,26338.9l0,370" />
          <path d="M53200,26708.9l900,0" />
          <path d="M50700,26708.9l900,0" />
          <path d="M51600,26708.9l0,-370" />
          <path d="M51600,26338.9l-715,0" />
          <path d="M37000,26338.9l-900,0" />
          <path d="M36100,26338.9l0,370" />
          <path d="M36100,26708.9l900,0" />
          <path d="M33600,26708.9l900,0" />
          <path d="M34500,26708.9l0,-370" />
          <path d="M34500,26338.9l-715,0" />
          <path d="M28600,26338.9l-900,0" />
          <path d="M27700,26338.9l0,370" />
          <path d="M27700,26708.9l900,0" />
          <path d="M25200,26708.9l900,0" />
          <path d="M26100,26708.9l0,-370" />
          <path d="M26100,26338.9l-715,0" />
          <path d="M20815,26023.9l0,-1950" />
          <path d="M21185,26023.9l0,-2200" />
          <path d="M19615,9523.9l-6230,0" />
          <path d="M19615,9153.9l-6230,0" />
          <path d="M19615,6738.9l-815,0" />
          <path d="M18800,6738.9l0,370" />
          <path d="M18800,7108.9l815,0" />
          <path d="M13385,7108.9l815,0" />
          <path d="M14200,7108.9l0,-370" />
          <path d="M14200,6738.9l-815,0" />
          <path d="M17800,6738.9l-2600,0" />
          <path d="M15200,6738.9l0,370" />
          <path d="M15200,7108.9l2600,0" />
          <path d="M17800,7108.9l0,-370" />
          <path d="M8885,7438.9l-390,0" />
          <path d="M8495,7438.9l0,370" />
          <path d="M8495,7808.9l20,0" />
          <path d="M6415,7808.9l380,0" />
          <path d="M6795,7808.9l0,-370" />
          <path d="M6795,7438.9l-10,0" />
          <path d="M6415,7808.9l0,-5285" />
          <path d="M6785,7438.9l0,-4815" />
          <path d="M6785,2623.9l315,0" />
          <path d="M7100,2623.9l0,-200" />
          <path d="M7100,2423.9l-315,0" />
          <path d="M8600,2423.9l-500,0" />
          <path d="M8100,2423.9l0,200" />
          <path d="M8100,2623.9l600,0" />
          <path d="M6785,-591.1l1.5,0" />
          <path d="M6786.5,-591.1l0,-370" />
          <path d="M6786.5,-961.1l-371.5,0" />
          <path d="M8515,-961.1l-28.5,0" />
          <path d="M8486.5,-961.1l0,370" />
          <path d="M8486.5,-591.1l28.5,0" />
          <path d="M8885,-961.1l0,-5.5" />
          <path d="M8885,-966.6l-370,0" />
          <path d="M8515,-966.6l0,5.5" />
          <path d="M8515,-2761.1l0,594.5" />
          <path d="M8515,-2166.6l370,0" />
          <path d="M8885,-2166.6l0,-94.5" />
          <path d="M13015,9523.9l-4500,0" />
          <path d="M13015,9153.9l-4130,0" />
          <path d="M75115,19223.9l-2715,0" />
          <path d="M72400,19223.9l0,370" />
          <path d="M72400,19593.9l2715,0" />
          <path d="M71285,19593.9l115,0" />
          <path d="M71400,19593.9l0,-370" />
          <path d="M71400,19223.9l-300,0" />
          <path d="M70915,26338.9l-815,0" />
          <path d="M70100,26338.9l0,370" />
          <path d="M70100,26708.9l815,0" />
          <path d="M66900,26708.9l1600,0" />
          <path d="M68500,26708.9l0,-370" />
          <path d="M68500,26338.9l-1415,0" />
          <path d="M71100,19223.9l-300,0" />
          <path d="M70800,19223.9l0,370" />
          <path d="M70800,19593.9l115,0" />
          <path d="M67085,19593.9l2715,0" />
          <path d="M69800,19593.9l0,-370" />
          <path d="M69800,19223.9l-2900,0" />
          <path d="M66715,26338.9l-115,0" />
          <path d="M66600,26338.9l0,370" />
          <path d="M66600,26708.9l300,0" />
          <path d="M64115,26708.9l885,0" />
          <path d="M65000,26708.9l0,-370" />
          <path d="M65000,26338.9l-885,0" />
          <path d="M66900,19223.9l-300,0" />
          <path d="M66600,19223.9l0,370" />
          <path d="M66600,19593.9l115,0" />
          <path d="M62885,19593.9l2715,0" />
          <path d="M65600,19593.9l0,-370" />
          <path d="M65600,19223.9l-2900,0" />
          <path d="M62515,26338.9l-815,0" />
          <path d="M61700,26338.9l0,370" />
          <path d="M61700,26708.9l815,0" />
          <path d="M59100,26708.9l1000,0" />
          <path d="M60100,26708.9l0,-370" />
          <path d="M60100,26338.9l-815,0" />
          <path d="M62700,19223.9l-300,0" />
          <path d="M62400,19223.9l0,370" />
          <path d="M62400,19593.9l115,0" />
          <path d="M59285,19593.9l2115,0" />
          <path d="M61400,19593.9l0,-370" />
          <path d="M61400,19223.9l-2300,0" />
          <path d="M58915,26338.9l-715,0" />
          <path d="M58200,26338.9l0,370" />
          <path d="M58200,26708.9l900,0" />
          <path d="M55700,26708.9l900,0" />
          <path d="M56600,26708.9l0,-370" />
          <path d="M56600,26338.9l-900,0" />
          <path d="M59100,19223.9l-300,0" />
          <path d="M58800,19223.9l0,370" />
          <path d="M58800,19593.9l115,0" />
          <path d="M55085,19593.9l2715,0" />
          <path d="M57800,19593.9l0,-370" />
          <path d="M57800,19223.9l-2900,0" />
          <path d="M54900,19223.9l-300,0" />
          <path d="M54600,19223.9l0,370" />
          <path d="M54600,19593.9l115,0" />
          <path d="M50885,19593.9l2715,0" />
          <path d="M53600,19593.9l0,-370" />
          <path d="M53600,19223.9l-2715,0" />
          <path d="M50515,26338.9l-1015,0" />
          <path d="M49500,26338.9l0,370" />
          <path d="M49500,26708.9l1200,0" />
          <path d="M47000,26708.9l900,0" />
          <path d="M47900,26708.9l0,-370" />
          <path d="M47900,26338.9l-900,0" />
          <path d="M50885,19223.9l-485,0" />
          <path d="M50400,19223.9l0,200" />
          <path d="M50400,19423.9l115,0" />
          <path d="M46685,19423.9l2715,0" />
          <path d="M49400,19423.9l0,-200" />
          <path d="M49400,19223.9l-3085,0" />
          <path d="M50885,19223.9l0,0" />
          <path d="M50515,19423.9l0,-15" />
          <path d="M46685,19423.9l0,6600" />
          <path d="M46315,19223.9l0,6800" />
          <path d="M46385,19223.9l-485,0" />
          <path d="M45900,19223.9l0,200" />
          <path d="M45900,19423.9l115,0" />
          <path d="M42185,19423.9l2715,0" />
          <path d="M44900,19423.9l0,-200" />
          <path d="M44900,19223.9l-2900,0" />
          <path d="M46385,19223.9l0,6800" />
          <path d="M46015,19423.9l0,6600" />
          <path d="M41815,26338.9l-715,0" />
          <path d="M41100,26338.9l0,370" />
          <path d="M41100,26708.9l900,0" />
          <path d="M38600,26708.9l900,0" />
          <path d="M39500,26708.9l0,-370" />
          <path d="M39500,26338.9l-900,0" />
          <path d="M42000,19223.9l-300,0" />
          <path d="M41700,19223.9l0,200" />
          <path d="M41700,19423.9l115,0" />
          <path d="M37985,19423.9l2715,0" />
          <path d="M40700,19423.9l0,-200" />
          <path d="M40700,19223.9l-2900,0" />
          <path d="M42185,19423.9l0,6915" />
          <path d="M41815,19423.9l0,6915" />
          <path d="M37800,19223.9l-300,0" />
          <path d="M37500,19223.9l0,200" />
          <path d="M37500,19423.9l115,0" />
          <path d="M33785,19423.9l2715,0" />
          <path d="M36500,19423.9l0,-200" />
          <path d="M36500,19223.9l-2900,0" />
          <path d="M37985,19423.9l0,6600" />
          <path d="M37615,19423.9l0,6600" />
          <path d="M33415,26338.9l-715,0" />
          <path d="M32700,26338.9l0,370" />
          <path d="M32700,26708.9l900,0" />
          <path d="M30200,26708.9l900,0" />
          <path d="M31100,26708.9l0,-370" />
          <path d="M31100,26338.9l-900,0" />
          <path d="M33600,19223.9l-300,0" />
          <path d="M33300,19223.9l0,200" />
          <path d="M33300,19423.9l115,0" />
          <path d="M29585,19423.9l2715,0" />
          <path d="M32300,19423.9l0,-200" />
          <path d="M32300,19223.9l-2900,0" />
          <path d="M33785,19423.9l0,6915" />
          <path d="M33415,19423.9l0,6915" />
          <path d="M29400,19223.9l-300,0" />
          <path d="M29100,19223.9l0,200" />
          <path d="M29100,19423.9l115,0" />
          <path d="M25385,19423.9l2715,0" />
          <path d="M28100,19423.9l0,-200" />
          <path d="M28100,19223.9l-2900,0" />
          <path d="M29585,19423.9l0,6600" />
          <path d="M29215,19423.9l0,6600" />
          <path d="M25015,26338.9l-715,0" />
          <path d="M24300,26338.9l0,370" />
          <path d="M24300,26708.9l900,0" />
          <path d="M21800,26708.9l900,0" />
          <path d="M22700,26708.9l0,-370" />
          <path d="M22700,26338.9l-900,0" />
          <path d="M25200,19223.9l-300,0" />
          <path d="M24900,19223.9l0,200" />
          <path d="M24900,19423.9l115,0" />
          <path d="M21185,19423.9l2715,0" />
          <path d="M23900,19423.9l0,-200" />
          <path d="M23900,19223.9l-2900,0" />
          <path d="M25385,19423.9l0,6915" />
          <path d="M25015,19423.9l0,6915" />
          <path d="M19985,19223.9l0,-299.5" />
          <path d="M19985,18924.4l-370,0" />
          <path d="M19615,18924.4l0,299.5" />
          <path d="M19615,17123.9l0,700.5" />
          <path d="M19615,17824.4l370,0" />
          <path d="M19985,17824.4l0,-500.5" />
          <path d="M75115,11793.9l-11715.01,0" />
          <path d="M75115,11423.9l-11914.99,0" />
          <path d="M66485,-2391.1l515,0" />
          <path d="M67000,-2391.1l0,-370" />
          <path d="M67000,-2761.1l-700,0" />
          <path d="M72100,-2761.1l-800,0" />
          <path d="M71300,-2761.1l0,370" />
          <path d="M71300,-2391.1l800,0" />
          <path d="M68600,-2391.1l1100,0" />
          <path d="M69700,-2391.1l0,-370" />
          <path d="M69700,-2761.1l-1100,0" />
          <path d="M68600,-2761.1l0,370" />
          <path d="M53285,-2391.1l515,0" />
          <path d="M53800,-2391.1l0,-370" />
          <path d="M53800,-2761.1l-700,0" />
          <path d="M58900,-2761.1l-800,0" />
          <path d="M58100,-2761.1l0,370" />
          <path d="M58100,-2391.1l800,0" />
          <path d="M55400,-2391.1l1100,0" />
          <path d="M56500,-2391.1l0,-370" />
          <path d="M56500,-2761.1l-1100,0" />
          <path d="M55400,-2761.1l0,370" />
          <path d="M39785,-2391.1l815,0" />
          <path d="M40600,-2391.1l0,-370" />
          <path d="M40600,-2761.1l-1000,0" />
          <path d="M45700,-2761.1l-800,0" />
          <path d="M44900,-2761.1l0,370" />
          <path d="M44900,-2391.1l800,0" />
          <path d="M42200,-2391.1l1100,0" />
          <path d="M43300,-2391.1l0,-370" />
          <path d="M43300,-2761.1l-1100,0" />
          <path d="M42200,-2761.1l0,370" />
          <path d="M26585,-2391.1l515,0" />
          <path d="M27100,-2391.1l0,-370" />
          <path d="M27100,-2761.1l-700,0" />
          <path d="M32200,-2761.1l-800,0" />
          <path d="M31400,-2761.1l0,370" />
          <path d="M31400,-2391.1l800,0" />
          <path d="M28700,-2391.1l1100,0" />
          <path d="M29800,-2391.1l0,-370" />
          <path d="M29800,-2761.1l-1100,0" />
          <path d="M28700,-2761.1l0,370" />
          <path d="M19615,9423.9l0,100" />
          <path d="M19985,9323.9l0,15" />
          <path d="M73085,-2076.1l0,2200" />
          <path d="M72715,-2076.1l0,2300" />
          <path d="M76915,2323.9l0,5400" />
          <path d="M76915,7723.9l370,0" />
          <path d="M77285,7723.9l0,-5500" />
          <path d="M77285,9423.9l0,-500" />
          <path d="M77285,8923.9l-370,0" />
          <path d="M76915,8923.9l0,400" />
          <path d="M73085,2323.9l0,3400" />
          <path d="M72715,2323.9l0,3400" />
          <path d="M69500,2123.9l0,2300" />
          <path d="M69500,4423.9l200,0" />
          <path d="M69700,4423.9l0,-2100" />
          <path d="M69700,5723.9l0,-300" />
          <path d="M69700,5423.9l-200,0" />
          <path d="M69500,5423.9l0,400" />
          <path d="M76915,2323.9l-3015,0" />
          <path d="M76915,2123.9l-3115,0" />
          <path d="M72715,2323.9l-3015,0" />
          <path d="M72715,2123.9l-3215,0" />
          <path d="M66115,9323.9l0,-11715" />
          <path d="M66485,9323.9l0,-11715" />
          <path d="M59515,9323.9l0,-11400" />
          <path d="M59885,9323.9l0,-11400" />
          <path d="M52915,9323.9l0,-11715" />
          <path d="M53285,9323.9l0,-11715" />
          <path d="M46315,9523.9l0,-11600" />
          <path d="M46685,9323.9l0,-11400" />
          <path d="M46015,9323.9l0,-11400" />
          <path d="M46385,9523.9l0,-11600" />
          <path d="M39415,9323.9l0,-11715" />
          <path d="M39785,9323.9l0,-11715" />
          <path d="M32815,9323.9l0,-11400" />
          <path d="M33185,9323.9l0,-11400" />
          <path d="M26215,9323.9l0,-1515" />
          <path d="M26585,9323.9l0,-1700" />
          <path d="M23685,9323.9l0,-100" />
          <path d="M23685,9223.9l-370,0" />
          <path d="M23315,9223.9l0,100" />
          <path d="M23315,7438.9l0,885" />
          <path d="M23315,8323.9l370,0" />
          <path d="M23685,8323.9l0,-515" />
          <path d="M76915,9523.9l0,200" />
          <path d="M76915,9723.9l370,0" />
          <path d="M77285,9723.9l0,-300" />
          <path d="M77285,11708.9l0,-485" />
          <path d="M77285,11223.9l-370,0" />
          <path d="M76915,11223.9l0,115" />
          <path d="M76915,9323.9l-1215,0" />
          <path d="M75700,9323.9l0,200" />
          <path d="M75700,9523.9l1215,0" />
          <path d="M73800,9523.9l400,0" />
          <path d="M74200,9523.9l0,-200" />
          <path d="M74200,9323.9l-300,0" />
          <path d="M72900,9523.9l-3300,0" />
          <path d="M72715,9323.9l-3015,0" />
          <path d="M69500,9323.9l-500,0" />
          <path d="M69000,9323.9l0,200" />
          <path d="M69000,9523.9l600,0" />
          <path d="M66300,9523.9l1700,0" />
          <path d="M68000,9523.9l0,-200" />
          <path d="M68000,9323.9l-1515,0" />
          <path d="M66115,9323.9l-4715,0" />
          <path d="M61400,9323.9l0,200" />
          <path d="M61400,9523.9l4900,0" />
          <path d="M59700,9523.9l700,0" />
          <path d="M60400,9523.9l0,-200" />
          <path d="M60400,9323.9l-515,0" />
          <path d="M59515,9323.9l-4715,0" />
          <path d="M54800,9323.9l0,200" />
          <path d="M54800,9523.9l4900,0" />
          <path d="M53100,9523.9l700,0" />
          <path d="M53800,9523.9l0,-200" />
          <path d="M53800,9323.9l-515,0" />
          <path d="M52915,9323.9l-4715,0" />
          <path d="M48200,9323.9l0,200" />
          <path d="M48200,9523.9l4900,0" />
          <path d="M46315,9523.9l885,0" />
          <path d="M47200,9523.9l0,-200" />
          <path d="M47200,9323.9l-515,0" />
          <path d="M46015,9323.9l-4715,0" />
          <path d="M41300,9323.9l0,200" />
          <path d="M41300,9523.9l5085,0" />
          <path d="M39600,9523.9l700,0" />
          <path d="M40300,9523.9l0,-200" />
          <path d="M40300,9323.9l-515,0" />
          <path d="M39415,9323.9l-4715,0" />
          <path d="M34700,9323.9l0,200" />
          <path d="M34700,9523.9l4900,0" />
          <path d="M33000,9523.9l700,0" />
          <path d="M33700,9523.9l0,-200" />
          <path d="M33700,9323.9l-515,0" />
          <path d="M32815,9323.9l-515,0" />
          <path d="M32300,9323.9l0,200" />
          <path d="M32300,9523.9l700,0" />
          <path d="M26400,9523.9l4900,0" />
          <path d="M31300,9523.9l0,-200" />
          <path d="M31300,9323.9l-4715,0" />
          <path d="M26400,9523.9l-2900,0" />
          <path d="M26215,9323.9l-2530,0" />
          <path d="M75115,17323.9l-11915.24,0" />
          <path d="M75115,16953.9l-11715.23,0" />
          <path d="M11800,26708.9l-3585,0" />
          <path d="M11800,26338.9l-3215,0" />
          <path d="M12785,19593.9l0,3980" />
          <path d="M12415,19593.9l0,4230" />
          <path d="M8800,-591.1l0,3015" />
          <path d="M8600,-591.1l0,3015" />
          <path d="M6415,2523.9l0,-3485" />
          <path d="M6785,2423.9l0,-3015" />
          <path d="M13385,2523.9l0,4215" />
          <path d="M13015,2623.9l0,4300" />
          <path d="M8700,2623.9l3000,0" />
          <path d="M11700,2623.9l0,-200" />
          <path d="M11700,2423.9l-2900,0" />
          <path d="M13015,2423.9l-315,0" />
          <path d="M12700,2423.9l0,200" />
          <path d="M12700,2623.9l315,0" />
          <path d="M19615,6738.9l0,-8815" />
          <path d="M19985,6923.9l0,-9000" />
          <path d="M13015,6923.9l0,500" />
          <path d="M13015,7423.9l370,0" />
          <path d="M13385,7423.9l0,-315" />
          <path d="M13385,9153.9l0,-730" />
          <path d="M13385,8423.9l-370,0" />
          <path d="M13015,8423.9l0,730" />
          <path d="M13385,-2261.1l515,0" />
          <path d="M13900,-2261.1l0,-500" />
          <path d="M13900,-2761.1l-700,0" />
          <path d="M19000,-2761.1l-800,0" />
          <path d="M18200,-2761.1l0,500" />
          <path d="M18200,-2261.1l800,0" />
          <path d="M15500,-2261.1l1100,0" />
          <path d="M16600,-2261.1l0,-500" />
          <path d="M16600,-2761.1l-1100,0" />
          <path d="M15500,-2761.1l0,500" />
          <path d="M23315,9323.9l-1315,0" />
          <path d="M22000,9323.9l0,200" />
          <path d="M22000,9523.9l1500,0" />
          <path d="M19985,9523.9l1015,0" />
          <path d="M21000,9523.9l0,-200" />
          <path d="M21000,9323.9l-1015,0" />
          <path d="M20600,-2391.1l800,0" />
          <path d="M21400,-2391.1l0,-370" />
          <path d="M21400,-2761.1l-800,0" />
          <path d="M26400,-2761.1l-700,0" />
          <path d="M25700,-2761.1l0,370" />
          <path d="M25700,-2391.1l515,0" />
          <path d="M23000,-2391.1l1100,0" />
          <path d="M24100,-2391.1l0,-370" />
          <path d="M24100,-2761.1l-1100,0" />
          <path d="M23000,-2761.1l0,370" />
          <path d="M26585,7623.9l0,-185" />
          <path d="M26585,7438.9l-370,0" />
          <path d="M26215,-2391.1l0,1815" />
          <path d="M26215,-576.1l370,0" />
          <path d="M26585,-576.1l0,-1815" />
          <path d="M26585,6238.9l0,-5615" />
          <path d="M26585,623.9l-370,0" />
          <path d="M26215,623.9l0,5615" />
          <path d="M26215,6238.9l370,0" />
          <path d="M26215,7808.9l-2530,0" />
          <path d="M26215,7438.9l-2900,0" />
          <path d="M46200,-2576.1l0,0" />
          <path d="M46500,-2576.1l0,0" />
          <path d="M46350,-2576.1l0,0" />
          <path d="M11800,27023.9l1600,0" />
          <path d="M13400,27023.9l0,-1000" />
          <path d="M13400,26023.9l-1600,0" />
          <path d="M11800,26023.9l0,1000" />
          <path d="M20200,27023.9l1600,0" />
          <path d="M21800,27023.9l0,-1000" />
          <path d="M21800,26023.9l-1600,0" />
          <path d="M20200,26023.9l0,1000" />
          <path d="M28600,27023.9l1600,0" />
          <path d="M30200,27023.9l0,-1000" />
          <path d="M30200,26023.9l-1600,0" />
          <path d="M28600,26023.9l0,1000" />
          <path d="M37000,27023.9l1600,0" />
          <path d="M38600,27023.9l0,-1000" />
          <path d="M38600,26023.9l-1600,0" />
          <path d="M37000,26023.9l0,1000" />
          <path d="M45400,27023.9l1600,0" />
          <path d="M47000,27023.9l0,-1000" />
          <path d="M47000,26023.9l-1600,0" />
          <path d="M45400,26023.9l0,1000" />
          <path d="M45400,26338.9l-900,0" />
          <path d="M44500,26338.9l0,370" />
          <path d="M44500,26708.9l900,0" />
          <path d="M42000,26708.9l900,0" />
          <path d="M42900,26708.9l0,-370" />
          <path d="M42900,26338.9l-715,0" />
          <path d="M54100,27023.9l1600,0" />
          <path d="M55700,27023.9l0,-1000" />
          <path d="M55700,26023.9l-1600,0" />
          <path d="M54100,26023.9l0,1000" />
          <path d="M62515,27023.9l1600,0" />
          <path d="M64115,27023.9l0,-1000" />
          <path d="M64115,26023.9l-1600,0" />
          <path d="M62515,26023.9l0,1000" />
          <path d="M70915,27023.9l1600,0" />
          <path d="M72515,27023.9l0,-1000" />
          <path d="M72515,26023.9l-1600,0" />
          <path d="M70915,26023.9l0,1000" />
          <path d="M19000,-2076.1l1600,0" />
          <path d="M20600,-2076.1l0,-1000" />
          <path d="M20600,-3076.1l-1600,0" />
          <path d="M19000,-3076.1l0,1000" />
          <path d="M32200,-2076.1l1600,0" />
          <path d="M33800,-2076.1l0,-1000" />
          <path d="M33800,-3076.1l-1600,0" />
          <path d="M32200,-3076.1l0,1000" />
          <path d="M45700,-2076.1l1600,0" />
          <path d="M47300,-2076.1l0,-1000" />
          <path d="M47300,-3076.1l-1600,0" />
          <path d="M45700,-3076.1l0,1000" />
          <path d="M58900,-2076.1l1600,0" />
          <path d="M60500,-2076.1l0,-1000" />
          <path d="M60500,-3076.1l-1600,0" />
          <path d="M58900,-3076.1l0,1000" />
          <path d="M72100,-2076.1l1600,0" />
          <path d="M73700,-2076.1l0,-1000" />
          <path d="M73700,-3076.1l-1600,0" />
          <path d="M72100,-3076.1l0,1000" />
          <path d="M12600,27498.9l-5185,0" />
          <path d="M11800,26708.9l-3585,0" />
          <path d="M7415,27498.9l0,-7190" />
          <path d="M8215,26708.9l0,-7200" />
          <path d="M13200,-2761.1l-6785,0" />
          <path d="M13200,-3561.1l-7585,0" />
          <path d="M13200,-2761.1l0,-800" />
          <path d="M6415,9608.9l4700,0" />
          <path d="M5615,10408.9l4700,0" />
          <path d="M5615,10408.9l0,-13970" />
          <path d="M6415,9608.9l0,-12370" />
          <path d="M11115,9608.9l0,3268.92" />
          <path d="M10315,10408.9l0,2100" />
          <path d="M7415,20308.9l-6237.14,0" />
          <path d="M8215,19508.9l-4867.83,0" />
          <path d="M1177.86,20308.9l9137.14,-7800" />
          <path d="M3347.17,19508.9l7767.83,-6631.08" />
          <path d="M19985,17824.4l-370,0" class="cnc-1" />
          <path d="M19615,18924.4l370,0" class="cnc-1" />
          <path d="M19985,10024.4l-370,0" class="cnc-1" />
          <path d="M19615,11124.4l370,0" class="cnc-1" />
          <path d="M19985,13173.9l-370,0" class="cnc-1" />
          <path d="M19615,15573.9l370,0" class="cnc-1" />
          <path d="M20815,23573.9l0,-3980" />
          <path d="M21185,23823.9l0,-4400" />
          <path d="M12415,23823.9l0,1000" />
          <path d="M12415,24823.9l370,0" />
          <path d="M12785,24823.9l0,-750" />
          <path d="M12785,26023.9l0,-200" />
          <path d="M12785,25823.9l-370,0" />
          <path d="M12415,25823.9l0,200" />
          <path d="M12785,24073.9l2415,0" />
          <path d="M15200,24073.9l0,-500" />
          <path d="M15200,23573.9l-2415,0" />
          <path d="M20815,23573.9l-2415,0" />
          <path d="M18400,23573.9l0,500" />
          <path d="M18400,24073.9l2415,0" />
          <path d="M8215,26708.9l0,-7485" />
          <path d="M8585,26338.9l0,-6745" />
          <path d="M8585,19593.9l2715,0" />
          <path d="M11300,19593.9l0,-370" />
          <path d="M11300,19223.9l-3085,0" />
          <path d="M12600,19223.9l-300,0" />
          <path d="M12300,19223.9l0,370" />
          <path d="M12300,19593.9l115,0" />
          <path d="M19985,19223.9l1015,0" />
          <path d="M19800,19593.9l1015,0" />
          <path d="M12600,19223.9l415,0" />
          <path d="M12785,19593.9l415,0" />
          <path d="M13200,19593.9l1800,0" />
          <path d="M15000,19593.9l0,-370" />
          <path d="M15000,19223.9l-1615,0" />
          <path d="M19615,19223.9l-1015,0" />
          <path d="M18600,19223.9l0,370" />
          <path d="M18600,19593.9l1200,0" />
          <path d="M75485,19408.9l0,7300" />
          <path d="M75115,19593.9l0,6745" />
          <path d="M71285,19593.9l0,6430" />
          <path d="M70915,19593.9l0,6430" />
          <path d="M67085,19593.9l0,6745" />
          <path d="M66715,19593.9l0,6745" />
          <path d="M62885,19593.9l0,6430" />
          <path d="M62515,19593.9l0,6430" />
          <path d="M59285,19593.9l0,6745" />
          <path d="M58915,19593.9l0,6745" />
          <path d="M50885,19593.9l0,6745" />
          <path d="M50515,19408.9l0,6930" />
          <path d="M55085,19593.9l0,6430" />
          <path d="M54715,19593.9l0,6430" />
          <use xlink:href="#$DorLib2D$00000003" x="24.4" y="19.324" transform="scale(1000,1000) scale(-1,1) translate(-48.8,0) rotate(-180,24.4,19.32)" stroke-width="0.0001%">.<g class="blkclass0"><text transform="translate(-1212.5,-289.38)" font-size="580.125">M1024</text></g></use>
          <use xlink:href="#$DorLib2D$00000003" x="28.6" y="19.324" transform="scale(1000,1000) scale(-1,1) translate(-57.2,0) rotate(-180,28.6,19.32)" stroke-width="0.0001%">.<g class="blkclass0"><text transform="translate(-1212.5,-289.38)" font-size="580.125">M1024</text></g></use>
          <use xlink:href="#$DorLib2D$00000003" x="32.8" y="19.324" transform="scale(1000,1000) scale(-1,1) translate(-65.6,0) rotate(-180,32.8,19.32)" stroke-width="0.0001%">.<g class="blkclass0"><text transform="translate(-1212.5,-289.38)" font-size="580.125">M1024</text></g></use>
          <use xlink:href="#$DorLib2D$00000003" x="37" y="19.324" transform="scale(1000,1000) scale(-1,1) translate(-74,0) rotate(-180,37,19.32)" stroke-width="0.0001%">.<g class="blkclass0"><text transform="translate(-712.5,-289.38)" font-size="580.125">M1024</text></g></use>
          <use xlink:href="#$DorLib2D$00000003" x="41.2" y="19.324" transform="scale(1000,1000) scale(-1,1) translate(-82.4,0) rotate(-180,41.2,19.32)" stroke-width="0.0001%">.<g class="blkclass0"><text transform="rotate(-360 -712.5,-289.38) translate(-712.5,-289.38)" font-size="580.125">M1024</text></g></use>
          <use xlink:href="#$DorLib2D$00000003" x="45.4" y="19.324" transform="scale(1000,1000) scale(-1,1) translate(-90.8,0) rotate(-180,45.4,19.32)" stroke-width="0.0001%">.<g class="blkclass0"><text transform="rotate(0 -1212.5,-289.38) translate(-1212.5,-289.38)" font-size="580.125">M1024</text></g></use>
          <use xlink:href="#$DorLib2D$00000003" x="49.9" y="19.324" transform="scale(1000,1000) scale(-1,1) translate(-99.8,0) rotate(-180,49.9,19.32)" stroke-width="0.0001%">.<g class="blkclass0"><text transform="translate(-1212.5,-204.38)" font-size="580.125">M1024</text></g></use>
          <use xlink:href="#$DorLib2D$00000003" x="54.1" y="19.409" transform="scale(1000,1000) scale(-1,1) translate(-108.2,0) rotate(-180,54.1,19.41)" stroke-width="0.0001%">.<g class="blkclass0"><text transform="translate(-712.5,-374.38)" font-size="580.125">M1024</text></g></use>
          <use xlink:href="#$DorLib2D$00000003" x="58.3" y="19.409" transform="scale(1000,1000) scale(-1,1) translate(-116.6,0) rotate(-180,58.3,19.41)" stroke-width="0.0001%">.<g class="blkclass0"><text transform="translate(-712.5,-374.38)" font-size="580.125">M1024</text></g></use>
          <use xlink:href="#$DorLib2D$00000003" x="61.9" y="19.409" transform="scale(1000,1000) scale(-1,1) translate(-123.8,0) rotate(-180,61.9,19.41)" stroke-width="0.0001%">.<g class="blkclass0"><text transform="translate(-1212.5,-289.38)" font-size="580.125">M1024</text></g></use>
          <use xlink:href="#$DorLib2D$00000003" x="66.1" y="19.409" transform="scale(1000,1000) scale(-1,1) translate(-132.2,0) rotate(-180,66.1,19.41)" stroke-width="0.0001%">.<g class="blkclass0"><text transform="translate(-712.5,-289.38)" font-size="580.125">M1024</text></g></use>
          <use xlink:href="#$DorLib2D$00000003" x="70.3" y="19.409" transform="scale(1000,1000) scale(-1,1) translate(-140.6,0) rotate(-180,70.3,19.41)" stroke-width="0.0001%">.<g class="blkclass0"><text transform="translate(-712.5,-289.38)" font-size="580.125">M1024</text></g></use>
          <use xlink:href="#$DorLib2D$00000003" x="71.9" y="19.409" transform="scale(1000,1000) rotate(-180,71.9,19.41)" stroke-width="0.0001%">.<g class="blkclass0"><text transform="translate(-712.5,-374.38)" font-size="580.125">M1024</text></g></use>
          <use xlink:href="#$TCHSYS$WIN2D_1600x370" x="23500" y="26523.9" transform="scale(1,-1) translate(0,-53047.8) rotate(-180,23500,26523.9)">.<g class="blkclass0"><text transform="rotate(0 -690,820.63) translate(-690,820.63)" font-size="580.125">C1624</text></g></use>
          <use xlink:href="#$TCHSYS$WIN2D_1600x370" x="26900" y="26523.9" transform="scale(1,-1) translate(0,-53047.8) rotate(-180,26900,26523.9)">.<g class="blkclass0"><text transform="rotate(-360 -690,820.62) translate(-690,820.62)" font-size="580.125">C1624</text></g></use>
          <use xlink:href="#$TCHSYS$WIN2D_1600x370" x="31900" y="26523.9" transform="scale(1,-1) translate(0,-53047.8) rotate(-180,31900,26523.9)">.<g class="blkclass0"><text transform="translate(-690,820.63)" font-size="580.125">C1624</text></g></use>
          <use xlink:href="#$TCHSYS$WIN2D_1600x370" x="35300" y="26523.9" transform="scale(1,-1) translate(0,-53047.8) rotate(-180,35300,26523.9)">.<g class="blkclass0"><text transform="translate(-690,820.63)" font-size="580.125">C1624</text></g></use>
          <use xlink:href="#$TCHSYS$WIN2D_1600x370" x="40300" y="26523.9" transform="scale(1,-1) translate(0,-53047.8) rotate(-180,40300,26523.9)">.<g class="blkclass0"><text transform="rotate(0 -690,820.63) translate(-690,820.63)" font-size="580.125">C1624</text></g></use>
          <use xlink:href="#$TCHSYS$WIN2D_1600x370" x="43700" y="26523.9" transform="scale(1,-1) translate(0,-53047.8) rotate(-180,43700,26523.9)">.<g class="blkclass0"><text transform="rotate(-360 -690,820.62) translate(-690,820.62)" font-size="580.125">C1624</text></g></use>
          <use xlink:href="#$TCHSYS$WIN2D_1600x370" x="48700" y="26523.9" transform="scale(1,-1) translate(0,-53047.8) rotate(-180,48700,26523.9)">.<g class="blkclass0"><text transform="rotate(-360 -690,820.63) translate(-690,820.63)" font-size="580.125">C1624</text></g></use>
          <use xlink:href="#$TCHSYS$WIN2D_1600x370" x="52400" y="26523.9" transform="scale(1,-1) translate(0,-53047.8) rotate(-180,52400,26523.9)">.<g class="blkclass0"><text transform="rotate(-360 -690,820.63) translate(-690,820.63)" font-size="580.125">C1624</text></g></use>
          <use xlink:href="#$TCHSYS$WIN2D_1600x370" x="57400" y="26523.9" transform="scale(1,-1) translate(0,-53047.8) rotate(-180,57400,26523.9)">.<g class="blkclass0"><text transform="translate(-690,820.63)" font-size="580.125">C1624</text></g></use>
          <use xlink:href="#$TCHSYS$WIN2D_1600x370" x="60900" y="26523.9" transform="scale(1,-1) translate(0,-53047.8) rotate(-180,60900,26523.9)">.<g class="blkclass0"><text transform="rotate(0 -690,820.63) translate(-690,820.63)" font-size="580.125">C1624</text></g></use>
          <use xlink:href="#$TCHSYS$WIN2D_1600x370" x="69300" y="26523.9" transform="scale(1,-1) translate(0,-53047.8) rotate(-180,69300,26523.9)">.<g class="blkclass0"><text transform="rotate(0 -690,820.63) translate(-690,820.63)" font-size="580.125">C1624</text></g></use>
          <use xlink:href="#$TCHSYS$WIN2D_1600x370" x="65800" y="26523.9" transform="scale(1,-1) translate(0,-53047.8) rotate(-180,65800,26523.9)">.<g class="blkclass0"><text transform="rotate(-360 -690,820.63) translate(-690,820.63)" font-size="580.125">C1624</text></g></use>
          <use xlink:href="#$TCHSYS$WIN2D_1600x370" x="73900" y="26523.9" transform="scale(1,-1) translate(0,-53047.8) rotate(-180,73900,26523.9)">.<g class="blkclass0"><text transform="rotate(-360 -690,820.63) translate(-690,820.63)" font-size="580.125">C1624</text></g></use>
          <use xlink:href="#$TCHSYS$WIN2D_1200x370" x="75300" y="18273.9" transform="scale(1,-1) translate(0,-36547.8) rotate(-90,75300,18273.9)">.<g class="blkclass0"><text transform="rotate(-90 820.62,652.5) translate(820.62,652.5)" font-size="580.125">C1215</text></g></use>
          <use xlink:href="#$DorLib2D$00000130_3200x500" x="16800" y="23823.9" transform="rotate(0,16800,23823.9)">.<g class="blkclass0"><text transform="rotate(0 -742.5,885.63) translate(-742.5,885.63)" font-size="580.125">M3224</text></g></use>
          <path d="M18600,19593.9l0,-370" class="cnc-1" />
          <path d="M15000,19223.9l0,370" class="cnc-1" />
          <use xlink:href="#$TCHSYS$WIN2D_1200x370" x="75300" y="15923.88" transform="scale(1,-1) translate(0,-31847.76) rotate(-90,75300,15923.88)">.<g class="blkclass0"><text transform="rotate(-90 821.76,652.5) translate(821.76,652.5)" font-size="580.125">C1215</text></g></use>
          <use xlink:href="#$TCHSYS$WIN2D_1200x370" x="75300" y="13423.4" transform="scale(1,-1) translate(0,-26846.8) rotate(-90,75300,13423.4)">.<g class="blkclass0"><text transform="rotate(-90 820.62,652.5) translate(820.62,652.5)" font-size="580.125">C1215</text></g></use>
          <use xlink:href="#$DorLib2D$00000004" x="51.4" y="6.983" transform="scale(1500,1500) rotate(-270,51.4,6.98)" stroke-width="0.0001%">.<g class="blkclass0"><text transform="rotate(-90 1411.62,712.5) translate(1411.62,712.5)" font-size="580.125">M1524</text></g></use>
          <use xlink:href="#$DorLib2D$00000004" x="49.967" y="6.283" transform="scale(1500,1500) rotate(-180,49.97,6.28)" stroke-width="0.0001%">.<g class="blkclass0"><text transform="rotate(0 -712.5,-374.38) translate(-712.5,-374.38)" font-size="580.125">M1524</text></g></use>
          <path d="M73700,2323.9l-615,0" />
          <path d="M73800,2123.9l-715,0" />
          <path d="M73800,9523.9l-900,0" />
          <path d="M73700,9323.9l-615,0" />
          <path d="M73900,9323.9l0,-500" />
          <path d="M73900,8823.9l-200,0" />
          <path d="M73700,8823.9l0,500" />
          <path d="M73700,5923.9l0,2200" />
          <path d="M73700,8123.9l200,0" />
          <path d="M73900,8123.9l0,-2300" />
          <path d="M73085,5923.9l0,3400" />
          <path d="M72715,5923.9l0,3400" />
          <path d="M69500,5823.9l0,400" />
          <path d="M69500,6223.9l200,0" />
          <path d="M69700,6223.9l0,-300" />
          <path d="M69700,9323.9l0,-2100" />
          <path d="M69700,7223.9l-200,0" />
          <path d="M69500,7223.9l0,2100" />
          <path d="M73700,5723.9l0,-3400" />
          <path d="M73900,5823.9l0,-3500" />
          <path d="M69700,5723.9l3015,0" />
          <path d="M69700,5923.9l3015,0" />
          <path d="M73085,5723.9l615,0" />
          <path d="M73085,5923.9l615,0" />
          <use xlink:href="#$DorLib2D$00000003" x="105.429" y="12.106" transform="scale(700,700) scale(-1,-1) translate(-210.86,-24.21) rotate(-90,105.43,12.11)" stroke-width="0.0001%">.<g class="blkclass0"><text transform="rotate(-90 -289.38,727.5) translate(-289.38,727.5)" font-size="580.125">M0709</text></g></use>
          <use xlink:href="#$DorLib2D$00000003" x="69.6" y="6.724" transform="scale(1000,1000) scale(-1,-1) translate(-139.2,-13.45) rotate(-270,69.6,6.72)" stroke-width="0.0001%">.<g class="blkclass0"><text transform="rotate(-90 820.63,705) translate(820.63,705)" font-size="580.125">M1022</text></g></use>
          <use xlink:href="#$DorLib2D$00000003" x="69.6" y="4.924" transform="scale(1000,1000) scale(1,-1) translate(0,-9.85) rotate(-90,69.6,4.92)" stroke-width="0.0001%">.<g class="blkclass0"><text transform="rotate(-90 820.63,705) translate(820.63,705)" font-size="580.125">M1022</text></g></use>
          <use xlink:href="#$DorLib2D$00000003" x="68.5" y="9.424" transform="scale(1000,1000) scale(-1,-1) translate(-137,-18.85) rotate(-180,68.5,9.42)" stroke-width="0.0001%">.<g class="blkclass0"><text transform="rotate(0 -712.5,735.62) translate(-712.5,735.62)" font-size="580.125">M1024</text></g></use>
          <path d="M75115,11793.9l0,1029.5" />
          <path d="M75115,12823.4l370,0" />
          <path d="M75485,12823.4l0,-1214.5" />
          <path d="M75485,17138.9l0,-615.02" />
          <path d="M75485,16523.88l-370,0" />
          <path d="M75115,16523.88l0,430.02" />
          <path d="M75115,14023.4l0,1300.48" />
          <path d="M75115,15323.88l370,0" />
          <path d="M75485,15323.88l0,-1300.48" />
          <path d="M75485,14023.4l-370,0" />
          <path d="M19985,11423.9l0,-299.5" />
          <path d="M19985,11124.4l-370,0" />
          <path d="M19615,11124.4l0,484.5" />
          <path d="M19615,9423.9l0,600.5" />
          <path d="M19615,10024.4l370,0" />
          <path d="M19985,10024.4l0,-500.5" />
          <use xlink:href="#$DorLib2D$00000003" x="60.9" y="9.424" transform="scale(1000,1000) scale(1,-1) translate(0,-18.85) rotate(-180,60.9,9.42)" stroke-width="0.0001%">.<g class="blkclass0"><text transform="rotate(-360 -712.5,735.62) translate(-712.5,735.62)" font-size="580.125">M1024</text></g></use>
          <use xlink:href="#$DorLib2D$00000003" x="54.3" y="9.424" transform="scale(1000,1000) scale(1,-1) translate(0,-18.85) rotate(-180,54.3,9.42)" stroke-width="0.0001%">.<g class="blkclass0"><text transform="translate(-712.5,735.63)" font-size="580.125">M1024</text></g></use>
          <use xlink:href="#$DorLib2D$00000003" x="40.8" y="9.424" transform="scale(1000,1000) scale(1,-1) translate(0,-18.85) rotate(-180,40.8,9.42)" stroke-width="0.0001%">.<g class="blkclass0"><text transform="translate(-712.5,735.62)" font-size="580.125">M1024</text></g></use>
          <use xlink:href="#$DorLib2D$00000003" x="34.2" y="9.424" transform="scale(1000,1000) scale(1,-1) translate(0,-18.85) rotate(-180,34.2,9.42)" stroke-width="0.0001%">.<g class="blkclass0"><text transform="translate(-712.5,735.62)" font-size="580.125">M1024</text></g></use>
          <use xlink:href="#$DorLib2D$00000003" x="47.7" y="9.424" transform="scale(1000,1000) scale(1,-1) translate(0,-18.85) rotate(-180,47.7,9.42)" stroke-width="0.0001%">.<g class="blkclass0"><text transform="rotate(-360 -712.5,735.63) translate(-712.5,735.63)" font-size="580.125">M1024</text></g></use>
          <path d="M19985,9338.9l0,-665" />
          <path d="M19985,8673.9l-370,0" />
          <path d="M19615,8673.9l0,480" />
          <path d="M19615,7108.9l0,365" />
          <path d="M19615,7473.9l370,0" />
          <path d="M19985,7473.9l0,-550" />
          <path d="M13015,9523.9l0,845" />
          <path d="M13015,10368.9l370,0" />
          <path d="M13385,10368.9l0,-845" />
          <path d="M13385,19223.9l0,-805" />
          <path d="M13385,18418.9l-370,0" />
          <path d="M13015,18418.9l0,805" />
          <path d="M13015,11218.9l0,950" />
          <path d="M13015,12168.9l370,0" />
          <path d="M13385,12168.9l0,-950" />
          <path d="M13385,11218.9l-370,0" />
          <path d="M13015,13018.9l0,950" />
          <path d="M13015,13968.9l370,0" />
          <path d="M13385,13968.9l0,-950" />
          <path d="M13385,13018.9l-370,0" />
          <path d="M13015,14818.9l0,950" />
          <path d="M13015,15768.9l370,0" />
          <path d="M13385,15768.9l0,-950" />
          <path d="M13385,14818.9l-370,0" />
          <path d="M13015,16618.9l0,950" />
          <path d="M13015,17568.9l370,0" />
          <path d="M13385,17568.9l0,-950" />
          <path d="M13385,16618.9l-370,0" />
          <path d="M8885,9153.9l0,-63" />
          <path d="M8885,9090.9l-370,0" />
          <path d="M8515,9090.9l0,433" />
          <path d="M8515,7808.9l0,82" />
          <path d="M8515,7890.9l370,0" />
          <path d="M8885,7890.9l0,-452" />
          <use xlink:href="#$DorLib2D$00000003" x="21.5" y="9.424" transform="scale(1000,1000) scale(-1,-1) translate(-43,-18.85) rotate(-180,21.5,9.42)" stroke-width="0.0001%">.<g class="blkclass0"><text transform="translate(-712.5,735.62)" font-size="580.125">M1024</text></g></use>
          <use xlink:href="#$DorLib2D$00000003" x="26.111" y="9.749" transform="scale(900,900) scale(-1,1) translate(-52.22,0) rotate(-270,26.11,9.75)" stroke-width="0.0001%">.<g class="blkclass0"><text transform="rotate(-90 820.62,742.5) translate(820.62,742.5)" font-size="580.125">M0924</text></g></use>
          <path d="M19985,7473.9l-370,0" class="cnc-1" />
          <path d="M19615,8673.9l370,0" class="cnc-1" />
          <use xlink:href="#$DorLib2D$00000003" x="18.3" y="6.924" transform="scale(1000,1000) scale(-1,-1) translate(-36.6,-13.85) rotate(-180,18.3,6.92)" stroke-width="0.0001%">.<g class="blkclass0"><text transform="translate(-212.5,820.62)" font-size="580.125">M1024</text></g></use>
          <use xlink:href="#$DorLib2D$00000003" x="14.7" y="6.924" transform="scale(1000,1000) scale(1,-1) translate(0,-13.85) rotate(-180,14.7,6.92)" stroke-width="0.0001%">.<g class="blkclass0"><text transform="translate(-637.5,820.63)" font-size="580.125">M1021</text></g></use>
          <use xlink:href="#$DorLib2D$00000003" x="13.2" y="7.924" transform="scale(1000,1000) scale(1,-1) translate(0,-15.85) rotate(-90,13.2,7.92)" stroke-width="0.0001%">.<g class="blkclass0"><text transform="rotate(-90 820.62,712.5) translate(820.62,712.5)" font-size="580.125">M1024</text></g></use>
          <use xlink:href="#$TCHSYS$WIN2D_1200x370" x="8700" y="8490.9" transform="rotate(-90,8700,8490.9)">.<g class="blkclass0"><text transform="rotate(-90 820.62,682.5) translate(820.62,682.5)" font-size="580.125">C1227</text></g></use>
          <use xlink:href="#$TCHSYS$WIN2D_1700x370" x="7645" y="7623.9" transform="rotate(-180,7645,7623.9)">.<g class="blkclass0"><text transform="translate(-682.5,-374.38)" font-size="580.125">C1727</text></g></use>
          <path d="M8515,-591.1l370,0" />
          <path d="M8885,-591.1l0,-370" />
          <path d="M8885,-961.1l-370,0" />
          <path d="M8515,-961.1l0,370" />
          <use xlink:href="#$DorLib2D$00000003" x="7.6" y="2.524" transform="scale(1000,1000) scale(-1,1) translate(-15.2,0) rotate(0,7.6,2.52)" stroke-width="0.0001%">.<g class="blkclass0"><text transform="translate(-705,735.63)" font-size="580.125">M1022</text></g></use>
          <use xlink:href="#$DorLib2D$00000003" x="12.2" y="2.524" transform="scale(1000,1000)" stroke-width="0.0001%">.<g class="blkclass0"><text transform="translate(-705,735.62)" font-size="580.125">M1022</text></g></use>
          <use xlink:href="#$TCHSYS$WIN2D_1700x370" x="7636.5" y="-776.1" transform="scale(1,-1) translate(0,1552.2) rotate(0,7636.5,-776.1)">.<g class="blkclass0"><text transform="translate(-682.5,-374.37)" font-size="580.125">C1727</text></g></use>
          <use xlink:href="#$TCHSYS$WIN2D_1200x370" x="8700" y="-1566.6" transform="scale(1,-1) translate(0,3133.2) rotate(-270,8700,-1566.6)">.<g class="blkclass0"><text transform="rotate(-90 825.63,682.5) translate(825.63,682.5)" font-size="580.125">C1227</text></g></use>
          <path d="M13385,-2261.1l0,4785" />
          <path d="M13015,-2261.1l0,4685" />
          <path d="M13015,18418.9l370,0" class="cnc-1" />
          <path d="M13385,17568.9l-370,0" class="cnc-1" />
          <path d="M13015,16618.9l370,0" class="cnc-1" />
          <path d="M13385,15768.9l-370,0" class="cnc-1" />
          <path d="M13015,14818.9l370,0" class="cnc-1" />
          <path d="M13385,13968.9l-370,0" class="cnc-1" />
          <path d="M13015,13018.9l370,0" class="cnc-1" />
          <path d="M13385,12168.9l-370,0" class="cnc-1" />
          <path d="M13015,11218.9l370,0" class="cnc-1" />
          <path d="M13385,10368.9l-370,0" class="cnc-1" />
          <path d="M19985,16953.9l0,-1380" />
          <path d="M19985,15573.9l-370,0" />
          <path d="M19615,15573.9l0,1550" />
          <path d="M19615,11608.9l0,1565" />
          <path d="M19615,13173.9l370,0" />
          <path d="M19985,13173.9l0,-1380" />
          <path d="M27900,17323.9l-7915,0" />
          <path d="M27700,16953.9l-7715,0" />
          <path d="M27700,11793.9l-7715,0" />
          <path d="M27900,11423.9l-7915,0" />
          <path d="M27900,17323.9l0,-500.5" />
          <path d="M27900,16823.4l-200,0" />
          <path d="M27700,16823.4l0,130.5" />
          <path d="M27700,11793.9l0,129.5" />
          <path d="M27700,11923.4l200,0" />
          <path d="M27900,11923.4l0,-499.5" />
          <path d="M33500,17123.9l-350,0" />
          <path d="M33150,17123.9l0,200" />
          <path d="M33150,17323.9l450,0" />
          <path d="M27900,17323.9l350,0" />
          <path d="M28250,17323.9l0,-200" />
          <path d="M28250,17123.9l-350,0" />
          <path d="M27900,17123.9l0,200" />
          <path d="M33870,17123.9l0,-900" />
          <path d="M33870,16223.9l-370,0" />
          <path d="M33500,16223.9l0,900" />
          <path d="M33500,11623.9l0,900" />
          <path d="M33500,12523.9l370,0" />
          <path d="M33870,12523.9l0,-900" />
          <path d="M33870,15023.9l0,-1300" />
          <path d="M33870,13723.9l-370,0" />
          <path d="M33500,13723.9l0,1300" />
          <path d="M33500,15023.9l370,0" />
          <path d="M37700,11623.9l-3830,0" />
          <path d="M37900,11423.9l-4300,0" />
          <path d="M37900,17323.9l-4300,0" />
          <path d="M37700,17123.9l-3830,0" />
          <path d="M37900,17323.9l0,-4500" />
          <path d="M37900,12823.9l-200,0" />
          <path d="M37700,12823.9l0,4300" />
          <path d="M37700,11623.9l0,300" />
          <path d="M37700,11923.9l200,0" />
          <path d="M37900,11923.9l0,-500" />
          <path d="M40900,16953.9l0,-4130" />
          <path d="M40900,12823.9l-200,0" />
          <path d="M40700,12823.9l0,4500" />
          <path d="M40700,11423.9l0,500" />
          <path d="M40700,11923.9l200,0" />
          <path d="M40900,11923.9l0,-130" />
          <path d="M46400,17323.9l0,-5900" />
          <path d="M46770,17123.9l0,-5500" />
          <path d="M45930,11793.9l-5030,0" />
          <path d="M46300,11423.9l-5600,0" />
          <path d="M46300,17323.9l-5600,0" />
          <path d="M45930,16953.9l-5030,0" />
          <path d="M46300,17323.9l0,-2050" />
          <path d="M46300,15273.9l-370,0" />
          <path d="M45930,15273.9l0,1680" />
          <path d="M45930,11793.9l0,1680" />
          <path d="M45930,13473.9l370,0" />
          <path d="M46300,13473.9l0,-2050" />
          <path d="M50700,11423.9l-400,0" />
          <path d="M50300,11423.9l0,200" />
          <path d="M50300,11623.9l300,0" />
          <path d="M46770,11623.9l230,0" />
          <path d="M47000,11623.9l0,-200" />
          <path d="M47000,11423.9l-600,0" />
          <path d="M49400,11423.9l-400,0" />
          <path d="M49000,11423.9l0,200" />
          <path d="M49000,11623.9l400,0" />
          <path d="M49400,11623.9l0,-200" />
          <path d="M50600,17123.9l-300,0" />
          <path d="M50300,17123.9l0,200" />
          <path d="M50300,17323.9l400,0" />
          <path d="M46400,17323.9l500,0" />
          <path d="M46900,17323.9l0,-200" />
          <path d="M46900,17123.9l-130,0" />
          <path d="M50800,17123.9l0,-300" />
          <path d="M50800,16823.9l-200,0" />
          <path d="M50600,16823.9l0,300" />
          <path d="M50600,11623.9l0,300" />
          <path d="M50600,11923.9l200,0" />
          <path d="M50800,11923.9l0,-130" />
          <path d="M75115,17323.9l0,350" />
          <path d="M75115,17673.9l370,0" />
          <path d="M75485,17673.9l0,-535" />
          <path d="M75485,19408.9l0,-535" />
          <path d="M75485,18873.9l-370,0" />
          <path d="M75115,18873.9l0,350" />
          <path d="M60800,11793.9l-10000,0" />
          <path d="M61000,11423.9l-10300,0" />
          <path d="M61000,17323.9l-10300,0" />
          <path d="M60800,17123.9l-10000,0" />
          <path d="M63399.99,11793.9l-0.05,1230.11" />
          <path d="M63200.01,11423.9l-0.06,1500.1" />
          <path d="M61000,13123.9l349.96,0.01" />
          <path d="M61349.96,13123.92l0.01,-200" />
          <path d="M61349.97,12923.92l-349.97,-0.01" />
          <path d="M63199.94,12924l-349.97,-0.01" />
          <path d="M62849.97,12923.98l-0.01,200" />
          <path d="M62849.96,13123.98l349.97,0.01" />
          <use xlink:href="#$DorLib2D$00000004" x="40.6" y="9.583" transform="scale(1500,1500) rotate(-90,40.6,9.58)" stroke-width="0.0001%">.<g class="blkclass0"><text transform="rotate(-90 735.63,712.5) translate(735.63,712.5)" font-size="580.125">M1524</text></g></use>
          <use xlink:href="#$DorLib2D$00000004" x="42.2" y="9.583" transform="scale(1500,1500) rotate(-270,42.2,9.58)" stroke-width="0.0001%">.<g class="blkclass0"><text transform="rotate(-90 -289.4,712.49) translate(-289.4,712.49)" font-size="580.125">M1524</text></g></use>
          <use xlink:href="#$DorLib2D$00000004" x="41.4" y="8.683" transform="scale(1500,1500) rotate(-360,41.4,8.68)" stroke-width="0.0001%">.<g class="blkclass0"><text transform="rotate(-360 -712.53,735.59) translate(-712.53,735.59)" font-size="580.125">M1524</text></g></use>
          <use xlink:href="#$TCHSYS$WIN2D_4900x200" x="50700" y="14373.9" transform="rotate(-90,50700,14373.9)">.<g class="blkclass0"><text transform="rotate(-90 735.62,645) translate(735.62,645)" font-size="580.125">C4921</text></g></use>
          <use xlink:href="#$TCHSYS$WIN2D_4900x200" x="30700" y="17223.9" transform="scale(1,-1) translate(0,-34447.8) rotate(-180,30700,17223.9)">.<g class="blkclass0"><text transform="translate(-645,-264.38)" font-size="580.125">C4921</text></g></use>
          <use xlink:href="#$TCHSYS$WIN2D_4900x200" x="27800" y="14373.4" transform="rotate(-90,27800,14373.4)">.<g class="blkclass0"><text transform="rotate(-90 735.63,720) translate(735.63,720)" font-size="580.125">C4924</text></g></use>
          <use xlink:href="#$TCHSYS$WIN2D_3500x200" x="31500" y="11523.9" transform="rotate(-180,31500,11523.9)">.<g class="blkclass0"><text transform="translate(-645,-374.37)" font-size="580.125">C3521</text></g></use>
          <path d="M33600,11423.9l-350,0" />
          <path d="M33250,11423.9l0,200" />
          <path d="M33250,11623.9l250,0" />
          <path d="M27899.76,11623.9l450.24,0" />
          <path d="M28350,11623.9l0,-200" />
          <path d="M28350,11423.9l-450.24,0" />
          <path d="M27899.76,11423.9l0,200" />
          <path d="M29750,11423.9l-500,0" />
          <path d="M29250,11423.9l0,200" />
          <path d="M29250,11623.9l500,0" />
          <path d="M29750,11623.9l0,-200" />
          <use xlink:href="#$DorLib2D$00000003" x="32" y="12.804" transform="scale(900,900) rotate(-180,32,12.8)" stroke-width="0.0001%">.<g class="blkclass0"><text transform="translate(-742.5,-289.38)" font-size="580.125">M0924</text></g></use>
          <use xlink:href="#$DorLib2D$00000003" x="42" y="13.749" transform="scale(900,900) rotate(-90,42,13.75)" stroke-width="0.0001%">.<g class="blkclass0"><text transform="rotate(-90 735.62,742.5) translate(735.62,742.5)" font-size="580.125">M0924</text></g></use>
          <use xlink:href="#$DorLib2D$00000003" x="45.333" y="13.749" transform="scale(900,900) scale(1,-1) translate(0,-27.5) rotate(-270,45.33,13.75)" stroke-width="0.0001%">.<g class="blkclass0"><text transform="rotate(-90 -289.38,742.5) translate(-289.38,742.5)" font-size="580.125">M0924</text></g></use>
          <use xlink:href="#$TCHSYS$WIN2D_1200x370" x="33685" y="15623.9" transform="scale(1,-1) translate(0,-31247.8) rotate(-270,33685,15623.9)">.<g class="blkclass0"><text transform="rotate(-90 725.62,675) translate(725.62,675)" font-size="580.125">C1206</text></g></use>
          <use xlink:href="#$TCHSYS$WIN2D_1200x370" x="33685" y="13123.9" transform="scale(-1,-1) translate(-67370,-26247.8) rotate(-90,33685,13123.9)">.<g class="blkclass0"><text transform="rotate(-90 -374.38,675) translate(-374.38,675)" font-size="580.125">C1206</text></g></use>
          <use xlink:href="#$TCHSYS$WIN2D_1800x370" x="46115" y="14373.9" transform="scale(1,-1) translate(0,-28747.8) rotate(-270,46115,14373.9)">.<g class="blkclass0"><text transform="rotate(-90 -374.38,675) translate(-374.38,675)" font-size="580.125">C1806</text></g></use>
          <use xlink:href="#$TCHSYS$WIN2D_3400x200" x="48600" y="17223.9" transform="rotate(-180,48600,17223.9)">.<g class="blkclass0"><text transform="rotate(0 -645,-289.37) translate(-645,-289.37)" font-size="580.125">C3421</text></g></use>
          <use xlink:href="#$TCHSYS$WIN2D_2000x200" x="48000" y="11523.9" transform="rotate(-180,48000,11523.9)">.<g class="blkclass0"><text transform="rotate(-360 -645,-289.38) translate(-645,-289.38)" font-size="580.125">C2021</text></g></use>
          <use xlink:href="#$DorLib2D$00000003" x="55.389" y="12.804" transform="scale(900,900) scale(-1,1) translate(-110.78,0) rotate(-180,55.39,12.8)" stroke-width="0.0001%">.<g class="blkclass0"><text transform="rotate(-360 -742.5,-289.38) translate(-742.5,-289.38)" font-size="580.125">M0924</text></g></use>
          <path d="M27899.76,11923.9l0,-300" />
          <path d="M29299.76,11923.9l0,-300" />
          <path d="M27899.76,11923.9l1400,0" />
          <path d="M27899.76,11623.9l1400,0" />
          <use xlink:href="#$TCHSYS$WIN2D_1200x370" x="77100" y="8323.9" transform="rotate(-270,77100,8323.9)">.<g class="blkclass0"><text transform="rotate(-90 825.62,352.5) translate(825.62,352.5)" font-size="580.125">C1215</text></g></use>
          <path d="M76915,323.9l0,800" />
          <path d="M76915,1123.9l370,0" />
          <path d="M77285,1123.9l0,-900" />
          <path d="M77285,2223.9l0,-200" />
          <path d="M77285,2023.9l-370,0" />
          <path d="M76915,2023.9l0,100" />
          <path d="M73085,323.9l0,1800" />
          <path d="M72715,223.9l0,1900" />
          <path d="M76915,323.9l-3830,0" />
          <path d="M76915,123.9l-3830,0" />
          <use xlink:href="#$DorLib2D$00000003" x="85.667" y="1.749" transform="scale(900,900) scale(1,-1) translate(0,-3.5) rotate(-90,85.67,1.75)" stroke-width="0.0001%">.<g class="blkclass0"><text transform="rotate(-90 820.62,667.5) translate(820.62,667.5)" font-size="580.125">M0921</text></g></use>
          <use xlink:href="#$DorLib2D$00000003" x="85.667" y="-1.696" transform="scale(900,900) scale(-1,-1) translate(-171.33,3.39) rotate(-270,85.67,-1.7)" stroke-width="0.0001%">.<g class="blkclass0"><text transform="rotate(-90 821.4,667.5) translate(821.4,667.5)" font-size="580.125">M0921</text></g></use>
          <use xlink:href="#$TCHSYS$WIN2D_1600x370" x="67800" y="-2576.1" transform="scale(-1,-1) translate(-135600,5152.2) rotate(0,67800,-2576.1)">.<g class="blkclass0"><text transform="rotate(0 -690,-374.37) translate(-690,-374.37)" font-size="580.125">C1624</text></g></use>
          <use xlink:href="#$TCHSYS$WIN2D_1600x370" x="70500" y="-2576.1" transform="scale(-1,-1) translate(-141000,5152.2) rotate(0,70500,-2576.1)">.<g class="blkclass0"><text transform="rotate(0 -690,-374.37) translate(-690,-374.37)" font-size="580.125">C1624</text></g></use>
          <use xlink:href="#$TCHSYS$WIN2D_1600x370" x="62100" y="-2576.1" transform="scale(-1,-1) translate(-124200,5152.2) rotate(0,62100,-2576.1)">.<g class="blkclass0"><text transform="rotate(0 -690,-374.37) translate(-690,-374.37)" font-size="580.125">C1624</text></g></use>
          <use xlink:href="#$TCHSYS$WIN2D_1600x370" x="64800" y="-2576.1" transform="scale(-1,-1) translate(-129600,5152.2) rotate(0,64800,-2576.1)">.<g class="blkclass0"><text transform="rotate(0 -690,-374.38) translate(-690,-374.38)" font-size="580.125">C1624</text></g></use>
          <use xlink:href="#$DorLib2D$00000004" x="34.125" y="-1.61" transform="scale(1600,1600) scale(-1,-1) translate(-68.25,3.22)" stroke-width="0.0001%">.<g class="blkclass0"><text transform="translate(-705,-374.38)" font-size="580.125">M1627</text></g></use>
          <use xlink:href="#$TCHSYS$WIN2D_1600x370" x="57300" y="-2576.1" transform="scale(-1,-1) translate(-114600,5152.2)">.<g class="blkclass0"><text transform="translate(-690,-374.38)" font-size="580.125">C1624</text></g></use>
          <use xlink:href="#$TCHSYS$WIN2D_1600x370" x="48900" y="-2576.1" transform="scale(-1,1) translate(-97800,0)">.<g class="blkclass0"><text transform="translate(-690,820.62)" font-size="580.125">C1624</text></g></use>
          <use xlink:href="#$DorLib2D$00000004" x="32.25" y="-1.61" transform="scale(1600,1600) scale(-1,-1) translate(-64.5,3.22)" stroke-width="0.0001%">.<g class="blkclass0"><text transform="translate(-705,-374.38)" font-size="580.125">M1627</text></g></use>
          <use xlink:href="#$DorLib2D$00000004" x="25.875" y="-1.61" transform="scale(1600,1600) scale(-1,-1) translate(-51.75,3.22) rotate(-360,25.88,-1.61)" stroke-width="0.0001%">.<g class="blkclass0"><text transform="translate(-705,-374.38)" font-size="580.125">M1627</text></g></use>
          <use xlink:href="#$TCHSYS$WIN2D_1600x370" x="44100" y="-2576.1" transform="scale(-1,-1) translate(-88200,5152.2) rotate(-360,44100,-2576.1)">.<g class="blkclass0"><text transform="translate(-690,-374.38)" font-size="580.125">C1624</text></g></use>
          <use xlink:href="#$TCHSYS$WIN2D_1600x370" x="35400" y="-2576.1" transform="scale(-1,-1) translate(-70800,5152.2) rotate(0,35400,-2576.1)">.<g class="blkclass0"><text transform="rotate(0 -690,-374.38) translate(-690,-374.38)" font-size="580.125">C1624</text></g></use>
          <use xlink:href="#$DorLib2D$00000004" x="23.813" y="-1.61" transform="scale(1600,1600) scale(-1,-1) translate(-47.63,3.22) rotate(0,23.81,-1.61)" stroke-width="0.0001%">.<g class="blkclass0"><text transform="rotate(0 -705,-374.37) translate(-705,-374.37)" font-size="580.125">M1627</text></g></use>
          <use xlink:href="#$DorLib2D$00000004" x="17.438" y="-1.61" transform="scale(1600,1600) scale(-1,-1) translate(-34.88,3.22) rotate(-360,17.44,-1.61)" stroke-width="0.0001%">.<g class="blkclass0"><text transform="translate(-705,-374.38)" font-size="580.125">M1627</text></g></use>
          <use xlink:href="#$TCHSYS$WIN2D_1600x370" x="30600" y="-2576.1" transform="scale(-1,1) translate(-61200,0) rotate(0,30600,-2576.1)">.<g class="blkclass0"><text transform="translate(-690,820.62)" font-size="580.125">C1624</text></g></use>
          <use xlink:href="#$TCHSYS$WIN2D_1600x370" x="22200" y="-2576.1" transform="scale(-1,-1) translate(-44400,5152.2) rotate(-360,22200,-2576.1)">.<g class="blkclass0"><text transform="translate(-690,-374.38)" font-size="580.125">C1624</text></g></use>
          <use xlink:href="#$DorLib2D$00000004" x="15.563" y="-1.61" transform="scale(1600,1600) scale(-1,-1) translate(-31.13,3.22) rotate(-360,15.56,-1.61)" stroke-width="0.0001%">.<g class="blkclass0"><text transform="translate(-705,-374.38)" font-size="580.125">M1627</text></g></use>
          <use xlink:href="#$DorLib2D$00000004" x="9.188" y="-1.569" transform="scale(1600,1600) scale(-1,-1) translate(-18.38,3.14)" stroke-width="0.0001%">.<g class="blkclass0"><text transform="translate(-705,-439.38)" font-size="580.125">M1627</text></g></use>
          <use xlink:href="#$TCHSYS$WIN2D_1600x500" x="17400" y="-2511.1" transform="scale(-1,1) translate(-34800,0)">.<g class="blkclass0"><text transform="translate(-690,885.62)" font-size="580.125">C1624</text></g></use>
          <path d="M74650,6888.9l0,-765l0,-450" />
          <path d="M73900,6483.9l1440,0" />
          <path d="M73900,6213.9l1440,0" />
          <path d="M73948.52,5943.9l1391.48,0" />
          <path d="M74416.17,5673.9l923.83,0" />
          <path d="M74883.83,5403.9l456.17,0" />
          <path d="M73900,6753.9l0,-781.99" />
          <path d="M73900,6753.9l1440,0" />
          <path d="M75400,6753.9l0,-1648.01" />
          <path d="M75400,5105.89l-689.48,398.07" />
          <path d="M74710.52,5503.96l34.94,130.4" />
          <path d="M74745.46,5634.36l-206.04,-172.89" />
          <path d="M74539.41,5461.47l32.78,122.35" />
          <path d="M74572.2,5583.82l-672.2,388.09" />
          <path d="M75340,6783.9l0,-1643.37" />
          <path d="M75400,6783.9l0,-1678.01" />
          <path d="M75340,6783.9l60,0" />
          <path d="M22635,15763.9l765,0l450,0" />
          <path d="M23040,14633.9l0,2320" />
          <path d="M23310,14633.9l0,2320" />
          <path d="M23580,15062.42l0,1891.48" />
          <path d="M23850,15530.07l0,1423.83" />
          <path d="M24120,15997.73l0,956.17" />
          <path d="M24390,16465.38l0,488.52" />
          <path d="M24660,16933.03l0,20.87" />
          <path d="M22770,16953.9l1902.05,0" />
          <path d="M22770,14633.9l0,2320" />
          <path d="M22770,14573.9l527.95,0" />
          <path d="M24672.05,16953.9l-652.11,-1129.48" />
          <path d="M24019.94,15824.42l-130.4,34.94" />
          <path d="M23889.54,15859.36l172.89,-206.04" />
          <path d="M24062.43,15653.31l-122.35,32.78" />
          <path d="M23940.08,15686.1l-642.13,-1112.2" />
          <path d="M22740,14573.9l557.95,0" />
          <path d="M22740,14633.9l592.59,0" />
          <path d="M22740,14573.9l0,60" />
          <path d="M61000,17323.9l0,-2200" />
          <path d="M61000,15123.9l-200,0" />
          <path d="M60800,15123.9l0,2000" />
          <path d="M60800,13023.9l0,600" />
          <path d="M60800,13623.9l200,0" />
          <path d="M61000,13623.9l0,-500" />
          <path d="M60800,13023.9l0,-1230" />
          <path d="M61000,12923.9l0,-1500" />
          <path d="M63199.94,13124l-0.02,499.89" />
          <path d="M63199.91,13623.89l200,0.01" />
          <path d="M63399.91,13623.9l0.03,-599.89" />
          <path d="M63399.77,16953.9l0.08,-1830" />
          <path d="M63399.85,15123.9l-200,-0.01" />
          <path d="M63199.85,15123.89l-0.09,2200.01" />
          <use xlink:href="#$DorLib2D$00000003" x="31.8" y="9.424" transform="scale(1000,1000) scale(-1,-1) translate(-63.6,-18.85) rotate(-180,31.8,9.42)" stroke-width="0.0001%">.<g class="blkclass0"><text transform="rotate(0 -712.5,735.63) translate(-712.5,735.63)" font-size="580.125">M1024</text></g></use>
          <path d="M26585,6238.9l-370,0" class="body" />
          <path d="M26215,7438.9l370,0" class="body" />
          <use xlink:href="#$DorLib2D$00000003" x="11.8" y="19.409" transform="scale(1000,1000) scale(1,-1) translate(0,-38.82)" stroke-width="0.0001%">.<g class="blkclass0"><text transform="translate(-1212.5,-374.38)" font-size="580.125">M1024</text></g></use>
          <use xlink:href="#$DorLib2D$00000003" x="12.6" y="25.324" transform="scale(1000,1000) scale(1,-1) translate(0,-50.65) rotate(-90,12.6,25.32)" stroke-width="0.0001%" class="body">.<g class="blkclass0"><text transform="rotate(-90 820.62,712.5) translate(820.62,712.5)" font-size="580.125">M1024</text></g></use>
          <path d="M13663.5,29223.9l6273,0" class="body" />
          <path d="M13663.5,29523.9l6273,0" class="body" />
          <path d="M13663.5,29823.9l6273,0" class="body" />
          <path d="M26585,-576.1l-370,0" class="body" />
          <path d="M26215,623.9l370,0" class="body" />
        </g>
      </g>
      <g id="assets" fill="none">
        <g id="rm-assets" class="rm-asset">
          <path id="12001;F01;122-1" d="M19985,-2076.1l615,0l0,-315l5615,0l0,9830l-2900,0l0,1885l-3330,0l0,-650l-370,0l0,480l-6230,0l0,-2045l6230,0l0,365l370,0l0,-9550z" />
          <path id="12001;F01;120-1" d="M39785,-2391.1l5915,0l0,315l315,0l0,11400l-6230,0l0,-11715z" />
          <path id="12001;F01;118" d="M53285,-2391.1l5615,0l0,315l615,0l0,11400l-6230,0l0,-11715z" />
          <path id="12001;F01;121-2" d="M26585,-2391.1l5615,0l0,315l615,0l0,11400l-6230,0l0,-11715z" />
          <path id="12001;F01;119" d="M46685,-2076.1l615,0l0,-315l5615,0l0,11715l-6230,0l0,-11400z" />
          <path id="12001;F01;117" d="M59885,-2076.1l615,0l0,-315l5615,0l0,11715l-6230,0z" />
          <path id="12001;F01;121-1" d="M33185,-2076.1l615,0l0,-315l5615,0l0,11715l-6230,0l0,-11400z" />
          <path id="12001;F01;114" d="M63399.99,11793.9l11715.01,0l0,5160l-11715.23,0z" />
          <path id="12001;F01;122-2" d="M13385,-2261.1l5615,0l0,185l615,0l0,8815l-6230,0z" />
          <path id="12001;F01;115" d="M50800,11793.9l10000,0l0,5330l-10000,0z" />
          <path id="12001;F01;116" d="M66485,-2391.1l5615,0l0,315l615,0l0,4200l-3215,0l0,7200l-3015,0z" />
          <path id="12001;F01;122-5" d="M6785,2623.9l6230,0l0,6530l-4130,-63l0,-1652l-2100,0z" />
          <path id="12001;F01;107" d="M46685,19423.9l3830,0l0,6915l-3515,0l0,-315l-315,0l0,-6600z" />
          <path id="12001;F01;103" d="M29585,19423.9l3830,0l0,6915l-3215,0l0,-315l-615,0l0,-6600z" />
          <path id="12001;F01;106" d="M42185,19423.9l3830,0l0,6600l-615,0l0,315l-3215,0l0,-6915z" />
          <path id="12001;F01;101" d="M21185,19423.9l3830,0l0,6915l-3215,0l0,-315l-615,0l0,-6600z" />
          <path id="12001;F01;105" d="M37985,19423.9l3830,0l0,6915l-3215,0l0,-315l-615,0z" />
          <path id="12001;F01;102" d="M25385,19423.9l3830,0l0,6600l-615,0l0,315l-3215,0l0,-6915z" />
          <path id="12001;F01;104" d="M33785,19423.9l3830,0l0,6600l-615,0l0,315l-3215,0z" />
          <path id="12001;F01;112" d="M67085,19593.9l3830,0l0,6745l-3830,0z" />
          <path id="12001;F01;108" d="M54715,19593.9l-3830,0l0,6745l3215,0l0,-315l615,0l0,-6430z" />
          <path id="12001;F01;100" d="M8585,19593.9l3830,0l0,6430l-615,0l0,315l-3215,0z" />
          <path id="12001;F01;109" d="M55085,19593.9l3830,0l0,6745l-3215,0l0,-315l-615,0l0,-6430z" />
          <path id="12001;F01;113" d="M71285,19593.9l3830,0l0,6745l-2600,0l0,-315l-1230,0z" />
          <path id="12001;F01;111" d="M62885,19593.9l3830,0l0,6745l-2600,0l0,-315l-1230,0z" />
          <path id="12001;F01;110" d="M59285,19593.9l3230,0l0,6745l-3230,0z" />
          <path id="12001;F01;122-3" d="M8800,-591.1l85,0l0,-1670l4130,0l0,4685l-4215,0l0,-3015z" />
          <path id="12001;F01;122-4" d="M6785,-591.1l1815,0l0,3015l-1815,0z" />
        </g>
      </g>
    </g>
    <g id="text" font-family="Arial" font-size="658.29787234042544" font-weight="normal" text-style="normal" text-anchor="start" dominant-baseline="alphabetical" fill="#FFFFFF" xml:space="preserve">
      <g id="layer-body-text">
        <g transform="translate(74493.62,7571.4)">
          <text>上</text>
        </g>
        <g transform="translate(22164.73,16026.4)">
          <text>上</text>
        </g>
      </g>
    </g>
    <g id="asset-labels" font-family="Arial" font-weight="bold" font-size="38.1em" text-anchor="middle">
      <g id="rm-labels">
        <g id="l-rm-12001;F01;122-1" transform="translate(19800,3466.4)">
          <text>122-1</text>
        </g>
        <g id="l-rm-12001;F01;120-1" transform="translate(42900,3466.4)">
          <text>120-1</text>
        </g>
        <g id="l-rm-12001;F01;118" transform="translate(56400,3466.4)">
          <text>118</text>
        </g>
        <g id="l-rm-12001;F01;121-2" transform="translate(29700,3466.4)">
          <text>121-2</text>
        </g>
        <g id="l-rm-12001;F01;119" transform="translate(49800,3466.4)">
          <text>119</text>
        </g>
        <g id="l-rm-12001;F01;117" transform="translate(63000,3466.4)">
          <text>117</text>
        </g>
        <g id="l-rm-12001;F01;121-1" transform="translate(36300,3466.4)">
          <text>121-1</text>
        </g>
        <g id="l-rm-12001;F01;114" transform="translate(69257.39,14373.9)">
          <text>114</text>
        </g>
        <g id="l-rm-12001;F01;122-2" transform="translate(16500,2238.9)">
          <text>122-2</text>
        </g>
        <g id="l-rm-12001;F01;115" transform="translate(55800,14458.9)">
          <text>115</text>
        </g>
        <g id="l-rm-12001;F01;116" transform="translate(69600,3466.4)">
          <text>116</text>
        </g>
        <g id="l-rm-12001;F01;122-5" transform="translate(9900,5888.9)">
          <text>122-5</text>
        </g>
        <g id="l-rm-12001;F01;107" transform="translate(48600,22881.4)">
          <text>107</text>
        </g>
        <g id="l-rm-12001;F01;103" transform="translate(31500,22881.4)">
          <text>103</text>
        </g>
        <g id="l-rm-12001;F01;106" transform="translate(44100,22881.4)">
          <text>106</text>
        </g>
        <g id="l-rm-12001;F01;101" transform="translate(23100,22881.4)">
          <text>101</text>
        </g>
        <g id="l-rm-12001;F01;105" transform="translate(39900,22881.4)">
          <text>105</text>
        </g>
        <g id="l-rm-12001;F01;102" transform="translate(27300,22881.4)">
          <text>102</text>
        </g>
        <g id="l-rm-12001;F01;104" transform="translate(35700,22881.4)">
          <text>104</text>
        </g>
        <g id="l-rm-12001;F01;112" transform="translate(69000,22966.4)">
          <text>112</text>
        </g>
        <g id="l-rm-12001;F01;108" transform="translate(52800,22966.4)">
          <text>108</text>
        </g>
        <g id="l-rm-12001;F01;100" transform="translate(10500,22966.4)">
          <text>100</text>
        </g>
        <g id="l-rm-12001;F01;109" transform="translate(57000,22966.4)">
          <text>109</text>
        </g>
        <g id="l-rm-12001;F01;113" transform="translate(73200,22966.4)">
          <text>113</text>
        </g>
        <g id="l-rm-12001;F01;111" transform="translate(64800,22966.4)">
          <text>111</text>
        </g>
        <g id="l-rm-12001;F01;110" transform="translate(60900,22966.4)">
          <text>110</text>
        </g>
        <g id="l-rm-12001;F01;122-3" transform="translate(10907.5,81.4)">
          <text>122-3</text>
        </g>
        <g id="l-rm-12001;F01;122-4" transform="translate(7692.5,916.4)">
          <text>122-4</text>
        </g>
      </g>
    </g>
  </g>
</svg>