<svg version="1.1" xmlns="http://www.w3.org/2000/svg" xmlns:xlink="http://www.w3.org/1999/xlink" viewBox="202352.4 -60730.02 19509 33418">
  <style>.i0 { stroke:#000000;   } .bady { stroke:#ff7f00;   } .rm { stroke:#00ffff;   } .axis_text { stroke:#000000;   } .pub_wall { stroke:#c0c0c0;   } .pub_hatch { stroke:#808080;   } .rm-asset { stroke:#0000ff;   fill:#EEEEEE; fill-opacity:1;} .rmtc-asset { stroke:#0000ff;   } .rmtc { stroke:#00ffff;   } .rm-assettxt { stroke:#0000ff;   } .rmtc-assettxt { stroke:#0000ff;   } .cnc-0 { stroke:#ff7f00;  stroke-dasharray:0; fill:#cccccc; fill-opacity:1;} .cnc-1 { stroke:#0000ff;  stroke-dasharray:0; fill:#cccccc; fill-opacity:1;} .cnc-2 { stroke:#ff7f00;  stroke-dasharray:0; } .cnc-3 { stroke:#ff7f00;  stroke-dasharray:0; } .cnc-4 { stroke:#000000;  stroke-dasharray:0; } .cnc-5 { stroke:#000000;  stroke-dasharray:0; } .cnc-6 { stroke:#0000ff;  stroke-dasharray:0; } .blkclass0 { stroke:#ff7f00;  stroke-width:0.02;  fill:#ff7f00; fill-opacity:1; font-family:Arial; font-size:386.75; font-weight:normal; text-style:normal; text-anchor:start;}</style>
  <view id="defaultView" viewBox="202352.4 -60730.02 19509 33418" />
  <defs>
    <symbol id="_FZH" overflow="visible" class="i0">
      <path d="M-0.5,0.5l1,0l0,-1l-1,0z" />
    </symbol>
    <symbol id="$WINLIB2D$00000001_1800x300" overflow="visible" class="i0">
      <path d="M900,150l0,-300" />
      <path d="M-900,-150l0,300" />
      <path d="M900,-50l-1800,0" />
      <path d="M900,50l-1800,0" />
      <path d="M-900,150l1800,0" />
      <path d="M-900,-150l1800,0" />
    </symbol>
    <symbol id="$WINLIB2D$00000001_7200x300" overflow="visible" class="i0">
      <path d="M3600,150l0,-300" />
      <path d="M-3600,-150l0,300" />
      <path d="M3600,-50l-7200,0" />
      <path d="M3600,50l-7200,0" />
      <path d="M-3600,150l7200,0" />
      <path d="M-3600,-150l7200,0" />
    </symbol>
    <symbol id="$WINLIB2D$00000001_1500x300" overflow="visible" class="i0">
      <path d="M750,150l0,-300" />
      <path d="M-750,-150l0,300" />
      <path d="M750,-50l-1500,0" />
      <path d="M750,50l-1500,0" />
      <path d="M-750,150l1500,0" />
      <path d="M-750,-150l1500,0" />
    </symbol>
    <symbol id="$DorLib2D$00000127_1100x250" overflow="visible" class="i0">
      <path d="M550,-125l-1100,0" />
      <path d="M36.67,-198.72l0,26.12" />
      <path d="M-36.67,-198.72l-550,0" />
      <path d="M-36.67,-172.6l-550,0" />
      <path d="M-36.67,-198.72l0,26.12" />
      <path d="M586.67,-198.72l0,26.12" />
      <path d="M-586.67,-198.72l0,26.12" />
      <path d="M586.67,-172.6l-550,0" />
      <path d="M586.67,-198.72l-550,0" />
    </symbol>
    <symbol id="$DorLib2D$00000231" overflow="visible" class="i0">
      <path d="M-0.5,0l0.25,-0.43" />
      <path d="M-0.25,-0.43a0.5,0.5 0 0,1 0.25,0.43" />
      <path d="M0,0a0.5,0.5 0 0,1 0.25,-0.43" />
      <path d="M0.5,0l-0.25,-0.43" />
    </symbol>
    <symbol id="$WINLIB2D$00000001_900x250" overflow="visible" class="i0">
      <path d="M450,125l0,-250" />
      <path d="M-450,-125l0,250" />
      <path d="M450,-41.67l-900,0" />
      <path d="M450,41.67l-900,0" />
      <path d="M-450,125l900,0" />
      <path d="M-450,-125l900,0" />
    </symbol>
    <symbol id="$DorLib2D$00000228" overflow="visible" class="i0">
      <path d="M-0.5,0a1,1 0 0,1 0.5,-0.87" />
      <path d="M0.5,0l-0.5,-0.87" />
    </symbol>
    <symbol id="$lvtry$00000193" overflow="visible" class="i0">
      <circle r="20" cy="200" />
      <path d="M-24.71,84.86a166.25,166.25 0 0,1 28.52,-25.84" />
      <path d="M-24.71,84.85a6.77,6.77 0 0,1 -10.36,-8.14" />
      <path d="M-16.69,42.9a166.25,166.25 0 0,1 -18.37,33.81" />
      <path d="M9.2,99.6a9.9,9.9 0 0,1 -18.4,0" />
      <path d="M9.2,99.6a372.22,372.22 0 0,1 5.21,-48.41" />
      <path d="M14.41,51.19a172.58,172.58 0 0,1 27.83,-7.78" />
      <path d="M43.06,23.92a10.06,10.06 0 0,1 -0.82,19.49" />
      <path d="M-42.24,43.41a10.06,10.06 0 0,1 -0.82,-19.49" />
      <path d="M-11.46,71.35a372.22,372.22 0 0,1 2.26,28.25" />
      <path d="M-42.24,43.41a172.58,172.58 0 0,1 22.78,5.99" />
      <circle r="16.692" cy="42.77" />
      <path d="M-27.27,82.62a169.65,169.65 0 0,1 13.49,-13.76" />
      <path d="M-13.78,68.86a10.6,10.6 0 0,1 -8.32,-6.54" />
      <path d="M-22.1,62.32a169.65,169.65 0 0,1 -10.18,16.35" />
      <path d="M-26.82,82.18a3.37,3.37 0 0,1 -5.15,-4.05" />
      <path d="M-16.69,42.77l0,-9.84" />
      <path d="M16.69,42.77l0,-9.84" />
      <path d="M43.06,23.92a258.71,258.71 0 0,1 -34.21,-5.14" />
      <path d="M-8.85,18.78a258.71,258.71 0 0,1 -34.21,5.14" />
      <path d="M-16.69,32.93a16.69,16.69 0 0,1 33.38,0" />
      <path d="M-25.26,61.02a313.49,313.49 0 0,0 -69.75,13.73m0,0a237.05,237.05 0 0,0 -72.52,37.88m0.01,0a178.75,178.75 0 0,0 -48.46,56.91m-0.01,0a116.81,116.81 0 0,0 -14,55.46a116.81,116.81 0 0,0 14,55.46m0.01,0a178.75,178.75 0 0,0 48.46,56.91m-0.01,0a237.05,237.05 0 0,0 72.52,37.88m0,0a313.49,313.49 0 0,0 95.02,14.75a313.49,313.49 0 0,0 95.02,-14.75m0,0a237.05,237.05 0 0,0 72.52,-37.88m-0.01,0a178.75,178.75 0 0,0 48.46,-56.91m0.01,0a116.81,116.81 0 0,0 14,-55.46a116.81,116.81 0 0,0 -14,-55.46m-0.01,0a178.75,178.75 0 0,0 -48.46,-56.91m0.01,0a237.05,237.05 0 0,0 -72.52,-37.88m0,0a313.49,313.49 0 0,0 -82.08,-14.48" class="cnc-4" />
      <path d="M280,215a166.81,166.81 0 0,0 -20,-79.2m-0.01,0a228.75,228.75 0 0,0 -62.01,-72.83m0.01,0a287.05,287.05 0 0,0 -87.82,-45.87m0,0a363.49,363.49 0 0,0 -110.17,-17.1a363.49,363.49 0 0,0 -110.17,17.1m0,0a287.05,287.05 0 0,0 -87.82,45.87m0.01,0a228.75,228.75 0 0,0 -62.01,72.83m-0.01,0a166.81,166.81 0 0,0 -20,79.2a166.81,166.81 0 0,0 20,79.2m0.01,0a228.75,228.75 0 0,0 62.01,72.83m-0.01,0a287.05,287.05 0 0,0 87.82,45.87m0,0a363.49,363.49 0 0,0 110.17,17.1a363.49,363.49 0 0,0 110.17,-17.1m0,0a287.05,287.05 0 0,0 87.82,-45.87m-0.01,0a228.75,228.75 0 0,0 62.01,-72.83m0.01,0a166.81,166.81 0 0,0 20,-79.2" class="cnc-4" />
    </symbol>
    <symbol id="$WINLIB2D$00000001_2100x200" overflow="visible" class="i0">
      <path d="M1050,100l0,-200" />
      <path d="M-1050,-100l0,200" />
      <path d="M1050,-33.33l-2100,0" />
      <path d="M1050,33.33l-2100,0" />
      <path d="M-1050,100l2100,0" />
      <path d="M-1050,-100l2100,0" />
    </symbol>
    <symbol id="$lvtry$00000202" overflow="visible" class="i0">
      <path d="M139.78,40a40,40 0 0,0 -40,-40m0,0l-199.57,0m0,0a40,40 0 0,0 -40,40m0,0l0,439.66m0,0a110,110 0 0,0 110,110m0,0l59.57,0m0,0a110,110 0 0,0 110,-110m0,0l0,-439.66" class="cnc-4" />
      <path d="M99.78,30a10,10 0 0,1 10,10" />
      <path d="M-109.78,40a10,10 0 0,1 10,-10" />
      <path d="M99.78,30l-199.57,0" />
      <circle r="20" cy="358.61" />
      <path d="M139.78,469.66l-279.57,0" />
      <path d="M109.78,469.66l0,-429.66" />
      <path d="M-109.78,40l0,429.66" />
    </symbol>
    <symbol id="$TCHSYS$APDOOR2D" overflow="visible" class="i0">
      <path d="M0.5,0l-0.5,-0.87" />
      <path d="M-0.5,0a1,1 0 0,1 0.5,-0.87" />
    </symbol>
    <symbol id="$lvtry$00000222" overflow="visible" class="i0">
      <path d="M-205,190.69l0,-190.69l410,0l0,190.69m0,0a203.43,203.43 0 0,0 -154.23,132.77m-50.77,36.19a54,54 0 0,0 50.77,-36.18m-101.53,0a54,54 0 0,0 50.77,36.18m-50.77,-36.19a203.43,203.43 0 0,0 -154.23,-132.77" class="cnc-4" />
      <path d="M22.45,323.92a233.43,233.43 0 0,1 138.63,-141.65" />
      <path d="M-155.89,184.28a233.43,233.43 0 0,1 133.44,139.64" />
      <circle r="20" cy="241.62" />
      <path d="M22.45,323.92a24,24 0 0,1 -22.45,16.08" />
      <path d="M0,340a24,24 0 0,1 -22.45,-16.08" />
      <path d="M-156.25,165.88a395,395 0 0,1 317.79,-2.15" />
      <path d="M-155.89,184.29a10,10 0 0,1 -0.36,-18.41" />
      <circle r="20" cx="-0.03" cy="60.43" />
      <path d="M161.54,163.73a10,10 0 0,1 -0.46,18.55" />
    </symbol>
    <symbol id="$lvtry$00000188" overflow="visible" class="i0">
      <path d="M262.08,174.72a74.88,74.88 0 0,0 -74.88,-74.88" class="cnc-5" />
      <path d="M-262.08,0a37.44,37.44 0 0,0 -37.44,37.44l0,474.24a37.44,37.44 0 0,0 37.44,37.44l524.16,0a37.44,37.44 0 0,0 37.44,-37.44l0,-474.24a37.44,37.44 0 0,0 -37.44,-37.44l-524.16,0" class="cnc-5" />
      <path d="M31.2,99.84l156,0" />
      <circle r="24.96" cx="-80.35" cy="62.4" />
      <path d="M-38.06,49.92l76.12,0" />
      <path d="M-41.02,53.41a3,3 0 0,1 2.96,-3.49" />
      <path d="M38.06,49.92a3,3 0 0,1 2.96,3.49" />
      <circle r="19.96" cx="-80.35" cy="62.4" />
      <circle r="19.96" cx="80.35" cy="62.4" />
      <circle r="24.96" cx="80.35" cy="62.4" />
      <circle r="37.44" cy="299.52" />
      <path d="M-12.48,224.64l24.96,0" />
      <path d="M262.08,436.8a74.88,74.88 0 0,1 -74.88,74.88" />
      <path d="M262.08,174.72l0,262.08" />
      <path d="M-41.02,53.41l28.54,171.23" />
      <path d="M12.48,224.64l28.54,-171.23" />
      <path d="M-262.08,174.72a74.88,74.88 0 0,1 74.88,-74.88" />
      <path d="M-187.2,511.68a74.88,74.88 0 0,1 -74.88,-74.88" />
      <path d="M-262.08,436.8l0,-262.08" />
      <path d="M187.2,511.68l-374.4,0" />
      <path d="M-187.2,99.84l156,0" />
    </symbol>
  </defs>
  <g id="viewer">
    <g id="mirror" transform="scale(1, 1)" stroke-width="0.09%">
      <g id="background" fill="none">
        <g id="layer-bady-fills" class="cnc-0">
          <path d="M216909.39,-57626.71l1523.21,0l0,1716.73l-1523.21,0z" />
          <path d="M218514.19,-57328.81l266.68,0l0,1048.11l-266.68,0z" />
          <path d="M216909.39,-59726.71l1523.21,0l0,1716.73l-1523.21,0z" />
          <path d="M218514.19,-59428.81l266.68,0l0,1048.11l-266.68,0z" />
          <path d="M211356.55,-52966.1l0,-1800l600,0l0,1800z" />
          <path d="M215556.55,-43816.1l200,0l0,200l-200,0z" />
          <path d="M216756.55,-43816.1l200,0l0,200l-200,0z" />
          <path d="M215556.55,-35816.1l200,0l0,200l-200,0z" />
          <path d="M216756.55,-35816.1l200,0l0,200l-200,0z" />
        </g>
        <g id="layer-RM-fills" class="rm">
          <path d="M205156.55,-56016.1l6050,0l0,149.81l150,0l0,-149.81l1900,0l0,450l-2056.93,0l6.93,1200l-3600,0l0,150l-2450,0l0,-1800z" class="cnc-1" />
          <path d="M208356.55,-35916.1l0,850l4900,0l0,-250l-300,0l0,-600z" />
          <path d="M216756.55,-59816.1l2100,0l0,1900l-2100,0z" />
          <path d="M216756.55,-57716.1l2100,0l0,1900l-2100,0z" />
        </g>
        <g id="layer-bady" class="cnc-2">
          <path d="M202364.78,-57916.1l1729.7,0" />
          <path d="M216656.55,-55402.41l0,-5313.69" />
          <path d="M218432.61,-57626.71l-1523.21,1716.73" />
          <path d="M216909.39,-57626.71l1523.21,1716.73" />
          <path d="M218432.61,-59726.71l-1523.21,1716.73" />
          <path d="M216909.39,-59726.71l1523.21,1716.73" />
          <use xlink:href="#_FZH" x="266.696" y="-54.645" transform="scale(800,800)" stroke-width="0.0001%">.</use>
          <use xlink:href="#_FZH" x="266.696" y="-64.645" transform="scale(800,800)" stroke-width="0.0001%">.</use>
          <use xlink:href="#_FZH" x="266.696" y="-44.645" transform="scale(800,800)" stroke-width="0.0001%">.</use>
          <use xlink:href="#_FZH" x="266.696" y="-34.645" transform="scale(800,800)" stroke-width="0.0001%">.</use>
          <use xlink:href="#_FZH" x="266.696" y="-74.645" transform="scale(800,800)" stroke-width="0.0001%">.</use>
          <use xlink:href="#_FZH" x="276.821" y="-34.645" transform="scale(800,800)" stroke-width="0.0001%">.</use>
          <use xlink:href="#_FZH" x="276.821" y="-44.645" transform="scale(800,800)" stroke-width="0.0001%">.</use>
          <use xlink:href="#_FZH" x="276.821" y="-54.645" transform="scale(800,800)" stroke-width="0.0001%">.</use>
          <use xlink:href="#_FZH" x="276.821" y="-64.645" transform="scale(800,800)" stroke-width="0.0001%">.</use>
          <use xlink:href="#_FZH" x="256.571" y="-54.645" transform="scale(800,800)" stroke-width="0.0001%">.</use>
          <use xlink:href="#_FZH" x="256.571" y="-64.645" transform="scale(800,800)" stroke-width="0.0001%">.</use>
          <use xlink:href="#_FZH" x="256.571" y="-44.645" transform="scale(800,800)" stroke-width="0.0001%">.</use>
          <use xlink:href="#_FZH" x="256.571" y="-34.645" transform="scale(800,800)" stroke-width="0.0001%">.</use>
          <use xlink:href="#_FZH" x="256.571" y="-74.645" transform="scale(800,800)" stroke-width="0.0001%">.</use>
          <path d="M212956.55,-59816.1l-7300,0" />
          <path d="M212956.55,-60116.1l-7300,0" />
          <path d="M205156.55,-28116.1l0,-800" />
          <path d="M205156.55,-28916.1l-300,0" />
          <path d="M204856.55,-28916.1l0,800" />
          <path d="M204856.55,-35316.1l0,800" />
          <path d="M204856.55,-34516.1l300,0" />
          <path d="M205156.55,-34516.1l0,-800" />
          <path d="M205156.55,-30716.1l0,-2000" />
          <path d="M205156.55,-32716.1l-300,0" />
          <path d="M204856.55,-32716.1l0,2000" />
          <path d="M204856.55,-30716.1l300,0" />
          <use xlink:href="#$WINLIB2D$00000001_1800x300" x="205006.55" y="-29816.1" transform="scale(-1,-1) translate(-410013.1,59632.2) rotate(-90,205006.55,-29816.1)">.<g class="blkclass0"><text transform="rotate(-90 605.45,455) translate(605.45,455)" font-size="386.75">C1827</text></g></use>
          <use xlink:href="#$WINLIB2D$00000001_1800x300" x="205006.55" y="-33616.1" transform="scale(-1,-1) translate(-410013.1,67232.2) rotate(-90,205006.55,-33616.1)">.<g class="blkclass0"><text transform="rotate(-90 549.61,410.87) translate(549.61,410.87)" font-size="386.75">C1818</text></g></use>
          <use xlink:href="#$WINLIB2D$00000001_7200x300" x="205006.55" y="-39716.1" transform="scale(-1,1) translate(-410013.1,0) rotate(-270,205006.55,-39716.1)">.<g class="blkclass0"><text transform="rotate(-90 573.75,527.1) translate(573.75,527.1)" font-size="386.75">C7221</text></g></use>
          <use xlink:href="#$WINLIB2D$00000001_7200x300" x="205006.55" y="-47716.1" transform="scale(-1,1) translate(-410013.1,0) rotate(-270,205006.55,-47716.1)">.<g class="blkclass0"><text transform="rotate(-90 573.75,469.72) translate(573.75,469.72)" font-size="386.75">C7221</text></g></use>
          <path d="M205656.55,-27616.1l7300,0" />
          <path d="M205656.55,-27316.1l7300,0" />
          <path d="M213756.55,-27616.1l7300,0" />
          <path d="M213756.55,-27316.1l7300,0" />
          <path d="M212956.55,-36116.1l-1399.86,0" />
          <path d="M211556.69,-36116.1l0,200" />
          <path d="M211556.69,-35916.1l1399.86,0" />
          <path d="M208356.55,-35916.1l1700.14,0" />
          <path d="M210056.69,-35916.1l0,-200" />
          <path d="M210056.69,-36116.1l-1700.14,0" />
          <path d="M208356.55,-35916.1l0,850" />
          <path d="M208156.55,-35916.1l0,1050" />
          <path d="M213256.55,-31216.1l0,-800" />
          <path d="M213456.55,-31216.1l0,-800" />
          <path d="M213256.55,-31216.1l200,0" />
          <path d="M205156.55,-52116.1l0,-800" />
          <path d="M205156.55,-52916.1l-300,0" />
          <path d="M204856.55,-52916.1l0,800" />
          <path d="M204856.55,-59316.1l0,800" />
          <path d="M204856.55,-58516.1l300,0" />
          <path d="M205156.55,-58516.1l0,-800" />
          <path d="M205156.55,-54716.1l0,-2000" />
          <path d="M205156.55,-56716.1l-300,0" />
          <path d="M204856.55,-56716.1l0,2000" />
          <path d="M204856.55,-54716.1l300,0" />
          <use xlink:href="#$WINLIB2D$00000001_1800x300" x="205006.55" y="-57616.1" transform="scale(-1,1) translate(-410013.1,0) rotate(-270,205006.55,-57616.1)">.<g class="blkclass0"><text transform="rotate(-90 573.75,455) translate(573.75,455)" font-size="386.75">C1827</text></g></use>
          <use xlink:href="#$WINLIB2D$00000001_1800x300" x="205006.55" y="-53816.1" transform="scale(-1,1) translate(-410013.1,0) rotate(-270,205006.55,-53816.1)">.<g class="blkclass0"><text transform="rotate(-90 -300.71,451.48) translate(-300.71,451.48)" font-size="386.75">C1818</text></g></use>
          <path d="M216749.83,-60116.1l-893.28,0" />
          <path d="M215856.55,-60116.1l0,300" />
          <path d="M215856.55,-59816.1l650,0" />
          <path d="M213756.55,-59816.1l600,0" />
          <path d="M214356.55,-59816.1l0,-300" />
          <path d="M214356.55,-60116.1l-600,0" />
          <use xlink:href="#$WINLIB2D$00000001_1500x300" x="215106.55" y="-59966.1" transform="scale(-1,1) translate(-430213.1,0) rotate(-180,215106.55,-59966.1)">.<g class="blkclass0"><text transform="translate(-410,-276.25)" font-size="386.75">C1521</text></g></use>
          <path d="M216506.55,-59816.1l0,400" />
          <path d="M216506.55,-59416.1l250,0" />
          <path d="M216756.55,-59416.1l0,-400" />
          <path d="M216756.55,-57916.1l0,-400" />
          <path d="M216756.55,-58316.1l-250,0" />
          <path d="M216506.55,-58316.1l0,400" />
          <use xlink:href="#$DorLib2D$00000127_1100x250" x="216631.55" y="-58866.1" transform="rotate(-270,216631.55,-58866.1)">.</use>
          <path d="M216756.55,-55816.1l2100,0" />
          <path d="M216506.55,-55566.1l2600,0" />
          <path d="M218856.55,-59816.1l-2100,0" />
          <path d="M219106.55,-60116.1l-2356.72,0" />
          <path d="M218856.55,-55816.1l0,-1900" />
          <path d="M219106.55,-55566.1l0,-2350" />
          <path d="M216506.55,-57916.1l0,600" />
          <path d="M216506.55,-57316.1l250,0" />
          <path d="M216756.55,-57316.1l0,-400" />
          <path d="M216756.55,-55816.1l0,-400" />
          <path d="M216756.55,-56216.1l-250,0" />
          <path d="M216506.55,-56216.1l0,650" />
          <use xlink:href="#$DorLib2D$00000127_1100x250" x="216631.55" y="-56766.1" transform="rotate(-270,216631.55,-56766.1)">.</use>
          <path d="M218856.55,-57916.1l0,-1900" />
          <path d="M219106.55,-57916.1l0,-2200" />
          <path d="M216756.55,-57916.1l2100,0" />
          <path d="M216756.55,-57716.1l2100,0" />
          <path d="M219106.55,-52116.1l1950,0" />
          <path d="M218856.55,-51866.1l2200,0" />
          <path d="M213456.55,-56216.1l0,-1300" />
          <path d="M213456.55,-57516.1l-200,0" />
          <path d="M213256.55,-57516.1l0,1300" />
          <path d="M213256.55,-59316.1l0,300" />
          <path d="M213256.55,-59016.1l200,0" />
          <path d="M213456.55,-59016.1l0,-300" />
          <use xlink:href="#$DorLib2D$00000231" x="142.238" y="-38.844" transform="scale(1500,1500) rotate(-90,142.24,-38.84)" stroke-width="0.0001%">.</use>
          <path d="M213456.55,-37616.1l0,-2800" />
          <path d="M213456.55,-40416.1l-200,0" />
          <path d="M213256.55,-40416.1l0,2600" />
          <path d="M213256.55,-43316.1l0,1400" />
          <path d="M213256.55,-41916.1l200,0" />
          <path d="M213456.55,-41916.1l0,-1400" />
          <path d="M213456.55,-44116.1l0,-340" />
          <path d="M213456.55,-44456.1l-200,0" />
          <path d="M213256.55,-44456.1l0,340" />
          <path d="M213256.55,-51316.1l0,2800" />
          <path d="M213256.55,-48516.1l200,0" />
          <path d="M213456.55,-48516.1l0,-2800" />
          <path d="M213456.55,-45956.1l0,-1060" />
          <path d="M213456.55,-47016.1l-200,0" />
          <path d="M213256.55,-47016.1l0,1060" />
          <path d="M213256.55,-45956.1l200,0" />
          <path d="M213456.55,-48516.1l0,1500" />
          <path d="M213456.55,-47016.1l-200,0" />
          <path d="M213256.55,-48516.1l200,0" />
          <path d="M213456.55,-47016.1l0,-1500" />
          <path d="M213256.55,-45956.1l0,1500" />
          <path d="M213456.55,-44456.1l0,-1500" />
          <path d="M213256.55,-55566.1l400,0" />
          <path d="M213656.55,-55566.1l0,-250" />
          <path d="M213656.55,-55816.1l-200,0" />
          <path d="M215456.55,-55816.1l-300,0" />
          <path d="M215156.55,-55816.1l0,250" />
          <path d="M215156.55,-55566.1l200,0" />
          <use xlink:href="#$DorLib2D$00000231" x="142.938" y="-37.127" transform="scale(1500,1500) scale(-1,1) translate(-285.88,0)" stroke-width="0.0001%">.</use>
          <path d="M208356.55,-36116.1l-1200,0" />
          <path d="M207156.55,-36116.1l0,200" />
          <path d="M207156.55,-35916.1l1000,0" />
          <use xlink:href="#$DorLib2D$00000231" x="137.604" y="-24.011" transform="scale(1500,1500) scale(-1,1) translate(-275.21,0) rotate(-180,137.6,-24.01)" stroke-width="0.0001%">.</use>
          <path d="M213256.55,-28116.1l0,-3100" />
          <path d="M213456.55,-28116.1l0,-3300" />
          <path d="M213256.55,-31216.1l-5000,0" />
          <path d="M213456.55,-31416.1l-5100,0" />
          <path d="M208156.55,-31416.1l0,-3450" />
          <path d="M208356.55,-31416.1l0,-3450" />
          <path d="M208156.55,-34866.1l200,0" />
          <path d="M208223.21,-32541.1l0,-1200" class="cnc-3" />
          <path d="M208289.88,-32541.1l0,-1200" class="cnc-3" />
          <path d="M208156.55,-33741.1l200,0" class="cnc-3" />
          <path d="M208156.55,-32541.1l200,0" class="cnc-3" />
          <use xlink:href="#$DorLib2D$00000231" x="137.404" y="-20.877" transform="scale(1500,1500) scale(-1,1) translate(-274.81,0) rotate(-180,137.4,-20.88)" stroke-width="0.0001%">.</use>
          <path d="M218856.55,-55566.1l0,200" />
          <path d="M218856.55,-55366.1l250,0" />
          <path d="M219106.55,-55366.1l0,-200" />
          <path d="M219106.55,-55566.1l-250,0" />
          <path d="M219106.55,-52116.1l0,-2350" />
          <path d="M219106.55,-54466.1l-250,0" />
          <path d="M218856.55,-54466.1l0,2600" />
          <use xlink:href="#$WINLIB2D$00000001_900x250" x="218981.55" y="-54916.1" transform="scale(-1,1) translate(-437963.1,0) rotate(-90,218981.55,-54916.1)">.<g class="blkclass0"><text transform="rotate(-90 529.2,473.53) translate(529.2,473.53)" font-size="386.75">C0918</text></g></use>
          <path d="M208156.55,-31416.1l-1300,0" />
          <path d="M206856.55,-31416.1l0,200" />
          <path d="M206856.55,-31216.1l1400,0" />
          <path d="M205156.55,-31216.1l200,0" />
          <path d="M205356.55,-31216.1l0,-200" />
          <path d="M205356.55,-31416.1l-200,0" />
          <path d="M205156.55,-31416.1l0,200" />
          <path d="M213256.55,-55566.1l0,-450" />
          <path d="M213456.55,-55816.1l0,-400" />
          <path d="M221556.55,-35316.1l0,800" />
          <path d="M221556.55,-34516.1l300,0" />
          <path d="M221856.55,-34516.1l0,-800" />
          <path d="M221856.55,-28116.1l0,-800" />
          <path d="M221856.55,-28916.1l-300,0" />
          <path d="M221556.55,-28916.1l0,800" />
          <path d="M221556.55,-32716.1l0,2000" />
          <path d="M221556.55,-30716.1l300,0" />
          <path d="M221856.55,-30716.1l0,-2000" />
          <path d="M221856.55,-32716.1l-300,0" />
          <use xlink:href="#$WINLIB2D$00000001_1800x300" x="221706.55" y="-29816.1" transform="scale(-1,1) translate(-443413.1,0) rotate(-90,221706.55,-29816.1)">.<g class="blkclass0"><text transform="rotate(-90 -276.25,435) translate(-276.25,435)" font-size="386.75">C1810</text></g></use>
          <use xlink:href="#$WINLIB2D$00000001_1800x300" x="221706.55" y="-33616.1" transform="scale(-1,1) translate(-443413.1,0) rotate(-90,221706.55,-33616.1)">.<g class="blkclass0"><text transform="rotate(-90 -276.25,435) translate(-276.25,435)" font-size="386.75">C1810</text></g></use>
          <use xlink:href="#$WINLIB2D$00000001_7200x300" x="221706.55" y="-47716.1" transform="scale(1,-1) translate(0,95432.2) rotate(-90,221706.55,-47716.1)">.<g class="blkclass0"><text transform="rotate(-90 -339.84,469.72) translate(-339.84,469.72)" font-size="386.75">C7221</text></g></use>
          <use xlink:href="#$WINLIB2D$00000001_7200x300" x="221706.55" y="-39716.1" transform="scale(1,-1) translate(0,79432.2) rotate(-90,221706.55,-39716.1)">.<g class="blkclass0"><text transform="rotate(-90 -320.92,527.1) translate(-320.92,527.1)" font-size="386.75">C7221</text></g></use>
          <path d="M215556.55,-32016.1l0,-1300" />
          <path d="M215556.55,-33316.1l-200,0" />
          <path d="M215356.55,-33316.1l0,1100" />
          <path d="M215356.55,-35616.1l0,800" />
          <path d="M215356.55,-34816.1l200,0" />
          <path d="M215556.55,-34816.1l0,-800" />
          <path d="M215456.55,-55816.1l1050,0" />
          <path d="M215556.55,-55566.1l950,0" />
          <path d="M216506.55,-55816.1l0,250" />
          <path d="M213256.55,-35066.1l0,-250" />
          <path d="M213456.55,-35066.1l0,-250" />
          <use xlink:href="#$DorLib2D$00000228" x="237.063" y="-38.24" transform="scale(900,900) rotate(-90,237.06,-38.24)" stroke-width="0.0001%">.<g class="blkclass0"><text transform="rotate(-90 608.65,445) translate(608.65,445)" font-size="386.75">M0921</text></g></use>
          <path d="M213456.55,-37616.1l-8300,0" />
          <path d="M213256.55,-37816.1l-8100,0" />
          <path d="M205156.55,-37616.1l0,-200" />
          <path d="M213456.55,-32216.1l0,-1750" />
          <path d="M213456.55,-33966.1l-200,0" />
          <path d="M213256.55,-33966.1l0,1950" />
          <path d="M213256.55,-34866.1l200,0" />
          <path d="M213456.55,-34866.1l0,-200" />
          <path d="M215356.55,-32216.1l0,200" />
          <path d="M215356.55,-32016.1l200,0" />
          <path d="M213456.55,-32016.1l400,0" />
          <path d="M213856.55,-32016.1l0,-200" />
          <path d="M213856.55,-32216.1l-400,0" />
          <path d="M221056.55,-35816.1l-4300,0" />
          <path d="M216756.55,-35816.1l0,200" />
          <path d="M216756.55,-35616.1l4300,0" />
          <path d="M215556.55,-35616.1l200,0" />
          <path d="M215756.55,-35616.1l0,-200" />
          <path d="M215756.55,-35816.1l-200,0" />
          <use xlink:href="#$DorLib2D$00000228" x="216.257" y="-35.716" transform="scale(1000,1000) scale(1,-1) translate(0,71.43) rotate(-180,216.26,-35.72)" stroke-width="0.0001%">.<g class="blkclass0"><text transform="translate(-470,-974.51)" font-size="386.75">M1027</text></g></use>
          <path d="M215356.55,-35616.1l0,0" />
          <path d="M215356.55,-35816.1l0,0" />
          <path d="M215356.55,-35616.1l0,-200" />
          <use xlink:href="#$DorLib2D$00000228" x="239.396" y="-61.018" transform="scale(900,900) scale(1,-1) translate(0,122.04) rotate(-270,239.4,-61.02)" stroke-width="0.0001%">.<g class="blkclass0"><text transform="rotate(-90 1117.72,445) translate(1117.72,445)" font-size="386.75">M0921</text></g></use>
          <path d="M221056.55,-43816.1l-4300,0" />
          <path d="M216756.55,-43816.1l0,200" />
          <path d="M216756.55,-43616.1l4300,0" />
          <path d="M215556.55,-43616.1l200,0" />
          <path d="M215756.55,-43616.1l0,-200" />
          <path d="M215756.55,-43816.1l-200,0" />
          <use xlink:href="#$DorLib2D$00000228" x="216.257" y="-43.716" transform="scale(1000,1000) scale(1,-1) translate(0,87.43) rotate(-180,216.26,-43.72)" stroke-width="0.0001%">.<g class="blkclass0"><text transform="translate(-470,-977.49)" font-size="386.75">M1027</text></g></use>
          <path d="M213556.55,-52116.1l0,-1950" />
          <path d="M213556.55,-54066.1l-150,0" />
          <path d="M213406.55,-54066.1l0,1950" />
          <path d="M213556.55,-55566.1l-150,0" />
          <path d="M213406.55,-55566.1l0,1500" class="cnc-3" />
          <path d="M213556.55,-54066.1l0,-1500" class="cnc-3" />
          <path d="M211356.55,-51716.1l1600,0" />
          <path d="M211281.55,-51516.1l1675,0" />
          <path d="M205156.55,-56216.1l6125,0" />
          <path d="M205156.55,-56016.1l6050,0" />
          <path d="M205156.55,-56216.1l0,200" />
          <use xlink:href="#$lvtry$00000193" x="211376.55" y="-53516.1" transform="rotate(-90,211376.55,-53516.1)">.</use>
          <use xlink:href="#$lvtry$00000193" x="211376.55" y="-54216.1" transform="rotate(-90,211376.55,-54216.1)">.</use>
          <use xlink:href="#$DorLib2D$00000228" x="264.102" y="-65.332" transform="scale(800,800) scale(-1,-1) translate(-528.2,130.66) rotate(-90,264.1,-65.33)" stroke-width="0.0001%">.<g class="blkclass0"><text transform="rotate(-90 -329.81,445) translate(-329.81,445)" font-size="386.75">M0821</text></g></use>
          <use xlink:href="#$DorLib2D$00000228" x="264.102" y="-69.333" transform="scale(800,800) scale(1,-1) translate(0,138.67) rotate(-270,264.1,-69.33)" stroke-width="0.0001%">.<g class="blkclass0"><text transform="rotate(-90 -329.81,441.86) translate(-329.81,441.86)" font-size="386.75">M0821</text></g></use>
          <path d="M205656.55,-51716.1l5550,0" />
          <path d="M205656.55,-51516.1l5625,0" />
          <path d="M211356.55,-51716.1l0,-149.67" />
          <path d="M211356.55,-51865.77l-150,0" />
          <path d="M211206.55,-51865.77l0,149.67" />
          <path d="M211206.55,-54066.1l0,1400.33" />
          <path d="M211206.55,-52665.77l150,0" />
          <path d="M211356.55,-52665.77l0,-1475.33" />
          <path d="M211281.55,-56216.1l1975,0" />
          <path d="M211356.55,-56016.1l1900,0" />
          <use xlink:href="#$DorLib2D$00000231" x="140.538" y="-24.011" transform="scale(1500,1500) scale(1,-1) translate(0,48.02) rotate(-180,140.54,-24.01)" stroke-width="0.0001%">.</use>
          <path d="M208356.55,-35066.1l4900,0" />
          <path d="M208156.55,-34866.1l5100,0" />
          <path d="M215556.55,-43816.1l0,-640" />
          <path d="M215556.55,-44456.1l-200,0" />
          <path d="M215356.55,-44456.1l0,840" />
          <path d="M215356.55,-52066.1l0,950" />
          <path d="M215356.55,-51116.1l200,0" />
          <path d="M215556.55,-51116.1l0,-750" />
          <path d="M215556.55,-45956.1l0,-3660" />
          <path d="M215556.55,-49616.1l-200,0" />
          <path d="M215356.55,-49616.1l0,3660" />
          <path d="M215356.55,-45956.1l200,0" />
          <path d="M215556.55,-40216.1l6000,0" />
          <path d="M215556.55,-40066.1l6000,0" />
          <path d="M221556.55,-40216.1l0,150" />
          <path d="M215556.55,-35816.1l0,-800" />
          <path d="M215556.55,-36616.1l-200,0" />
          <path d="M215356.55,-36616.1l0,800" />
          <path d="M215356.55,-40141.1l0,2025" />
          <path d="M215356.55,-38116.1l200,0" />
          <path d="M215556.55,-38116.1l0,-1950" />
          <path d="M215556.55,-40216.1l0,-1260" />
          <path d="M215556.55,-41476.1l-200,0" />
          <path d="M215356.55,-41476.1l0,1335" />
          <path d="M215356.55,-43616.1l0,640" />
          <path d="M215356.55,-42976.1l200,0" />
          <path d="M215556.55,-42976.1l0,-640" />
          <path d="M215556.55,-51866.1l150,0" />
          <path d="M215706.55,-51866.1l0,-200" />
          <path d="M215706.55,-52066.1l-150,0" />
          <path d="M218856.55,-52066.1l-150,0" />
          <path d="M218706.55,-52066.1l0,200" />
          <path d="M218706.55,-51866.1l150,0" />
          <path d="M218856.55,-51866.1l0,-200" />
          <use xlink:href="#$DorLib2D$00000228" x="240.174" y="-57.74" transform="scale(900,900) scale(-1,1) translate(-480.35,0)" stroke-width="0.0001%">.<g class="blkclass0"><text transform="translate(548.14,630.28)" font-size="386.75">MC3027</text></g></use>
          <use xlink:href="#$WINLIB2D$00000001_2100x200" x="217656.55" y="-51966.1" transform="scale(1,-1) translate(0,103932.2)">.</use>
          <path d="M215556.55,-52066.1l0,-2400" />
          <path d="M215556.55,-54466.1l-200,0" />
          <path d="M215356.55,-54466.1l0,2400" />
          <path d="M215356.55,-55566.1l0,200" />
          <path d="M215356.55,-55366.1l200,0" />
          <path d="M215556.55,-55366.1l0,-200" />
          <use xlink:href="#$lvtry$00000202" x="210756.55" y="-53866.1">.</use>
          <use xlink:href="#$lvtry$00000202" x="209856.55" y="-53866.1">.</use>
          <use xlink:href="#$lvtry$00000202" x="208956.55" y="-53866.1">.</use>
          <use xlink:href="#$lvtry$00000202" x="208056.55" y="-53866.1">.</use>
          <path d="M210319.05,-54066.1l0,1187.5" />
          <path d="M210294.05,-54066.1l0,1187.5" />
          <path d="M210319.05,-54066.1l-25,0" />
          <path d="M211206.55,-52878.6l-150,0" />
          <path d="M211056.55,-52878.6l0,25" />
          <path d="M211056.55,-52853.6l150,0" />
          <path d="M211206.55,-52853.6l0,-25" />
          <path d="M210306.55,-52853.6l150,0" />
          <path d="M210456.55,-52853.6l0,-25" />
          <path d="M210456.55,-52878.6l-137.5,0" />
          <use xlink:href="#$TCHSYS$APDOOR2D" x="351.261" y="-88.11" transform="scale(600,600) rotate(-180,351.26,-88.11)" stroke-width="0.0002%">.</use>
          <path d="M209419.05,-54066.1l0,1187.5" />
          <path d="M209394.05,-54066.1l0,1187.5" />
          <path d="M209419.05,-54066.1l-25,0" />
          <path d="M210294.05,-52878.6l-137.5,0" />
          <path d="M210156.55,-52878.6l0,25" />
          <path d="M210156.55,-52853.6l150,0" />
          <path d="M209406.55,-52853.6l150,0" />
          <path d="M209556.55,-52853.6l0,-25" />
          <path d="M209556.55,-52878.6l-137.5,0" />
          <use xlink:href="#$TCHSYS$APDOOR2D" x="349.761" y="-88.11" transform="scale(600,600) rotate(-180,349.76,-88.11)" stroke-width="0.0002%">.</use>
          <path d="M208519.05,-54066.1l0,1187.5" />
          <path d="M208494.05,-54066.1l0,1187.5" />
          <path d="M208519.05,-54066.1l-25,0" />
          <path d="M209394.05,-52878.6l-137.5,0" />
          <path d="M209256.55,-52878.6l0,25" />
          <path d="M209256.55,-52853.6l150,0" />
          <path d="M208506.55,-52853.6l150,0" />
          <path d="M208656.55,-52853.6l0,-25" />
          <path d="M208656.55,-52878.6l-137.5,0" />
          <use xlink:href="#$TCHSYS$APDOOR2D" x="348.261" y="-88.11" transform="scale(600,600) rotate(-180,348.26,-88.11)" stroke-width="0.0002%">.</use>
          <path d="M207622.05,-54066.1l0,1187.5" />
          <path d="M207597.05,-54066.1l0,1187.5" />
          <path d="M207622.05,-54066.1l-25,0" />
          <path d="M208494.05,-52878.6l-137.5,0" />
          <path d="M208356.55,-52878.6l0,25" />
          <path d="M208356.55,-52853.6l150,0" />
          <path d="M207609.55,-52853.6l147,0" />
          <path d="M207756.55,-52853.6l0,-25" />
          <path d="M207756.55,-52878.6l-134.5,0" />
          <use xlink:href="#$TCHSYS$APDOOR2D" x="346.761" y="-88.11" transform="scale(600,600) rotate(-180,346.76,-88.11)" stroke-width="0.0002%">.</use>
          <use xlink:href="#$lvtry$00000222" x="214445.459" y="-65501.325" transform="scale(0.98,0.83) rotate(-180,214445.46,-65501.33)" stroke-width="0.0918%">.</use>
          <use xlink:href="#$lvtry$00000222" x="213731.173" y="-65501.325" transform="scale(0.98,0.83) rotate(-180,213731.17,-65501.33)" stroke-width="0.0918%">.</use>
          <use xlink:href="#$lvtry$00000222" x="213016.888" y="-65501.325" transform="scale(0.98,0.83) rotate(-180,213016.89,-65501.33)" stroke-width="0.0918%">.</use>
          <path d="M210494.05,-54366.1l0,-400" />
          <path d="M210519.05,-54366.1l0,-400" />
          <path d="M210494.05,-54366.1l25,0" />
          <path d="M210494.05,-54766.1l25,0" />
          <path d="M209794.05,-54366.1l0,-400" />
          <path d="M209819.05,-54366.1l0,-400" />
          <path d="M209794.05,-54366.1l25,0" />
          <path d="M209794.05,-54766.1l25,0" />
          <path d="M209094.05,-54366.1l0,-400" />
          <path d="M209119.05,-54366.1l0,-400" />
          <path d="M209094.05,-54366.1l25,0" />
          <path d="M209094.05,-54766.1l25,0" />
          <path d="M208394.05,-54366.1l0,-400" />
          <path d="M208419.05,-54366.1l0,-400" />
          <path d="M208394.05,-54366.1l25,0" />
          <path d="M208394.05,-54766.1l25,0" />
          <use xlink:href="#$lvtry$00000188" x="210907.03" y="-54366.1" transform="rotate(-180,210907.03,-54366.1)">.</use>
          <use xlink:href="#$lvtry$00000188" x="205461.38" y="-53516.98" transform="rotate(-180,205461.38,-53516.98)">.</use>
          <use xlink:href="#$lvtry$00000202" x="205356.55" y="-55566.1" transform="rotate(-90,205356.55,-55566.1)">.</use>
          <use xlink:href="#$lvtry$00000202" x="205356.55" y="-54666.1" transform="rotate(-90,205356.55,-54666.1)">.</use>
          <path d="M205156.55,-55128.6l1187.5,0" />
          <path d="M205156.55,-55103.6l1187.5,0" />
          <path d="M205156.55,-55128.6l0,25" />
          <path d="M206344.05,-56016.1l0,150" />
          <path d="M206344.05,-55866.1l25,0" />
          <path d="M206369.05,-55866.1l0,-150" />
          <path d="M206369.05,-56016.1l-25,0" />
          <path d="M206369.05,-55116.1l0,-150" />
          <path d="M206369.05,-55266.1l-25,0" />
          <path d="M206344.05,-55266.1l0,137.5" />
          <use xlink:href="#$TCHSYS$APDOOR2D" x="343.928" y="-92.61" transform="scale(600,600) rotate(-270,343.93,-92.61)" stroke-width="0.0002%">.</use>
          <path d="M206344.05,-55103.6l0,137.5" />
          <path d="M206344.05,-54966.1l25,0" />
          <path d="M206369.05,-54966.1l0,-150" />
          <path d="M206369.05,-54216.1l0,-150" />
          <path d="M206369.05,-54366.1l-25,0" />
          <path d="M206344.05,-54366.1l0,150" />
          <use xlink:href="#$TCHSYS$APDOOR2D" x="343.928" y="-91.11" transform="scale(600,600) rotate(-270,343.93,-91.11)" stroke-width="0.0002%">.</use>
          <use xlink:href="#$lvtry$00000222" x="212302.602" y="-65501.325" transform="scale(0.98,0.83) rotate(-180,212302.6,-65501.33)" stroke-width="0.0918%">.</use>
          <path d="M207694.05,-54366.1l0,-400" />
          <path d="M207719.05,-54366.1l0,-400" />
          <path d="M207694.05,-54366.1l25,0" />
          <path d="M207694.05,-54766.1l25,0" />
          <use xlink:href="#$lvtry$00000202" x="207159.55" y="-53866.1">.</use>
          <path d="M206725.05,-54066.1l0,1187.5" />
          <path d="M206700.05,-54066.1l0,1187.5" />
          <path d="M206725.05,-54066.1l-25,0" />
          <path d="M207597.05,-52878.6l-137.5,0" />
          <path d="M207459.55,-52878.6l0,25" />
          <path d="M207459.55,-52853.6l150,0" />
          <path d="M206712.55,-52853.6l147,0" />
          <path d="M206859.55,-52853.6l0,-25" />
          <path d="M206859.55,-52878.6l-134.5,0" />
          <use xlink:href="#$TCHSYS$APDOOR2D" x="345.266" y="-88.11" transform="scale(600,600) rotate(-180,345.27,-88.11)" stroke-width="0.0002%">.</use>
          <use xlink:href="#$lvtry$00000202" x="206262.55" y="-53866.1">.</use>
          <path d="M205828.05,-54066.1l0,1187.5" />
          <path d="M205803.05,-54066.1l0,1212.5" />
          <path d="M205828.05,-54066.1l-25,0" />
          <path d="M206700.05,-52878.6l-137.5,0" />
          <path d="M206562.55,-52878.6l0,25" />
          <path d="M206562.55,-52853.6l150,0" />
          <path d="M205803.05,-52853.6l159.5,0" />
          <path d="M205962.55,-52853.6l0,-25" />
          <path d="M205962.55,-52878.6l-134.5,0" />
          <use xlink:href="#$TCHSYS$APDOOR2D" x="343.771" y="-88.11" transform="scale(600,600) rotate(-180,343.77,-88.11)" stroke-width="0.0002%">.</use>
          <path d="M205156.55,-54216.1l1200,0" />
          <path d="M205156.55,-54066.1l1200,0" />
          <path d="M205156.55,-54216.1l0,150" />
          <path d="M211356.55,-54141.1l0,-925.19" />
          <path d="M211356.55,-55066.29l-150,0" />
          <path d="M211206.55,-55066.29l0,850.19" />
          <path d="M211206.55,-56016.1l0,149.81" />
          <path d="M211206.55,-55866.29l150,0" />
          <path d="M211356.55,-55866.29l0,-149.81" />
          <path d="M206356.55,-54216.1l4850,0" />
          <path d="M206356.55,-54066.1l4850,0" />
          <path d="M206956.55,-30433.6l1950,0l300,0" />
          <path d="M206956.55,-28748.6l5325,0l0,-1685l-2475,0l-300,0" />
          <path d="M207106.55,-31216.1l1740.49,0" />
          <path d="M208962.51,-31216.1l2344.04,0" />
          <path d="M207106.55,-31216.1l0,1505" />
          <path d="M207406.55,-31216.1l0,1505" />
          <path d="M207706.55,-31216.1l0,1505" />
          <path d="M208006.55,-31216.1l0,1505" />
          <path d="M208306.55,-31216.1l0,1505" />
          <path d="M208606.55,-31216.1l0,1505" />
          <path d="M208906.55,-31113.02l0,1401.92" />
          <path d="M209206.55,-31216.1l0,422.69" />
          <path d="M209206.55,-30593.41l0,882.31" />
          <path d="M209506.55,-31216.1l0,942.31" />
          <path d="M209506.55,-30073.79l0,362.69" />
          <path d="M209806.55,-31216.1l0,1461.92" />
          <path d="M210106.55,-31216.1l0,1505" />
          <path d="M210406.55,-31216.1l0,1505" />
          <path d="M210706.55,-31216.1l0,1505" />
          <path d="M211006.55,-31216.1l0,1505" />
          <path d="M211306.55,-31216.1l0,1505" />
          <path d="M207106.55,-29651.1l2644.04,0" />
          <path d="M209866.06,-29651.1l1440.49,0" />
          <path d="M208962.51,-31216.1l399.12,691.3" />
          <path d="M208847.04,-31216.1l414.59,718.1" />
          <path d="M209261.63,-30498l172.35,-46.18" />
          <path d="M209433.98,-30544.19l-172.89,206.04" />
          <path d="M209261.09,-30338.14l180.4,-48.34" />
          <path d="M209441.49,-30386.48l424.57,735.38" />
          <path d="M209341.49,-30359.68l409.1,708.58" />
          <path d="M211306.55,-27966.1l-4200,0" />
          <path d="M211306.55,-27966.1l0,-1505" />
          <path d="M211006.55,-27966.1l0,-1505" />
          <path d="M210706.55,-27966.1l0,-1505" />
          <path d="M210406.55,-27966.1l0,-1505" />
          <path d="M210106.55,-27966.1l0,-1505" />
          <path d="M209806.55,-27966.1l0,-1505" />
          <path d="M209506.55,-27966.1l0,-1505" />
          <path d="M209206.55,-27966.1l0,-1505" />
          <path d="M208906.55,-27966.1l0,-1505" />
          <path d="M208606.55,-27966.1l0,-1505" />
          <path d="M208306.55,-27966.1l0,-1505" />
          <path d="M208006.55,-27966.1l0,-1505" />
          <path d="M207706.55,-27966.1l0,-1505" />
          <path d="M207406.55,-27966.1l0,-1505" />
          <path d="M207106.55,-27966.1l0,-1505" />
          <path d="M211306.55,-29531.1l-4200,0" />
          <path d="M207046.55,-29471.1l0,-240" />
          <path d="M207046.55,-29711.1l2669.4,0" />
          <path d="M209831.42,-29711.1l1535.13,0" />
          <path d="M211366.55,-29711.1l0,240" />
          <path d="M211366.55,-29471.1l-4320,0" />
          <path d="M207106.55,-29531.1l0,-120" />
          <path d="M207106.55,-29651.1l2644.04,0" />
          <path d="M209866.06,-29651.1l1440.49,0" />
          <path d="M211306.55,-29651.1l0,120" />
          <path d="M211306.55,-29531.1l-4200,0" />
          <path d="M211306.55,-27966.1l1650,0" />
          <path d="M213256.55,-28116.1l0,-3100" />
          <path d="M213256.55,-31216.1l-1950,0" />
          <path d="M211306.55,-31216.1l0,1505" />
          <path d="M211306.55,-29471.1l0,1505" />
          <path d="M211306.55,-29651.1l0,120" />
          <path d="M207106.55,-29651.1l0,120" />
          <path d="M211456.55,-58683.6l-1950,0l-300,0" />
          <path d="M211456.55,-56998.6l-5325,0l0,-1685l2475,0l300,0" />
          <path d="M211306.55,-59466.1l-2644.04,0" />
          <path d="M208547.04,-59466.1l-1440.49,0" />
          <path d="M211306.55,-57961.1l0,-1505" />
          <path d="M211006.55,-57961.1l0,-1505" />
          <path d="M210706.55,-57961.1l0,-1505" />
          <path d="M210406.55,-57961.1l0,-1505" />
          <path d="M210106.55,-57961.1l0,-1505" />
          <path d="M209806.55,-57961.1l0,-1505" />
          <path d="M209506.55,-58004.18l0,-1461.92" />
          <path d="M209206.55,-57961.1l0,-362.69" />
          <path d="M209206.55,-58523.79l0,-942.31" />
          <path d="M208906.55,-57961.1l0,-882.31" />
          <path d="M208906.55,-59043.41l0,-422.69" />
          <path d="M208606.55,-57961.1l0,-1401.92" />
          <path d="M208306.55,-57961.1l0,-1505" />
          <path d="M208006.55,-57961.1l0,-1505" />
          <path d="M207706.55,-57961.1l0,-1505" />
          <path d="M207406.55,-57961.1l0,-1505" />
          <path d="M207106.55,-57961.1l0,-1505" />
          <path d="M211306.55,-57901.1l-1740.49,0" />
          <path d="M209450.59,-57901.1l-2344.04,0" />
          <path d="M209450.59,-57901.1l-399.12,-691.3" />
          <path d="M209566.06,-57901.1l-414.59,-718.1" />
          <path d="M209151.47,-58619.2l-172.35,46.18" />
          <path d="M208979.11,-58573.01l172.89,-206.04" />
          <path d="M209152.01,-58779.06l-180.4,48.34" />
          <path d="M208971.61,-58730.72l-424.57,-735.38" />
          <path d="M209071.61,-58757.52l-409.1,-708.58" />
          <path d="M207106.55,-56216.1l4200,0" />
          <path d="M207106.55,-57721.1l0,1505" />
          <path d="M207406.55,-57721.1l0,1505" />
          <path d="M207706.55,-57721.1l0,1505" />
          <path d="M208006.55,-57721.1l0,1505" />
          <path d="M208306.55,-57721.1l0,1505" />
          <path d="M208606.55,-57721.1l0,1505" />
          <path d="M208906.55,-57721.1l0,1505" />
          <path d="M209206.55,-57721.1l0,1505" />
          <path d="M209506.55,-57721.1l0,1505" />
          <path d="M209806.55,-57721.1l0,1505" />
          <path d="M210106.55,-57721.1l0,1505" />
          <path d="M210406.55,-57721.1l0,1505" />
          <path d="M210706.55,-57721.1l0,1505" />
          <path d="M211006.55,-57721.1l0,1505" />
          <path d="M211306.55,-57721.1l0,1505" />
          <path d="M207106.55,-57781.1l4200,0" />
          <path d="M211306.55,-57781.1l0,-120" />
          <path d="M211306.55,-57901.1l-1740.49,0" />
          <path d="M209450.59,-57901.1l-2344.04,0" />
          <path d="M207106.55,-57901.1l0,120" />
          <path d="M207106.55,-57781.1l4200,0" />
          <path d="M211366.55,-57721.1l0,-240" />
          <path d="M211366.55,-57961.1l-1835.13,0" />
          <path d="M209415.95,-57961.1l-2369.4,0" />
          <path d="M207046.55,-57961.1l0,240" />
          <path d="M207046.55,-57721.1l4320,0" />
          <path d="M207106.55,-59466.1l-1450,0" />
          <path d="M205156.55,-59316.1l0,3100" />
          <path d="M205156.55,-56216.1l1950,0" />
          <path d="M207106.55,-56216.1l0,-1505" />
          <path d="M207106.55,-57961.1l0,-1505" />
          <path d="M207106.55,-57781.1l0,-120" />
          <path d="M211306.55,-57901.1l0,120" />
          <path d="M205656.55,-44116.1l7300,0" />
          <path d="M205656.55,-43966.1l7300,0" />
          <path d="M215456.55,-49616.1l600,0m0,0a600,600 0 0,0 -600,-600a900,900 0 0,0 900,-900m0,0l-900,0" />
          <path d="M213356.55,-48516.1l-600,0m0,0a600,600 0 0,0 600,600a900,900 0 0,0 -900,900m0,0l900,0" />
          <path d="M213356.55,-40416.1l-600,0m600,-600a600,600 0 0,0 -600,600m-300,-1500a900,900 0 0,0 900,900m-900,-900l900,0" />
          <path d="M215456.55,-45956.1l600,0m-600,600a600,600 0 0,0 600,-600m300,1500a900,900 0 0,0 -900,-900m900,900l-900,0" />
          <path d="M215456.55,-41476.1l600,0m0,0a600,600 0 0,0 -600,-600a900,900 0 0,0 900,-900m0,0l-900,0" />
          <path d="M215456.55,-34816.1l600,0m-600,600a600,600 0 0,0 600,-600m300,1500a900,900 0 0,0 -900,-900m900,900l-900,0" />
          <path d="M215456.55,-38116.1l600,0m-600,600a600,600 0 0,0 600,-600m300,1500a900,900 0 0,0 -900,-900m900,900l-900,0" />
          <path d="M215356.55,-32116.1l0,600m-600,-600a600,600 0 0,0 600,600m-1500,300a900,900 0 0,0 900,-900m-900,900l0,-900" />
        </g>
        <g id="layer-RM" class="cnc-6">
          <path d="M211356.55,-55066.29l0,2400.52l-150,0l0,-1400.33l-6050,0l0,1950l500,0l0,400l5550,0l0,-949.67" />
        </g>
      </g>
      <g id="assets" fill="none">
        <g id="rm-assets" class="rm-asset">
          <path id="14008;F06;601-603" d="M215556.55,-55566.1l3300,0l0,3700l2200,0l0,550l500,0l0,7200l-500,0l0,300l-5500,0z" />
          <path id="14008;F06;610" d="M205156.55,-51316.1l500,0l0,-200l7300,0l0,200l300,0l0,7200l-8100,0z" />
          <path id="14008;F06;606-607" d="M213756.55,-27616.1l7300,0l0,-500l500,0l0,-7200l-500,0l0,-300l-5500,0l0,3600l-2100,0l0,3900l300,0z" />
          <path id="14008;F06;609" d="M205156.55,-37816.1l8100,0l0,-5499.65l-300,0l0,-650.35l-7300,0l0,650l-500,0z" />
          <path id="14008;F06;604-605" d="M215556.55,-43616.1l5500,0l0,300l500,0l0,7200l-500,0l0,300l-5500,0z" />
          <path id="14008;F06;608" d="M208356.55,-31416.1l4898.62,0l0,-3449.36l-4898.62,-0.64z" />
        </g>
      </g>
    </g>
    <g id="text" font-family="Arial" font-size="438.86524822695031" font-weight="normal" text-style="normal" text-anchor="start" dominant-baseline="alphabetical" fill="#FF7F00" xml:space="preserve">
      <g id="layer-bady-text">
        <g transform="rotate(-90 213856.55,-57606.74) translate(213856.55,-57606.74)" font-size="386.75">
          <text>FM1521</text>
        </g>
        <g transform="rotate(-90 213856.55,-58746.74) translate(213856.55,-58746.74)">
          <text>乙</text>
        </g>
        <g transform="translate(213747.19,-55171.36)" font-size="386.75">
          <text>FM1521</text>
        </g>
        <g transform="translate(214887.19,-55171.36)">
          <text>乙</text>
        </g>
        <g transform="translate(205747.19,-36161.36)" font-size="386.75">
          <text>FM1521</text>
        </g>
        <g transform="translate(206887.19,-36161.36)">
          <text>乙</text>
        </g>
        <g transform="rotate(-90 208132.55,-32366.24) translate(208132.55,-32366.24)" font-size="386.75">
          <text>FGC1209</text>
        </g>
        <g transform="rotate(-90 208132.55,-33726.24) translate(208132.55,-33726.24)">
          <text>甲</text>
        </g>
        <g transform="translate(205447.19,-31461.36)" font-size="386.75">
          <text>FM1521</text>
        </g>
        <g transform="translate(206587.19,-31461.36)">
          <text>乙</text>
        </g>
        <g transform="rotate(-90 213980.3,-54406.1) translate(213980.3,-54406.1)" font-size="386.75">
          <text>D1521</text>
        </g>
        <g transform="translate(209974.97,-36841.61)" font-size="386.75">
          <text>FM1521</text>
        </g>
        <g transform="translate(211114.97,-36841.61)">
          <text>乙</text>
        </g>
        <g transform="translate(210619.62,-35258.22)" font-size="626.95">
          <text>电井</text>
        </g>
        <g transform="translate(206643.04,-30258.6)" fill="#000000" stroke="#000000" stroke-width="0.02">
          <text>上</text>
        </g>
        <g transform="translate(206661.65,-28573.6)" fill="#000000" stroke="#000000" stroke-width="0.02">
          <text>下</text>
        </g>
        <g transform="translate(211561.55,-58508.6)" fill="#000000" stroke="#000000" stroke-width="0.02">
          <text>上</text>
        </g>
        <g transform="translate(211561.55,-56823.6)" fill="#000000" stroke="#000000" stroke-width="0.02">
          <text>下</text>
        </g>
      </g>
    </g>
    <g id="asset-labels" font-family="Arial" font-weight="bold" font-size="38.1em" text-anchor="middle">
      <g id="rm-labels">
        <g id="l-rm-14008;F06;601-603" transform="translate(218556.55,-49691.1)">
          <text>601-603</text>
        </g>
        <g id="l-rm-14008;F06;610" transform="translate(209206.55,-47816.1)">
          <text>610</text>
        </g>
        <g id="l-rm-14008;F06;606-607" transform="translate(217506.55,-31616.1)">
          <text>606-607</text>
        </g>
        <g id="l-rm-14008;F06;609" transform="translate(209231.55,-40891.1)">
          <text>609</text>
        </g>
        <g id="l-rm-14008;F06;604-605" transform="translate(218556.55,-39716.1)">
          <text>604-605</text>
        </g>
        <g id="l-rm-14008;F06;608" transform="translate(210805.86,-33141.1)">
          <text>608</text>
        </g>
      </g>
    </g>
  </g>
</svg>