<svg version="1.1" xmlns="http://www.w3.org/2000/svg" xmlns:xlink="http://www.w3.org/1999/xlink" viewBox="199701.48 -121804.48 28518 38110">
  <style>.i0 { stroke:#000000;   } .bady { stroke:#ff7f00;   } .rm { stroke:#00ffff;   } .axis_text { stroke:#000000;   } .pub_wall { stroke:#c0c0c0;   } .pub_hatch { stroke:#808080;   } .rm-asset { stroke:#0000ff;   fill:#EEEEEE; fill-opacity:1;} .rmtc-asset { stroke:#0000ff;   } .rmtc { stroke:#00ffff;   } .rm-assettxt { stroke:#0000ff;   } .rmtc-assettxt { stroke:#0000ff;   } .cnc-0 { stroke:#ff7f00;  stroke-dasharray:0; fill:#cccccc; fill-opacity:1;} .cnc-1 { stroke:#ff7f00;  stroke-dasharray:0; } .cnc-2 { stroke:#ff7f00;  stroke-dasharray:0; } .cnc-3 { stroke:#000000;  stroke-dasharray:0; } .cnc-4 { stroke:#000000;  stroke-dasharray:0; } .blkclass0 { stroke:#ff7f00;  stroke-width:0.02;  fill:#ff7f00; fill-opacity:1; font-family:Arial; font-size:386.75; font-weight:normal; text-style:normal; text-anchor:start;}</style>
  <view id="defaultView" viewBox="199701.48 -121804.48 28518 38110" />
  <defs>
    <symbol id="_FZH" overflow="visible" class="i0">
      <path d="M-0.5,0.5l1,0l0,-1l-1,0z" />
    </symbol>
    <symbol id="$WINLIB2D$00000001_1800x300" overflow="visible" class="i0">
      <path d="M900,150l0,-300" />
      <path d="M-900,-150l0,300" />
      <path d="M900,-50l-1800,0" />
      <path d="M900,50l-1800,0" />
      <path d="M-900,150l1800,0" />
      <path d="M-900,-150l1800,0" />
    </symbol>
    <symbol id="$WINLIB2D$00000001_7200x300" overflow="visible" class="i0">
      <path d="M3600,150l0,-300" />
      <path d="M-3600,-150l0,300" />
      <path d="M3600,-50l-7200,0" />
      <path d="M3600,50l-7200,0" />
      <path d="M-3600,150l7200,0" />
      <path d="M-3600,-150l7200,0" />
    </symbol>
    <symbol id="$WINLIB2D$00000001_1500x300" overflow="visible" class="i0">
      <path d="M750,150l0,-300" />
      <path d="M-750,-150l0,300" />
      <path d="M750,-50l-1500,0" />
      <path d="M750,50l-1500,0" />
      <path d="M-750,150l1500,0" />
      <path d="M-750,-150l1500,0" />
    </symbol>
    <symbol id="$DorLib2D$00000127_1100x250" overflow="visible" class="i0">
      <path d="M550,-125l-1100,0" />
      <path d="M36.67,-198.72l0,26.12" />
      <path d="M-36.67,-198.72l-550,0" />
      <path d="M-36.67,-172.6l-550,0" />
      <path d="M-36.67,-198.72l0,26.12" />
      <path d="M586.67,-198.72l0,26.12" />
      <path d="M-586.67,-198.72l0,26.12" />
      <path d="M586.67,-172.6l-550,0" />
      <path d="M586.67,-198.72l-550,0" />
    </symbol>
    <symbol id="$DorLib2D$00000231" overflow="visible" class="i0">
      <path d="M-0.5,0l0.25,-0.43" />
      <path d="M-0.25,-0.43a0.5,0.5 0 0,1 0.25,0.43" />
      <path d="M0,0a0.5,0.5 0 0,1 0.25,-0.43" />
      <path d="M0.5,0l-0.25,-0.43" />
    </symbol>
    <symbol id="$WINLIB2D$00000001_900x250" overflow="visible" class="i0">
      <path d="M450,125l0,-250" />
      <path d="M-450,-125l0,250" />
      <path d="M450,-41.67l-900,0" />
      <path d="M450,41.67l-900,0" />
      <path d="M-450,125l900,0" />
      <path d="M-450,-125l900,0" />
    </symbol>
    <symbol id="$DorLib2D$00000228" overflow="visible" class="i0">
      <path d="M-0.5,0a1,1 0 0,1 0.5,-0.87" />
      <path d="M0.5,0l-0.5,-0.87" />
    </symbol>
    <symbol id="$lvtry$00000193" overflow="visible" class="i0">
      <circle r="20" cy="200" />
      <path d="M-24.71,84.86a166.25,166.25 0 0,1 28.52,-25.84" />
      <path d="M-24.71,84.85a6.77,6.77 0 0,1 -10.36,-8.14" />
      <path d="M-16.69,42.9a166.25,166.25 0 0,1 -18.37,33.81" />
      <path d="M9.2,99.6a9.9,9.9 0 0,1 -18.4,0" />
      <path d="M9.2,99.6a372.22,372.22 0 0,1 5.21,-48.41" />
      <path d="M14.41,51.19a172.58,172.58 0 0,1 27.83,-7.78" />
      <path d="M43.06,23.92a10.06,10.06 0 0,1 -0.82,19.49" />
      <path d="M-42.24,43.41a10.06,10.06 0 0,1 -0.82,-19.49" />
      <path d="M-11.46,71.35a372.22,372.22 0 0,1 2.26,28.25" />
      <path d="M-42.24,43.41a172.58,172.58 0 0,1 22.78,5.99" />
      <circle r="16.692" cy="42.77" />
      <path d="M-27.27,82.62a169.65,169.65 0 0,1 13.49,-13.76" />
      <path d="M-13.78,68.86a10.6,10.6 0 0,1 -8.32,-6.54" />
      <path d="M-22.1,62.32a169.65,169.65 0 0,1 -10.18,16.35" />
      <path d="M-26.82,82.18a3.37,3.37 0 0,1 -5.15,-4.05" />
      <path d="M-16.69,42.77l0,-9.84" />
      <path d="M16.69,42.77l0,-9.84" />
      <path d="M43.06,23.92a258.71,258.71 0 0,1 -34.21,-5.14" />
      <path d="M-8.85,18.78a258.71,258.71 0 0,1 -34.21,5.14" />
      <path d="M-16.69,32.93a16.69,16.69 0 0,1 33.38,0" />
      <path d="M-25.26,61.02a313.49,313.49 0 0,0 -69.75,13.73m0,0a237.05,237.05 0 0,0 -72.52,37.88m0.01,0a178.75,178.75 0 0,0 -48.46,56.91m-0.01,0a116.81,116.81 0 0,0 -14,55.46a116.81,116.81 0 0,0 14,55.46m0.01,0a178.75,178.75 0 0,0 48.46,56.91m-0.01,0a237.05,237.05 0 0,0 72.52,37.88m0,0a313.49,313.49 0 0,0 95.02,14.75a313.49,313.49 0 0,0 95.02,-14.75m0,0a237.05,237.05 0 0,0 72.52,-37.88m-0.01,0a178.75,178.75 0 0,0 48.46,-56.91m0.01,0a116.81,116.81 0 0,0 14,-55.46a116.81,116.81 0 0,0 -14,-55.46m-0.01,0a178.75,178.75 0 0,0 -48.46,-56.91m0.01,0a237.05,237.05 0 0,0 -72.52,-37.88m0,0a313.49,313.49 0 0,0 -82.08,-14.48" class="cnc-3" />
      <path d="M280,215a166.81,166.81 0 0,0 -20,-79.2m-0.01,0a228.75,228.75 0 0,0 -62.01,-72.83m0.01,0a287.05,287.05 0 0,0 -87.82,-45.87m0,0a363.49,363.49 0 0,0 -110.17,-17.1a363.49,363.49 0 0,0 -110.17,17.1m0,0a287.05,287.05 0 0,0 -87.82,45.87m0.01,0a228.75,228.75 0 0,0 -62.01,72.83m-0.01,0a166.81,166.81 0 0,0 -20,79.2a166.81,166.81 0 0,0 20,79.2m0.01,0a228.75,228.75 0 0,0 62.01,72.83m-0.01,0a287.05,287.05 0 0,0 87.82,45.87m0,0a363.49,363.49 0 0,0 110.17,17.1a363.49,363.49 0 0,0 110.17,-17.1m0,0a287.05,287.05 0 0,0 87.82,-45.87m-0.01,0a228.75,228.75 0 0,0 62.01,-72.83m0.01,0a166.81,166.81 0 0,0 20,-79.2" class="cnc-3" />
    </symbol>
    <symbol id="$lvtry$00000202" overflow="visible" class="i0">
      <path d="M139.78,40a40,40 0 0,0 -40,-40m0,0l-199.57,0m0,0a40,40 0 0,0 -40,40m0,0l0,439.66m0,0a110,110 0 0,0 110,110m0,0l59.57,0m0,0a110,110 0 0,0 110,-110m0,0l0,-439.66" class="cnc-3" />
      <path d="M99.78,30a10,10 0 0,1 10,10" />
      <path d="M-109.78,40a10,10 0 0,1 10,-10" />
      <path d="M99.78,30l-199.57,0" />
      <circle r="20" cy="358.61" />
      <path d="M139.78,469.66l-279.57,0" />
      <path d="M109.78,469.66l0,-429.66" />
      <path d="M-109.78,40l0,429.66" />
    </symbol>
    <symbol id="$TCHSYS$APDOOR2D" overflow="visible" class="i0">
      <path d="M0.5,0l-0.5,-0.87" />
      <path d="M-0.5,0a1,1 0 0,1 0.5,-0.87" />
    </symbol>
    <symbol id="$lvtry$00000222" overflow="visible" class="i0">
      <path d="M-205,190.69l0,-190.69l410,0l0,190.69m0,0a203.43,203.43 0 0,0 -154.23,132.77m-50.77,36.19a54,54 0 0,0 50.77,-36.18m-101.53,0a54,54 0 0,0 50.77,36.18m-50.77,-36.19a203.43,203.43 0 0,0 -154.23,-132.77" class="cnc-3" />
      <path d="M22.45,323.92a233.43,233.43 0 0,1 138.63,-141.65" />
      <path d="M-155.89,184.28a233.43,233.43 0 0,1 133.44,139.64" />
      <circle r="20" cy="241.62" />
      <path d="M22.45,323.92a24,24 0 0,1 -22.45,16.08" />
      <path d="M0,340a24,24 0 0,1 -22.45,-16.08" />
      <path d="M-156.25,165.88a395,395 0 0,1 317.79,-2.15" />
      <path d="M-155.89,184.29a10,10 0 0,1 -0.36,-18.41" />
      <circle r="20" cx="-0.03" cy="60.43" />
      <path d="M161.54,163.73a10,10 0 0,1 -0.46,18.55" />
    </symbol>
    <symbol id="$lvtry$00000188" overflow="visible" class="i0">
      <path d="M262.08,174.72a74.88,74.88 0 0,0 -74.88,-74.88" class="cnc-4" />
      <path d="M-262.08,0a37.44,37.44 0 0,0 -37.44,37.44l0,474.24a37.44,37.44 0 0,0 37.44,37.44l524.16,0a37.44,37.44 0 0,0 37.44,-37.44l0,-474.24a37.44,37.44 0 0,0 -37.44,-37.44l-524.16,0" class="cnc-4" />
      <path d="M31.2,99.84l156,0" />
      <circle r="24.96" cx="-80.35" cy="62.4" />
      <path d="M-38.06,49.92l76.12,0" />
      <path d="M-41.02,53.41a3,3 0 0,1 2.96,-3.49" />
      <path d="M38.06,49.92a3,3 0 0,1 2.96,3.49" />
      <circle r="19.96" cx="-80.35" cy="62.4" />
      <circle r="19.96" cx="80.35" cy="62.4" />
      <circle r="24.96" cx="80.35" cy="62.4" />
      <circle r="37.44" cy="299.52" />
      <path d="M-12.48,224.64l24.96,0" />
      <path d="M262.08,436.8a74.88,74.88 0 0,1 -74.88,74.88" />
      <path d="M262.08,174.72l0,262.08" />
      <path d="M-41.02,53.41l28.54,171.23" />
      <path d="M12.48,224.64l28.54,-171.23" />
      <path d="M-262.08,174.72a74.88,74.88 0 0,1 74.88,-74.88" />
      <path d="M-187.2,511.68a74.88,74.88 0 0,1 -74.88,-74.88" />
      <path d="M-262.08,436.8l0,-262.08" />
      <path d="M187.2,511.68l-374.4,0" />
      <path d="M-187.2,99.84l156,0" />
    </symbol>
    <symbol id="$WINLIB2D$00000001_2100x200" overflow="visible" class="i0">
      <path d="M1050,100l0,-200" />
      <path d="M-1050,-100l0,200" />
      <path d="M1050,-33.33l-2100,0" />
      <path d="M1050,33.33l-2100,0" />
      <path d="M-1050,100l2100,0" />
      <path d="M-1050,-100l2100,0" />
    </symbol>
  </defs>
  <g id="viewer">
    <g id="mirror" transform="scale(1, 1)" stroke-width="0.09%">
      <g id="background" fill="none">
        <g id="layer-bady-fills" class="cnc-0">
          <path d="M216873.23,-114773.86l0,0l0,1900l0,0z" />
          <path d="M216909.39,-114684.47l1523.21,0l0,1716.73l-1523.21,0z" />
          <path d="M218514.19,-114386.57l266.68,0l0,1048.11l-266.68,0z" />
          <path d="M216909.39,-116784.47l1523.21,0l0,1716.73l-1523.21,0z" />
          <path d="M218514.19,-116486.57l266.68,0l0,1048.11l-266.68,0z" />
          <path d="M211356.55,-110023.86l0,-1800l600,0l0,1800z" />
          <path d="M213256.55,-95073.86l200,0l0,200l-200,0z" />
          <path d="M213256.55,-96773.86l200,0l0,200l-200,0z" />
        </g>
        <g id="layer-RM-fills" class="rm">
          <path d="M208356.55,-92973.86l0,850l4900,0l0,-250l-300,0l0,-600z" />
          <path d="M216756.55,-116873.86l2100,0l0,1900l-2100,0z" />
          <path d="M216756.55,-114773.86l2100,0l0,1900l-2100,0z" />
        </g>
        <g id="layer-bady" class="cnc-1">
          <path d="M216235.07,-114973.86l5461.05,0" />
          <path d="M218432.61,-114684.47l-1523.21,1716.73" />
          <path d="M216909.39,-114684.47l1523.21,1716.73" />
          <path d="M218432.61,-116784.47l-1523.21,1716.73" />
          <path d="M216909.39,-116784.47l1523.21,1716.73" />
          <path d="M212956.55,-92973.86l-4342.23,276.7l-257.77,573.3" />
          <use xlink:href="#_FZH" x="266.696" y="-125.967" transform="scale(800,800)" stroke-width="0.0001%">.</use>
          <use xlink:href="#_FZH" x="266.696" y="-135.967" transform="scale(800,800)" stroke-width="0.0001%">.</use>
          <use xlink:href="#_FZH" x="266.696" y="-115.967" transform="scale(800,800)" stroke-width="0.0001%">.</use>
          <use xlink:href="#_FZH" x="266.696" y="-105.967" transform="scale(800,800)" stroke-width="0.0001%">.</use>
          <use xlink:href="#_FZH" x="266.696" y="-145.967" transform="scale(800,800)" stroke-width="0.0001%">.</use>
          <use xlink:href="#_FZH" x="276.821" y="-105.967" transform="scale(800,800)" stroke-width="0.0001%">.</use>
          <use xlink:href="#_FZH" x="276.821" y="-115.967" transform="scale(800,800)" stroke-width="0.0001%">.</use>
          <use xlink:href="#_FZH" x="276.821" y="-125.967" transform="scale(800,800)" stroke-width="0.0001%">.</use>
          <use xlink:href="#_FZH" x="276.821" y="-135.967" transform="scale(800,800)" stroke-width="0.0001%">.</use>
          <use xlink:href="#_FZH" x="256.571" y="-125.967" transform="scale(800,800)" stroke-width="0.0001%">.</use>
          <use xlink:href="#_FZH" x="256.571" y="-135.967" transform="scale(800,800)" stroke-width="0.0001%">.</use>
          <use xlink:href="#_FZH" x="256.571" y="-115.967" transform="scale(800,800)" stroke-width="0.0001%">.</use>
          <use xlink:href="#_FZH" x="256.571" y="-105.967" transform="scale(800,800)" stroke-width="0.0001%">.</use>
          <use xlink:href="#_FZH" x="256.571" y="-145.967" transform="scale(800,800)" stroke-width="0.0001%">.</use>
          <path d="M212956.55,-116873.86l-7300,0" />
          <path d="M212956.55,-117173.86l-7300,0" />
          <path d="M205156.55,-85173.86l0,-800" />
          <path d="M205156.55,-85973.86l-300,0" />
          <path d="M204856.55,-85973.86l0,800" />
          <path d="M204856.55,-92373.86l0,800" />
          <path d="M204856.55,-91573.86l300,0" />
          <path d="M205156.55,-91573.86l0,-800" />
          <path d="M205156.55,-87773.86l0,-2000" />
          <path d="M205156.55,-89773.86l-300,0" />
          <path d="M204856.55,-89773.86l0,2000" />
          <path d="M204856.55,-87773.86l300,0" />
          <use xlink:href="#$WINLIB2D$00000001_1800x300" x="205006.55" y="-86873.86" transform="scale(-1,-1) translate(-410013.1,173747.72) rotate(-90,205006.55,-86873.86)">.<g class="blkclass0"><text transform="rotate(-90 605.45,455) translate(605.45,455)" font-size="386.75">C1827</text></g></use>
          <use xlink:href="#$WINLIB2D$00000001_1800x300" x="205006.55" y="-90673.86" transform="scale(-1,-1) translate(-410013.1,181347.72) rotate(-90,205006.55,-90673.86)">.<g class="blkclass0"><text transform="rotate(-90 549.61,410.87) translate(549.61,410.87)" font-size="386.75">C1818</text></g></use>
          <use xlink:href="#$WINLIB2D$00000001_7200x300" x="205006.55" y="-96773.86" transform="scale(-1,1) translate(-410013.1,0) rotate(-270,205006.55,-96773.86)">.<g class="blkclass0"><text transform="rotate(-90 573.75,527.1) translate(573.75,527.1)" font-size="386.75">C7221</text></g></use>
          <use xlink:href="#$WINLIB2D$00000001_7200x300" x="205006.55" y="-104773.86" transform="scale(-1,1) translate(-410013.1,0) rotate(-270,205006.55,-104773.86)">.<g class="blkclass0"><text transform="rotate(-90 573.75,469.72) translate(573.75,469.72)" font-size="386.75">C7221</text></g></use>
          <path d="M205656.55,-84673.86l7300,0" />
          <path d="M205656.55,-84373.86l7300,0" />
          <path d="M213756.55,-84673.86l7300,0" />
          <path d="M213756.55,-84373.86l7300,0" />
          <path d="M212956.55,-93173.86l-1454.29,0" />
          <path d="M211502.26,-93173.86l0,200" />
          <path d="M211502.26,-92973.86l1454.29,0" />
          <path d="M208356.55,-92973.86l1645.71,0" />
          <path d="M210002.26,-92973.86l0,-200" />
          <path d="M210002.26,-93173.86l-1645.71,0" />
          <path d="M208356.55,-92973.86l0,850" />
          <path d="M208156.55,-92973.86l0,1050" />
          <path d="M213256.55,-88273.86l0,-800" />
          <path d="M213456.55,-88273.86l0,-800" />
          <path d="M213256.55,-88273.86l200,0" />
          <path d="M205156.55,-109173.86l0,-800" />
          <path d="M205156.55,-109973.86l-300,0" />
          <path d="M204856.55,-109973.86l0,800" />
          <path d="M204856.55,-116373.86l0,800" />
          <path d="M204856.55,-115573.86l300,0" />
          <path d="M205156.55,-115573.86l0,-800" />
          <path d="M205156.55,-111773.86l0,-2000" />
          <path d="M205156.55,-113773.86l-300,0" />
          <path d="M204856.55,-113773.86l0,2000" />
          <path d="M204856.55,-111773.86l300,0" />
          <use xlink:href="#$WINLIB2D$00000001_1800x300" x="205006.55" y="-114673.86" transform="scale(-1,1) translate(-410013.1,0) rotate(-270,205006.55,-114673.86)">.<g class="blkclass0"><text transform="rotate(-90 573.75,455) translate(573.75,455)" font-size="386.75">C1827</text></g></use>
          <use xlink:href="#$WINLIB2D$00000001_1800x300" x="205006.55" y="-110873.86" transform="scale(-1,1) translate(-410013.1,0) rotate(-270,205006.55,-110873.86)">.<g class="blkclass0"><text transform="rotate(-90 -300.71,451.48) translate(-300.71,451.48)" font-size="386.75">C1818</text></g></use>
          <path d="M216749.83,-117173.86l-893.28,0" />
          <path d="M215856.55,-117173.86l0,300" />
          <path d="M215856.55,-116873.86l650,0" />
          <path d="M213756.55,-116873.86l600,0" />
          <path d="M214356.55,-116873.86l0,-300" />
          <path d="M214356.55,-117173.86l-600,0" />
          <use xlink:href="#$WINLIB2D$00000001_1500x300" x="215106.55" y="-117023.86" transform="scale(-1,1) translate(-430213.1,0) rotate(-180,215106.55,-117023.86)">.<g class="blkclass0"><text transform="translate(-410,-276.25)" font-size="386.75">C1521</text></g></use>
          <path d="M216506.55,-116873.86l0,400" />
          <path d="M216506.55,-116473.86l250,0" />
          <path d="M216756.55,-116473.86l0,-400" />
          <path d="M216756.55,-114973.86l0,-400" />
          <path d="M216756.55,-115373.86l-250,0" />
          <path d="M216506.55,-115373.86l0,400" />
          <use xlink:href="#$DorLib2D$00000127_1100x250" x="216631.55" y="-115923.86" transform="rotate(-270,216631.55,-115923.86)">.</use>
          <path d="M216756.55,-112873.86l2100,0" />
          <path d="M216506.55,-112623.86l2600,0" />
          <path d="M218856.55,-116873.86l-2100,0" />
          <path d="M219106.55,-117173.86l-2356.72,0" />
          <path d="M218856.55,-112873.86l0,-1900" />
          <path d="M219106.55,-112623.86l0,-2350" />
          <path d="M216506.55,-114973.86l0,600" />
          <path d="M216506.55,-114373.86l250,0" />
          <path d="M216756.55,-114373.86l0,-400" />
          <path d="M216756.55,-112873.86l0,-400" />
          <path d="M216756.55,-113273.86l-250,0" />
          <path d="M216506.55,-113273.86l0,650" />
          <use xlink:href="#$DorLib2D$00000127_1100x250" x="216631.55" y="-113823.86" transform="rotate(-270,216631.55,-113823.86)">.</use>
          <path d="M218856.55,-114973.86l0,-1900" />
          <path d="M219106.55,-114973.86l0,-2200" />
          <path d="M216756.55,-114973.86l2100,0" />
          <path d="M216756.55,-114773.86l2100,0" />
          <path d="M219106.55,-109173.86l1950,0" />
          <path d="M218856.55,-108923.86l2200,0" />
          <path d="M213456.55,-113273.86l0,-1300" />
          <path d="M213456.55,-114573.86l-200,0" />
          <path d="M213256.55,-114573.86l0,1300" />
          <path d="M213256.55,-116373.86l0,300" />
          <path d="M213256.55,-116073.86l200,0" />
          <path d="M213456.55,-116073.86l0,-300" />
          <use xlink:href="#$DorLib2D$00000231" x="142.238" y="-76.883" transform="scale(1500,1500) rotate(-90,142.24,-76.88)" stroke-width="0.0001%">.</use>
          <path d="M213456.55,-94673.86l0,-400" />
          <path d="M213456.55,-95073.86l-200,0" />
          <path d="M213256.55,-95073.86l0,200" />
          <path d="M213256.55,-100373.86l0,1350" />
          <path d="M213256.55,-99023.86l200,0" />
          <path d="M213456.55,-99023.86l0,-1350" />
          <path d="M213456.55,-96573.86l0,-950" />
          <path d="M213456.55,-97523.86l-200,0" />
          <path d="M213256.55,-97523.86l0,950" />
          <path d="M213256.55,-96573.86l200,0" />
          <path d="M213256.55,-99023.86l0,1500" />
          <path d="M213456.55,-97523.86l0,-1500" />
          <path d="M213456.55,-101173.86l0,-2900" />
          <path d="M213456.55,-104073.86l-200,0" />
          <path d="M213256.55,-104073.86l0,2900" />
          <path d="M213256.55,-108373.86l0,2800" />
          <path d="M213256.55,-105573.86l200,0" />
          <path d="M213456.55,-105573.86l0,-2800" />
          <path d="M213456.55,-105573.86l0,1500" />
          <path d="M213456.55,-104073.86l-200,0" />
          <path d="M213256.55,-104073.86l0,-1500" />
          <path d="M213256.55,-105573.86l200,0" />
          <path d="M213256.55,-105573.86l0,1500" />
          <path d="M213456.55,-104073.86l0,-1500" />
          <path d="M213256.55,-112623.86l400,0" />
          <path d="M213656.55,-112623.86l0,-250" />
          <path d="M213656.55,-112873.86l-200,0" />
          <path d="M215456.55,-112873.86l-300,0" />
          <path d="M215156.55,-112873.86l0,250" />
          <path d="M215156.55,-112623.86l200,0" />
          <use xlink:href="#$DorLib2D$00000231" x="142.938" y="-75.166" transform="scale(1500,1500) scale(-1,1) translate(-285.88,0)" stroke-width="0.0001%">.</use>
          <path d="M208356.55,-93173.86l-1200,0" />
          <path d="M207156.55,-93173.86l0,200" />
          <path d="M207156.55,-92973.86l1000,0" />
          <use xlink:href="#$DorLib2D$00000231" x="137.604" y="-62.049" transform="scale(1500,1500) scale(-1,1) translate(-275.21,0) rotate(-180,137.6,-62.05)" stroke-width="0.0001%">.</use>
          <path d="M213256.55,-85173.86l0,-3100" />
          <path d="M213456.55,-85173.86l0,-3300" />
          <path d="M213256.55,-88273.86l-5000,0" />
          <path d="M213456.55,-88473.86l-5100,0" />
          <path d="M208156.55,-88473.86l0,-3450" />
          <path d="M208356.55,-88473.86l0,-3450" />
          <path d="M208156.55,-91923.86l200,0" />
          <path d="M208223.21,-89598.86l0,-1200" class="cnc-2" />
          <path d="M208289.88,-89598.86l0,-1200" class="cnc-2" />
          <path d="M208156.55,-90798.86l200,0" class="cnc-2" />
          <path d="M208156.55,-89598.86l200,0" class="cnc-2" />
          <use xlink:href="#$DorLib2D$00000231" x="137.404" y="-58.916" transform="scale(1500,1500) scale(-1,1) translate(-274.81,0) rotate(-180,137.4,-58.92)" stroke-width="0.0001%">.</use>
          <path d="M218856.55,-112623.86l0,200" />
          <path d="M218856.55,-112423.86l250,0" />
          <path d="M219106.55,-112423.86l0,-200" />
          <path d="M219106.55,-112623.86l-250,0" />
          <path d="M219106.55,-109173.86l0,-2350" />
          <path d="M219106.55,-111523.86l-250,0" />
          <path d="M218856.55,-111523.86l0,2600" />
          <use xlink:href="#$WINLIB2D$00000001_900x250" x="218981.55" y="-111973.86" transform="scale(-1,1) translate(-437963.1,0) rotate(-90,218981.55,-111973.86)">.<g class="blkclass0"><text transform="rotate(-90 -200.24,473.53) translate(-200.24,473.53)" font-size="386.75">C0918</text></g></use>
          <path d="M219856.52,-117576.96l-300,-300" />
          <path d="M219856.52,-117576.96l300,-300" />
          <path d="M219156.52,-117576.96l1000,0" />
          <path d="M219556.52,-117876.96l1565,0" />
          <path d="M208156.55,-88473.86l-1300,0" />
          <path d="M206856.55,-88473.86l0,200" />
          <path d="M206856.55,-88273.86l1400,0" />
          <path d="M205156.55,-88273.86l200,0" />
          <path d="M205356.55,-88273.86l0,-200" />
          <path d="M205356.55,-88473.86l-200,0" />
          <path d="M205156.55,-88473.86l0,200" />
          <path d="M213256.55,-112623.86l0,-450" />
          <path d="M213456.55,-112873.86l0,-400" />
          <path d="M221556.55,-92373.86l0,800" />
          <path d="M221556.55,-91573.86l300,0" />
          <path d="M221856.55,-91573.86l0,-800" />
          <path d="M221856.55,-85173.86l0,-800" />
          <path d="M221856.55,-85973.86l-300,0" />
          <path d="M221556.55,-85973.86l0,800" />
          <path d="M221556.55,-89773.86l0,2000" />
          <path d="M221556.55,-87773.86l300,0" />
          <path d="M221856.55,-87773.86l0,-2000" />
          <path d="M221856.55,-89773.86l-300,0" />
          <use xlink:href="#$WINLIB2D$00000001_1800x300" x="221706.55" y="-86873.86" transform="scale(-1,1) translate(-443413.1,0) rotate(-90,221706.55,-86873.86)">.<g class="blkclass0"><text transform="rotate(-90 -276.25,435) translate(-276.25,435)" font-size="386.75">C1810</text></g></use>
          <use xlink:href="#$WINLIB2D$00000001_1800x300" x="221706.55" y="-90673.86" transform="scale(-1,1) translate(-443413.1,0) rotate(-90,221706.55,-90673.86)">.<g class="blkclass0"><text transform="rotate(-90 -276.25,435) translate(-276.25,435)" font-size="386.75">C1810</text></g></use>
          <use xlink:href="#$WINLIB2D$00000001_7200x300" x="221706.55" y="-104773.86" transform="scale(1,-1) translate(0,209547.72) rotate(-90,221706.55,-104773.86)">.<g class="blkclass0"><text transform="rotate(-90 -339.84,469.72) translate(-339.84,469.72)" font-size="386.75">C7221</text></g></use>
          <use xlink:href="#$WINLIB2D$00000001_7200x300" x="221706.55" y="-96773.86" transform="scale(1,-1) translate(0,193547.72) rotate(-90,221706.55,-96773.86)">.<g class="blkclass0"><text transform="rotate(-90 -320.92,527.1) translate(-320.92,527.1)" font-size="386.75">C7221</text></g></use>
          <path d="M215556.55,-89273.86l0,-1100" />
          <path d="M215556.55,-90373.86l-200,0" />
          <path d="M215356.55,-90373.86l0,1100" />
          <path d="M215356.55,-92673.86l0,800" />
          <path d="M215356.55,-91873.86l200,0" />
          <path d="M215556.55,-91873.86l0,-800" />
          <path d="M215456.55,-112873.86l1050,0" />
          <path d="M215556.55,-112623.86l950,0" />
          <path d="M216506.55,-112873.86l0,250" />
          <path d="M213256.55,-92123.86l0,-250" />
          <path d="M213456.55,-92123.86l0,-250" />
          <use xlink:href="#$DorLib2D$00000228" x="237.063" y="-101.638" transform="scale(900,900) rotate(-90,237.06,-101.64)" stroke-width="0.0001%">.<g class="blkclass0"><text transform="rotate(-90 608.65,445) translate(608.65,445)" font-size="386.75">M0921</text></g></use>
          <path d="M213456.55,-94673.86l-8300,0" />
          <path d="M213256.55,-94873.86l-8100,0" />
          <path d="M205156.55,-94673.86l0,-200" />
          <path d="M221556.55,-89073.86l-6100,0" />
          <path d="M221556.55,-89273.86l-6000,0" />
          <path d="M221556.55,-89073.86l0,-200" />
          <path d="M213456.55,-89273.86l0,-1750" />
          <path d="M213456.55,-91023.86l-200,0" />
          <path d="M213256.55,-91023.86l0,1950" />
          <path d="M213256.55,-91923.86l200,0" />
          <path d="M213456.55,-91923.86l0,-200" />
          <path d="M215356.55,-89273.86l0,200" />
          <path d="M215356.55,-89073.86l100,0" />
          <path d="M213456.55,-89073.86l400,0" />
          <path d="M213856.55,-89073.86l0,-200" />
          <path d="M213856.55,-89273.86l-400,0" />
          <path d="M221056.55,-92673.86l-5500,0" />
          <path d="M221056.55,-92873.86l-5500,0" />
          <path d="M215356.55,-92673.86l0,0" />
          <path d="M215356.55,-92873.86l0,0" />
          <path d="M215356.55,-92673.86l0,-200" />
          <use xlink:href="#$DorLib2D$00000228" x="239.396" y="-124.415" transform="scale(900,900) scale(1,-1) translate(0,248.83) rotate(-270,239.4,-124.42)" stroke-width="0.0001%">.<g class="blkclass0"><text transform="rotate(-90 1117.72,445) translate(1117.72,445)" font-size="386.75">M0921</text></g></use>
          <path d="M215356.55,-100033.86l0,1500" />
          <path d="M215556.55,-98533.86l0,-1500" />
          <path d="M213556.55,-109173.86l0,-1950" />
          <path d="M213556.55,-111123.86l-150,0" />
          <path d="M213406.55,-111123.86l0,1950" />
          <path d="M213556.55,-112623.86l-150,0" />
          <path d="M213406.55,-112623.86l0,1500" class="cnc-2" />
          <path d="M213556.55,-111123.86l0,-1500" class="cnc-2" />
          <path d="M211356.55,-108773.86l1600,0" />
          <path d="M211281.55,-108573.86l1675,0" />
          <path d="M205156.55,-113273.86l6125,0" />
          <path d="M205156.55,-113073.86l6050,0" />
          <path d="M205156.55,-113273.86l0,200" />
          <use xlink:href="#$lvtry$00000193" x="211376.55" y="-110573.86" transform="rotate(-90,211376.55,-110573.86)">.</use>
          <use xlink:href="#$lvtry$00000193" x="211376.55" y="-111273.86" transform="rotate(-90,211376.55,-111273.86)">.</use>
          <use xlink:href="#$DorLib2D$00000228" x="264.102" y="-136.654" transform="scale(800,800) scale(-1,-1) translate(-528.2,273.31) rotate(-90,264.1,-136.65)" stroke-width="0.0001%">.<g class="blkclass0"><text transform="rotate(-90 -329.81,445) translate(-329.81,445)" font-size="386.75">M0821</text></g></use>
          <use xlink:href="#$DorLib2D$00000228" x="264.102" y="-140.655" transform="scale(800,800) scale(1,-1) translate(0,281.31) rotate(-270,264.1,-140.66)" stroke-width="0.0001%">.<g class="blkclass0"><text transform="rotate(-90 -329.81,441.86) translate(-329.81,441.86)" font-size="386.75">M0821</text></g></use>
          <path d="M205656.55,-108773.86l5550,0" />
          <path d="M205656.55,-108573.86l5625,0" />
          <path d="M211356.55,-108773.86l0,-149.67" />
          <path d="M211356.55,-108923.53l-150,0" />
          <path d="M211206.55,-108923.53l0,149.67" />
          <path d="M211206.55,-111123.86l0,1400.33" />
          <path d="M211206.55,-109723.53l150,0" />
          <path d="M211356.55,-109723.53l0,-1475.33" />
          <path d="M211281.55,-113273.86l1975,0" />
          <path d="M211356.55,-113073.86l1900,0" />
          <use xlink:href="#$DorLib2D$00000231" x="140.502" y="-62.049" transform="scale(1500,1500) scale(1,-1) translate(0,124.1) rotate(-180,140.5,-62.05)" stroke-width="0.0001%">.</use>
          <path d="M208356.55,-92123.86l4900,0" />
          <path d="M208156.55,-91923.86l5100,0" />
          <path d="M205156.55,-98223.79l6949.91,0" />
          <path d="M212106.46,-98223.79l0,-150" />
          <path d="M212106.46,-98373.79l-6949.91,0" />
          <path d="M205156.55,-98373.79l0,150" />
          <path d="M213256.55,-98373.79l-150.09,0" />
          <path d="M213106.46,-98373.79l0,150" />
          <path d="M213106.46,-98223.79l150.09,0" />
          <path d="M213256.55,-98223.79l0,-150" />
          <use xlink:href="#$DorLib2D$00000228" x="212.606" y="-98.299" transform="scale(1000,1000) scale(1,-1) translate(0,196.6)" stroke-width="0.0001%">.<g class="blkclass0"><text transform="translate(-470,1272.12)" font-size="386.75">M1027</text></g></use>
          <path d="M215556.55,-104848.86l0,-1825" />
          <path d="M215556.55,-106673.86l-200,0" />
          <path d="M215356.55,-106673.86l0,1900" />
          <path d="M215356.55,-109123.86l0,950" />
          <path d="M215356.55,-108173.86l200,0" />
          <path d="M215556.55,-108173.86l0,-750" />
          <path d="M215556.55,-104698.86l150,0" />
          <path d="M215706.55,-104698.86l0,-150" />
          <path d="M215706.55,-104848.86l-150,0" />
          <path d="M221556.55,-104848.86l-4850,0" />
          <path d="M216706.55,-104848.86l0,150" />
          <path d="M216706.55,-104698.86l4850,0" />
          <path d="M221556.55,-104698.86l0,-150" />
          <use xlink:href="#$DorLib2D$00000228" x="216.207" y="-104.774" transform="scale(1000,1000) scale(-1,1) translate(-432.41,0)" stroke-width="0.0001%">.<g class="blkclass0"><text transform="translate(-470,-999.62)" font-size="386.75">M1027</text></g></use>
          <path d="M215556.55,-92873.86l0,-800" />
          <path d="M215556.55,-93673.86l-200,0" />
          <path d="M215356.55,-93673.86l0,800" />
          <path d="M215356.55,-104773.86l0,1760" />
          <path d="M215356.55,-103013.86l200,0" />
          <path d="M215556.55,-103013.86l0,-1685" />
          <path d="M215556.55,-95173.86l0,-3360" />
          <path d="M215556.55,-98533.86l-200,0" />
          <path d="M215356.55,-98533.86l0,3360" />
          <path d="M215356.55,-95173.86l200,0" />
          <path d="M215556.55,-100033.86l0,1500" />
          <path d="M215556.55,-98533.86l-200,0" />
          <path d="M215356.55,-98533.86l0,-1500" />
          <path d="M215356.55,-100033.86l200,0" />
          <path d="M215556.55,-100033.86l0,-1480" />
          <path d="M215556.55,-101513.86l-200,0" />
          <path d="M215356.55,-101513.86l0,1480" />
          <path d="M215356.55,-100033.86l200,0" />
          <use xlink:href="#$lvtry$00000202" x="210756.55" y="-110923.86">.</use>
          <use xlink:href="#$lvtry$00000202" x="209856.55" y="-110923.86">.</use>
          <use xlink:href="#$lvtry$00000202" x="208956.55" y="-110923.86">.</use>
          <use xlink:href="#$lvtry$00000202" x="208056.55" y="-110923.86">.</use>
          <path d="M210319.05,-111123.86l0,1187.5" />
          <path d="M210294.05,-111123.86l0,1187.5" />
          <path d="M210319.05,-111123.86l-25,0" />
          <path d="M211206.55,-109936.36l-150,0" />
          <path d="M211056.55,-109936.36l0,25" />
          <path d="M211056.55,-109911.36l150,0" />
          <path d="M211206.55,-109911.36l0,-25" />
          <path d="M210306.55,-109911.36l150,0" />
          <path d="M210456.55,-109911.36l0,-25" />
          <path d="M210456.55,-109936.36l-137.5,0" />
          <use xlink:href="#$TCHSYS$APDOOR2D" x="351.261" y="-183.206" transform="scale(600,600) rotate(-180,351.26,-183.21)" stroke-width="0.0002%">.</use>
          <path d="M209419.05,-111123.86l0,1187.5" />
          <path d="M209394.05,-111123.86l0,1187.5" />
          <path d="M209419.05,-111123.86l-25,0" />
          <path d="M210294.05,-109936.36l-137.5,0" />
          <path d="M210156.55,-109936.36l0,25" />
          <path d="M210156.55,-109911.36l150,0" />
          <path d="M209406.55,-109911.36l150,0" />
          <path d="M209556.55,-109911.36l0,-25" />
          <path d="M209556.55,-109936.36l-137.5,0" />
          <use xlink:href="#$TCHSYS$APDOOR2D" x="349.761" y="-183.206" transform="scale(600,600) rotate(-180,349.76,-183.21)" stroke-width="0.0002%">.</use>
          <path d="M208519.05,-111123.86l0,1187.5" />
          <path d="M208494.05,-111123.86l0,1187.5" />
          <path d="M208519.05,-111123.86l-25,0" />
          <path d="M209394.05,-109936.36l-137.5,0" />
          <path d="M209256.55,-109936.36l0,25" />
          <path d="M209256.55,-109911.36l150,0" />
          <path d="M208506.55,-109911.36l150,0" />
          <path d="M208656.55,-109911.36l0,-25" />
          <path d="M208656.55,-109936.36l-137.5,0" />
          <use xlink:href="#$TCHSYS$APDOOR2D" x="348.261" y="-183.206" transform="scale(600,600) rotate(-180,348.26,-183.21)" stroke-width="0.0002%">.</use>
          <path d="M207622.05,-111123.86l0,1187.5" />
          <path d="M207597.05,-111123.86l0,1187.5" />
          <path d="M207622.05,-111123.86l-25,0" />
          <path d="M208494.05,-109936.36l-137.5,0" />
          <path d="M208356.55,-109936.36l0,25" />
          <path d="M208356.55,-109911.36l150,0" />
          <path d="M207609.55,-109911.36l147,0" />
          <path d="M207756.55,-109911.36l0,-25" />
          <path d="M207756.55,-109936.36l-134.5,0" />
          <use xlink:href="#$TCHSYS$APDOOR2D" x="346.761" y="-183.206" transform="scale(600,600) rotate(-180,346.76,-183.21)" stroke-width="0.0002%">.</use>
          <use xlink:href="#$lvtry$00000222" x="214445.459" y="-134245.614" transform="scale(0.98,0.83) rotate(-180,214445.46,-134245.61)" stroke-width="0.0918%">.</use>
          <use xlink:href="#$lvtry$00000222" x="213731.173" y="-134245.614" transform="scale(0.98,0.83) rotate(-180,213731.17,-134245.61)" stroke-width="0.0918%">.</use>
          <use xlink:href="#$lvtry$00000222" x="213016.888" y="-134245.614" transform="scale(0.98,0.83) rotate(-180,213016.89,-134245.61)" stroke-width="0.0918%">.</use>
          <path d="M210494.05,-111423.86l0,-400" />
          <path d="M210519.05,-111423.86l0,-400" />
          <path d="M210494.05,-111423.86l25,0" />
          <path d="M210494.05,-111823.86l25,0" />
          <path d="M209794.05,-111423.86l0,-400" />
          <path d="M209819.05,-111423.86l0,-400" />
          <path d="M209794.05,-111423.86l25,0" />
          <path d="M209794.05,-111823.86l25,0" />
          <path d="M209094.05,-111423.86l0,-400" />
          <path d="M209119.05,-111423.86l0,-400" />
          <path d="M209094.05,-111423.86l25,0" />
          <path d="M209094.05,-111823.86l25,0" />
          <path d="M208394.05,-111423.86l0,-400" />
          <path d="M208419.05,-111423.86l0,-400" />
          <path d="M208394.05,-111423.86l25,0" />
          <path d="M208394.05,-111823.86l25,0" />
          <use xlink:href="#$lvtry$00000188" x="210907.03" y="-111423.86" transform="rotate(-180,210907.03,-111423.86)">.</use>
          <use xlink:href="#$lvtry$00000188" x="205461.38" y="-110574.74" transform="rotate(-180,205461.38,-110574.74)">.</use>
          <use xlink:href="#$lvtry$00000202" x="205356.55" y="-112623.86" transform="rotate(-90,205356.55,-112623.86)">.</use>
          <use xlink:href="#$lvtry$00000202" x="205356.55" y="-111723.86" transform="rotate(-90,205356.55,-111723.86)">.</use>
          <path d="M205156.55,-112186.36l1187.5,0" />
          <path d="M205156.55,-112161.36l1187.5,0" />
          <path d="M205156.55,-112186.36l0,25" />
          <path d="M206344.05,-113073.86l0,150" />
          <path d="M206344.05,-112923.86l25,0" />
          <path d="M206369.05,-112923.86l0,-150" />
          <path d="M206369.05,-113073.86l-25,0" />
          <path d="M206369.05,-112173.86l0,-150" />
          <path d="M206369.05,-112323.86l-25,0" />
          <path d="M206344.05,-112323.86l0,137.5" />
          <use xlink:href="#$TCHSYS$APDOOR2D" x="343.928" y="-187.706" transform="scale(600,600) rotate(-270,343.93,-187.71)" stroke-width="0.0002%">.</use>
          <path d="M206344.05,-112161.36l0,137.5" />
          <path d="M206344.05,-112023.86l25,0" />
          <path d="M206369.05,-112023.86l0,-150" />
          <path d="M206369.05,-111273.86l0,-150" />
          <path d="M206369.05,-111423.86l-25,0" />
          <path d="M206344.05,-111423.86l0,150" />
          <use xlink:href="#$TCHSYS$APDOOR2D" x="343.928" y="-186.206" transform="scale(600,600) rotate(-270,343.93,-186.21)" stroke-width="0.0002%">.</use>
          <use xlink:href="#$lvtry$00000222" x="212302.602" y="-134245.614" transform="scale(0.98,0.83) rotate(-180,212302.6,-134245.61)" stroke-width="0.0918%">.</use>
          <path d="M207694.05,-111423.86l0,-400" />
          <path d="M207719.05,-111423.86l0,-400" />
          <path d="M207694.05,-111423.86l25,0" />
          <path d="M207694.05,-111823.86l25,0" />
          <use xlink:href="#$lvtry$00000202" x="207159.55" y="-110923.86">.</use>
          <path d="M206725.05,-111123.86l0,1187.5" />
          <path d="M206700.05,-111123.86l0,1187.5" />
          <path d="M206725.05,-111123.86l-25,0" />
          <path d="M207597.05,-109936.36l-137.5,0" />
          <path d="M207459.55,-109936.36l0,25" />
          <path d="M207459.55,-109911.36l150,0" />
          <path d="M206712.55,-109911.36l147,0" />
          <path d="M206859.55,-109911.36l0,-25" />
          <path d="M206859.55,-109936.36l-134.5,0" />
          <use xlink:href="#$TCHSYS$APDOOR2D" x="345.266" y="-183.206" transform="scale(600,600) rotate(-180,345.27,-183.21)" stroke-width="0.0002%">.</use>
          <use xlink:href="#$lvtry$00000202" x="206262.55" y="-110923.86">.</use>
          <path d="M205828.05,-111123.86l0,1187.5" />
          <path d="M205803.05,-111123.86l0,1212.5" />
          <path d="M205828.05,-111123.86l-25,0" />
          <path d="M206700.05,-109936.36l-137.5,0" />
          <path d="M206562.55,-109936.36l0,25" />
          <path d="M206562.55,-109911.36l150,0" />
          <path d="M205803.05,-109911.36l159.5,0" />
          <path d="M205962.55,-109911.36l0,-25" />
          <path d="M205962.55,-109936.36l-134.5,0" />
          <use xlink:href="#$TCHSYS$APDOOR2D" x="343.771" y="-183.206" transform="scale(600,600) rotate(-180,343.77,-183.21)" stroke-width="0.0002%">.</use>
          <path d="M205156.55,-111273.86l1200,0" />
          <path d="M205156.55,-111123.86l1200,0" />
          <path d="M205156.55,-111273.86l0,150" />
          <path d="M206356.55,-111273.86l4850,0" />
          <path d="M206356.55,-111123.86l4850,0" />
          <path d="M211356.55,-111198.86l0,-925.19" />
          <path d="M211356.55,-112124.05l-150,0" />
          <path d="M211206.55,-112124.05l0,850.19" />
          <path d="M211206.55,-113073.86l0,149.81" />
          <path d="M211206.55,-112924.05l150,0" />
          <path d="M211356.55,-112924.05l0,-149.81" />
          <path d="M215556.55,-108923.86l150,0" />
          <path d="M215706.55,-108923.86l0,-200" />
          <path d="M215706.55,-109123.86l-150,0" />
          <path d="M218856.55,-109123.86l-150,0" />
          <path d="M218706.55,-109123.86l0,200" />
          <path d="M218706.55,-108923.86l150,0" />
          <path d="M218856.55,-108923.86l0,-200" />
          <use xlink:href="#$DorLib2D$00000228" x="240.174" y="-121.138" transform="scale(900,900) scale(-1,1) translate(-480.35,0)" stroke-width="0.0001%">.<g class="blkclass0"><text transform="translate(548.14,630.28)" font-size="386.75">MC3027</text></g></use>
          <use xlink:href="#$WINLIB2D$00000001_2100x200" x="217656.55" y="-109023.86" transform="scale(1,-1) translate(0,218047.72)">.</use>
          <path d="M215556.55,-109123.86l0,-2400" />
          <path d="M215556.55,-111523.86l-200,0" />
          <path d="M215356.55,-111523.86l0,2400" />
          <path d="M215356.55,-112623.86l0,200" />
          <path d="M215356.55,-112423.86l200,0" />
          <path d="M215556.55,-112423.86l0,-200" />
          <path d="M206956.55,-87491.36l1950,0l300,0" />
          <path d="M206956.55,-85806.36l5325,0l0,-1685l-2475,0l-300,0" />
          <path d="M207106.55,-88273.86l1740.49,0" />
          <path d="M208962.51,-88273.86l2344.04,0" />
          <path d="M207106.55,-88273.86l0,1505" />
          <path d="M207406.55,-88273.86l0,1505" />
          <path d="M207706.55,-88273.86l0,1505" />
          <path d="M208006.55,-88273.86l0,1505" />
          <path d="M208306.55,-88273.86l0,1505" />
          <path d="M208606.55,-88273.86l0,1505" />
          <path d="M208906.55,-88170.78l0,1401.92" />
          <path d="M209206.55,-88273.86l0,422.69" />
          <path d="M209206.55,-87651.17l0,882.31" />
          <path d="M209506.55,-88273.86l0,942.31" />
          <path d="M209506.55,-87131.55l0,362.69" />
          <path d="M209806.55,-88273.86l0,1461.92" />
          <path d="M210106.55,-88273.86l0,1505" />
          <path d="M210406.55,-88273.86l0,1505" />
          <path d="M210706.55,-88273.86l0,1505" />
          <path d="M211006.55,-88273.86l0,1505" />
          <path d="M211306.55,-88273.86l0,1505" />
          <path d="M207106.55,-86708.86l2644.04,0" />
          <path d="M209866.06,-86708.86l1440.49,0" />
          <path d="M208962.51,-88273.86l399.12,691.3" />
          <path d="M208847.04,-88273.86l414.59,718.1" />
          <path d="M209261.63,-87555.76l172.35,-46.18" />
          <path d="M209433.98,-87601.95l-172.89,206.04" />
          <path d="M209261.09,-87395.9l180.4,-48.34" />
          <path d="M209441.49,-87444.24l424.57,735.38" />
          <path d="M209341.49,-87417.44l409.1,708.58" />
          <path d="M211306.55,-85023.86l-4200,0" />
          <path d="M211306.55,-85023.86l0,-1505" />
          <path d="M211006.55,-85023.86l0,-1505" />
          <path d="M210706.55,-85023.86l0,-1505" />
          <path d="M210406.55,-85023.86l0,-1505" />
          <path d="M210106.55,-85023.86l0,-1505" />
          <path d="M209806.55,-85023.86l0,-1505" />
          <path d="M209506.55,-85023.86l0,-1505" />
          <path d="M209206.55,-85023.86l0,-1505" />
          <path d="M208906.55,-85023.86l0,-1505" />
          <path d="M208606.55,-85023.86l0,-1505" />
          <path d="M208306.55,-85023.86l0,-1505" />
          <path d="M208006.55,-85023.86l0,-1505" />
          <path d="M207706.55,-85023.86l0,-1505" />
          <path d="M207406.55,-85023.86l0,-1505" />
          <path d="M207106.55,-85023.86l0,-1505" />
          <path d="M211306.55,-86588.86l-4200,0" />
          <path d="M207046.55,-86528.86l0,-240" />
          <path d="M207046.55,-86768.86l2669.4,0" />
          <path d="M209831.42,-86768.86l1535.13,0" />
          <path d="M211366.55,-86768.86l0,240" />
          <path d="M211366.55,-86528.86l-4320,0" />
          <path d="M207106.55,-86588.86l0,-120" />
          <path d="M207106.55,-86708.86l2644.04,0" />
          <path d="M209866.06,-86708.86l1440.49,0" />
          <path d="M211306.55,-86708.86l0,120" />
          <path d="M211306.55,-86588.86l-4200,0" />
          <path d="M211306.55,-85023.86l1650,0" />
          <path d="M213256.55,-85173.86l0,-3100" />
          <path d="M213256.55,-88273.86l-1950,0" />
          <path d="M211306.55,-88273.86l0,1505" />
          <path d="M211306.55,-86528.86l0,1505" />
          <path d="M211306.55,-86708.86l0,120" />
          <path d="M207106.55,-86708.86l0,120" />
          <path d="M211456.55,-115741.36l-1950,0l-300,0" />
          <path d="M211456.55,-114056.36l-5325,0l0,-1685l2475,0l300,0" />
          <path d="M211306.55,-116523.86l-2644.04,0" />
          <path d="M208547.04,-116523.86l-1440.49,0" />
          <path d="M211306.55,-115018.86l0,-1505" />
          <path d="M211006.55,-115018.86l0,-1505" />
          <path d="M210706.55,-115018.86l0,-1505" />
          <path d="M210406.55,-115018.86l0,-1505" />
          <path d="M210106.55,-115018.86l0,-1505" />
          <path d="M209806.55,-115018.86l0,-1505" />
          <path d="M209506.55,-115061.94l0,-1461.92" />
          <path d="M209206.55,-115018.86l0,-362.69" />
          <path d="M209206.55,-115581.55l0,-942.31" />
          <path d="M208906.55,-115018.86l0,-882.31" />
          <path d="M208906.55,-116101.17l0,-422.69" />
          <path d="M208606.55,-115018.86l0,-1401.92" />
          <path d="M208306.55,-115018.86l0,-1505" />
          <path d="M208006.55,-115018.86l0,-1505" />
          <path d="M207706.55,-115018.86l0,-1505" />
          <path d="M207406.55,-115018.86l0,-1505" />
          <path d="M207106.55,-115018.86l0,-1505" />
          <path d="M211306.55,-114958.86l-1740.49,0" />
          <path d="M209450.59,-114958.86l-2344.04,0" />
          <path d="M209450.59,-114958.86l-399.12,-691.3" />
          <path d="M209566.06,-114958.86l-414.59,-718.1" />
          <path d="M209151.47,-115676.96l-172.35,46.18" />
          <path d="M208979.11,-115630.77l172.89,-206.04" />
          <path d="M209152.01,-115836.82l-180.4,48.34" />
          <path d="M208971.61,-115788.48l-424.57,-735.38" />
          <path d="M209071.61,-115815.28l-409.1,-708.58" />
          <path d="M207106.55,-113273.86l4200,0" />
          <path d="M207106.55,-114778.86l0,1505" />
          <path d="M207406.55,-114778.86l0,1505" />
          <path d="M207706.55,-114778.86l0,1505" />
          <path d="M208006.55,-114778.86l0,1505" />
          <path d="M208306.55,-114778.86l0,1505" />
          <path d="M208606.55,-114778.86l0,1505" />
          <path d="M208906.55,-114778.86l0,1505" />
          <path d="M209206.55,-114778.86l0,1505" />
          <path d="M209506.55,-114778.86l0,1505" />
          <path d="M209806.55,-114778.86l0,1505" />
          <path d="M210106.55,-114778.86l0,1505" />
          <path d="M210406.55,-114778.86l0,1505" />
          <path d="M210706.55,-114778.86l0,1505" />
          <path d="M211006.55,-114778.86l0,1505" />
          <path d="M211306.55,-114778.86l0,1505" />
          <path d="M207106.55,-114838.86l4200,0" />
          <path d="M211306.55,-114838.86l0,-120" />
          <path d="M211306.55,-114958.86l-1740.49,0" />
          <path d="M209450.59,-114958.86l-2344.04,0" />
          <path d="M207106.55,-114958.86l0,120" />
          <path d="M207106.55,-114838.86l4200,0" />
          <path d="M211366.55,-114778.86l0,-240" />
          <path d="M211366.55,-115018.86l-1835.13,0" />
          <path d="M209415.95,-115018.86l-2369.4,0" />
          <path d="M207046.55,-115018.86l0,240" />
          <path d="M207046.55,-114778.86l4320,0" />
          <path d="M207106.55,-116523.86l-1450,0" />
          <path d="M205156.55,-116373.86l0,3100" />
          <path d="M205156.55,-113273.86l1950,0" />
          <path d="M207106.55,-113273.86l0,-1505" />
          <path d="M207106.55,-115018.86l0,-1505" />
          <path d="M207106.55,-114838.86l0,-120" />
          <path d="M211306.55,-114958.86l0,120" />
          <path d="M215456.55,-106673.86l600,0m0,0a600,600 0 0,0 -600,-600a900,900 0 0,0 900,-900m0,0l-900,0" />
          <path d="M213356.55,-105573.86l-600,0m0,0a600,600 0 0,0 600,600a900,900 0 0,0 -900,900m0,0l900,0" />
          <path d="M213356.55,-95073.86l-600,0m600,-600a600,600 0 0,0 -600,600m-300,-1500a900,900 0 0,0 900,900m-900,-900l900,0" />
          <path d="M215456.55,-103013.86l600,0m-600,600a600,600 0 0,0 600,-600m300,1500a900,900 0 0,0 -900,-900m900,900l-900,0" />
          <path d="M215456.55,-98533.86l600,0m0,0a600,600 0 0,0 -600,-600a900,900 0 0,0 900,-900m0,0l-900,0" />
          <path d="M215456.55,-91873.86l600,0m-600,600a600,600 0 0,0 600,-600m300,1500a900,900 0 0,0 -900,-900m900,900l-900,0" />
          <path d="M215456.55,-95173.86l600,0m-600,600a600,600 0 0,0 600,-600m300,1500a900,900 0 0,0 -900,-900m900,900l-900,0" />
          <path d="M215356.55,-89173.86l0,600m-600,-600a600,600 0 0,0 600,600m-1500,300a900,900 0 0,0 900,-900m-900,900l0,-900" />
        </g>
      </g>
      <g id="assets" fill="none">
        <g id="rm-assets" class="rm-asset">
          <path id="14008;F07;709-710" d="M205156.55,-108373.86l500,0l0,-200l7300,0l0,200l273.45,0l26.55,0l0,7200l-300,0l0,800l300,0l0,5500l-8100,0l0,-5500l500,0l0,-800l-500,0z" />
          <path id="14008;F07;701-705" d="M215556.55,-112623.86l3300,0l0,3700l2200,0l0,550l500,0l0,7200l-500,0l0,800l500,0l0,7200l-500,0l0,300l-5500,0z" />
          <path id="14008;F07;706-708" d="M208356.55,-91823.86l0,-100l4900,0l0,2850l2200,0l76.45,0l23.55,-200l0,-3400l5500,0l0,300l500,0l0,7200l-500,0l0,500l-7300,0l0,-500l-300,0l0,-3300l-5100,0z" />
        </g>
      </g>
    </g>
    <g id="text" font-family="Arial" font-size="438.86524822695031" font-weight="normal" text-style="normal" text-anchor="start" dominant-baseline="alphabetical" fill="#FF7F00" xml:space="preserve">
      <g id="layer-bady-text">
        <g transform="rotate(-90 213856.55,-114664.5) translate(213856.55,-114664.5)" font-size="386.75">
          <text>FM1521</text>
        </g>
        <g transform="rotate(-90 213856.55,-115804.5) translate(213856.55,-115804.5)">
          <text>乙</text>
        </g>
        <g transform="translate(213747.19,-112229.12)" font-size="386.75">
          <text>FM1521</text>
        </g>
        <g transform="translate(214887.19,-112229.12)">
          <text>乙</text>
        </g>
        <g transform="translate(205747.19,-93219.12)" font-size="386.75">
          <text>FM1521</text>
        </g>
        <g transform="translate(206887.19,-93219.12)">
          <text>乙</text>
        </g>
        <g transform="rotate(-90 208132.55,-89424) translate(208132.55,-89424)" font-size="386.75">
          <text>FGC1209</text>
        </g>
        <g transform="rotate(-90 208132.55,-90784) translate(208132.55,-90784)">
          <text>甲</text>
        </g>
        <g transform="translate(205447.19,-88519.12)" font-size="386.75">
          <text>FM1521</text>
        </g>
        <g transform="translate(206587.19,-88519.12)">
          <text>乙</text>
        </g>
        <g transform="translate(219991.52,-117981.96)" font-size="386.75" fill="#000000" stroke="#000000" stroke-width="0.02">
          <text>-0.300</text>
        </g>
        <g transform="rotate(-90 213980.3,-111463.86) translate(213980.3,-111463.86)" font-size="386.75">
          <text>D1521</text>
        </g>
        <g transform="translate(209920.54,-93899.37)" font-size="386.75">
          <text>FM1521</text>
        </g>
        <g transform="translate(211060.54,-93899.37)">
          <text>乙</text>
        </g>
        <g transform="translate(211115.26,-92315.98)" font-size="626.95">
          <text>电井</text>
        </g>
        <g transform="translate(206643.04,-87316.36)" fill="#000000" stroke="#000000" stroke-width="0.02">
          <text>上</text>
        </g>
        <g transform="translate(206661.65,-85631.36)" fill="#000000" stroke="#000000" stroke-width="0.02">
          <text>下</text>
        </g>
        <g transform="translate(211561.55,-115566.36)" fill="#000000" stroke="#000000" stroke-width="0.02">
          <text>上</text>
        </g>
        <g transform="translate(211561.55,-113881.36)" fill="#000000" stroke="#000000" stroke-width="0.02">
          <text>下</text>
        </g>
      </g>
    </g>
    <g id="asset-labels" font-family="Arial" font-weight="bold" font-size="38.1em" text-anchor="middle">
      <g id="rm-labels">
        <g id="l-rm-14008;F07;709-710" transform="translate(209206.55,-101723.86)">
          <text>709-710</text>
        </g>
        <g id="l-rm-14008;F07;701-705" transform="translate(218556.55,-102748.86)">
          <text>701-705</text>
        </g>
        <g id="l-rm-14008;F07;706-708" transform="translate(214956.55,-88673.86)">
          <text>706-708</text>
        </g>
      </g>
    </g>
  </g>
</svg>