<svg version="1.1" xmlns="http://www.w3.org/2000/svg" xmlns:xlink="http://www.w3.org/1999/xlink" viewBox="204154.2 180529.74 28808 33597">
  <style>.i0 { stroke:#000000;   } .bady { stroke:#ff7f00;   } .name { stroke:#ff0000;   } .rm { stroke:#00ffff;   } .axis_text { stroke:#000000;   } .pub_wall { stroke:#c0c0c0;   } .pub_hatch { stroke:#808080;   } .rm-asset { stroke:#0000ff;   fill:#EEEEEE; fill-opacity:1;} .rmtc-asset { stroke:#0000ff;   } .rmtc { stroke:#00ffff;   } .rm-assettxt { stroke:#0000ff;   } .rmtc-assettxt { stroke:#0000ff;   } .cnc-0 { stroke:#ff7f00;  stroke-dasharray:0; fill:#cccccc; fill-opacity:1;} .cnc-1 { stroke:#ff7f00;  stroke-dasharray:0; fill:#cccccc; fill-opacity:1;} .cnc-2 { stroke:#ff7f00;  stroke-dasharray:0; } .cnc-3 { stroke:#ff7f00;  stroke-dasharray:0; } .cnc-4 { stroke:#ff7f00; stroke-width:40; stroke-dasharray:0; } .cnc-5 { stroke:#000000;  stroke-dasharray:0; } .cnc-6 { stroke:#000000;  stroke-dasharray:0; } .blkclass0 { stroke:#ff7f00;  stroke-width:0.02;  fill:#ff7f00; fill-opacity:1; font-family:Arial; font-size:386.75; font-weight:normal; text-style:normal; text-anchor:start;}</style>
  <view id="defaultView" viewBox="204154.2 180529.74 28808 33597" />
  <defs>
    <symbol id="_FZH" overflow="visible" class="i0">
      <path d="M-0.5,0.5l1,0l0,-1l-1,0z" />
    </symbol>
    <symbol id="$WINLIB2D$00000001_2175x300" overflow="visible" class="i0">
      <path d="M1087.5,150l0,-300" />
      <path d="M-1087.5,-150l0,300" />
      <path d="M1087.5,-50l-2175,0" />
      <path d="M1087.5,50l-2175,0" />
      <path d="M-1087.5,150l2175,0" />
      <path d="M-1087.5,-150l2175,0" />
    </symbol>
    <symbol id="$WINLIB2D$00000001_1800x300" overflow="visible" class="i0">
      <path d="M900,150l0,-300" />
      <path d="M-900,-150l0,300" />
      <path d="M900,-50l-1800,0" />
      <path d="M900,50l-1800,0" />
      <path d="M-900,150l1800,0" />
      <path d="M-900,-150l1800,0" />
    </symbol>
    <symbol id="$WINLIB2D$00000001_7200x300" overflow="visible" class="i0">
      <path d="M3600,150l0,-300" />
      <path d="M-3600,-150l0,300" />
      <path d="M3600,-50l-7200,0" />
      <path d="M3600,50l-7200,0" />
      <path d="M-3600,150l7200,0" />
      <path d="M-3600,-150l7200,0" />
    </symbol>
    <symbol id="$DorLib2D$00000228" overflow="visible" class="i0">
      <path d="M-0.5,0a1,1 0 0,1 0.5,-0.87" />
      <path d="M0.5,0l-0.5,-0.87" />
    </symbol>
    <symbol id="$DorLib2D$00000127_1100x250" overflow="visible" class="i0">
      <path d="M550,-125l-1100,0" />
      <path d="M36.67,-198.72l0,26.12" />
      <path d="M-36.67,-198.72l-550,0" />
      <path d="M-36.67,-172.6l-550,0" />
      <path d="M-36.67,-198.72l0,26.12" />
      <path d="M586.67,-198.72l0,26.12" />
      <path d="M-586.67,-198.72l0,26.12" />
      <path d="M586.67,-172.6l-550,0" />
      <path d="M586.67,-198.72l-550,0" />
    </symbol>
    <symbol id="$DorLib2D$00000231" overflow="visible" class="i0">
      <path d="M-0.5,0l0.25,-0.43" />
      <path d="M-0.25,-0.43a0.5,0.5 0 0,1 0.25,0.43" />
      <path d="M0,0a0.5,0.5 0 0,1 0.25,-0.43" />
      <path d="M0.5,0l-0.25,-0.43" />
    </symbol>
    <symbol id="$lvtry$00000171" overflow="visible" class="i0">
      <path d="M10.61,74.25l63.64,-63.64" />
      <path d="M-27.39,69.82l97.21,-97.21" />
      <path d="M-74.25,-10.61l63.64,-63.64" />
      <path d="M-69.82,27.39l97.21,-97.21" />
      <path d="M-53.03,53.03l106.07,-106.07" />
      <circle r="75" />
    </symbol>
    <symbol id="$WINLIB2D$00000001_1500x300" overflow="visible" class="i0">
      <path d="M750,150l0,-300" />
      <path d="M-750,-150l0,300" />
      <path d="M750,-50l-1500,0" />
      <path d="M750,50l-1500,0" />
      <path d="M-750,150l1500,0" />
      <path d="M-750,-150l1500,0" />
    </symbol>
    <symbol id="$DorLib2D$00000116" overflow="visible" class="i0">
      <path d="M-0.5,0l0.35,-0.35" />
      <path d="M-0.15,-0.35a0.5,0.5 0 0,1 0.15,0.35" />
      <path d="M0,0a0.5,0.5 0 0,1 0.15,-0.35" />
      <path d="M0.5,0l-0.35,-0.35" />
    </symbol>
    <symbol id="$lvtry$00000195" overflow="visible" class="i0">
      <path d="M218.98,245.54a174.2,174.2 0 0,1 -49.44,54.36" />
      <path d="M169.54,299.9a245.23,245.23 0 0,1 -72.97,35.6" />
      <path d="M232.64,194.74a101.25,101.25 0 0,1 -13.66,50.79" />
      <path d="M218.98,143.95a101.25,101.25 0 0,1 13.66,50.79" />
      <path d="M165.17,91.38a20,20 0 0,1 12.57,4.44" />
      <path d="M177.74,95.82a174.2,174.2 0 0,1 41.24,48.13" />
      <path d="M165.17,91.38a20,20 0 0,1 12.57,4.44" />
      <path d="M43.06,39.48a10.06,10.06 0 0,1 -0.82,19.49" />
      <path d="M43.06,39.47a258.71,258.71 0 0,1 -34.21,-5.14" />
      <path d="M14.41,66.74a172.58,172.58 0 0,1 27.83,-7.78" />
      <path d="M-169.54,299.9a174.2,174.2 0 0,1 -49.44,-54.36" />
      <path d="M-96.57,335.5a245.23,245.23 0 0,1 -72.97,-35.6" />
      <path d="M0,349.48a340.39,340.39 0 0,1 -96.57,-13.98" />
      <path d="M-165.17,91.38l130.73,0" />
      <path d="M-177.74,95.82a20,20 0 0,1 12.57,-4.44" />
      <path d="M-218.98,143.95a174.2,174.2 0 0,1 41.24,-48.13" />
      <path d="M-232.64,194.74a101.25,101.25 0 0,1 13.66,-50.79" />
      <path d="M-218.98,245.53a101.25,101.25 0 0,1 -13.66,-50.79" />
      <path d="M-16.69,48.49a16.69,16.69 0 0,1 33.38,0" />
      <path d="M-8.85,34.33a258.71,258.71 0 0,1 -34.21,5.14" />
      <path d="M-16.18,91.38l5.23,0" />
      <path d="M9.59,107.6a25.04,25.04 0 1,1 -19.18,0" />
      <path d="M16.69,58.32l0,-9.84" />
      <path d="M-16.69,58.32l0,-9.84" />
      <path d="M-26.82,97.74a3.37,3.37 0 0,1 -5.15,-4.05" />
      <path d="M-22.1,77.88a169.65,169.65 0 0,1 -10.18,16.35" />
      <path d="M-13.78,84.41a10.6,10.6 0 0,1 -8.32,-6.54" />
      <path d="M-27.27,98.18a169.65,169.65 0 0,1 13.49,-13.76" />
      <circle r="16.692" cy="58.32" />
      <path d="M-42.24,58.96a172.58,172.58 0 0,1 22.78,5.99" />
      <path d="M-11.46,86.91a372.22,372.22 0 0,1 2.26,28.25" />
      <path d="M-42.24,58.97a10.06,10.06 0 0,1 -0.82,-19.49" />
      <path d="M9.2,115.16a372.22,372.22 0 0,1 5.21,-48.41" />
      <path d="M9.2,115.16a9.9,9.9 0 0,1 -18.4,0" />
      <path d="M-16.69,58.46a166.25,166.25 0 0,1 -18.37,33.81" />
      <path d="M-24.71,100.41a6.77,6.77 0 0,1 -10.36,-8.14" />
      <path d="M-24.71,100.42a166.25,166.25 0 0,1 28.52,-25.84" />
      <path d="M96.57,335.5a340.39,340.39 0 0,1 -96.57,13.98" />
      <path d="M10.96,91.38l154.21,0" />
      <path d="M253.58,265.6a141.25,141.25 0 0,0 19.06,-70.86m-79.85,137.71a214.2,214.2 0 0,0 60.8,-66.85m-145.66,108.25a285.23,285.23 0 0,0 84.86,-41.41m-192.78,57.04a380.39,380.39 0 0,0 107.92,-15.63m-215.84,0a380.39,380.39 0 0,0 107.92,15.63m-192.78,-57.04a285.23,285.23 0 0,0 84.86,41.41m-145.66,-108.25a214.2,214.2 0 0,0 60.8,66.85m-79.85,-137.71a141.25,141.25 0 0,0 19.06,70.86m0,-141.71a141.25,141.25 0 0,0 -19.06,70.86m79.85,-137.7a214.2,214.2 0 0,0 -60.8,66.85m145.66,-108.25a285.23,285.23 0 0,0 -84.86,41.41m192.78,-57.05a380.39,380.39 0 0,0 -107.92,15.63m215.84,0a380.39,380.39 0 0,0 -107.92,-15.63m192.78,57.05a285.23,285.23 0 0,0 -84.86,-41.41m145.66,108.25a214.2,214.2 0 0,0 -60.8,-66.85m79.85,137.7a141.25,141.25 0 0,0 -19.06,-70.86" class="cnc-5" />
    </symbol>
    <symbol id="$lvtry$00000200" overflow="visible" class="i0">
      <path d="M139.78,469.66l-279.57,0" class="cnc-5" />
      <path d="M99.78,0l-199.57,0m0,0a40,40 0 0,0 -40,40m0,0l0,439.66m0,0a110,110 0 0,0 110,110m0,0l59.57,0m0,0a110,110 0 0,0 110,-110m0,0l0,-439.66m0,0a40,40 0 0,0 -40,-40" class="cnc-5" />
      <path d="M99.78,30a10,10 0 0,1 10,10" />
      <path d="M-109.78,40a10,10 0 0,1 10,-10" />
      <path d="M99.78,30l-199.57,0" />
      <circle r="20" cy="358.61" />
      <path d="M109.78,469.66l0,-429.66" />
      <path d="M-109.78,40l0,429.66" />
    </symbol>
    <symbol id="$TCHSYS$APDOOR2D" overflow="visible" class="i0">
      <path d="M0.5,0l-0.5,-0.87" />
      <path d="M-0.5,0a1,1 0 0,1 0.5,-0.87" />
    </symbol>
    <symbol id="$lvtry$00000188" overflow="visible" class="i0">
      <path d="M262.08,174.72a74.88,74.88 0 0,0 -74.88,-74.88" class="cnc-6" />
      <path d="M-262.08,0a37.44,37.44 0 0,0 -37.44,37.44l0,474.24a37.44,37.44 0 0,0 37.44,37.44l524.16,0a37.44,37.44 0 0,0 37.44,-37.44l0,-474.24a37.44,37.44 0 0,0 -37.44,-37.44l-524.16,0" class="cnc-6" />
      <path d="M31.2,99.84l156,0" />
      <circle r="24.96" cx="-80.35" cy="62.4" />
      <path d="M-38.06,49.92l76.12,0" />
      <path d="M-41.02,53.41a3,3 0 0,1 2.96,-3.49" />
      <path d="M38.06,49.92a3,3 0 0,1 2.96,3.49" />
      <circle r="19.96" cx="-80.35" cy="62.4" />
      <circle r="19.96" cx="80.35" cy="62.4" />
      <circle r="24.96" cx="80.35" cy="62.4" />
      <circle r="37.44" cy="299.52" />
      <path d="M-12.48,224.64l24.96,0" />
      <path d="M262.08,436.8a74.88,74.88 0 0,1 -74.88,74.88" />
      <path d="M262.08,174.72l0,262.08" />
      <path d="M-41.02,53.41l28.54,171.23" />
      <path d="M12.48,224.64l28.54,-171.23" />
      <path d="M-262.08,174.72a74.88,74.88 0 0,1 74.88,-74.88" />
      <path d="M-187.2,511.68a74.88,74.88 0 0,1 -74.88,-74.88" />
      <path d="M-262.08,436.8l0,-262.08" />
      <path d="M187.2,511.68l-374.4,0" />
      <path d="M-187.2,99.84l156,0" />
    </symbol>
    <symbol id="$lvtry$00000223" overflow="visible" class="i0">
      <path d="M-205,190.69l0,-190.69l410,0l0,190.69m0,0a203.43,203.43 0 0,0 -154.23,132.77m-50.77,36.19a54,54 0 0,0 50.77,-36.18m-101.53,0a54,54 0 0,0 50.77,36.18m-50.77,-36.19a203.43,203.43 0 0,0 -154.23,-132.77" class="cnc-5" />
      <path d="M-155.89,184.28a233.43,233.43 0 0,1 133.44,139.64" />
      <path d="M-156.25,165.88a395,395 0 0,1 317.79,-2.15" />
      <path d="M-155.89,184.29a10,10 0 0,1 -0.36,-18.41" />
      <path d="M22.45,323.92a233.43,233.43 0 0,1 138.63,-141.65" />
      <path d="M22.45,323.92a24,24 0 0,1 -22.45,16.08" />
      <path d="M0,340a24,24 0 0,1 -22.45,-16.08" />
      <circle r="20" cy="241.62" />
      <path d="M161.54,163.73a10,10 0 0,1 -0.46,18.55" />
      <circle r="20" cx="-0.03" cy="60.43" />
    </symbol>
    <symbol id="$WINLIB2D$00000001_1500x200" overflow="visible" class="i0">
      <path d="M750,100l0,-200" />
      <path d="M-750,-100l0,200" />
      <path d="M750,-33.33l-1500,0" />
      <path d="M750,33.33l-1500,0" />
      <path d="M-750,100l1500,0" />
      <path d="M-750,-100l1500,0" />
    </symbol>
    <symbol id="$WINLIB2D$00000001_1490o9x300" overflow="visible" class="i0">
      <path d="M745.47,150l0,-300" />
      <path d="M-745.46,-150l0,300" />
      <path d="M745.47,-50l-1490.93,0" />
      <path d="M745.47,50l-1490.93,0" />
      <path d="M-745.46,150l1490.93,0" />
      <path d="M-745.46,-150l1490.93,0" />
    </symbol>
    <symbol id="$WINLIB2D$00000001_1313o1x300" overflow="visible" class="i0">
      <path d="M656.56,150l0,-300" />
      <path d="M-656.55,-150l0,300" />
      <path d="M656.56,-50l-1313.11,0" />
      <path d="M656.56,50l-1313.11,0" />
      <path d="M-656.55,150l1313.11,0" />
      <path d="M-656.55,-150l1313.11,0" />
    </symbol>
  </defs>
  <g id="viewer">
    <g id="mirror" transform="scale(1, 1)" stroke-width="0.09%">
      <g id="background" fill="none">
        <g id="layer-bady-fills" class="cnc-0">
          <path d="M216213.23,183471.53l1523.21,0l0,1716.73l-1523.21,0z" />
          <path d="M217818.03,183769.43l266.68,0l0,1048.11l-266.68,0z" />
          <path d="M216213.23,181371.53l1523.21,0l0,1716.73l-1523.21,0z" />
          <path d="M217818.03,181669.43l266.68,0l0,1048.11l-266.68,0z" />
          <path d="M220200.82,183471.53l-1366.5,0l0,1716.73l1366.5,0z" class="cnc-1" />
          <path d="M218752.74,183769.43l-266.68,0l0,1048.11l266.68,0z" class="cnc-1" />
          <path d="M217160.88,187482.14l-1200.5,0l0,600l1200.5,0z" />
          <path d="M217160.88,185532.14l-1200.5,0l0,600l1200.5,0z" />
        </g>
        <g id="layer-RM-fills" class="rm">
          <path d="M207660.38,205082.14l0,850l4900,0l0,-250l-300,0l0,-600z" />
          <path d="M218410.38,181282.14l1950,0l0,1900l-1950,0z" />
          <path d="M216060.38,181282.14l1950,0l0,1900l-1950,0z" />
          <path d="M216060.38,183382.14l1950,0l0,1900l-1950,0z" />
          <path d="M218410.38,183382.14l1950,0l0,1900l-1950,0z" />
        </g>
        <g id="layer-bady" class="cnc-2">
          <path d="M215538.91,183182.14l5461.05,0" />
          <path d="M217736.44,183471.53l-1523.21,1716.73" />
          <path d="M216213.23,183471.53l1523.21,1716.73" />
          <path d="M217736.44,181371.53l-1523.21,1716.73" />
          <path d="M216213.23,181371.53l1523.21,1716.73" />
          <path d="M218834.33,183471.53l1366.5,1716.73" class="cnc-3" />
          <path d="M220200.82,183471.53l-1366.5,1716.73" class="cnc-3" />
          <path d="M220200.82,183471.53l0,1716.73" class="cnc-3" />
          <path d="M212260.38,205182.14l-3689.4,173.02l-913,676.98" />
          <path d="M215889.15,187775.74a20,20 0 0,0 -37.55,-13.79a20,20 0 0,0 37.55,13.79" class="cnc-4" />
          <use xlink:href="#_FZH" x="265.825" y="246.728" transform="scale(800,800)" stroke-width="0.0001%">.</use>
          <use xlink:href="#_FZH" x="265.825" y="236.728" transform="scale(800,800)" stroke-width="0.0001%">.</use>
          <use xlink:href="#_FZH" x="265.825" y="256.728" transform="scale(800,800)" stroke-width="0.0001%">.</use>
          <use xlink:href="#_FZH" x="265.825" y="266.728" transform="scale(800,800)" stroke-width="0.0001%">.</use>
          <use xlink:href="#_FZH" x="265.825" y="226.728" transform="scale(800,800)" stroke-width="0.0001%">.</use>
          <use xlink:href="#_FZH" x="275.95" y="266.728" transform="scale(800,800)" stroke-width="0.0001%">.</use>
          <use xlink:href="#_FZH" x="275.95" y="256.728" transform="scale(800,800)" stroke-width="0.0001%">.</use>
          <use xlink:href="#_FZH" x="275.95" y="246.728" transform="scale(800,800)" stroke-width="0.0001%">.</use>
          <use xlink:href="#_FZH" x="275.95" y="236.728" transform="scale(800,800)" stroke-width="0.0001%">.</use>
          <use xlink:href="#_FZH" x="275.95" y="226.728" transform="scale(800,800)" stroke-width="0.0001%">.</use>
          <use xlink:href="#_FZH" x="286.075" y="226.728" transform="scale(800,800)" stroke-width="0.0001%">.</use>
          <use xlink:href="#_FZH" x="286.075" y="236.728" transform="scale(800,800)" stroke-width="0.0001%">.</use>
          <use xlink:href="#_FZH" x="286.075" y="246.728" transform="scale(800,800)" stroke-width="0.0001%">.</use>
          <use xlink:href="#_FZH" x="286.075" y="256.728" transform="scale(800,800)" stroke-width="0.0001%">.</use>
          <use xlink:href="#_FZH" x="286.075" y="266.728" transform="scale(800,800)" stroke-width="0.0001%">.</use>
          <use xlink:href="#_FZH" x="255.7" y="246.728" transform="scale(800,800)" stroke-width="0.0001%">.</use>
          <use xlink:href="#_FZH" x="255.7" y="236.728" transform="scale(800,800)" stroke-width="0.0001%">.</use>
          <use xlink:href="#_FZH" x="255.7" y="256.728" transform="scale(800,800)" stroke-width="0.0001%">.</use>
          <use xlink:href="#_FZH" x="255.7" y="266.728" transform="scale(800,800)" stroke-width="0.0001%">.</use>
          <use xlink:href="#_FZH" x="255.7" y="226.728" transform="scale(800,800)" stroke-width="0.0001%">.</use>
          <use xlink:href="#_FZH" x="290.7" y="246.728" transform="scale(800,800)" stroke-width="0.0001%">.</use>
          <use xlink:href="#_FZH" x="290.7" y="256.728" transform="scale(800,800)" stroke-width="0.0001%">.</use>
          <use xlink:href="#_FZH" x="290.7" y="266.728" transform="scale(800,800)" stroke-width="0.0001%">.</use>
          <path d="M228460.38,180982.14l-5500,0" />
          <path d="M222960.38,180982.14l0,300" />
          <path d="M222960.38,181282.14l5500,0" />
          <path d="M221160.38,181282.14l300,0" />
          <path d="M221460.38,181282.14l0,-300" />
          <path d="M221460.38,180982.14l-300,0" />
          <path d="M220360.38,181282.14l-1950,0" />
          <path d="M220360.38,180982.14l-2200,0" />
          <path d="M212260.38,181282.14l-7300,0" />
          <path d="M212260.38,180982.14l-7300,0" />
          <path d="M229146.36,181782.14l156.69,643.7" />
          <path d="M229303.05,182425.84l291.49,-70.95" />
          <path d="M229594.54,182354.89l-334.16,-1372.75" />
          <path d="M232960.38,196182.14l-600.43,-2466.62" />
          <path d="M232359.96,193715.52l-291.49,70.95" />
          <path d="M232068.47,193786.47l591.92,2431.66" />
          <path d="M229817.47,184539.13l195.13,801.62" />
          <path d="M230012.6,185340.75l291.49,-70.95" />
          <path d="M230304.09,185269.8l-195.13,-801.62" />
          <path d="M230108.96,184468.18l-291.49,70.95" />
          <path d="M230527.02,187454.04l430.3,1767.72" />
          <path d="M230957.32,189221.77l291.49,-70.95" />
          <path d="M231248.81,189150.81l-430.3,-1767.72" />
          <path d="M230818.51,187383.09l-291.49,70.95" />
          <path d="M231267.89,190497.63l447.95,1840.22" />
          <path d="M231715.84,192337.84l291.49,-70.95" />
          <path d="M232007.33,192266.89l-447.95,-1840.22" />
          <path d="M231559.38,190426.67l-291.49,70.95" />
          <use xlink:href="#$WINLIB2D$00000001_2175x300" x="229706.01" y="183447.01" transform="scale(-1,-1) translate(-459412.02,-366894.02) rotate(-283.68,229706.01,183447.01)">.<g class="blkclass0"><text transform="rotate(-283.68 171.44,-463.7) translate(171.44,-463.7)" font-size="386.75">C2121</text></g></use>
          <path d="M232960.38,196182.14l0,800" />
          <path d="M232660.38,196218.13l0,764.01" />
          <path d="M232660.38,197782.14l0,800" />
          <path d="M232660.38,198582.14l300,0" />
          <path d="M232960.38,198582.14l0,-800" />
          <path d="M232960.38,204982.14l0,-800" />
          <path d="M232960.38,204182.14l-300,0" />
          <path d="M232660.38,204182.14l0,800" />
          <path d="M232660.38,200382.14l0,2000" />
          <path d="M232660.38,202382.14l300,0" />
          <path d="M232960.38,202382.14l0,-2000" />
          <path d="M232960.38,200382.14l-300,0" />
          <path d="M232660.38,205782.14l0,800" />
          <path d="M232660.38,206582.14l300,0" />
          <path d="M232960.38,206582.14l0,-800" />
          <path d="M232960.38,212982.14l0,-800" />
          <path d="M232960.38,212182.14l-300,0" />
          <path d="M232660.38,212182.14l0,800" />
          <path d="M232660.38,208382.14l0,2000" />
          <path d="M232660.38,210382.14l300,0" />
          <path d="M232960.38,210382.14l0,-2000" />
          <path d="M232960.38,208382.14l-300,0" />
          <use xlink:href="#$WINLIB2D$00000001_1800x300" x="232810.38" y="211282.14" transform="scale(-1,1) translate(-465620.76,0) rotate(-90,232810.38,211282.14)">.<g class="blkclass0"><text transform="rotate(-90 -276.25,435) translate(-276.25,435)" font-size="386.75">C1815</text></g></use>
          <path d="M204460.38,212982.14l0,-800" />
          <path d="M204460.38,212182.14l-300,0" />
          <path d="M204160.38,212182.14l0,800" />
          <path d="M204160.38,205782.14l0,800" />
          <path d="M204160.38,206582.14l300,0" />
          <path d="M204460.38,206582.14l0,-800" />
          <path d="M204460.38,210382.14l0,-2000" />
          <path d="M204460.38,208382.14l-300,0" />
          <path d="M204160.38,208382.14l0,2000" />
          <path d="M204160.38,210382.14l300,0" />
          <use xlink:href="#$WINLIB2D$00000001_1800x300" x="204310.38" y="211282.14" transform="scale(-1,-1) translate(-408620.76,-422564.28) rotate(-90,204310.38,211282.14)">.<g class="blkclass0"><text transform="rotate(-90 605.45,455) translate(605.45,455)" font-size="386.75">C1827</text></g></use>
          <use xlink:href="#$WINLIB2D$00000001_7200x300" x="204310.38" y="201382.14" transform="scale(-1,1) translate(-408620.76,0) rotate(-270,204310.38,201382.14)">.<g class="blkclass0"><text transform="rotate(-90 573.75,527.1) translate(573.75,527.1)" font-size="386.75">C7221</text></g></use>
          <use xlink:href="#$WINLIB2D$00000001_7200x300" x="204310.38" y="193382.14" transform="scale(-1,1) translate(-408620.76,0) rotate(-270,204310.38,193382.14)">.<g class="blkclass0"><text transform="rotate(-90 573.75,469.72) translate(573.75,469.72)" font-size="386.75">C7221</text></g></use>
          <path d="M204960.38,213482.14l7300,0" />
          <path d="M204960.38,213782.14l7300,0" />
          <path d="M213060.38,213782.14l499.58,0" />
          <path d="M213559.97,213782.14l0,-300" />
          <path d="M213559.97,213482.14l-499.58,0" />
          <path d="M215870.38,213482.14l-810.42,0" />
          <path d="M215059.97,213482.14l0,300" />
          <path d="M215059.97,213782.14l810.42,0" />
          <path d="M220360.38,181782.14l0,100" />
          <path d="M220360.38,181882.14l250,0" />
          <path d="M220610.38,181882.14l0,-100" />
          <path d="M220610.38,183182.14l0,-400" />
          <path d="M220610.38,182782.14l-250,0" />
          <path d="M220360.38,182782.14l0,400" />
          <use xlink:href="#$DorLib2D$00000228" x="244.984" y="202.591" transform="scale(900,900) scale(1,-1) translate(0,-405.18) rotate(-90,244.98,202.59)" stroke-width="0.0001%">.<g class="blkclass0"><text transform="rotate(-90 548.75,445) translate(548.75,445)" font-size="386.75">M0921</text></g></use>
          <path d="M212260.38,204982.14l-1516.08,0" />
          <path d="M210744.31,204982.14l0,200" />
          <path d="M210744.31,205182.14l1516.08,0" />
          <path d="M207660.38,205182.14l1583.92,0" />
          <path d="M209244.31,205182.14l0,-200" />
          <path d="M209244.31,204982.14l-1583.92,0" />
          <path d="M207660.38,205182.14l0,850" />
          <path d="M207460.38,205182.14l0,1050" />
          <path d="M212560.38,207595.66l0,-1363.52" />
          <path d="M212760.38,207595.66l0,-1563.52" />
          <path d="M212560.38,207595.66l200,0" />
          <path d="M204460.38,188982.14l0,-800" />
          <path d="M204460.38,188182.14l-300,0" />
          <path d="M204160.38,188182.14l0,800" />
          <path d="M204160.38,181782.14l0,800" />
          <path d="M204160.38,182582.14l300,0" />
          <path d="M204460.38,182582.14l0,-800" />
          <path d="M204460.38,186382.14l0,-2000" />
          <path d="M204460.38,184382.14l-300,0" />
          <path d="M204160.38,184382.14l0,2000" />
          <path d="M204160.38,186382.14l300,0" />
          <use xlink:href="#$WINLIB2D$00000001_1800x300" x="204310.38" y="183482.14" transform="scale(-1,1) translate(-408620.76,0) rotate(-270,204310.38,183482.14)">.<g class="blkclass0"><text transform="rotate(-90 573.75,455) translate(573.75,455)" font-size="386.75">C1827</text></g></use>
          <use xlink:href="#$WINLIB2D$00000001_1800x300" x="204310.38" y="187282.14" transform="scale(-1,1) translate(-408620.76,0) rotate(-270,204310.38,187282.14)">.<g class="blkclass0"><text transform="rotate(-90 573.75,435) translate(573.75,435)" font-size="386.75">C1818</text></g></use>
          <path d="M216053.67,180982.14l-893.28,0" />
          <path d="M215160.38,180982.14l0,300" />
          <path d="M215160.38,181282.14l650,0" />
          <path d="M213060.38,181282.14l600,0" />
          <path d="M213660.38,181282.14l0,-300" />
          <path d="M213660.38,180982.14l-600,0" />
          <path d="M215810.38,181282.14l0,400" />
          <path d="M215810.38,181682.14l250,0" />
          <path d="M216060.38,181682.14l0,-400" />
          <path d="M216060.38,183182.14l0,-400" />
          <path d="M216060.38,182782.14l-250,0" />
          <path d="M215810.38,182782.14l0,400" />
          <use xlink:href="#$DorLib2D$00000127_1100x250" x="215935.38" y="182232.14" transform="rotate(-270,215935.38,182232.14)">.</use>
          <path d="M216060.38,185282.14l2100,0" />
          <path d="M215810.38,185532.14l2600,0" />
          <path d="M218160.38,181282.14l-2100,0" />
          <path d="M218160.38,180982.14l-2106.72,0" />
          <path d="M218160.38,185282.14l0,-1900" />
          <path d="M218410.38,185532.14l0,-2350" />
          <path d="M215810.38,183182.14l0,600" />
          <path d="M215810.38,183782.14l250,0" />
          <path d="M216060.38,183782.14l0,-400" />
          <path d="M216060.38,185282.14l0,-400" />
          <path d="M216060.38,184882.14l-250,0" />
          <path d="M215810.38,184882.14l0,650" />
          <use xlink:href="#$DorLib2D$00000127_1100x250" x="215935.38" y="184332.14" transform="rotate(-270,215935.38,184332.14)">.</use>
          <path d="M218160.38,183182.14l0,-1900" />
          <path d="M218410.38,183182.14l0,-1900" />
          <path d="M216060.38,183182.14l2100,0" />
          <path d="M216060.38,183382.14l2100,0" />
          <path d="M218410.38,185282.14l1950,0" />
          <path d="M218410.38,185532.14l1950,0" />
          <path d="M218410.38,185282.14l0,250" />
          <path d="M218410.38,183182.14l1950,0" />
          <path d="M218410.38,183382.14l1950,0" />
          <path d="M218410.38,183182.14l0,200" />
          <path d="M212760.38,184882.14l0,-1300" />
          <path d="M212760.38,183582.14l-200,0" />
          <path d="M212560.38,183582.14l0,1300" />
          <path d="M212560.38,181782.14l0,300" />
          <path d="M212560.38,182082.14l200,0" />
          <path d="M212760.38,182082.14l0,-300" />
          <use xlink:href="#$DorLib2D$00000231" x="141.774" y="121.888" transform="scale(1500,1500) rotate(-90,141.77,121.89)" stroke-width="0.0001%">.</use>
          <path d="M204460.38,184882.14l8100,0" />
          <path d="M204460.38,185082.14l8100,0" />
          <path d="M204460.38,184882.14l0,200" />
          <use xlink:href="#$lvtry$00000171" x="232435" y="214019.71">.</use>
          <path d="M212760.38,188982.14l0,-600" />
          <path d="M212760.38,188382.14l-200,0" />
          <path d="M212560.38,188382.14l0,600" />
          <path d="M212560.38,185282.14l0,1600" />
          <path d="M212560.38,186882.14l200,0" />
          <path d="M212760.38,186882.14l0,-1350" />
          <path d="M212760.38,185532.14l200,0" />
          <path d="M212960.38,185532.14l0,-250" />
          <path d="M212960.38,185282.14l-200,0" />
          <path d="M215810.38,185282.14l-1350,0" />
          <path d="M214460.38,185282.14l0,250" />
          <path d="M214460.38,185532.14l1350,0" />
          <path d="M215810.38,185532.14l0,-250" />
          <path d="M229260.38,213482.14l2900,0" />
          <path d="M229260.38,213782.14l2900,0" />
          <path d="M207460.38,205182.14l-2500,0" />
          <path d="M207660.38,204982.14l-2700,0" />
          <path d="M221160.38,213482.14l7300,0" />
          <path d="M221160.38,213782.14l7300,0" />
          <path d="M212560.38,212982.14l0,-3100" />
          <path d="M212760.38,212982.14l0,-3200" />
          <path d="M212560.38,209682.14l-6400,0" />
          <path d="M206160.38,209682.14l0,200" />
          <path d="M206160.38,209882.14l6400,0" />
          <path d="M204460.38,209882.14l200,0" />
          <path d="M204660.38,209882.14l0,-200" />
          <path d="M204660.38,209682.14l-200,0" />
          <path d="M204460.38,209682.14l0,200" />
          <path d="M207460.38,207598.16l0,-1366.02" />
          <path d="M207660.38,207598.16l0,-1366.02" />
          <path d="M207460.38,207598.16l200,0" />
          <path d="M207460.38,206232.14l200,0" />
          <use xlink:href="#$DorLib2D$00000231" x="136.94" y="139.855" transform="scale(1500,1500) scale(-1,1) translate(-273.88,0) rotate(-180,136.94,139.85)" stroke-width="0.0001%">.</use>
          <path d="M220610.38,185282.14l0,3700" />
          <path d="M220360.38,185532.14l0,3450" />
          <path d="M220360.38,183382.14l0,400" />
          <path d="M220360.38,183782.14l250,0" />
          <path d="M220610.38,183782.14l0,-600" />
          <path d="M220610.38,185282.14l0,-400" />
          <path d="M220610.38,184882.14l-250,0" />
          <path d="M220360.38,184882.14l0,400" />
          <use xlink:href="#$DorLib2D$00000127_1100x250" x="220485.38" y="184332.14" transform="scale(1,-1) translate(0,-368664.28) rotate(-90,220485.38,184332.14)">.</use>
          <use xlink:href="#$WINLIB2D$00000001_2175x300" x="230415.56" y="186361.92" transform="scale(-1,-1) translate(-460831.12,-372723.84) rotate(-283.68,230415.56,186361.92)">.<g class="blkclass0"><text transform="rotate(-283.68 171.44,-463.7) translate(171.44,-463.7)" font-size="386.75">C2121</text></g></use>
          <use xlink:href="#$WINLIB2D$00000001_1800x300" x="204310.38" y="207482.14" transform="scale(-1,-1) translate(-408620.76,-414964.28) rotate(-90,204310.38,207482.14)">.<g class="blkclass0"><text transform="rotate(-90 549.61,410.87) translate(549.61,410.87)" font-size="386.75">C1818</text></g></use>
          <use xlink:href="#$DorLib2D$00000231" x="141.774" y="125.088" transform="scale(1500,1500) rotate(-90,141.77,125.09)" stroke-width="0.0001%">.</use>
          <path d="M212560.38,185282.14l0,-200" />
          <path d="M212760.38,185282.14l0,-400" />
          <use xlink:href="#$DorLib2D$00000231" x="142.474" y="123.605" transform="scale(1500,1500) scale(-1,1) translate(-284.95,0)" stroke-width="0.0001%">.</use>
          <use xlink:href="#$WINLIB2D$00000001_1500x300" x="222210.38" y="181132.14" transform="scale(-1,1) translate(-444420.76,0) rotate(-180,222210.38,181132.14)">.<g class="blkclass0"><text transform="translate(-410,-276.25)" font-size="386.75">C1521</text></g></use>
          <use xlink:href="#$WINLIB2D$00000001_1500x300" x="214410.38" y="181132.14" transform="scale(-1,1) translate(-428820.76,0) rotate(-180,214410.38,181132.14)">.<g class="blkclass0"><text transform="translate(-410,-276.25)" font-size="386.75">C1521</text></g></use>
          <path d="M212720.38,196982.14l0,-5700" />
          <path d="M212720.38,191282.14l-120,0" />
          <path d="M212600.38,191282.14l0,5700" />
          <path d="M221160.38,205322.14l7300,0" />
          <path d="M221160.38,205442.14l7300,0" />
          <path d="M229260.38,205322.14l2900,0" />
          <path d="M229260.38,205442.14l2900,0" />
          <path d="M221160.38,197322.14l7300,0" />
          <path d="M221160.38,197442.14l7300,0" />
          <path d="M229260.38,197322.14l2900,0" />
          <path d="M229260.38,197442.14l2900,0" />
          <use xlink:href="#$DorLib2D$00000116" x="143.924" y="137.561" transform="scale(1500,1500) scale(-1,-1) translate(-287.85,-275.12) rotate(-90,143.92,137.56)" stroke-width="0.0001%">.<g class="blkclass0"><text transform="rotate(-90 -286.25,425) translate(-286.25,425)" font-size="386.75">M1521</text></g></use>
          <use xlink:href="#$DorLib2D$00000116" x="141.774" y="127.021" transform="scale(1500,1500) scale(-1,1) translate(-283.55,0) rotate(-270,141.77,127.02)" stroke-width="0.0001%">.<g class="blkclass0"><text transform="rotate(-90 483.75,425) translate(483.75,425)" font-size="386.75">M1521</text></g></use>
          <use xlink:href="#$DorLib2D$00000116" x="141.774" y="136.155" transform="scale(1500,1500) scale(-1,1) translate(-283.55,0) rotate(-270,141.77,136.15)" stroke-width="0.0001%">.<g class="blkclass0"><text transform="rotate(-90 483.75,425) translate(483.75,425)" font-size="386.75">M1521</text></g></use>
          <path d="M215960.38,213482.14l0,-150" />
          <path d="M215960.38,213332.14l-150,0" />
          <path d="M215810.38,213332.14l0,150" />
          <path d="M215810.38,205382.14l0,210" />
          <path d="M215810.38,205592.14l150,0" />
          <path d="M215960.38,205592.14l0,-150" />
          <path d="M215960.38,211832.14l0,-4740" />
          <path d="M215960.38,207092.14l-150,0" />
          <path d="M215810.38,207092.14l0,4740" />
          <path d="M215810.38,211832.14l150,0" />
          <path d="M215870.38,213482.14l4490,0" />
          <path d="M215870.38,213782.14l4490,0" />
          <use xlink:href="#$WINLIB2D$00000001_1500x300" x="214309.97" y="213632.14" transform="scale(1,-1) translate(0,-427264.28)">.<g class="blkclass0"><text transform="translate(-410,-176.25)" font-size="386.75">C1521</text></g></use>
          <path d="M215960.38,205322.14l4400,0" />
          <path d="M215960.38,205442.14l4400,0" />
          <path d="M215960.38,205322.14l0,-150" />
          <path d="M215960.38,205172.14l-150,0" />
          <path d="M215810.38,205172.14l0,210" />
          <path d="M215810.38,197382.14l0,210" />
          <path d="M215810.38,197592.14l150,0" />
          <path d="M215960.38,197592.14l0,-135" />
          <path d="M215960.38,203672.14l0,-4580" />
          <path d="M215960.38,199092.14l-150,0" />
          <path d="M215810.38,199092.14l0,4580" />
          <path d="M215810.38,203672.14l150,0" />
          <use xlink:href="#$DorLib2D$00000116" x="143.924" y="136.281" transform="scale(1500,1500) scale(1,-1) translate(0,-272.56) rotate(-270,143.92,136.28)" stroke-width="0.0001%">.<g class="blkclass0"><text transform="rotate(-90 -286.25,425) translate(-286.25,425)" font-size="386.75">M1521</text></g></use>
          <use xlink:href="#$DorLib2D$00000116" x="143.924" y="132.228" transform="scale(1500,1500) scale(1,-1) translate(0,-264.46) rotate(-270,143.92,132.23)" stroke-width="0.0001%">.<g class="blkclass0"><text transform="rotate(-90 -286.25,425) translate(-286.25,425)" font-size="386.75">M1521</text></g></use>
          <use xlink:href="#$DorLib2D$00000116" x="143.924" y="130.948" transform="scale(1500,1500) scale(-1,-1) translate(-287.85,-261.9) rotate(-90,143.92,130.95)" stroke-width="0.0001%">.<g class="blkclass0"><text transform="rotate(-90 -286.25,425) translate(-286.25,425)" font-size="386.75">M1521</text></g></use>
          <use xlink:href="#$DorLib2D$00000116" x="143.924" y="127.088" transform="scale(1500,1500) scale(-1,-1) translate(-287.85,-254.18) rotate(-90,143.92,127.09)" stroke-width="0.0001%">.<g class="blkclass0"><text transform="rotate(-90 -263.43,425) translate(-263.43,425)" font-size="386.75">M1521</text></g></use>
          <use xlink:href="#$DorLib2D$00000116" x="143.924" y="141.721" transform="scale(1500,1500) scale(-1,-1) translate(-287.85,-283.44) rotate(-90,143.92,141.72)" stroke-width="0.0001%">.<g class="blkclass0"><text transform="rotate(-90 -286.25,425) translate(-286.25,425)" font-size="386.75">M1521</text></g></use>
          <use xlink:href="#$DorLib2D$00000116" x="141.774" y="132.355" transform="scale(1500,1500) scale(-1,1) translate(-283.55,0) rotate(-270,141.77,132.35)" stroke-width="0.0001%">.<g class="blkclass0"><text transform="rotate(-90 483.75,425) translate(483.75,425)" font-size="386.75">M1521</text></g></use>
          <path d="M207660.38,206032.14l4900,0" />
          <path d="M207460.38,206232.14l5100,0" />
          <use xlink:href="#$DorLib2D$00000231" x="139.996" y="136.721" transform="scale(1500,1500) scale(-1,-1) translate(-279.99,-273.44) rotate(-180,140,136.72)" stroke-width="0.0001%">.</use>
          <path d="M204960.38,196982.14l7300,0" />
          <path d="M204960.38,197102.14l7300,0" />
          <path d="M212720.38,203482.14l0,-4200" />
          <path d="M212720.38,199282.14l-120,0" />
          <path d="M212600.38,199282.14l0,4200" />
          <path d="M212600.38,203482.14l120,0" />
          <path d="M215960.38,197307.14l0,-135" />
          <path d="M215960.38,197172.14l-150,0" />
          <path d="M215810.38,197172.14l0,210" />
          <path d="M215810.38,189607.14l0,275.15" />
          <path d="M215810.38,189882.29l150,0" />
          <path d="M215960.38,189882.29l0,-200.15" />
          <path d="M215960.38,195672.14l0,-4289.85" />
          <path d="M215960.38,191382.29l-150,0" />
          <path d="M215810.38,191382.29l0,4289.85" />
          <path d="M215810.38,195672.14l150,0" />
          <path d="M215960.38,197307.14l4400,0" />
          <path d="M215960.38,197457.14l4400,0" />
          <path d="M215960.38,189532.14l4400,0" />
          <path d="M215960.38,189682.14l4400,0" />
          <use xlink:href="#$DorLib2D$00000228" x="239.873" y="209.925" transform="scale(900,900) scale(-1,-1) translate(-479.75,-419.85) rotate(-90,239.87,209.92)" stroke-width="0.0001%">.<g class="blkclass0"><text transform="rotate(-90 1089.58,445) translate(1089.58,445)" font-size="386.75">M0921</text></g></use>
          <path d="M215960.38,189532.14l0,-150" />
          <path d="M215960.38,189382.14l-150,0" />
          <path d="M215810.38,189382.14l0,225" />
          <path d="M215810.38,187407.14l0,1075" />
          <path d="M215810.38,188482.14l150,0" />
          <path d="M215960.38,188482.14l0,-1000" />
          <use xlink:href="#$DorLib2D$00000228" x="239.873" y="207.48" transform="scale(900,900) scale(-1,-1) translate(-479.75,-414.96) rotate(-90,239.87,207.48)" stroke-width="0.0001%">.<g class="blkclass0"><text transform="rotate(-90 1089.58,445) translate(1089.58,445)" font-size="386.75">M0921</text></g></use>
          <path d="M215960.38,187332.14l4400,0" />
          <path d="M215960.38,187482.14l4400,0" />
          <path d="M220360.38,187332.14l0,150" />
          <use xlink:href="#$lvtry$00000195" x="216560.63" y="187502.14" transform="rotate(-360,216560.63,187502.14)">.</use>
          <use xlink:href="#$lvtry$00000200" x="220160.38" y="185982.14" transform="rotate(-270,220160.38,185982.14)">.</use>
          <use xlink:href="#$lvtry$00000200" x="220160.38" y="186882.14" transform="rotate(-270,220160.38,186882.14)">.</use>
          <path d="M220360.38,186444.64l-1187.5,0" />
          <path d="M220360.38,186419.64l-1187.5,0" />
          <path d="M220360.38,186444.64l0,-25" />
          <path d="M219147.88,185532.14l0,150" />
          <path d="M219147.88,185682.14l25,0" />
          <path d="M219172.88,185682.14l0,-150" />
          <path d="M219172.88,185532.14l-25,0" />
          <path d="M219172.88,186419.64l0,-137.5" />
          <path d="M219172.88,186282.14l-25,0" />
          <path d="M219147.88,186282.14l0,150" />
          <use xlink:href="#$TCHSYS$APDOOR2D" x="365.267" y="309.97" transform="scale(600,600) scale(1,-1) translate(0,-619.94) rotate(-90,365.27,309.97)" stroke-width="0.0002%">.</use>
          <path d="M219147.88,186432.14l0,150" />
          <path d="M219147.88,186582.14l25,0" />
          <path d="M219172.88,186582.14l0,-137.5" />
          <path d="M219172.88,187332.14l0,-150" />
          <path d="M219172.88,187182.14l-25,0" />
          <path d="M219147.88,187182.14l0,150" />
          <path d="M219147.88,187332.14l25,0" />
          <use xlink:href="#$TCHSYS$APDOOR2D" x="365.267" y="311.47" transform="scale(600,600) scale(1,-1) translate(0,-622.94) rotate(-90,365.27,311.47)" stroke-width="0.0002%">.</use>
          <use xlink:href="#$lvtry$00000200" x="219910.38" y="187682.14">.</use>
          <use xlink:href="#$lvtry$00000200" x="219010.38" y="187682.14">.</use>
          <use xlink:href="#$lvtry$00000200" x="218110.38" y="187682.14">.</use>
          <path d="M219472.88,187482.14l0,1187.5" />
          <path d="M219447.88,187482.14l0,1187.5" />
          <path d="M219472.88,187482.14l-25,0" />
          <path d="M220360.38,188669.64l-150,0" />
          <path d="M220210.38,188669.64l0,25" />
          <path d="M220210.38,188694.64l150,0" />
          <path d="M220360.38,188694.64l0,-25" />
          <path d="M219460.38,188694.64l150,0" />
          <path d="M219610.38,188694.64l0,-25" />
          <path d="M219610.38,188669.64l-137.5,0" />
          <use xlink:href="#$TCHSYS$APDOOR2D" x="366.517" y="314.47" transform="scale(600,600) scale(-1,1) translate(-733.03,0) rotate(-180,366.52,314.47)" stroke-width="0.0002%">.</use>
          <path d="M218572.88,187482.14l0,1187.5" />
          <path d="M218547.88,187482.14l0,1187.5" />
          <path d="M218572.88,187482.14l-25,0" />
          <path d="M219447.88,188669.64l-137.5,0" />
          <path d="M219310.38,188669.64l0,25" />
          <path d="M219310.38,188694.64l150,0" />
          <path d="M218560.38,188694.64l150,0" />
          <path d="M218710.38,188694.64l0,-25" />
          <path d="M218710.38,188669.64l-137.5,0" />
          <use xlink:href="#$TCHSYS$APDOOR2D" x="365.017" y="314.47" transform="scale(600,600) scale(-1,1) translate(-730.03,0) rotate(-180,365.02,314.47)" stroke-width="0.0002%">.</use>
          <path d="M217672.88,187482.14l0,1187.5" />
          <path d="M217647.88,187482.14l0,1212.5" />
          <path d="M217672.88,187482.14l-25,0" />
          <path d="M218547.88,188669.64l-137.5,0" />
          <path d="M218410.38,188669.64l0,25" />
          <path d="M218410.38,188694.64l150,0" />
          <path d="M217647.88,188694.64l162.5,0" />
          <path d="M217810.38,188694.64l0,-25" />
          <path d="M217810.38,188669.64l-137.5,0" />
          <use xlink:href="#$TCHSYS$APDOOR2D" x="363.517" y="314.47" transform="scale(600,600) scale(-1,1) translate(-727.03,0) rotate(-180,363.52,314.47)" stroke-width="0.0002%">.</use>
          <use xlink:href="#$lvtry$00000188" x="268400.469" y="231459.432" transform="scale(0.81,0.81)" stroke-width="0.1111%">.</use>
          <use xlink:href="#$lvtry$00000195" x="216560.63" y="185552.14" transform="rotate(-360,216560.63,185552.14)">.</use>
          <use xlink:href="#$lvtry$00000223" x="217623.38" y="185532.14">.</use>
          <path d="M217185.88,185532.14l0,699.72" />
          <path d="M217160.88,185532.14l0,699.72" />
          <path d="M217185.88,185532.14l-25,0" />
          <path d="M217185.88,186231.86l-25,0" />
          <path d="M215960.38,187332.14l0,-150" />
          <path d="M215960.38,187182.14l-150,0" />
          <path d="M215810.38,187182.14l0,225" />
          <path d="M215810.38,185532.14l0,750" />
          <path d="M215810.38,186282.14l150,0" />
          <path d="M215960.38,186282.14l0,-750" />
          <path d="M215960.38,185532.14l-150,0" />
          <path d="M204460.49,207030.64l95.44,0" />
          <path d="M204555.92,207030.64l0,-200" />
          <path d="M204555.92,206830.64l-95.44,0" />
          <path d="M204460.49,206830.64l0,200" />
          <path d="M207459.99,206830.64l-2202.54,0" />
          <path d="M205257.45,206830.64l0,200" />
          <path d="M205257.45,207030.64l2202.54,0" />
          <path d="M207459.99,207030.64l0,-200" />
          <use xlink:href="#$DorLib2D$00000228" x="292.085" y="294.97" transform="scale(701.53,701.53) scale(-1,-1) translate(-584.17,-589.94)" stroke-width="0.0001%">.<g class="blkclass0"><text transform="translate(-445,-226.25)" font-size="386.75">M0921</text></g></use>
          <path d="M207660.38,207591.64l421.04,0" />
          <path d="M208081.42,207591.64l0,-200" />
          <path d="M208081.42,207391.64l-421.04,0" />
          <path d="M207660.38,207391.64l0,200" />
          <path d="M212560.38,207391.64l-1379.5,0" />
          <path d="M211180.88,207391.64l0,200" />
          <path d="M211180.88,207591.64l1379.5,0" />
          <path d="M212560.38,207591.64l0,-200" />
          <path d="M208782.95,207591.64l897.94,0" />
          <path d="M209680.88,207591.64l0,-200" />
          <path d="M209680.88,207391.64l-897.94,0" />
          <path d="M208782.95,207391.64l0,200" />
          <path d="M212560.38,206032.14l0,-250" />
          <path d="M212760.38,206032.14l0,-250" />
          <use xlink:href="#$DorLib2D$00000228" x="297.111" y="295.77" transform="scale(701.53,701.53) scale(-1,-1) translate(-594.22,-591.54)" stroke-width="0.0001%">.<g class="blkclass0"><text transform="translate(-445,-321.75)" font-size="386.75">M0921</text></g></use>
          <use xlink:href="#$WINLIB2D$00000001_1500x200" x="210430.88" y="207491.64" transform="scale(1,-1) translate(0,-414983.28)">.<g class="blkclass0"><text transform="translate(-435,-223.75)" font-size="386.75">C1510</text></g></use>
          <path d="M212760.38,209782.14l0,-399.58" />
          <path d="M212760.38,209382.56l-200,0" />
          <path d="M212560.38,209382.56l0,299.58" />
          <path d="M212560.38,206232.14l0,1650.42" />
          <path d="M212560.38,207882.56l200,0" />
          <path d="M212760.38,207882.56l0,-1650.42" />
          <path d="M212760.38,206232.14l-200,0" />
          <use xlink:href="#$DorLib2D$00000231" x="141.774" y="139.088" transform="scale(1500,1500) rotate(-90,141.77,139.09)" stroke-width="0.0001%">.<g class="blkclass0"><text transform="rotate(-90 473.75,425) translate(473.75,425)" font-size="386.75">M1521</text></g></use>
          <use xlink:href="#$WINLIB2D$00000001_1800x300" x="232810.38" y="207482.14" transform="scale(-1,1) translate(-465620.76,0) rotate(-90,232810.38,207482.14)">.<g class="blkclass0"><text transform="rotate(-90 -276.25,435) translate(-276.25,435)" font-size="386.75">C1815</text></g></use>
          <use xlink:href="#$WINLIB2D$00000001_1800x300" x="232810.38" y="203282.14" transform="scale(-1,1) translate(-465620.76,0) rotate(-90,232810.38,203282.14)">.<g class="blkclass0"><text transform="rotate(-90 -276.25,435) translate(-276.25,435)" font-size="386.75">C1815</text></g></use>
          <use xlink:href="#$WINLIB2D$00000001_1800x300" x="232810.38" y="199482.14" transform="scale(-1,1) translate(-465620.76,0) rotate(-90,232810.38,199482.14)">.<g class="blkclass0"><text transform="rotate(-90 -276.25,435) translate(-276.25,435)" font-size="386.75">C1815</text></g></use>
          <use xlink:href="#$WINLIB2D$00000001_1490o9x300" x="232037.9" y="193026.68" transform="scale(1,-1) translate(0,-386053.36) rotate(-76.32,232037.9,193026.68)">.<g class="blkclass0"><text transform="rotate(-283.68 -660.36,-286.96) translate(-660.36,-286.96)" font-size="386.75">C1515</text></g></use>
          <use xlink:href="#$WINLIB2D$00000001_1313o1x300" x="231258.35" y="189824.22" transform="scale(1,-1) translate(0,-379648.44) rotate(-76.32,231258.35,189824.22)">.<g class="blkclass0"><text transform="rotate(-283.68 -660.36,-286.96) translate(-660.36,-286.96)" font-size="386.75">C1515</text></g></use>
          <path d="M206260.38,210664.64l1950,0l300,0" />
          <path d="M206260.38,212349.64l5325,0l0,-1685l-2475,0l-300,0" />
          <path d="M206410.38,209882.14l1740.49,0" />
          <path d="M208266.34,209882.14l2344.04,0" />
          <path d="M206410.38,209882.14l0,1505" />
          <path d="M206710.38,209882.14l0,1505" />
          <path d="M207010.38,209882.14l0,1505" />
          <path d="M207310.38,209882.14l0,1505" />
          <path d="M207610.38,209882.14l0,1505" />
          <path d="M207910.38,209882.14l0,1505" />
          <path d="M208210.38,209985.22l0,1401.92" />
          <path d="M208510.38,209882.14l0,422.69" />
          <path d="M208510.38,210504.83l0,882.31" />
          <path d="M208810.38,209882.14l0,942.31" />
          <path d="M208810.38,211024.45l0,362.69" />
          <path d="M209110.38,209882.14l0,1461.92" />
          <path d="M209410.38,209882.14l0,1505" />
          <path d="M209710.38,209882.14l0,1505" />
          <path d="M210010.38,209882.14l0,1505" />
          <path d="M210310.38,209882.14l0,1505" />
          <path d="M210610.38,209882.14l0,1505" />
          <path d="M206410.38,211447.14l2644.04,0" />
          <path d="M209169.9,211447.14l1440.49,0" />
          <path d="M208266.34,209882.14l399.12,691.3" />
          <path d="M208150.87,209882.14l414.59,718.1" />
          <path d="M208565.47,210600.24l172.35,-46.18" />
          <path d="M208737.82,210554.05l-172.89,206.04" />
          <path d="M208564.92,210760.1l180.4,-48.34" />
          <path d="M208745.32,210711.76l424.57,735.38" />
          <path d="M208645.32,210738.56l409.1,708.58" />
          <path d="M210610.38,213132.14l-4200,0" />
          <path d="M210610.38,213132.14l0,-1505" />
          <path d="M210310.38,213132.14l0,-1505" />
          <path d="M210010.38,213132.14l0,-1505" />
          <path d="M209710.38,213132.14l0,-1505" />
          <path d="M209410.38,213132.14l0,-1505" />
          <path d="M209110.38,213132.14l0,-1505" />
          <path d="M208810.38,213132.14l0,-1505" />
          <path d="M208510.38,213132.14l0,-1505" />
          <path d="M208210.38,213132.14l0,-1505" />
          <path d="M207910.38,213132.14l0,-1505" />
          <path d="M207610.38,213132.14l0,-1505" />
          <path d="M207310.38,213132.14l0,-1505" />
          <path d="M207010.38,213132.14l0,-1505" />
          <path d="M206710.38,213132.14l0,-1505" />
          <path d="M206410.38,213132.14l0,-1505" />
          <path d="M210610.38,211567.14l-4200,0" />
          <path d="M206350.38,211627.14l0,-240" />
          <path d="M206350.38,211387.14l2669.4,0" />
          <path d="M209135.25,211387.14l1535.13,0" />
          <path d="M210670.38,211387.14l0,240" />
          <path d="M210670.38,211627.14l-4320,0" />
          <path d="M206410.38,211567.14l0,-120" />
          <path d="M206410.38,211447.14l2644.04,0" />
          <path d="M209169.9,211447.14l1440.49,0" />
          <path d="M210610.38,211447.14l0,120" />
          <path d="M210610.38,211567.14l-4200,0" />
          <path d="M210610.38,213132.14l1650,0" />
          <path d="M212560.38,212982.14l0,-3100" />
          <path d="M212560.38,209882.14l-1950,0" />
          <path d="M210610.38,209882.14l0,1505" />
          <path d="M210610.38,211627.14l0,1505" />
          <path d="M210610.38,211447.14l0,120" />
          <path d="M206410.38,211447.14l0,120" />
          <path d="M210760.38,182414.64l-1950,0l-300,0" />
          <path d="M210760.38,184099.64l-5325,0l0,-1685l2475,0l300,0" />
          <path d="M210610.38,181632.14l-2644.04,0" />
          <path d="M207850.87,181632.14l-1440.49,0" />
          <path d="M210610.38,183137.14l0,-1505" />
          <path d="M210310.38,183137.14l0,-1505" />
          <path d="M210010.38,183137.14l0,-1505" />
          <path d="M209710.38,183137.14l0,-1505" />
          <path d="M209410.38,183137.14l0,-1505" />
          <path d="M209110.38,183137.14l0,-1505" />
          <path d="M208810.38,183094.06l0,-1461.92" />
          <path d="M208510.38,183137.14l0,-362.69" />
          <path d="M208510.38,182574.45l0,-942.31" />
          <path d="M208210.38,183137.14l0,-882.31" />
          <path d="M208210.38,182054.83l0,-422.69" />
          <path d="M207910.38,183137.14l0,-1401.92" />
          <path d="M207610.38,183137.14l0,-1505" />
          <path d="M207310.38,183137.14l0,-1505" />
          <path d="M207010.38,183137.14l0,-1505" />
          <path d="M206710.38,183137.14l0,-1505" />
          <path d="M206410.38,183137.14l0,-1505" />
          <path d="M210610.38,183197.14l-1740.49,0" />
          <path d="M208754.43,183197.14l-2344.04,0" />
          <path d="M208754.43,183197.14l-399.12,-691.3" />
          <path d="M208869.9,183197.14l-414.59,-718.1" />
          <path d="M208455.3,182479.04l-172.35,46.18" />
          <path d="M208282.95,182525.23l172.89,-206.04" />
          <path d="M208455.84,182319.18l-180.4,48.34" />
          <path d="M208275.44,182367.52l-424.57,-735.38" />
          <path d="M208375.44,182340.72l-409.1,-708.58" />
          <path d="M206410.38,184882.14l4200,0" />
          <path d="M206410.38,183377.14l0,1505" />
          <path d="M206710.38,183377.14l0,1505" />
          <path d="M207010.38,183377.14l0,1505" />
          <path d="M207310.38,183377.14l0,1505" />
          <path d="M207610.38,183377.14l0,1505" />
          <path d="M207910.38,183377.14l0,1505" />
          <path d="M208210.38,183377.14l0,1505" />
          <path d="M208510.38,183377.14l0,1505" />
          <path d="M208810.38,183377.14l0,1505" />
          <path d="M209110.38,183377.14l0,1505" />
          <path d="M209410.38,183377.14l0,1505" />
          <path d="M209710.38,183377.14l0,1505" />
          <path d="M210010.38,183377.14l0,1505" />
          <path d="M210310.38,183377.14l0,1505" />
          <path d="M210610.38,183377.14l0,1505" />
          <path d="M206410.38,183317.14l4200,0" />
          <path d="M210610.38,183317.14l0,-120" />
          <path d="M210610.38,183197.14l-1740.49,0" />
          <path d="M208754.43,183197.14l-2344.04,0" />
          <path d="M206410.38,183197.14l0,120" />
          <path d="M206410.38,183317.14l4200,0" />
          <path d="M210670.38,183377.14l0,-240" />
          <path d="M210670.38,183137.14l-1835.13,0" />
          <path d="M208719.78,183137.14l-2369.4,0" />
          <path d="M206350.38,183137.14l0,240" />
          <path d="M206350.38,183377.14l4320,0" />
          <path d="M206410.38,181632.14l-1450,0" />
          <path d="M204460.38,181782.14l0,3100" />
          <path d="M204460.38,184882.14l1950,0" />
          <path d="M206410.38,184882.14l0,-1505" />
          <path d="M206410.38,183137.14l0,-1505" />
          <path d="M206410.38,183317.14l0,-120" />
          <path d="M210610.38,183197.14l0,120" />
        </g>
      </g>
      <g id="assets" fill="none">
        <g id="rm-assets" class="rm-asset">
          <path id="14008;F02;201-202" d="M232160.38,197322.14l-2900,0l0,-340l-800,0l0,340l-7300,0l0,-340l-800,0l0,325l-4400,0l0,-7625l4400,0l0,100l800,0l0,-800l-400,0l-150,0l0,-7200l550,0l0,-500l7300,0l0,500l685.98,0l3514.02,14435.99l0,764.01l-500,0l0,340z" />
          <path id="14008;F02;205" d="M215960.38,205442.14l4400,0l0,340l800,0l0,-340l7300,0l0,340l800,0l0,-340l2900,0l0,340l500,0l0,7200l-500,0l0,500l-2900,0l0,-500l-800,0l0,500l-7300,0l0,-500l-800,0l0,500l-4400,0z" />
          <path id="14008;F02;203" d="M215960.38,197457.14l4400,0l0,325l800,0l0,-340l7300,0l0,340l800,0l0,-340l2900,0l0,340l500,0l0,7200l-500,0l0,340l-2900,0l0,-340l-800,0l0,340l-7300,0l0,-340l-800,0l0,340l-4400,0z" />
          <path id="14008;F02;211-212" d="M204460.38,185082.14l8100,0l0,3900l-300,0l0,800l400,0l0,7200l-8200,0l0,-7200l500,0l0,-800l-500,0z" />
          <path id="14008;F02;209-210" d="M204960.38,197102.14l7300,0l0,680l340,0l0,5700l0,1500.02l-8140,-0.02l0,-7200l500,0z" />
          <path id="14008;F02;208" d="M207660.38,206232.14l4900,0l0,1159.5l-4900,0z" />
          <path id="14008;F02;207" d="M204960.38,205382.14l2500,0l-0.4,1448.5l-2999.5,0l0,-1048.5l499.9,0z" />
        </g>
      </g>
    </g>
    <g id="text" font-family="Arial" font-size="626.95035460992915" font-weight="normal" text-style="normal" text-anchor="start" dominant-baseline="alphabetical" fill="#FF0000" xml:space="preserve">
      <g id="layer-name-text">
        <g transform="translate(222634,192895.97)">
          <text>实验室</text>
        </g>
        <g transform="translate(222634,201263.19)">
          <text>实验室</text>
        </g>
        <g transform="translate(222634,209417.04)">
          <text>实验室</text>
        </g>
        <g transform="translate(208080.99,199749.66)">
          <text>实验室</text>
        </g>
        <g transform="translate(208050.15,192528.6)">
          <text>实验室</text>
        </g>
        <g transform="translate(217312.58,188351.45)">
          <text>女卫生间</text>
        </g>
        <g transform="translate(217336.41,186315.77)">
          <text>男卫生间</text>
        </g>
        <g transform="translate(222634.13,192895.4)">
          <text>实验室</text>
        </g>
        <g transform="translate(222634.13,201262.62)">
          <text>实验室</text>
        </g>
        <g transform="translate(222634.13,209416.46)">
          <text>实验室</text>
        </g>
        <g transform="translate(208081.11,199749.08)">
          <text>实验室</text>
        </g>
        <g transform="translate(208050.27,192528.03)">
          <text>实验室</text>
        </g>
        <g transform="translate(217312.71,188350.88)">
          <text>女卫生间</text>
        </g>
        <g transform="translate(217336.53,186315.19)">
          <text>男卫生间</text>
        </g>
        <g transform="translate(204552.99,206329.41)" font-size="682.5">
          <text>207</text>
        </g>
        <g transform="translate(207982.49,206731.66)" font-size="682.5">
          <text>208</text>
        </g>
        <g transform="rotate(-270 217096.74,212658.66) translate(217096.74,212658.66)" font-size="682.5">
          <text>206</text>
        </g>
        <g transform="rotate(-270 217071.74,206324.41) translate(217071.74,206324.41)" font-size="682.5">
          <text>205</text>
        </g>
        <g transform="rotate(-270 217085.49,204376.16) translate(217085.49,204376.16)" font-size="682.5">
          <text>204</text>
        </g>
        <g transform="rotate(-270 217035.99,198365.66) translate(217035.99,198365.66)" font-size="682.5">
          <text>203</text>
        </g>
        <g transform="rotate(-270 217002.74,196394.16) translate(217002.74,196394.16)" font-size="682.5">
          <text>202</text>
        </g>
        <g transform="rotate(-270 216950.99,190651.16) translate(216950.99,190651.16)" font-size="682.5">
          <text>201</text>
        </g>
        <g transform="rotate(-90 211410.49,188444.66) translate(211410.49,188444.66)" font-size="682.5">
          <text>212</text>
        </g>
        <g transform="rotate(-90 211586.74,191212.16) translate(211586.74,191212.16)" font-size="682.5">
          <text>211</text>
        </g>
        <g transform="rotate(-90 211490.99,199308.91) translate(211490.99,199308.91)" font-size="682.5">
          <text>210</text>
        </g>
        <g transform="rotate(-90 211584.74,205170.41) translate(211584.74,205170.41)" font-size="682.5">
          <text>209</text>
        </g>
        <g transform="translate(222551.73,209940.2)" font-size="386.75">
          <text>132.75m</text>
        </g>
        <g transform="translate(223911.73,209765.2)" font-size="193.375">
          <text>2</text>
        </g>
        <g transform="translate(213792.26,182704.63)">
          <text>前室</text>
        </g>
        <g transform="translate(213792.39,182704.05)">
          <text>前室</text>
        </g>
      </g>
      <g id="layer-bady-text" font-size="438.865" fill="#ff7f00" stroke="#ff7f00" stroke-width="0.02">
        <g transform="rotate(-90 213160.38,183491.5) translate(213160.38,183491.5)" font-size="386.75">
          <text>FM1521</text>
        </g>
        <g transform="rotate(-90 213160.38,182351.5) translate(213160.38,182351.5)">
          <text>乙</text>
        </g>
        <g transform="translate(204751.02,209636.88)" font-size="386.75">
          <text>FM1521</text>
        </g>
        <g transform="translate(205891.02,209636.88)">
          <text>乙</text>
        </g>
        <g transform="rotate(-90 213160.38,188291.5) translate(213160.38,188291.5)" font-size="386.75">
          <text>FM1521</text>
        </g>
        <g transform="rotate(-90 213160.38,187151.5) translate(213160.38,187151.5)">
          <text>乙</text>
        </g>
        <g transform="translate(213051.02,185926.88)" font-size="386.75">
          <text>FM1521</text>
        </g>
        <g transform="translate(214191.02,185926.88)">
          <text>乙</text>
        </g>
        <g transform="translate(209534.95,204306.71)" font-size="386.75">
          <text>FM1521</text>
        </g>
        <g transform="translate(210674.95,204306.71)">
          <text>乙</text>
        </g>
        <g transform="translate(210230.61,205840.02)" font-size="626.95">
          <text>电井</text>
        </g>
        <g transform="translate(205946.87,210839.64)" fill="#000000" stroke="#000000" stroke-width="0.02">
          <text>上</text>
        </g>
        <g transform="translate(205965.49,212524.64)" fill="#000000" stroke="#000000" stroke-width="0.02">
          <text>下</text>
        </g>
        <g transform="translate(210865.38,182589.64)" fill="#000000" stroke="#000000" stroke-width="0.02">
          <text>上</text>
        </g>
        <g transform="translate(210865.38,184274.64)" fill="#000000" stroke="#000000" stroke-width="0.02">
          <text>下</text>
        </g>
      </g>
    </g>
    <g id="asset-labels" font-family="Arial" font-weight="bold" font-size="38.1em" text-anchor="middle">
      <g id="rm-labels">
        <g id="l-rm-14008;F02;201-202" transform="translate(224310.38,189302.14)">
          <text>201-202</text>
        </g>
        <g id="l-rm-14008;F02;205" transform="translate(224310.38,209462.14)">
          <text>205</text>
        </g>
        <g id="l-rm-14008;F02;203" transform="translate(224310.38,201382.14)">
          <text>203</text>
        </g>
        <g id="l-rm-14008;F02;211-212" transform="translate(208560.38,191032.14)">
          <text>211-212</text>
        </g>
        <g id="l-rm-14008;F02;209-210" transform="translate(208530.38,201042.15)">
          <text>209-210</text>
        </g>
        <g id="l-rm-14008;F02;208" transform="translate(210110.38,206811.89)">
          <text>208</text>
        </g>
        <g id="l-rm-14008;F02;207" transform="translate(205960.44,206106.39)">
          <text>207</text>
        </g>
      </g>
    </g>
  </g>
</svg>