<svg version="1.1" xmlns="http://www.w3.org/2000/svg" xmlns:xlink="http://www.w3.org/1999/xlink" viewBox="204402.72 -325.73 17458 33910">
  <style>.i0 { stroke:#000000;   } .bady { stroke:#ff7f00;   } .rm { stroke:#00ffff;   } .axis_text { stroke:#000000;   } .pub_wall { stroke:#c0c0c0;   } .pub_hatch { stroke:#808080;   } .rm-asset { stroke:#0000ff;   fill:#EEEEEE; fill-opacity:1;} .rmtc-asset { stroke:#0000ff;   } .rmtc { stroke:#00ffff;   } .rm-assettxt { stroke:#0000ff;   } .rmtc-assettxt { stroke:#0000ff;   } .cnc-0 { stroke:#ff7f00;  stroke-dasharray:0; fill:#cccccc; fill-opacity:1;} .cnc-1 { stroke:#ff7f00;  stroke-dasharray:0; } .cnc-2 { stroke:#ff7f00;  stroke-dasharray:0; } .cnc-3 { stroke:#000000;  stroke-dasharray:0; } .cnc-4 { stroke:#000000;  stroke-dasharray:0; } .blkclass0 { stroke:#ff7f00;  stroke-width:0.02;  fill:#ff7f00; fill-opacity:1; font-family:Arial; font-size:386.75; font-weight:normal; text-style:normal; text-anchor:start;}</style>
  <view id="defaultView" viewBox="204402.72 -325.73 17458 33910" />
  <defs>
    <symbol id="_FZH" overflow="visible" class="i0">
      <path d="M-0.5,0.5l1,0l0,-1l-1,0z" />
    </symbol>
    <symbol id="$WINLIB2D$00000001_1800x300" overflow="visible" class="i0">
      <path d="M900,150l0,-300" />
      <path d="M-900,-150l0,300" />
      <path d="M900,-50l-1800,0" />
      <path d="M900,50l-1800,0" />
      <path d="M-900,150l1800,0" />
      <path d="M-900,-150l1800,0" />
    </symbol>
    <symbol id="$WINLIB2D$00000001_7200x300" overflow="visible" class="i0">
      <path d="M3600,150l0,-300" />
      <path d="M-3600,-150l0,300" />
      <path d="M3600,-50l-7200,0" />
      <path d="M3600,50l-7200,0" />
      <path d="M-3600,150l7200,0" />
      <path d="M-3600,-150l7200,0" />
    </symbol>
    <symbol id="$WINLIB2D$00000001_1500x300" overflow="visible" class="i0">
      <path d="M750,150l0,-300" />
      <path d="M-750,-150l0,300" />
      <path d="M750,-50l-1500,0" />
      <path d="M750,50l-1500,0" />
      <path d="M-750,150l1500,0" />
      <path d="M-750,-150l1500,0" />
    </symbol>
    <symbol id="$DorLib2D$00000127_1100x250" overflow="visible" class="i0">
      <path d="M550,-125l-1100,0" />
      <path d="M36.67,-198.72l0,26.12" />
      <path d="M-36.67,-198.72l-550,0" />
      <path d="M-36.67,-172.6l-550,0" />
      <path d="M-36.67,-198.72l0,26.12" />
      <path d="M586.67,-198.72l0,26.12" />
      <path d="M-586.67,-198.72l0,26.12" />
      <path d="M586.67,-172.6l-550,0" />
      <path d="M586.67,-198.72l-550,0" />
    </symbol>
    <symbol id="$DorLib2D$00000231" overflow="visible" class="i0">
      <path d="M-0.5,0l0.25,-0.43" />
      <path d="M-0.25,-0.43a0.5,0.5 0 0,1 0.25,0.43" />
      <path d="M0,0a0.5,0.5 0 0,1 0.25,-0.43" />
      <path d="M0.5,0l-0.25,-0.43" />
    </symbol>
    <symbol id="$DorLib2D$00000116" overflow="visible" class="i0">
      <path d="M-0.5,0l0.35,-0.35" />
      <path d="M-0.15,-0.35a0.5,0.5 0 0,1 0.15,0.35" />
      <path d="M0,0a0.5,0.5 0 0,1 0.15,-0.35" />
      <path d="M0.5,0l-0.35,-0.35" />
    </symbol>
    <symbol id="$WINLIB2D$00000001_900x250" overflow="visible" class="i0">
      <path d="M450,125l0,-250" />
      <path d="M-450,-125l0,250" />
      <path d="M450,-41.67l-900,0" />
      <path d="M450,41.67l-900,0" />
      <path d="M-450,125l900,0" />
      <path d="M-450,-125l900,0" />
    </symbol>
    <symbol id="$DorLib2D$00000228" overflow="visible" class="i0">
      <path d="M-0.5,0a1,1 0 0,1 0.5,-0.87" />
      <path d="M0.5,0l-0.5,-0.87" />
    </symbol>
    <symbol id="$lvtry$00000193" overflow="visible" class="i0">
      <circle r="20" cy="200" />
      <path d="M-24.71,84.86a166.25,166.25 0 0,1 28.52,-25.84" />
      <path d="M-24.71,84.85a6.77,6.77 0 0,1 -10.36,-8.14" />
      <path d="M-16.69,42.9a166.25,166.25 0 0,1 -18.37,33.81" />
      <path d="M9.2,99.6a9.9,9.9 0 0,1 -18.4,0" />
      <path d="M9.2,99.6a372.22,372.22 0 0,1 5.21,-48.41" />
      <path d="M14.41,51.19a172.58,172.58 0 0,1 27.83,-7.78" />
      <path d="M43.06,23.92a10.06,10.06 0 0,1 -0.82,19.49" />
      <path d="M-42.24,43.41a10.06,10.06 0 0,1 -0.82,-19.49" />
      <path d="M-11.46,71.35a372.22,372.22 0 0,1 2.26,28.25" />
      <path d="M-42.24,43.41a172.58,172.58 0 0,1 22.78,5.99" />
      <circle r="16.692" cy="42.77" />
      <path d="M-27.27,82.62a169.65,169.65 0 0,1 13.49,-13.76" />
      <path d="M-13.78,68.86a10.6,10.6 0 0,1 -8.32,-6.54" />
      <path d="M-22.1,62.32a169.65,169.65 0 0,1 -10.18,16.35" />
      <path d="M-26.82,82.18a3.37,3.37 0 0,1 -5.15,-4.05" />
      <path d="M-16.69,42.77l0,-9.84" />
      <path d="M16.69,42.77l0,-9.84" />
      <path d="M43.06,23.92a258.71,258.71 0 0,1 -34.21,-5.14" />
      <path d="M-8.85,18.78a258.71,258.71 0 0,1 -34.21,5.14" />
      <path d="M-16.69,32.93a16.69,16.69 0 0,1 33.38,0" />
      <path d="M-25.26,61.02a313.49,313.49 0 0,0 -69.75,13.73m0,0a237.05,237.05 0 0,0 -72.52,37.88m0.01,0a178.75,178.75 0 0,0 -48.46,56.91m-0.01,0a116.81,116.81 0 0,0 -14,55.46a116.81,116.81 0 0,0 14,55.46m0.01,0a178.75,178.75 0 0,0 48.46,56.91m-0.01,0a237.05,237.05 0 0,0 72.52,37.88m0,0a313.49,313.49 0 0,0 95.02,14.75a313.49,313.49 0 0,0 95.02,-14.75m0,0a237.05,237.05 0 0,0 72.52,-37.88m-0.01,0a178.75,178.75 0 0,0 48.46,-56.91m0.01,0a116.81,116.81 0 0,0 14,-55.46a116.81,116.81 0 0,0 -14,-55.46m-0.01,0a178.75,178.75 0 0,0 -48.46,-56.91m0.01,0a237.05,237.05 0 0,0 -72.52,-37.88m0,0a313.49,313.49 0 0,0 -82.08,-14.48" class="cnc-3" />
      <path d="M280,215a166.81,166.81 0 0,0 -20,-79.2m-0.01,0a228.75,228.75 0 0,0 -62.01,-72.83m0.01,0a287.05,287.05 0 0,0 -87.82,-45.87m0,0a363.49,363.49 0 0,0 -110.17,-17.1a363.49,363.49 0 0,0 -110.17,17.1m0,0a287.05,287.05 0 0,0 -87.82,45.87m0.01,0a228.75,228.75 0 0,0 -62.01,72.83m-0.01,0a166.81,166.81 0 0,0 -20,79.2a166.81,166.81 0 0,0 20,79.2m0.01,0a228.75,228.75 0 0,0 62.01,72.83m-0.01,0a287.05,287.05 0 0,0 87.82,45.87m0,0a363.49,363.49 0 0,0 110.17,17.1a363.49,363.49 0 0,0 110.17,-17.1m0,0a287.05,287.05 0 0,0 87.82,-45.87m-0.01,0a228.75,228.75 0 0,0 62.01,-72.83m0.01,0a166.81,166.81 0 0,0 20,-79.2" class="cnc-3" />
    </symbol>
    <symbol id="$WINLIB2D$00000001_2100x200" overflow="visible" class="i0">
      <path d="M1050,100l0,-200" />
      <path d="M-1050,-100l0,200" />
      <path d="M1050,-33.33l-2100,0" />
      <path d="M1050,33.33l-2100,0" />
      <path d="M-1050,100l2100,0" />
      <path d="M-1050,-100l2100,0" />
    </symbol>
    <symbol id="$lvtry$00000202" overflow="visible" class="i0">
      <path d="M139.78,40a40,40 0 0,0 -40,-40m0,0l-199.57,0m0,0a40,40 0 0,0 -40,40m0,0l0,439.66m0,0a110,110 0 0,0 110,110m0,0l59.57,0m0,0a110,110 0 0,0 110,-110m0,0l0,-439.66" class="cnc-3" />
      <path d="M99.78,30a10,10 0 0,1 10,10" />
      <path d="M-109.78,40a10,10 0 0,1 10,-10" />
      <path d="M99.78,30l-199.57,0" />
      <circle r="20" cy="358.61" />
      <path d="M139.78,469.66l-279.57,0" />
      <path d="M109.78,469.66l0,-429.66" />
      <path d="M-109.78,40l0,429.66" />
    </symbol>
    <symbol id="$TCHSYS$APDOOR2D" overflow="visible" class="i0">
      <path d="M0.5,0l-0.5,-0.87" />
      <path d="M-0.5,0a1,1 0 0,1 0.5,-0.87" />
    </symbol>
    <symbol id="$lvtry$00000222" overflow="visible" class="i0">
      <path d="M-205,190.69l0,-190.69l410,0l0,190.69m0,0a203.43,203.43 0 0,0 -154.23,132.77m-50.77,36.19a54,54 0 0,0 50.77,-36.18m-101.53,0a54,54 0 0,0 50.77,36.18m-50.77,-36.19a203.43,203.43 0 0,0 -154.23,-132.77" class="cnc-3" />
      <path d="M22.45,323.92a233.43,233.43 0 0,1 138.63,-141.65" />
      <path d="M-155.89,184.28a233.43,233.43 0 0,1 133.44,139.64" />
      <circle r="20" cy="241.62" />
      <path d="M22.45,323.92a24,24 0 0,1 -22.45,16.08" />
      <path d="M0,340a24,24 0 0,1 -22.45,-16.08" />
      <path d="M-156.25,165.88a395,395 0 0,1 317.79,-2.15" />
      <path d="M-155.89,184.29a10,10 0 0,1 -0.36,-18.41" />
      <circle r="20" cx="-0.03" cy="60.43" />
      <path d="M161.54,163.73a10,10 0 0,1 -0.46,18.55" />
    </symbol>
    <symbol id="$lvtry$00000188" overflow="visible" class="i0">
      <path d="M262.08,174.72a74.88,74.88 0 0,0 -74.88,-74.88" class="cnc-4" />
      <path d="M-262.08,0a37.44,37.44 0 0,0 -37.44,37.44l0,474.24a37.44,37.44 0 0,0 37.44,37.44l524.16,0a37.44,37.44 0 0,0 37.44,-37.44l0,-474.24a37.44,37.44 0 0,0 -37.44,-37.44l-524.16,0" class="cnc-4" />
      <path d="M31.2,99.84l156,0" />
      <circle r="24.96" cx="-80.35" cy="62.4" />
      <path d="M-38.06,49.92l76.12,0" />
      <path d="M-41.02,53.41a3,3 0 0,1 2.96,-3.49" />
      <path d="M38.06,49.92a3,3 0 0,1 2.96,3.49" />
      <circle r="19.96" cx="-80.35" cy="62.4" />
      <circle r="19.96" cx="80.35" cy="62.4" />
      <circle r="24.96" cx="80.35" cy="62.4" />
      <circle r="37.44" cy="299.52" />
      <path d="M-12.48,224.64l24.96,0" />
      <path d="M262.08,436.8a74.88,74.88 0 0,1 -74.88,74.88" />
      <path d="M262.08,174.72l0,262.08" />
      <path d="M-41.02,53.41l28.54,171.23" />
      <path d="M12.48,224.64l28.54,-171.23" />
      <path d="M-262.08,174.72a74.88,74.88 0 0,1 74.88,-74.88" />
      <path d="M-187.2,511.68a74.88,74.88 0 0,1 -74.88,-74.88" />
      <path d="M-262.08,436.8l0,-262.08" />
      <path d="M187.2,511.68l-374.4,0" />
      <path d="M-187.2,99.84l156,0" />
    </symbol>
  </defs>
  <g id="viewer">
    <g id="mirror" transform="scale(1, 1)" stroke-width="0.09%">
      <g id="background" fill="none">
        <g id="layer-bady-fills" class="cnc-0">
          <path d="M216873.23,3183.94l0,0l0,1900l0,0z" />
          <path d="M216909.39,3273.33l1523.21,0l0,1716.73l-1523.21,0z" />
          <path d="M218514.19,3571.23l266.68,0l0,1048.11l-266.68,0z" />
          <path d="M216909.39,1173.33l1523.21,0l0,1716.73l-1523.21,0z" />
          <path d="M218514.19,1471.23l266.68,0l0,1048.11l-266.68,0z" />
          <path d="M211356.55,7933.94l0,-1800l600,0l0,1800z" />
        </g>
        <g id="layer-RM-fills" class="rm">
          <path d="M208356.55,29483.94l4898.62,0l0,-3449.36l-4898.62,-0.64z" />
          <path d="M208356.55,24983.94l0,850l4900,0l0,-250l-300,0l0,-600z" />
          <path d="M216756.55,1083.94l2100,0l0,1900l-2100,0z" />
          <path d="M216756.55,3183.94l2100,0l0,1900l-2100,0z" />
          <path d="M215556.55,25283.94l0,3400l6000,0l0,-3100l-500,0l0,-300z" />
          <path d="M213456.55,28883.94l8100,0l0,3900l-500,0l0,500l-7300,0l0,-500l-300,0z" />
        </g>
        <g id="layer-bady" class="cnc-1">
          <path d="M216656.55,5497.63l0,-5313.69" />
          <path d="M218956.55,9522.44l0,-9338.5" />
          <path d="M218432.61,3273.33l-1523.21,1716.73" />
          <path d="M216909.39,3273.33l1523.21,1716.73" />
          <path d="M218432.61,1173.33l-1523.21,1716.73" />
          <path d="M216909.39,1173.33l1523.21,1716.73" />
          <path d="M213053.23,24983.94l-4438.91,276.7l-257.77,573.3" />
          <use xlink:href="#_FZH" x="266.696" y="21.48" transform="scale(800,800)" stroke-width="0.0001%">.</use>
          <use xlink:href="#_FZH" x="266.696" y="11.48" transform="scale(800,800)" stroke-width="0.0001%">.</use>
          <use xlink:href="#_FZH" x="266.696" y="31.48" transform="scale(800,800)" stroke-width="0.0001%">.</use>
          <use xlink:href="#_FZH" x="266.696" y="41.48" transform="scale(800,800)" stroke-width="0.0001%">.</use>
          <use xlink:href="#_FZH" x="266.696" y="1.48" transform="scale(800,800)" stroke-width="0.0001%">.</use>
          <use xlink:href="#_FZH" x="276.821" y="41.48" transform="scale(800,800)" stroke-width="0.0001%">.</use>
          <use xlink:href="#_FZH" x="276.821" y="31.48" transform="scale(800,800)" stroke-width="0.0001%">.</use>
          <use xlink:href="#_FZH" x="276.821" y="21.48" transform="scale(800,800)" stroke-width="0.0001%">.</use>
          <use xlink:href="#_FZH" x="276.821" y="11.48" transform="scale(800,800)" stroke-width="0.0001%">.</use>
          <use xlink:href="#_FZH" x="256.571" y="21.48" transform="scale(800,800)" stroke-width="0.0001%">.</use>
          <use xlink:href="#_FZH" x="256.571" y="11.48" transform="scale(800,800)" stroke-width="0.0001%">.</use>
          <use xlink:href="#_FZH" x="256.571" y="31.48" transform="scale(800,800)" stroke-width="0.0001%">.</use>
          <use xlink:href="#_FZH" x="256.571" y="41.48" transform="scale(800,800)" stroke-width="0.0001%">.</use>
          <use xlink:href="#_FZH" x="256.571" y="1.48" transform="scale(800,800)" stroke-width="0.0001%">.</use>
          <path d="M212956.55,1083.94l-7300,0" />
          <path d="M212956.55,783.94l-7300,0" />
          <path d="M205156.55,32783.94l0,-800" />
          <path d="M205156.55,31983.94l-300,0" />
          <path d="M204856.55,31983.94l0,800" />
          <path d="M204856.55,25583.94l0,800" />
          <path d="M204856.55,26383.94l300,0" />
          <path d="M205156.55,26383.94l0,-800" />
          <path d="M205156.55,30183.94l0,-2000" />
          <path d="M205156.55,28183.94l-300,0" />
          <path d="M204856.55,28183.94l0,2000" />
          <path d="M204856.55,30183.94l300,0" />
          <use xlink:href="#$WINLIB2D$00000001_1800x300" x="205006.55" y="31083.94" transform="scale(-1,-1) translate(-410013.1,-62167.88) rotate(-90,205006.55,31083.94)">.<g class="blkclass0"><text transform="rotate(-90 605.45,455) translate(605.45,455)" font-size="386.75">C1827</text></g></use>
          <use xlink:href="#$WINLIB2D$00000001_1800x300" x="205006.55" y="27283.94" transform="scale(-1,-1) translate(-410013.1,-54567.88) rotate(-90,205006.55,27283.94)">.<g class="blkclass0"><text transform="rotate(-90 549.61,410.87) translate(549.61,410.87)" font-size="386.75">C1818</text></g></use>
          <use xlink:href="#$WINLIB2D$00000001_7200x300" x="205006.55" y="21183.94" transform="scale(-1,1) translate(-410013.1,0) rotate(-270,205006.55,21183.94)">.<g class="blkclass0"><text transform="rotate(-90 573.75,527.1) translate(573.75,527.1)" font-size="386.75">C7221</text></g></use>
          <use xlink:href="#$WINLIB2D$00000001_7200x300" x="205006.55" y="13183.94" transform="scale(-1,1) translate(-410013.1,0) rotate(-270,205006.55,13183.94)">.<g class="blkclass0"><text transform="rotate(-90 573.75,469.72) translate(573.75,469.72)" font-size="386.75">C7221</text></g></use>
          <path d="M205656.55,33283.94l7300,0" />
          <path d="M205656.55,33583.94l7300,0" />
          <path d="M213756.55,33283.94l7300,0" />
          <path d="M213756.55,33583.94l7300,0" />
          <path d="M212956.55,24783.94l-1500.32,0" />
          <path d="M211456.23,24783.94l0,200" />
          <path d="M211456.23,24983.94l1500.32,0" />
          <path d="M208356.55,24983.94l1599.68,0" />
          <path d="M209956.23,24983.94l0,-200" />
          <path d="M209956.23,24783.94l-1599.68,0" />
          <path d="M208356.55,24983.94l0,850" />
          <path d="M208156.55,24983.94l0,1050" />
          <path d="M213256.55,29683.94l0,-800" />
          <path d="M213456.55,29683.94l0,-800" />
          <path d="M213256.55,29683.94l200,0" />
          <path d="M205156.55,8783.94l0,-800" />
          <path d="M205156.55,7983.94l-300,0" />
          <path d="M204856.55,7983.94l0,800" />
          <path d="M204856.55,1583.94l0,800" />
          <path d="M204856.55,2383.94l300,0" />
          <path d="M205156.55,2383.94l0,-800" />
          <path d="M205156.55,6183.94l0,-2000" />
          <path d="M205156.55,4183.94l-300,0" />
          <path d="M204856.55,4183.94l0,2000" />
          <path d="M204856.55,6183.94l300,0" />
          <use xlink:href="#$WINLIB2D$00000001_1800x300" x="205006.55" y="3283.94" transform="scale(-1,1) translate(-410013.1,0) rotate(-270,205006.55,3283.94)">.<g class="blkclass0"><text transform="rotate(-90 573.75,455) translate(573.75,455)" font-size="386.75">C1827</text></g></use>
          <use xlink:href="#$WINLIB2D$00000001_1800x300" x="205006.55" y="7083.94" transform="scale(-1,1) translate(-410013.1,0) rotate(-270,205006.55,7083.94)">.<g class="blkclass0"><text transform="rotate(-90 -300.71,451.48) translate(-300.71,451.48)" font-size="386.75">C1818</text></g></use>
          <path d="M216749.83,783.94l-893.28,0" />
          <path d="M215856.55,783.94l0,300" />
          <path d="M215856.55,1083.94l650,0" />
          <path d="M213756.55,1083.94l600,0" />
          <path d="M214356.55,1083.94l0,-300" />
          <path d="M214356.55,783.94l-600,0" />
          <use xlink:href="#$WINLIB2D$00000001_1500x300" x="215106.55" y="933.94" transform="scale(-1,1) translate(-430213.1,0) rotate(-180,215106.55,933.94)">.<g class="blkclass0"><text transform="translate(-410,-276.25)" font-size="386.75">C1521</text></g></use>
          <path d="M216506.55,1083.94l0,400" />
          <path d="M216506.55,1483.94l250,0" />
          <path d="M216756.55,1483.94l0,-400" />
          <path d="M216756.55,2983.94l0,-400" />
          <path d="M216756.55,2583.94l-250,0" />
          <path d="M216506.55,2583.94l0,400" />
          <use xlink:href="#$DorLib2D$00000127_1100x250" x="216631.55" y="2033.94" transform="rotate(-270,216631.55,2033.94)">.</use>
          <path d="M216756.55,5083.94l2100,0" />
          <path d="M216506.55,5333.94l2600,0" />
          <path d="M218856.55,1083.94l-2100,0" />
          <path d="M219106.55,783.94l-2356.72,0" />
          <path d="M218856.55,5083.94l0,-1900" />
          <path d="M219106.55,5333.94l0,-2350" />
          <path d="M216506.55,2983.94l0,600" />
          <path d="M216506.55,3583.94l250,0" />
          <path d="M216756.55,3583.94l0,-400" />
          <path d="M216756.55,5083.94l0,-400" />
          <path d="M216756.55,4683.94l-250,0" />
          <path d="M216506.55,4683.94l0,650" />
          <use xlink:href="#$DorLib2D$00000127_1100x250" x="216631.55" y="4133.94" transform="rotate(-270,216631.55,4133.94)">.</use>
          <path d="M218856.55,2983.94l0,-1900" />
          <path d="M219106.55,2983.94l0,-2200" />
          <path d="M216756.55,2983.94l2100,0" />
          <path d="M216756.55,3183.94l2100,0" />
          <path d="M219106.55,8783.94l1950,0" />
          <path d="M218856.55,9033.94l2200,0" />
          <path d="M213456.55,4683.94l0,-1300" />
          <path d="M213456.55,3383.94l-200,0" />
          <path d="M213256.55,3383.94l0,1300" />
          <path d="M213256.55,1583.94l0,300" />
          <path d="M213256.55,1883.94l200,0" />
          <path d="M213456.55,1883.94l0,-300" />
          <use xlink:href="#$DorLib2D$00000231" x="142.238" y="1.756" transform="scale(1500,1500) rotate(-90,142.24,1.76)" stroke-width="0.0001%">.</use>
          <path d="M213456.55,23283.94l0,-2800" />
          <path d="M213456.55,20483.94l-200,0" />
          <path d="M213256.55,20483.94l0,2600" />
          <path d="M213256.55,17583.94l0,1400" />
          <path d="M213256.55,18983.94l200,0" />
          <path d="M213456.55,18983.94l0,-1400" />
          <use xlink:href="#$DorLib2D$00000116" x="142.238" y="13.156" transform="scale(1500,1500) scale(-1,1) translate(-284.48,0) rotate(-270,142.24,13.16)" stroke-width="0.0001%">.<g class="blkclass0"><text transform="rotate(-90 523.75,470) translate(523.75,470)" font-size="386.75">M1527</text></g></use>
          <path d="M213456.55,16783.94l0,-2900" />
          <path d="M213456.55,13883.94l-200,0" />
          <path d="M213256.55,13883.94l0,2900" />
          <path d="M213256.55,9583.94l0,2800" />
          <path d="M213256.55,12383.94l200,0" />
          <path d="M213456.55,12383.94l0,-2800" />
          <path d="M213456.55,12383.94l0,1500" />
          <path d="M213456.55,13883.94l-200,0" />
          <path d="M213256.55,12383.94l200,0" />
          <path d="M213456.55,13883.94l0,-1500" />
          <use xlink:href="#$DorLib2D$00000116" x="142.238" y="8.756" transform="scale(1500,1500) scale(-1,1) translate(-284.48,0) rotate(-270,142.24,8.76)" stroke-width="0.0001%">.<g class="blkclass0"><text transform="rotate(-90 531.26,470) translate(531.26,470)" font-size="386.75">M1527</text></g></use>
          <path d="M213256.55,5333.94l400,0" />
          <path d="M213656.55,5333.94l0,-250" />
          <path d="M213656.55,5083.94l-200,0" />
          <path d="M215456.55,5083.94l-300,0" />
          <path d="M215156.55,5083.94l0,250" />
          <path d="M215156.55,5333.94l200,0" />
          <use xlink:href="#$DorLib2D$00000231" x="142.938" y="3.473" transform="scale(1500,1500) scale(-1,1) translate(-285.88,0)" stroke-width="0.0001%">.</use>
          <path d="M208356.55,24783.94l-1200,0" />
          <path d="M207156.55,24783.94l0,200" />
          <path d="M207156.55,24983.94l1000,0" />
          <use xlink:href="#$DorLib2D$00000231" x="137.604" y="16.589" transform="scale(1500,1500) scale(-1,1) translate(-275.21,0) rotate(-180,137.6,16.59)" stroke-width="0.0001%">.</use>
          <path d="M213256.55,32783.94l0,-3100" />
          <path d="M213456.55,32783.94l0,-3300" />
          <path d="M213256.55,29683.94l-5000,0" />
          <path d="M213456.55,29483.94l-5100,0" />
          <path d="M208156.55,29483.94l0,-3450" />
          <path d="M208356.55,29483.94l0,-3450" />
          <path d="M208156.55,26033.94l200,0" />
          <path d="M208223.21,28358.94l0,-1200" class="cnc-2" />
          <path d="M208289.88,28358.94l0,-1200" class="cnc-2" />
          <path d="M208156.55,27158.94l200,0" class="cnc-2" />
          <path d="M208156.55,28358.94l200,0" class="cnc-2" />
          <use xlink:href="#$DorLib2D$00000231" x="137.404" y="19.723" transform="scale(1500,1500) scale(-1,1) translate(-274.81,0) rotate(-180,137.4,19.72)" stroke-width="0.0001%">.</use>
          <path d="M218856.55,5333.94l0,200" />
          <path d="M218856.55,5533.94l250,0" />
          <path d="M219106.55,5533.94l0,-200" />
          <path d="M219106.55,5333.94l-250,0" />
          <path d="M219106.55,8783.94l0,-2350" />
          <path d="M219106.55,6433.94l-250,0" />
          <path d="M218856.55,6433.94l0,2600" />
          <use xlink:href="#$WINLIB2D$00000001_900x250" x="218981.55" y="5983.94" transform="scale(-1,1) translate(-437963.1,0) rotate(-90,218981.55,5983.94)">.<g class="blkclass0"><text transform="rotate(-90 -200.24,473.53) translate(-200.24,473.53)" font-size="386.75">C0918</text></g></use>
          <path d="M219856.52,380.84l-300,-300" />
          <path d="M219856.52,380.84l300,-300" />
          <path d="M219156.52,380.84l1000,0" />
          <path d="M219556.52,80.84l1565,0" />
          <path d="M208156.55,29483.94l-1300,0" />
          <path d="M206856.55,29483.94l0,200" />
          <path d="M206856.55,29683.94l1400,0" />
          <path d="M205156.55,29683.94l200,0" />
          <path d="M205356.55,29683.94l0,-200" />
          <path d="M205356.55,29483.94l-200,0" />
          <path d="M205156.55,29483.94l0,200" />
          <path d="M213256.55,5333.94l0,-450" />
          <path d="M213456.55,5083.94l0,-400" />
          <path d="M221556.55,25583.94l0,800" />
          <path d="M221556.55,26383.94l300,0" />
          <path d="M221856.55,26383.94l0,-800" />
          <path d="M221856.55,32783.94l0,-800" />
          <path d="M221856.55,31983.94l-300,0" />
          <path d="M221556.55,31983.94l0,800" />
          <path d="M221556.55,28183.94l0,2000" />
          <path d="M221556.55,30183.94l300,0" />
          <path d="M221856.55,30183.94l0,-2000" />
          <path d="M221856.55,28183.94l-300,0" />
          <use xlink:href="#$WINLIB2D$00000001_1800x300" x="221706.55" y="31083.94" transform="scale(-1,1) translate(-443413.1,0) rotate(-90,221706.55,31083.94)">.<g class="blkclass0"><text transform="rotate(-90 -276.25,435) translate(-276.25,435)" font-size="386.75">C1810</text></g></use>
          <use xlink:href="#$WINLIB2D$00000001_1800x300" x="221706.55" y="27283.94" transform="scale(-1,1) translate(-443413.1,0) rotate(-90,221706.55,27283.94)">.<g class="blkclass0"><text transform="rotate(-90 -276.25,435) translate(-276.25,435)" font-size="386.75">C1810</text></g></use>
          <use xlink:href="#$WINLIB2D$00000001_7200x300" x="221706.55" y="13183.94" transform="scale(1,-1) translate(0,-26367.88) rotate(-90,221706.55,13183.94)">.<g class="blkclass0"><text transform="rotate(-90 -339.84,469.72) translate(-339.84,469.72)" font-size="386.75">C7221</text></g></use>
          <use xlink:href="#$WINLIB2D$00000001_7200x300" x="221706.55" y="21183.94" transform="scale(1,-1) translate(0,-42367.88) rotate(-90,221706.55,21183.94)">.<g class="blkclass0"><text transform="rotate(-90 -320.92,527.1) translate(-320.92,527.1)" font-size="386.75">C7221</text></g></use>
          <path d="M215556.55,28683.94l0,-1100" />
          <path d="M215556.55,27583.94l-200,0" />
          <path d="M215356.55,27583.94l0,1100" />
          <path d="M215356.55,25283.94l0,800" />
          <path d="M215356.55,26083.94l200,0" />
          <path d="M215556.55,26083.94l0,-800" />
          <path d="M215456.55,5083.94l1050,0" />
          <path d="M215556.55,5333.94l950,0" />
          <path d="M216506.55,5083.94l0,250" />
          <path d="M213256.55,25833.94l0,-250" />
          <path d="M213456.55,25833.94l0,-250" />
          <use xlink:href="#$DorLib2D$00000228" x="237.063" y="29.427" transform="scale(900,900) scale(-1,1) translate(-474.13,0) rotate(-270,237.06,29.43)" stroke-width="0.0001%">.<g class="blkclass0"><text transform="rotate(-90 608.65,445) translate(608.65,445)" font-size="386.75">M0921</text></g></use>
          <path d="M213456.55,23283.94l-8300,0" />
          <path d="M213256.55,23083.94l-8100,0" />
          <path d="M205156.55,23283.94l0,-200" />
          <path d="M221556.55,28883.94l-6100,0" />
          <path d="M221556.55,28683.94l-6000,0" />
          <path d="M221556.55,28883.94l0,-200" />
          <path d="M213456.55,28683.94l0,-1750" />
          <path d="M213456.55,26933.94l-200,0" />
          <path d="M213256.55,26933.94l0,1950" />
          <path d="M213256.55,26033.94l200,0" />
          <path d="M213456.55,26033.94l0,-200" />
          <path d="M215356.55,28683.94l0,200" />
          <path d="M215356.55,28883.94l100,0" />
          <path d="M213456.55,28883.94l400,0" />
          <path d="M213856.55,28883.94l0,-200" />
          <path d="M213856.55,28683.94l-400,0" />
          <path d="M221056.55,25283.94l-5500,0" />
          <path d="M221056.55,25083.94l-5500,0" />
          <path d="M215356.55,25283.94l0,0" />
          <path d="M215356.55,25083.94l0,0" />
          <path d="M215356.55,25283.94l0,-200" />
          <use xlink:href="#$DorLib2D$00000116" x="143.638" y="15.689" transform="scale(1500,1500) scale(-1,-1) translate(-287.28,-31.38) rotate(-90,143.64,15.69)" stroke-width="0.0001%">.<g class="blkclass0"><text transform="rotate(-90 -226.25,470) translate(-226.25,470)" font-size="386.75">M1527</text></g></use>
          <use xlink:href="#$DorLib2D$00000228" x="239.396" y="6.649" transform="scale(900,900) scale(1,-1) translate(0,-13.3) rotate(-270,239.4,6.65)" stroke-width="0.0001%">.<g class="blkclass0"><text transform="rotate(-90 1117.72,445) translate(1117.72,445)" font-size="386.75">M0921</text></g></use>
          <path d="M221056.55,17283.94l-5500,0" />
          <path d="M221056.55,17083.94l-5500,0" />
          <use xlink:href="#$DorLib2D$00000116" x="143.638" y="10.463" transform="scale(1500,1500) scale(-1,-1) translate(-287.28,-20.93) rotate(-90,143.64,10.46)" stroke-width="0.0001%">.<g class="blkclass0"><text transform="rotate(-90 -226.25,470) translate(-226.25,470)" font-size="386.75">M1527</text></g></use>
          <use xlink:href="#$DorLib2D$00000116" x="143.638" y="12.449" transform="scale(1500,1500) scale(-1,-1) translate(-287.28,-24.9) rotate(-90,143.64,12.45)" stroke-width="0.0001%">.<g class="blkclass0"><text transform="rotate(-90 -226.25,470) translate(-226.25,470)" font-size="386.75">M1527</text></g></use>
          <use xlink:href="#$DorLib2D$00000116" x="143.638" y="7.023" transform="scale(1500,1500) scale(-1,-1) translate(-287.28,-14.05) rotate(-90,143.64,7.02)" stroke-width="0.0001%">.<g class="blkclass0"><text transform="rotate(-90 -226.25,470) translate(-226.25,470)" font-size="386.75">M1527</text></g></use>
          <path d="M215556.55,25083.94l0,-800" />
          <path d="M215556.55,24283.94l-200,0" />
          <path d="M215356.55,24283.94l0,800" />
          <path d="M215356.55,17283.94l0,640" />
          <path d="M215356.55,17923.94l200,0" />
          <path d="M215556.55,17923.94l0,-640" />
          <path d="M215556.55,22783.94l0,-3360" />
          <path d="M215556.55,19423.94l-200,0" />
          <path d="M215356.55,19423.94l0,3360" />
          <path d="M215356.55,22783.94l200,0" />
          <path d="M213556.55,8783.94l0,-1950" />
          <path d="M213556.55,6833.94l-150,0" />
          <path d="M213406.55,6833.94l0,1950" />
          <path d="M213556.55,5333.94l-150,0" />
          <path d="M213406.55,5333.94l0,1500" class="cnc-2" />
          <path d="M213556.55,6833.94l0,-1500" class="cnc-2" />
          <path d="M211356.55,9183.94l1600,0" />
          <path d="M211281.55,9383.94l1675,0" />
          <path d="M205156.55,4683.94l6125,0" />
          <path d="M205156.55,4883.94l6050,0" />
          <path d="M205156.55,4683.94l0,200" />
          <use xlink:href="#$lvtry$00000193" x="211376.55" y="7383.94" transform="rotate(-90,211376.55,7383.94)">.</use>
          <use xlink:href="#$lvtry$00000193" x="211376.55" y="6683.94" transform="rotate(-90,211376.55,6683.94)">.</use>
          <path d="M205656.55,9183.94l5550,0" />
          <path d="M205656.55,9383.94l5625,0" />
          <path d="M211356.55,9183.94l0,-149.67" />
          <path d="M211356.55,9034.27l-150,0" />
          <path d="M211206.55,9034.27l0,149.67" />
          <path d="M211206.55,6833.94l0,1400.33" />
          <path d="M211206.55,8234.27l150,0" />
          <path d="M211356.55,8234.27l0,-1475.33" />
          <use xlink:href="#$DorLib2D$00000228" x="264.102" y="10.793" transform="scale(800,800) scale(-1,-1) translate(-528.2,-21.59) rotate(-90,264.1,10.79)" stroke-width="0.0001%">.<g class="blkclass0"><text transform="rotate(-90 -329.81,445) translate(-329.81,445)" font-size="386.75">M0821</text></g></use>
          <path d="M211281.55,4683.94l1975,0" />
          <path d="M211356.55,4883.94l1900,0" />
          <use xlink:href="#$DorLib2D$00000231" x="140.471" y="16.589" transform="scale(1500,1500) scale(1,-1) translate(0,-33.18) rotate(-180,140.47,16.59)" stroke-width="0.0001%">.</use>
          <path d="M208356.55,25833.94l4900,0" />
          <path d="M208156.55,26033.94l5100,0" />
          <path d="M205656.55,17433.94l7300,0" />
          <path d="M205656.55,17583.94l7300,0" />
          <path d="M215556.55,17083.94l0,-640" />
          <path d="M215556.55,16443.94l-200,0" />
          <path d="M215356.55,16443.94l0,840" />
          <path d="M215356.55,8833.94l0,950" />
          <path d="M215356.55,9783.94l200,0" />
          <path d="M215556.55,9783.94l0,-750" />
          <path d="M215556.55,14943.94l0,-3660" />
          <path d="M215556.55,11283.94l-200,0" />
          <path d="M215356.55,11283.94l0,3660" />
          <path d="M215356.55,14943.94l200,0" />
          <path d="M215556.55,9033.94l150,0" />
          <path d="M215706.55,9033.94l0,-200" />
          <path d="M215706.55,8833.94l-150,0" />
          <path d="M218856.55,8833.94l-150,0" />
          <path d="M218706.55,8833.94l0,200" />
          <path d="M218706.55,9033.94l150,0" />
          <path d="M218856.55,9033.94l0,-200" />
          <use xlink:href="#$DorLib2D$00000228" x="240.174" y="9.927" transform="scale(900,900) scale(-1,1) translate(-480.35,0)" stroke-width="0.0001%">.<g class="blkclass0"><text transform="translate(548.14,630.28)" font-size="386.75">MC3027</text></g></use>
          <use xlink:href="#$WINLIB2D$00000001_2100x200" x="217656.55" y="8933.94" transform="scale(1,-1) translate(0,-17867.88)">.</use>
          <path d="M215556.55,8833.94l0,-2400" />
          <path d="M215556.55,6433.94l-200,0" />
          <path d="M215356.55,6433.94l0,2400" />
          <path d="M215356.55,5333.94l0,200" />
          <path d="M215356.55,5533.94l200,0" />
          <path d="M215556.55,5533.94l0,-200" />
          <use xlink:href="#$DorLib2D$00000228" x="264.102" y="6.792" transform="scale(800,800) scale(1,-1) translate(0,-13.58) rotate(-270,264.1,6.79)" stroke-width="0.0001%">.<g class="blkclass0"><text transform="rotate(-90 -329.81,441.86) translate(-329.81,441.86)" font-size="386.75">M0821</text></g></use>
          <use xlink:href="#$lvtry$00000202" x="210756.55" y="7033.94">.</use>
          <use xlink:href="#$lvtry$00000202" x="209856.55" y="7033.94">.</use>
          <use xlink:href="#$lvtry$00000202" x="208956.55" y="7033.94">.</use>
          <use xlink:href="#$lvtry$00000202" x="208056.55" y="7033.94">.</use>
          <path d="M210319.05,6833.94l0,1187.5" />
          <path d="M210294.05,6833.94l0,1187.5" />
          <path d="M210319.05,6833.94l-25,0" />
          <path d="M211206.55,8021.44l-150,0" />
          <path d="M211056.55,8021.44l0,25" />
          <path d="M211056.55,8046.44l150,0" />
          <path d="M211206.55,8046.44l0,-25" />
          <path d="M210306.55,8046.44l150,0" />
          <path d="M210456.55,8046.44l0,-25" />
          <path d="M210456.55,8021.44l-137.5,0" />
          <use xlink:href="#$TCHSYS$APDOOR2D" x="351.261" y="13.39" transform="scale(600,600) rotate(-180,351.26,13.39)" stroke-width="0.0002%">.</use>
          <path d="M209419.05,6833.94l0,1187.5" />
          <path d="M209394.05,6833.94l0,1187.5" />
          <path d="M209419.05,6833.94l-25,0" />
          <path d="M210294.05,8021.44l-137.5,0" />
          <path d="M210156.55,8021.44l0,25" />
          <path d="M210156.55,8046.44l150,0" />
          <path d="M209406.55,8046.44l150,0" />
          <path d="M209556.55,8046.44l0,-25" />
          <path d="M209556.55,8021.44l-137.5,0" />
          <use xlink:href="#$TCHSYS$APDOOR2D" x="349.761" y="13.39" transform="scale(600,600) rotate(-180,349.76,13.39)" stroke-width="0.0002%">.</use>
          <path d="M208519.05,6833.94l0,1187.5" />
          <path d="M208494.05,6833.94l0,1187.5" />
          <path d="M208519.05,6833.94l-25,0" />
          <path d="M209394.05,8021.44l-137.5,0" />
          <path d="M209256.55,8021.44l0,25" />
          <path d="M209256.55,8046.44l150,0" />
          <path d="M208506.55,8046.44l150,0" />
          <path d="M208656.55,8046.44l0,-25" />
          <path d="M208656.55,8021.44l-137.5,0" />
          <use xlink:href="#$TCHSYS$APDOOR2D" x="348.261" y="13.39" transform="scale(600,600) rotate(-180,348.26,13.39)" stroke-width="0.0002%">.</use>
          <path d="M207622.05,6833.94l0,1187.5" />
          <path d="M207597.05,6833.94l0,1187.5" />
          <path d="M207622.05,6833.94l-25,0" />
          <path d="M208494.05,8021.44l-137.5,0" />
          <path d="M208356.55,8021.44l0,25" />
          <path d="M208356.55,8046.44l150,0" />
          <path d="M207609.55,8046.44l147,0" />
          <path d="M207756.55,8046.44l0,-25" />
          <path d="M207756.55,8021.44l-134.5,0" />
          <use xlink:href="#$TCHSYS$APDOOR2D" x="346.761" y="13.39" transform="scale(600,600) rotate(-180,346.76,13.39)" stroke-width="0.0002%">.</use>
          <use xlink:href="#$lvtry$00000222" x="214445.459" y="7872.217" transform="scale(0.98,0.83) rotate(-180,214445.46,7872.22)" stroke-width="0.0918%">.</use>
          <use xlink:href="#$lvtry$00000222" x="213731.173" y="7872.217" transform="scale(0.98,0.83) rotate(-180,213731.17,7872.22)" stroke-width="0.0918%">.</use>
          <use xlink:href="#$lvtry$00000222" x="213016.888" y="7872.217" transform="scale(0.98,0.83) rotate(-180,213016.89,7872.22)" stroke-width="0.0918%">.</use>
          <path d="M210494.05,6533.94l0,-400" />
          <path d="M210519.05,6533.94l0,-400" />
          <path d="M210494.05,6533.94l25,0" />
          <path d="M210494.05,6133.94l25,0" />
          <path d="M209794.05,6533.94l0,-400" />
          <path d="M209819.05,6533.94l0,-400" />
          <path d="M209794.05,6533.94l25,0" />
          <path d="M209794.05,6133.94l25,0" />
          <path d="M209094.05,6533.94l0,-400" />
          <path d="M209119.05,6533.94l0,-400" />
          <path d="M209094.05,6533.94l25,0" />
          <path d="M209094.05,6133.94l25,0" />
          <path d="M208394.05,6533.94l0,-400" />
          <path d="M208419.05,6533.94l0,-400" />
          <path d="M208394.05,6533.94l25,0" />
          <path d="M208394.05,6133.94l25,0" />
          <use xlink:href="#$lvtry$00000188" x="210907.03" y="6533.94" transform="rotate(-180,210907.03,6533.94)">.</use>
          <use xlink:href="#$lvtry$00000188" x="205461.38" y="7383.06" transform="rotate(-180,205461.38,7383.06)">.</use>
          <use xlink:href="#$lvtry$00000202" x="205356.55" y="5333.94" transform="rotate(-90,205356.55,5333.94)">.</use>
          <use xlink:href="#$lvtry$00000202" x="205356.55" y="6233.94" transform="rotate(-90,205356.55,6233.94)">.</use>
          <path d="M205156.55,5771.44l1187.5,0" />
          <path d="M205156.55,5796.44l1187.5,0" />
          <path d="M205156.55,5771.44l0,25" />
          <path d="M206344.05,4883.94l0,150" />
          <path d="M206344.05,5033.94l25,0" />
          <path d="M206369.05,5033.94l0,-150" />
          <path d="M206369.05,4883.94l-25,0" />
          <path d="M206369.05,5783.94l0,-150" />
          <path d="M206369.05,5633.94l-25,0" />
          <path d="M206344.05,5633.94l0,137.5" />
          <use xlink:href="#$TCHSYS$APDOOR2D" x="343.928" y="8.89" transform="scale(600,600) rotate(-270,343.93,8.89)" stroke-width="0.0002%">.</use>
          <path d="M206344.05,5796.44l0,137.5" />
          <path d="M206344.05,5933.94l25,0" />
          <path d="M206369.05,5933.94l0,-150" />
          <path d="M206369.05,6683.94l0,-150" />
          <path d="M206369.05,6533.94l-25,0" />
          <path d="M206344.05,6533.94l0,150" />
          <use xlink:href="#$TCHSYS$APDOOR2D" x="343.928" y="10.39" transform="scale(600,600) rotate(-270,343.93,10.39)" stroke-width="0.0002%">.</use>
          <use xlink:href="#$lvtry$00000222" x="212302.602" y="7872.217" transform="scale(0.98,0.83) rotate(-180,212302.6,7872.22)" stroke-width="0.0918%">.</use>
          <path d="M207694.05,6533.94l0,-400" />
          <path d="M207719.05,6533.94l0,-400" />
          <path d="M207694.05,6533.94l25,0" />
          <path d="M207694.05,6133.94l25,0" />
          <use xlink:href="#$lvtry$00000202" x="207159.55" y="7033.94">.</use>
          <path d="M206725.05,6833.94l0,1187.5" />
          <path d="M206700.05,6833.94l0,1187.5" />
          <path d="M206725.05,6833.94l-25,0" />
          <path d="M207597.05,8021.44l-137.5,0" />
          <path d="M207459.55,8021.44l0,25" />
          <path d="M207459.55,8046.44l150,0" />
          <path d="M206712.55,8046.44l147,0" />
          <path d="M206859.55,8046.44l0,-25" />
          <path d="M206859.55,8021.44l-134.5,0" />
          <use xlink:href="#$TCHSYS$APDOOR2D" x="345.266" y="13.39" transform="scale(600,600) rotate(-180,345.27,13.39)" stroke-width="0.0002%">.</use>
          <use xlink:href="#$lvtry$00000202" x="206262.55" y="7033.94">.</use>
          <path d="M205828.05,6833.94l0,1187.5" />
          <path d="M205803.05,6833.94l0,1212.5" />
          <path d="M205828.05,6833.94l-25,0" />
          <path d="M206700.05,8021.44l-137.5,0" />
          <path d="M206562.55,8021.44l0,25" />
          <path d="M206562.55,8046.44l150,0" />
          <path d="M205803.05,8046.44l159.5,0" />
          <path d="M205962.55,8046.44l0,-25" />
          <path d="M205962.55,8021.44l-134.5,0" />
          <use xlink:href="#$TCHSYS$APDOOR2D" x="343.771" y="13.39" transform="scale(600,600) rotate(-180,343.77,13.39)" stroke-width="0.0002%">.</use>
          <path d="M205156.55,6683.94l1200,0" />
          <path d="M205156.55,6833.94l1200,0" />
          <path d="M205156.55,6683.94l0,150" />
          <path d="M211356.55,6758.94l0,-925.19" />
          <path d="M211356.55,5833.75l-150,0" />
          <path d="M211206.55,5833.75l0,850.19" />
          <path d="M211206.55,4883.94l0,149.81" />
          <path d="M211206.55,5033.75l150,0" />
          <path d="M211356.55,5033.75l0,-149.81" />
          <path d="M206356.55,6683.94l4850,0" />
          <path d="M206356.55,6833.94l4850,0" />
          <path d="M206956.55,30466.44l1950,0l300,0" />
          <path d="M206956.55,32151.44l5325,0l0,-1685l-2475,0l-300,0" />
          <path d="M207106.55,29683.94l1740.49,0" />
          <path d="M208962.51,29683.94l2344.04,0" />
          <path d="M207106.55,29683.94l0,1505" />
          <path d="M207406.55,29683.94l0,1505" />
          <path d="M207706.55,29683.94l0,1505" />
          <path d="M208006.55,29683.94l0,1505" />
          <path d="M208306.55,29683.94l0,1505" />
          <path d="M208606.55,29683.94l0,1505" />
          <path d="M208906.55,29787.02l0,1401.92" />
          <path d="M209206.55,29683.94l0,422.69" />
          <path d="M209206.55,30306.63l0,882.31" />
          <path d="M209506.55,29683.94l0,942.31" />
          <path d="M209506.55,30826.25l0,362.69" />
          <path d="M209806.55,29683.94l0,1461.92" />
          <path d="M210106.55,29683.94l0,1505" />
          <path d="M210406.55,29683.94l0,1505" />
          <path d="M210706.55,29683.94l0,1505" />
          <path d="M211006.55,29683.94l0,1505" />
          <path d="M211306.55,29683.94l0,1505" />
          <path d="M207106.55,31248.94l2644.04,0" />
          <path d="M209866.06,31248.94l1440.49,0" />
          <path d="M208962.51,29683.94l399.12,691.3" />
          <path d="M208847.04,29683.94l414.59,718.1" />
          <path d="M209261.63,30402.04l172.35,-46.18" />
          <path d="M209433.98,30355.85l-172.89,206.04" />
          <path d="M209261.09,30561.9l180.4,-48.34" />
          <path d="M209441.49,30513.56l424.57,735.38" />
          <path d="M209341.49,30540.36l409.1,708.58" />
          <path d="M211306.55,32933.94l-4200,0" />
          <path d="M211306.55,32933.94l0,-1505" />
          <path d="M211006.55,32933.94l0,-1505" />
          <path d="M210706.55,32933.94l0,-1505" />
          <path d="M210406.55,32933.94l0,-1505" />
          <path d="M210106.55,32933.94l0,-1505" />
          <path d="M209806.55,32933.94l0,-1505" />
          <path d="M209506.55,32933.94l0,-1505" />
          <path d="M209206.55,32933.94l0,-1505" />
          <path d="M208906.55,32933.94l0,-1505" />
          <path d="M208606.55,32933.94l0,-1505" />
          <path d="M208306.55,32933.94l0,-1505" />
          <path d="M208006.55,32933.94l0,-1505" />
          <path d="M207706.55,32933.94l0,-1505" />
          <path d="M207406.55,32933.94l0,-1505" />
          <path d="M207106.55,32933.94l0,-1505" />
          <path d="M211306.55,31368.94l-4200,0" />
          <path d="M207046.55,31428.94l0,-240" />
          <path d="M207046.55,31188.94l2669.4,0" />
          <path d="M209831.42,31188.94l1535.13,0" />
          <path d="M211366.55,31188.94l0,240" />
          <path d="M211366.55,31428.94l-4320,0" />
          <path d="M207106.55,31368.94l0,-120" />
          <path d="M207106.55,31248.94l2644.04,0" />
          <path d="M209866.06,31248.94l1440.49,0" />
          <path d="M211306.55,31248.94l0,120" />
          <path d="M211306.55,31368.94l-4200,0" />
          <path d="M211306.55,32933.94l1650,0" />
          <path d="M213256.55,32783.94l0,-3100" />
          <path d="M213256.55,29683.94l-1950,0" />
          <path d="M211306.55,29683.94l0,1505" />
          <path d="M211306.55,31428.94l0,1505" />
          <path d="M211306.55,31248.94l0,120" />
          <path d="M207106.55,31248.94l0,120" />
          <path d="M211456.55,2216.44l-1950,0l-300,0" />
          <path d="M211456.55,3901.44l-5325,0l0,-1685l2475,0l300,0" />
          <path d="M211306.55,1433.94l-2644.04,0" />
          <path d="M208547.04,1433.94l-1440.49,0" />
          <path d="M211306.55,2938.94l0,-1505" />
          <path d="M211006.55,2938.94l0,-1505" />
          <path d="M210706.55,2938.94l0,-1505" />
          <path d="M210406.55,2938.94l0,-1505" />
          <path d="M210106.55,2938.94l0,-1505" />
          <path d="M209806.55,2938.94l0,-1505" />
          <path d="M209506.55,2895.86l0,-1461.92" />
          <path d="M209206.55,2938.94l0,-362.69" />
          <path d="M209206.55,2376.25l0,-942.31" />
          <path d="M208906.55,2938.94l0,-882.31" />
          <path d="M208906.55,1856.63l0,-422.69" />
          <path d="M208606.55,2938.94l0,-1401.92" />
          <path d="M208306.55,2938.94l0,-1505" />
          <path d="M208006.55,2938.94l0,-1505" />
          <path d="M207706.55,2938.94l0,-1505" />
          <path d="M207406.55,2938.94l0,-1505" />
          <path d="M207106.55,2938.94l0,-1505" />
          <path d="M211306.55,2998.94l-1740.49,0" />
          <path d="M209450.59,2998.94l-2344.04,0" />
          <path d="M209450.59,2998.94l-399.12,-691.3" />
          <path d="M209566.06,2998.94l-414.59,-718.1" />
          <path d="M209151.47,2280.84l-172.35,46.18" />
          <path d="M208979.11,2327.03l172.89,-206.04" />
          <path d="M209152.01,2120.98l-180.4,48.34" />
          <path d="M208971.61,2169.32l-424.57,-735.38" />
          <path d="M209071.61,2142.52l-409.1,-708.58" />
          <path d="M207106.55,4683.94l4200,0" />
          <path d="M207106.55,3178.94l0,1505" />
          <path d="M207406.55,3178.94l0,1505" />
          <path d="M207706.55,3178.94l0,1505" />
          <path d="M208006.55,3178.94l0,1505" />
          <path d="M208306.55,3178.94l0,1505" />
          <path d="M208606.55,3178.94l0,1505" />
          <path d="M208906.55,3178.94l0,1505" />
          <path d="M209206.55,3178.94l0,1505" />
          <path d="M209506.55,3178.94l0,1505" />
          <path d="M209806.55,3178.94l0,1505" />
          <path d="M210106.55,3178.94l0,1505" />
          <path d="M210406.55,3178.94l0,1505" />
          <path d="M210706.55,3178.94l0,1505" />
          <path d="M211006.55,3178.94l0,1505" />
          <path d="M211306.55,3178.94l0,1505" />
          <path d="M207106.55,3118.94l4200,0" />
          <path d="M211306.55,3118.94l0,-120" />
          <path d="M211306.55,2998.94l-1740.49,0" />
          <path d="M209450.59,2998.94l-2344.04,0" />
          <path d="M207106.55,2998.94l0,120" />
          <path d="M207106.55,3118.94l4200,0" />
          <path d="M211366.55,3178.94l0,-240" />
          <path d="M211366.55,2938.94l-1835.13,0" />
          <path d="M209415.95,2938.94l-2369.4,0" />
          <path d="M207046.55,2938.94l0,240" />
          <path d="M207046.55,3178.94l4320,0" />
          <path d="M207106.55,1433.94l-1450,0" />
          <path d="M205156.55,1583.94l0,3100" />
          <path d="M205156.55,4683.94l1950,0" />
          <path d="M207106.55,4683.94l0,-1505" />
          <path d="M207106.55,2938.94l0,-1505" />
          <path d="M207106.55,3118.94l0,-120" />
          <path d="M211306.55,2998.94l0,120" />
          <path d="M215456.55,26083.94l600,0m-600,600a600,600 0 0,0 600,-600m300,1500a900,900 0 0,0 -900,-900m900,900l-900,0" />
          <path d="M215356.55,28783.94l0,600m-600,-600a600,600 0 0,0 600,600m-1500,300a900,900 0 0,0 900,-900m-900,900l0,-900" />
        </g>
      </g>
      <g id="assets" fill="none">
        <g id="rm-assets" class="rm-asset">
          <path id="14008;F05;506-508" d="M208356.55,26033.94l4898.62,0.64l0,2849.36l2101.38,0l200,0l0,-3600l5500,0l0,300l500,0l0,7200l-500,0l0,500l-7300,0l0,-500l-300,0l0,-3300l-5100,0z" />
          <path id="14008;F05;510" d="M205156.55,16783.94l500,0l0,650l7300,0l0,-650l300,0l0,-7200l-300,0l0,-200l-7300,0l0,200l-500,0l0,7200z" />
          <path id="14008;F05;501-503" d="M215556.55,5333.94l3300,0l0,3700l2200,0l0,550l400,0l100,0l0,7200l-500,0l0,300l-5500,0z" />
          <path id="14008;F05;504-505" d="M215556.55,25083.94l5500,0l0,-300l500,0l0,-7200l-500,0l0,-300l-5500,0z" />
          <path id="14008;F05;509" d="M205156.55,23083.94l8100,0l0,-5500l-8100,0l0,5500z" />
        </g>
      </g>
    </g>
    <g id="text" font-family="Arial" font-size="438.86524822695031" font-weight="normal" text-style="normal" text-anchor="start" dominant-baseline="alphabetical" fill="#FF7F00" xml:space="preserve">
      <g id="layer-bady-text">
        <g transform="rotate(-90 213856.55,3293.3) translate(213856.55,3293.3)" font-size="386.75">
          <text>FM1521</text>
        </g>
        <g transform="rotate(-90 213856.55,2153.3) translate(213856.55,2153.3)">
          <text>乙</text>
        </g>
        <g transform="translate(213747.19,5728.68)" font-size="386.75">
          <text>FM1521</text>
        </g>
        <g transform="translate(214887.19,5728.68)">
          <text>乙</text>
        </g>
        <g transform="translate(205747.19,24738.68)" font-size="386.75">
          <text>FM1521</text>
        </g>
        <g transform="translate(206887.19,24738.68)">
          <text>乙</text>
        </g>
        <g transform="rotate(-90 208019.43,28533.8) translate(208019.43,28533.8)" font-size="386.75">
          <text>FGC1209</text>
        </g>
        <g transform="rotate(-90 208019.43,27173.8) translate(208019.43,27173.8)">
          <text>甲</text>
        </g>
        <g transform="translate(205447.19,29438.68)" font-size="386.75">
          <text>FM1521</text>
        </g>
        <g transform="translate(206587.19,29438.68)">
          <text>乙</text>
        </g>
        <g transform="translate(219991.52,-24.16)" font-size="386.75" fill="#000000" stroke="#000000" stroke-width="0.02">
          <text>-0.300</text>
        </g>
        <g transform="rotate(-90 213980.3,6493.94) translate(213980.3,6493.94)" font-size="386.75">
          <text>D1521</text>
        </g>
        <g transform="translate(209874.51,24058.43)" font-size="386.75">
          <text>FM1521</text>
        </g>
        <g transform="translate(211014.51,24058.43)">
          <text>乙</text>
        </g>
        <g transform="translate(210546.73,25641.82)" font-size="626.95">
          <text>电井</text>
        </g>
        <g transform="translate(206643.04,30641.44)" fill="#000000" stroke="#000000" stroke-width="0.02">
          <text>上</text>
        </g>
        <g transform="translate(206661.65,32326.44)" fill="#000000" stroke="#000000" stroke-width="0.02">
          <text>下</text>
        </g>
        <g transform="translate(211561.55,2391.44)" fill="#000000" stroke="#000000" stroke-width="0.02">
          <text>上</text>
        </g>
        <g transform="translate(211561.55,4076.44)" fill="#000000" stroke="#000000" stroke-width="0.02">
          <text>下</text>
        </g>
      </g>
    </g>
    <g id="asset-labels" font-family="Arial" font-weight="bold" font-size="38.1em" text-anchor="middle">
      <g id="rm-labels">
        <g id="l-rm-14008;F05;506-508" transform="translate(214956.55,29283.94)">
          <text>506-508</text>
        </g>
        <g id="l-rm-14008;F05;510" transform="translate(209206.55,13408.94)">
          <text>510</text>
        </g>
        <g id="l-rm-14008;F05;501-503" transform="translate(218556.55,11208.94)">
          <text>501-503</text>
        </g>
        <g id="l-rm-14008;F05;504-505" transform="translate(218556.55,21183.94)">
          <text>504-505</text>
        </g>
        <g id="l-rm-14008;F05;509" transform="translate(209206.55,20333.94)">
          <text>509</text>
        </g>
      </g>
    </g>
  </g>
</svg>