<svg version="1.1" xmlns="http://www.w3.org/2000/svg" xmlns:xlink="http://www.w3.org/1999/xlink" viewBox="203698.57 60033.89 17479 33284">
  <style>.i0 { stroke:#000000;   } .bady { stroke:#ff7f00;   } .rm { stroke:#00ffff;   } .axis_text { stroke:#000000;   } .pub_wall { stroke:#c0c0c0;   } .pub_hatch { stroke:#808080;   } .rm-asset { stroke:#0000ff;   fill:#EEEEEE; fill-opacity:1;} .rmtc-asset { stroke:#0000ff;   } .rmtc { stroke:#00ffff;   } .rm-assettxt { stroke:#0000ff;   } .rmtc-assettxt { stroke:#0000ff;   } .cnc-0 { stroke:#ff7f00;  stroke-dasharray:0; fill:#cccccc; fill-opacity:1;} .cnc-1 { stroke:#ff7f00;  stroke-dasharray:0; } .cnc-2 { stroke:#ff7f00;  stroke-dasharray:0; } .cnc-3 { stroke:#000000;  stroke-dasharray:0; } .cnc-4 { stroke:#000000;  stroke-dasharray:0; } .blkclass0 { stroke:#ff7f00;  stroke-width:0.02;  fill:#ff7f00; fill-opacity:1; font-family:Arial; font-size:386.75; font-weight:normal; text-style:normal; text-anchor:start;}</style>
  <view id="defaultView" viewBox="203698.57 60033.89 17479 33284" />
  <defs>
    <symbol id="_FZH" overflow="visible" class="i0">
      <path d="M-0.5,0.5l1,0l0,-1l-1,0z" />
    </symbol>
    <symbol id="$WINLIB2D$00000001_1800x300" overflow="visible" class="i0">
      <path d="M900,150l0,-300" />
      <path d="M-900,-150l0,300" />
      <path d="M900,-50l-1800,0" />
      <path d="M900,50l-1800,0" />
      <path d="M-900,150l1800,0" />
      <path d="M-900,-150l1800,0" />
    </symbol>
    <symbol id="$WINLIB2D$00000001_7200x300" overflow="visible" class="i0">
      <path d="M3600,150l0,-300" />
      <path d="M-3600,-150l0,300" />
      <path d="M3600,-50l-7200,0" />
      <path d="M3600,50l-7200,0" />
      <path d="M-3600,150l7200,0" />
      <path d="M-3600,-150l7200,0" />
    </symbol>
    <symbol id="$WINLIB2D$00000001_1500x300" overflow="visible" class="i0">
      <path d="M750,150l0,-300" />
      <path d="M-750,-150l0,300" />
      <path d="M750,-50l-1500,0" />
      <path d="M750,50l-1500,0" />
      <path d="M-750,150l1500,0" />
      <path d="M-750,-150l1500,0" />
    </symbol>
    <symbol id="$DorLib2D$00000127_1100x250" overflow="visible" class="i0">
      <path d="M550,-125l-1100,0" />
      <path d="M36.67,-198.72l0,26.12" />
      <path d="M-36.67,-198.72l-550,0" />
      <path d="M-36.67,-172.6l-550,0" />
      <path d="M-36.67,-198.72l0,26.12" />
      <path d="M586.67,-198.72l0,26.12" />
      <path d="M-586.67,-198.72l0,26.12" />
      <path d="M586.67,-172.6l-550,0" />
      <path d="M586.67,-198.72l-550,0" />
    </symbol>
    <symbol id="$DorLib2D$00000231" overflow="visible" class="i0">
      <path d="M-0.5,0l0.25,-0.43" />
      <path d="M-0.25,-0.43a0.5,0.5 0 0,1 0.25,0.43" />
      <path d="M0,0a0.5,0.5 0 0,1 0.25,-0.43" />
      <path d="M0.5,0l-0.25,-0.43" />
    </symbol>
    <symbol id="$WINLIB2D$00000001_900x250" overflow="visible" class="i0">
      <path d="M450,125l0,-250" />
      <path d="M-450,-125l0,250" />
      <path d="M450,-41.67l-900,0" />
      <path d="M450,41.67l-900,0" />
      <path d="M-450,125l900,0" />
      <path d="M-450,-125l900,0" />
    </symbol>
    <symbol id="$DorLib2D$00000228" overflow="visible" class="i0">
      <path d="M-0.5,0a1,1 0 0,1 0.5,-0.87" />
      <path d="M0.5,0l-0.5,-0.87" />
    </symbol>
    <symbol id="$lvtry$00000193" overflow="visible" class="i0">
      <circle r="20" cy="200" />
      <path d="M-24.71,84.86a166.25,166.25 0 0,1 28.52,-25.84" />
      <path d="M-24.71,84.85a6.77,6.77 0 0,1 -10.36,-8.14" />
      <path d="M-16.69,42.9a166.25,166.25 0 0,1 -18.37,33.81" />
      <path d="M9.2,99.6a9.9,9.9 0 0,1 -18.4,0" />
      <path d="M9.2,99.6a372.22,372.22 0 0,1 5.21,-48.41" />
      <path d="M14.41,51.19a172.58,172.58 0 0,1 27.83,-7.78" />
      <path d="M43.06,23.92a10.06,10.06 0 0,1 -0.82,19.49" />
      <path d="M-42.24,43.41a10.06,10.06 0 0,1 -0.82,-19.49" />
      <path d="M-11.46,71.35a372.22,372.22 0 0,1 2.26,28.25" />
      <path d="M-42.24,43.41a172.58,172.58 0 0,1 22.78,5.99" />
      <circle r="16.692" cy="42.77" />
      <path d="M-27.27,82.62a169.65,169.65 0 0,1 13.49,-13.76" />
      <path d="M-13.78,68.86a10.6,10.6 0 0,1 -8.32,-6.54" />
      <path d="M-22.1,62.32a169.65,169.65 0 0,1 -10.18,16.35" />
      <path d="M-26.82,82.18a3.37,3.37 0 0,1 -5.15,-4.05" />
      <path d="M-16.69,42.77l0,-9.84" />
      <path d="M16.69,42.77l0,-9.84" />
      <path d="M43.06,23.92a258.71,258.71 0 0,1 -34.21,-5.14" />
      <path d="M-8.85,18.78a258.71,258.71 0 0,1 -34.21,5.14" />
      <path d="M-16.69,32.93a16.69,16.69 0 0,1 33.38,0" />
      <path d="M-25.26,61.02a313.49,313.49 0 0,0 -69.75,13.73m0,0a237.05,237.05 0 0,0 -72.52,37.88m0.01,0a178.75,178.75 0 0,0 -48.46,56.91m-0.01,0a116.81,116.81 0 0,0 -14,55.46a116.81,116.81 0 0,0 14,55.46m0.01,0a178.75,178.75 0 0,0 48.46,56.91m-0.01,0a237.05,237.05 0 0,0 72.52,37.88m0,0a313.49,313.49 0 0,0 95.02,14.75a313.49,313.49 0 0,0 95.02,-14.75m0,0a237.05,237.05 0 0,0 72.52,-37.88m-0.01,0a178.75,178.75 0 0,0 48.46,-56.91m0.01,0a116.81,116.81 0 0,0 14,-55.46a116.81,116.81 0 0,0 -14,-55.46m-0.01,0a178.75,178.75 0 0,0 -48.46,-56.91m0.01,0a237.05,237.05 0 0,0 -72.52,-37.88m0,0a313.49,313.49 0 0,0 -82.08,-14.48" class="cnc-3" />
      <path d="M280,215a166.81,166.81 0 0,0 -20,-79.2m-0.01,0a228.75,228.75 0 0,0 -62.01,-72.83m0.01,0a287.05,287.05 0 0,0 -87.82,-45.87m0,0a363.49,363.49 0 0,0 -110.17,-17.1a363.49,363.49 0 0,0 -110.17,17.1m0,0a287.05,287.05 0 0,0 -87.82,45.87m0.01,0a228.75,228.75 0 0,0 -62.01,72.83m-0.01,0a166.81,166.81 0 0,0 -20,79.2a166.81,166.81 0 0,0 20,79.2m0.01,0a228.75,228.75 0 0,0 62.01,72.83m-0.01,0a287.05,287.05 0 0,0 87.82,45.87m0,0a363.49,363.49 0 0,0 110.17,17.1a363.49,363.49 0 0,0 110.17,-17.1m0,0a287.05,287.05 0 0,0 87.82,-45.87m-0.01,0a228.75,228.75 0 0,0 62.01,-72.83m0.01,0a166.81,166.81 0 0,0 20,-79.2" class="cnc-3" />
    </symbol>
    <symbol id="$lvtry$00000202" overflow="visible" class="i0">
      <path d="M139.78,40a40,40 0 0,0 -40,-40m0,0l-199.57,0m0,0a40,40 0 0,0 -40,40m0,0l0,439.66m0,0a110,110 0 0,0 110,110m0,0l59.57,0m0,0a110,110 0 0,0 110,-110m0,0l0,-439.66" class="cnc-3" />
      <path d="M99.78,30a10,10 0 0,1 10,10" />
      <path d="M-109.78,40a10,10 0 0,1 10,-10" />
      <path d="M99.78,30l-199.57,0" />
      <circle r="20" cy="358.61" />
      <path d="M139.78,469.66l-279.57,0" />
      <path d="M109.78,469.66l0,-429.66" />
      <path d="M-109.78,40l0,429.66" />
    </symbol>
    <symbol id="$TCHSYS$APDOOR2D" overflow="visible" class="i0">
      <path d="M0.5,0l-0.5,-0.87" />
      <path d="M-0.5,0a1,1 0 0,1 0.5,-0.87" />
    </symbol>
    <symbol id="$lvtry$00000222" overflow="visible" class="i0">
      <path d="M-205,190.69l0,-190.69l410,0l0,190.69m0,0a203.43,203.43 0 0,0 -154.23,132.77m-50.77,36.19a54,54 0 0,0 50.77,-36.18m-101.53,0a54,54 0 0,0 50.77,36.18m-50.77,-36.19a203.43,203.43 0 0,0 -154.23,-132.77" class="cnc-3" />
      <path d="M22.45,323.92a233.43,233.43 0 0,1 138.63,-141.65" />
      <path d="M-155.89,184.28a233.43,233.43 0 0,1 133.44,139.64" />
      <circle r="20" cy="241.62" />
      <path d="M22.45,323.92a24,24 0 0,1 -22.45,16.08" />
      <path d="M0,340a24,24 0 0,1 -22.45,-16.08" />
      <path d="M-156.25,165.88a395,395 0 0,1 317.79,-2.15" />
      <path d="M-155.89,184.29a10,10 0 0,1 -0.36,-18.41" />
      <circle r="20" cx="-0.03" cy="60.43" />
      <path d="M161.54,163.73a10,10 0 0,1 -0.46,18.55" />
    </symbol>
    <symbol id="$lvtry$00000188" overflow="visible" class="i0">
      <path d="M262.08,174.72a74.88,74.88 0 0,0 -74.88,-74.88" class="cnc-4" />
      <path d="M-262.08,0a37.44,37.44 0 0,0 -37.44,37.44l0,474.24a37.44,37.44 0 0,0 37.44,37.44l524.16,0a37.44,37.44 0 0,0 37.44,-37.44l0,-474.24a37.44,37.44 0 0,0 -37.44,-37.44l-524.16,0" class="cnc-4" />
      <path d="M31.2,99.84l156,0" />
      <circle r="24.96" cx="-80.35" cy="62.4" />
      <path d="M-38.06,49.92l76.12,0" />
      <path d="M-41.02,53.41a3,3 0 0,1 2.96,-3.49" />
      <path d="M38.06,49.92a3,3 0 0,1 2.96,3.49" />
      <circle r="19.96" cx="-80.35" cy="62.4" />
      <circle r="19.96" cx="80.35" cy="62.4" />
      <circle r="24.96" cx="80.35" cy="62.4" />
      <circle r="37.44" cy="299.52" />
      <path d="M-12.48,224.64l24.96,0" />
      <path d="M262.08,436.8a74.88,74.88 0 0,1 -74.88,74.88" />
      <path d="M262.08,174.72l0,262.08" />
      <path d="M-41.02,53.41l28.54,171.23" />
      <path d="M12.48,224.64l28.54,-171.23" />
      <path d="M-262.08,174.72a74.88,74.88 0 0,1 74.88,-74.88" />
      <path d="M-187.2,511.68a74.88,74.88 0 0,1 -74.88,-74.88" />
      <path d="M-262.08,436.8l0,-262.08" />
      <path d="M187.2,511.68l-374.4,0" />
      <path d="M-187.2,99.84l156,0" />
    </symbol>
    <symbol id="$WINLIB2D$00000001_2100x200" overflow="visible" class="i0">
      <path d="M1050,100l0,-200" />
      <path d="M-1050,-100l0,200" />
      <path d="M1050,-33.33l-2100,0" />
      <path d="M1050,33.33l-2100,0" />
      <path d="M-1050,100l2100,0" />
      <path d="M-1050,-100l2100,0" />
    </symbol>
  </defs>
  <g id="viewer">
    <g id="mirror" transform="scale(1, 1)" stroke-width="0.09%">
      <g id="background" fill="none">
        <g id="layer-bady-fills" class="cnc-0">
          <path d="M216213.23,62967.09l1523.21,0l0,1716.73l-1523.21,0z" />
          <path d="M217818.03,63264.99l266.68,0l0,1048.11l-266.68,0z" />
          <path d="M216213.23,60867.09l1523.21,0l0,1716.73l-1523.21,0z" />
          <path d="M217818.03,61164.99l266.68,0l0,1048.11l-266.68,0z" />
          <path d="M210660.38,67627.7l0,-1800l600,0l0,1800z" />
          <path d="M214860.38,76777.7l200,0l0,200l-200,0z" />
          <path d="M216060.38,76777.7l200,0l0,200l-200,0z" />
        </g>
        <g id="layer-RM-fills" class="rm">
          <path d="M207660.38,84677.7l0,850l4900,0l0,-250l-300,0l0,-600z" />
          <path d="M214860.38,68727.7l5500,0l0,550l500,0l0,7200l-500,0l0,300l-5500,0l0,-8050z" />
          <path d="M214860.38,65027.7l3300,0l0,3500l-3300,0z" />
          <path d="M216060.38,60777.7l2100,0l0,1900l-2100,0z" />
          <path d="M216060.38,62877.7l2100,0l0,1900l-2100,0z" />
          <path d="M214860.38,76977.7l5500,0l0,300l500,0l0,3445l-6000,0z" />
        </g>
        <g id="layer-bady" class="cnc-1">
          <path d="M217736.44,62967.09l-1523.21,1716.73" />
          <path d="M216213.23,62967.09l1523.21,1716.73" />
          <path d="M217736.44,60867.09l-1523.21,1716.73" />
          <path d="M216213.23,60867.09l1523.21,1716.73" />
          <path d="M212260.38,84677.7l-4342.23,276.7l-257.77,573.3" />
          <use xlink:href="#_FZH" x="265.825" y="96.097" transform="scale(800,800)" stroke-width="0.0001%">.</use>
          <use xlink:href="#_FZH" x="265.825" y="86.097" transform="scale(800,800)" stroke-width="0.0001%">.</use>
          <use xlink:href="#_FZH" x="265.825" y="106.097" transform="scale(800,800)" stroke-width="0.0001%">.</use>
          <use xlink:href="#_FZH" x="265.825" y="116.097" transform="scale(800,800)" stroke-width="0.0001%">.</use>
          <use xlink:href="#_FZH" x="265.825" y="76.097" transform="scale(800,800)" stroke-width="0.0001%">.</use>
          <use xlink:href="#_FZH" x="275.95" y="116.097" transform="scale(800,800)" stroke-width="0.0001%">.</use>
          <use xlink:href="#_FZH" x="275.95" y="106.097" transform="scale(800,800)" stroke-width="0.0001%">.</use>
          <use xlink:href="#_FZH" x="275.95" y="96.097" transform="scale(800,800)" stroke-width="0.0001%">.</use>
          <use xlink:href="#_FZH" x="275.95" y="86.097" transform="scale(800,800)" stroke-width="0.0001%">.</use>
          <use xlink:href="#_FZH" x="255.7" y="96.097" transform="scale(800,800)" stroke-width="0.0001%">.</use>
          <use xlink:href="#_FZH" x="255.7" y="86.097" transform="scale(800,800)" stroke-width="0.0001%">.</use>
          <use xlink:href="#_FZH" x="255.7" y="106.097" transform="scale(800,800)" stroke-width="0.0001%">.</use>
          <use xlink:href="#_FZH" x="255.7" y="116.097" transform="scale(800,800)" stroke-width="0.0001%">.</use>
          <use xlink:href="#_FZH" x="255.7" y="76.097" transform="scale(800,800)" stroke-width="0.0001%">.</use>
          <path d="M212260.38,60777.7l-7300,0" />
          <path d="M212260.38,60477.7l-7300,0" />
          <path d="M204460.38,92477.7l0,-800" />
          <path d="M204460.38,91677.7l-300,0" />
          <path d="M204160.38,91677.7l0,800" />
          <path d="M204160.38,85277.7l0,800" />
          <path d="M204160.38,86077.7l300,0" />
          <path d="M204460.38,86077.7l0,-800" />
          <path d="M204460.38,89877.7l0,-2000" />
          <path d="M204460.38,87877.7l-300,0" />
          <path d="M204160.38,87877.7l0,2000" />
          <path d="M204160.38,89877.7l300,0" />
          <use xlink:href="#$WINLIB2D$00000001_1800x300" x="204310.38" y="90777.7" transform="scale(-1,-1) translate(-408620.76,-181555.4) rotate(-90,204310.38,90777.7)">.<g class="blkclass0"><text transform="rotate(-90 605.45,455) translate(605.45,455)" font-size="386.75">C1827</text></g></use>
          <use xlink:href="#$WINLIB2D$00000001_1800x300" x="204310.38" y="86977.7" transform="scale(-1,-1) translate(-408620.76,-173955.4) rotate(-90,204310.38,86977.7)">.<g class="blkclass0"><text transform="rotate(-90 549.61,410.87) translate(549.61,410.87)" font-size="386.75">C1818</text></g></use>
          <use xlink:href="#$WINLIB2D$00000001_7200x300" x="204310.38" y="80877.7" transform="scale(-1,1) translate(-408620.76,0) rotate(-270,204310.38,80877.7)">.<g class="blkclass0"><text transform="rotate(-90 573.75,527.1) translate(573.75,527.1)" font-size="386.75">C7221</text></g></use>
          <use xlink:href="#$WINLIB2D$00000001_7200x300" x="204310.38" y="72877.7" transform="scale(-1,1) translate(-408620.76,0) rotate(-270,204310.38,72877.7)">.<g class="blkclass0"><text transform="rotate(-90 573.75,469.72) translate(573.75,469.72)" font-size="386.75">C7221</text></g></use>
          <path d="M204960.38,92977.7l7300,0" />
          <path d="M204960.38,93277.7l7300,0" />
          <path d="M213060.38,92977.7l7300,0" />
          <path d="M213060.38,93277.7l7300,0" />
          <path d="M212260.38,84477.7l-1569.43,0" />
          <path d="M210690.96,84477.7l0,200" />
          <path d="M210690.96,84677.7l1569.43,0" />
          <path d="M207660.38,84677.7l1530.57,0" />
          <path d="M209190.96,84677.7l0,-200" />
          <path d="M209190.96,84477.7l-1530.57,0" />
          <path d="M207660.38,84677.7l0,850" />
          <path d="M207460.38,84677.7l0,1050" />
          <path d="M212560.38,89377.7l0,-800" />
          <path d="M212760.38,89377.7l0,-800" />
          <path d="M212560.38,89377.7l200,0" />
          <path d="M204460.38,68477.7l0,-800" />
          <path d="M204460.38,67677.7l-300,0" />
          <path d="M204160.38,67677.7l0,800" />
          <path d="M204160.38,61277.7l0,800" />
          <path d="M204160.38,62077.7l300,0" />
          <path d="M204460.38,62077.7l0,-800" />
          <path d="M204460.38,65877.7l0,-2000" />
          <path d="M204460.38,63877.7l-300,0" />
          <path d="M204160.38,63877.7l0,2000" />
          <path d="M204160.38,65877.7l300,0" />
          <use xlink:href="#$WINLIB2D$00000001_1800x300" x="204310.38" y="62977.7" transform="scale(-1,1) translate(-408620.76,0) rotate(-270,204310.38,62977.7)">.<g class="blkclass0"><text transform="rotate(-90 573.75,455) translate(573.75,455)" font-size="386.75">C1827</text></g></use>
          <use xlink:href="#$WINLIB2D$00000001_1800x300" x="204310.38" y="66777.7" transform="scale(-1,1) translate(-408620.76,0) rotate(-270,204310.38,66777.7)">.<g class="blkclass0"><text transform="rotate(-90 -300.71,451.48) translate(-300.71,451.48)" font-size="386.75">C1818</text></g></use>
          <path d="M216053.67,60477.7l-893.28,0" />
          <path d="M215160.38,60477.7l0,300" />
          <path d="M215160.38,60777.7l650,0" />
          <path d="M213060.38,60777.7l600,0" />
          <path d="M213660.38,60777.7l0,-300" />
          <path d="M213660.38,60477.7l-600,0" />
          <use xlink:href="#$WINLIB2D$00000001_1500x300" x="214410.38" y="60627.7" transform="scale(-1,1) translate(-428820.76,0) rotate(-180,214410.38,60627.7)">.<g class="blkclass0"><text transform="translate(-410,-276.25)" font-size="386.75">C1521</text></g></use>
          <path d="M215810.38,60777.7l0,400" />
          <path d="M215810.38,61177.7l250,0" />
          <path d="M216060.38,61177.7l0,-400" />
          <path d="M216060.38,62677.7l0,-400" />
          <path d="M216060.38,62277.7l-250,0" />
          <path d="M215810.38,62277.7l0,400" />
          <use xlink:href="#$DorLib2D$00000127_1100x250" x="215935.38" y="61727.7" transform="rotate(-270,215935.38,61727.7)">.</use>
          <path d="M216060.38,64777.7l2100,0" />
          <path d="M215810.38,65027.7l2600,0" />
          <path d="M218160.38,60777.7l-2100,0" />
          <path d="M218410.38,60477.7l-2356.72,0" />
          <path d="M218160.38,64777.7l0,-1900" />
          <path d="M218410.38,65027.7l0,-2350" />
          <path d="M215810.38,62677.7l0,600" />
          <path d="M215810.38,63277.7l250,0" />
          <path d="M216060.38,63277.7l0,-400" />
          <path d="M216060.38,64777.7l0,-400" />
          <path d="M216060.38,64377.7l-250,0" />
          <path d="M215810.38,64377.7l0,650" />
          <use xlink:href="#$DorLib2D$00000127_1100x250" x="215935.38" y="63827.7" transform="rotate(-270,215935.38,63827.7)">.</use>
          <path d="M218160.38,62677.7l0,-1900" />
          <path d="M218410.38,62677.7l0,-2200" />
          <path d="M216060.38,62677.7l2100,0" />
          <path d="M216060.38,62877.7l2100,0" />
          <path d="M218410.38,68477.7l1950,0" />
          <path d="M218160.38,68727.7l2200,0" />
          <path d="M212760.38,64377.7l0,-1300" />
          <path d="M212760.38,63077.7l-200,0" />
          <path d="M212560.38,63077.7l0,1300" />
          <path d="M212560.38,61277.7l0,300" />
          <path d="M212560.38,61577.7l200,0" />
          <path d="M212760.38,61577.7l0,-300" />
          <use xlink:href="#$DorLib2D$00000231" x="141.774" y="41.552" transform="scale(1500,1500) rotate(-90,141.77,41.55)" stroke-width="0.0001%">.</use>
          <path d="M212760.38,82977.7l0,-2199.4" />
          <path d="M212760.38,80778.3l-150,0" />
          <path d="M212610.38,80778.3l0,1999.4" />
          <path d="M212610.38,77277.7l0,2000.6" />
          <path d="M212610.38,79278.3l150,0" />
          <path d="M212760.38,79278.3l0,-2000.6" />
          <path d="M212760.38,76477.7l0,-2900" />
          <path d="M212760.38,73577.7l-200,0" />
          <path d="M212560.38,73577.7l0,2900" />
          <path d="M212560.38,69277.7l0,2800" />
          <path d="M212560.38,72077.7l200,0" />
          <path d="M212760.38,72077.7l0,-2800" />
          <path d="M212760.38,72077.7l0,1500" />
          <path d="M212760.38,73577.7l-200,0" />
          <path d="M212560.38,72077.7l200,0" />
          <path d="M212760.38,73577.7l0,-1500" />
          <path d="M212560.38,65027.7l400,0" />
          <path d="M212960.38,65027.7l0,-250" />
          <path d="M212960.38,64777.7l-200,0" />
          <path d="M214760.38,64777.7l-300,0" />
          <path d="M214460.38,64777.7l0,250" />
          <path d="M214460.38,65027.7l200,0" />
          <use xlink:href="#$DorLib2D$00000231" x="142.474" y="43.268" transform="scale(1500,1500) scale(-1,1) translate(-284.95,0)" stroke-width="0.0001%">.</use>
          <path d="M207660.38,84477.7l-1200,0" />
          <path d="M206460.38,84477.7l0,200" />
          <path d="M206460.38,84677.7l1000,0" />
          <use xlink:href="#$DorLib2D$00000231" x="137.14" y="56.385" transform="scale(1500,1500) scale(-1,1) translate(-274.28,0) rotate(-180,137.14,56.39)" stroke-width="0.0001%">.</use>
          <path d="M212560.38,92477.7l0,-3100" />
          <path d="M212760.38,92477.7l0,-3300" />
          <path d="M212560.38,89377.7l-5000,0" />
          <path d="M212760.38,89177.7l-5100,0" />
          <path d="M207460.38,89177.7l0,-3450" />
          <path d="M207660.38,89177.7l0,-3450" />
          <path d="M207460.38,85727.7l200,0" />
          <path d="M207527.05,88052.7l0,-1200" class="cnc-2" />
          <path d="M207593.72,88052.7l0,-1200" class="cnc-2" />
          <path d="M207460.38,86852.7l200,0" class="cnc-2" />
          <path d="M207460.38,88052.7l200,0" class="cnc-2" />
          <use xlink:href="#$DorLib2D$00000231" x="136.94" y="59.518" transform="scale(1500,1500) scale(-1,1) translate(-273.88,0) rotate(-180,136.94,59.52)" stroke-width="0.0001%">.</use>
          <path d="M218160.38,65027.7l0,200" />
          <path d="M218160.38,65227.7l250,0" />
          <path d="M218410.38,65227.7l0,-200" />
          <path d="M218410.38,65027.7l-250,0" />
          <path d="M218410.38,68477.7l0,-2350" />
          <path d="M218410.38,66127.7l-250,0" />
          <path d="M218160.38,66127.7l0,2600" />
          <use xlink:href="#$WINLIB2D$00000001_900x250" x="218285.38" y="65677.7" transform="scale(-1,1) translate(-436570.76,0) rotate(-90,218285.38,65677.7)">.<g class="blkclass0"><text transform="rotate(-90 -200.24,473.53) translate(-200.24,473.53)" font-size="386.75">C0918</text></g></use>
          <path d="M207460.38,89177.7l-1300,0" />
          <path d="M206160.38,89177.7l0,200" />
          <path d="M206160.38,89377.7l1400,0" />
          <path d="M204460.38,89377.7l200,0" />
          <path d="M204660.38,89377.7l0,-200" />
          <path d="M204660.38,89177.7l-200,0" />
          <path d="M204460.38,89177.7l0,200" />
          <path d="M212560.38,65027.7l0,-450" />
          <path d="M212760.38,64777.7l0,-400" />
          <path d="M220860.38,85277.7l0,800" />
          <path d="M220860.38,86077.7l300,0" />
          <path d="M221160.38,86077.7l0,-800" />
          <path d="M221160.38,92477.7l0,-800" />
          <path d="M221160.38,91677.7l-300,0" />
          <path d="M220860.38,91677.7l0,800" />
          <path d="M220860.38,87877.7l0,2000" />
          <path d="M220860.38,89877.7l300,0" />
          <path d="M221160.38,89877.7l0,-2000" />
          <path d="M221160.38,87877.7l-300,0" />
          <use xlink:href="#$WINLIB2D$00000001_1800x300" x="221010.38" y="90777.7" transform="scale(-1,1) translate(-442020.76,0) rotate(-90,221010.38,90777.7)">.<g class="blkclass0"><text transform="rotate(-90 -276.25,435) translate(-276.25,435)" font-size="386.75">C1810</text></g></use>
          <use xlink:href="#$WINLIB2D$00000001_1800x300" x="221010.38" y="86977.7" transform="scale(-1,1) translate(-442020.76,0) rotate(-90,221010.38,86977.7)">.<g class="blkclass0"><text transform="rotate(-90 -276.25,435) translate(-276.25,435)" font-size="386.75">C1810</text></g></use>
          <use xlink:href="#$WINLIB2D$00000001_7200x300" x="221010.38" y="72877.7" transform="scale(1,-1) translate(0,-145755.4) rotate(-90,221010.38,72877.7)">.<g class="blkclass0"><text transform="rotate(-90 -339.84,469.72) translate(-339.84,469.72)" font-size="386.75">C7221</text></g></use>
          <use xlink:href="#$WINLIB2D$00000001_7200x300" x="221010.38" y="80877.7" transform="scale(1,-1) translate(0,-161755.4) rotate(-90,221010.38,80877.7)">.<g class="blkclass0"><text transform="rotate(-90 -320.92,527.1) translate(-320.92,527.1)" font-size="386.75">C7221</text></g></use>
          <path d="M214860.38,88577.7l0,-1300" />
          <path d="M214860.38,87277.7l-200,0" />
          <path d="M214660.38,87277.7l0,1100" />
          <path d="M214660.38,84977.7l0,800" />
          <path d="M214660.38,85777.7l200,0" />
          <path d="M214860.38,85777.7l0,-800" />
          <path d="M214760.38,64777.7l1050,0" />
          <path d="M214860.38,65027.7l950,0" />
          <path d="M215810.38,64777.7l0,250" />
          <path d="M212560.38,85527.7l0,-250" />
          <path d="M212760.38,85527.7l0,-250" />
          <use xlink:href="#$DorLib2D$00000228" x="236.289" y="95.753" transform="scale(900,900) rotate(-90,236.29,95.75)" stroke-width="0.0001%">.<g class="blkclass0"><text transform="rotate(-90 608.65,445) translate(608.65,445)" font-size="386.75">M0921</text></g></use>
          <path d="M212760.38,82977.7l-8300,0" />
          <path d="M212610.38,82777.7l-8150,0" />
          <path d="M204460.38,82977.7l0,-200" />
          <path d="M212760.38,88377.7l0,-1750" />
          <path d="M212760.38,86627.7l-200,0" />
          <path d="M212560.38,86627.7l0,1950" />
          <path d="M212560.38,85727.7l200,0" />
          <path d="M212760.38,85727.7l0,-200" />
          <path d="M214660.38,88377.7l0,200" />
          <path d="M214660.38,88577.7l200,0" />
          <path d="M212760.38,88577.7l400,0" />
          <path d="M213160.38,88577.7l0,-200" />
          <path d="M213160.38,88377.7l-400,0" />
          <path d="M214660.38,84977.7l0,0" />
          <path d="M214660.38,84777.7l0,0" />
          <path d="M214660.38,84977.7l0,-200" />
          <path d="M214860.38,76777.7l0,-640" />
          <path d="M214860.38,76137.7l-200,0" />
          <path d="M214660.38,76137.7l0,840" />
          <path d="M214660.38,68527.7l0,950" />
          <path d="M214660.38,69477.7l200,0" />
          <path d="M214860.38,69477.7l0,-750" />
          <path d="M214860.38,74637.7l0,-3660" />
          <path d="M214860.38,70977.7l-200,0" />
          <path d="M214660.38,70977.7l0,3660" />
          <path d="M214660.38,74637.7l200,0" />
          <use xlink:href="#$DorLib2D$00000228" x="238.623" y="72.975" transform="scale(900,900) scale(1,-1) translate(0,-145.95) rotate(-270,238.62,72.98)" stroke-width="0.0001%">.<g class="blkclass0"><text transform="rotate(-90 1117.72,445) translate(1117.72,445)" font-size="386.75">M0921</text></g></use>
          <path d="M220360.38,76777.7l-4300,0" />
          <path d="M216060.38,76777.7l0,200" />
          <path d="M216060.38,76977.7l4300,0" />
          <path d="M214860.38,76977.7l200,0" />
          <path d="M215060.38,76977.7l0,-200" />
          <path d="M215060.38,76777.7l-200,0" />
          <use xlink:href="#$DorLib2D$00000228" x="215.56" y="76.878" transform="scale(1000,1000) scale(1,-1) translate(0,-153.76) rotate(-180,215.56,76.88)" stroke-width="0.0001%">.<g class="blkclass0"><text transform="translate(-470,-1024.62)" font-size="386.75">M1027</text></g></use>
          <path d="M204960.38,76477.7l7300,0" />
          <path d="M204960.38,76627.7l7300,0" />
          <path d="M214860.38,80722.7l6000,0" />
          <path d="M214860.38,80872.7l6000,0" />
          <path d="M220860.38,80722.7l0,150" />
          <path d="M214860.38,80722.7l0,-1605" />
          <path d="M214860.38,79117.7l-200,0" />
          <path d="M214660.38,79117.7l0,1680" />
          <path d="M214660.38,76977.7l0,640" />
          <path d="M214660.38,77617.7l200,0" />
          <path d="M214860.38,77617.7l0,-640" />
          <path d="M212860.38,68477.7l0,-1950" />
          <path d="M212860.38,66527.7l-150,0" />
          <path d="M212710.38,66527.7l0,1950" />
          <path d="M212860.38,65027.7l-150,0" />
          <path d="M212710.38,65027.7l0,1500" class="cnc-2" />
          <path d="M212860.38,66527.7l0,-1500" class="cnc-2" />
          <path d="M210660.38,68877.7l1600,0" />
          <path d="M210585.38,69077.7l1675,0" />
          <path d="M204460.38,64377.7l6125,0" />
          <path d="M204460.38,64577.7l6050,0" />
          <path d="M204460.38,64377.7l0,200" />
          <use xlink:href="#$lvtry$00000193" x="210680.38" y="67077.7" transform="rotate(-90,210680.38,67077.7)">.</use>
          <use xlink:href="#$lvtry$00000193" x="210680.38" y="66377.7" transform="rotate(-90,210680.38,66377.7)">.</use>
          <path d="M204960.38,68877.7l5550,0" />
          <path d="M204960.38,69077.7l5625,0" />
          <path d="M210660.38,68877.7l0,-149.67" />
          <path d="M210660.38,68728.03l-150,0" />
          <path d="M210510.38,68728.03l0,149.67" />
          <path d="M210510.38,66527.7l0,1400.33" />
          <path d="M210510.38,67928.03l150,0" />
          <path d="M210660.38,67928.03l0,-1475.33" />
          <use xlink:href="#$DorLib2D$00000228" x="263.232" y="85.41" transform="scale(800,800) scale(-1,-1) translate(-526.46,-170.82) rotate(-90,263.23,85.41)" stroke-width="0.0001%">.<g class="blkclass0"><text transform="rotate(-90 -329.81,445) translate(-329.81,445)" font-size="386.75">M0821</text></g></use>
          <path d="M210585.38,64377.7l1975,0" />
          <path d="M210660.38,64577.7l1900,0" />
          <use xlink:href="#$DorLib2D$00000231" x="139.961" y="56.385" transform="scale(1500,1500) scale(1,-1) translate(0,-112.77) rotate(-180,139.96,56.39)" stroke-width="0.0001%">.</use>
          <path d="M207660.38,85527.7l4900,0" />
          <path d="M207460.38,85727.7l5100,0" />
          <use xlink:href="#$lvtry$00000202" x="210060.38" y="66727.7">.</use>
          <use xlink:href="#$lvtry$00000202" x="209160.38" y="66727.7">.</use>
          <use xlink:href="#$lvtry$00000202" x="208260.38" y="66727.7">.</use>
          <use xlink:href="#$lvtry$00000202" x="207360.38" y="66727.7">.</use>
          <path d="M209622.88,66527.7l0,1187.5" />
          <path d="M209597.88,66527.7l0,1187.5" />
          <path d="M209622.88,66527.7l-25,0" />
          <path d="M210510.38,67715.2l-150,0" />
          <path d="M210360.38,67715.2l0,25" />
          <path d="M210360.38,67740.2l150,0" />
          <path d="M210510.38,67740.2l0,-25" />
          <path d="M209610.38,67740.2l150,0" />
          <path d="M209760.38,67740.2l0,-25" />
          <path d="M209760.38,67715.2l-137.5,0" />
          <use xlink:href="#$TCHSYS$APDOOR2D" x="350.101" y="112.88" transform="scale(600,600) rotate(-180,350.1,112.88)" stroke-width="0.0002%">.</use>
          <path d="M208722.88,66527.7l0,1187.5" />
          <path d="M208697.88,66527.7l0,1187.5" />
          <path d="M208722.88,66527.7l-25,0" />
          <path d="M209597.88,67715.2l-137.5,0" />
          <path d="M209460.38,67715.2l0,25" />
          <path d="M209460.38,67740.2l150,0" />
          <path d="M208710.38,67740.2l150,0" />
          <path d="M208860.38,67740.2l0,-25" />
          <path d="M208860.38,67715.2l-137.5,0" />
          <use xlink:href="#$TCHSYS$APDOOR2D" x="348.601" y="112.88" transform="scale(600,600) rotate(-180,348.6,112.88)" stroke-width="0.0002%">.</use>
          <path d="M207822.88,66527.7l0,1187.5" />
          <path d="M207797.88,66527.7l0,1187.5" />
          <path d="M207822.88,66527.7l-25,0" />
          <path d="M208697.88,67715.2l-137.5,0" />
          <path d="M208560.38,67715.2l0,25" />
          <path d="M208560.38,67740.2l150,0" />
          <path d="M207810.38,67740.2l150,0" />
          <path d="M207960.38,67740.2l0,-25" />
          <path d="M207960.38,67715.2l-137.5,0" />
          <use xlink:href="#$TCHSYS$APDOOR2D" x="347.101" y="112.88" transform="scale(600,600) rotate(-180,347.1,112.88)" stroke-width="0.0002%">.</use>
          <path d="M206925.88,66527.7l0,1187.5" />
          <path d="M206900.88,66527.7l0,1187.5" />
          <path d="M206925.88,66527.7l-25,0" />
          <path d="M207797.88,67715.2l-137.5,0" />
          <path d="M207660.38,67715.2l0,25" />
          <path d="M207660.38,67740.2l150,0" />
          <path d="M206913.38,67740.2l147,0" />
          <path d="M207060.38,67740.2l0,-25" />
          <path d="M207060.38,67715.2l-134.5,0" />
          <use xlink:href="#$TCHSYS$APDOOR2D" x="345.601" y="112.88" transform="scale(600,600) rotate(-180,345.6,112.88)" stroke-width="0.0002%">.</use>
          <use xlink:href="#$lvtry$00000222" x="213735.082" y="79792.41" transform="scale(0.98,0.83) rotate(-180,213735.08,79792.41)" stroke-width="0.0918%">.</use>
          <use xlink:href="#$lvtry$00000222" x="213020.796" y="79792.41" transform="scale(0.98,0.83) rotate(-180,213020.8,79792.41)" stroke-width="0.0918%">.</use>
          <use xlink:href="#$lvtry$00000222" x="212306.51" y="79792.41" transform="scale(0.98,0.83) rotate(-180,212306.51,79792.41)" stroke-width="0.0918%">.</use>
          <path d="M209797.88,66227.7l0,-400" />
          <path d="M209822.88,66227.7l0,-400" />
          <path d="M209797.88,66227.7l25,0" />
          <path d="M209797.88,65827.7l25,0" />
          <path d="M209097.88,66227.7l0,-400" />
          <path d="M209122.88,66227.7l0,-400" />
          <path d="M209097.88,66227.7l25,0" />
          <path d="M209097.88,65827.7l25,0" />
          <path d="M208397.88,66227.7l0,-400" />
          <path d="M208422.88,66227.7l0,-400" />
          <path d="M208397.88,66227.7l25,0" />
          <path d="M208397.88,65827.7l25,0" />
          <path d="M207697.88,66227.7l0,-400" />
          <path d="M207722.88,66227.7l0,-400" />
          <path d="M207697.88,66227.7l25,0" />
          <path d="M207697.88,65827.7l25,0" />
          <use xlink:href="#$lvtry$00000188" x="210210.86" y="66227.7" transform="rotate(-180,210210.86,66227.7)">.</use>
          <use xlink:href="#$lvtry$00000188" x="204765.21" y="67076.82" transform="rotate(-180,204765.21,67076.82)">.</use>
          <use xlink:href="#$lvtry$00000202" x="204660.38" y="65027.7" transform="rotate(-90,204660.38,65027.7)">.</use>
          <use xlink:href="#$lvtry$00000202" x="204660.38" y="65927.7" transform="rotate(-90,204660.38,65927.7)">.</use>
          <path d="M204460.38,65465.2l1187.5,0" />
          <path d="M204460.38,65490.2l1187.5,0" />
          <path d="M204460.38,65465.2l0,25" />
          <path d="M205647.88,64577.7l0,150" />
          <path d="M205647.88,64727.7l25,0" />
          <path d="M205672.88,64727.7l0,-150" />
          <path d="M205672.88,64577.7l-25,0" />
          <path d="M205672.88,65477.7l0,-150" />
          <path d="M205672.88,65327.7l-25,0" />
          <path d="M205647.88,65327.7l0,137.5" />
          <use xlink:href="#$TCHSYS$APDOOR2D" x="342.767" y="108.38" transform="scale(600,600) rotate(-270,342.77,108.38)" stroke-width="0.0002%">.</use>
          <path d="M205647.88,65490.2l0,137.5" />
          <path d="M205647.88,65627.7l25,0" />
          <path d="M205672.88,65627.7l0,-150" />
          <path d="M205672.88,66377.7l0,-150" />
          <path d="M205672.88,66227.7l-25,0" />
          <path d="M205647.88,66227.7l0,150" />
          <use xlink:href="#$TCHSYS$APDOOR2D" x="342.767" y="109.88" transform="scale(600,600) rotate(-270,342.77,109.88)" stroke-width="0.0002%">.</use>
          <use xlink:href="#$lvtry$00000222" x="211592.224" y="79792.41" transform="scale(0.98,0.83) rotate(-180,211592.22,79792.41)" stroke-width="0.0918%">.</use>
          <path d="M206997.88,66227.7l0,-400" />
          <path d="M207022.88,66227.7l0,-400" />
          <path d="M206997.88,66227.7l25,0" />
          <path d="M206997.88,65827.7l25,0" />
          <use xlink:href="#$lvtry$00000202" x="206463.38" y="66727.7">.</use>
          <path d="M206028.88,66527.7l0,1187.5" />
          <path d="M206003.88,66527.7l0,1187.5" />
          <path d="M206028.88,66527.7l-25,0" />
          <path d="M206900.88,67715.2l-137.5,0" />
          <path d="M206763.38,67715.2l0,25" />
          <path d="M206763.38,67740.2l150,0" />
          <path d="M206016.38,67740.2l147,0" />
          <path d="M206163.38,67740.2l0,-25" />
          <path d="M206163.38,67715.2l-134.5,0" />
          <use xlink:href="#$TCHSYS$APDOOR2D" x="344.106" y="112.88" transform="scale(600,600) rotate(-180,344.11,112.88)" stroke-width="0.0002%">.</use>
          <use xlink:href="#$lvtry$00000202" x="205566.38" y="66727.7">.</use>
          <path d="M205131.88,66527.7l0,1187.5" />
          <path d="M205106.88,66527.7l0,1212.5" />
          <path d="M205131.88,66527.7l-25,0" />
          <path d="M206003.88,67715.2l-137.5,0" />
          <path d="M205866.38,67715.2l0,25" />
          <path d="M205866.38,67740.2l150,0" />
          <path d="M205106.88,67740.2l159.5,0" />
          <path d="M205266.38,67740.2l0,-25" />
          <path d="M205266.38,67715.2l-134.5,0" />
          <use xlink:href="#$TCHSYS$APDOOR2D" x="342.611" y="112.88" transform="scale(600,600) rotate(-180,342.61,112.88)" stroke-width="0.0002%">.</use>
          <path d="M204460.38,66377.7l1200,0" />
          <path d="M204460.38,66527.7l1200,0" />
          <path d="M204460.38,66377.7l0,150" />
          <path d="M205660.38,66377.7l4850,0" />
          <path d="M205660.38,66527.7l4850,0" />
          <path d="M210660.38,66452.7l0,-925.19" />
          <path d="M210660.38,65527.51l-150,0" />
          <path d="M210510.38,65527.51l0,850.19" />
          <path d="M210510.38,64577.7l0,149.81" />
          <path d="M210510.38,64727.51l150,0" />
          <path d="M210660.38,64727.51l0,-149.81" />
          <use xlink:href="#$DorLib2D$00000228" x="263.232" y="81.409" transform="scale(800,800) scale(1,-1) translate(0,-162.82) rotate(-270,263.23,81.41)" stroke-width="0.0001%">.<g class="blkclass0"><text transform="rotate(-90 -329.81,441.86) translate(-329.81,441.86)" font-size="386.75">M0821</text></g></use>
          <path d="M214860.38,84627.7l200,0" />
          <path d="M215060.38,84627.7l0,-150" />
          <path d="M215060.38,84477.7l-200,0" />
          <path d="M220360.38,84477.7l-4300,0" />
          <path d="M216060.38,84477.7l0,150" />
          <path d="M216060.38,84627.7l4300,0" />
          <path d="M214660.38,84777.7l0,-225" />
          <path d="M214860.38,84977.7l0,-350" />
          <path d="M214860.38,84477.7l0,-1100" />
          <path d="M214860.38,83377.7l-200,0" />
          <path d="M214660.38,83377.7l0,1175" />
          <path d="M214660.38,80797.7l0,1080" />
          <path d="M214660.38,81877.7l200,0" />
          <path d="M214860.38,81877.7l0,-1005" />
          <path d="M214860.38,68727.7l150,0" />
          <path d="M215010.38,68727.7l0,-200" />
          <path d="M215010.38,68527.7l-150,0" />
          <path d="M218160.38,68527.7l-150,0" />
          <path d="M218010.38,68527.7l0,200" />
          <path d="M218010.38,68727.7l150,0" />
          <path d="M218160.38,68727.7l0,-200" />
          <use xlink:href="#$DorLib2D$00000228" x="239.4" y="76.253" transform="scale(900,900) scale(-1,1) translate(-478.8,0)" stroke-width="0.0001%">.<g class="blkclass0"><text transform="translate(548.14,630.28)" font-size="386.75">MC3027</text></g></use>
          <use xlink:href="#$WINLIB2D$00000001_2100x200" x="216960.38" y="68627.7" transform="scale(1,-1) translate(0,-137255.4)">.</use>
          <path d="M214860.38,68527.7l0,-2400" />
          <path d="M214860.38,66127.7l-200,0" />
          <path d="M214660.38,66127.7l0,2400" />
          <path d="M214660.38,65027.7l0,200" />
          <path d="M214660.38,65227.7l200,0" />
          <path d="M214860.38,65227.7l0,-200" />
          <path d="M206260.38,90160.2l1950,0l300,0" />
          <path d="M206260.38,91845.2l5325,0l0,-1685l-2475,0l-300,0" />
          <path d="M206410.38,89377.7l1740.49,0" />
          <path d="M208266.34,89377.7l2344.04,0" />
          <path d="M206410.38,89377.7l0,1505" />
          <path d="M206710.38,89377.7l0,1505" />
          <path d="M207010.38,89377.7l0,1505" />
          <path d="M207310.38,89377.7l0,1505" />
          <path d="M207610.38,89377.7l0,1505" />
          <path d="M207910.38,89377.7l0,1505" />
          <path d="M208210.38,89480.78l0,1401.92" />
          <path d="M208510.38,89377.7l0,422.69" />
          <path d="M208510.38,90000.39l0,882.31" />
          <path d="M208810.38,89377.7l0,942.31" />
          <path d="M208810.38,90520.01l0,362.69" />
          <path d="M209110.38,89377.7l0,1461.92" />
          <path d="M209410.38,89377.7l0,1505" />
          <path d="M209710.38,89377.7l0,1505" />
          <path d="M210010.38,89377.7l0,1505" />
          <path d="M210310.38,89377.7l0,1505" />
          <path d="M210610.38,89377.7l0,1505" />
          <path d="M206410.38,90942.7l2644.04,0" />
          <path d="M209169.9,90942.7l1440.49,0" />
          <path d="M208266.34,89377.7l399.12,691.3" />
          <path d="M208150.87,89377.7l414.59,718.1" />
          <path d="M208565.47,90095.8l172.35,-46.18" />
          <path d="M208737.82,90049.61l-172.89,206.04" />
          <path d="M208564.92,90255.66l180.4,-48.34" />
          <path d="M208745.32,90207.32l424.57,735.38" />
          <path d="M208645.32,90234.12l409.1,708.58" />
          <path d="M210610.38,92627.7l-4200,0" />
          <path d="M210610.38,92627.7l0,-1505" />
          <path d="M210310.38,92627.7l0,-1505" />
          <path d="M210010.38,92627.7l0,-1505" />
          <path d="M209710.38,92627.7l0,-1505" />
          <path d="M209410.38,92627.7l0,-1505" />
          <path d="M209110.38,92627.7l0,-1505" />
          <path d="M208810.38,92627.7l0,-1505" />
          <path d="M208510.38,92627.7l0,-1505" />
          <path d="M208210.38,92627.7l0,-1505" />
          <path d="M207910.38,92627.7l0,-1505" />
          <path d="M207610.38,92627.7l0,-1505" />
          <path d="M207310.38,92627.7l0,-1505" />
          <path d="M207010.38,92627.7l0,-1505" />
          <path d="M206710.38,92627.7l0,-1505" />
          <path d="M206410.38,92627.7l0,-1505" />
          <path d="M210610.38,91062.7l-4200,0" />
          <path d="M206350.38,91122.7l0,-240" />
          <path d="M206350.38,90882.7l2669.4,0" />
          <path d="M209135.25,90882.7l1535.13,0" />
          <path d="M210670.38,90882.7l0,240" />
          <path d="M210670.38,91122.7l-4320,0" />
          <path d="M206410.38,91062.7l0,-120" />
          <path d="M206410.38,90942.7l2644.04,0" />
          <path d="M209169.9,90942.7l1440.49,0" />
          <path d="M210610.38,90942.7l0,120" />
          <path d="M210610.38,91062.7l-4200,0" />
          <path d="M210610.38,92627.7l1650,0" />
          <path d="M212560.38,92477.7l0,-3100" />
          <path d="M212560.38,89377.7l-1950,0" />
          <path d="M210610.38,89377.7l0,1505" />
          <path d="M210610.38,91122.7l0,1505" />
          <path d="M210610.38,90942.7l0,120" />
          <path d="M206410.38,90942.7l0,120" />
          <path d="M210760.38,61910.2l-1950,0l-300,0" />
          <path d="M210760.38,63595.2l-5325,0l0,-1685l2475,0l300,0" />
          <path d="M210610.38,61127.7l-2644.04,0" />
          <path d="M207850.87,61127.7l-1440.49,0" />
          <path d="M210610.38,62632.7l0,-1505" />
          <path d="M210310.38,62632.7l0,-1505" />
          <path d="M210010.38,62632.7l0,-1505" />
          <path d="M209710.38,62632.7l0,-1505" />
          <path d="M209410.38,62632.7l0,-1505" />
          <path d="M209110.38,62632.7l0,-1505" />
          <path d="M208810.38,62589.62l0,-1461.92" />
          <path d="M208510.38,62632.7l0,-362.69" />
          <path d="M208510.38,62070.01l0,-942.31" />
          <path d="M208210.38,62632.7l0,-882.31" />
          <path d="M208210.38,61550.39l0,-422.69" />
          <path d="M207910.38,62632.7l0,-1401.92" />
          <path d="M207610.38,62632.7l0,-1505" />
          <path d="M207310.38,62632.7l0,-1505" />
          <path d="M207010.38,62632.7l0,-1505" />
          <path d="M206710.38,62632.7l0,-1505" />
          <path d="M206410.38,62632.7l0,-1505" />
          <path d="M210610.38,62692.7l-1740.49,0" />
          <path d="M208754.43,62692.7l-2344.04,0" />
          <path d="M208754.43,62692.7l-399.12,-691.3" />
          <path d="M208869.9,62692.7l-414.59,-718.1" />
          <path d="M208455.3,61974.6l-172.35,46.18" />
          <path d="M208282.95,62020.79l172.89,-206.04" />
          <path d="M208455.84,61814.74l-180.4,48.34" />
          <path d="M208275.44,61863.08l-424.57,-735.38" />
          <path d="M208375.44,61836.28l-409.1,-708.58" />
          <path d="M206410.38,64377.7l4200,0" />
          <path d="M206410.38,62872.7l0,1505" />
          <path d="M206710.38,62872.7l0,1505" />
          <path d="M207010.38,62872.7l0,1505" />
          <path d="M207310.38,62872.7l0,1505" />
          <path d="M207610.38,62872.7l0,1505" />
          <path d="M207910.38,62872.7l0,1505" />
          <path d="M208210.38,62872.7l0,1505" />
          <path d="M208510.38,62872.7l0,1505" />
          <path d="M208810.38,62872.7l0,1505" />
          <path d="M209110.38,62872.7l0,1505" />
          <path d="M209410.38,62872.7l0,1505" />
          <path d="M209710.38,62872.7l0,1505" />
          <path d="M210010.38,62872.7l0,1505" />
          <path d="M210310.38,62872.7l0,1505" />
          <path d="M210610.38,62872.7l0,1505" />
          <path d="M206410.38,62812.7l4200,0" />
          <path d="M210610.38,62812.7l0,-120" />
          <path d="M210610.38,62692.7l-1740.49,0" />
          <path d="M208754.43,62692.7l-2344.04,0" />
          <path d="M206410.38,62692.7l0,120" />
          <path d="M206410.38,62812.7l4200,0" />
          <path d="M210670.38,62872.7l0,-240" />
          <path d="M210670.38,62632.7l-1835.13,0" />
          <path d="M208719.78,62632.7l-2369.4,0" />
          <path d="M206350.38,62632.7l0,240" />
          <path d="M206350.38,62872.7l4320,0" />
          <path d="M206410.38,61127.7l-1450,0" />
          <path d="M204460.38,61277.7l0,3100" />
          <path d="M204460.38,64377.7l1950,0" />
          <path d="M206410.38,64377.7l0,-1505" />
          <path d="M206410.38,62632.7l0,-1505" />
          <path d="M206410.38,62812.7l0,-120" />
          <path d="M210610.38,62692.7l0,120" />
          <use xlink:href="#$DorLib2D$00000228" x="215.56" y="84.553" transform="scale(1000,1000) scale(-1,-1) translate(-431.12,-169.11)" stroke-width="0.0001%">.<g class="blkclass0"><text transform="translate(-470,1221.55)" font-size="386.75">M1027</text></g></use>
          <path d="M214760.38,70977.7l600,0m0,0a600,600 0 0,0 -600,-600a900,900 0 0,0 900,-900m0,0l-900,0" />
          <path d="M214760.38,74637.7l600,0m-600,600a600,600 0 0,0 600,-600m300,1500a900,900 0 0,0 -900,-900m900,900l-900,0" />
          <path d="M214760.38,79117.7l600,0m0,0a600,600 0 0,0 -600,-600a900,900 0 0,0 900,-900m0,0l-900,0" />
          <path d="M214760.38,81877.7l600,0m-600,600a600,600 0 0,0 600,-600m300,1500a900,900 0 0,0 -900,-900m900,900l-900,0" />
          <path d="M214660.38,88477.7l0,600m-600,-600a600,600 0 0,0 600,600m-1500,300a900,900 0 0,0 900,-900m-900,900l0,-900" />
          <path d="M212660.38,72077.7l-600,0m0,0a600,600 0 0,0 600,600a900,900 0 0,0 -900,900m0,0l900,0" />
          <path d="M212685.38,79278.3l-600,0m0,0a600,600 0 0,0 600,600a900,900 0 0,0 -900,900m0,0l900,0" />
          <path d="M214760.38,85777.7l600,0m-600,600a600,600 0 0,0 600,-600m300,1500a900,900 0 0,0 -900,-900m900,900l-900,0" />
        </g>
      </g>
      <g id="assets" fill="none">
        <g id="rm-assets" class="rm-asset">
          <path id="14008;F04;401-404" d="M214860.38,72807.7l0,-7780l3300,0l0,3700l2200,0l0,550l500,0l0,7200l-500,0l0,800l500,0l0,3445l-6000,0z" />
          <path id="14008;F04;405-407" d="M214860.38,80872.7l6000,0l0,3605l-500,0l0,800l500,0l0,7200l-500,0l0,500l-7300,0l0,-500l-300,0l0,-3900l2100,0z" />
          <path id="14008;F04;410" d="M204460.38,69277.7l500,0l0,-200l7300,0l0,200l300,0l0,7200l-8100,0z" />
          <path id="14008;F04;409" d="M204460.38,82777.7l8150,0l0,-5499.65l-350,0l0,-650.35l-7300,0l0,650l-500,0z" />
          <path id="14008;F04;408" d="M207660.38,89177.7l4900,0l0,-3449.36l-4900,-0.64z" />
        </g>
      </g>
    </g>
    <g id="text" font-family="Arial" font-size="438.86524822695031" font-weight="normal" text-style="normal" text-anchor="start" dominant-baseline="alphabetical" fill="#FF7F00" xml:space="preserve">
      <g id="layer-bady-text">
        <g transform="rotate(-90 213160.38,62987.06) translate(213160.38,62987.06)" font-size="386.75">
          <text>FM1521</text>
        </g>
        <g transform="rotate(-90 213160.38,61847.06) translate(213160.38,61847.06)">
          <text>乙</text>
        </g>
        <g transform="translate(213051.02,65422.44)" font-size="386.75">
          <text>FM1521</text>
        </g>
        <g transform="translate(214191.02,65422.44)">
          <text>乙</text>
        </g>
        <g transform="translate(205051.02,84432.44)" font-size="386.75">
          <text>FM1521</text>
        </g>
        <g transform="translate(206191.02,84432.44)">
          <text>乙</text>
        </g>
        <g transform="rotate(-90 207436.39,88227.56) translate(207436.39,88227.56)" font-size="386.75">
          <text>FGC1209</text>
        </g>
        <g transform="rotate(-90 207436.39,86867.56) translate(207436.39,86867.56)">
          <text>甲</text>
        </g>
        <g transform="translate(204751.02,89132.44)" font-size="386.75">
          <text>FM1521</text>
        </g>
        <g transform="translate(205891.02,89132.44)">
          <text>乙</text>
        </g>
        <g transform="rotate(-90 213284.13,66187.7) translate(213284.13,66187.7)" font-size="386.75">
          <text>D1521</text>
        </g>
        <g transform="translate(209109.24,83752.19)" font-size="386.75">
          <text>FM1521</text>
        </g>
        <g transform="translate(210249.24,83752.19)">
          <text>乙</text>
        </g>
        <g transform="translate(210160.96,85335.58)" font-size="626.95">
          <text>电井</text>
        </g>
        <g transform="translate(205333.13,85820.35)" font-size="386.75">
          <text>13.200</text>
        </g>
        <g transform="translate(205946.87,90335.2)" fill="#000000" stroke="#000000" stroke-width="0.02">
          <text>上</text>
        </g>
        <g transform="translate(205965.49,92020.2)" fill="#000000" stroke="#000000" stroke-width="0.02">
          <text>下</text>
        </g>
        <g transform="translate(210865.38,62085.2)" fill="#000000" stroke="#000000" stroke-width="0.02">
          <text>上</text>
        </g>
        <g transform="translate(210865.38,63770.2)" fill="#000000" stroke="#000000" stroke-width="0.02">
          <text>下</text>
        </g>
      </g>
    </g>
    <g id="asset-labels" font-family="Arial" font-weight="bold" font-size="38.1em" text-anchor="middle">
      <g id="rm-labels">
        <g id="l-rm-14008;F04;401-404" transform="translate(217860.38,72875.2)">
          <text>401-404</text>
        </g>
        <g id="l-rm-14008;F04;405-407" transform="translate(216810.38,86925.2)">
          <text>405-407</text>
        </g>
        <g id="l-rm-14008;F04;410" transform="translate(208510.38,72777.7)">
          <text>410</text>
        </g>
        <g id="l-rm-14008;F04;409" transform="translate(208535.38,79702.7)">
          <text>409</text>
        </g>
        <g id="l-rm-14008;F04;408" transform="translate(210110.38,87452.7)">
          <text>408</text>
        </g>
      </g>
    </g>
  </g>
</svg>