<svg version="1.1" xmlns="http://www.w3.org/2000/svg" xmlns:xlink="http://www.w3.org/1999/xlink" viewBox="203698.57 120438.19 17479 33955">
  <style>.i0 { stroke:#000000;   } .bady { stroke:#ff7f00;   } .rm { stroke:#00ffff;   } .axis_text { stroke:#000000;   } .pub_wall { stroke:#c0c0c0;   } .pub_hatch { stroke:#808080;   } .rm-asset { stroke:#0000ff;   fill:#EEEEEE; fill-opacity:1;} .rmtc-asset { stroke:#0000ff;   } .rmtc { stroke:#00ffff;   } .rm-assettxt { stroke:#0000ff;   } .rmtc-assettxt { stroke:#0000ff;   } .cnc-0 { stroke:#ff7f00;  stroke-dasharray:0; fill:#cccccc; fill-opacity:1;} .cnc-1 { stroke:#ff7f00;  stroke-dasharray:0; } .cnc-2 { stroke:#000000;  stroke-dasharray:0; } .cnc-3 { stroke:#ff7f00;  stroke-dasharray:0; } .cnc-4 { stroke:#000000;  stroke-dasharray:0; } .blkclass0 { stroke:#ff7f00;  stroke-width:0.02;  fill:#ff7f00; fill-opacity:1; font-family:Arial; font-size:386.75; font-weight:normal; text-style:normal; text-anchor:start;}</style>
  <view id="defaultView" viewBox="203698.57 120438.19 17479 33955" />
  <defs>
    <symbol id="_FZH" overflow="visible" class="i0">
      <path d="M-0.5,0.5l1,0l0,-1l-1,0z" />
    </symbol>
    <symbol id="$WINLIB2D$00000001_1800x300" overflow="visible" class="i0">
      <path d="M900,150l0,-300" />
      <path d="M-900,-150l0,300" />
      <path d="M900,-50l-1800,0" />
      <path d="M900,50l-1800,0" />
      <path d="M-900,150l1800,0" />
      <path d="M-900,-150l1800,0" />
    </symbol>
    <symbol id="$WINLIB2D$00000001_7200x300" overflow="visible" class="i0">
      <path d="M3600,150l0,-300" />
      <path d="M-3600,-150l0,300" />
      <path d="M3600,-50l-7200,0" />
      <path d="M3600,50l-7200,0" />
      <path d="M-3600,150l7200,0" />
      <path d="M-3600,-150l7200,0" />
    </symbol>
    <symbol id="$WINLIB2D$00000001_1500x300" overflow="visible" class="i0">
      <path d="M750,150l0,-300" />
      <path d="M-750,-150l0,300" />
      <path d="M750,-50l-1500,0" />
      <path d="M750,50l-1500,0" />
      <path d="M-750,150l1500,0" />
      <path d="M-750,-150l1500,0" />
    </symbol>
    <symbol id="$DorLib2D$00000127_1100x250" overflow="visible" class="i0">
      <path d="M550,-125l-1100,0" />
      <path d="M36.67,-198.72l0,26.12" />
      <path d="M-36.67,-198.72l-550,0" />
      <path d="M-36.67,-172.6l-550,0" />
      <path d="M-36.67,-198.72l0,26.12" />
      <path d="M586.67,-198.72l0,26.12" />
      <path d="M-586.67,-198.72l0,26.12" />
      <path d="M586.67,-172.6l-550,0" />
      <path d="M586.67,-198.72l-550,0" />
    </symbol>
    <symbol id="$DorLib2D$00000231" overflow="visible" class="i0">
      <path d="M-0.5,0l0.25,-0.43" />
      <path d="M-0.25,-0.43a0.5,0.5 0 0,1 0.25,0.43" />
      <path d="M0,0a0.5,0.5 0 0,1 0.25,-0.43" />
      <path d="M0.5,0l-0.25,-0.43" />
    </symbol>
    <symbol id="$DorLib2D$00000228" overflow="visible" class="i0">
      <path d="M-0.5,0a1,1 0 0,1 0.5,-0.87" />
      <path d="M0.5,0l-0.5,-0.87" />
    </symbol>
    <symbol id="$DorLib2D$00000116" overflow="visible" class="i0">
      <path d="M-0.5,0l0.35,-0.35" />
      <path d="M-0.15,-0.35a0.5,0.5 0 0,1 0.15,0.35" />
      <path d="M0,0a0.5,0.5 0 0,1 0.15,-0.35" />
      <path d="M0.5,0l-0.35,-0.35" />
    </symbol>
    <symbol id="$lvtry$00000193" overflow="visible" class="i0">
      <circle r="20" cy="200" />
      <path d="M-24.71,84.86a166.25,166.25 0 0,1 28.52,-25.84" />
      <path d="M-24.71,84.85a6.77,6.77 0 0,1 -10.36,-8.14" />
      <path d="M-16.69,42.9a166.25,166.25 0 0,1 -18.37,33.81" />
      <path d="M9.2,99.6a9.9,9.9 0 0,1 -18.4,0" />
      <path d="M9.2,99.6a372.22,372.22 0 0,1 5.21,-48.41" />
      <path d="M14.41,51.19a172.58,172.58 0 0,1 27.83,-7.78" />
      <path d="M43.06,23.92a10.06,10.06 0 0,1 -0.82,19.49" />
      <path d="M-42.24,43.41a10.06,10.06 0 0,1 -0.82,-19.49" />
      <path d="M-11.46,71.35a372.22,372.22 0 0,1 2.26,28.25" />
      <path d="M-42.24,43.41a172.58,172.58 0 0,1 22.78,5.99" />
      <circle r="16.692" cy="42.77" />
      <path d="M-27.27,82.62a169.65,169.65 0 0,1 13.49,-13.76" />
      <path d="M-13.78,68.86a10.6,10.6 0 0,1 -8.32,-6.54" />
      <path d="M-22.1,62.32a169.65,169.65 0 0,1 -10.18,16.35" />
      <path d="M-26.82,82.18a3.37,3.37 0 0,1 -5.15,-4.05" />
      <path d="M-16.69,42.77l0,-9.84" />
      <path d="M16.69,42.77l0,-9.84" />
      <path d="M43.06,23.92a258.71,258.71 0 0,1 -34.21,-5.14" />
      <path d="M-8.85,18.78a258.71,258.71 0 0,1 -34.21,5.14" />
      <path d="M-16.69,32.93a16.69,16.69 0 0,1 33.38,0" />
      <path d="M-25.26,61.02a313.49,313.49 0 0,0 -69.75,13.73m0,0a237.05,237.05 0 0,0 -72.52,37.88m0.01,0a178.75,178.75 0 0,0 -48.46,56.91m-0.01,0a116.81,116.81 0 0,0 -14,55.46a116.81,116.81 0 0,0 14,55.46m0.01,0a178.75,178.75 0 0,0 48.46,56.91m-0.01,0a237.05,237.05 0 0,0 72.52,37.88m0,0a313.49,313.49 0 0,0 95.02,14.75a313.49,313.49 0 0,0 95.02,-14.75m0,0a237.05,237.05 0 0,0 72.52,-37.88m-0.01,0a178.75,178.75 0 0,0 48.46,-56.91m0.01,0a116.81,116.81 0 0,0 14,-55.46a116.81,116.81 0 0,0 -14,-55.46m-0.01,0a178.75,178.75 0 0,0 -48.46,-56.91m0.01,0a237.05,237.05 0 0,0 -72.52,-37.88m0,0a313.49,313.49 0 0,0 -82.08,-14.48" class="cnc-2" />
      <path d="M280,215a166.81,166.81 0 0,0 -20,-79.2m-0.01,0a228.75,228.75 0 0,0 -62.01,-72.83m0.01,0a287.05,287.05 0 0,0 -87.82,-45.87m0,0a363.49,363.49 0 0,0 -110.17,-17.1a363.49,363.49 0 0,0 -110.17,17.1m0,0a287.05,287.05 0 0,0 -87.82,45.87m0.01,0a228.75,228.75 0 0,0 -62.01,72.83m-0.01,0a166.81,166.81 0 0,0 -20,79.2a166.81,166.81 0 0,0 20,79.2m0.01,0a228.75,228.75 0 0,0 62.01,72.83m-0.01,0a287.05,287.05 0 0,0 87.82,45.87m0,0a363.49,363.49 0 0,0 110.17,17.1a363.49,363.49 0 0,0 110.17,-17.1m0,0a287.05,287.05 0 0,0 87.82,-45.87m-0.01,0a228.75,228.75 0 0,0 62.01,-72.83m0.01,0a166.81,166.81 0 0,0 20,-79.2" class="cnc-2" />
    </symbol>
    <symbol id="$lvtry$00000202" overflow="visible" class="i0">
      <path d="M139.78,40a40,40 0 0,0 -40,-40m0,0l-199.57,0m0,0a40,40 0 0,0 -40,40m0,0l0,439.66m0,0a110,110 0 0,0 110,110m0,0l59.57,0m0,0a110,110 0 0,0 110,-110m0,0l0,-439.66" class="cnc-2" />
      <path d="M99.78,30a10,10 0 0,1 10,10" />
      <path d="M-109.78,40a10,10 0 0,1 10,-10" />
      <path d="M99.78,30l-199.57,0" />
      <circle r="20" cy="358.61" />
      <path d="M139.78,469.66l-279.57,0" />
      <path d="M109.78,469.66l0,-429.66" />
      <path d="M-109.78,40l0,429.66" />
    </symbol>
    <symbol id="$TCHSYS$APDOOR2D" overflow="visible" class="i0">
      <path d="M0.5,0l-0.5,-0.87" />
      <path d="M-0.5,0a1,1 0 0,1 0.5,-0.87" />
    </symbol>
    <symbol id="$lvtry$00000222" overflow="visible" class="i0">
      <path d="M-205,190.69l0,-190.69l410,0l0,190.69m0,0a203.43,203.43 0 0,0 -154.23,132.77m-50.77,36.19a54,54 0 0,0 50.77,-36.18m-101.53,0a54,54 0 0,0 50.77,36.18m-50.77,-36.19a203.43,203.43 0 0,0 -154.23,-132.77" class="cnc-2" />
      <path d="M22.45,323.92a233.43,233.43 0 0,1 138.63,-141.65" />
      <path d="M-155.89,184.28a233.43,233.43 0 0,1 133.44,139.64" />
      <circle r="20" cy="241.62" />
      <path d="M22.45,323.92a24,24 0 0,1 -22.45,16.08" />
      <path d="M0,340a24,24 0 0,1 -22.45,-16.08" />
      <path d="M-156.25,165.88a395,395 0 0,1 317.79,-2.15" />
      <path d="M-155.89,184.29a10,10 0 0,1 -0.36,-18.41" />
      <circle r="20" cx="-0.03" cy="60.43" />
      <path d="M161.54,163.73a10,10 0 0,1 -0.46,18.55" />
    </symbol>
    <symbol id="$lvtry$00000188" overflow="visible" class="i0">
      <path d="M262.08,174.72a74.88,74.88 0 0,0 -74.88,-74.88" class="cnc-4" />
      <path d="M-262.08,0a37.44,37.44 0 0,0 -37.44,37.44l0,474.24a37.44,37.44 0 0,0 37.44,37.44l524.16,0a37.44,37.44 0 0,0 37.44,-37.44l0,-474.24a37.44,37.44 0 0,0 -37.44,-37.44l-524.16,0" class="cnc-4" />
      <path d="M31.2,99.84l156,0" />
      <circle r="24.96" cx="-80.35" cy="62.4" />
      <path d="M-38.06,49.92l76.12,0" />
      <path d="M-41.02,53.41a3,3 0 0,1 2.96,-3.49" />
      <path d="M38.06,49.92a3,3 0 0,1 2.96,3.49" />
      <circle r="19.96" cx="-80.35" cy="62.4" />
      <circle r="19.96" cx="80.35" cy="62.4" />
      <circle r="24.96" cx="80.35" cy="62.4" />
      <circle r="37.44" cy="299.52" />
      <path d="M-12.48,224.64l24.96,0" />
      <path d="M262.08,436.8a74.88,74.88 0 0,1 -74.88,74.88" />
      <path d="M262.08,174.72l0,262.08" />
      <path d="M-41.02,53.41l28.54,171.23" />
      <path d="M12.48,224.64l28.54,-171.23" />
      <path d="M-262.08,174.72a74.88,74.88 0 0,1 74.88,-74.88" />
      <path d="M-187.2,511.68a74.88,74.88 0 0,1 -74.88,-74.88" />
      <path d="M-262.08,436.8l0,-262.08" />
      <path d="M187.2,511.68l-374.4,0" />
      <path d="M-187.2,99.84l156,0" />
    </symbol>
  </defs>
  <g id="viewer">
    <g id="mirror" transform="scale(1, 1)" stroke-width="0.09%">
      <g id="background" fill="none">
        <g id="layer-bady-fills" class="cnc-0">
          <path d="M216213.23,124045.85l1523.21,0l0,1716.73l-1523.21,0z" />
          <path d="M217818.03,124343.75l266.68,0l0,1048.11l-266.68,0z" />
          <path d="M216213.23,121945.85l1523.21,0l0,1716.73l-1523.21,0z" />
          <path d="M217818.03,122243.75l266.68,0l0,1048.11l-266.68,0z" />
          <path d="M210660.38,128706.46l0,-1800l600,0l0,1800z" />
          <path d="M214660.38,128256.46l200,0l0,200l-200,0z" />
          <path d="M214660.38,129456.46l200,0l0,200l-200,0z" />
          <path d="M215045.29,128452.14l489.25,0l0,995.27l-489.25,0z" />
          <path d="M215263.37,128531.3l225.45,0l0,863.1l-225.45,0z" />
        </g>
        <g id="layer-RM-fills" class="rm">
          <path d="M207660.38,145756.46l0,850l4900,0l0,-250l-300,0l0,-600z" />
          <path d="M216060.38,121856.46l2100,0l0,1900l-2100,0z" />
          <path d="M216060.38,123956.46l2100,0l0,1900l-2100,0z" />
        </g>
        <g id="layer-bady" class="cnc-1">
          <path d="M217736.44,124045.85l-1523.21,1716.73" />
          <path d="M216213.23,124045.85l1523.21,1716.73" />
          <path d="M217736.44,121945.85l-1523.21,1716.73" />
          <path d="M216213.23,121945.85l1523.21,1716.73" />
          <circle r="51.777" cx="215143.44" cy="128961.61" />
          <path d="M212337.49,145756.46l-4419.33,276.7l-257.77,573.3" />
          <use xlink:href="#_FZH" x="265.825" y="172.446" transform="scale(800,800)" stroke-width="0.0001%">.</use>
          <use xlink:href="#_FZH" x="265.825" y="162.446" transform="scale(800,800)" stroke-width="0.0001%">.</use>
          <use xlink:href="#_FZH" x="265.825" y="182.446" transform="scale(800,800)" stroke-width="0.0001%">.</use>
          <use xlink:href="#_FZH" x="265.825" y="192.446" transform="scale(800,800)" stroke-width="0.0001%">.</use>
          <use xlink:href="#_FZH" x="265.825" y="152.446" transform="scale(800,800)" stroke-width="0.0001%">.</use>
          <use xlink:href="#_FZH" x="275.95" y="192.446" transform="scale(800,800)" stroke-width="0.0001%">.</use>
          <use xlink:href="#_FZH" x="275.95" y="182.446" transform="scale(800,800)" stroke-width="0.0001%">.</use>
          <use xlink:href="#_FZH" x="275.95" y="172.446" transform="scale(800,800)" stroke-width="0.0001%">.</use>
          <use xlink:href="#_FZH" x="275.95" y="162.446" transform="scale(800,800)" stroke-width="0.0001%">.</use>
          <use xlink:href="#_FZH" x="255.7" y="172.446" transform="scale(800,800)" stroke-width="0.0001%">.</use>
          <use xlink:href="#_FZH" x="255.7" y="162.446" transform="scale(800,800)" stroke-width="0.0001%">.</use>
          <use xlink:href="#_FZH" x="255.7" y="182.446" transform="scale(800,800)" stroke-width="0.0001%">.</use>
          <use xlink:href="#_FZH" x="255.7" y="192.446" transform="scale(800,800)" stroke-width="0.0001%">.</use>
          <use xlink:href="#_FZH" x="255.7" y="152.446" transform="scale(800,800)" stroke-width="0.0001%">.</use>
          <path d="M212260.38,121856.46l-7300,0" />
          <path d="M212260.38,121556.46l-7300,0" />
          <path d="M204460.38,153556.46l0,-800" />
          <path d="M204460.38,152756.46l-300,0" />
          <path d="M204160.38,152756.46l0,800" />
          <path d="M204160.38,146356.46l0,800" />
          <path d="M204160.38,147156.46l300,0" />
          <path d="M204460.38,147156.46l0,-800" />
          <path d="M204460.38,150956.46l0,-2000" />
          <path d="M204460.38,148956.46l-300,0" />
          <path d="M204160.38,148956.46l0,2000" />
          <path d="M204160.38,150956.46l300,0" />
          <use xlink:href="#$WINLIB2D$00000001_1800x300" x="204310.38" y="151856.46" transform="scale(-1,-1) translate(-408620.76,-303712.92) rotate(-90,204310.38,151856.46)">.<g class="blkclass0"><text transform="rotate(-90 605.45,455) translate(605.45,455)" font-size="386.75">C1827</text></g></use>
          <use xlink:href="#$WINLIB2D$00000001_1800x300" x="204310.38" y="148056.46" transform="scale(-1,-1) translate(-408620.76,-296112.92) rotate(-90,204310.38,148056.46)">.<g class="blkclass0"><text transform="rotate(-90 549.61,410.87) translate(549.61,410.87)" font-size="386.75">C1818</text></g></use>
          <use xlink:href="#$WINLIB2D$00000001_7200x300" x="204310.38" y="141956.46" transform="scale(-1,1) translate(-408620.76,0) rotate(-270,204310.38,141956.46)">.<g class="blkclass0"><text transform="rotate(-90 573.75,527.1) translate(573.75,527.1)" font-size="386.75">C7221</text></g></use>
          <use xlink:href="#$WINLIB2D$00000001_7200x300" x="204310.38" y="133956.46" transform="scale(-1,1) translate(-408620.76,0) rotate(-270,204310.38,133956.46)">.<g class="blkclass0"><text transform="rotate(-90 573.75,469.72) translate(573.75,469.72)" font-size="386.75">C7221</text></g></use>
          <path d="M204960.38,154056.46l7300,0" />
          <path d="M204960.38,154356.46l7300,0" />
          <path d="M213060.38,154056.46l7300,0" />
          <path d="M213060.38,154356.46l7300,0" />
          <path d="M212260.38,145556.46l-1671.23,0" />
          <path d="M210589.15,145556.46l0,200" />
          <path d="M210589.15,145756.46l1671.23,0" />
          <path d="M207660.38,145756.46l1428.77,0" />
          <path d="M209089.15,145756.46l0,-200" />
          <path d="M209089.15,145556.46l-1428.77,0" />
          <path d="M207660.38,145756.46l0,850" />
          <path d="M207460.38,145756.46l0,1050" />
          <path d="M212560.38,150456.46l0,-800" />
          <path d="M212760.38,150456.46l0,-800" />
          <path d="M212560.38,150456.46l200,0" />
          <path d="M204460.38,129556.46l0,-800" />
          <path d="M204460.38,128756.46l-300,0" />
          <path d="M204160.38,128756.46l0,800" />
          <path d="M204160.38,122356.46l0,800" />
          <path d="M204160.38,123156.46l300,0" />
          <path d="M204460.38,123156.46l0,-800" />
          <path d="M204460.38,126956.46l0,-2000" />
          <path d="M204460.38,124956.46l-300,0" />
          <path d="M204160.38,124956.46l0,2000" />
          <path d="M204160.38,126956.46l300,0" />
          <use xlink:href="#$WINLIB2D$00000001_1800x300" x="204310.38" y="124056.46" transform="scale(-1,1) translate(-408620.76,0) rotate(-270,204310.38,124056.46)">.<g class="blkclass0"><text transform="rotate(-90 573.75,455) translate(573.75,455)" font-size="386.75">C1827</text></g></use>
          <use xlink:href="#$WINLIB2D$00000001_1800x300" x="204310.38" y="127856.46" transform="scale(-1,1) translate(-408620.76,0) rotate(-270,204310.38,127856.46)">.<g class="blkclass0"><text transform="rotate(-90 -300.71,451.48) translate(-300.71,451.48)" font-size="386.75">C1818</text></g></use>
          <path d="M216053.67,121556.46l-893.28,0" />
          <path d="M215160.38,121556.46l0,300" />
          <path d="M215160.38,121856.46l650,0" />
          <path d="M213060.38,121856.46l600,0" />
          <path d="M213660.38,121856.46l0,-300" />
          <path d="M213660.38,121556.46l-600,0" />
          <use xlink:href="#$WINLIB2D$00000001_1500x300" x="214410.38" y="121706.46" transform="scale(-1,1) translate(-428820.76,0) rotate(-180,214410.38,121706.46)">.<g class="blkclass0"><text transform="translate(-410,-276.25)" font-size="386.75">C1521</text></g></use>
          <path d="M215810.38,121856.46l0,400" />
          <path d="M215810.38,122256.46l250,0" />
          <path d="M216060.38,122256.46l0,-400" />
          <path d="M216060.38,123756.46l0,-400" />
          <path d="M216060.38,123356.46l-250,0" />
          <path d="M215810.38,123356.46l0,400" />
          <use xlink:href="#$DorLib2D$00000127_1100x250" x="215935.38" y="122806.46" transform="rotate(-270,215935.38,122806.46)">.</use>
          <path d="M216060.38,125856.46l2100,0" />
          <path d="M215810.38,126106.46l2600,0" />
          <path d="M218160.38,121856.46l-2100,0" />
          <path d="M218410.38,121556.46l-2356.72,0" />
          <path d="M218160.38,125856.46l0,-1900" />
          <path d="M218410.38,126106.46l0,-2350" />
          <path d="M215810.38,123756.46l0,600" />
          <path d="M215810.38,124356.46l250,0" />
          <path d="M216060.38,124356.46l0,-400" />
          <path d="M216060.38,125856.46l0,-400" />
          <path d="M216060.38,125456.46l-250,0" />
          <path d="M215810.38,125456.46l0,650" />
          <use xlink:href="#$DorLib2D$00000127_1100x250" x="215935.38" y="124906.46" transform="rotate(-270,215935.38,124906.46)">.</use>
          <path d="M218160.38,123756.46l0,-1900" />
          <path d="M218410.38,123756.46l0,-2200" />
          <path d="M216060.38,123756.46l2100,0" />
          <path d="M216060.38,123956.46l2100,0" />
          <path d="M218410.38,129556.46l1950,0" />
          <path d="M218160.38,129806.46l2200,0" />
          <path d="M212760.38,125456.46l0,-1300" />
          <path d="M212760.38,124156.46l-200,0" />
          <path d="M212560.38,124156.46l0,1300" />
          <path d="M212560.38,122356.46l0,300" />
          <path d="M212560.38,122656.46l200,0" />
          <path d="M212760.38,122656.46l0,-300" />
          <use xlink:href="#$DorLib2D$00000231" x="141.774" y="82.271" transform="scale(1500,1500) rotate(-90,141.77,82.27)" stroke-width="0.0001%">.</use>
          <path d="M212760.38,144056.46l0,-2800" />
          <path d="M212760.38,141256.46l-200,0" />
          <path d="M212560.38,141256.46l0,2600" />
          <path d="M212560.38,138356.46l0,1400" />
          <path d="M212560.38,139756.46l200,0" />
          <path d="M212760.38,139756.46l0,-1400" />
          <path d="M212560.38,126106.46l400,0" />
          <path d="M212960.38,126106.46l0,-250" />
          <path d="M212960.38,125856.46l-200,0" />
          <path d="M214760.38,125856.46l-300,0" />
          <path d="M214460.38,125856.46l0,250" />
          <path d="M214460.38,126106.46l200,0" />
          <use xlink:href="#$DorLib2D$00000231" x="142.474" y="83.988" transform="scale(1500,1500) scale(-1,1) translate(-284.95,0)" stroke-width="0.0001%">.</use>
          <path d="M207660.38,145556.46l-1200,0" />
          <path d="M206460.38,145556.46l0,200" />
          <path d="M206460.38,145756.46l1000,0" />
          <path d="M212560.38,153556.46l0,-3100" />
          <path d="M212760.38,153556.46l0,-3300" />
          <path d="M212560.38,150456.46l-5000,0" />
          <path d="M212760.38,150256.46l-5100,0" />
          <path d="M207460.38,150256.46l0,-3450" />
          <path d="M207660.38,150256.46l0,-3450" />
          <path d="M207460.38,146806.46l200,0" />
          <use xlink:href="#$DorLib2D$00000231" x="136.94" y="100.238" transform="scale(1500,1500) scale(-1,1) translate(-273.88,0) rotate(-180,136.94,100.24)" stroke-width="0.0001%">.</use>
          <path d="M218160.38,126106.46l0,200" />
          <path d="M218160.38,126306.46l250,0" />
          <path d="M218410.38,126306.46l0,-200" />
          <path d="M218410.38,126106.46l-250,0" />
          <path d="M218410.38,129556.46l0,-2350" />
          <path d="M218410.38,127206.46l-250,0" />
          <path d="M218160.38,127206.46l0,2600" />
          <path d="M219160.36,121153.36l-300,-300" />
          <path d="M219160.36,121153.36l300,-300" />
          <path d="M218460.36,121153.36l1000,0" />
          <path d="M218860.36,120853.36l1565,0" />
          <path d="M207460.38,150256.46l-1300,0" />
          <path d="M206160.38,150256.46l0,200" />
          <path d="M206160.38,150456.46l1400,0" />
          <path d="M204460.38,150456.46l200,0" />
          <path d="M204660.38,150456.46l0,-200" />
          <path d="M204660.38,150256.46l-200,0" />
          <path d="M204460.38,150256.46l0,200" />
          <path d="M212560.38,126106.46l0,-450" />
          <path d="M212760.38,125856.46l0,-400" />
          <path d="M220860.38,146356.46l0,800" />
          <path d="M220860.38,147156.46l300,0" />
          <path d="M221160.38,147156.46l0,-800" />
          <path d="M221160.38,153556.46l0,-800" />
          <path d="M221160.38,152756.46l-300,0" />
          <path d="M220860.38,152756.46l0,800" />
          <path d="M220860.38,148956.46l0,2000" />
          <path d="M220860.38,150956.46l300,0" />
          <path d="M221160.38,150956.46l0,-2000" />
          <path d="M221160.38,148956.46l-300,0" />
          <use xlink:href="#$WINLIB2D$00000001_1800x300" x="221010.38" y="151856.46" transform="scale(-1,1) translate(-442020.76,0) rotate(-90,221010.38,151856.46)">.<g class="blkclass0"><text transform="rotate(-90 -276.25,435) translate(-276.25,435)" font-size="386.75">C1810</text></g></use>
          <use xlink:href="#$WINLIB2D$00000001_1800x300" x="221010.38" y="148056.46" transform="scale(-1,1) translate(-442020.76,0) rotate(-90,221010.38,148056.46)">.<g class="blkclass0"><text transform="rotate(-90 -276.25,435) translate(-276.25,435)" font-size="386.75">C1810</text></g></use>
          <path d="M212760.38,137556.46l0,-340" />
          <path d="M212760.38,137216.46l-200,0" />
          <path d="M212560.38,137216.46l0,340" />
          <path d="M212560.38,130356.46l0,2800" />
          <path d="M212560.38,133156.46l200,0" />
          <path d="M212760.38,133156.46l0,-2800" />
          <path d="M212760.38,135716.46l0,-1060" />
          <path d="M212760.38,134656.46l-200,0" />
          <path d="M212560.38,134656.46l0,1060" />
          <path d="M212560.38,135716.46l200,0" />
          <path d="M212760.38,133156.46l0,1500" />
          <path d="M212760.38,134656.46l-200,0" />
          <path d="M212560.38,134656.46l0,-1500" />
          <path d="M212560.38,133156.46l200,0" />
          <path d="M214860.38,149656.46l0,-1300" />
          <path d="M214860.38,148356.46l-200,0" />
          <path d="M214660.38,148356.46l0,1100" />
          <path d="M214660.38,146056.46l0,800" />
          <path d="M214660.38,146856.46l200,0" />
          <path d="M214860.38,146856.46l0,-800" />
          <path d="M214760.38,125856.46l1050,0" />
          <path d="M214860.38,126106.46l950,0" />
          <path d="M215810.38,125856.46l0,250" />
          <path d="M212560.38,146606.46l0,-250" />
          <path d="M212760.38,146606.46l0,-250" />
          <use xlink:href="#$DorLib2D$00000228" x="236.289" y="163.618" transform="scale(900,900) scale(-1,1) translate(-472.58,0) rotate(-270,236.29,163.62)" stroke-width="0.0001%">.<g class="blkclass0"><text transform="rotate(-90 608.65,445) translate(608.65,445)" font-size="386.75">M0921</text></g></use>
          <use xlink:href="#$DorLib2D$00000231" x="137.14" y="97.104" transform="scale(1500,1500) scale(-1,1) translate(-274.28,0) rotate(-180,137.14,97.1)" stroke-width="0.0001%">.</use>
          <path d="M212760.38,144056.46l-8300,0" />
          <path d="M212560.38,143856.46l-8100,0" />
          <path d="M204460.38,144056.46l0,-200" />
          <path d="M212760.38,149456.46l0,-1750" />
          <path d="M212760.38,147706.46l-200,0" />
          <path d="M212560.38,147706.46l0,1950" />
          <path d="M212560.38,146806.46l200,0" />
          <path d="M212760.38,146806.46l0,-200" />
          <path d="M214660.38,149456.46l0,200" />
          <path d="M214660.38,149656.46l200,0" />
          <path d="M212760.38,149656.46l400,0" />
          <path d="M213160.38,149656.46l0,-200" />
          <path d="M213160.38,149456.46l-400,0" />
          <use xlink:href="#$DorLib2D$00000116" x="142.607" y="99.704" transform="scale(1500,1500) scale(-1,-1) translate(-285.21,-199.41) rotate(-180,142.61,99.7)" stroke-width="0.0001%">.<g class="blkclass0"><text transform="translate(-470,523.75)" font-size="386.75">M1527</text></g></use>
          <path d="M220360.38,146056.46l-5500,0" />
          <path d="M220360.38,145856.46l-5500,0" />
          <path d="M214660.38,146056.46l0,0" />
          <path d="M214660.38,145856.46l0,0" />
          <path d="M214660.38,146056.46l0,-200" />
          <use xlink:href="#$DorLib2D$00000116" x="143.174" y="98.404" transform="scale(1500,1500) scale(-1,-1) translate(-286.35,-196.81) rotate(-90,143.17,98.4)" stroke-width="0.0001%">.<g class="blkclass0"><text transform="rotate(-90 -226.25,470) translate(-226.25,470)" font-size="386.75">M1527</text></g></use>
          <use xlink:href="#$DorLib2D$00000116" x="143.174" y="96.204" transform="scale(1500,1500) scale(-1,-1) translate(-286.35,-192.41) rotate(-90,143.17,96.2)" stroke-width="0.0001%">.<g class="blkclass0"><text transform="rotate(-90 -226.25,470) translate(-226.25,470)" font-size="386.75">M1527</text></g></use>
          <path d="M214860.38,129606.46l699.69,0" />
          <path d="M214860.38,129806.46l759.69,0" />
          <path d="M214860.38,129606.46l0,-150" />
          <path d="M214860.38,129456.46l-200,0" />
          <path d="M214660.38,129456.46l0,150" />
          <path d="M214660.38,126106.46l0,200" />
          <path d="M214660.38,126306.46l200,0" />
          <path d="M214860.38,126306.46l0,-200" />
          <path d="M214860.38,128456.46l0,-1250" />
          <path d="M214860.38,127206.46l-200,0" />
          <path d="M214660.38,127206.46l0,1250" />
          <path d="M214660.38,128456.46l200,0" />
          <path d="M220360.38,138056.46l-5500,0" />
          <path d="M220360.38,137856.46l-5500,0" />
          <use xlink:href="#$DorLib2D$00000116" x="143.174" y="92.964" transform="scale(1500,1500) scale(-1,-1) translate(-286.35,-185.93) rotate(-90,143.17,92.96)" stroke-width="0.0001%">.<g class="blkclass0"><text transform="rotate(-90 -226.25,470) translate(-226.25,470)" font-size="386.75">M1527</text></g></use>
          <use xlink:href="#$DorLib2D$00000116" x="143.174" y="90.978" transform="scale(1500,1500) scale(-1,-1) translate(-286.35,-181.96) rotate(-90,143.17,90.98)" stroke-width="0.0001%">.<g class="blkclass0"><text transform="rotate(-90 -226.25,470) translate(-226.25,470)" font-size="386.75">M1527</text></g></use>
          <use xlink:href="#$DorLib2D$00000116" x="143.174" y="87.538" transform="scale(1500,1500) scale(-1,-1) translate(-286.35,-175.08) rotate(-90,143.17,87.54)" stroke-width="0.0001%">.<g class="blkclass0"><text transform="rotate(-90 -226.25,470) translate(-226.25,470)" font-size="386.75">M1527</text></g></use>
          <use xlink:href="#$DorLib2D$00000116" x="141.774" y="93.671" transform="scale(1500,1500) scale(-1,1) translate(-283.55,0) rotate(-270,141.77,93.67)" stroke-width="0.0001%">.<g class="blkclass0"><text transform="rotate(-90 523.75,470) translate(523.75,470)" font-size="386.75">M1527</text></g></use>
          <path d="M212560.38,133156.46l0,1500" />
          <path d="M212760.38,134656.46l0,-1500" />
          <use xlink:href="#$DorLib2D$00000228" x="238.623" y="140.841" transform="scale(900,900) scale(1,-1) translate(0,-281.68) rotate(-270,238.62,140.84)" stroke-width="0.0001%">.<g class="blkclass0"><text transform="rotate(-90 1117.72,445) translate(1117.72,445)" font-size="386.75">M0921</text></g></use>
          <use xlink:href="#$WINLIB2D$00000001_7200x300" x="221010.38" y="141956.46" transform="scale(1,-1) translate(0,-283912.92) rotate(-90,221010.38,141956.46)">.<g class="blkclass0"><text transform="rotate(-90 -320.92,527.1) translate(-320.92,527.1)" font-size="386.75">C7221</text></g></use>
          <use xlink:href="#$WINLIB2D$00000001_7200x300" x="221010.38" y="133956.46" transform="scale(1,-1) translate(0,-267912.92) rotate(-90,221010.38,133956.46)">.<g class="blkclass0"><text transform="rotate(-90 -339.84,469.72) translate(-339.84,469.72)" font-size="386.75">C7221</text></g></use>
          <path d="M212560.38,135716.46l0,1500" />
          <path d="M212760.38,137216.46l0,-1500" />
          <use xlink:href="#$DorLib2D$00000116" x="141.774" y="89.271" transform="scale(1500,1500) scale(-1,1) translate(-283.55,0) rotate(-270,141.77,89.27)" stroke-width="0.0001%">.<g class="blkclass0"><text transform="rotate(-90 531.26,470) translate(531.26,470)" font-size="386.75">M1527</text></g></use>
          <path d="M214860.38,137856.46l0,-640" />
          <path d="M214860.38,137216.46l-200,0" />
          <path d="M214660.38,137216.46l0,840" />
          <path d="M214660.38,129606.46l0,950" />
          <path d="M214660.38,130556.46l200,0" />
          <path d="M214860.38,130556.46l0,-750" />
          <path d="M214860.38,135716.46l0,-3660" />
          <path d="M214860.38,132056.46l-200,0" />
          <path d="M214660.38,132056.46l0,3660" />
          <path d="M214660.38,135716.46l200,0" />
          <path d="M214860.38,145856.46l0,-800" />
          <path d="M214860.38,145056.46l-200,0" />
          <path d="M214660.38,145056.46l0,800" />
          <path d="M214660.38,138056.46l0,640" />
          <path d="M214660.38,138696.46l200,0" />
          <path d="M214860.38,138696.46l0,-640" />
          <path d="M214860.38,143556.46l0,-3360" />
          <path d="M214860.38,140196.46l-200,0" />
          <path d="M214660.38,140196.46l0,3360" />
          <path d="M214660.38,143556.46l200,0" />
          <path d="M212860.38,129556.46l0,-1950" />
          <path d="M212860.38,127606.46l-150,0" />
          <path d="M212710.38,127606.46l0,1950" />
          <path d="M212860.38,126106.46l-150,0" />
          <path d="M210660.38,129956.46l1600,0" />
          <path d="M210585.38,130156.46l1675,0" />
          <path d="M204460.38,125456.46l6125,0" />
          <path d="M204460.38,125656.46l6050,0" />
          <path d="M204460.38,125456.46l0,200" />
          <use xlink:href="#$lvtry$00000193" x="210680.38" y="128156.46" transform="rotate(-90,210680.38,128156.46)">.</use>
          <use xlink:href="#$lvtry$00000193" x="210680.38" y="127456.46" transform="rotate(-90,210680.38,127456.46)">.</use>
          <use xlink:href="#$DorLib2D$00000228" x="263.232" y="161.758" transform="scale(800,800) scale(-1,-1) translate(-526.46,-323.52) rotate(-90,263.23,161.76)" stroke-width="0.0001%">.<g class="blkclass0"><text transform="rotate(-90 -329.81,445) translate(-329.81,445)" font-size="386.75">M0821</text></g></use>
          <use xlink:href="#$DorLib2D$00000228" x="263.232" y="157.758" transform="scale(800,800) scale(1,-1) translate(0,-315.52) rotate(-270,263.23,157.76)" stroke-width="0.0001%">.<g class="blkclass0"><text transform="rotate(-90 -329.81,441.86) translate(-329.81,441.86)" font-size="386.75">M0821</text></g></use>
          <use xlink:href="#$lvtry$00000202" x="210060.38" y="127806.46">.</use>
          <use xlink:href="#$lvtry$00000202" x="209160.38" y="127806.46">.</use>
          <use xlink:href="#$lvtry$00000202" x="208260.38" y="127806.46">.</use>
          <use xlink:href="#$lvtry$00000202" x="207360.38" y="127806.46">.</use>
          <path d="M209622.88,127606.46l0,1187.5" />
          <path d="M209597.88,127606.46l0,1187.5" />
          <path d="M209622.88,127606.46l-25,0" />
          <path d="M210510.38,128793.96l-150,0" />
          <path d="M210360.38,128793.96l0,25" />
          <path d="M210360.38,128818.96l150,0" />
          <path d="M210510.38,128818.96l0,-25" />
          <path d="M209610.38,128818.96l150,0" />
          <path d="M209760.38,128818.96l0,-25" />
          <path d="M209760.38,128793.96l-137.5,0" />
          <use xlink:href="#$TCHSYS$APDOOR2D" x="350.101" y="214.677" transform="scale(600,600) rotate(-180,350.1,214.68)" stroke-width="0.0002%">.</use>
          <path d="M208722.88,127606.46l0,1187.5" />
          <path d="M208697.88,127606.46l0,1187.5" />
          <path d="M208722.88,127606.46l-25,0" />
          <path d="M209597.88,128793.96l-137.5,0" />
          <path d="M209460.38,128793.96l0,25" />
          <path d="M209460.38,128818.96l150,0" />
          <path d="M208710.38,128818.96l150,0" />
          <path d="M208860.38,128818.96l0,-25" />
          <path d="M208860.38,128793.96l-137.5,0" />
          <use xlink:href="#$TCHSYS$APDOOR2D" x="348.601" y="214.677" transform="scale(600,600) rotate(-180,348.6,214.68)" stroke-width="0.0002%">.</use>
          <path d="M207822.88,127606.46l0,1187.5" />
          <path d="M207797.88,127606.46l0,1187.5" />
          <path d="M207822.88,127606.46l-25,0" />
          <path d="M208697.88,128793.96l-137.5,0" />
          <path d="M208560.38,128793.96l0,25" />
          <path d="M208560.38,128818.96l150,0" />
          <path d="M207810.38,128818.96l150,0" />
          <path d="M207960.38,128818.96l0,-25" />
          <path d="M207960.38,128793.96l-137.5,0" />
          <use xlink:href="#$TCHSYS$APDOOR2D" x="347.101" y="214.677" transform="scale(600,600) rotate(-180,347.1,214.68)" stroke-width="0.0002%">.</use>
          <path d="M206925.88,127606.46l0,1187.5" />
          <path d="M206900.88,127606.46l0,1187.5" />
          <path d="M206925.88,127606.46l-25,0" />
          <path d="M207797.88,128793.96l-137.5,0" />
          <path d="M207660.38,128793.96l0,25" />
          <path d="M207660.38,128818.96l150,0" />
          <path d="M206913.38,128818.96l147,0" />
          <path d="M207060.38,128818.96l0,-25" />
          <path d="M207060.38,128793.96l-134.5,0" />
          <use xlink:href="#$TCHSYS$APDOOR2D" x="345.601" y="214.677" transform="scale(600,600) rotate(-180,345.6,214.68)" stroke-width="0.0002%">.</use>
          <path d="M204960.38,129956.46l5550,0" />
          <path d="M204960.38,130156.46l5625,0" />
          <path d="M204460.38,127456.46l1200,0" />
          <path d="M204460.38,127606.46l1200,0" />
          <path d="M204460.38,127456.46l0,150" />
          <path d="M212710.38,126106.46l0,1500" class="cnc-3" />
          <path d="M212860.38,127606.46l0,-1500" class="cnc-3" />
          <path d="M210660.38,129956.46l0,-149.67" />
          <path d="M210660.38,129806.79l-150,0" />
          <path d="M210510.38,129806.79l0,149.67" />
          <path d="M210510.38,127606.46l0,1400.33" />
          <path d="M210510.38,129006.79l150,0" />
          <path d="M210660.38,129006.79l0,-1475.33" />
          <use xlink:href="#$lvtry$00000222" x="213735.082" y="153381.277" transform="scale(0.98,0.83) rotate(-180,213735.08,153381.28)" stroke-width="0.0918%">.</use>
          <use xlink:href="#$lvtry$00000222" x="213020.796" y="153381.277" transform="scale(0.98,0.83) rotate(-180,213020.8,153381.28)" stroke-width="0.0918%">.</use>
          <use xlink:href="#$lvtry$00000222" x="212306.51" y="153381.277" transform="scale(0.98,0.83) rotate(-180,212306.51,153381.28)" stroke-width="0.0918%">.</use>
          <path d="M209797.88,127306.46l0,-400" />
          <path d="M209822.88,127306.46l0,-400" />
          <path d="M209797.88,127306.46l25,0" />
          <path d="M209797.88,126906.46l25,0" />
          <path d="M209097.88,127306.46l0,-400" />
          <path d="M209122.88,127306.46l0,-400" />
          <path d="M209097.88,127306.46l25,0" />
          <path d="M209097.88,126906.46l25,0" />
          <path d="M208397.88,127306.46l0,-400" />
          <path d="M208422.88,127306.46l0,-400" />
          <path d="M208397.88,127306.46l25,0" />
          <path d="M208397.88,126906.46l25,0" />
          <path d="M207697.88,127306.46l0,-400" />
          <path d="M207722.88,127306.46l0,-400" />
          <path d="M207697.88,127306.46l25,0" />
          <path d="M207697.88,126906.46l25,0" />
          <use xlink:href="#$lvtry$00000188" x="210210.86" y="127306.46" transform="rotate(-180,210210.86,127306.46)">.</use>
          <use xlink:href="#$lvtry$00000188" x="204765.21" y="128155.58" transform="rotate(-180,204765.21,128155.58)">.</use>
          <path d="M210585.38,125456.46l1975,0" />
          <path d="M210660.38,125656.46l1900,0" />
          <path d="M214860.38,128136.46l759.69,0" />
          <path d="M214860.38,128256.46l699.69,0" />
          <path d="M214860.38,128136.46l0,120" />
          <path d="M215560.07,129606.46l0,-1350" />
          <path d="M215680.07,129606.46l0,-1350" />
          <path d="M215680.07,129606.46l2480.31,0" />
          <path d="M215620.07,129806.46l2540.31,0" />
          <path d="M218160.38,129606.46l0,200" />
          <path d="M215620.07,128136.46l60,0" />
          <path d="M215680.07,128256.46l0,0" />
          <path d="M215680.07,128136.46l0,120" />
          <path d="M214660.38,128456.46l0,1000" class="cnc-3" />
          <path d="M214860.38,129456.46l0,-1000" class="cnc-3" />
          <use xlink:href="#$DorLib2D$00000231" x="139.893" y="97.104" transform="scale(1500,1500) scale(1,-1) translate(0,-194.21) rotate(-180,139.89,97.1)" stroke-width="0.0001%">.</use>
          <path d="M207660.38,146606.46l4900,0" />
          <path d="M207460.38,146806.46l5100,0" />
          <path d="M210660.38,127531.46l0,-925.19" />
          <path d="M210660.38,126606.27l-150,0" />
          <path d="M210510.38,126606.27l0,850.19" />
          <path d="M210510.38,125656.46l0,149.81" />
          <path d="M210510.38,125806.27l150,0" />
          <path d="M210660.38,125806.27l0,-149.81" />
          <use xlink:href="#$lvtry$00000202" x="204660.38" y="126106.46" transform="rotate(-90,204660.38,126106.46)">.</use>
          <use xlink:href="#$lvtry$00000202" x="204660.38" y="127006.46" transform="rotate(-90,204660.38,127006.46)">.</use>
          <path d="M204460.38,126543.96l1187.5,0" />
          <path d="M204460.38,126568.96l1187.5,0" />
          <path d="M204460.38,126543.96l0,25" />
          <path d="M205647.88,125656.46l0,150" />
          <path d="M205647.88,125806.46l25,0" />
          <path d="M205672.88,125806.46l0,-150" />
          <path d="M205672.88,125656.46l-25,0" />
          <path d="M205672.88,126556.46l0,-150" />
          <path d="M205672.88,126406.46l-25,0" />
          <path d="M205647.88,126406.46l0,137.5" />
          <use xlink:href="#$TCHSYS$APDOOR2D" x="342.767" y="210.177" transform="scale(600,600) rotate(-270,342.77,210.18)" stroke-width="0.0002%">.</use>
          <path d="M205647.88,126568.96l0,137.5" />
          <path d="M205647.88,126706.46l25,0" />
          <path d="M205672.88,126706.46l0,-150" />
          <path d="M205672.88,127456.46l0,-150" />
          <path d="M205672.88,127306.46l-25,0" />
          <path d="M205647.88,127306.46l0,150" />
          <use xlink:href="#$TCHSYS$APDOOR2D" x="342.767" y="211.677" transform="scale(600,600) rotate(-270,342.77,211.68)" stroke-width="0.0002%">.</use>
          <path d="M205660.38,127456.46l4850,0" />
          <path d="M205660.38,127606.46l4850,0" />
          <use xlink:href="#$lvtry$00000222" x="211592.224" y="153381.277" transform="scale(0.98,0.83) rotate(-180,211592.22,153381.28)" stroke-width="0.0918%">.</use>
          <path d="M206997.88,127306.46l0,-400" />
          <path d="M207022.88,127306.46l0,-400" />
          <path d="M206997.88,127306.46l25,0" />
          <path d="M206997.88,126906.46l25,0" />
          <use xlink:href="#$lvtry$00000202" x="206463.38" y="127806.46">.</use>
          <path d="M206028.88,127606.46l0,1187.5" />
          <path d="M206003.88,127606.46l0,1187.5" />
          <path d="M206028.88,127606.46l-25,0" />
          <path d="M206900.88,128793.96l-137.5,0" />
          <path d="M206763.38,128793.96l0,25" />
          <path d="M206763.38,128818.96l150,0" />
          <path d="M206016.38,128818.96l147,0" />
          <path d="M206163.38,128818.96l0,-25" />
          <path d="M206163.38,128793.96l-134.5,0" />
          <use xlink:href="#$TCHSYS$APDOOR2D" x="344.106" y="214.677" transform="scale(600,600) rotate(-180,344.11,214.68)" stroke-width="0.0002%">.</use>
          <use xlink:href="#$lvtry$00000202" x="205566.38" y="127806.46">.</use>
          <path d="M205131.88,127606.46l0,1187.5" />
          <path d="M205106.88,127606.46l0,1212.5" />
          <path d="M205131.88,127606.46l-25,0" />
          <path d="M206003.88,128793.96l-137.5,0" />
          <path d="M205866.38,128793.96l0,25" />
          <path d="M205866.38,128818.96l150,0" />
          <path d="M205106.88,128818.96l159.5,0" />
          <path d="M205266.38,128818.96l0,-25" />
          <path d="M205266.38,128793.96l-134.5,0" />
          <use xlink:href="#$TCHSYS$APDOOR2D" x="342.611" y="214.677" transform="scale(600,600) rotate(-180,342.61,214.68)" stroke-width="0.0002%">.</use>
          <use xlink:href="#$DorLib2D$00000228" x="242.539" y="140.841" transform="scale(900,900) scale(-1,1) translate(-485.08,0) rotate(-90,242.54,140.84)" stroke-width="0.0001%">.<g class="blkclass0"><text transform="rotate(-90 1205,425.29) translate(1205,425.29)" font-size="386.75">M0921</text></g></use>
          <path d="M207527.05,149131.46l0,-1200" class="cnc-3" />
          <path d="M207593.72,149131.46l0,-1200" class="cnc-3" />
          <path d="M207460.38,147931.46l200,0" class="cnc-3" />
          <path d="M207460.38,149131.46l200,0" class="cnc-3" />
          <path d="M206260.38,151238.96l1950,0l300,0" />
          <path d="M206260.38,152923.96l5325,0l0,-1685l-2475,0l-300,0" />
          <path d="M206410.38,150456.46l1740.49,0" />
          <path d="M208266.34,150456.46l2344.04,0" />
          <path d="M206410.38,150456.46l0,1505" />
          <path d="M206710.38,150456.46l0,1505" />
          <path d="M207010.38,150456.46l0,1505" />
          <path d="M207310.38,150456.46l0,1505" />
          <path d="M207610.38,150456.46l0,1505" />
          <path d="M207910.38,150456.46l0,1505" />
          <path d="M208210.38,150559.54l0,1401.92" />
          <path d="M208510.38,150456.46l0,422.69" />
          <path d="M208510.38,151079.15l0,882.31" />
          <path d="M208810.38,150456.46l0,942.31" />
          <path d="M208810.38,151598.77l0,362.69" />
          <path d="M209110.38,150456.46l0,1461.92" />
          <path d="M209410.38,150456.46l0,1505" />
          <path d="M209710.38,150456.46l0,1505" />
          <path d="M210010.38,150456.46l0,1505" />
          <path d="M210310.38,150456.46l0,1505" />
          <path d="M210610.38,150456.46l0,1505" />
          <path d="M206410.38,152021.46l2644.04,0" />
          <path d="M209169.9,152021.46l1440.49,0" />
          <path d="M208266.34,150456.46l399.12,691.3" />
          <path d="M208150.87,150456.46l414.59,718.1" />
          <path d="M208565.47,151174.56l172.35,-46.18" />
          <path d="M208737.82,151128.37l-172.89,206.04" />
          <path d="M208564.92,151334.42l180.4,-48.34" />
          <path d="M208745.32,151286.08l424.57,735.38" />
          <path d="M208645.32,151312.88l409.1,708.58" />
          <path d="M210610.38,153706.46l-4200,0" />
          <path d="M210610.38,153706.46l0,-1505" />
          <path d="M210310.38,153706.46l0,-1505" />
          <path d="M210010.38,153706.46l0,-1505" />
          <path d="M209710.38,153706.46l0,-1505" />
          <path d="M209410.38,153706.46l0,-1505" />
          <path d="M209110.38,153706.46l0,-1505" />
          <path d="M208810.38,153706.46l0,-1505" />
          <path d="M208510.38,153706.46l0,-1505" />
          <path d="M208210.38,153706.46l0,-1505" />
          <path d="M207910.38,153706.46l0,-1505" />
          <path d="M207610.38,153706.46l0,-1505" />
          <path d="M207310.38,153706.46l0,-1505" />
          <path d="M207010.38,153706.46l0,-1505" />
          <path d="M206710.38,153706.46l0,-1505" />
          <path d="M206410.38,153706.46l0,-1505" />
          <path d="M210610.38,152141.46l-4200,0" />
          <path d="M206350.38,152201.46l0,-240" />
          <path d="M206350.38,151961.46l2669.4,0" />
          <path d="M209135.25,151961.46l1535.13,0" />
          <path d="M210670.38,151961.46l0,240" />
          <path d="M210670.38,152201.46l-4320,0" />
          <path d="M206410.38,152141.46l0,-120" />
          <path d="M206410.38,152021.46l2644.04,0" />
          <path d="M209169.9,152021.46l1440.49,0" />
          <path d="M210610.38,152021.46l0,120" />
          <path d="M210610.38,152141.46l-4200,0" />
          <path d="M210610.38,153706.46l1650,0" />
          <path d="M212560.38,153556.46l0,-3100" />
          <path d="M212560.38,150456.46l-1950,0" />
          <path d="M210610.38,150456.46l0,1505" />
          <path d="M210610.38,152201.46l0,1505" />
          <path d="M210610.38,152021.46l0,120" />
          <path d="M206410.38,152021.46l0,120" />
          <path d="M210760.38,122988.96l-1950,0l-300,0" />
          <path d="M210760.38,124673.96l-5325,0l0,-1685l2475,0l300,0" />
          <path d="M210610.38,122206.46l-2644.04,0" />
          <path d="M207850.87,122206.46l-1440.49,0" />
          <path d="M210610.38,123711.46l0,-1505" />
          <path d="M210310.38,123711.46l0,-1505" />
          <path d="M210010.38,123711.46l0,-1505" />
          <path d="M209710.38,123711.46l0,-1505" />
          <path d="M209410.38,123711.46l0,-1505" />
          <path d="M209110.38,123711.46l0,-1505" />
          <path d="M208810.38,123668.38l0,-1461.92" />
          <path d="M208510.38,123711.46l0,-362.69" />
          <path d="M208510.38,123148.77l0,-942.31" />
          <path d="M208210.38,123711.46l0,-882.31" />
          <path d="M208210.38,122629.15l0,-422.69" />
          <path d="M207910.38,123711.46l0,-1401.92" />
          <path d="M207610.38,123711.46l0,-1505" />
          <path d="M207310.38,123711.46l0,-1505" />
          <path d="M207010.38,123711.46l0,-1505" />
          <path d="M206710.38,123711.46l0,-1505" />
          <path d="M206410.38,123711.46l0,-1505" />
          <path d="M210610.38,123771.46l-1740.49,0" />
          <path d="M208754.43,123771.46l-2344.04,0" />
          <path d="M208754.43,123771.46l-399.12,-691.3" />
          <path d="M208869.9,123771.46l-414.59,-718.1" />
          <path d="M208455.3,123053.36l-172.35,46.18" />
          <path d="M208282.95,123099.55l172.89,-206.04" />
          <path d="M208455.84,122893.5l-180.4,48.34" />
          <path d="M208275.44,122941.84l-424.57,-735.38" />
          <path d="M208375.44,122915.04l-409.1,-708.58" />
          <path d="M206410.38,125456.46l4200,0" />
          <path d="M206410.38,123951.46l0,1505" />
          <path d="M206710.38,123951.46l0,1505" />
          <path d="M207010.38,123951.46l0,1505" />
          <path d="M207310.38,123951.46l0,1505" />
          <path d="M207610.38,123951.46l0,1505" />
          <path d="M207910.38,123951.46l0,1505" />
          <path d="M208210.38,123951.46l0,1505" />
          <path d="M208510.38,123951.46l0,1505" />
          <path d="M208810.38,123951.46l0,1505" />
          <path d="M209110.38,123951.46l0,1505" />
          <path d="M209410.38,123951.46l0,1505" />
          <path d="M209710.38,123951.46l0,1505" />
          <path d="M210010.38,123951.46l0,1505" />
          <path d="M210310.38,123951.46l0,1505" />
          <path d="M210610.38,123951.46l0,1505" />
          <path d="M206410.38,123891.46l4200,0" />
          <path d="M210610.38,123891.46l0,-120" />
          <path d="M210610.38,123771.46l-1740.49,0" />
          <path d="M208754.43,123771.46l-2344.04,0" />
          <path d="M206410.38,123771.46l0,120" />
          <path d="M206410.38,123891.46l4200,0" />
          <path d="M210670.38,123951.46l0,-240" />
          <path d="M210670.38,123711.46l-1835.13,0" />
          <path d="M208719.78,123711.46l-2369.4,0" />
          <path d="M206350.38,123711.46l0,240" />
          <path d="M206350.38,123951.46l4320,0" />
          <path d="M206410.38,122206.46l-1450,0" />
          <path d="M204460.38,122356.46l0,3100" />
          <path d="M204460.38,125456.46l1950,0" />
          <path d="M206410.38,125456.46l0,-1505" />
          <path d="M206410.38,123711.46l0,-1505" />
          <path d="M206410.38,123891.46l0,-120" />
          <path d="M210610.38,123771.46l0,120" />
        </g>
      </g>
      <g id="assets" fill="none">
        <g id="rm-assets" class="rm-asset">
          <path id="14008;F03;309-310" d="M204460.38,130356.46l500,0l0,-200l7300,0l0,200l300,0l0,7200l-300,0l0,400l0,400l300,0l0,5500l-8100,0l0,-5500l500,0l0,-800l-500,0z" />
          <path id="14008;F03;306-307" d="M214860.38,146056.46l5500,0l0,300l500,0l0,7200l-500,0l0,500l-7300,0l0,-500l-300,0l0,-3900l2100,0z" />
          <path id="14008;F03;302-303" d="M214860.38,129806.46l5500,0l0,550l500,0l0,7200l-500,0l0,300l-5500,0l0,-8050z" />
          <path id="14008;F03;304-305" d="M214860.38,145856.46l5500,0l0,-300l500,0l0,-7200l-500,0l0,-300l-5500,0z" />
          <path id="14008;F03;308" d="M207660.38,150256.46l4898.62,0l0,-3449.36l-4898.62,-0.64z" />
          <path id="14008;F03;301" d="M214860.38,126106.46l3300,0l0,3500l-3300,0z" />
        </g>
      </g>
    </g>
    <g id="text" font-family="Arial" font-size="438.86524822695031" font-weight="normal" text-style="normal" text-anchor="start" dominant-baseline="alphabetical" fill="#FF7F00" xml:space="preserve">
      <g id="layer-bady-text">
        <g transform="rotate(-90 213160.38,124065.82) translate(213160.38,124065.82)" font-size="386.75">
          <text>FM1521</text>
        </g>
        <g transform="rotate(-90 213160.38,122925.82) translate(213160.38,122925.82)">
          <text>乙</text>
        </g>
        <g transform="translate(213051.02,126501.2)" font-size="386.75">
          <text>FM1521</text>
        </g>
        <g transform="translate(214191.02,126501.2)">
          <text>乙</text>
        </g>
        <g transform="translate(204751.02,150211.2)" font-size="386.75">
          <text>FM1521</text>
        </g>
        <g transform="translate(205891.02,150211.2)">
          <text>乙</text>
        </g>
        <g transform="translate(219295.36,120748.36)" font-size="386.75" fill="#000000" stroke="#000000" stroke-width="0.02">
          <text>-0.300</text>
        </g>
        <g transform="translate(205051.02,145511.2)" font-size="386.75">
          <text>FM1521</text>
        </g>
        <g transform="translate(206191.02,145511.2)">
          <text>乙</text>
        </g>
        <g transform="rotate(-90 213284.13,127266.46) translate(213284.13,127266.46)" font-size="386.75">
          <text>D1521</text>
        </g>
        <g transform="rotate(-90 214507.09,129366.46) translate(214507.09,129366.46)" font-size="386.75">
          <text>D1021</text>
        </g>
        <g transform="translate(210230.61,146414.34)" font-size="626.95">
          <text>电井</text>
        </g>
        <g transform="translate(209007.43,144830.95)" font-size="386.75">
          <text>FM1521</text>
        </g>
        <g transform="translate(210147.43,144830.95)">
          <text>乙</text>
        </g>
        <g transform="rotate(-90 207436.39,149306.32) translate(207436.39,149306.32)" font-size="386.75">
          <text>FGC1209</text>
        </g>
        <g transform="rotate(-90 207436.39,147946.32) translate(207436.39,147946.32)">
          <text>甲</text>
        </g>
        <g transform="translate(205946.87,151413.96)" fill="#000000" stroke="#000000" stroke-width="0.02">
          <text>上</text>
        </g>
        <g transform="translate(205965.49,153098.96)" fill="#000000" stroke="#000000" stroke-width="0.02">
          <text>下</text>
        </g>
        <g transform="translate(210865.38,123163.96)" fill="#000000" stroke="#000000" stroke-width="0.02">
          <text>上</text>
        </g>
        <g transform="translate(210865.38,124848.96)" fill="#000000" stroke="#000000" stroke-width="0.02">
          <text>下</text>
        </g>
      </g>
    </g>
    <g id="asset-labels" font-family="Arial" font-weight="bold" font-size="38.1em" text-anchor="middle">
      <g id="rm-labels">
        <g id="l-rm-14008;F03;309-310" transform="translate(208510.38,137006.46)">
          <text>309-310</text>
        </g>
        <g id="l-rm-14008;F03;306-307" transform="translate(216810.38,150056.46)">
          <text>306-307</text>
        </g>
        <g id="l-rm-14008;F03;302-303" transform="translate(217860.38,133831.46)">
          <text>302-303</text>
        </g>
        <g id="l-rm-14008;F03;304-305" transform="translate(217860.38,141956.46)">
          <text>304-305</text>
        </g>
        <g id="l-rm-14008;F03;308" transform="translate(210109.7,148531.46)">
          <text>308</text>
        </g>
        <g id="l-rm-14008;F03;301" transform="translate(216510.38,127856.46)">
          <text>301</text>
        </g>
      </g>
    </g>
  </g>
</svg>