<svg version="1.1" xmlns="http://www.w3.org/2000/svg" xmlns:xlink="http://www.w3.org/1999/xlink" viewBox="204406.88 -181526.46 17450 33226">
  <style>.i0 { stroke:#000000;   } .bady { stroke:#ff7f00;   } .name { stroke:#ff0000;   } .rm { stroke:#00ffff;   } .axis_text { stroke:#000000;   } .pub_wall { stroke:#c0c0c0;   } .pub_hatch { stroke:#808080;   } .rm-asset { stroke:#0000ff;   fill:#EEEEEE; fill-opacity:1;} .rmtc-asset { stroke:#0000ff;   } .rmtc { stroke:#00ffff;   } .rm-assettxt { stroke:#0000ff;   } .rmtc-assettxt { stroke:#0000ff;   } .cnc-0 { stroke:#ff7f00;  stroke-dasharray:0; fill:#cccccc; fill-opacity:1;} .cnc-1 { stroke:#ff7f00;  stroke-dasharray:0; } .cnc-2 { stroke:#ff7f00;  stroke-dasharray:0; } .cnc-3 { stroke:#000000;  stroke-dasharray:0; } .cnc-4 { stroke:#000000;  stroke-dasharray:0; } .blkclass0 { stroke:#ff7f00;  stroke-width:0.02;  fill:#ff7f00; fill-opacity:1; font-family:Arial; font-size:386.75; font-weight:normal; text-style:normal; text-anchor:start;}</style>
  <view id="defaultView" viewBox="204406.88 -181526.46 17450 33226" />
  <defs>
    <symbol id="_FZH" overflow="visible" class="i0">
      <path d="M-0.5,0.5l1,0l0,-1l-1,0z" />
    </symbol>
    <symbol id="$WINLIB2D$00000001_1800x300" overflow="visible" class="i0">
      <path d="M900,150l0,-300" />
      <path d="M-900,-150l0,300" />
      <path d="M900,-50l-1800,0" />
      <path d="M900,50l-1800,0" />
      <path d="M-900,150l1800,0" />
      <path d="M-900,-150l1800,0" />
    </symbol>
    <symbol id="$WINLIB2D$00000001_7200x300" overflow="visible" class="i0">
      <path d="M3600,150l0,-300" />
      <path d="M-3600,-150l0,300" />
      <path d="M3600,-50l-7200,0" />
      <path d="M3600,50l-7200,0" />
      <path d="M-3600,150l7200,0" />
      <path d="M-3600,-150l7200,0" />
    </symbol>
    <symbol id="$WINLIB2D$00000001_1500x300" overflow="visible" class="i0">
      <path d="M750,150l0,-300" />
      <path d="M-750,-150l0,300" />
      <path d="M750,-50l-1500,0" />
      <path d="M750,50l-1500,0" />
      <path d="M-750,150l1500,0" />
      <path d="M-750,-150l1500,0" />
    </symbol>
    <symbol id="$DorLib2D$00000127_1100x250" overflow="visible" class="i0">
      <path d="M550,-125l-1100,0" />
      <path d="M36.67,-198.72l0,26.12" />
      <path d="M-36.67,-198.72l-550,0" />
      <path d="M-36.67,-172.6l-550,0" />
      <path d="M-36.67,-198.72l0,26.12" />
      <path d="M586.67,-198.72l0,26.12" />
      <path d="M-586.67,-198.72l0,26.12" />
      <path d="M586.67,-172.6l-550,0" />
      <path d="M586.67,-198.72l-550,0" />
    </symbol>
    <symbol id="$DorLib2D$00000231" overflow="visible" class="i0">
      <path d="M-0.5,0l0.25,-0.43" />
      <path d="M-0.25,-0.43a0.5,0.5 0 0,1 0.25,0.43" />
      <path d="M0,0a0.5,0.5 0 0,1 0.25,-0.43" />
      <path d="M0.5,0l-0.25,-0.43" />
    </symbol>
    <symbol id="$WINLIB2D$00000001_900x250" overflow="visible" class="i0">
      <path d="M450,125l0,-250" />
      <path d="M-450,-125l0,250" />
      <path d="M450,-41.67l-900,0" />
      <path d="M450,41.67l-900,0" />
      <path d="M-450,125l900,0" />
      <path d="M-450,-125l900,0" />
    </symbol>
    <symbol id="$DorLib2D$00000228" overflow="visible" class="i0">
      <path d="M-0.5,0a1,1 0 0,1 0.5,-0.87" />
      <path d="M0.5,0l-0.5,-0.87" />
    </symbol>
    <symbol id="$DorLib2D$00000116" overflow="visible" class="i0">
      <path d="M-0.5,0l0.35,-0.35" />
      <path d="M-0.15,-0.35a0.5,0.5 0 0,1 0.15,0.35" />
      <path d="M0,0a0.5,0.5 0 0,1 0.15,-0.35" />
      <path d="M0.5,0l-0.35,-0.35" />
    </symbol>
    <symbol id="$lvtry$00000193" overflow="visible" class="i0">
      <circle r="20" cy="200" />
      <path d="M-24.71,84.86a166.25,166.25 0 0,1 28.52,-25.84" />
      <path d="M-24.71,84.85a6.77,6.77 0 0,1 -10.36,-8.14" />
      <path d="M-16.69,42.9a166.25,166.25 0 0,1 -18.37,33.81" />
      <path d="M9.2,99.6a9.9,9.9 0 0,1 -18.4,0" />
      <path d="M9.2,99.6a372.22,372.22 0 0,1 5.21,-48.41" />
      <path d="M14.41,51.19a172.58,172.58 0 0,1 27.83,-7.78" />
      <path d="M43.06,23.92a10.06,10.06 0 0,1 -0.82,19.49" />
      <path d="M-42.24,43.41a10.06,10.06 0 0,1 -0.82,-19.49" />
      <path d="M-11.46,71.35a372.22,372.22 0 0,1 2.26,28.25" />
      <path d="M-42.24,43.41a172.58,172.58 0 0,1 22.78,5.99" />
      <circle r="16.692" cy="42.77" />
      <path d="M-27.27,82.62a169.65,169.65 0 0,1 13.49,-13.76" />
      <path d="M-13.78,68.86a10.6,10.6 0 0,1 -8.32,-6.54" />
      <path d="M-22.1,62.32a169.65,169.65 0 0,1 -10.18,16.35" />
      <path d="M-26.82,82.18a3.37,3.37 0 0,1 -5.15,-4.05" />
      <path d="M-16.69,42.77l0,-9.84" />
      <path d="M16.69,42.77l0,-9.84" />
      <path d="M43.06,23.92a258.71,258.71 0 0,1 -34.21,-5.14" />
      <path d="M-8.85,18.78a258.71,258.71 0 0,1 -34.21,5.14" />
      <path d="M-16.69,32.93a16.69,16.69 0 0,1 33.38,0" />
      <path d="M-25.26,61.02a313.49,313.49 0 0,0 -69.75,13.73m0,0a237.05,237.05 0 0,0 -72.52,37.88m0.01,0a178.75,178.75 0 0,0 -48.46,56.91m-0.01,0a116.81,116.81 0 0,0 -14,55.46a116.81,116.81 0 0,0 14,55.46m0.01,0a178.75,178.75 0 0,0 48.46,56.91m-0.01,0a237.05,237.05 0 0,0 72.52,37.88m0,0a313.49,313.49 0 0,0 95.02,14.75a313.49,313.49 0 0,0 95.02,-14.75m0,0a237.05,237.05 0 0,0 72.52,-37.88m-0.01,0a178.75,178.75 0 0,0 48.46,-56.91m0.01,0a116.81,116.81 0 0,0 14,-55.46a116.81,116.81 0 0,0 -14,-55.46m-0.01,0a178.75,178.75 0 0,0 -48.46,-56.91m0.01,0a237.05,237.05 0 0,0 -72.52,-37.88m0,0a313.49,313.49 0 0,0 -82.08,-14.48" class="cnc-3" />
      <path d="M280,215a166.81,166.81 0 0,0 -20,-79.2m-0.01,0a228.75,228.75 0 0,0 -62.01,-72.83m0.01,0a287.05,287.05 0 0,0 -87.82,-45.87m0,0a363.49,363.49 0 0,0 -110.17,-17.1a363.49,363.49 0 0,0 -110.17,17.1m0,0a287.05,287.05 0 0,0 -87.82,45.87m0.01,0a228.75,228.75 0 0,0 -62.01,72.83m-0.01,0a166.81,166.81 0 0,0 -20,79.2a166.81,166.81 0 0,0 20,79.2m0.01,0a228.75,228.75 0 0,0 62.01,72.83m-0.01,0a287.05,287.05 0 0,0 87.82,45.87m0,0a363.49,363.49 0 0,0 110.17,17.1a363.49,363.49 0 0,0 110.17,-17.1m0,0a287.05,287.05 0 0,0 87.82,-45.87m-0.01,0a228.75,228.75 0 0,0 62.01,-72.83m0.01,0a166.81,166.81 0 0,0 20,-79.2" class="cnc-3" />
    </symbol>
    <symbol id="$lvtry$00000202" overflow="visible" class="i0">
      <path d="M139.78,40a40,40 0 0,0 -40,-40m0,0l-199.57,0m0,0a40,40 0 0,0 -40,40m0,0l0,439.66m0,0a110,110 0 0,0 110,110m0,0l59.57,0m0,0a110,110 0 0,0 110,-110m0,0l0,-439.66" class="cnc-3" />
      <path d="M99.78,30a10,10 0 0,1 10,10" />
      <path d="M-109.78,40a10,10 0 0,1 10,-10" />
      <path d="M99.78,30l-199.57,0" />
      <circle r="20" cy="358.61" />
      <path d="M139.78,469.66l-279.57,0" />
      <path d="M109.78,469.66l0,-429.66" />
      <path d="M-109.78,40l0,429.66" />
    </symbol>
    <symbol id="$TCHSYS$APDOOR2D" overflow="visible" class="i0">
      <path d="M0.5,0l-0.5,-0.87" />
      <path d="M-0.5,0a1,1 0 0,1 0.5,-0.87" />
    </symbol>
    <symbol id="$lvtry$00000222" overflow="visible" class="i0">
      <path d="M-205,190.69l0,-190.69l410,0l0,190.69m0,0a203.43,203.43 0 0,0 -154.23,132.77m-50.77,36.19a54,54 0 0,0 50.77,-36.18m-101.53,0a54,54 0 0,0 50.77,36.18m-50.77,-36.19a203.43,203.43 0 0,0 -154.23,-132.77" class="cnc-3" />
      <path d="M22.45,323.92a233.43,233.43 0 0,1 138.63,-141.65" />
      <path d="M-155.89,184.28a233.43,233.43 0 0,1 133.44,139.64" />
      <circle r="20" cy="241.62" />
      <path d="M22.45,323.92a24,24 0 0,1 -22.45,16.08" />
      <path d="M0,340a24,24 0 0,1 -22.45,-16.08" />
      <path d="M-156.25,165.88a395,395 0 0,1 317.79,-2.15" />
      <path d="M-155.89,184.29a10,10 0 0,1 -0.36,-18.41" />
      <circle r="20" cx="-0.03" cy="60.43" />
      <path d="M161.54,163.73a10,10 0 0,1 -0.46,18.55" />
    </symbol>
    <symbol id="$lvtry$00000188" overflow="visible" class="i0">
      <path d="M262.08,174.72a74.88,74.88 0 0,0 -74.88,-74.88" class="cnc-4" />
      <path d="M-262.08,0a37.44,37.44 0 0,0 -37.44,37.44l0,474.24a37.44,37.44 0 0,0 37.44,37.44l524.16,0a37.44,37.44 0 0,0 37.44,-37.44l0,-474.24a37.44,37.44 0 0,0 -37.44,-37.44l-524.16,0" class="cnc-4" />
      <path d="M31.2,99.84l156,0" />
      <circle r="24.96" cx="-80.35" cy="62.4" />
      <path d="M-38.06,49.92l76.12,0" />
      <path d="M-41.02,53.41a3,3 0 0,1 2.96,-3.49" />
      <path d="M38.06,49.92a3,3 0 0,1 2.96,3.49" />
      <circle r="19.96" cx="-80.35" cy="62.4" />
      <circle r="19.96" cx="80.35" cy="62.4" />
      <circle r="24.96" cx="80.35" cy="62.4" />
      <circle r="37.44" cy="299.52" />
      <path d="M-12.48,224.64l24.96,0" />
      <path d="M262.08,436.8a74.88,74.88 0 0,1 -74.88,74.88" />
      <path d="M262.08,174.72l0,262.08" />
      <path d="M-41.02,53.41l28.54,171.23" />
      <path d="M12.48,224.64l28.54,-171.23" />
      <path d="M-262.08,174.72a74.88,74.88 0 0,1 74.88,-74.88" />
      <path d="M-187.2,511.68a74.88,74.88 0 0,1 -74.88,-74.88" />
      <path d="M-262.08,436.8l0,-262.08" />
      <path d="M187.2,511.68l-374.4,0" />
      <path d="M-187.2,99.84l156,0" />
    </symbol>
    <symbol id="$WINLIB2D$00000001_2100x200" overflow="visible" class="i0">
      <path d="M1050,100l0,-200" />
      <path d="M-1050,-100l0,200" />
      <path d="M1050,-33.33l-2100,0" />
      <path d="M1050,33.33l-2100,0" />
      <path d="M-1050,100l2100,0" />
      <path d="M-1050,-100l2100,0" />
    </symbol>
  </defs>
  <g id="viewer">
    <g id="mirror" transform="scale(1, 1)" stroke-width="0.09%">
      <g id="background" fill="none">
        <g id="layer-bady-fills" class="cnc-0">
          <path d="M216909.39,-178612.53l1523.21,0l0,1716.73l-1523.21,0z" />
          <path d="M218514.19,-178314.63l266.68,0l0,1048.11l-266.68,0z" />
          <path d="M216909.39,-180712.53l1523.21,0l0,1716.73l-1523.21,0z" />
          <path d="M218514.19,-180414.63l266.68,0l0,1048.11l-266.68,0z" />
          <path d="M211356.55,-173951.92l0,-1800l600,0l0,1800z" />
        </g>
        <g id="layer-RM-fills" class="rm">
          <path d="M208356.55,-152401.92l4898.62,0l0,-3449.36l-4898.62,-0.64z" />
          <path d="M208356.55,-156901.92l0,850l4900,0l0,-250l-300,0l0,-600z" />
          <path d="M216756.55,-180801.92l2100,0l0,1900l-2100,0z" />
          <path d="M216756.55,-178701.92l2100,0l0,1900l-2100,0z" />
        </g>
        <g id="layer-bady" class="cnc-1">
          <path d="M218432.61,-178612.53l-1523.21,1716.73" />
          <path d="M216909.39,-178612.53l1523.21,1716.73" />
          <path d="M218432.61,-180712.53l-1523.21,1716.73" />
          <path d="M216909.39,-180712.53l1523.21,1716.73" />
          <use xlink:href="#_FZH" x="266.696" y="-205.877" transform="scale(800,800)" stroke-width="0.0001%">.</use>
          <use xlink:href="#_FZH" x="266.696" y="-215.877" transform="scale(800,800)" stroke-width="0.0001%">.</use>
          <use xlink:href="#_FZH" x="266.696" y="-195.877" transform="scale(800,800)" stroke-width="0.0001%">.</use>
          <use xlink:href="#_FZH" x="266.696" y="-185.877" transform="scale(800,800)" stroke-width="0.0001%">.</use>
          <use xlink:href="#_FZH" x="266.696" y="-225.877" transform="scale(800,800)" stroke-width="0.0001%">.</use>
          <use xlink:href="#_FZH" x="276.821" y="-185.877" transform="scale(800,800)" stroke-width="0.0001%">.</use>
          <use xlink:href="#_FZH" x="276.821" y="-195.877" transform="scale(800,800)" stroke-width="0.0001%">.</use>
          <use xlink:href="#_FZH" x="276.821" y="-205.877" transform="scale(800,800)" stroke-width="0.0001%">.</use>
          <use xlink:href="#_FZH" x="276.821" y="-215.877" transform="scale(800,800)" stroke-width="0.0001%">.</use>
          <use xlink:href="#_FZH" x="256.571" y="-205.877" transform="scale(800,800)" stroke-width="0.0001%">.</use>
          <use xlink:href="#_FZH" x="256.571" y="-215.877" transform="scale(800,800)" stroke-width="0.0001%">.</use>
          <use xlink:href="#_FZH" x="256.571" y="-195.877" transform="scale(800,800)" stroke-width="0.0001%">.</use>
          <use xlink:href="#_FZH" x="256.571" y="-185.877" transform="scale(800,800)" stroke-width="0.0001%">.</use>
          <use xlink:href="#_FZH" x="256.571" y="-225.877" transform="scale(800,800)" stroke-width="0.0001%">.</use>
          <path d="M212956.55,-180801.92l-7300,0" />
          <path d="M212956.55,-181101.92l-7300,0" />
          <path d="M205156.55,-149101.92l0,-800" />
          <path d="M205156.55,-149901.92l-300,0" />
          <path d="M204856.55,-149901.92l0,800" />
          <path d="M204856.55,-156301.92l0,800" />
          <path d="M204856.55,-155501.92l300,0" />
          <path d="M205156.55,-155501.92l0,-800" />
          <path d="M205156.55,-151701.92l0,-2000" />
          <path d="M205156.55,-153701.92l-300,0" />
          <path d="M204856.55,-153701.92l0,2000" />
          <path d="M204856.55,-151701.92l300,0" />
          <use xlink:href="#$WINLIB2D$00000001_1800x300" x="205006.55" y="-150801.92" transform="scale(-1,-1) translate(-410013.1,301603.84) rotate(-90,205006.55,-150801.92)">.<g class="blkclass0"><text transform="rotate(-90 605.45,455) translate(605.45,455)" font-size="386.75">C1827</text></g></use>
          <use xlink:href="#$WINLIB2D$00000001_1800x300" x="205006.55" y="-154601.92" transform="scale(-1,-1) translate(-410013.1,309203.84) rotate(-90,205006.55,-154601.92)">.<g class="blkclass0"><text transform="rotate(-90 549.61,410.87) translate(549.61,410.87)" font-size="386.75">C1818</text></g></use>
          <use xlink:href="#$WINLIB2D$00000001_7200x300" x="205006.55" y="-160701.92" transform="scale(-1,1) translate(-410013.1,0) rotate(-270,205006.55,-160701.92)">.<g class="blkclass0"><text transform="rotate(-90 573.75,527.1) translate(573.75,527.1)" font-size="386.75">C7221</text></g></use>
          <use xlink:href="#$WINLIB2D$00000001_7200x300" x="205006.55" y="-168701.92" transform="scale(-1,1) translate(-410013.1,0) rotate(-270,205006.55,-168701.92)">.<g class="blkclass0"><text transform="rotate(-90 573.75,469.72) translate(573.75,469.72)" font-size="386.75">C7221</text></g></use>
          <path d="M205656.55,-148601.92l7300,0" />
          <path d="M205656.55,-148301.92l7300,0" />
          <path d="M213756.55,-148601.92l7300,0" />
          <path d="M213756.55,-148301.92l7300,0" />
          <path d="M212956.55,-157101.92l-1658.38,0" />
          <path d="M211298.17,-157101.92l0,200" />
          <path d="M211298.17,-156901.92l1658.38,0" />
          <path d="M208356.55,-156901.92l1441.62,0" />
          <path d="M209798.17,-156901.92l0,-200" />
          <path d="M209798.17,-157101.92l-1441.62,0" />
          <path d="M208356.55,-156901.92l0,850" />
          <path d="M208156.55,-156901.92l0,1050" />
          <path d="M213256.55,-152201.92l0,-800" />
          <path d="M213456.55,-152201.92l0,-800" />
          <path d="M213256.55,-152201.92l200,0" />
          <path d="M205156.55,-173101.92l0,-800" />
          <path d="M205156.55,-173901.92l-300,0" />
          <path d="M204856.55,-173901.92l0,800" />
          <path d="M204856.55,-180301.92l0,800" />
          <path d="M204856.55,-179501.92l300,0" />
          <path d="M205156.55,-179501.92l0,-800" />
          <path d="M205156.55,-175701.92l0,-2000" />
          <path d="M205156.55,-177701.92l-300,0" />
          <path d="M204856.55,-177701.92l0,2000" />
          <path d="M204856.55,-175701.92l300,0" />
          <use xlink:href="#$WINLIB2D$00000001_1800x300" x="205006.55" y="-178601.92" transform="scale(-1,1) translate(-410013.1,0) rotate(-270,205006.55,-178601.92)">.<g class="blkclass0"><text transform="rotate(-90 573.75,455) translate(573.75,455)" font-size="386.75">C1827</text></g></use>
          <use xlink:href="#$WINLIB2D$00000001_1800x300" x="205006.55" y="-174801.92" transform="scale(-1,1) translate(-410013.1,0) rotate(-270,205006.55,-174801.92)">.<g class="blkclass0"><text transform="rotate(-90 -300.71,451.48) translate(-300.71,451.48)" font-size="386.75">C1818</text></g></use>
          <path d="M216749.83,-181101.92l-893.28,0" />
          <path d="M215856.55,-181101.92l0,300" />
          <path d="M215856.55,-180801.92l650,0" />
          <path d="M213756.55,-180801.92l600,0" />
          <path d="M214356.55,-180801.92l0,-300" />
          <path d="M214356.55,-181101.92l-600,0" />
          <use xlink:href="#$WINLIB2D$00000001_1500x300" x="215106.55" y="-180951.92" transform="scale(-1,1) translate(-430213.1,0) rotate(-180,215106.55,-180951.92)">.<g class="blkclass0"><text transform="translate(-410,-276.25)" font-size="386.75">C1521</text></g></use>
          <path d="M216506.55,-180801.92l0,400" />
          <path d="M216506.55,-180401.92l250,0" />
          <path d="M216756.55,-180401.92l0,-400" />
          <path d="M216756.55,-178901.92l0,-400" />
          <path d="M216756.55,-179301.92l-250,0" />
          <path d="M216506.55,-179301.92l0,400" />
          <use xlink:href="#$DorLib2D$00000127_1100x250" x="216631.55" y="-179851.92" transform="rotate(-270,216631.55,-179851.92)">.</use>
          <path d="M216756.55,-176801.92l2100,0" />
          <path d="M216506.55,-176551.92l2600,0" />
          <path d="M218856.55,-180801.92l-2100,0" />
          <path d="M219106.55,-181101.92l-2356.72,0" />
          <path d="M218856.55,-176801.92l0,-1900" />
          <path d="M219106.55,-176551.92l0,-2350" />
          <path d="M216506.55,-178901.92l0,600" />
          <path d="M216506.55,-178301.92l250,0" />
          <path d="M216756.55,-178301.92l0,-400" />
          <path d="M216756.55,-176801.92l0,-400" />
          <path d="M216756.55,-177201.92l-250,0" />
          <path d="M216506.55,-177201.92l0,650" />
          <use xlink:href="#$DorLib2D$00000127_1100x250" x="216631.55" y="-177751.92" transform="rotate(-270,216631.55,-177751.92)">.</use>
          <path d="M218856.55,-178901.92l0,-1900" />
          <path d="M219106.55,-178901.92l0,-2200" />
          <path d="M216756.55,-178901.92l2100,0" />
          <path d="M216756.55,-178701.92l2100,0" />
          <path d="M219106.55,-173101.92l1950,0" />
          <path d="M218856.55,-172851.92l2200,0" />
          <path d="M213456.55,-177201.92l0,-1300" />
          <path d="M213456.55,-178501.92l-200,0" />
          <path d="M213256.55,-178501.92l0,1300" />
          <path d="M213256.55,-180301.92l0,300" />
          <path d="M213256.55,-180001.92l200,0" />
          <path d="M213456.55,-180001.92l0,-300" />
          <use xlink:href="#$DorLib2D$00000231" x="142.238" y="-119.501" transform="scale(1500,1500) rotate(-90,142.24,-119.5)" stroke-width="0.0001%">.</use>
          <path d="M213456.55,-158601.92l0,-2800" />
          <path d="M213456.55,-161401.92l-200,0" />
          <path d="M213256.55,-161401.92l0,2600" />
          <path d="M213256.55,-164301.92l0,2000" />
          <path d="M213256.55,-162301.92l200,0" />
          <path d="M213456.55,-162301.92l0,-2000" />
          <path d="M213456.55,-165101.92l0,-2900" />
          <path d="M213456.55,-168001.92l-200,0" />
          <path d="M213256.55,-168001.92l0,2900" />
          <path d="M213256.55,-172301.92l0,2800" />
          <path d="M213256.55,-169501.92l200,0" />
          <path d="M213456.55,-169501.92l0,-2800" />
          <path d="M213456.55,-169501.92l0,1500" />
          <path d="M213456.55,-168001.92l-200,0" />
          <path d="M213256.55,-168001.92l0,-1500" />
          <path d="M213256.55,-169501.92l200,0" />
          <path d="M213256.55,-169501.92l0,1500" />
          <path d="M213456.55,-168001.92l0,-1500" />
          <path d="M213256.55,-176551.92l400,0" />
          <path d="M213656.55,-176551.92l0,-250" />
          <path d="M213656.55,-176801.92l-200,0" />
          <path d="M215456.55,-176801.92l-300,0" />
          <path d="M215156.55,-176801.92l0,250" />
          <path d="M215156.55,-176551.92l200,0" />
          <use xlink:href="#$DorLib2D$00000231" x="142.938" y="-117.785" transform="scale(1500,1500) scale(-1,1) translate(-285.88,0)" stroke-width="0.0001%">.</use>
          <path d="M208356.55,-157101.92l-1200,0" />
          <path d="M207156.55,-157101.92l0,200" />
          <path d="M207156.55,-156901.92l1000,0" />
          <use xlink:href="#$DorLib2D$00000231" x="137.604" y="-104.668" transform="scale(1500,1500) scale(-1,1) translate(-275.21,0) rotate(-180,137.6,-104.67)" stroke-width="0.0001%">.</use>
          <path d="M213256.55,-149101.92l0,-3100" />
          <path d="M213456.55,-149101.92l0,-3300" />
          <path d="M213256.55,-152201.92l-5000,0" />
          <path d="M213456.55,-152401.92l-5100,0" />
          <path d="M208156.55,-152401.92l0,-3450" />
          <path d="M208356.55,-152401.92l0,-3450" />
          <path d="M208156.55,-155851.92l200,0" />
          <path d="M208223.21,-153526.92l0,-1200" class="cnc-2" />
          <path d="M208289.88,-153526.92l0,-1200" class="cnc-2" />
          <path d="M208156.55,-154726.92l200,0" class="cnc-2" />
          <path d="M208156.55,-153526.92l200,0" class="cnc-2" />
          <use xlink:href="#$DorLib2D$00000231" x="137.404" y="-101.535" transform="scale(1500,1500) scale(-1,1) translate(-274.81,0) rotate(-180,137.4,-101.53)" stroke-width="0.0001%">.</use>
          <path d="M218856.55,-176551.92l0,200" />
          <path d="M218856.55,-176351.92l250,0" />
          <path d="M219106.55,-176351.92l0,-200" />
          <path d="M219106.55,-176551.92l-250,0" />
          <path d="M219106.55,-173101.92l0,-2350" />
          <path d="M219106.55,-175451.92l-250,0" />
          <path d="M218856.55,-175451.92l0,2600" />
          <use xlink:href="#$WINLIB2D$00000001_900x250" x="218981.55" y="-175901.92" transform="scale(-1,1) translate(-437963.1,0) rotate(-90,218981.55,-175901.92)">.<g class="blkclass0"><text transform="rotate(-90 -200.24,473.53) translate(-200.24,473.53)" font-size="386.75">C0918</text></g></use>
          <path d="M208156.55,-152401.92l-1300,0" />
          <path d="M206856.55,-152401.92l0,200" />
          <path d="M206856.55,-152201.92l1400,0" />
          <path d="M205156.55,-152201.92l200,0" />
          <path d="M205356.55,-152201.92l0,-200" />
          <path d="M205356.55,-152401.92l-200,0" />
          <path d="M205156.55,-152401.92l0,200" />
          <path d="M213256.55,-176551.92l0,-450" />
          <path d="M213456.55,-176801.92l0,-400" />
          <path d="M221556.55,-156301.92l0,800" />
          <path d="M221556.55,-155501.92l300,0" />
          <path d="M221856.55,-155501.92l0,-800" />
          <path d="M221856.55,-149101.92l0,-800" />
          <path d="M221856.55,-149901.92l-300,0" />
          <path d="M221556.55,-149901.92l0,800" />
          <path d="M221556.55,-153701.92l0,2000" />
          <path d="M221556.55,-151701.92l300,0" />
          <path d="M221856.55,-151701.92l0,-2000" />
          <path d="M221856.55,-153701.92l-300,0" />
          <use xlink:href="#$WINLIB2D$00000001_1800x300" x="221706.55" y="-150801.92" transform="scale(-1,1) translate(-443413.1,0) rotate(-90,221706.55,-150801.92)">.<g class="blkclass0"><text transform="rotate(-90 -276.25,435) translate(-276.25,435)" font-size="386.75">C1810</text></g></use>
          <use xlink:href="#$WINLIB2D$00000001_1800x300" x="221706.55" y="-154601.92" transform="scale(-1,1) translate(-443413.1,0) rotate(-90,221706.55,-154601.92)">.<g class="blkclass0"><text transform="rotate(-90 -276.25,435) translate(-276.25,435)" font-size="386.75">C1810</text></g></use>
          <use xlink:href="#$WINLIB2D$00000001_7200x300" x="221706.55" y="-168701.92" transform="scale(1,-1) translate(0,337403.84) rotate(-90,221706.55,-168701.92)">.<g class="blkclass0"><text transform="rotate(-90 -339.84,469.72) translate(-339.84,469.72)" font-size="386.75">C7221</text></g></use>
          <use xlink:href="#$WINLIB2D$00000001_7200x300" x="221706.55" y="-160701.92" transform="scale(1,-1) translate(0,321403.84) rotate(-90,221706.55,-160701.92)">.<g class="blkclass0"><text transform="rotate(-90 -320.92,527.1) translate(-320.92,527.1)" font-size="386.75">C7221</text></g></use>
          <path d="M215556.55,-153001.92l0,-1300" />
          <path d="M215556.55,-154301.92l-200,0" />
          <path d="M215356.55,-154301.92l0,1100" />
          <path d="M215356.55,-156601.92l0,1400" />
          <path d="M215356.55,-155201.92l200,0" />
          <path d="M215556.55,-155201.92l0,-1400" />
          <path d="M215456.55,-176801.92l1050,0" />
          <path d="M215556.55,-176551.92l950,0" />
          <path d="M216506.55,-176801.92l0,250" />
          <path d="M213256.55,-156051.92l0,-250" />
          <path d="M213456.55,-156051.92l0,-250" />
          <use xlink:href="#$DorLib2D$00000228" x="237.063" y="-172.669" transform="scale(900,900) scale(-1,1) translate(-474.13,0) rotate(-270,237.06,-172.67)" stroke-width="0.0001%">.<g class="blkclass0"><text transform="rotate(-90 608.65,445) translate(608.65,445)" font-size="386.75">M0921</text></g></use>
          <path d="M213456.55,-158601.92l-8300,0" />
          <path d="M213256.55,-158801.92l-8100,0" />
          <path d="M205156.55,-158601.92l0,-200" />
          <path d="M213456.55,-153201.92l0,-1750" />
          <path d="M213456.55,-154951.92l-200,0" />
          <path d="M213256.55,-154951.92l0,1950" />
          <path d="M213256.55,-155851.92l200,0" />
          <path d="M213456.55,-155851.92l0,-200" />
          <path d="M215356.55,-153201.92l0,200" />
          <path d="M215356.55,-153001.92l200,0" />
          <path d="M213456.55,-153001.92l400,0" />
          <path d="M213856.55,-153001.92l0,-200" />
          <path d="M213856.55,-153201.92l-400,0" />
          <use xlink:href="#$DorLib2D$00000116" x="143.071" y="-102.068" transform="scale(1500,1500) scale(-1,-1) translate(-286.14,204.14) rotate(-180,143.07,-102.07)" stroke-width="0.0001%">.<g class="blkclass0"><text transform="translate(-470,523.75)" font-size="386.75">M1527</text></g></use>
          <path d="M221056.55,-156801.92l-4360.96,0" />
          <path d="M216695.58,-156801.92l0,200" />
          <path d="M216695.58,-156601.92l4360.96,0" />
          <path d="M215556.55,-156601.92l271.09,0" />
          <path d="M215827.63,-156601.92l0,-200" />
          <path d="M215827.63,-156801.92l-471.09,0" />
          <path d="M215356.55,-156601.92l0,0" />
          <path d="M215556.55,-156801.92l-200,0" />
          <path d="M215356.55,-156601.92l0,-200" />
          <use xlink:href="#$DorLib2D$00000116" x="143.638" y="-105.568" transform="scale(1500,1500) scale(-1,-1) translate(-287.28,211.14) rotate(-90,143.64,-105.57)" stroke-width="0.0001%">.<g class="blkclass0"><text transform="rotate(-90 -226.25,470) translate(-226.25,470)" font-size="386.75">M1527</text></g></use>
          <path d="M215556.55,-164801.92l0,-640" />
          <path d="M215556.55,-165441.92l-200,0" />
          <path d="M215356.55,-165441.92l0,840" />
          <path d="M215356.55,-173051.92l0,950" />
          <path d="M215356.55,-172101.92l200,0" />
          <path d="M215556.55,-172101.92l0,-750" />
          <path d="M215556.55,-166941.92l0,-3660" />
          <path d="M215556.55,-170601.92l-200,0" />
          <path d="M215356.55,-170601.92l0,3660" />
          <path d="M215356.55,-166941.92l200,0" />
          <use xlink:href="#$DorLib2D$00000116" x="143.638" y="-114.235" transform="scale(1500,1500) scale(-1,-1) translate(-287.28,228.47) rotate(-90,143.64,-114.23)" stroke-width="0.0001%">.<g class="blkclass0"><text transform="rotate(-90 -226.25,470) translate(-226.25,470)" font-size="386.75">M1527</text></g></use>
          <use xlink:href="#$DorLib2D$00000116" x="143.638" y="-110.795" transform="scale(1500,1500) scale(-1,-1) translate(-287.28,221.59) rotate(-90,143.64,-110.79)" stroke-width="0.0001%">.<g class="blkclass0"><text transform="rotate(-90 -226.25,470) translate(-226.25,470)" font-size="386.75">M1527</text></g></use>
          <use xlink:href="#$DorLib2D$00000228" x="239.396" y="-195.447" transform="scale(900,900) scale(1,-1) translate(0,390.89) rotate(-270,239.4,-195.45)" stroke-width="0.0001%">.<g class="blkclass0"><text transform="rotate(-90 1117.72,445) translate(1117.72,445)" font-size="386.75">M0921</text></g></use>
          <path d="M221056.55,-164801.92l-4360.96,0" />
          <path d="M216695.58,-164801.92l0,200" />
          <path d="M216695.58,-164601.92l4360.96,0" />
          <path d="M215556.55,-164601.92l271.09,0" />
          <path d="M215827.63,-164601.92l0,-200" />
          <path d="M215827.63,-164801.92l-271.09,0" />
          <use xlink:href="#$DorLib2D$00000116" x="143.638" y="-108.808" transform="scale(1500,1500) scale(-1,-1) translate(-287.28,217.62) rotate(-90,143.64,-108.81)" stroke-width="0.0001%">.<g class="blkclass0"><text transform="rotate(-90 -226.25,470) translate(-226.25,470)" font-size="386.75">M1527</text></g></use>
          <path d="M215356.55,-156801.92l0,200" />
          <path d="M215556.55,-156801.92l0,200" />
          <path d="M213556.55,-173101.92l0,-1950" />
          <path d="M213556.55,-175051.92l-150,0" />
          <path d="M213406.55,-175051.92l0,1950" />
          <path d="M213556.55,-176551.92l-150,0" />
          <path d="M213406.55,-176551.92l0,1500" class="cnc-2" />
          <path d="M213556.55,-175051.92l0,-1500" class="cnc-2" />
          <path d="M211356.55,-172701.92l1600,0" />
          <path d="M211281.55,-172501.92l1675,0" />
          <path d="M205156.55,-177201.92l6125,0" />
          <path d="M205156.55,-177001.92l6050,0" />
          <path d="M205156.55,-177201.92l0,200" />
          <use xlink:href="#$lvtry$00000193" x="211376.55" y="-174501.92" transform="rotate(-90,211376.55,-174501.92)">.</use>
          <use xlink:href="#$lvtry$00000193" x="211376.55" y="-175201.92" transform="rotate(-90,211376.55,-175201.92)">.</use>
          <path d="M205656.55,-172701.92l5550,0" />
          <path d="M205656.55,-172501.92l5625,0" />
          <path d="M211356.55,-172701.92l0,-149.67" />
          <path d="M211356.55,-172851.59l-150,0" />
          <path d="M211206.55,-172851.59l0,149.67" />
          <path d="M211206.55,-175051.92l0,1400.33" />
          <path d="M211206.55,-173651.59l150,0" />
          <path d="M211356.55,-173651.59l0,-1475.33" />
          <use xlink:href="#$DorLib2D$00000228" x="264.102" y="-216.564" transform="scale(800,800) scale(-1,-1) translate(-528.2,433.13) rotate(-90,264.1,-216.56)" stroke-width="0.0001%">.<g class="blkclass0"><text transform="rotate(-90 -329.81,445) translate(-329.81,445)" font-size="386.75">M0821</text></g></use>
          <path d="M211281.55,-177201.92l1975,0" />
          <path d="M211356.55,-177001.92l1900,0" />
          <use xlink:href="#$DorLib2D$00000231" x="140.365" y="-104.668" transform="scale(1500,1500) scale(1,-1) translate(0,209.34) rotate(-180,140.37,-104.67)" stroke-width="0.0001%">.</use>
          <path d="M208356.55,-156051.92l4900,0" />
          <path d="M208156.55,-155851.92l5100,0" />
          <use xlink:href="#$DorLib2D$00000228" x="264.102" y="-220.565" transform="scale(800,800) scale(1,-1) translate(0,441.13) rotate(-270,264.1,-220.57)" stroke-width="0.0001%">.<g class="blkclass0"><text transform="rotate(-90 -329.81,441.86) translate(-329.81,441.86)" font-size="386.75">M0821</text></g></use>
          <use xlink:href="#$lvtry$00000202" x="210756.55" y="-174851.92">.</use>
          <use xlink:href="#$lvtry$00000202" x="209856.55" y="-174851.92">.</use>
          <use xlink:href="#$lvtry$00000202" x="208956.55" y="-174851.92">.</use>
          <use xlink:href="#$lvtry$00000202" x="208056.55" y="-174851.92">.</use>
          <path d="M210319.05,-175051.92l0,1187.5" />
          <path d="M210294.05,-175051.92l0,1187.5" />
          <path d="M210319.05,-175051.92l-25,0" />
          <path d="M211206.55,-173864.42l-150,0" />
          <path d="M211056.55,-173864.42l0,25" />
          <path d="M211056.55,-173839.42l150,0" />
          <path d="M211206.55,-173839.42l0,-25" />
          <path d="M210306.55,-173839.42l150,0" />
          <path d="M210456.55,-173839.42l0,-25" />
          <path d="M210456.55,-173864.42l-137.5,0" />
          <use xlink:href="#$TCHSYS$APDOOR2D" x="351.261" y="-289.753" transform="scale(600,600) rotate(-180,351.26,-289.75)" stroke-width="0.0002%">.</use>
          <path d="M209419.05,-175051.92l0,1187.5" />
          <path d="M209394.05,-175051.92l0,1187.5" />
          <path d="M209419.05,-175051.92l-25,0" />
          <path d="M210294.05,-173864.42l-137.5,0" />
          <path d="M210156.55,-173864.42l0,25" />
          <path d="M210156.55,-173839.42l150,0" />
          <path d="M209406.55,-173839.42l150,0" />
          <path d="M209556.55,-173839.42l0,-25" />
          <path d="M209556.55,-173864.42l-137.5,0" />
          <use xlink:href="#$TCHSYS$APDOOR2D" x="349.761" y="-289.753" transform="scale(600,600) rotate(-180,349.76,-289.75)" stroke-width="0.0002%">.</use>
          <path d="M208519.05,-175051.92l0,1187.5" />
          <path d="M208494.05,-175051.92l0,1187.5" />
          <path d="M208519.05,-175051.92l-25,0" />
          <path d="M209394.05,-173864.42l-137.5,0" />
          <path d="M209256.55,-173864.42l0,25" />
          <path d="M209256.55,-173839.42l150,0" />
          <path d="M208506.55,-173839.42l150,0" />
          <path d="M208656.55,-173839.42l0,-25" />
          <path d="M208656.55,-173864.42l-137.5,0" />
          <use xlink:href="#$TCHSYS$APDOOR2D" x="348.261" y="-289.753" transform="scale(600,600) rotate(-180,348.26,-289.75)" stroke-width="0.0002%">.</use>
          <path d="M207622.05,-175051.92l0,1187.5" />
          <path d="M207597.05,-175051.92l0,1187.5" />
          <path d="M207622.05,-175051.92l-25,0" />
          <path d="M208494.05,-173864.42l-137.5,0" />
          <path d="M208356.55,-173864.42l0,25" />
          <path d="M208356.55,-173839.42l150,0" />
          <path d="M207609.55,-173839.42l147,0" />
          <path d="M207756.55,-173839.42l0,-25" />
          <path d="M207756.55,-173864.42l-134.5,0" />
          <use xlink:href="#$TCHSYS$APDOOR2D" x="346.761" y="-289.753" transform="scale(600,600) rotate(-180,346.76,-289.75)" stroke-width="0.0002%">.</use>
          <use xlink:href="#$lvtry$00000222" x="214445.459" y="-211267.373" transform="scale(0.98,0.83) rotate(-180,214445.46,-211267.37)" stroke-width="0.0918%">.</use>
          <use xlink:href="#$lvtry$00000222" x="213731.173" y="-211267.373" transform="scale(0.98,0.83) rotate(-180,213731.17,-211267.37)" stroke-width="0.0918%">.</use>
          <use xlink:href="#$lvtry$00000222" x="213016.888" y="-211267.373" transform="scale(0.98,0.83) rotate(-180,213016.89,-211267.37)" stroke-width="0.0918%">.</use>
          <path d="M210494.05,-175351.92l0,-400" />
          <path d="M210519.05,-175351.92l0,-400" />
          <path d="M210494.05,-175351.92l25,0" />
          <path d="M210494.05,-175751.92l25,0" />
          <path d="M209794.05,-175351.92l0,-400" />
          <path d="M209819.05,-175351.92l0,-400" />
          <path d="M209794.05,-175351.92l25,0" />
          <path d="M209794.05,-175751.92l25,0" />
          <path d="M209094.05,-175351.92l0,-400" />
          <path d="M209119.05,-175351.92l0,-400" />
          <path d="M209094.05,-175351.92l25,0" />
          <path d="M209094.05,-175751.92l25,0" />
          <path d="M208394.05,-175351.92l0,-400" />
          <path d="M208419.05,-175351.92l0,-400" />
          <path d="M208394.05,-175351.92l25,0" />
          <path d="M208394.05,-175751.92l25,0" />
          <use xlink:href="#$lvtry$00000188" x="210907.03" y="-175351.92" transform="rotate(-180,210907.03,-175351.92)">.</use>
          <use xlink:href="#$lvtry$00000188" x="205461.38" y="-174502.8" transform="rotate(-180,205461.38,-174502.8)">.</use>
          <use xlink:href="#$lvtry$00000202" x="205356.55" y="-176551.92" transform="rotate(-90,205356.55,-176551.92)">.</use>
          <use xlink:href="#$lvtry$00000202" x="205356.55" y="-175651.92" transform="rotate(-90,205356.55,-175651.92)">.</use>
          <path d="M205156.55,-176114.42l1187.5,0" />
          <path d="M205156.55,-176089.42l1187.5,0" />
          <path d="M205156.55,-176114.42l0,25" />
          <path d="M206344.05,-177001.92l0,150" />
          <path d="M206344.05,-176851.92l25,0" />
          <path d="M206369.05,-176851.92l0,-150" />
          <path d="M206369.05,-177001.92l-25,0" />
          <path d="M206369.05,-176101.92l0,-150" />
          <path d="M206369.05,-176251.92l-25,0" />
          <path d="M206344.05,-176251.92l0,137.5" />
          <use xlink:href="#$TCHSYS$APDOOR2D" x="343.928" y="-294.253" transform="scale(600,600) rotate(-270,343.93,-294.25)" stroke-width="0.0002%">.</use>
          <path d="M206344.05,-176089.42l0,137.5" />
          <path d="M206344.05,-175951.92l25,0" />
          <path d="M206369.05,-175951.92l0,-150" />
          <path d="M206369.05,-175201.92l0,-150" />
          <path d="M206369.05,-175351.92l-25,0" />
          <path d="M206344.05,-175351.92l0,150" />
          <use xlink:href="#$TCHSYS$APDOOR2D" x="343.928" y="-292.753" transform="scale(600,600) rotate(-270,343.93,-292.75)" stroke-width="0.0002%">.</use>
          <path d="M205156.55,-175201.92l1200,0" />
          <path d="M205156.55,-175051.92l1200,0" />
          <path d="M205156.55,-175201.92l0,150" />
          <use xlink:href="#$lvtry$00000222" x="212302.602" y="-211267.373" transform="scale(0.98,0.83) rotate(-180,212302.6,-211267.37)" stroke-width="0.0918%">.</use>
          <path d="M207694.05,-175351.92l0,-400" />
          <path d="M207719.05,-175351.92l0,-400" />
          <path d="M207694.05,-175351.92l25,0" />
          <path d="M207694.05,-175751.92l25,0" />
          <use xlink:href="#$lvtry$00000202" x="207159.55" y="-174851.92">.</use>
          <path d="M206725.05,-175051.92l0,1187.5" />
          <path d="M206700.05,-175051.92l0,1187.5" />
          <path d="M206725.05,-175051.92l-25,0" />
          <path d="M207597.05,-173864.42l-137.5,0" />
          <path d="M207459.55,-173864.42l0,25" />
          <path d="M207459.55,-173839.42l150,0" />
          <path d="M206712.55,-173839.42l147,0" />
          <path d="M206859.55,-173839.42l0,-25" />
          <path d="M206859.55,-173864.42l-134.5,0" />
          <use xlink:href="#$TCHSYS$APDOOR2D" x="345.266" y="-289.753" transform="scale(600,600) rotate(-180,345.27,-289.75)" stroke-width="0.0002%">.</use>
          <use xlink:href="#$lvtry$00000202" x="206262.55" y="-174851.92">.</use>
          <path d="M205828.05,-175051.92l0,1187.5" />
          <path d="M205803.05,-175051.92l0,1212.5" />
          <path d="M205828.05,-175051.92l-25,0" />
          <path d="M206700.05,-173864.42l-137.5,0" />
          <path d="M206562.55,-173864.42l0,25" />
          <path d="M206562.55,-173839.42l150,0" />
          <path d="M205803.05,-173839.42l159.5,0" />
          <path d="M205962.55,-173839.42l0,-25" />
          <path d="M205962.55,-173864.42l-134.5,0" />
          <use xlink:href="#$TCHSYS$APDOOR2D" x="343.771" y="-289.753" transform="scale(600,600) rotate(-180,343.77,-289.75)" stroke-width="0.0002%">.</use>
          <path d="M211356.55,-175126.92l0,-925.19" />
          <path d="M211356.55,-176052.11l-150,0" />
          <path d="M211206.55,-176052.11l0,850.19" />
          <path d="M211206.55,-177001.92l0,149.81" />
          <path d="M211206.55,-176852.11l150,0" />
          <path d="M211356.55,-176852.11l0,-149.81" />
          <path d="M206356.55,-175201.92l4850,0" />
          <path d="M206356.55,-175051.92l4850,0" />
          <path d="M215556.55,-172851.92l150,0" />
          <path d="M215706.55,-172851.92l0,-200" />
          <path d="M215706.55,-173051.92l-150,0" />
          <path d="M218856.55,-173051.92l-150,0" />
          <path d="M218706.55,-173051.92l0,200" />
          <path d="M218706.55,-172851.92l150,0" />
          <path d="M218856.55,-172851.92l0,-200" />
          <use xlink:href="#$DorLib2D$00000228" x="240.174" y="-192.169" transform="scale(900,900) scale(-1,1) translate(-480.35,0)" stroke-width="0.0001%">.<g class="blkclass0"><text transform="translate(548.14,630.28)" font-size="386.75">MC3027</text></g></use>
          <use xlink:href="#$WINLIB2D$00000001_2100x200" x="217656.55" y="-172951.92" transform="scale(1,-1) translate(0,345903.84)">.</use>
          <path d="M215556.55,-173051.92l0,-2400" />
          <path d="M215556.55,-175451.92l-200,0" />
          <path d="M215356.55,-175451.92l0,2400" />
          <path d="M215356.55,-176551.92l0,200" />
          <path d="M215356.55,-176351.92l200,0" />
          <path d="M215556.55,-176351.92l0,-200" />
          <use xlink:href="#$DorLib2D$00000228" x="249.164" y="-180.543" transform="scale(867.95,867.95) scale(1,-1) translate(0,361.09) rotate(-180,249.16,-180.54)" stroke-width="0.0001%">.<g class="blkclass0"><text transform="translate(-470,523.75)" font-size="386.75">M1027</text></g></use>
          <use xlink:href="#$DorLib2D$00000228" x="249.164" y="-189.76" transform="scale(867.95,867.95) scale(1,-1) translate(0,379.52) rotate(-180,249.16,-189.76)" stroke-width="0.0001%">.<g class="blkclass0"><text transform="translate(-470,522.25)" font-size="386.75">M1027</text></g></use>
          <path d="M215556.55,-156801.92l0,-800" />
          <path d="M215556.55,-157601.92l-200,0" />
          <path d="M215356.55,-157601.92l0,800" />
          <path d="M215356.55,-164601.92l0,640" />
          <path d="M215356.55,-163961.92l200,0" />
          <path d="M215556.55,-163961.92l0,-640" />
          <path d="M215556.55,-159101.92l0,-3360" />
          <path d="M215556.55,-162461.92l-200,0" />
          <path d="M215356.55,-162461.92l0,3360" />
          <path d="M215356.55,-159101.92l200,0" />
          <path d="M206956.55,-151419.42l1950,0l300,0" />
          <path d="M206956.55,-149734.42l5325,0l0,-1685l-2475,0l-300,0" />
          <path d="M207106.55,-152201.92l1740.49,0" />
          <path d="M208962.51,-152201.92l2344.04,0" />
          <path d="M207106.55,-152201.92l0,1505" />
          <path d="M207406.55,-152201.92l0,1505" />
          <path d="M207706.55,-152201.92l0,1505" />
          <path d="M208006.55,-152201.92l0,1505" />
          <path d="M208306.55,-152201.92l0,1505" />
          <path d="M208606.55,-152201.92l0,1505" />
          <path d="M208906.55,-152098.84l0,1401.92" />
          <path d="M209206.55,-152201.92l0,422.69" />
          <path d="M209206.55,-151579.23l0,882.31" />
          <path d="M209506.55,-152201.92l0,942.31" />
          <path d="M209506.55,-151059.61l0,362.69" />
          <path d="M209806.55,-152201.92l0,1461.92" />
          <path d="M210106.55,-152201.92l0,1505" />
          <path d="M210406.55,-152201.92l0,1505" />
          <path d="M210706.55,-152201.92l0,1505" />
          <path d="M211006.55,-152201.92l0,1505" />
          <path d="M211306.55,-152201.92l0,1505" />
          <path d="M207106.55,-150636.92l2644.04,0" />
          <path d="M209866.06,-150636.92l1440.49,0" />
          <path d="M208962.51,-152201.92l399.12,691.3" />
          <path d="M208847.04,-152201.92l414.59,718.1" />
          <path d="M209261.63,-151483.82l172.35,-46.18" />
          <path d="M209433.98,-151530.01l-172.89,206.04" />
          <path d="M209261.09,-151323.96l180.4,-48.34" />
          <path d="M209441.49,-151372.3l424.57,735.38" />
          <path d="M209341.49,-151345.5l409.1,708.58" />
          <path d="M211306.55,-148951.92l-4200,0" />
          <path d="M211306.55,-148951.92l0,-1505" />
          <path d="M211006.55,-148951.92l0,-1505" />
          <path d="M210706.55,-148951.92l0,-1505" />
          <path d="M210406.55,-148951.92l0,-1505" />
          <path d="M210106.55,-148951.92l0,-1505" />
          <path d="M209806.55,-148951.92l0,-1505" />
          <path d="M209506.55,-148951.92l0,-1505" />
          <path d="M209206.55,-148951.92l0,-1505" />
          <path d="M208906.55,-148951.92l0,-1505" />
          <path d="M208606.55,-148951.92l0,-1505" />
          <path d="M208306.55,-148951.92l0,-1505" />
          <path d="M208006.55,-148951.92l0,-1505" />
          <path d="M207706.55,-148951.92l0,-1505" />
          <path d="M207406.55,-148951.92l0,-1505" />
          <path d="M207106.55,-148951.92l0,-1505" />
          <path d="M211306.55,-150516.92l-4200,0" />
          <path d="M207046.55,-150456.92l0,-240" />
          <path d="M207046.55,-150696.92l2669.4,0" />
          <path d="M209831.42,-150696.92l1535.13,0" />
          <path d="M211366.55,-150696.92l0,240" />
          <path d="M211366.55,-150456.92l-4320,0" />
          <path d="M207106.55,-150516.92l0,-120" />
          <path d="M207106.55,-150636.92l2644.04,0" />
          <path d="M209866.06,-150636.92l1440.49,0" />
          <path d="M211306.55,-150636.92l0,120" />
          <path d="M211306.55,-150516.92l-4200,0" />
          <path d="M211306.55,-148951.92l1650,0" />
          <path d="M213256.55,-149101.92l0,-3100" />
          <path d="M213256.55,-152201.92l-1950,0" />
          <path d="M211306.55,-152201.92l0,1505" />
          <path d="M211306.55,-150456.92l0,1505" />
          <path d="M211306.55,-150636.92l0,120" />
          <path d="M207106.55,-150636.92l0,120" />
          <path d="M211456.55,-179669.42l-1950,0l-300,0" />
          <path d="M211456.55,-177984.42l-5325,0l0,-1685l2475,0l300,0" />
          <path d="M211306.55,-180451.92l-2644.04,0" />
          <path d="M208547.04,-180451.92l-1440.49,0" />
          <path d="M211306.55,-178946.92l0,-1505" />
          <path d="M211006.55,-178946.92l0,-1505" />
          <path d="M210706.55,-178946.92l0,-1505" />
          <path d="M210406.55,-178946.92l0,-1505" />
          <path d="M210106.55,-178946.92l0,-1505" />
          <path d="M209806.55,-178946.92l0,-1505" />
          <path d="M209506.55,-178990l0,-1461.92" />
          <path d="M209206.55,-178946.92l0,-362.69" />
          <path d="M209206.55,-179509.61l0,-942.31" />
          <path d="M208906.55,-178946.92l0,-882.31" />
          <path d="M208906.55,-180029.23l0,-422.69" />
          <path d="M208606.55,-178946.92l0,-1401.92" />
          <path d="M208306.55,-178946.92l0,-1505" />
          <path d="M208006.55,-178946.92l0,-1505" />
          <path d="M207706.55,-178946.92l0,-1505" />
          <path d="M207406.55,-178946.92l0,-1505" />
          <path d="M207106.55,-178946.92l0,-1505" />
          <path d="M211306.55,-178886.92l-1740.49,0" />
          <path d="M209450.59,-178886.92l-2344.04,0" />
          <path d="M209450.59,-178886.92l-399.12,-691.3" />
          <path d="M209566.06,-178886.92l-414.59,-718.1" />
          <path d="M209151.47,-179605.02l-172.35,46.18" />
          <path d="M208979.11,-179558.83l172.89,-206.04" />
          <path d="M209152.01,-179764.88l-180.4,48.34" />
          <path d="M208971.61,-179716.54l-424.57,-735.38" />
          <path d="M209071.61,-179743.34l-409.1,-708.58" />
          <path d="M207106.55,-177201.92l4200,0" />
          <path d="M207106.55,-178706.92l0,1505" />
          <path d="M207406.55,-178706.92l0,1505" />
          <path d="M207706.55,-178706.92l0,1505" />
          <path d="M208006.55,-178706.92l0,1505" />
          <path d="M208306.55,-178706.92l0,1505" />
          <path d="M208606.55,-178706.92l0,1505" />
          <path d="M208906.55,-178706.92l0,1505" />
          <path d="M209206.55,-178706.92l0,1505" />
          <path d="M209506.55,-178706.92l0,1505" />
          <path d="M209806.55,-178706.92l0,1505" />
          <path d="M210106.55,-178706.92l0,1505" />
          <path d="M210406.55,-178706.92l0,1505" />
          <path d="M210706.55,-178706.92l0,1505" />
          <path d="M211006.55,-178706.92l0,1505" />
          <path d="M211306.55,-178706.92l0,1505" />
          <path d="M207106.55,-178766.92l4200,0" />
          <path d="M211306.55,-178766.92l0,-120" />
          <path d="M211306.55,-178886.92l-1740.49,0" />
          <path d="M209450.59,-178886.92l-2344.04,0" />
          <path d="M207106.55,-178886.92l0,120" />
          <path d="M207106.55,-178766.92l4200,0" />
          <path d="M211366.55,-178706.92l0,-240" />
          <path d="M211366.55,-178946.92l-1835.13,0" />
          <path d="M209415.95,-178946.92l-2369.4,0" />
          <path d="M207046.55,-178946.92l0,240" />
          <path d="M207046.55,-178706.92l4320,0" />
          <path d="M207106.55,-180451.92l-1450,0" />
          <path d="M205156.55,-180301.92l0,3100" />
          <path d="M205156.55,-177201.92l1950,0" />
          <path d="M207106.55,-177201.92l0,-1505" />
          <path d="M207106.55,-178946.92l0,-1505" />
          <path d="M207106.55,-178766.92l0,-120" />
          <path d="M211306.55,-178886.92l0,120" />
          <use xlink:href="#$DorLib2D$00000228" x="237.063" y="-179.835" transform="scale(900,900) scale(-1,1) translate(-474.13,0) rotate(-270,237.06,-179.84)" stroke-width="0.0001%">.<g class="blkclass0"><text transform="rotate(-90 608.65,445) translate(608.65,445)" font-size="386.75">M0921</text></g></use>
          <use xlink:href="#$DorLib2D$00000228" x="239.396" y="-171.947" transform="scale(900,900) scale(-1,-1) translate(-478.79,343.89) rotate(-90,239.4,-171.95)" stroke-width="0.0001%">.<g class="blkclass0"><text transform="rotate(-90 -311.15,445) translate(-311.15,445)" font-size="386.75">M0921</text></g></use>
          <path d="M213356.55,-168001.92l-600,0m600,-600a600,600 0 0,0 -600,600m-300,-1500a900,900 0 0,0 900,900m-900,-900l900,0" />
        </g>
      </g>
      <g id="assets" fill="none">
        <g id="rm-assets" class="rm-asset">
          <path id="14008;F08;809\810" d="M205156.55,-172301.92l500,0l0,-200l7300,0l0,200l300,0l0,7200l-300,0l0,400l0,400l300,0l0,5500l-8100,0l0,-5500l500,0l0,-800l-500,0z" />
          <path id="14008;F08;805-808" d="M208356.55,-155851.92l4898.62,0.64l1.38,2849.36l2300,0l0,-7518.5l6000,0l0,3418.5l-500,0l0,800l500,0l0,7200l-500,0l0,500l-7300,0l0,-500l-299.2,0.15l-1.6,-3300.15l-5099.2,0z" />
          <path id="14008;F08;801-804" d="M215556.55,-174251.92l0,-2300l3300,0l0,3700l2200,0l0,550l500,0l0,7200l-500,0l0,800l500,0l0,3600l-6000,0z" />
        </g>
      </g>
    </g>
    <g id="text" font-family="Arial" font-size="626.95035460992915" font-weight="normal" text-style="normal" text-anchor="start" dominant-baseline="alphabetical" fill="#FF0000" xml:space="preserve">
      <g id="layer-name-text">
        <g transform="translate(217300.07,-174935.35)">
          <text>储藏</text>
        </g>
        <g transform="translate(217815.52,-169059.4)">
          <text>实验室</text>
        </g>
        <g transform="translate(217635.17,-158608.28)">
          <text>实验室</text>
        </g>
        <g transform="translate(217519.53,-151580.01)">
          <text>实验室</text>
        </g>
        <g transform="translate(209136.22,-176095.45)">
          <text>男卫生间</text>
        </g>
        <g transform="translate(209290.82,-173827.53)">
          <text>女卫生间</text>
        </g>
        <g transform="translate(217300.2,-174935.92)">
          <text>储藏</text>
        </g>
        <g transform="translate(217815.65,-169059.98)">
          <text>实验室</text>
        </g>
        <g transform="translate(217635.3,-158608.85)">
          <text>实验室</text>
        </g>
        <g transform="translate(217519.66,-151580.58)">
          <text>实验室</text>
        </g>
        <g transform="translate(209136.34,-176096.03)">
          <text>男卫生间</text>
        </g>
        <g transform="translate(209290.94,-173828.1)">
          <text>女卫生间</text>
        </g>
        <g transform="rotate(-270 217215.42,-175888.03) translate(217215.42,-175888.03)" font-size="682.5">
          <text>801</text>
        </g>
        <g transform="rotate(-270 216626.17,-171150.28) translate(216626.17,-171150.28)" font-size="682.5">
          <text>802</text>
        </g>
        <g transform="rotate(-270 216646.92,-166147.78) translate(216646.92,-166147.78)" font-size="682.5">
          <text>803</text>
        </g>
        <g transform="rotate(-270 216628.17,-163208.53) translate(216628.17,-163208.53)" font-size="682.5">
          <text>804</text>
        </g>
        <g transform="rotate(-270 216641.92,-158250.03) translate(216641.92,-158250.03)" font-size="682.5">
          <text>805</text>
        </g>
        <g transform="rotate(-270 216722.92,-154596.28) translate(216722.92,-154596.28)" font-size="682.5">
          <text>806</text>
        </g>
        <g transform="translate(214289.67,-151891.28)" font-size="682.5">
          <text>807</text>
        </g>
        <g transform="rotate(-90 211990.42,-154395.03) translate(211990.42,-154395.03)" font-size="682.5">
          <text>808</text>
        </g>
        <g transform="rotate(-90 211914.17,-160929.03) translate(211914.17,-160929.03)" font-size="682.5">
          <text>809</text>
        </g>
        <g transform="rotate(-90 212311.92,-167947.03) translate(212311.92,-167947.03)" font-size="682.5">
          <text>810</text>
        </g>
        <g transform="translate(206340.65,-154822.76)">
          <text>前室</text>
        </g>
        <g transform="translate(206330.14,-154823.33)">
          <text>过道</text>
        </g>
        <g transform="translate(209736.27,-154159.56)">
          <text>储藏</text>
        </g>
        <g transform="translate(214483.23,-179379.43)">
          <text>前室</text>
        </g>
        <g transform="translate(214483.35,-179380.01)">
          <text>前室</text>
        </g>
        <g transform="translate(208628.42,-161108.46)">
          <text>实验室</text>
        </g>
        <g transform="translate(208628.42,-168679.78)">
          <text>实验室</text>
        </g>
        <g transform="translate(208628.3,-161107.88)">
          <text>实验室</text>
        </g>
        <g transform="translate(208628.3,-168679.2)">
          <text>实验室</text>
        </g>
      </g>
      <g id="layer-bady-text" font-size="438.865" fill="#ff7f00" stroke="#ff7f00" stroke-width="0.02">
        <g transform="rotate(-90 213856.55,-178592.56) translate(213856.55,-178592.56)" font-size="386.75">
          <text>FM1521</text>
        </g>
        <g transform="rotate(-90 213856.55,-179732.56) translate(213856.55,-179732.56)">
          <text>乙</text>
        </g>
        <g transform="translate(213747.19,-176157.18)" font-size="386.75">
          <text>FM1521</text>
        </g>
        <g transform="translate(214887.19,-176157.18)">
          <text>乙</text>
        </g>
        <g transform="translate(205747.19,-157147.18)" font-size="386.75">
          <text>FM1521</text>
        </g>
        <g transform="translate(206887.19,-157147.18)">
          <text>乙</text>
        </g>
        <g transform="rotate(-90 208132.55,-153352.06) translate(208132.55,-153352.06)" font-size="386.75">
          <text>FGC1209</text>
        </g>
        <g transform="rotate(-90 208132.55,-154712.06) translate(208132.55,-154712.06)">
          <text>甲</text>
        </g>
        <g transform="translate(205447.19,-152447.18)" font-size="386.75">
          <text>FM1521</text>
        </g>
        <g transform="translate(206587.19,-152447.18)">
          <text>乙</text>
        </g>
        <g transform="rotate(-90 213980.3,-175391.92) translate(213980.3,-175391.92)" font-size="386.75">
          <text>D1521</text>
        </g>
        <g transform="translate(209716.45,-157827.43)" font-size="386.75">
          <text>FM1521</text>
        </g>
        <g transform="translate(210856.45,-157827.43)">
          <text>乙</text>
        </g>
        <g transform="translate(210378.17,-156244.04)" font-size="626.95">
          <text>电井</text>
        </g>
        <g transform="translate(206643.04,-151244.42)" fill="#000000" stroke="#000000" stroke-width="0.02">
          <text>上</text>
        </g>
        <g transform="translate(206661.65,-149559.42)" fill="#000000" stroke="#000000" stroke-width="0.02">
          <text>下</text>
        </g>
        <g transform="translate(211561.55,-179494.42)" fill="#000000" stroke="#000000" stroke-width="0.02">
          <text>上</text>
        </g>
        <g transform="translate(211561.55,-177809.42)" fill="#000000" stroke="#000000" stroke-width="0.02">
          <text>下</text>
        </g>
      </g>
    </g>
    <g id="asset-labels" font-family="Arial" font-weight="bold" font-size="38.1em" text-anchor="middle">
      <g id="rm-labels">
        <g id="l-rm-14008;F08;809\810" transform="translate(209206.55,-165651.92)">
          <text>809\810</text>
        </g>
        <g id="l-rm-14008;F08;805-808" transform="translate(214956.55,-154561.17)">
          <text>805-808</text>
        </g>
        <g id="l-rm-14008;F08;801-804" transform="translate(218556.55,-168626.92)">
          <text>801-804</text>
        </g>
      </g>
    </g>
  </g>
</svg>