<svg version="1.1" xmlns="http://www.w3.org/2000/svg" xmlns:xlink="http://www.w3.org/1999/xlink" viewBox="202352.4 235572.71 30609 39003">
  <style>.i0 { stroke:#000000;   } .bady { stroke:#ff7f00;   } .name { stroke:#ff0000;   } .rm { stroke:#00ffff;   } .i_tch_wipeout { stroke:#000000;   } .axis_text { stroke:#000000;   } .pub_wall { stroke:#c0c0c0;   } .pub_hatch { stroke:#808080;   } .rm-asset { stroke:#0000ff;   fill:#EEEEEE; fill-opacity:1;} .rmtc-asset { stroke:#0000ff;   } .rmtc { stroke:#00ffff;   } .rm-assettxt { stroke:#0000ff;   } .rmtc-assettxt { stroke:#0000ff;   } .cnc-0 { stroke:#ff7f00;  stroke-dasharray:0; fill:#cccccc; fill-opacity:1;} .cnc-1 { stroke:#ff7f00;  stroke-dasharray:0; fill:#cccccc; fill-opacity:1;} .cnc-2 { stroke:#ff7f00;  stroke-dasharray:0; } .cnc-3 { stroke:#ff7f00;  stroke-dasharray:0; } .cnc-4 { stroke:#000000;  stroke-dasharray:0; } .cnc-5 { stroke:#000000;  stroke-dasharray:0; } .blkclass0 { stroke:#ff7f00;  stroke-width:0.02;  fill:#ff7f00; fill-opacity:1; font-family:Arial; font-size:386.75; font-weight:normal; text-style:normal; text-anchor:start;}</style>
  <view id="defaultView" viewBox="202352.4 235572.71 30609 39003" />
  <defs>
    <symbol id="_FZH" overflow="visible" class="i0">
      <path d="M-0.5,0.5l1,0l0,-1l-1,0z" />
    </symbol>
    <symbol id="$DorLib2D$00000228" overflow="visible" class="i0">
      <path d="M-0.5,0a1,1 0 0,1 0.5,-0.87" />
      <path d="M0.5,0l-0.5,-0.87" />
    </symbol>
    <symbol id="$DorLib2D$00000127_1100x250" overflow="visible" class="i0">
      <path d="M550,-125l-1100,0" />
      <path d="M36.67,-198.72l0,26.12" />
      <path d="M-36.67,-198.72l-550,0" />
      <path d="M-36.67,-172.6l-550,0" />
      <path d="M-36.67,-198.72l0,26.12" />
      <path d="M586.67,-198.72l0,26.12" />
      <path d="M-586.67,-198.72l0,26.12" />
      <path d="M586.67,-172.6l-550,0" />
      <path d="M586.67,-198.72l-550,0" />
    </symbol>
    <symbol id="$DorLib2D$00000231" overflow="visible" class="i0">
      <path d="M-0.5,0l0.25,-0.43" />
      <path d="M-0.25,-0.43a0.5,0.5 0 0,1 0.25,0.43" />
      <path d="M0,0a0.5,0.5 0 0,1 0.25,-0.43" />
      <path d="M0.5,0l-0.25,-0.43" />
    </symbol>
    <symbol id="$WINLIB2D$00000001_1800x300" overflow="visible" class="i0">
      <path d="M900,150l0,-300" />
      <path d="M-900,-150l0,300" />
      <path d="M900,-50l-1800,0" />
      <path d="M900,50l-1800,0" />
      <path d="M-900,150l1800,0" />
      <path d="M-900,-150l1800,0" />
    </symbol>
    <symbol id="$WINLIB2D$00000001_7200x300" overflow="visible" class="i0">
      <path d="M3600,150l0,-300" />
      <path d="M-3600,-150l0,300" />
      <path d="M3600,-50l-7200,0" />
      <path d="M3600,50l-7200,0" />
      <path d="M-3600,150l7200,0" />
      <path d="M-3600,-150l7200,0" />
    </symbol>
    <symbol id="$DorLib2D$00000018" overflow="visible" class="i0">
      <path d="M0.3,-0.01l0.2,0" />
      <path d="M0.3,0.01l0.2,0" />
      <path d="M0.3,-0.01l0,0.02" />
      <path d="M-0.3,-0.01l0,0.02" />
      <path d="M-0.5,-0.01l0.2,0" />
      <path d="M-0.5,0.01l0.2,0" />
      <path d="M0,0a0.3,0.3 0 0,1 0.15,-0.26" />
      <path d="M0.3,0l-0.15,-0.26" />
      <path d="M-0.3,0l0.15,-0.26" />
      <path d="M-0.15,-0.26a0.3,0.3 0 0,1 0.15,0.26" />
    </symbol>
    <symbol id="$WINLIB2D$00000001_2175x300" overflow="visible" class="i0">
      <path d="M1087.5,150l0,-300" />
      <path d="M-1087.5,-150l0,300" />
      <path d="M1087.5,-50l-2175,0" />
      <path d="M1087.5,50l-2175,0" />
      <path d="M-1087.5,150l2175,0" />
      <path d="M-1087.5,-150l2175,0" />
    </symbol>
    <symbol id="$DorLib2D$00000116" overflow="visible" class="i0">
      <path d="M-0.5,0l0.35,-0.35" />
      <path d="M-0.15,-0.35a0.5,0.5 0 0,1 0.15,0.35" />
      <path d="M0,0a0.5,0.5 0 0,1 0.15,-0.35" />
      <path d="M0.5,0l-0.35,-0.35" />
    </symbol>
    <symbol id="$lvtry$00000195" overflow="visible" class="i0">
      <path d="M218.98,245.54a174.2,174.2 0 0,1 -49.44,54.36" />
      <path d="M169.54,299.9a245.23,245.23 0 0,1 -72.97,35.6" />
      <path d="M232.64,194.74a101.25,101.25 0 0,1 -13.66,50.79" />
      <path d="M218.98,143.95a101.25,101.25 0 0,1 13.66,50.79" />
      <path d="M165.17,91.38a20,20 0 0,1 12.57,4.44" />
      <path d="M177.74,95.82a174.2,174.2 0 0,1 41.24,48.13" />
      <path d="M165.17,91.38a20,20 0 0,1 12.57,4.44" />
      <path d="M43.06,39.48a10.06,10.06 0 0,1 -0.82,19.49" />
      <path d="M43.06,39.47a258.71,258.71 0 0,1 -34.21,-5.14" />
      <path d="M14.41,66.74a172.58,172.58 0 0,1 27.83,-7.78" />
      <path d="M-169.54,299.9a174.2,174.2 0 0,1 -49.44,-54.36" />
      <path d="M-96.57,335.5a245.23,245.23 0 0,1 -72.97,-35.6" />
      <path d="M0,349.48a340.39,340.39 0 0,1 -96.57,-13.98" />
      <path d="M-165.17,91.38l130.73,0" />
      <path d="M-177.74,95.82a20,20 0 0,1 12.57,-4.44" />
      <path d="M-218.98,143.95a174.2,174.2 0 0,1 41.24,-48.13" />
      <path d="M-232.64,194.74a101.25,101.25 0 0,1 13.66,-50.79" />
      <path d="M-218.98,245.53a101.25,101.25 0 0,1 -13.66,-50.79" />
      <path d="M-16.69,48.49a16.69,16.69 0 0,1 33.38,0" />
      <path d="M-8.85,34.33a258.71,258.71 0 0,1 -34.21,5.14" />
      <path d="M-16.18,91.38l5.23,0" />
      <path d="M9.59,107.6a25.04,25.04 0 1,1 -19.18,0" />
      <path d="M16.69,58.32l0,-9.84" />
      <path d="M-16.69,58.32l0,-9.84" />
      <path d="M-26.82,97.74a3.37,3.37 0 0,1 -5.15,-4.05" />
      <path d="M-22.1,77.88a169.65,169.65 0 0,1 -10.18,16.35" />
      <path d="M-13.78,84.41a10.6,10.6 0 0,1 -8.32,-6.54" />
      <path d="M-27.27,98.18a169.65,169.65 0 0,1 13.49,-13.76" />
      <circle r="16.692" cy="58.32" />
      <path d="M-42.24,58.96a172.58,172.58 0 0,1 22.78,5.99" />
      <path d="M-11.46,86.91a372.22,372.22 0 0,1 2.26,28.25" />
      <path d="M-42.24,58.97a10.06,10.06 0 0,1 -0.82,-19.49" />
      <path d="M9.2,115.16a372.22,372.22 0 0,1 5.21,-48.41" />
      <path d="M9.2,115.16a9.9,9.9 0 0,1 -18.4,0" />
      <path d="M-16.69,58.46a166.25,166.25 0 0,1 -18.37,33.81" />
      <path d="M-24.71,100.41a6.77,6.77 0 0,1 -10.36,-8.14" />
      <path d="M-24.71,100.42a166.25,166.25 0 0,1 28.52,-25.84" />
      <path d="M96.57,335.5a340.39,340.39 0 0,1 -96.57,13.98" />
      <path d="M10.96,91.38l154.21,0" />
      <path d="M253.58,265.6a141.25,141.25 0 0,0 19.06,-70.86m-79.85,137.71a214.2,214.2 0 0,0 60.8,-66.85m-145.66,108.25a285.23,285.23 0 0,0 84.86,-41.41m-192.78,57.04a380.39,380.39 0 0,0 107.92,-15.63m-215.84,0a380.39,380.39 0 0,0 107.92,15.63m-192.78,-57.04a285.23,285.23 0 0,0 84.86,41.41m-145.66,-108.25a214.2,214.2 0 0,0 60.8,66.85m-79.85,-137.71a141.25,141.25 0 0,0 19.06,70.86m0,-141.71a141.25,141.25 0 0,0 -19.06,70.86m79.85,-137.7a214.2,214.2 0 0,0 -60.8,66.85m145.66,-108.25a285.23,285.23 0 0,0 -84.86,41.41m192.78,-57.05a380.39,380.39 0 0,0 -107.92,15.63m215.84,0a380.39,380.39 0 0,0 -107.92,-15.63m192.78,57.05a285.23,285.23 0 0,0 -84.86,-41.41m145.66,108.25a214.2,214.2 0 0,0 -60.8,-66.85m79.85,137.7a141.25,141.25 0 0,0 -19.06,-70.86" class="cnc-4" />
    </symbol>
    <symbol id="$lvtry$00000200" overflow="visible" class="i0">
      <path d="M139.78,469.66l-279.57,0" class="cnc-4" />
      <path d="M99.78,0l-199.57,0m0,0a40,40 0 0,0 -40,40m0,0l0,439.66m0,0a110,110 0 0,0 110,110m0,0l59.57,0m0,0a110,110 0 0,0 110,-110m0,0l0,-439.66m0,0a40,40 0 0,0 -40,-40" class="cnc-4" />
      <path d="M99.78,30a10,10 0 0,1 10,10" />
      <path d="M-109.78,40a10,10 0 0,1 10,-10" />
      <path d="M99.78,30l-199.57,0" />
      <circle r="20" cy="358.61" />
      <path d="M109.78,469.66l0,-429.66" />
      <path d="M-109.78,40l0,429.66" />
    </symbol>
    <symbol id="$TCHSYS$APDOOR2D" overflow="visible" class="i0">
      <path d="M0.5,0l-0.5,-0.87" />
      <path d="M-0.5,0a1,1 0 0,1 0.5,-0.87" />
    </symbol>
    <symbol id="$lvtry$00000188" overflow="visible" class="i0">
      <path d="M262.08,174.72a74.88,74.88 0 0,0 -74.88,-74.88" class="cnc-5" />
      <path d="M-262.08,0a37.44,37.44 0 0,0 -37.44,37.44l0,474.24a37.44,37.44 0 0,0 37.44,37.44l524.16,0a37.44,37.44 0 0,0 37.44,-37.44l0,-474.24a37.44,37.44 0 0,0 -37.44,-37.44l-524.16,0" class="cnc-5" />
      <path d="M31.2,99.84l156,0" />
      <circle r="24.96" cx="-80.35" cy="62.4" />
      <path d="M-38.06,49.92l76.12,0" />
      <path d="M-41.02,53.41a3,3 0 0,1 2.96,-3.49" />
      <path d="M38.06,49.92a3,3 0 0,1 2.96,3.49" />
      <circle r="19.96" cx="-80.35" cy="62.4" />
      <circle r="19.96" cx="80.35" cy="62.4" />
      <circle r="24.96" cx="80.35" cy="62.4" />
      <circle r="37.44" cy="299.52" />
      <path d="M-12.48,224.64l24.96,0" />
      <path d="M262.08,436.8a74.88,74.88 0 0,1 -74.88,74.88" />
      <path d="M262.08,174.72l0,262.08" />
      <path d="M-41.02,53.41l28.54,171.23" />
      <path d="M12.48,224.64l28.54,-171.23" />
      <path d="M-262.08,174.72a74.88,74.88 0 0,1 74.88,-74.88" />
      <path d="M-187.2,511.68a74.88,74.88 0 0,1 -74.88,-74.88" />
      <path d="M-262.08,436.8l0,-262.08" />
      <path d="M187.2,511.68l-374.4,0" />
      <path d="M-187.2,99.84l156,0" />
    </symbol>
    <symbol id="$lvtry$00000223" overflow="visible" class="i0">
      <path d="M-205,190.69l0,-190.69l410,0l0,190.69m0,0a203.43,203.43 0 0,0 -154.23,132.77m-50.77,36.19a54,54 0 0,0 50.77,-36.18m-101.53,0a54,54 0 0,0 50.77,36.18m-50.77,-36.19a203.43,203.43 0 0,0 -154.23,-132.77" class="cnc-4" />
      <path d="M-155.89,184.28a233.43,233.43 0 0,1 133.44,139.64" />
      <path d="M-156.25,165.88a395,395 0 0,1 317.79,-2.15" />
      <path d="M-155.89,184.29a10,10 0 0,1 -0.36,-18.41" />
      <path d="M22.45,323.92a233.43,233.43 0 0,1 138.63,-141.65" />
      <path d="M22.45,323.92a24,24 0 0,1 -22.45,16.08" />
      <path d="M0,340a24,24 0 0,1 -22.45,-16.08" />
      <circle r="20" cy="241.62" />
      <path d="M161.54,163.73a10,10 0 0,1 -0.46,18.55" />
      <circle r="20" cx="-0.03" cy="60.43" />
    </symbol>
    <symbol id="$WINLIB2D$00000001_1490o9x300" overflow="visible" class="i0">
      <path d="M745.47,150l0,-300" />
      <path d="M-745.46,-150l0,300" />
      <path d="M745.47,-50l-1490.93,0" />
      <path d="M745.47,50l-1490.93,0" />
      <path d="M-745.46,150l1490.93,0" />
      <path d="M-745.46,-150l1490.93,0" />
    </symbol>
    <symbol id="$WINLIB2D$00000001_1313o1x300" overflow="visible" class="i0">
      <path d="M656.56,150l0,-300" />
      <path d="M-656.55,-150l0,300" />
      <path d="M656.56,-50l-1313.11,0" />
      <path d="M656.56,50l-1313.11,0" />
      <path d="M-656.55,150l1313.11,0" />
      <path d="M-656.55,-150l1313.11,0" />
    </symbol>
  </defs>
  <g id="viewer">
    <g id="mirror" transform="scale(1, 1)" stroke-width="0.09%">
      <g id="background" fill="none">
        <g id="layer-bady-fills" class="cnc-0">
          <path d="M216213.23,238563.47l1523.21,0l0,1716.73l-1523.21,0z" />
          <path d="M217818.03,238861.37l266.68,0l0,1048.11l-266.68,0z" />
          <path d="M216213.23,236463.47l1523.21,0l0,1716.73l-1523.21,0z" />
          <path d="M217818.03,236761.37l266.68,0l0,1048.11l-266.68,0z" />
          <path d="M220200.82,238563.47l-1366.5,0l0,1716.73l1366.5,0z" class="cnc-1" />
          <path d="M218752.74,238861.37l-266.68,0l0,1048.11l266.68,0z" class="cnc-1" />
          <path d="M217160.88,242574.08l-1200.5,0l0,600l1200.5,0z" />
          <path d="M217160.88,240624.08l-1200.5,0l0,600l1200.5,0z" />
        </g>
        <g id="layer-RM-fills" class="rm">
          <path d="M207660.38,260174.08l0,850l4900,0l0,-250l-300,0l0,-600z" />
          <path d="M218410.38,236374.08l1950,0l0,1900l-1950,0z" />
          <path d="M216060.38,236374.08l1950,0l0,1900l-1950,0z" />
          <path d="M216060.38,238474.08l1950,0l0,1900l-1950,0z" />
          <path d="M218410.38,238474.08l1950,0l0,1900l-1950,0z" />
        </g>
        <g id="layer-bady" class="cnc-2">
          <path d="M215538.91,238274.08l5461.05,0" />
          <path d="M206360.38,273174.08l14500,0" />
          <path d="M206360.38,269474.08l14500,0" />
          <path d="M220360.38,269474.08l0,3700" />
          <path d="M219960.38,269474.08l0,3700" />
          <path d="M219560.38,269474.08l0,3700" />
          <path d="M219160.38,269474.08l0,3700" />
          <path d="M218760.38,269474.08l0,3700" />
          <path d="M218360.38,269474.08l0,3700" />
          <path d="M217960.38,269474.08l0,3700" />
          <path d="M217560.38,269474.08l0,3700" />
          <path d="M217160.38,269474.08l0,3700" />
          <path d="M216760.38,269474.08l0,3700" />
          <path d="M216360.38,269474.08l0,3700" />
          <path d="M215960.38,269474.08l0,3700" />
          <path d="M215560.38,269474.08l0,3700" />
          <path d="M215160.38,269474.08l0,3700" />
          <path d="M214760.38,269474.08l0,3700" />
          <path d="M214360.38,269474.08l0,3700" />
          <path d="M213960.38,269474.08l0,3700" />
          <path d="M213560.38,269474.08l0,3700" />
          <path d="M213160.38,269474.08l0,3700" />
          <path d="M212760.38,269474.08l0,3700" />
          <path d="M212360.38,269474.08l0,3700" />
          <path d="M211960.38,269474.08l0,3700" />
          <path d="M211560.38,269474.08l0,3700" />
          <path d="M211160.38,269474.08l0,3700" />
          <path d="M210760.38,269474.08l0,3700" />
          <path d="M210360.38,269474.08l0,3700" />
          <path d="M209960.38,269474.08l0,3700" />
          <path d="M217736.44,238563.47l-1523.21,1716.73" />
          <path d="M216213.23,238563.47l1523.21,1716.73" />
          <path d="M209560.38,269474.08l0,3700" />
          <path d="M209160.38,269474.08l0,3700" />
          <path d="M208760.38,269474.08l0,3700" />
          <path d="M208360.38,269474.08l0,3700" />
          <path d="M207960.38,269474.08l0,3700" />
          <path d="M207560.38,269474.08l0,3700" />
          <path d="M207160.38,269474.08l0,3700" />
          <path d="M206760.38,269474.08l0,3700" />
          <path d="M206360.38,268874.08l0,4900" />
          <path d="M204160.38,268874.08l0,4900" />
          <path d="M204160.38,274574.08l-1500,0l-300,0l0,-6500l1800,0" />
          <path d="M204160.38,268874.08l-1800,-800" />
          <path d="M204160.38,273774.08l-1800,800" />
          <path d="M217736.44,236463.47l-1523.21,1716.73" />
          <path d="M216213.23,236463.47l1523.21,1716.73" />
          <path d="M218834.33,238563.47l1366.5,1716.73" class="cnc-3" />
          <path d="M220200.82,238563.47l-1366.5,1716.73" class="cnc-3" />
          <path d="M220200.82,238563.47l0,1716.73" class="cnc-3" />
          <path d="M229260.38,273774.08l300,0l0,-4900" />
          <path d="M229260.38,274074.08l600,0l0,-5200" />
          <path d="M212283.99,260274.08l-4365.83,276.7l-257.77,573.3" />
          <path d="M220610.38,242846.22l1006.36,0" />
          <path d="M220610.38,243066.22l879.34,0" />
          <path d="M230707.99,242946.22l0,120" />
          <path d="M222971.25,243066.22l7736.74,0" />
          <path d="M222844.23,242846.22l7863.75,0" />
          <path d="M222230.32,243066.22l0.34,0" />
          <use xlink:href="#_FZH" x="265.825" y="315.593" transform="scale(800,800)" stroke-width="0.0001%">.</use>
          <use xlink:href="#_FZH" x="265.825" y="305.593" transform="scale(800,800)" stroke-width="0.0001%">.</use>
          <use xlink:href="#_FZH" x="265.825" y="325.593" transform="scale(800,800)" stroke-width="0.0001%">.</use>
          <use xlink:href="#_FZH" x="265.825" y="335.593" transform="scale(800,800)" stroke-width="0.0001%">.</use>
          <use xlink:href="#_FZH" x="265.825" y="295.593" transform="scale(800,800)" stroke-width="0.0001%">.</use>
          <use xlink:href="#_FZH" x="275.95" y="335.593" transform="scale(800,800)" stroke-width="0.0001%">.</use>
          <use xlink:href="#_FZH" x="275.95" y="325.593" transform="scale(800,800)" stroke-width="0.0001%">.</use>
          <use xlink:href="#_FZH" x="275.95" y="315.593" transform="scale(800,800)" stroke-width="0.0001%">.</use>
          <use xlink:href="#_FZH" x="275.95" y="305.593" transform="scale(800,800)" stroke-width="0.0001%">.</use>
          <use xlink:href="#_FZH" x="275.95" y="295.593" transform="scale(800,800)" stroke-width="0.0001%">.</use>
          <use xlink:href="#_FZH" x="286.075" y="295.593" transform="scale(800,800)" stroke-width="0.0001%">.</use>
          <use xlink:href="#_FZH" x="286.075" y="305.593" transform="scale(800,800)" stroke-width="0.0001%">.</use>
          <use xlink:href="#_FZH" x="286.075" y="315.593" transform="scale(800,800)" stroke-width="0.0001%">.</use>
          <use xlink:href="#_FZH" x="286.075" y="325.593" transform="scale(800,800)" stroke-width="0.0001%">.</use>
          <use xlink:href="#_FZH" x="286.075" y="335.593" transform="scale(800,800)" stroke-width="0.0001%">.</use>
          <use xlink:href="#_FZH" x="255.7" y="315.593" transform="scale(800,800)" stroke-width="0.0001%">.</use>
          <use xlink:href="#_FZH" x="255.7" y="305.593" transform="scale(800,800)" stroke-width="0.0001%">.</use>
          <use xlink:href="#_FZH" x="255.7" y="325.593" transform="scale(800,800)" stroke-width="0.0001%">.</use>
          <use xlink:href="#_FZH" x="255.7" y="335.593" transform="scale(800,800)" stroke-width="0.0001%">.</use>
          <use xlink:href="#_FZH" x="255.7" y="295.593" transform="scale(800,800)" stroke-width="0.0001%">.</use>
          <use xlink:href="#_FZH" x="290.7" y="315.593" transform="scale(800,800)" stroke-width="0.0001%">.</use>
          <use xlink:href="#_FZH" x="290.7" y="325.593" transform="scale(800,800)" stroke-width="0.0001%">.</use>
          <use xlink:href="#_FZH" x="290.7" y="335.593" transform="scale(800,800)" stroke-width="0.0001%">.</use>
          <path d="M228460.38,236074.08l-5500,0" />
          <path d="M222960.38,236074.08l0,300" />
          <path d="M222960.38,236374.08l5500,0" />
          <path d="M221160.38,236374.08l300,0" />
          <path d="M221460.38,236374.08l0,-300" />
          <path d="M221460.38,236074.08l-300,0" />
          <path d="M220360.38,236374.08l-1950,0" />
          <path d="M220360.38,236074.08l-2200,0" />
          <path d="M212260.38,236374.08l-1483.25,0" />
          <path d="M212260.38,236074.08l-1483.25,0" />
          <path d="M229146.36,236874.08l156.69,643.7" />
          <path d="M229303.05,237517.78l291.49,-70.95" />
          <path d="M229594.54,237446.83l-334.16,-1372.75" />
          <path d="M232960.38,251274.08l-600.43,-2466.62" />
          <path d="M232359.96,248807.46l-291.49,70.95" />
          <path d="M232068.47,248878.41l591.92,2431.66" />
          <path d="M229817.47,239631.07l195.13,801.62" />
          <path d="M230012.6,240432.69l291.49,-70.95" />
          <path d="M230304.09,240361.74l-195.13,-801.62" />
          <path d="M230108.96,239560.12l-291.49,70.95" />
          <path d="M230527.02,242545.98l430.3,1767.72" />
          <path d="M230957.32,244313.71l291.49,-70.95" />
          <path d="M231248.81,244242.75l-430.3,-1767.72" />
          <path d="M230818.51,242475.03l-291.49,70.95" />
          <path d="M231267.89,245589.57l447.95,1840.22" />
          <path d="M231715.84,247429.78l291.49,-70.95" />
          <path d="M232007.33,247358.83l-447.95,-1840.22" />
          <path d="M231559.38,245518.61l-291.49,70.95" />
          <path d="M232960.38,251274.08l0,800" />
          <path d="M232660.38,251310.07l0,764.01" />
          <path d="M232660.38,252874.08l0,800" />
          <path d="M232660.38,253674.08l300,0" />
          <path d="M232960.38,253674.08l0,-800" />
          <path d="M232960.38,260074.08l0,-800" />
          <path d="M232960.38,259274.08l-300,0" />
          <path d="M232660.38,259274.08l0,800" />
          <path d="M232660.38,255474.08l0,2000" />
          <path d="M232660.38,257474.08l300,0" />
          <path d="M232960.38,257474.08l0,-2000" />
          <path d="M232960.38,255474.08l-300,0" />
          <path d="M232660.38,260874.08l0,800" />
          <path d="M232660.38,261674.08l300,0" />
          <path d="M232960.38,261674.08l0,-800" />
          <path d="M232960.38,268074.08l0,-800" />
          <path d="M232960.38,267274.08l-300,0" />
          <path d="M232660.38,267274.08l0,800" />
          <path d="M232660.38,263474.08l0,2000" />
          <path d="M232660.38,265474.08l300,0" />
          <path d="M232960.38,265474.08l0,-2000" />
          <path d="M232960.38,263474.08l-300,0" />
          <use xlink:href="#_FZH" x="275.95" y="342.718" transform="scale(800,800)" stroke-width="0.0001%">.</use>
          <use xlink:href="#_FZH" x="286.075" y="342.718" transform="scale(800,800)" stroke-width="0.0001%">.</use>
          <use xlink:href="#_FZH" x="255.7" y="342.718" transform="scale(800,800)" stroke-width="0.0001%">.</use>
          <path d="M204460.38,268074.08l0,-800" />
          <path d="M204460.38,267274.08l-300,0" />
          <path d="M204160.38,267274.08l0,800" />
          <path d="M204160.38,260874.08l0,800" />
          <path d="M204160.38,261674.08l300,0" />
          <path d="M204460.38,261674.08l0,-800" />
          <path d="M204460.38,265474.08l0,-2300" />
          <path d="M204460.38,263174.08l-300,0" />
          <path d="M204160.38,263174.08l0,2300" />
          <path d="M204160.38,265474.08l300,0" />
          <path d="M204960.38,274274.08l15400,0" />
          <path d="M204960.38,274574.08l15400,0" />
          <path d="M221160.38,274274.08l7300,0" />
          <path d="M221160.38,274574.08l7300,0" />
          <path d="M204960.38,268574.08l7300,0" />
          <path d="M204960.38,268874.08l7300,0" />
          <path d="M213060.38,268574.08l7300,0" />
          <path d="M213060.38,268874.08l7300,0" />
          <path d="M220360.38,236874.08l0,100" />
          <path d="M220360.38,236974.08l250,0" />
          <path d="M220610.38,236974.08l0,-100" />
          <path d="M220610.38,238274.08l0,-400" />
          <path d="M220610.38,237874.08l-250,0" />
          <path d="M220360.38,237874.08l0,400" />
          <use xlink:href="#$DorLib2D$00000228" x="244.984" y="263.805" transform="scale(900,900) scale(1,-1) translate(0,-527.61) rotate(-90,244.98,263.8)" stroke-width="0.0001%">.<g class="blkclass0"><text transform="rotate(-90 548.75,445) translate(548.75,445)" font-size="386.75">M0921</text></g></use>
          <path d="M212260.38,260074.08l-1455.08,0" />
          <path d="M210805.31,260074.08l0,200" />
          <path d="M210805.31,260274.08l1455.08,0" />
          <path d="M207660.38,260274.08l1644.92,0" />
          <path d="M209305.31,260274.08l0,-200" />
          <path d="M209305.31,260074.08l-1644.92,0" />
          <path d="M207660.38,260274.08l0,850" />
          <path d="M207460.38,260274.08l0,1050" />
          <path d="M212560.38,261124.08l0,-250" />
          <path d="M212760.38,261324.08l0,-450" />
          <path d="M204460.38,244074.08l0,-800" />
          <path d="M204460.38,243274.08l-300,0" />
          <path d="M204160.38,243274.08l0,800" />
          <path d="M204160.38,236874.08l0,800" />
          <path d="M204160.38,237674.08l300,0" />
          <path d="M204460.38,237674.08l0,-800" />
          <path d="M204460.38,241474.08l0,-2000" />
          <path d="M204460.38,239474.08l-300,0" />
          <path d="M204160.38,239474.08l0,2000" />
          <path d="M204160.38,241474.08l300,0" />
          <path d="M216053.67,236074.08l-893.28,0" />
          <path d="M215160.38,236074.08l0,300" />
          <path d="M215160.38,236374.08l650,0" />
          <path d="M213060.38,236374.08l600,0" />
          <path d="M213660.38,236374.08l0,-300" />
          <path d="M213660.38,236074.08l-600,0" />
          <path d="M215810.38,236374.08l0,400" />
          <path d="M215810.38,236774.08l250,0" />
          <path d="M216060.38,236774.08l0,-400" />
          <path d="M216060.38,238274.08l0,-400" />
          <path d="M216060.38,237874.08l-250,0" />
          <path d="M215810.38,237874.08l0,400" />
          <path d="M218160.38,236374.08l-2100,0" />
          <path d="M218160.38,236074.08l-2106.72,0" />
          <path d="M218160.38,240374.08l0,-1900" />
          <path d="M218410.38,240624.08l0,-2350" />
          <path d="M215810.38,238274.08l0,600" />
          <path d="M215810.38,238874.08l250,0" />
          <path d="M216060.38,238874.08l0,-400" />
          <path d="M216060.38,240374.08l0,-400" />
          <path d="M216060.38,239974.08l-250,0" />
          <path d="M215810.38,239974.08l0,650" />
          <use xlink:href="#$DorLib2D$00000127_1100x250" x="215935.38" y="239424.08" transform="rotate(-270,215935.38,239424.08)">.</use>
          <path d="M218160.38,238274.08l0,-1900" />
          <path d="M218410.38,238274.08l0,-1900" />
          <path d="M216060.38,238274.08l2100,0" />
          <path d="M216060.38,238474.08l2100,0" />
          <path d="M218410.38,240374.08l1950,0" />
          <path d="M218410.38,240624.08l1950,0" />
          <path d="M218410.38,240374.08l0,250" />
          <path d="M218410.38,238274.08l1950,0" />
          <path d="M218410.38,238474.08l1950,0" />
          <path d="M218410.38,238274.08l0,200" />
          <use xlink:href="#$DorLib2D$00000231" x="142.94" y="160.249" transform="scale(1500,1500)" stroke-width="0.0001%">.</use>
          <path d="M212760.38,239974.08l0,-1300" />
          <path d="M212760.38,238674.08l-200,0" />
          <path d="M212560.38,238674.08l0,1300" />
          <path d="M212560.38,236874.08l0,300" />
          <path d="M212560.38,237174.08l200,0" />
          <path d="M212760.38,237174.08l0,-300" />
          <use xlink:href="#$DorLib2D$00000231" x="141.774" y="158.616" transform="scale(1500,1500) scale(1,-1) translate(0,-317.23) rotate(-270,141.77,158.62)" stroke-width="0.0001%">.</use>
          <path d="M204460.38,239974.08l8100,0" />
          <path d="M204460.38,240174.08l8100,0" />
          <path d="M204460.38,239974.08l0,200" />
          <path d="M210777.13,236374.08l-5816.75,0" />
          <path d="M210777.13,236074.08l-5816.75,0" />
          <path d="M210660.38,236374.08l0,130" />
          <path d="M210660.38,236504.08l120,0" />
          <path d="M210780.38,236504.08l0,-130" />
          <path d="M210780.38,238284.08l0,-280" />
          <path d="M210780.38,238004.08l-120,0" />
          <path d="M210660.38,238004.08l0,160" />
          <path d="M210780.38,238284.08l-4520,0" />
          <path d="M210660.38,238164.08l-4400,0" />
          <path d="M206260.38,238284.08l0,-120" />
          <use xlink:href="#$DorLib2D$00000231" x="140.48" y="158.169" transform="scale(1500,1500) scale(-1,1) translate(-280.96,0) rotate(-90,140.48,158.17)" stroke-width="0.0001%">.</use>
          <path d="M212560.38,240474.08l1100,0" />
          <path d="M213660.38,240474.08l0,-200" />
          <path d="M213660.38,240274.08l-900,0" />
          <path d="M215810.38,240274.08l-650,0" />
          <path d="M215160.38,240274.08l0,200" />
          <path d="M215160.38,240474.08l650,0" />
          <path d="M215810.38,240474.08l0,-200" />
          <use xlink:href="#$WINLIB2D$00000001_1800x300" x="204310.38" y="238574.08" transform="scale(-1,1) translate(-408620.76,0) rotate(-270,204310.38,238574.08)">.<g class="blkclass0"><text transform="rotate(-90 573.75,430) translate(573.75,430)" font-size="386.75">C1819</text></g></use>
          <use xlink:href="#$WINLIB2D$00000001_1800x300" x="204310.38" y="242374.08" transform="scale(-1,1) translate(-408620.76,0) rotate(-270,204310.38,242374.08)">.<g class="blkclass0"><text transform="rotate(-90 573.75,430) translate(573.75,430)" font-size="386.75">C1819</text></g></use>
          <use xlink:href="#$WINLIB2D$00000001_7200x300" x="204310.38" y="248474.08" transform="scale(-1,1) translate(-408620.76,0) rotate(-270,204310.38,248474.08)">.<g class="blkclass0"><text transform="rotate(-90 573.75,494.72) translate(573.75,494.72)" font-size="386.75">C7218</text></g></use>
          <use xlink:href="#$WINLIB2D$00000001_7200x300" x="204310.38" y="256474.08" transform="scale(-1,1) translate(-408620.76,0) rotate(-270,204310.38,256474.08)">.<g class="blkclass0"><text transform="rotate(-90 573.75,552.1) translate(573.75,552.1)" font-size="386.75">C7218</text></g></use>
          <path d="M229260.38,268574.08l2900,0" />
          <path d="M229260.38,268874.08l2900,0" />
          <use xlink:href="#$DorLib2D$00000018" x="74.42" y="89.575" transform="scale(3000,3000) scale(-1,-1) translate(-148.84,-179.15)" stroke-width="0%">.<g class="blkclass0"><text transform="translate(-575,-276.25)" font-size="386.75">LM3030</text></g></use>
          <path d="M207460.38,260274.08l-2500,0" />
          <path d="M207660.38,260074.08l-2700,0" />
          <path d="M221160.38,268874.08l600,0" />
          <path d="M221760.38,268874.08l0,-300" />
          <path d="M221760.38,268574.08l-600,0" />
          <path d="M228460.38,268574.08l-3700,0" />
          <path d="M224760.38,268574.08l0,300" />
          <path d="M224760.38,268874.08l3700,0" />
          <path d="M220860.38,273774.08l0,-4900" />
          <path d="M221160.38,273774.08l0,-4900" />
          <path d="M212560.38,268074.08l0,-3100" />
          <path d="M212760.38,268074.08l0,-3300" />
          <path d="M212760.38,264774.08l-6600,0" />
          <path d="M206160.38,264774.08l0,200" />
          <path d="M206160.38,264974.08l6400,0" />
          <path d="M204460.38,264974.08l200,0" />
          <path d="M204660.38,264974.08l0,-200" />
          <path d="M204660.38,264774.08l-200,0" />
          <path d="M204460.38,264774.08l0,200" />
          <use xlink:href="#$DorLib2D$00000231" x="136.207" y="174.949" transform="scale(1500,1500) scale(-1,1) translate(-272.41,0) rotate(-270,136.21,174.95)" stroke-width="0.0001%">.<g class="blkclass0"><text transform="rotate(-90 573.75,555) translate(573.75,555)" font-size="386.75">LM1530</text></g></use>
          <use xlink:href="#$DorLib2D$00000231" x="136.94" y="176.583" transform="scale(1500,1500) scale(-1,-1) translate(-273.88,-353.17) rotate(-180,136.94,176.58)" stroke-width="0.0001%">.</use>
          <use xlink:href="#$DorLib2D$00000127_1100x250" x="215935.38" y="237324.08" transform="rotate(-270,215935.38,237324.08)">.</use>
          <path d="M220610.38,240374.08l0,3700" />
          <path d="M220360.38,240624.08l0,3450" />
          <path d="M220360.38,238474.08l0,400" />
          <path d="M220360.38,238874.08l250,0" />
          <path d="M220610.38,238874.08l0,-600" />
          <path d="M220610.38,240374.08l0,-400" />
          <path d="M220610.38,239974.08l-250,0" />
          <path d="M220360.38,239974.08l0,400" />
          <use xlink:href="#$DorLib2D$00000127_1100x250" x="220485.38" y="239424.08" transform="scale(1,-1) translate(0,-478848.16) rotate(-90,220485.38,239424.08)">.</use>
          <use xlink:href="#$WINLIB2D$00000001_1800x300" x="204310.38" y="266374.08" transform="scale(-1,-1) translate(-408620.76,-532748.16) rotate(-90,204310.38,266374.08)">.<g class="blkclass0"><text transform="rotate(-90 605.45,455) translate(605.45,455)" font-size="386.75">C1827</text></g></use>
          <use xlink:href="#$WINLIB2D$00000001_2175x300" x="229706.01" y="238538.95" transform="scale(-1,-1) translate(-459412.02,-477077.9) rotate(-283.68,229706.01,238538.95)">.<g class="blkclass0"><text transform="rotate(-283.68 171.44,-463.7) translate(171.44,-463.7)" font-size="386.75">C2121</text></g></use>
          <use xlink:href="#$WINLIB2D$00000001_2175x300" x="230415.56" y="241453.86" transform="scale(-1,-1) translate(-460831.12,-482907.72) rotate(-283.68,230415.56,241453.86)">.<g class="blkclass0"><text transform="rotate(-283.68 171.44,-463.7) translate(171.44,-463.7)" font-size="386.75">C2121</text></g></use>
          <use xlink:href="#$DorLib2D$00000231" x="148.14" y="157.483" transform="scale(1500,1500) scale(1,-1) translate(0,-314.97) rotate(-180,148.14,157.48)" stroke-width="0.0001%">.<g class="blkclass0"><text transform="translate(-555,566.43)" font-size="386.75">LM1530</text></g></use>
          <use xlink:href="#$DorLib2D$00000231" x="142.94" y="157.483" transform="scale(1500,1500) scale(1,-1) translate(0,-314.97) rotate(-180,142.94,157.48)" stroke-width="0.0001%">.<g class="blkclass0"><text transform="translate(-555,566.43)" font-size="386.75">LM1530</text></g></use>
          <path d="M220360.38,244874.08l0,5700" />
          <path d="M220360.38,250574.08l120,0" />
          <path d="M220480.38,250574.08l0,-5700" />
          <path d="M220360.38,252874.08l0,5700" />
          <path d="M220360.38,258574.08l120,0" />
          <path d="M220480.38,258574.08l0,-5700" />
          <path d="M220480.38,265074.08l0,-2700" />
          <path d="M220480.38,262374.08l-120,0" />
          <path d="M220360.38,262374.08l0,2700" />
          <path d="M220360.38,265074.08l120,0" />
          <path d="M213060.38,250099.08l0,-3725" />
          <path d="M213060.38,246374.08l-120,0" />
          <path d="M212940.38,246374.08l0,3650" />
          <path d="M212940.38,254374.08l0,4200" />
          <path d="M212940.38,258574.08l120,0" />
          <path d="M213060.38,258574.08l0,-4200" />
          <path d="M213060.38,254374.08l-120,0" />
          <use xlink:href="#$DorLib2D$00000116" x="142" y="167.549" transform="scale(1500,1500) rotate(-270,142,167.55)" stroke-width="0.0001%">.<g class="blkclass0"><text transform="rotate(-90 -186.25,425) translate(-186.25,425)" font-size="386.75">M1521</text></g></use>
          <use xlink:href="#$DorLib2D$00000116" x="146.947" y="167.549" transform="scale(1500,1500) scale(1,-1) translate(0,-335.1) rotate(-90,146.95,167.55)" stroke-width="0.0001%">.<g class="blkclass0"><text transform="rotate(-90 483.75,425) translate(483.75,425)" font-size="386.75">M1521</text></g></use>
          <path d="M213060.38,254374.08l0,-1500" />
          <path d="M212940.38,252874.08l0,1500" />
          <use xlink:href="#$DorLib2D$00000116" x="142" y="172.883" transform="scale(1500,1500) rotate(-270,142,172.88)" stroke-width="0.0001%">.<g class="blkclass0"><text transform="rotate(-90 -186.25,425) translate(-186.25,425)" font-size="386.75">M1521</text></g></use>
          <use xlink:href="#$DorLib2D$00000116" x="146.947" y="172.883" transform="scale(1500,1500) scale(1,-1) translate(0,-345.77) rotate(-90,146.95,172.88)" stroke-width="0.0001%">.<g class="blkclass0"><text transform="rotate(-90 483.75,425) translate(483.75,425)" font-size="386.75">M1521</text></g></use>
          <use xlink:href="#$DorLib2D$00000116" x="146.947" y="174.416" transform="scale(1500,1500) scale(1,-1) translate(0,-348.83) rotate(-90,146.95,174.42)" stroke-width="0.0001%">.<g class="blkclass0"><text transform="rotate(-90 483.75,425) translate(483.75,425)" font-size="386.75">M1521</text></g></use>
          <path d="M221160.38,260414.08l7300,0" />
          <path d="M221160.38,260534.08l7300,0" />
          <path d="M229260.38,260414.08l2900,0" />
          <path d="M229260.38,260534.08l2900,0" />
          <path d="M221160.38,252414.08l7300,0" />
          <path d="M221160.38,252534.08l7300,0" />
          <path d="M229260.38,252414.08l2900,0" />
          <path d="M229260.38,252534.08l2900,0" />
          <path d="M212560.38,240474.08l0,-300" />
          <path d="M212760.38,240274.08l0,-300" />
          <path d="M212560.38,245123.72l0,-249.64" />
          <path d="M212760.38,245123.72l0,-249.64" />
          <path d="M212560.38,245123.72l200,0" />
          <path d="M220360.38,265074.08l0,1500" />
          <path d="M220360.38,266574.08l120,0" />
          <path d="M220480.38,266574.08l0,-1500" />
          <path d="M220480.38,265074.08l-120,0" />
          <use xlink:href="#$DorLib2D$00000116" x="146.947" y="178.216" transform="scale(1500,1500) scale(-1,1) translate(-293.89,0) rotate(-270,146.95,178.22)" stroke-width="0.0001%">.<g class="blkclass0"><text transform="rotate(-90 483.75,425) translate(483.75,425)" font-size="386.75">M1521</text></g></use>
          <path d="M207660.38,261124.08l4900,0" />
          <path d="M207460.38,261324.08l5300,0" />
          <use xlink:href="#$DorLib2D$00000231" x="140.037" y="173.449" transform="scale(1500,1500) scale(-1,-1) translate(-280.07,-346.9) rotate(-180,140.04,173.45)" stroke-width="0.0001%">.</use>
          <path d="M204460.38,250024.08l8480,0" />
          <path d="M204460.38,250174.08l8480,0" />
          <path d="M204460.38,250024.08l0,150" />
          <use xlink:href="#$DorLib2D$00000116" x="142" y="163.749" transform="scale(1500,1500) rotate(-270,142,163.75)" stroke-width="0.0001%">.<g class="blkclass0"><text transform="rotate(-90 -247.84,425) translate(-247.84,425)" font-size="386.75">M1521</text></g></use>
          <path d="M212940.38,250174.08l0,400" />
          <path d="M212940.38,250574.08l120,0" />
          <path d="M213060.38,250574.08l0,-475" />
          <path d="M215960.38,242424.08l4400,0" />
          <path d="M215960.38,242574.08l4400,0" />
          <path d="M220360.38,242424.08l0,150" />
          <path d="M215960.38,244624.08l0,-150" />
          <path d="M215960.38,244474.08l-150,0" />
          <path d="M215810.38,244474.08l0,300" />
          <path d="M215810.38,242499.08l0,1075" />
          <path d="M215810.38,243574.08l150,0" />
          <path d="M215960.38,243574.08l0,-1000" />
          <use xlink:href="#$DorLib2D$00000228" x="239.873" y="271.138" transform="scale(900,900) scale(-1,-1) translate(-479.75,-542.28) rotate(-90,239.87,271.14)" stroke-width="0.0001%">.<g class="blkclass0"><text transform="rotate(-90 1089.58,445) translate(1089.58,445)" font-size="386.75">M0921</text></g></use>
          <path d="M215960.38,244624.08l4400,0" />
          <path d="M215810.38,244774.08l4550,0" />
          <path d="M216060.38,240374.08l2100,0" />
          <path d="M215810.38,240624.08l2600,0" />
          <use xlink:href="#$lvtry$00000195" x="216560.63" y="242594.08" transform="rotate(-360,216560.63,242594.08)">.</use>
          <path d="M215960.38,242424.08l0,-150" />
          <path d="M215960.38,242274.08l-150,0" />
          <path d="M215810.38,242274.08l0,225" />
          <path d="M215810.38,240624.08l0,750" />
          <path d="M215810.38,241374.08l150,0" />
          <path d="M215960.38,241374.08l0,-750" />
          <path d="M215960.38,240624.08l-150,0" />
          <use xlink:href="#$lvtry$00000200" x="220160.38" y="241074.08" transform="rotate(-270,220160.38,241074.08)">.</use>
          <use xlink:href="#$lvtry$00000200" x="220160.38" y="241974.08" transform="rotate(-270,220160.38,241974.08)">.</use>
          <path d="M220360.38,241536.58l-1187.5,0" />
          <path d="M220360.38,241511.58l-1187.5,0" />
          <path d="M220360.38,241536.58l0,-25" />
          <path d="M219147.88,240624.08l0,150" />
          <path d="M219147.88,240774.08l25,0" />
          <path d="M219172.88,240774.08l0,-150" />
          <path d="M219172.88,240624.08l-25,0" />
          <path d="M219172.88,241511.58l0,-137.5" />
          <path d="M219172.88,241374.08l-25,0" />
          <path d="M219147.88,241374.08l0,150" />
          <use xlink:href="#$TCHSYS$APDOOR2D" x="365.267" y="401.79" transform="scale(600,600) scale(1,-1) translate(0,-803.58) rotate(-90,365.27,401.79)" stroke-width="0.0002%">.</use>
          <path d="M219147.88,241524.08l0,150" />
          <path d="M219147.88,241674.08l25,0" />
          <path d="M219172.88,241674.08l0,-137.5" />
          <path d="M219172.88,242424.08l0,-150" />
          <path d="M219172.88,242274.08l-25,0" />
          <path d="M219147.88,242274.08l0,150" />
          <path d="M219147.88,242424.08l25,0" />
          <use xlink:href="#$TCHSYS$APDOOR2D" x="365.267" y="403.29" transform="scale(600,600) scale(1,-1) translate(0,-806.58) rotate(-90,365.27,403.29)" stroke-width="0.0002%">.</use>
          <use xlink:href="#$lvtry$00000200" x="219910.38" y="242774.08">.</use>
          <use xlink:href="#$lvtry$00000200" x="219010.38" y="242774.08">.</use>
          <use xlink:href="#$lvtry$00000200" x="218110.38" y="242774.08">.</use>
          <path d="M219472.88,242574.08l0,1187.5" />
          <path d="M219447.88,242574.08l0,1187.5" />
          <path d="M219472.88,242574.08l-25,0" />
          <path d="M220360.38,243761.58l-150,0" />
          <path d="M220210.38,243761.58l0,25" />
          <path d="M220210.38,243786.58l150,0" />
          <path d="M220360.38,243786.58l0,-25" />
          <path d="M219460.38,243786.58l150,0" />
          <path d="M219610.38,243786.58l0,-25" />
          <path d="M219610.38,243761.58l-137.5,0" />
          <use xlink:href="#$TCHSYS$APDOOR2D" x="366.517" y="406.29" transform="scale(600,600) scale(-1,1) translate(-733.03,0) rotate(-180,366.52,406.29)" stroke-width="0.0002%">.</use>
          <path d="M218572.88,242574.08l0,1187.5" />
          <path d="M218547.88,242574.08l0,1187.5" />
          <path d="M218572.88,242574.08l-25,0" />
          <path d="M219447.88,243761.58l-137.5,0" />
          <path d="M219310.38,243761.58l0,25" />
          <path d="M219310.38,243786.58l150,0" />
          <path d="M218560.38,243786.58l150,0" />
          <path d="M218710.38,243786.58l0,-25" />
          <path d="M218710.38,243761.58l-137.5,0" />
          <use xlink:href="#$TCHSYS$APDOOR2D" x="365.017" y="406.29" transform="scale(600,600) scale(-1,1) translate(-730.03,0) rotate(-180,365.02,406.29)" stroke-width="0.0002%">.</use>
          <path d="M217672.88,242574.08l0,1187.5" />
          <path d="M217647.88,242574.08l0,1212.5" />
          <path d="M217672.88,242574.08l-25,0" />
          <path d="M218547.88,243761.58l-137.5,0" />
          <path d="M218410.38,243761.58l0,25" />
          <path d="M218410.38,243786.58l150,0" />
          <path d="M217647.88,243786.58l162.5,0" />
          <path d="M217810.38,243786.58l0,-25" />
          <path d="M217810.38,243761.58l-137.5,0" />
          <use xlink:href="#$TCHSYS$APDOOR2D" x="363.517" y="406.29" transform="scale(600,600) scale(-1,1) translate(-727.03,0) rotate(-180,363.52,406.29)" stroke-width="0.0002%">.</use>
          <use xlink:href="#$lvtry$00000188" x="268400.469" y="299474.173" transform="scale(0.81,0.81)" stroke-width="0.1111%">.</use>
          <use xlink:href="#$DorLib2D$00000228" x="239.873" y="268.693" transform="scale(900,900) scale(-1,-1) translate(-479.75,-537.39) rotate(-90,239.87,268.69)" stroke-width="0.0001%">.<g class="blkclass0"><text transform="rotate(-90 1089.58,445) translate(1089.58,445)" font-size="386.75">M0921</text></g></use>
          <use xlink:href="#$lvtry$00000195" x="216560.63" y="240644.08" transform="rotate(-360,216560.63,240644.08)">.</use>
          <use xlink:href="#$lvtry$00000223" x="217623.38" y="240624.08">.</use>
          <path d="M217185.88,240624.08l0,699.72" />
          <path d="M217160.88,240624.08l0,699.72" />
          <path d="M217185.88,240624.08l-25,0" />
          <path d="M217185.88,241323.8l-25,0" />
          <use xlink:href="#$DorLib2D$00000231" x="143.038" y="170.609" transform="scale(1600,1600) scale(1,-1) translate(0,-341.22) rotate(-270,143.04,170.61)" stroke-width="0.0001%">.<g class="blkclass0"><text transform="rotate(-90 -268.93,555) translate(-268.93,555)" font-size="386.75">LM1630</text></g></use>
          <use xlink:href="#$DorLib2D$00000231" x="143.038" y="169.609" transform="scale(1600,1600) scale(1,-1) translate(0,-339.22) rotate(-270,143.04,169.61)" stroke-width="0.0001%">.<g class="blkclass0"><text transform="rotate(-90 -268.93,555) translate(-268.93,555)" font-size="386.75">LM1630</text></g></use>
          <use xlink:href="#$DorLib2D$00000231" x="143.038" y="168.609" transform="scale(1600,1600) scale(1,-1) translate(0,-337.22) rotate(-270,143.04,168.61)" stroke-width="0.0001%">.<g class="blkclass0"><text transform="rotate(-90 -268.93,555) translate(-268.93,555)" font-size="386.75">LM1630</text></g></use>
          <path d="M212760.38,244074.08l0,-2327.71" />
          <path d="M212760.38,241746.37l-200,0" />
          <path d="M212560.38,241746.37l0,2327.71" />
          <path d="M212560.38,240474.08l0,72.29" />
          <path d="M212560.38,240546.37l200,0" />
          <path d="M212760.38,240546.37l0,-72.29" />
          <path d="M212760.38,240474.08l-200,0" />
          <use xlink:href="#$DorLib2D$00000231" x="148.154" y="162.055" transform="scale(1500,1500)" stroke-width="0.0001%">.<g class="blkclass0"><text transform="translate(-425,-593.75)" font-size="386.75">M1521</text></g></use>
          <use xlink:href="#$WINLIB2D$00000001_1800x300" x="232810.38" y="266374.08" transform="scale(-1,1) translate(-465620.76,0) rotate(-90,232810.38,266374.08)">.<g class="blkclass0"><text transform="rotate(-90 -276.25,435) translate(-276.25,435)" font-size="386.75">C1815</text></g></use>
          <use xlink:href="#$WINLIB2D$00000001_1800x300" x="232810.38" y="262574.08" transform="scale(-1,1) translate(-465620.76,0) rotate(-90,232810.38,262574.08)">.<g class="blkclass0"><text transform="rotate(-90 -276.25,435) translate(-276.25,435)" font-size="386.75">C1815</text></g></use>
          <use xlink:href="#$WINLIB2D$00000001_1800x300" x="232810.38" y="258374.08" transform="scale(-1,1) translate(-465620.76,0) rotate(-90,232810.38,258374.08)">.<g class="blkclass0"><text transform="rotate(-90 -276.25,435) translate(-276.25,435)" font-size="386.75">C1815</text></g></use>
          <use xlink:href="#$WINLIB2D$00000001_1800x300" x="232810.38" y="254574.08" transform="scale(-1,1) translate(-465620.76,0) rotate(-90,232810.38,254574.08)">.<g class="blkclass0"><text transform="rotate(-90 -276.25,435) translate(-276.25,435)" font-size="386.75">C1815</text></g></use>
          <use xlink:href="#$WINLIB2D$00000001_1490o9x300" x="232037.9" y="248118.62" transform="scale(1,-1) translate(0,-496237.24) rotate(-76.32,232037.9,248118.62)">.<g class="blkclass0"><text transform="rotate(-283.68 -660.36,-286.96) translate(-660.36,-286.96)" font-size="386.75">C1515</text></g></use>
          <use xlink:href="#$WINLIB2D$00000001_1313o1x300" x="231258.35" y="244916.16" transform="scale(1,-1) translate(0,-489832.32) rotate(-76.32,231258.35,244916.16)">.<g class="blkclass0"><text transform="rotate(-283.68 -660.36,-286.96) translate(-660.36,-286.96)" font-size="386.75">C1515</text></g></use>
          <use xlink:href="#$DorLib2D$00000228" x="177.217" y="200.955" transform="scale(1200,1200) rotate(-90,177.22,200.96)" stroke-width="0.0001%">.<g class="blkclass0"><text transform="rotate(-90 -710.87,425) translate(-710.87,425)" font-size="386.75">M1221</text></g></use>
          <path d="M209319.88,261578.58l0,-256.86" />
          <path d="M209519.88,261578.58l0,-256.86" />
          <path d="M209319.88,261578.58l200,0" />
          <path d="M209319.88,261321.72l200,0" />
          <path d="M209319.88,264965.58l0,-650" />
          <path d="M209519.88,264965.58l0,-650" />
          <path d="M209319.88,264965.58l200,0" />
          <path d="M209319.88,264315.58l200,0" />
          <path d="M210010.38,237319.08l-4650,0l0,1810l2400,0l300,0" />
          <path d="M210010.38,239129.08l-1350,0l-300,0" />
          <path d="M209860.38,236474.08l-3600,0" />
          <path d="M209860.38,238104.08l0,-1630" />
          <path d="M209560.38,238104.08l0,-1630" />
          <path d="M209260.38,238104.08l0,-1630" />
          <path d="M208960.38,238104.08l0,-1630" />
          <path d="M208660.38,238104.08l0,-1630" />
          <path d="M208360.38,238104.08l0,-1630" />
          <path d="M208060.38,238104.08l0,-1630" />
          <path d="M207760.38,238104.08l0,-1630" />
          <path d="M207460.38,238104.08l0,-1630" />
          <path d="M207160.38,238104.08l0,-1630" />
          <path d="M206860.38,238104.08l0,-1630" />
          <path d="M206560.38,238104.08l0,-1630" />
          <path d="M206260.38,238104.08l0,-1630" />
          <path d="M209860.38,238164.08l-3600,0" />
          <path d="M206260.38,239974.08l2380.13,0" />
          <path d="M208755.98,239974.08l1104.4,0" />
          <path d="M206260.38,238344.08l0,1630" />
          <path d="M206560.38,238344.08l0,1630" />
          <path d="M206860.38,238344.08l0,1630" />
          <path d="M207160.38,238344.08l0,1630" />
          <path d="M207460.38,238344.08l0,1630" />
          <path d="M207760.38,238449.66l0,1524.42" />
          <path d="M208060.38,238344.08l0,425.19" />
          <path d="M208060.38,238969.27l0,1004.81" />
          <path d="M208360.38,238344.08l0,944.81" />
          <path d="M208360.38,239488.89l0,485.19" />
          <path d="M208660.38,238344.08l0,1464.42" />
          <path d="M208960.38,238344.08l0,1630" />
          <path d="M209260.38,238344.08l0,1630" />
          <path d="M209560.38,238344.08l0,1630" />
          <path d="M209860.38,238344.08l0,1630" />
          <path d="M206260.38,238284.08l1404.4,0" />
          <path d="M207780.26,238284.08l2080.13,0" />
          <path d="M207780.26,238284.08l435.21,753.8" />
          <path d="M207664.79,238284.08l450.68,780.6" />
          <path d="M208115.47,239064.68l172.35,-46.18" />
          <path d="M208287.82,239018.49l-172.89,206.04" />
          <path d="M208114.92,239224.54l180.4,-48.34" />
          <path d="M208295.32,239176.2l460.66,797.88" />
          <path d="M208195.32,239203l445.19,771.08" />
          <path d="M209860.38,238284.08l0,-120" />
          <path d="M209860.38,238164.08l-3600,0" />
          <path d="M206260.38,238164.08l0,120" />
          <path d="M206260.38,238284.08l1404.4,0" />
          <path d="M207780.26,238284.08l2080.13,0" />
          <path d="M209920.38,238344.08l0,-240" />
          <path d="M209920.38,238104.08l-3720,0" />
          <path d="M206200.38,238104.08l0,240" />
          <path d="M206200.38,238344.08l1499.05,0" />
          <path d="M207814.9,238344.08l2105.48,0" />
          <path d="M206260.38,236474.08l-1300,0" />
          <path d="M204460.38,236874.08l0,3100" />
          <path d="M204460.38,239974.08l1800,0" />
          <path d="M206260.38,239974.08l0,-1630" />
          <path d="M206260.38,238104.08l0,-1630" />
          <path d="M206260.38,238284.08l0,-120" />
          <path d="M209860.38,238164.08l0,120" />
          <path d="M206260.38,265756.58l1950,0l300,0" />
          <path d="M206260.38,267441.58l5325,0l0,-1685l-2475,0l-300,0" />
          <path d="M206410.38,264974.08l1740.49,0" />
          <path d="M208266.34,264974.08l2344.04,0" />
          <path d="M206410.38,264974.08l0,1505" />
          <path d="M206710.38,264974.08l0,1505" />
          <path d="M207010.38,264974.08l0,1505" />
          <path d="M207310.38,264974.08l0,1505" />
          <path d="M207610.38,264974.08l0,1505" />
          <path d="M207910.38,264974.08l0,1505" />
          <path d="M208210.38,265077.16l0,1401.92" />
          <path d="M208510.38,264974.08l0,422.69" />
          <path d="M208510.38,265596.77l0,882.31" />
          <path d="M208810.38,264974.08l0,942.31" />
          <path d="M208810.38,266116.39l0,362.69" />
          <path d="M209110.38,264974.08l0,1461.92" />
          <path d="M209410.38,264974.08l0,1505" />
          <path d="M209710.38,264974.08l0,1505" />
          <path d="M210010.38,264974.08l0,1505" />
          <path d="M210310.38,264974.08l0,1505" />
          <path d="M210610.38,264974.08l0,1505" />
          <path d="M206410.38,266539.08l2644.04,0" />
          <path d="M209169.9,266539.08l1440.49,0" />
          <path d="M208266.34,264974.08l399.12,691.3" />
          <path d="M208150.87,264974.08l414.59,718.1" />
          <path d="M208565.47,265692.18l172.35,-46.18" />
          <path d="M208737.82,265645.99l-172.89,206.04" />
          <path d="M208564.92,265852.04l180.4,-48.34" />
          <path d="M208745.32,265803.7l424.57,735.38" />
          <path d="M208645.32,265830.5l409.1,708.58" />
          <path d="M210610.38,268224.08l-4200,0" />
          <path d="M210610.38,268224.08l0,-1505" />
          <path d="M210310.38,268224.08l0,-1505" />
          <path d="M210010.38,268224.08l0,-1505" />
          <path d="M209710.38,268224.08l0,-1505" />
          <path d="M209410.38,268224.08l0,-1505" />
          <path d="M209110.38,268224.08l0,-1505" />
          <path d="M208810.38,268224.08l0,-1505" />
          <path d="M208510.38,268224.08l0,-1505" />
          <path d="M208210.38,268224.08l0,-1505" />
          <path d="M207910.38,268224.08l0,-1505" />
          <path d="M207610.38,268224.08l0,-1505" />
          <path d="M207310.38,268224.08l0,-1505" />
          <path d="M207010.38,268224.08l0,-1505" />
          <path d="M206710.38,268224.08l0,-1505" />
          <path d="M206410.38,268224.08l0,-1505" />
          <path d="M210610.38,266659.08l-4200,0" />
          <path d="M206350.38,266719.08l0,-240" />
          <path d="M206350.38,266479.08l2669.4,0" />
          <path d="M209135.25,266479.08l1535.13,0" />
          <path d="M210670.38,266479.08l0,240" />
          <path d="M210670.38,266719.08l-4320,0" />
          <path d="M206410.38,266659.08l0,-120" />
          <path d="M206410.38,266539.08l2644.04,0" />
          <path d="M209169.9,266539.08l1440.49,0" />
          <path d="M210610.38,266539.08l0,120" />
          <path d="M210610.38,266659.08l-4200,0" />
          <path d="M210610.38,268224.08l1650,0" />
          <path d="M212560.38,268074.08l0,-3100" />
          <path d="M212560.38,264974.08l-1950,0" />
          <path d="M210610.38,264974.08l0,1505" />
          <path d="M210610.38,266719.08l0,1505" />
          <path d="M210610.38,266539.08l0,120" />
          <path d="M206410.38,266539.08l0,120" />
        </g>
      </g>
      <g id="assets" fill="none">
        <g id="rm-assets" class="rm-asset">
          <path id="14008;F01;101" d="M220610.38,240574.56l0,-3650.48l0,-50l550,0l0,-500l7300,0l0,500l685.98,0l3514.02,14435.99l0,764.01l-500,0l0,340l-2900,0l0,-340l-800,0l0,340l-7300,0l0,-340l-661.88,0l-18.12,-1500l0,-5700l680,0l0,-800l-550,0z" />
          <path id="14008;F01;103-104" d="M221160.38,268574.08l7300,0l0,-500l800,0l0,500l2900,0l0,-500l500,0l0,-7200l-500,0l0,-340l-2900,0l0,340l-800,0l0,-340l-7300,0l0,340l-680,0l0,7200l680,0z" />
          <path id="14008;F01;102" d="M221160.38,252534.08l7300,0l0,340l800,0l0,-340l2900,0l0,340l500,0l0,7200l-500,0l0,340l-2900,0l0,-340l-800,0l0,340l-7300,0l0,-340l-680,0l0,-7200l680,0z" />
          <path id="14008;F01;105-106" d="M204460.38,250174.08l8480,0l0,1900l-680,0l0,800l680,0l0,5700l0,1500.14l-8479.9,0l-0.1,-7200.14l500,0l0,-800l-500,0z" />
          <path id="14008;F01;107-108" d="M204460.38,240174.08l8100,0l0,3900l-300,0l0,800l300,0l0,249.64l200,0l0,-249.64l180,0l0,5150l-8480,0l0,-5150l500,0l0,-800l-500,0z" />
        </g>
      </g>
    </g>
    <g id="text" font-family="Arial" font-size="626.95035460992915" font-weight="normal" text-style="normal" text-anchor="start" dominant-baseline="alphabetical" fill="#FF0000" xml:space="preserve">
      <g id="layer-name-text">
        <g transform="translate(217336.41,241401.15)">
          <text>男卫生间</text>
        </g>
        <g transform="translate(217312.58,243443.39)">
          <text>女卫生间</text>
        </g>
        <g transform="translate(217336.53,241400.57)">
          <text>男卫生间</text>
        </g>
        <g transform="translate(217312.71,243442.82)">
          <text>女卫生间</text>
        </g>
        <g transform="rotate(-90 211714.81,260206.09) translate(211714.81,260206.09)" font-size="796.25">
          <text>105</text>
        </g>
        <g transform="rotate(-90 211756.2,252097.9) translate(211756.2,252097.9)" font-size="812.175">
          <text>106</text>
        </g>
        <g transform="rotate(-90 211803.09,246582.29) translate(211803.09,246582.29)" font-size="728">
          <text>107</text>
        </g>
        <g transform="rotate(-90 210991.85,241876.24) translate(210991.85,241876.24)" font-size="682.5">
          <text>108</text>
        </g>
        <g transform="rotate(-270 221741.09,251452.19) translate(221741.09,251452.19)" font-size="728">
          <text>101</text>
        </g>
        <g transform="rotate(-270 221722.79,259450.89) translate(221722.79,259450.89)" font-size="728">
          <text>102</text>
        </g>
        <g transform="rotate(-270 222470.09,267410.09) translate(222470.09,267410.09)" font-size="728">
          <text>104</text>
        </g>
        <g transform="rotate(-270 221793.49,261677.59) translate(221793.49,261677.59)" font-size="728">
          <text>103</text>
        </g>
        <g transform="translate(224717.89,264422.92)">
          <text>实验室</text>
        </g>
        <g transform="translate(224684.26,256421.49)">
          <text>实验室</text>
        </g>
        <g transform="translate(224684.39,256420.92)">
          <text>实验室</text>
        </g>
        <g transform="translate(224352.84,239236.64)" font-size="386.75">
          <text>16.76m</text>
        </g>
        <g transform="translate(225512.84,239061.64)" font-size="193.375">
          <text>2</text>
        </g>
        <g transform="translate(224923,248186.57)">
          <text>实验室</text>
        </g>
        <g transform="translate(207915.73,255849.14)">
          <text>实验室</text>
        </g>
        <g transform="translate(207827.83,245798.67)">
          <text>实验室</text>
        </g>
        <g transform="translate(214016.6,237880.42)">
          <text>前室</text>
        </g>
        <g transform="translate(224744.57,271650.14)">
          <text>门厅</text>
        </g>
        <g transform="translate(224352.71,239237.21)" font-size="386.75">
          <text>16.76m</text>
        </g>
        <g transform="translate(225512.71,239062.21)" font-size="193.375">
          <text>2</text>
        </g>
        <g transform="translate(224922.88,248187.15)">
          <text>实验室</text>
        </g>
        <g transform="translate(207915.6,255849.71)">
          <text>实验室</text>
        </g>
        <g transform="translate(207827.71,245799.25)">
          <text>实验室</text>
        </g>
        <g transform="translate(214016.48,237881)">
          <text>前室</text>
        </g>
        <g transform="translate(224744.44,271650.71)">
          <text>门厅</text>
        </g>
      </g>
      <g id="layer-bady-text" font-size="438.865" fill="#ff7f00" stroke="#ff7f00" stroke-width="0.02">
        <g transform="translate(213751.02,239071.94)" font-size="386.75">
          <text>FM1521</text>
        </g>
        <g transform="translate(214891.02,239071.94)">
          <text>乙</text>
        </g>
        <g transform="rotate(-90 212510.38,238583.44) translate(212510.38,238583.44)" font-size="386.75">
          <text>FM1521</text>
        </g>
        <g transform="rotate(-90 212510.38,237443.44) translate(212510.38,237443.44)">
          <text>乙</text>
        </g>
        <g transform="rotate(-90 211267.06,237913.44) translate(211267.06,237913.44)" font-size="386.75">
          <text>FM1521</text>
        </g>
        <g transform="rotate(-90 211267.06,236773.44) translate(211267.06,236773.44)">
          <text>乙</text>
        </g>
        <g transform="translate(204751.02,265369.34)" font-size="386.75">
          <text>FM1521</text>
        </g>
        <g transform="translate(205891.02,265369.34)">
          <text>乙</text>
        </g>
        <g transform="translate(224396.44,238685.31)" font-size="626.95">
          <text>实验室</text>
        </g>
        <g transform="translate(209465.49,260840.72)" font-size="626.95">
          <text>电井</text>
        </g>
        <g transform="translate(209595.95,259342.4)" font-size="386.75">
          <text>FM1521</text>
        </g>
        <g transform="translate(210735.95,259342.4)">
          <text>乙</text>
        </g>
        <g transform="translate(210115.38,237494.08)" fill="#000000" stroke="#000000" stroke-width="0.02">
          <text>上</text>
        </g>
        <g transform="translate(210115.38,239304.08)" fill="#000000" stroke="#000000" stroke-width="0.02">
          <text>下</text>
        </g>
        <g transform="translate(205946.87,265931.58)" fill="#000000" stroke="#000000" stroke-width="0.02">
          <text>上</text>
        </g>
        <g transform="translate(205965.49,267616.58)" fill="#000000" stroke="#000000" stroke-width="0.02">
          <text>下</text>
        </g>
      </g>
    </g>
    <g id="asset-labels" font-family="Arial" font-weight="bold" font-size="38.1em" text-anchor="middle">
      <g id="rm-labels">
        <g id="l-rm-14008;F01;101" transform="translate(226570.38,244394.08)">
          <text>101</text>
        </g>
        <g id="l-rm-14008;F01;103-104" transform="translate(226570.38,264554.08)">
          <text>103-104</text>
        </g>
        <g id="l-rm-14008;F01;102" transform="translate(226570.38,256474.08)">
          <text>102</text>
        </g>
        <g id="l-rm-14008;F01;105-106" transform="translate(208700.38,255124.15)">
          <text>105-106</text>
        </g>
        <g id="l-rm-14008;F01;107-108" transform="translate(208700.38,245099.08)">
          <text>107-108</text>
        </g>
      </g>
    </g>
  </g>
</svg>