<svg version="1.1" xmlns="http://www.w3.org/2000/svg" xmlns:xlink="http://www.w3.org/1999/xlink" viewBox="189790.14 10485.23 104172 29790">
  <style>.i0 { stroke:#000000;   } .body { stroke:#ff7f00; stroke-width:0.17145%;  } .rm { stroke:#00ffff;   } .pub_wall { stroke:#c0c0c0;   } .rm-asset { stroke:#0000ff;   fill:#EEEEEE; fill-opacity:1;} .rmtc-asset { stroke:#0000ff;   } .rmtc { stroke:#00ffff;   } .rm-assettxt { stroke:#0000ff;   } .rmtc-assettxt { stroke:#0000ff;   } .cnc-0 { stroke:#ff7f00;  stroke-dasharray:0; fill:#cccccc; fill-opacity:1;} .cnc-1 { stroke:#ff7f00;  stroke-dasharray:0; } .blkclass0 { stroke:#ff7f00;  stroke-width:0.02;  fill:#ff7f00; fill-opacity:1; font-family:Arial; font-size:386.75; font-weight:normal; text-style:normal; text-anchor:start;} .blkclass1 { stroke:#ff7f00;  stroke-width:0.02;  fill:#ff7f00; fill-opacity:1; font-family:Arial; font-size:348.075; font-weight:normal; text-style:normal; text-anchor:start;} .blkclass2 { stroke:#ff7f00;  stroke-width:0.02;  fill:#ff7f00; fill-opacity:1; font-family:Arial; font-size:309.4; font-weight:normal; text-style:normal; text-anchor:start;} .blkclass3 { stroke:#ff7f00;  stroke-width:0.02;  fill:#ff7f00; fill-opacity:1; font-family:Arial; font-size:261.056; font-weight:normal; text-style:normal; text-anchor:start;}</style>
  <view id="defaultView" viewBox="189790.14 10485.23 104172 29790" />
  <defs>
    <symbol id="$DorLib2D$00000001" overflow="visible" class="i0">
      <path d="M0.45,-0.98l0.05,0" />
      <path d="M0.5,0l-0.05,0" />
      <path d="M-0.5,0a0.98,0.98 0 0,1 0.95,-0.97" />
      <path d="M0.5,0l0,-0.98" />
      <path d="M0.45,0l0,-0.98" />
    </symbol>
    <symbol id="$TCHSYS$WIN2D_1800x500" overflow="visible" class="i0">
      <path d="M-900,-250l1800,0" />
      <path d="M-900,250l1800,0" />
      <path d="M900,83.33l-1800,0" />
      <path d="M900,-83.33l-1800,0" />
      <path d="M-900,-250l0,500" />
      <path d="M900,-250l0,500" />
    </symbol>
    <symbol id="$TCHSYS$WIN2D_2000x500" overflow="visible" class="i0">
      <path d="M-1000,-250l2000,0" />
      <path d="M-1000,250l2000,0" />
      <path d="M1000,83.33l-2000,0" />
      <path d="M1000,-83.33l-2000,0" />
      <path d="M-1000,-250l0,500" />
      <path d="M1000,-250l0,500" />
    </symbol>
    <symbol id="$DorLib2D$00000002" overflow="visible" class="i0">
      <path d="M-0.5,0l0,-0.49" />
      <path d="M-0.48,0l0,-0.49" />
      <path d="M-0.5,0l0.02,0" />
      <path d="M-0.48,-0.49l-0.02,0" />
      <path d="M-0.48,-0.49a0.49,0.49 0 0,1 0.48,0.49" />
      <path d="M0,0a0.49,0.49 0 0,1 0.48,-0.49" />
      <path d="M0.48,0l0,-0.49" />
      <path d="M0.5,0l0,-0.49" />
      <path d="M0.48,-0.49l0.02,0" />
      <path d="M0.5,0l-0.02,0" />
    </symbol>
  </defs>
  <g id="viewer">
    <g id="mirror" transform="scale(1, 1)" stroke-width="0.09%">
      <g id="background" fill="none">
        <g id="layer-body-fills" class="cnc-0">
          <path d="M229791.61,34587.13l0,3840l-380,0l0,-3840l380,0z" />
          <path d="M229791.61,33587.13l-380,0l0,-1000l380,0l0,1000z" />
          <path d="M274955.52,26797.13l0,120l4350,0l0,-120l-4350,0z" />
          <path d="M274055.52,26797.13l-750,0l0,120l750,0l0,-120z" />
          <path d="M274955.52,26897.13l70,0l10,-10l0,-60l-10,-10l-70,0z" />
          <path d="M279305.52,26897.13l-70,0l-10,-10l0,-60l10,-10l70,0z" />
          <path d="M273305.52,26897.13l70,0l10,-10l0,-60l-10,-10l-70,0z" />
          <path d="M274055.52,26897.13l-70,0l-10,-10l0,-60l10,-10l70,0z" />
          <path d="M199635.04,22547.13l370.49,0l0,380l-370.49,0z" />
          <path d="M244925.52,29447.13l500,0l0,380l-500,0z" />
          <path d="M275825.52,26897.13l60,0l10,-10l0,-60l-10,-10l-60,0l-10,10l0,60z" />
          <path d="M276725.52,26897.13l60,0l10,-10l0,-60l-10,-10l-60,0l-10,10l0,60z" />
          <path d="M277625.52,26897.13l60,0l10,-10l0,-60l-10,-10l-60,0l-10,10l0,60z" />
          <path d="M278525.52,26897.13l60,0l10,-10l0,-60l-10,-10l-60,0l-10,10l0,60z" />
          <path d="M211655.52,23547.13l150,0l0,1000l-150,0z" />
          <path d="M207805.52,29827.13l-380,0l0,260l380,0z" />
          <path d="M207805.52,31947.13l-380,0l0,260l380,0z" />
          <path d="M222605.52,29827.13l-380,0l0,260l380,0z" />
          <path d="M222605.52,31947.13l-380,0l0,260l380,0z" />
          <path d="M229805.52,29827.13l-380,0l0,260l380,0z" />
          <path d="M229805.52,31947.13l-380,0l0,260l380,0z" />
          <path d="M247805.52,29827.13l-380,0l0,260l380,0z" />
          <path d="M247805.52,31947.13l-380,0l0,260l380,0z" />
          <path d="M262205.52,29827.13l-380,0l0,260l380,0z" />
          <path d="M262205.52,31947.13l-380,0l0,260l380,0z" />
          <path d="M200505.52,29827.13l-380,0l0,260l380,0z" />
          <path d="M200125.52,31947.13l380,0l0,260l-380,0z" />
          <path d="M206039.96,29447.13l0,380l600,0l0,-380z" />
        </g>
        <g id="layer-RM-fills" class="rm">
          <path d="M197805.52,15847.13l0,6700l2200,0l0,-6700z" />
          <path d="M222605.52,23547.13l0,5900l6820,0l0,-5900z" />
          <path d="M262795.52,23547.13l0,5900l3030,0l0,-5900z" />
          <path d="M266205.52,23547.13l0,5900l4120,0l0,-5900z" />
          <path d="M273305.52,23547.13l0,3250l6000,0l0,-3250z" />
          <path d="M237005.52,32587.13l0,5840l3220,0l0,-5840z" />
          <path d="M229791.61,32587.13l0,5840l3233.91,0l0,-5840z" />
        </g>
        <g id="layer-body" class="cnc-1">
          <path d="M197805.52,22547.13l0,-370" />
          <path d="M197805.52,21177.13l0,-5330" />
          <path d="M197425.52,22547.13l0,-370" />
          <path d="M197425.52,21177.13l0,-5330" />
          <path d="M240605.52,36037.13l-380,0" />
          <path d="M240605.52,35037.13l-380,0" />
          <path d="M279805.52,11047.13l-4240,0" />
          <path d="M275565.52,11047.13l0,500" />
          <path d="M275565.52,11547.13l3740,0" />
          <path d="M267925.52,11547.13l2940,0" />
          <path d="M270865.52,11547.13l0,-500" />
          <path d="M270865.52,11047.13l-3440,0" />
          <path d="M273765.52,11047.13l-1100,0" />
          <path d="M272665.52,11047.13l0,500" />
          <path d="M272665.52,11547.13l1100,0" />
          <path d="M273765.52,11547.13l0,-500" />
          <path d="M267925.52,11547.13l0,2550" />
          <path d="M267425.52,11047.13l0,3125" />
          <path d="M200505.52,15347.13l-805,0" />
          <path d="M199700.52,15347.13l0,500" />
          <path d="M199700.52,15847.13l305,0" />
          <path d="M190725.52,15847.13l2475,0" />
          <path d="M193200.52,15847.13l0,-500" />
          <path d="M193200.52,15347.13l-2975,0" />
          <path d="M198200.52,15347.13l-3200,0" />
          <path d="M195000.52,15347.13l0,500" />
          <path d="M195000.52,15847.13l2425,0" />
          <path d="M197805.52,15847.13l395,0" />
          <path d="M198200.52,15847.13l0,-500" />
          <path d="M262795.52,23547.13l0,5900" />
          <path d="M262485.52,23047.13l0,6780" />
          <path d="M279305.52,23547.13l-6000,0" />
          <path d="M279305.52,23047.13l-6165,0" />
          <path d="M261635.52,38427.13l0,-5840" />
          <path d="M262325.52,38927.13l0,-6720" />
          <path d="M207235.52,39227.13l0,-6640" />
          <path d="M208085.52,38927.13l0,-6720" />
          <path d="M279305.52,32207.13l-3000,0" />
          <path d="M276305.52,32207.13l0,380" />
          <path d="M276305.52,32587.13l3000,0" />
          <path d="M262795.52,32587.13l2930,0" />
          <path d="M265725.52,32587.13l0,-380" />
          <path d="M265725.52,32207.13l-3240,0" />
          <path d="M275305.52,32207.13l-5618.97,0" />
          <path d="M269686.55,32207.13l0,380" />
          <path d="M269686.55,32587.13l5618.97,0" />
          <path d="M275305.52,32587.13l0,-380" />
          <path d="M268186.55,32207.13l-1461.03,0" />
          <path d="M266725.52,32207.13l0,380" />
          <path d="M266725.52,32587.13l1461.03,0" />
          <path d="M268186.55,32587.13l0,-380" />
          <path d="M262325.52,32207.13l-1520,0" />
          <path d="M260805.52,32207.13l0,380" />
          <path d="M260805.52,32587.13l830,0" />
          <path d="M247805.52,32587.13l4800,0" />
          <path d="M252605.52,32587.13l0,-380" />
          <path d="M252605.52,32207.13l-4990,0" />
          <path d="M259805.52,32207.13l-2600,0" />
          <path d="M257205.52,32587.13l2600,0" />
          <path d="M259805.52,32587.13l0,-380" />
          <path d="M256205.52,32207.13l-2100,0" />
          <path d="M254105.52,32207.13l0,380" />
          <path d="M254105.52,32587.13l3100,0" />
          <path d="M257205.52,32207.13l-1000,0" />
          <path d="M206735.52,32207.13l0,380" />
          <path d="M206735.52,32587.13l500,0" />
          <path d="M198940.52,32587.13l6295,0" />
          <path d="M205235.52,32587.13l0,-380" />
          <path d="M205235.52,32207.13l-4850,0" />
          <use xlink:href="#$DorLib2D$00000001" x="296.506" y="32.93" transform="scale(900,900) scale(1,-1) translate(0,-65.86) rotate(-180,296.51,32.93)" stroke-width="0.0001%">.</use>
          <path d="M279805.52,39727.13l0,-4570" />
          <path d="M279805.52,35157.13l-500,0" />
          <path d="M279305.52,33157.13l0,6070" />
          <path d="M279305.52,32587.13l0,570" />
          <path d="M279305.52,33157.13l500,0" />
          <path d="M279805.52,33157.13l0,-760" />
          <path d="M207235.52,29447.13l0,-5900" />
          <path d="M207925.52,29827.13l0,-6780" />
          <path d="M261635.52,29827.13l0,-6280" />
          <path d="M262325.52,29827.13l0,-6780" />
          <path d="M261635.52,29827.13l690,0" />
          <path d="M208395.52,23547.13l0,6280" />
          <path d="M208085.52,23047.13l-4.98,6780" />
          <path d="M208395.52,29827.13l-310,0" />
          <path d="M208235.52,29827.13l-310,0" />
          <path d="M262325.52,23047.13l-1110,0" />
          <path d="M261215.52,23047.13l0,500" />
          <path d="M261215.52,23547.13l420,0" />
          <path d="M258605.52,23547.13l610,0" />
          <path d="M259215.52,23547.13l0,-500" />
          <path d="M259215.52,23047.13l-800,0" />
          <path d="M207925.52,23047.13l-1110,0" />
          <path d="M206815.52,23047.13l0,500" />
          <path d="M206815.52,23547.13l420,0" />
          <path d="M203415.52,23547.13l1400,0" />
          <path d="M204815.52,23547.13l0,-500" />
          <path d="M204815.52,23047.13l-1590,0" />
          <path d="M190725.52,15847.13l0,3380" />
          <path d="M190225.52,15347.13l0,4380" />
          <path d="M247615.52,38927.13l800,0" />
          <path d="M248415.52,38927.13l0,-500" />
          <path d="M261635.52,38427.13l-13830,0" />
          <path d="M261635.52,38427.13l-420,0" />
          <path d="M261215.52,38427.13l0,500" />
          <path d="M261215.52,38927.13l1110,0" />
          <path d="M250415.52,38927.13l1600,0" />
          <path d="M252015.52,38927.13l0,-500" />
          <path d="M252015.52,38427.13l-1600,0" />
          <path d="M250415.52,38427.13l0,500" />
          <path d="M254015.52,38927.13l1600,0" />
          <path d="M255615.52,38927.13l0,-500" />
          <path d="M255615.52,38427.13l-1600,0" />
          <path d="M254015.52,38427.13l0,500" />
          <path d="M257615.52,38927.13l1600,0" />
          <path d="M259215.52,38927.13l0,-500" />
          <path d="M259215.52,38427.13l-1600,0" />
          <path d="M257615.52,38427.13l0,500" />
          <path d="M258225.52,29447.13l-1020,0" />
          <path d="M257205.52,29447.13l0,380" />
          <path d="M257205.52,29827.13l1400,0" />
          <path d="M247615.52,29827.13l4990,0" />
          <path d="M252605.52,29827.13l0,-380" />
          <path d="M252605.52,29447.13l-4800,0" />
          <path d="M256205.52,29447.13l-2600,0" />
          <path d="M253605.52,29447.13l0,380" />
          <path d="M253605.52,29827.13l2600,0" />
          <path d="M256205.52,29827.13l0,-380" />
          <path d="M258415.52,23047.13l-800,0" />
          <path d="M257615.52,23047.13l0,500" />
          <path d="M257615.52,23547.13l610,0" />
          <path d="M247805.52,23547.13l610,0" />
          <path d="M248415.52,23547.13l0,-500" />
          <path d="M248415.52,23047.13l-800,0" />
          <path d="M255615.52,23047.13l-1600,0" />
          <path d="M254015.52,23047.13l0,500" />
          <path d="M254015.52,23547.13l1600,0" />
          <path d="M255615.52,23547.13l0,-500" />
          <path d="M252015.52,23047.13l-1600,0" />
          <path d="M250415.52,23047.13l0,500" />
          <path d="M250415.52,23547.13l1600,0" />
          <path d="M252015.52,23547.13l0,-500" />
          <path d="M258225.52,29447.13l0,-5900" />
          <path d="M258605.52,29827.13l0,-6280" />
          <path d="M262485.52,39727.13l2280,0" />
          <path d="M264765.52,39727.13l0,-500" />
          <path d="M264765.52,39227.13l-1970,0" />
          <path d="M279305.52,39227.13l-4040,0" />
          <path d="M277265.52,39227.13l0,500" />
          <path d="M277265.52,39727.13l2540,0" />
          <path d="M266765.52,39727.13l1500,0" />
          <path d="M268265.52,39727.13l0,-500" />
          <path d="M268265.52,39227.13l-1500,0" />
          <path d="M266765.52,39227.13l0,500" />
          <path d="M270265.52,39727.13l1500,0" />
          <path d="M271765.52,39727.13l0,-500" />
          <path d="M271765.52,39227.13l-3500,0" />
          <path d="M270265.52,39227.13l0,500" />
          <path d="M273765.52,39727.13l1500,0" />
          <path d="M275265.52,39727.13l0,-500" />
          <path d="M275265.52,39227.13l-3500,0" />
          <path d="M273765.52,39227.13l0,500" />
          <path d="M267290.52,39227.13l0,-6640" />
          <path d="M267540.52,39227.13l0,-6640" />
          <path d="M267290.52,39227.13l250,0" />
          <path d="M267290.52,32587.13l250,0" />
          <path d="M240415.52,38927.13l800,0" />
          <path d="M241215.52,38927.13l0,-500" />
          <path d="M241215.52,38427.13l-610,0" />
          <path d="M247425.52,38427.13l-610,0" />
          <path d="M246815.52,38427.13l0,500" />
          <path d="M246815.52,38927.13l800,0" />
          <path d="M243215.52,38927.13l1600,0" />
          <path d="M244815.52,38927.13l0,-500" />
          <path d="M244815.52,38427.13l-1600,0" />
          <path d="M243215.52,38427.13l0,500" />
          <path d="M247425.52,38427.13l0,-5840" />
          <path d="M247805.52,38427.13l0,-5840" />
          <path d="M240415.52,32207.13l-1390,0" />
          <path d="M239025.52,32207.13l0,380" />
          <path d="M239025.52,32587.13l1200,0" />
          <path d="M237005.52,32587.13l1020,0" />
          <path d="M238025.52,32587.13l0,-380" />
          <path d="M238025.52,32207.13l-1210,0" />
          <path d="M240225.52,38427.13l0,-2390" />
          <path d="M240225.52,35037.13l0,-2450" />
          <path d="M240605.52,38427.13l0,-2390" />
          <path d="M240605.52,35037.13l0,-2450" />
          <path d="M236815.52,38927.13l800,0" />
          <path d="M237615.52,38927.13l0,-500" />
          <path d="M237615.52,38427.13l-610,0" />
          <path d="M240225.52,38427.13l-610,0" />
          <path d="M239615.52,38427.13l0,500" />
          <path d="M239615.52,38927.13l800,0" />
          <path d="M236625.52,38427.13l0,-5840" />
          <path d="M237005.52,38427.13l0,-5840" />
          <path d="M233025.52,38427.13l0,-5840" />
          <path d="M233405.52,38427.13l0,-5840" />
          <path d="M233405.52,38427.13l3220,0" />
          <path d="M233215.52,38927.13l3600,0" />
          <path d="M233215.52,32207.13l-8610,0" />
          <path d="M224605.52,32207.13l0,380" />
          <path d="M224605.52,32587.13l8420,0" />
          <path d="M222715.52,32587.13l390,0" />
          <path d="M223105.52,32587.13l0,-380" />
          <path d="M223105.52,32207.13l-690,0" />
          <path d="M222115.52,38427.13l0,-5840" />
          <path d="M222715.52,38427.13l0,-5840" />
          <path d="M208085.52,38927.13l730,0" />
          <path d="M208815.52,38927.13l0,-500" />
          <path d="M208815.52,38427.13l-420,0" />
          <path d="M222115.52,38427.13l-500,0" />
          <path d="M221615.52,38427.13l0,500" />
          <path d="M221615.52,38927.13l800,0" />
          <path d="M210815.52,38927.13l1600,0" />
          <path d="M212415.52,38927.13l0,-500" />
          <path d="M212415.52,38427.13l-1600,0" />
          <path d="M210815.52,38427.13l0,500" />
          <path d="M214415.52,38927.13l1600,0" />
          <path d="M216015.52,38927.13l0,-500" />
          <path d="M216015.52,38427.13l-1600,0" />
          <path d="M214415.52,38427.13l0,500" />
          <path d="M218015.52,38927.13l1600,0" />
          <path d="M219615.52,38927.13l0,-500" />
          <path d="M219615.52,38427.13l-1600,0" />
          <path d="M218015.52,38427.13l0,500" />
          <path d="M247425.52,29447.13l-500,0" />
          <path d="M246925.52,29447.13l0,380" />
          <path d="M246925.52,29827.13l690,0" />
          <path d="M229615.52,29827.13l690,0" />
          <path d="M230305.52,29827.13l0,-380" />
          <path d="M230305.52,29447.13l-500,0" />
          <path d="M245425.52,29447.13l-13620,0" />
          <path d="M231805.52,29447.13l0,380" />
          <path d="M231805.52,29827.13l13620,0" />
          <path d="M245425.52,29827.13l0,-380" />
          <path d="M244925.52,29827.13l0,-380" />
          <path d="M247615.52,23047.13l-800,0" />
          <path d="M246815.52,23047.13l0,500" />
          <path d="M246815.52,23547.13l610,0" />
          <path d="M229805.52,23547.13l610,0" />
          <path d="M230415.52,23547.13l0,-500" />
          <path d="M230415.52,23047.13l-800,0" />
          <path d="M244815.52,23047.13l-1600,0" />
          <path d="M243215.52,23047.13l0,500" />
          <path d="M243215.52,23547.13l1600,0" />
          <path d="M244815.52,23547.13l0,-500" />
          <path d="M241215.52,23047.13l-1600,0" />
          <path d="M239615.52,23047.13l0,500" />
          <path d="M239615.52,23547.13l1600,0" />
          <path d="M241215.52,23547.13l0,-500" />
          <path d="M237615.52,23047.13l-1600,0" />
          <path d="M236015.52,23047.13l0,500" />
          <path d="M236015.52,23547.13l1600,0" />
          <path d="M237615.52,23547.13l0,-500" />
          <path d="M234015.52,23047.13l-1600,0" />
          <path d="M232415.52,23047.13l0,500" />
          <path d="M232415.52,23547.13l1600,0" />
          <path d="M234015.52,23547.13l0,-500" />
          <path d="M247425.52,29447.13l0,-5900" />
          <path d="M247805.52,29447.13l0,-5900" />
          <path d="M222605.52,29447.13l0,-4500" />
          <path d="M222605.52,24947.13l-380,0" />
          <path d="M222225.52,24947.13l0,4500" />
          <path d="M222225.52,23547.13l0,500" />
          <path d="M222225.52,24047.13l380,0" />
          <path d="M222605.52,24047.13l0,-500" />
          <path d="M266015.52,23047.13l-800,0" />
          <path d="M265215.52,23047.13l0,500" />
          <path d="M265215.52,23547.13l610,0" />
          <path d="M262795.52,23547.13l420,0" />
          <path d="M263215.52,23547.13l0,-500" />
          <path d="M263215.52,23047.13l-730,0" />
          <path d="M265825.52,29447.13l-1160,0" />
          <path d="M264665.52,29447.13l0,380" />
          <path d="M264665.52,29827.13l1350,0" />
          <path d="M262485.52,29827.13l1280,0" />
          <path d="M263765.52,29827.13l0,-380" />
          <path d="M263765.52,29447.13l-970,0" />
          <use xlink:href="#$DorLib2D$00000001" x="293.573" y="32.93" transform="scale(900,900) scale(-1,-1) translate(-587.15,-65.86) rotate(-180,293.57,32.93)" stroke-width="0.0001%">.</use>
          <path d="M265825.52,29447.13l0,-5900" />
          <path d="M266205.52,29447.13l0,-5900" />
          <path d="M270705.52,23547.13l0,6280" />
          <path d="M270325.52,23547.13l0,5900" />
          <path d="M279805.52,23237.13l0,-560" />
          <path d="M279805.52,22677.13l-500,0" />
          <path d="M279305.52,22677.13l0,370" />
          <path d="M279305.52,20237.36l0,439.76" />
          <path d="M279305.52,20677.13l500,0" />
          <path d="M279805.52,20677.13l0,-364.76" />
          <path d="M211615.52,23047.13l-800,0" />
          <path d="M210815.52,23047.13l0,500" />
          <path d="M210815.52,23547.13l610,0" />
          <path d="M208395.52,23547.13l420,0" />
          <path d="M208815.52,23547.13l0,-500" />
          <path d="M208815.52,23047.13l-730,0" />
          <path d="M200005.52,23547.13l0,-620" />
          <path d="M200505.52,23047.13l0,-310" />
          <path d="M191025.52,19727.13l0,370" />
          <path d="M191025.52,20097.13l500,0" />
          <path d="M191525.52,20097.13l0,-870" />
          <path d="M191525.52,22547.13l0,-450" />
          <path d="M191525.52,22097.13l-500,0" />
          <path d="M191025.52,22097.13l0,640" />
          <path d="M200005.52,22547.13l-370.49,0" />
          <path d="M199635.04,22547.13l0,380" />
          <path d="M199635.04,22927.13l370.49,0" />
          <path d="M191525.52,22927.13l6909.51,0" />
          <path d="M198435.04,22927.13l0,-380" />
          <path d="M198435.04,22547.13l-629.51,0" />
          <path d="M197425.52,22547.13l-5900,0" />
          <path d="M197805.52,22177.13l-380,0" />
          <path d="M197805.52,21177.13l-380,0" />
          <path d="M211425.52,29827.13l0,-6280" />
          <path d="M211805.52,29447.13l0,-5900" />
          <path d="M279805.52,32397.13l0,-360" />
          <path d="M279805.52,32037.13l-500,0" />
          <path d="M279305.52,32037.13l0,170" />
          <path d="M279305.52,29827.13l0,210" />
          <path d="M279305.52,30037.13l500,0" />
          <path d="M279805.52,30037.13l0,-400" />
          <path d="M262795.52,32587.13l0,6640" />
          <path d="M262485.52,32207.13l0,7520" />
          <path d="M208395.52,32587.13l0,5840" />
          <path d="M222415.52,32207.13l-8610,0" />
          <path d="M213805.52,32207.13l0,380" />
          <path d="M213805.52,32587.13l8310,0" />
          <path d="M208395.52,32587.13l3910,0" />
          <path d="M212305.52,32587.13l0,-380" />
          <path d="M212305.52,32207.13l-4220,0" />
          <path d="M247615.52,32207.13l-4740,0" />
          <path d="M242875.52,32207.13l0,380" />
          <path d="M242875.52,32587.13l4550,0" />
          <path d="M240605.52,32587.13l770,0" />
          <path d="M241375.52,32587.13l0,-380" />
          <path d="M241375.52,32207.13l-960,0" />
          <path d="M273305.52,23547.13l0,5900" />
          <path d="M272925.52,23547.13l0,6280" />
          <path d="M273140.52,23047.13l-475,0" />
          <path d="M272665.52,23047.13l0,500" />
          <path d="M272665.52,23547.13l260,0" />
          <path d="M270705.52,23547.13l460,0" />
          <path d="M271165.52,23547.13l0,-500" />
          <path d="M271165.52,23047.13l-610,0" />
          <path d="M279805.52,29637.13l0,-720" />
          <path d="M279805.52,28917.13l-500,0" />
          <path d="M279305.52,28917.13l0,530" />
          <path d="M279305.52,23547.13l0,250" />
          <path d="M279305.52,23797.13l500,0" />
          <path d="M279805.52,23797.13l0,-560" />
          <path d="M279805.52,26917.13l0,-1120" />
          <path d="M279805.52,25797.13l-500,0" />
          <path d="M279305.52,25797.13l0,1120" />
          <path d="M279305.52,26917.13l500,0" />
          <path d="M267425.52,23047.13l-1410,0" />
          <path d="M270325.52,23547.13l-4120,0" />
          <path d="M270515.52,23047.13l-2590,0" />
          <path d="M229425.52,29447.13l0,-5900" />
          <path d="M229805.52,29447.13l0,-5900" />
          <path d="M229425.52,29447.13l-5670,0" />
          <path d="M223755.52,29447.13l0,380" />
          <path d="M223755.52,29827.13l5860,0" />
          <path d="M222415.52,29827.13l340,0" />
          <path d="M222755.52,29827.13l0,-380" />
          <path d="M222755.52,29447.13l-150,0" />
          <path d="M229615.52,23047.13l-800,0" />
          <path d="M228815.52,23047.13l0,500" />
          <path d="M228815.52,23547.13l610,0" />
          <path d="M222605.52,23547.13l610,0" />
          <path d="M223215.52,23547.13l0,-500" />
          <path d="M223215.52,23047.13l-800,0" />
          <path d="M226815.52,23047.13l-1600,0" />
          <path d="M225215.52,23047.13l0,500" />
          <path d="M225215.52,23547.13l1600,0" />
          <path d="M226815.52,23547.13l0,-500" />
          <path d="M222225.52,29447.13l-1160,0" />
          <path d="M221065.52,29447.13l0,380" />
          <path d="M221065.52,29827.13l1350,0" />
          <path d="M211425.52,29827.13l1430,0" />
          <path d="M212855.52,29827.13l0,-380" />
          <path d="M212855.52,29447.13l-1050,0" />
          <path d="M220065.52,29447.13l-6210,0" />
          <path d="M213855.52,29447.13l0,380" />
          <path d="M213855.52,29827.13l6210,0" />
          <path d="M220065.52,29827.13l0,-380" />
          <path d="M222415.52,23047.13l-800,0" />
          <path d="M221615.52,23047.13l0,500" />
          <path d="M221615.52,23547.13l610,0" />
          <path d="M211805.52,23547.13l610,0" />
          <path d="M212415.52,23547.13l0,-500" />
          <path d="M212415.52,23047.13l-800,0" />
          <path d="M219615.52,23047.13l-1600,0" />
          <path d="M218015.52,23047.13l0,500" />
          <path d="M218015.52,23547.13l1600,0" />
          <path d="M219615.52,23547.13l0,-500" />
          <path d="M216015.52,23047.13l-1600,0" />
          <path d="M214415.52,23047.13l0,500" />
          <path d="M214415.52,23547.13l1600,0" />
          <path d="M216015.52,23547.13l0,-500" />
          <path d="M218905.52,23547.13l-180,0" />
          <path d="M222225.52,26407.13l0,180" />
          <path d="M218905.52,29447.13l-180,0" />
          <path d="M200005.52,23547.13l0,6280" />
          <path d="M200385.52,23547.13l-380,0" />
          <use xlink:href="#$DorLib2D$00000001" x="227.073" y="32.93" transform="scale(900,900) scale(-1,1) translate(-454.15,0) rotate(0,227.07,32.93)" stroke-width="0.0001%">.</use>
          <path d="M200005.52,29827.13l1630,0" />
          <path d="M201635.52,29827.13l0,-380" />
          <path d="M201635.52,29447.13l-1250,0" />
          <path d="M203035.52,29447.13l-500,0" />
          <path d="M202535.52,29447.13l0,380" />
          <path d="M202535.52,29827.13l690,0" />
          <use xlink:href="#$DorLib2D$00000001" x="224.539" y="32.93" transform="scale(900,900)" stroke-width="0.0001%">.</use>
          <path d="M203415.52,23547.13l0,5900" />
          <path d="M203035.52,23547.13l0,5900" />
          <path d="M203225.52,29827.13l690,0" />
          <path d="M203915.52,29827.13l0,-380" />
          <path d="M203915.52,29447.13l-500,0" />
          <path d="M207235.52,29447.13l-2420,0" />
          <path d="M204815.52,29447.13l0,380" />
          <path d="M204815.52,29827.13l3110,0" />
          <path d="M203225.52,23047.13l-410,0" />
          <path d="M202815.52,23047.13l0,500" />
          <path d="M202815.52,23547.13l220,0" />
          <path d="M200005.52,23547.13l810,0" />
          <path d="M200815.52,23547.13l0,-500" />
          <path d="M200815.52,23047.13l-310,0" />
          <path d="M191525.52,35787.13l-800,0" />
          <path d="M191025.52,35407.13l-800,0" />
          <path d="M191025.52,22737.13l0,560" />
          <path d="M191025.52,23297.13l500,0" />
          <path d="M191525.52,23297.13l0,-370" />
          <path d="M191525.52,32207.13l0,-510" />
          <path d="M191525.52,31697.13l-500,0" />
          <path d="M191025.52,31697.13l0,700" />
          <path d="M191025.52,25297.13l0,1200" />
          <path d="M191025.52,26497.13l500,0" />
          <path d="M191525.52,26497.13l0,-1200" />
          <path d="M191525.52,25297.13l-500,0" />
          <path d="M191025.52,28497.13l0,1200" />
          <path d="M191025.52,29697.13l500,0" />
          <path d="M191525.52,29697.13l0,-1200" />
          <path d="M191525.52,28497.13l-500,0" />
          <path d="M191025.52,19727.13l-800,0" />
          <path d="M191525.52,19227.13l-800,0" />
          <path d="M191025.52,32397.13l0,640" />
          <path d="M191025.52,33037.13l500,0" />
          <path d="M191525.52,33037.13l0,-450" />
          <path d="M191525.52,35787.13l0,-750" />
          <path d="M191525.52,35037.13l-500,0" />
          <path d="M191025.52,35037.13l0,370" />
          <path d="M190725.52,35787.13l0,3440" />
          <path d="M190225.52,35407.13l0,4320" />
          <path d="M260405.52,28157.13l1170,0" />
          <path d="M260405.52,27887.13l1170,0" />
          <path d="M260405.52,27617.13l1170,0" />
          <path d="M260760.71,27347.13l814.81,0" />
          <path d="M261280.33,27077.13l295.19,0" />
          <path d="M260405.52,28427.13l0,-895.44" />
          <path d="M261635.52,28427.13l0,0" />
          <path d="M260405.52,28427.13l1230,0" />
          <path d="M261635.52,28427.13l0,-1534.56" />
          <path d="M261635.52,26892.56l-552.99,287.34" />
          <path d="M261082.53,27179.91l29.12,131.82" />
          <path d="M261111.65,27311.73l-198.17,-181.86" />
          <path d="M260913.48,27129.86l27.32,123.69" />
          <path d="M260940.8,27253.55l-535.28,278.14" />
          <path d="M261575.52,28427.13l0,-1503.39" />
          <path d="M261635.52,28427.13l0,-1534.56" />
          <path d="M261575.52,28427.13l60,0" />
          <path d="M209565.52,28157.13l-1170,0" />
          <path d="M209565.52,27887.13l-1170,0" />
          <path d="M209565.52,27617.13l-1170,0" />
          <path d="M209270.33,27347.13l-874.81,0" />
          <path d="M208750.71,27077.13l-355.19,0" />
          <path d="M209625.52,28427.13l0,0" />
          <path d="M208395.52,28427.13l0,-1534.56" />
          <path d="M209625.52,28427.13l-1230,0" />
          <path d="M209625.52,28427.13l0,-895.44" />
          <path d="M208395.52,26892.56l552.99,287.34" />
          <path d="M208948.51,27179.91l-29.12,131.82" />
          <path d="M208919.39,27311.73l198.17,-181.86" />
          <path d="M209117.56,27129.86l-27.32,123.69" />
          <path d="M209090.24,27253.55l535.28,278.14" />
          <path d="M209625.52,28427.13l0,-895.44" />
          <path d="M209565.52,28427.13l0,-926.61" />
          <path d="M209625.52,28427.13l-60,0" />
          <path d="M200505.52,22737.13l0,-590" />
          <path d="M200505.52,22147.13l-500,0" />
          <path d="M200005.52,22147.13l0,400" />
          <path d="M200005.52,15847.13l0,1100" />
          <path d="M200005.52,16947.13l500,0" />
          <path d="M200505.52,16947.13l0,-1600" />
          <path d="M200505.52,20147.13l0,-1200" />
          <path d="M200505.52,18947.13l-500,0" />
          <path d="M200005.52,18947.13l0,1200" />
          <path d="M200005.52,20147.13l500,0" />
          <path d="M270325.52,29447.13l-3020,0" />
          <path d="M267305.52,29447.13l0,380" />
          <path d="M267305.52,29827.13l3400,0" />
          <path d="M266015.52,29827.13l390,0" />
          <path d="M266405.52,29827.13l0,-380" />
          <path d="M266405.52,29447.13l-200,0" />
          <path d="M272925.52,29827.13l880,0" />
          <path d="M273805.52,29827.13l0,-380" />
          <path d="M273805.52,29447.13l-500,0" />
          <path d="M279305.52,29447.13l-4500,0" />
          <path d="M274805.52,29447.13l0,380" />
          <path d="M274805.52,29827.13l4500,0" />
          <path d="M236815.52,32207.13l-1390,0" />
          <path d="M235425.52,32207.13l0,380" />
          <path d="M235425.52,32587.13l1200,0" />
          <path d="M233405.52,32587.13l1020,0" />
          <path d="M234425.52,32587.13l0,-380" />
          <path d="M234425.52,32207.13l-1210,0" />
          <path d="M222415.52,38927.13l800,0" />
          <path d="M223215.52,38927.13l0,-500" />
          <path d="M223215.52,38427.13l-500,0" />
          <path d="M233025.52,38427.13l-610,0" />
          <path d="M232415.52,38427.13l0,500" />
          <path d="M232415.52,38927.13l800,0" />
          <path d="M225215.52,38927.13l1600,0" />
          <path d="M226815.52,38927.13l0,-500" />
          <path d="M226815.52,38427.13l-1600,0" />
          <path d="M225215.52,38427.13l0,500" />
          <path d="M228815.52,38927.13l1600,0" />
          <path d="M230415.52,38927.13l0,-500" />
          <path d="M230415.52,38427.13l-1600,0" />
          <path d="M228815.52,38427.13l0,500" />
          <path d="M200505.52,32207.13l-6480,0" />
          <path d="M194025.52,32587.13l4915,0" />
          <path d="M191525.52,32587.13l2500,0" />
          <path d="M194025.52,32207.13l-2500,0" />
          <path d="M199015.52,39727.13l750,0" />
          <path d="M199765.52,39727.13l0,-500" />
          <path d="M207235.52,39227.13l-1970,0" />
          <path d="M205265.52,39227.13l0,500" />
          <path d="M201765.52,39727.13l1500,0" />
          <path d="M203265.52,39727.13l0,-500" />
          <path d="M203265.52,39227.13l-1500,0" />
          <path d="M201765.52,39227.13l0,500" />
          <path d="M270555.52,23047.13l-40,0" />
          <path d="M267425.52,14172.13l0,225" />
          <path d="M267425.52,14397.13l500,0" />
          <path d="M267925.52,14397.13l0,-150" />
          <path d="M267925.52,23047.13l0,-3650" />
          <path d="M267925.52,19397.13l-500,0" />
          <path d="M267425.52,19397.13l0,3650" />
          <path d="M267425.52,16397.13l0,1000" />
          <path d="M267425.52,17397.13l500,0" />
          <path d="M267925.52,17397.13l0,-1000" />
          <path d="M267925.52,16397.13l-500,0" />
          <path d="M279805.52,20312.36l0,-755.24" />
          <path d="M279805.52,19557.13l-500,0" />
          <path d="M279305.52,19557.13l0,680.24" />
          <path d="M279305.52,11547.13l0,2890" />
          <path d="M279305.52,14437.13l500,0" />
          <path d="M279805.52,14437.13l0,-3390" />
          <path d="M279805.52,17557.13l0,-1120" />
          <path d="M279805.52,16437.13l-500,0" />
          <path d="M279305.52,16437.13l0,1120" />
          <path d="M279305.52,17557.13l500,0" />
          <path d="M190225.52,39727.13l2540,0" />
          <path d="M192765.52,39727.13l0,-500" />
          <path d="M192765.52,39227.13l-2040,0" />
          <path d="M195632.52,39227.13l-867,0" />
          <path d="M194765.52,39227.13l0,500" />
          <path d="M194765.52,39727.13l867,0" />
          <path d="M195632.52,39727.13l633,0" />
          <path d="M196265.52,39727.13l0,-500" />
          <path d="M196265.52,39227.13l-633,0" />
          <path d="M199765.52,39227.13l-1500,0" />
          <path d="M198265.52,39227.13l0,500" />
          <path d="M198265.52,39727.13l750,0" />
          <path d="M275035.52,26827.13l780,0" />
          <path d="M275895.52,26827.13l820,0" />
          <path d="M276795.52,26827.13l820,0" />
          <path d="M277695.52,26827.13l820,0" />
          <path d="M278595.52,26827.13l630,0" />
          <path d="M275035.52,26862.13l780,0" />
          <path d="M275895.52,26862.13l820,0" />
          <path d="M276795.52,26862.13l820,0" />
          <path d="M277695.52,26862.13l820,0" />
          <path d="M278595.52,26862.13l630,0" />
          <path d="M275035.52,26852.13l780,0" />
          <path d="M275895.52,26852.13l820,0" />
          <path d="M276795.52,26852.13l820,0" />
          <path d="M277695.52,26852.13l820,0" />
          <path d="M278595.52,26852.13l630,0" />
          <path d="M275035.52,26887.13l780,0" />
          <path d="M275895.52,26887.13l820,0" />
          <path d="M276795.52,26887.13l820,0" />
          <path d="M277695.52,26887.13l820,0" />
          <path d="M278595.52,26887.13l630,0" />
          <path d="M273385.52,26827.13l590,0" />
          <path d="M273385.52,26887.13l590,0" />
          <path d="M273385.52,26862.13l590,0" />
          <path d="M273385.52,26852.13l590,0" />
          <path d="M200505.52,32207.13l-380,0l7770,0l0,7520l-2630,0" />
          <path d="M200385.52,29447.13l0,-5900" />
          <path d="M257205.52,32207.13l-1000,0" />
          <path d="M257205.52,32207.13l-1000,0" />
          <use xlink:href="#$TCHSYS$WIN2D_1800x500" x="274665.52" y="11297.13" transform="scale(1,-1) translate(0,-22594.26) rotate(-180,274665.52,11297.13)">.<g class="blkclass0"><text transform="translate(-580,-514.4)" font-size="386.75">WC1824</text></g></use>
          <use xlink:href="#$TCHSYS$WIN2D_1800x500" x="271765.52" y="11297.13" transform="scale(-1,-1) translate(-543531.04,-22594.26) rotate(-180,271765.52,11297.13)">.<g class="blkclass0"><text transform="translate(-580,-506.88)" font-size="386.75">WC1824</text></g></use>
          <use xlink:href="#$TCHSYS$WIN2D_2000x500" x="267675.52" y="15397.13" transform="scale(-1,1) translate(-535351.04,0) rotate(-90,267675.52,15397.13)">.<g class="blkclass0"><text transform="rotate(-90 -457.95,600) translate(-457.95,600)" font-size="386.75">WC2024</text></g></use>
          <use xlink:href="#$TCHSYS$WIN2D_2000x500" x="267675.52" y="18397.13" transform="rotate(-270,267675.52,18397.13)">.<g class="blkclass0"><text transform="rotate(-90 -438.57,600) translate(-438.57,600)" font-size="386.75">WC2024</text></g></use>
          <use xlink:href="#$TCHSYS$WIN2D_2000x500" x="209815.52" y="38677.13">.<g class="blkclass0"><text transform="rotate(0 -600,798.75) translate(-600,798.75)" font-size="386.75">WC2024</text></g></use>
          <use xlink:href="#$TCHSYS$WIN2D_2000x500" x="193765.52" y="39477.13">.<g class="blkclass0"><text transform="translate(-600,798.75)" font-size="386.75">WC2024</text></g></use>
          <use xlink:href="#$TCHSYS$WIN2D_2000x500" x="197265.52" y="39477.13">.<g class="blkclass0"><text transform="translate(-600,798.75)" font-size="386.75">WC2024</text></g></use>
          <use xlink:href="#$TCHSYS$WIN2D_2000x500" x="200765.52" y="39477.13">.<g class="blkclass0"><text transform="translate(-600,798.75)" font-size="386.75">WC2024</text></g></use>
          <use xlink:href="#$TCHSYS$WIN2D_2000x500" x="204265.52" y="39477.13">.<g class="blkclass0"><text transform="translate(-600,798.75)" font-size="386.75">WC2024</text></g></use>
          <path d="M257205.52,32207.13l-1000,0" />
          <use xlink:href="#$TCHSYS$WIN2D_2000x500" x="279555.52" y="34157.13" transform="scale(1,-1) translate(0,-68314.26) rotate(-270,279555.52,34157.13)">.<g class="blkclass0"><text transform="rotate(-90 779.11,600) translate(779.11,600)" font-size="386.75">WC2024</text></g></use>
          <use xlink:href="#$TCHSYS$WIN2D_2000x500" x="205815.52" y="23297.13" transform="scale(-1,-1) translate(-411631.04,-46594.26) rotate(-180,205815.52,23297.13)">.<g class="blkclass0"><text transform="translate(-600,-493.12)" font-size="386.75">WC2024</text></g></use>
          <use xlink:href="#$TCHSYS$WIN2D_2000x500" x="260215.52" y="38677.13">.<g class="blkclass0"><text transform="translate(-600,798.75)" font-size="386.75">WC2024</text></g></use>
          <use xlink:href="#$TCHSYS$WIN2D_2000x500" x="253015.52" y="38677.13">.<g class="blkclass0"><text transform="translate(-600,798.75)" font-size="386.75">WC2024</text></g></use>
          <use xlink:href="#$TCHSYS$WIN2D_2000x500" x="256615.52" y="38677.13">.<g class="blkclass0"><text transform="translate(-600,798.75)" font-size="386.75">WC2024</text></g></use>
          <use xlink:href="#$TCHSYS$WIN2D_2000x500" x="249415.52" y="38677.13">.<g class="blkclass0"><text transform="translate(-600,798.75)" font-size="386.75">WC2024</text></g></use>
          <use xlink:href="#$TCHSYS$WIN2D_2000x500" x="256615.52" y="23297.13" transform="scale(-1,1) translate(-513231.04,0) rotate(-180,256615.52,23297.13)">.<g class="blkclass0"><text transform="rotate(0 -600,-376.25) translate(-600,-376.25)" font-size="386.75">WC2024</text></g></use>
          <use xlink:href="#$TCHSYS$WIN2D_2000x500" x="253015.52" y="23297.13" transform="scale(-1,1) translate(-506031.04,0) rotate(-180,253015.52,23297.13)">.<g class="blkclass0"><text transform="rotate(0 -600,-376.25) translate(-600,-376.25)" font-size="386.75">WC2024</text></g></use>
          <use xlink:href="#$TCHSYS$WIN2D_2000x500" x="276265.52" y="39477.13" transform="scale(-1,1) translate(-552531.04,0)">.<g class="blkclass0"><text transform="translate(-600,798.75)" font-size="386.75">WC2024</text></g></use>
          <use xlink:href="#$TCHSYS$WIN2D_2000x500" x="272765.52" y="39477.13" transform="scale(-1,1) translate(-545531.04,0)">.<g class="blkclass0"><text transform="translate(-600,798.75)" font-size="386.75">WC2024</text></g></use>
          <use xlink:href="#$TCHSYS$WIN2D_2000x500" x="269265.52" y="39477.13" transform="scale(-1,1) translate(-538531.04,0)">.<g class="blkclass0"><text transform="translate(-600,798.75)" font-size="386.75">WC2024</text></g></use>
          <use xlink:href="#$TCHSYS$WIN2D_2000x500" x="265765.52" y="39477.13" transform="scale(-1,1) translate(-531531.04,0)">.<g class="blkclass0"><text transform="translate(-600,798.75)" font-size="386.75">WC2024</text></g></use>
          <use xlink:href="#$TCHSYS$WIN2D_2000x500" x="245815.52" y="38677.13" transform="scale(-1,-1) translate(-491631.04,-77354.26)">.<g class="blkclass0"><text transform="translate(-600,798.75)" font-size="386.75">WC2024</text></g></use>
          <use xlink:href="#$TCHSYS$WIN2D_2000x500" x="242215.52" y="38677.13" transform="scale(-1,-1) translate(-484431.04,-77354.26)">.<g class="blkclass0"><text transform="translate(-600,798.75)" font-size="386.75">WC2024</text></g></use>
          <use xlink:href="#$TCHSYS$WIN2D_2000x500" x="238615.52" y="38677.13">.<g class="blkclass0"><text transform="translate(-600,798.75)" font-size="386.75">WC2024</text></g></use>
          <use xlink:href="#$TCHSYS$WIN2D_2000x500" x="231415.52" y="38677.13">.<g class="blkclass0"><text transform="translate(-600,798.75)" font-size="386.75">WC2024</text></g></use>
          <use xlink:href="#$TCHSYS$WIN2D_2000x500" x="227815.52" y="38677.13">.<g class="blkclass0"><text transform="translate(-600,798.75)" font-size="386.75">WC2024</text></g></use>
          <use xlink:href="#$TCHSYS$WIN2D_2000x500" x="224215.52" y="38677.13">.<g class="blkclass0"><text transform="translate(-600,798.75)" font-size="386.75">WC2024</text></g></use>
          <use xlink:href="#$TCHSYS$WIN2D_2000x500" x="213415.52" y="38677.13">.<g class="blkclass0"><text transform="rotate(0 -600,798.75) translate(-600,798.75)" font-size="386.75">WC2024</text></g></use>
          <use xlink:href="#$TCHSYS$WIN2D_2000x500" x="217015.52" y="38677.13">.<g class="blkclass0"><text transform="rotate(0 -600,798.75) translate(-600,798.75)" font-size="386.75">WC2024</text></g></use>
          <use xlink:href="#$TCHSYS$WIN2D_2000x500" x="220615.52" y="38677.13">.<g class="blkclass0"><text transform="rotate(0 -600,798.75) translate(-600,798.75)" font-size="386.75">WC2024</text></g></use>
          <use xlink:href="#$TCHSYS$WIN2D_2000x500" x="245815.52" y="23297.13" transform="rotate(-180,245815.52,23297.13)">.<g class="blkclass0"><text transform="rotate(0 -600,-376.25) translate(-600,-376.25)" font-size="386.75">WC2024</text></g></use>
          <use xlink:href="#$TCHSYS$WIN2D_2000x500" x="242215.52" y="23297.13" transform="rotate(-180,242215.52,23297.13)">.<g class="blkclass0"><text transform="rotate(0 -600,-376.25) translate(-600,-376.25)" font-size="386.75">WC2024</text></g></use>
          <use xlink:href="#$TCHSYS$WIN2D_2000x500" x="238615.52" y="23297.13" transform="rotate(-180,238615.52,23297.13)">.<g class="blkclass0"><text transform="rotate(0 -600,-376.25) translate(-600,-376.25)" font-size="386.75">WC2024</text></g></use>
          <use xlink:href="#$TCHSYS$WIN2D_2000x500" x="235015.52" y="23297.13" transform="rotate(-180,235015.52,23297.13)">.<g class="blkclass0"><text transform="rotate(0 -600,-376.25) translate(-600,-376.25)" font-size="386.75">WC2024</text></g></use>
          <use xlink:href="#$TCHSYS$WIN2D_2000x500" x="231415.52" y="23297.13" transform="scale(1,-1) translate(0,-46594.26) rotate(-180,231415.52,23297.13)">.<g class="blkclass0"><text transform="rotate(0 -600,-463.23) translate(-600,-463.23)" font-size="386.75">WC2024</text></g></use>
          <use xlink:href="#$TCHSYS$WIN2D_2000x500" x="264215.52" y="23297.13" transform="scale(1,-1) translate(0,-46594.26) rotate(-180,264215.52,23297.13)">.<g class="blkclass0"><text transform="rotate(0 -600,-435.88) translate(-600,-435.88)" font-size="386.75">WC2024</text></g></use>
          <use xlink:href="#$TCHSYS$WIN2D_2000x500" x="279555.52" y="15437.13" transform="scale(1,-1) translate(0,-30874.26) rotate(-270,279555.52,15437.13)">.<g class="blkclass0"><text transform="rotate(-90 709.88,600) translate(709.88,600)" font-size="386.75">WC2024</text></g></use>
          <use xlink:href="#$TCHSYS$WIN2D_2000x500" x="279555.52" y="21677.13" transform="scale(1,-1) translate(0,-43354.26) rotate(-270,279555.52,21677.13)">.<g class="blkclass0"><text transform="rotate(-90 668.74,600) translate(668.74,600)" font-size="386.75">WC2024</text></g></use>
          <use xlink:href="#$TCHSYS$WIN2D_2000x500" x="279555.52" y="24797.13" transform="scale(1,-1) translate(0,-49594.26) rotate(-270,279555.52,24797.13)">.<g class="blkclass0"><text transform="rotate(-90 717.95,600) translate(717.95,600)" font-size="386.75">WC2024</text></g></use>
          <use xlink:href="#$TCHSYS$WIN2D_2000x500" x="279555.52" y="27917.13" transform="scale(1,-1) translate(0,-55834.26) rotate(-270,279555.52,27917.13)">.<g class="blkclass0"><text transform="rotate(-90 689.05,600) translate(689.05,600)" font-size="386.75">WC2024</text></g></use>
          <use xlink:href="#$TCHSYS$WIN2D_2000x500" x="249415.52" y="23297.13" transform="rotate(-180,249415.52,23297.13)">.<g class="blkclass0"><text transform="rotate(0 -600,-376.25) translate(-600,-376.25)" font-size="386.75">WC2024</text></g></use>
          <use xlink:href="#$TCHSYS$WIN2D_2000x500" x="227815.52" y="23297.13" transform="scale(-1,-1) translate(-455631.04,-46594.26) rotate(-180,227815.52,23297.13)">.<g class="blkclass0"><text transform="translate(-600,-502.41)" font-size="386.75">WC2024</text></g></use>
          <use xlink:href="#$TCHSYS$WIN2D_2000x500" x="224215.52" y="23297.13" transform="scale(-1,-1) translate(-448431.04,-46594.26) rotate(-180,224215.52,23297.13)">.<g class="blkclass0"><text transform="translate(-600,-482.82)" font-size="386.75">WC2024</text></g></use>
          <use xlink:href="#$TCHSYS$WIN2D_2000x500" x="220615.52" y="23297.13" transform="scale(-1,-1) translate(-441231.04,-46594.26) rotate(-180,220615.52,23297.13)">.<g class="blkclass0"><text transform="translate(-600,-508.28)" font-size="386.75">WC2024</text></g></use>
          <use xlink:href="#$TCHSYS$WIN2D_2000x500" x="217015.52" y="23297.13" transform="scale(-1,-1) translate(-434031.04,-46594.26) rotate(-180,217015.52,23297.13)">.<g class="blkclass0"><text transform="translate(-600,-454.84)" font-size="386.75">WC2024</text></g></use>
          <use xlink:href="#$TCHSYS$WIN2D_2000x500" x="213415.52" y="23297.13" transform="scale(-1,-1) translate(-426831.04,-46594.26) rotate(-180,213415.52,23297.13)">.<g class="blkclass0"><text transform="translate(-600,-454.84)" font-size="386.75">WC2024</text></g></use>
          <use xlink:href="#$TCHSYS$WIN2D_2000x500" x="200255.52" y="17947.13" transform="scale(1,-1) translate(0,-35894.26) rotate(-270,200255.52,17947.13)">.<g class="blkclass0"><text transform="rotate(-90 1018.6,490) translate(1018.6,490)" font-size="386.75">WC2024</text></g></use>
          <use xlink:href="#$TCHSYS$WIN2D_2000x500" x="200255.52" y="21147.13" transform="scale(1,-1) translate(0,-42294.26) rotate(-270,200255.52,21147.13)">.<g class="blkclass0"><text transform="rotate(-90 1018.6,600) translate(1018.6,600)" font-size="386.75">WC2024</text></g></use>
          <use xlink:href="#$TCHSYS$WIN2D_2000x500" x="191275.52" y="21097.13" transform="scale(-1,1) translate(-382551.04,0) rotate(-90,191275.52,21097.13)">.<g class="blkclass0"><text transform="rotate(-90 -451.26,600) translate(-451.26,600)" font-size="386.75">WC2024</text></g></use>
          <use xlink:href="#$TCHSYS$WIN2D_2000x500" x="201815.52" y="23297.13" transform="scale(-1,-1) translate(-403631.04,-46594.26) rotate(-180,201815.52,23297.13)">.<g class="blkclass0"><text transform="translate(-600,-482.35)" font-size="386.75">WC2024</text></g></use>
          <use xlink:href="#$TCHSYS$WIN2D_1800x500" x="194100.52" y="15597.13" transform="scale(-1,-1) translate(-388201.04,-31194.26) rotate(-180,194100.52,15597.13)">.<g class="blkclass0"><text transform="rotate(0 -580,-525.76) translate(-580,-525.76)" font-size="386.75">WC1824</text></g></use>
          <use xlink:href="#$TCHSYS$WIN2D_2000x500" x="191275.52" y="34037.13" transform="rotate(-270,191275.52,34037.13)">.<g class="blkclass0"><text transform="rotate(-90 -414.75,606.12) translate(-414.75,606.12)" font-size="386.75">WC2024</text></g></use>
          <use xlink:href="#$TCHSYS$WIN2D_2000x500" x="235015.52" y="38677.13">.<g class="blkclass0"><text transform="translate(-600,798.75)" font-size="386.75">WC2024</text></g></use>
          <use xlink:href="#$DorLib2D$00000002" x="132.634" y="10.408" transform="scale(1500,1500) scale(1,-1) translate(0,-20.82) rotate(-180,132.63,10.41)" stroke-width="0.0001%">.<g class="blkclass0"><text transform="translate(-590,-846.1)" font-size="386.75">WM1530</text></g></use>
          <use xlink:href="#$DorLib2D$00000001" x="266.226" y="32.412" transform="scale(1000,1000) scale(-1,1) translate(-532.45,0) rotate(-180,266.23,32.41)" stroke-width="0.0001%">.<g class="blkclass0"><text transform="translate(-470,-316.25)" font-size="386.75">M1027</text></g></use>
          <use xlink:href="#$DorLib2D$00000001" x="275.806" y="32.412" transform="scale(1000,1000) scale(-1,1) translate(-551.61,0) rotate(-180,275.81,32.41)" stroke-width="0.0001%">.<g class="blkclass0"><text transform="translate(-470,-316.25)" font-size="386.75">M1027</text></g></use>
          <use xlink:href="#$DorLib2D$00000001" x="260.306" y="32.412" transform="scale(1000,1000) scale(-1,1) translate(-520.61,0) rotate(-180,260.31,32.41)" stroke-width="0.0001%">.<g class="blkclass0"><text transform="translate(-470,-316.25)" font-size="386.75">M1027</text></g></use>
          <use xlink:href="#$DorLib2D$00000002" x="168.904" y="21.608" transform="scale(1500,1500) scale(-1,1) translate(-337.81,0) rotate(-180,168.9,21.61)" stroke-width="0.0001%">.<g class="blkclass0"><text transform="translate(-470,-316.25)" font-size="386.75">M1527</text></g></use>
          <use xlink:href="#$DorLib2D$00000002" x="137.324" y="21.608" transform="scale(1500,1500) rotate(-180,137.32,21.61)" stroke-width="0.0001%">.<g class="blkclass0"><text transform="translate(-470,-316.25)" font-size="386.75">M1527</text></g></use>
          <use xlink:href="#$DorLib2D$00000001" x="253.106" y="29.652" transform="scale(1000,1000) scale(1,-1) translate(0,-59.3) rotate(-180,253.11,29.65)" stroke-width="0.0001%">.<g class="blkclass0"><text transform="rotate(0 -470,613.75) translate(-470,613.75)" font-size="386.75">M1027</text></g></use>
          <use xlink:href="#$DorLib2D$00000001" x="256.706" y="29.652" transform="scale(1000,1000) scale(1,-1) translate(0,-59.3) rotate(-180,256.71,29.65)" stroke-width="0.0001%">.<g class="blkclass0"><text transform="rotate(0 -470,613.75) translate(-470,613.75)" font-size="386.75">M1027</text></g></use>
          <use xlink:href="#$DorLib2D$00000001" x="238.526" y="32.412" transform="scale(1000,1000) rotate(-180,238.53,32.41)" stroke-width="0.0001%">.<g class="blkclass0"><text transform="translate(-470,-316.25)" font-size="386.75">M1027</text></g></use>
          <use xlink:href="#$DorLib2D$00000002" x="149.237" y="21.608" transform="scale(1500,1500) scale(-1,1) translate(-298.47,0) rotate(-180,149.24,21.61)" stroke-width="0.0001%">.<g class="blkclass0"><text transform="rotate(0 -470,-316.25) translate(-470,-316.25)" font-size="386.75">M1527</text></g></use>
          <use xlink:href="#$DorLib2D$00000002" x="164.117" y="19.768" transform="scale(1500,1500) scale(1,-1) translate(0,-39.54) rotate(-180,164.12,19.77)" stroke-width="0.0001%">.<g class="blkclass0"><text transform="translate(-470,613.75)" font-size="386.75">M1527</text></g></use>
          <use xlink:href="#$DorLib2D$00000002" x="154.037" y="19.768" transform="scale(1500,1500) scale(-1,-1) translate(-308.07,-39.54) rotate(-180,154.04,19.77)" stroke-width="0.0001%">.<g class="blkclass0"><text transform="translate(-470,613.75)" font-size="386.75">M1527</text></g></use>
          <use xlink:href="#$DorLib2D$00000001" x="247.128" y="27.236" transform="scale(900,900) scale(-1,-1) translate(-494.26,-54.47) rotate(-90,247.13,27.24)" stroke-width="0.0001%">.<g class="blkclass0"><text transform="rotate(-90 -564.44,414.3) translate(-564.44,414.3)" font-size="386.75">M0921</text></g></use>
          <use xlink:href="#$DorLib2D$00000002" x="139.778" y="9.286" transform="scale(2000,2000) scale(1,-1) translate(0,-18.57) rotate(-270,139.78,9.29)" stroke-width="0%">.<g class="blkclass0"><text transform="rotate(-90 1525.64,610) translate(1525.64,610)" font-size="386.75">WM2033</text></g></use>
          <use xlink:href="#$DorLib2D$00000002" x="104.908" y="11.656" transform="scale(2000,2000) scale(-1,-1) translate(-209.82,-23.31) rotate(-180,104.91,11.66)" stroke-width="0%">.<g class="blkclass0"><text transform="rotate(-360 -565,673.75) translate(-565,673.75)" font-size="386.75">WM2021</text></g></use>
          <use xlink:href="#$DorLib2D$00000002" x="95.638" y="12.156" transform="scale(2000,2000) scale(-1,-1) translate(-191.28,-24.31) rotate(-270,95.64,12.16)" stroke-width="0%">.<g class="blkclass0"><text transform="rotate(-90 -1169.47,610) translate(-1169.47,610)" font-size="386.75">WM2033</text></g></use>
          <use xlink:href="#$DorLib2D$00000002" x="95.638" y="13.756" transform="scale(2000,2000) scale(-1,-1) translate(-191.28,-27.51) rotate(-270,95.64,13.76)" stroke-width="0%">.<g class="blkclass0"><text transform="rotate(-90 -1187.88,610) translate(-1187.88,610)" font-size="386.75">WM2033</text></g></use>
          <use xlink:href="#$DorLib2D$00000002" x="95.638" y="15.356" transform="scale(2000,2000) scale(-1,-1) translate(-191.28,-30.71) rotate(-270,95.64,15.36)" stroke-width="0%">.<g class="blkclass0"><text transform="rotate(-90 -1151.06,610) translate(-1151.06,610)" font-size="386.75">WM2033</text></g></use>
          <use xlink:href="#$DorLib2D$00000002" x="142.037" y="21.608" transform="scale(1500,1500) scale(-1,1) translate(-284.07,0) rotate(-180,142.04,21.61)" stroke-width="0.0001%">.<g class="blkclass0"><text transform="rotate(0 -470,-316.25) translate(-470,-316.25)" font-size="386.75">M1527</text></g></use>
          <use xlink:href="#$DorLib2D$00000002" x="161.417" y="21.608" transform="scale(1500,1500) scale(-1,1) translate(-322.83,0) rotate(-180,161.42,21.61)" stroke-width="0.0001%">.<g class="blkclass0"><text transform="translate(-470,-316.25)" font-size="386.75">M1527</text></g></use>
          <use xlink:href="#$DorLib2D$00000002" x="139.778" y="15.526" transform="scale(2000,2000) scale(1,-1) translate(0,-31.05) rotate(-270,139.78,15.53)" stroke-width="0%">.<g class="blkclass0"><text transform="rotate(-90 1494.22,610) translate(1494.22,610)" font-size="386.75">WM2033</text></g></use>
          <use xlink:href="#$DorLib2D$00000001" x="305.009" y="29.858" transform="scale(900,900) scale(-1,1) translate(-610.02,0)" stroke-width="0.0001%">.<g class="blkclass1"><text transform="translate(-454.59,565.97)" font-size="348.075">M0921</text></g></use>
          <use xlink:href="#$DorLib2D$00000001" x="223.256" y="29.652" transform="scale(1000,1000) scale(1,-1) translate(0,-59.3) rotate(-180,223.26,29.65)" stroke-width="0.0001%">.<g class="blkclass0"><text transform="rotate(0 -470,613.75) translate(-470,613.75)" font-size="386.75">M1027</text></g></use>
          <use xlink:href="#$DorLib2D$00000001" x="220.566" y="29.652" transform="scale(1000,1000) scale(-1,-1) translate(-441.13,-59.3) rotate(-180,220.57,29.65)" stroke-width="0.0001%">.<g class="blkclass0"><text transform="rotate(0 -470,613.75) translate(-470,613.75)" font-size="386.75">M1027</text></g></use>
          <use xlink:href="#$DorLib2D$00000001" x="213.356" y="29.652" transform="scale(1000,1000) scale(1,-1) translate(0,-59.3) rotate(-180,213.36,29.65)" stroke-width="0.0001%">.<g class="blkclass0"><text transform="rotate(0 -470,613.75) translate(-470,613.75)" font-size="386.75">M1027</text></g></use>
          <use xlink:href="#$DorLib2D$00000001" x="234.926" y="32.412" transform="scale(1000,1000) rotate(-180,234.93,32.41)" stroke-width="0.0001%">.<g class="blkclass0"><text transform="translate(-470,-316.25)" font-size="386.75">M1027</text></g></use>
          <use xlink:href="#$DorLib2D$00000002" x="179.291" y="21.608" transform="scale(1500,1500) rotate(-180,179.29,21.61)" stroke-width="0.0001%">.<g class="blkclass0"><text transform="translate(-470,-316.25)" font-size="386.75">M1527</text></g></use>
          <use xlink:href="#$DorLib2D$00000001" x="274.306" y="29.652" transform="scale(1000,1000) scale(1,-1) translate(0,-59.3) rotate(-180,274.31,29.65)" stroke-width="0.0001%">.<g class="blkclass0"><text transform="rotate(0 -470,613.75) translate(-470,613.75)" font-size="386.75">M1027</text></g></use>
          <use xlink:href="#$DorLib2D$00000002" x="181.277" y="15.541" transform="scale(1500,1500) scale(-1,1) translate(-362.55,0)" stroke-width="0.0001%">.<g class="blkclass0"><text transform="translate(-470,453.75)" font-size="386.75">M1527</text></g></use>
          <use xlink:href="#$DorLib2D$00000002" x="165.863" y="18.96" transform="scale(1200,1200) scale(-1,-1) translate(-331.73,-37.92) rotate(-180,165.86,18.96)" stroke-width="0.0001%">.<g class="blkclass2"><text transform="translate(-376,491)" font-size="309.4">M1227</text></g></use>
          <use xlink:href="#$DorLib2D$00000001" x="197.616" y="21.692" transform="scale(1000,1000) scale(-1,1) translate(-395.23,0) rotate(-270,197.62,21.69)" stroke-width="0.0001%">.<g class="blkclass0"><text transform="rotate(-90 613.75,470) translate(613.75,470)" font-size="386.75">M1027</text></g></use>
          <use xlink:href="#$DorLib2D$00000002" x="130.108" y="11.656" transform="scale(2000,2000) scale(-1,-1) translate(-260.22,-23.31) rotate(-180,130.11,11.66)" stroke-width="0%">.<g class="blkclass0"><text transform="rotate(-360 -565,673.75) translate(-565,673.75)" font-size="386.75">WM2021</text></g></use>
          <use xlink:href="#$DorLib2D$00000001" x="229.616" y="34.087" transform="scale(1000,1000) scale(-1,1) translate(-459.23,0) rotate(-270,229.62,34.09)" stroke-width="0.0001%">.<g class="blkclass0"><text transform="rotate(-90 613.75,470) translate(613.75,470)" font-size="386.75">M1027</text></g></use>
          <use xlink:href="#$DorLib2D$00000002" x="237.447" y="35.105" transform="scale(1012.5,1012.5) scale(-1,1) translate(-474.89,0) rotate(-270,237.45,35.1)" stroke-width="0.0001%">.<g class="blkclass3"><text transform="rotate(-270 213.47,-317.25) translate(213.47,-317.25)" font-size="261.056">M1527</text></g></use>
        </g>
        <g id="layer-RM" class="rm">
          <path d="M229411.61,34587.13l0,0" />
          <path d="M229411.61,34587.13l0,0" />
        </g>
      </g>
      <g id="assets" fill="none">
        <g id="rm-assets" class="rm-asset">
          <path id="15009;F01;102" d="M267925.52,11547.13l0,11500l11380,0l0,-11500z" />
          <path id="15009;F01;113" d="M191525.52,32587.13l0,3200l-800,0l0,3440l16510,0l0,-6640z" />
          <path id="15009;F01;105-106" d="M229805.52,23547.13l0,5900l17620,0l0,-5900z" />
          <path id="15009;F01;107-109" d="M211805.52,23547.13l0,5900l17620,0l0,-5900z" />
          <path id="15009;F01;119-120" d="M247805.52,32587.13l0,5840l13830,0l0,-5840z" />
          <path id="15009;F01;114" d="M208395.52,32587.13l0,5840l13720,0l0,-5840z" />
          <path id="15009;F01;122-123" d="M267540.52,32587.13l0,6640l11765,0l0,-6640z" />
          <path id="15009;F01;103-104" d="M247805.52,23547.13l0,5900l10420,0l0,-5900z" />
          <path id="15009;F01;117-118" d="M237005.52,32587.13l0,5840l10420,0l0,-5840z" />
          <path id="15009;F01;115" d="M222715.52,32587.13l0,5840l10310,0l0,-5840z" />
          <path id="15009;F01;112" d="M190725.52,15847.13l0,3380l800,0l0,3320l8480,0l0,-6700z" />
          <path id="15009;F01;101" d="M273305.52,23547.13l0,5900l6000,0l0,-5900z" />
          <path id="15009;F01;121" d="M262795.52,32587.13l0,6640l4495,0l0,-6640z" />
          <path id="15009;F01;110" d="M203415.52,23547.13l0,5900l3820,0l0,-5900z" />
          <path id="15009;F01;116" d="M233405.52,32587.13l0,5840l3220,0l0,-5840z" />
          <path id="15009;F01;111" d="M200385.52,23547.13l0,5900l2650,0l0,-5900z" />
        </g>
      </g>
    </g>
    <g id="text" font-family="Arial" font-size="438.86524822695031" font-weight="normal" text-style="normal" text-anchor="start" dominant-baseline="alphabetical" fill="#FF7F00" xml:space="preserve">
      <g id="layer-body-text">
        <g transform="translate(203712.14,30294.07)" font-size="386.75">
          <text>FM0921</text>
        </g>
        <g transform="translate(204892.14,30294.07)">
          <text>乙</text>
        </g>
        <g transform="translate(201413.34,30270.01)" font-size="386.75">
          <text>FM0921</text>
        </g>
        <g transform="translate(261069.85,28838.58)">
          <text>上</text>
        </g>
        <g transform="translate(261069.85,28838.58)">
          <text>上</text>
        </g>
        <g transform="translate(261069.85,28838.58)">
          <text>上</text>
        </g>
        <g transform="translate(261069.85,28838.58)">
          <text>上</text>
        </g>
        <g transform="translate(261069.85,28838.58)">
          <text>上</text>
        </g>
        <g transform="translate(209017.41,28798.14)">
          <text>上</text>
        </g>
        <g transform="translate(210611.53,30267.13)">
          <text>上</text>
        </g>
        <g transform="translate(210611.53,30267.13)">
          <text>上</text>
        </g>
        <g transform="translate(202578.34,30210.01)">
          <text>乙</text>
        </g>
        <g transform="translate(293955.93,33222.15)" font-size="3.25">
          <text>{\fSimSun|b0|i0|c134|p2;首层}</text>
        </g>
      </g>
    </g>
    <g id="asset-labels" font-family="Arial" font-weight="bold" font-size="38.1em" text-anchor="middle">
      <g id="rm-labels">
        <g id="l-rm-15009;F01;102" transform="translate(273615.52,17297.13)">
          <text>102</text>
        </g>
        <g id="l-rm-15009;F01;113" transform="translate(198980.52,35907.13)">
          <text>113</text>
        </g>
        <g id="l-rm-15009;F01;105-106" transform="translate(238615.52,26497.13)">
          <text>105-106</text>
        </g>
        <g id="l-rm-15009;F01;107-109" transform="translate(217015.52,26497.13)">
          <text>107-109</text>
        </g>
        <g id="l-rm-15009;F01;119-120" transform="translate(254720.52,35507.13)">
          <text>119-120</text>
        </g>
        <g id="l-rm-15009;F01;114" transform="translate(215255.52,35507.13)">
          <text>114</text>
        </g>
        <g id="l-rm-15009;F01;122-123" transform="translate(273423.02,35907.13)">
          <text>122-123</text>
        </g>
        <g id="l-rm-15009;F01;103-104" transform="translate(253015.52,26497.13)">
          <text>103-104</text>
        </g>
        <g id="l-rm-15009;F01;117-118" transform="translate(242215.52,35507.13)">
          <text>117-118</text>
        </g>
        <g id="l-rm-15009;F01;115" transform="translate(227870.52,35507.13)">
          <text>115</text>
        </g>
        <g id="l-rm-15009;F01;112" transform="translate(195365.52,19197.13)">
          <text>112</text>
        </g>
        <g id="l-rm-15009;F01;101" transform="translate(276305.52,26497.13)">
          <text>101</text>
        </g>
        <g id="l-rm-15009;F01;121" transform="translate(265043.02,35907.13)">
          <text>121</text>
        </g>
        <g id="l-rm-15009;F01;110" transform="translate(205325.52,26497.13)">
          <text>110</text>
        </g>
        <g id="l-rm-15009;F01;116" transform="translate(235015.52,35507.13)">
          <text>116</text>
        </g>
        <g id="l-rm-15009;F01;111" transform="translate(201710.52,26497.13)">
          <text>111</text>
        </g>
      </g>
    </g>
  </g>
</svg>