<svg version="1.1" xmlns="http://www.w3.org/2000/svg" xmlns:xlink="http://www.w3.org/1999/xlink" viewBox="190221 86173.45 90190 29816">
  <style>.i0 { stroke:#000000;   } .body { stroke:#ff7f00; stroke-width:0.17145%;  } .rm { stroke:#00ffff;   } .pub_wall { stroke:#c0c0c0;   } .rm-asset { stroke:#0000ff;   fill:#EEEEEE; fill-opacity:1;} .rmtc-asset { stroke:#0000ff;   } .rmtc { stroke:#00ffff;   } .rm-assettxt { stroke:#0000ff;   } .rmtc-assettxt { stroke:#0000ff;   } .cnc-0 { stroke:#ff7f00;  stroke-dasharray:0; fill:#cccccc; fill-opacity:1;} .cnc-1 { stroke:#ff7f00;  stroke-dasharray:0; } .cnc-2 { stroke:#ff7f00;  stroke-dasharray:0; } .blkclass0 { stroke:#ff7f00;  stroke-width:0.02;  fill:#ff7f00; fill-opacity:1; font-family:Arial; font-size:386.75; font-weight:normal; text-style:normal; text-anchor:start;} .blkclass1 { stroke:#ff7f00;  stroke-width:0.02;  fill:#ff7f00; fill-opacity:1; font-family:Arial; font-size:309.4; font-weight:normal; text-style:normal; text-anchor:start;} .blkclass2 { stroke:#ff7f00;  stroke-width:0.02;  fill:#ff7f00; fill-opacity:1; font-family:Arial; font-size:489.883; font-weight:normal; text-style:normal; text-anchor:start;} .blkclass3 { stroke:#ff7f00;  stroke-width:0.02;  fill:#ff7f00; fill-opacity:1; font-family:Arial; font-size:386.75; font-weight:normal; text-style:normal; text-anchor:start;}</style>
  <view id="defaultView" viewBox="190221 86173.45 90190 29816" />
  <defs>
    <symbol id="$TCHSYS$WIN2D_1800x500" overflow="visible" class="i0">
      <path d="M-900,-250l1800,0" />
      <path d="M-900,250l1800,0" />
      <path d="M900,83.33l-1800,0" />
      <path d="M900,-83.33l-1800,0" />
      <path d="M-900,-250l0,500" />
      <path d="M900,-250l0,500" />
    </symbol>
    <symbol id="$TCHSYS$WIN2D_2000x500" overflow="visible" class="i0">
      <path d="M-1000,-250l2000,0" />
      <path d="M-1000,250l2000,0" />
      <path d="M1000,83.33l-2000,0" />
      <path d="M1000,-83.33l-2000,0" />
      <path d="M-1000,-250l0,500" />
      <path d="M1000,-250l0,500" />
    </symbol>
    <symbol id="$TCHSYS$WIN2D_1500x500" overflow="visible" class="i0">
      <path d="M-750,-250l1500,0" />
      <path d="M-750,250l1500,0" />
      <path d="M750,83.33l-1500,0" />
      <path d="M750,-83.33l-1500,0" />
      <path d="M-750,-250l0,500" />
      <path d="M750,-250l0,500" />
    </symbol>
    <symbol id="$DorLib2D$00000001" overflow="visible" class="i0">
      <path d="M0.45,-0.98l0.05,0" />
      <path d="M0.5,0l-0.05,0" />
      <path d="M-0.5,0a0.98,0.98 0 0,1 0.95,-0.97" />
      <path d="M0.5,0l0,-0.98" />
      <path d="M0.45,0l0,-0.98" />
    </symbol>
    <symbol id="$DorLib2D$00000002" overflow="visible" class="i0">
      <path d="M-0.5,0l0,-0.49" />
      <path d="M-0.48,0l0,-0.49" />
      <path d="M-0.5,0l0.02,0" />
      <path d="M-0.48,-0.49l-0.02,0" />
      <path d="M-0.48,-0.49a0.49,0.49 0 0,1 0.48,0.49" />
      <path d="M0,0a0.49,0.49 0 0,1 0.48,-0.49" />
      <path d="M0.48,0l0,-0.49" />
      <path d="M0.5,0l0,-0.49" />
      <path d="M0.48,-0.49l0.02,0" />
      <path d="M0.5,0l-0.02,0" />
    </symbol>
  </defs>
  <g id="viewer">
    <g id="mirror" transform="scale(1, 1)" stroke-width="0.09%">
      <g id="background" fill="none">
        <g id="layer-body-fills" class="cnc-0">
          <path d="M236740.52,108299.13l150,0l0,6140l-150,0z" />
          <path d="M197825.39,94179.13l0,4460l-6299.87,0l0,-380l5919.87,0l0,-4080l380,0z" />
          <path d="M197145.39,94939.13l300,0l0,150l-300,0l0,-150z" />
          <path d="M196145.39,94939.13l0,150l-4619.87,0l0,-150l4619.87,0z" />
          <path d="M270885.52,88491.08l0,-1231.95l-120,0l0,1231.95l120,0z" />
          <path d="M270785.52,87259.13l0,40l10,10l60,0l10,-10l0,-40z" />
          <path d="M270785.52,88491.08l0,-40l10,-10l60,0l10,10l0,40z" />
          <path d="M270885.52,98759.13l0,-7668.05l-120,0l0,7668.05l120,0z" />
          <path d="M270785.52,98759.13l0,-40l10,-10l60,0l10,10l0,40z" />
          <path d="M270785.52,91091.08l0,40l10,10l60,0l10,-10l0,-40z" />
          <path d="M267925.52,89751.08l40,0l10,10l0,60l-10,10l-40,0z" />
          <path d="M270765.52,89731.08l-2840,0l0,120l2840,0l0,240l120,0l0,-600l-120,0l0,240z" />
          <path d="M270785.52,90091.08l0,-40l10,-10l60,0l10,10l0,40z" />
          <path d="M270785.52,89491.08l0,40l10,10l60,0l10,-10l0,-40z" />
          <path d="M270855.52,89831.08l-60,0l-10,-10l0,-60l10,-10l60,0l10,10l0,60z" />
          <path d="M198106,104709.13l0,200l-6580.48,0l0,-200l6580.48,0z" />
          <path d="M199606,104709.13l399.52,0l0,200l-399.52,0l0,-200z" />
          <path d="M211540.52,109599.13l150,0l0,4840l-150,0z" />
          <path d="M211540.52,108299.13l150,0l0,300l-150,0z" />
          <path d="M218740.52,109599.13l150,0l0,4840l-150,0z" />
          <path d="M218890.52,108599.13l-150,0l0,-300l150,0z" />
          <path d="M270855.52,93831.08l-60,0l-10,-10l0,-60l10,-10l60,0l10,10l0,60z" />
          <path d="M270855.52,92031.08l-60,0l-10,-10l0,-60l10,-10l60,0l10,10l0,60z" />
          <path d="M270855.52,92931.08l-60,0l-10,-10l0,-60l10,-10l60,0l10,10l0,60z" />
          <path d="M270855.52,94731.08l-60,0l-10,-10l0,-60l10,-10l60,0l10,10l0,60z" />
          <path d="M270855.52,95631.08l-60,0l-10,-10l0,-60l10,-10l60,0l10,10l0,60z" />
          <path d="M270855.52,97431.08l-60,0l-10,-10l0,-60l10,-10l60,0l10,10l0,60z" />
          <path d="M269825.52,89831.08l-60,0l-10,-10l0,-60l10,-10l60,0l10,10l0,60z" />
          <path d="M270855.52,98331.08l-60,0l-10,-10l0,-60l10,-10l60,0l10,10l0,60z" />
          <path d="M270855.52,96531.08l-60,0l-10,-10l0,-60l10,-10l60,0l10,10l0,60z" />
          <path d="M268925.52,89831.08l-60,0l-10,-10l0,-60l10,-10l60,0l10,10l0,60z" />
          <path d="M270855.52,87915.1l-60,0l-10,-10l0,-60l10,-10l60,0l10,10l0,60z" />
          <path d="M211655.52,99259.13l150,0l0,1000l-150,0z" />
          <path d="M208245.52,114439.13l150,0l0,-500l-150,0z" />
          <path d="M207805.52,105539.13l-380,0l0,260l380,0z" />
          <path d="M207805.52,107659.13l-380,0l0,260l380,0z" />
          <path d="M222605.52,105539.13l-380,0l0,260l380,0z" />
          <path d="M222605.52,107659.13l-380,0l0,260l380,0z" />
          <path d="M229805.52,105539.13l-380,0l0,260l380,0z" />
          <path d="M229805.52,107659.13l-380,0l0,260l380,0z" />
          <path d="M247805.52,105539.13l-380,0l0,260l380,0z" />
          <path d="M247805.52,107659.13l-380,0l0,260l380,0z" />
          <path d="M262205.52,105539.13l-380,0l0,260l380,0z" />
          <path d="M262205.52,107659.13l-380,0l0,260l380,0z" />
        </g>
        <g id="layer-RM-fills" class="rm">
          <path d="M262795.52,99259.13l0,5900l3030,0l0,-5900z" />
          <path d="M266205.52,99259.13l0,5900l4120,0l0,-5900z" />
          <path d="M215305.52,108299.13l0,6140l3420,0l0,-6140z" />
          <path d="M211705.52,108299.13l0,6140l3420,0l0,-6140z" />
          <path d="M244105.52,99259.13l0,5900l3320,0l0,-5900z" />
          <path d="M267925.52,87259.13l0,2471.95l2840,0l0,-2471.95z" />
          <path d="M267925.52,89851.08l0,8908.05l2840,0l0,-8908.05z" />
          <path d="M270885.52,87259.13l0,11500l8420,0l0,-11500z" />
          <path d="M190725.52,91559.13l6719.87,6.24l0,3373.76l-6719.87,0z" />
          <path d="M191525.52,95089.13l5919.87,0l0,3170l-5919.87,0z" />
          <path d="M197825.39,91565.37l2180.13,-6.24l0,13150l-8480,0l0,-6070l6299.87,0z" />
        </g>
        <g id="layer-body" class="cnc-1">
          <path d="M279805.52,86759.13l-3830,0" />
          <path d="M275975.52,86759.13l0,500" />
          <path d="M271255.52,87259.13l8050,0" />
          <path d="M267925.52,87259.13l3330,0" />
          <path d="M271255.52,87259.13l0,-500" />
          <path d="M271255.52,86759.13l-3830,0" />
          <path d="M274175.52,86759.13l-1120,0" />
          <path d="M273055.52,86759.13l0,500" />
          <path d="M273055.52,87259.13l1120,0" />
          <path d="M274175.52,87259.13l0,-500" />
          <path d="M267925.52,87259.13l0,2965" />
          <path d="M267425.52,86759.13l0,3465" />
          <path d="M200505.52,91059.13l-805,0" />
          <path d="M199700.52,91059.13l0,500" />
          <path d="M199700.52,91559.13l305,0" />
          <path d="M190725.52,91559.13l2475,0" />
          <path d="M193200.52,91559.13l0,-500" />
          <path d="M193200.52,91059.13l-2975,0" />
          <path d="M198200.52,91059.13l-3200,0" />
          <path d="M195000.52,91059.13l0,500" />
          <path d="M195000.52,91559.13l3200,0" />
          <path d="M198200.52,91559.13l0,-500" />
          <path d="M262795.52,99259.13l0,5900" />
          <path d="M262485.52,98759.13l0,6780" />
          <path d="M279305.52,99259.13l-6000,0" />
          <path d="M279305.52,98759.13l-6380,0" />
          <path d="M261635.52,114439.13l0,-6140" />
          <path d="M262325.52,114939.13l0,-7020" />
          <path d="M207235.52,114939.13l0,-6640" />
          <path d="M207925.52,115439.13l0,-7520" />
          <path d="M190225.52,115439.13l2540,0" />
          <path d="M192765.52,115439.13l0,-500" />
          <path d="M192765.52,114939.13l-2040,0" />
          <path d="M207235.52,114939.13l-1970,0" />
          <path d="M205265.52,114939.13l0,500" />
          <path d="M205265.52,115439.13l2470,0" />
          <path d="M194765.52,115439.13l1500,0" />
          <path d="M196265.52,115439.13l0,-500" />
          <path d="M196265.52,114939.13l-1500,0" />
          <path d="M194765.52,114939.13l0,500" />
          <path d="M198265.52,115439.13l1500,0" />
          <path d="M199765.52,115439.13l0,-500" />
          <path d="M199765.52,114939.13l-1500,0" />
          <path d="M198265.52,114939.13l0,500" />
          <path d="M201765.52,115439.13l1500,0" />
          <path d="M203265.52,115439.13l0,-500" />
          <path d="M203265.52,114939.13l-1500,0" />
          <path d="M201765.52,114939.13l0,500" />
          <path d="M278805.52,107919.13l0,380" />
          <path d="M278805.52,108299.13l500,0" />
          <path d="M266915.52,108299.13l940,0" />
          <path d="M267855.52,108299.13l0,-380" />
          <path d="M267855.52,107919.13l-940,0" />
          <path d="M277805.52,107919.13l-8450,0" />
          <path d="M269355.52,107919.13l0,380" />
          <path d="M269355.52,108299.13l8450,0" />
          <path d="M277805.52,108299.13l0,-380" />
          <path d="M262325.52,107919.13l-940,0" />
          <path d="M261385.52,107919.13l0,380" />
          <path d="M261385.52,108299.13l250,0" />
          <path d="M247805.52,108299.13l750,0" />
          <path d="M248555.52,108299.13l0,-380" />
          <path d="M248555.52,107919.13l-940,0" />
          <path d="M259885.52,107919.13l-10330,0" />
          <path d="M249555.52,107919.13l0,380" />
          <path d="M249555.52,108299.13l10330,0" />
          <path d="M207925.52,107919.13l-4940,0" />
          <path d="M202985.52,107919.13l0,380" />
          <path d="M202985.52,108299.13l4250,0" />
          <path d="M191525.52,108299.13l1477.5,0" />
          <path d="M193003.02,108299.13l0,-380" />
          <path d="M193003.02,107919.13l-1477.5,0" />
          <path d="M201485.52,107919.13l-3605,0" />
          <path d="M197880.52,108299.13l3605,0" />
          <path d="M197880.52,107919.13l-3877.5,0" />
          <path d="M194003.02,107919.13l0,380" />
          <path d="M194003.02,108299.13l3877.5,0" />
          <path d="M270325.52,105159.13l-3020,0" />
          <path d="M267305.52,105159.13l0,380" />
          <path d="M267305.52,105539.13l3400,0" />
          <path d="M266015.52,105539.13l390,0" />
          <path d="M266405.52,105539.13l0,-380" />
          <path d="M266405.52,105159.13l-200,0" />
          <path d="M279805.52,115439.13l0,-4570" />
          <path d="M279805.52,110869.13l-500,0" />
          <path d="M279305.52,108869.13l0,6070" />
          <path d="M279305.52,108299.13l0,570" />
          <path d="M279305.52,108869.13l500,0" />
          <path d="M279805.52,108869.13l0,-760" />
          <path d="M207235.52,105159.13l0,-5900" />
          <path d="M207925.52,105539.13l0,-6780" />
          <path d="M261635.52,105539.13l0,-6280" />
          <path d="M262325.52,105539.13l0,-6780" />
          <path d="M261635.52,105539.13l690,0" />
          <path d="M208395.52,99259.13l0,6280" />
          <path d="M208085.52,98759.13l0,6780" />
          <path d="M208395.52,105539.13l-310,0" />
          <path d="M262325.52,98759.13l-1110,0" />
          <path d="M261215.52,98759.13l0,500" />
          <path d="M261215.52,99259.13l420,0" />
          <path d="M258605.52,99259.13l610,0" />
          <path d="M259215.52,99259.13l0,-500" />
          <path d="M259215.52,98759.13l-800,0" />
          <path d="M207925.52,98759.13l-1110,0" />
          <path d="M206815.52,98759.13l0,500" />
          <path d="M206815.52,99259.13l420,0" />
          <path d="M203415.52,99259.13l1400,0" />
          <path d="M204815.52,99259.13l0,-500" />
          <path d="M204815.52,98759.13l-1590,0" />
          <path d="M190725.52,91559.13l0,3380" />
          <path d="M190225.52,91059.13l0,4380" />
          <path d="M247615.52,114939.13l800,0" />
          <path d="M248415.52,114939.13l0,-500" />
          <path d="M248415.52,114439.13l-610,0" />
          <path d="M261635.52,114439.13l-420,0" />
          <path d="M261215.52,114439.13l0,500" />
          <path d="M261215.52,114939.13l1110,0" />
          <path d="M250415.52,114939.13l1600,0" />
          <path d="M252015.52,114939.13l0,-500" />
          <path d="M252015.52,114439.13l-1600,0" />
          <path d="M250415.52,114439.13l0,500" />
          <path d="M254015.52,114939.13l1600,0" />
          <path d="M255615.52,114939.13l0,-500" />
          <path d="M255615.52,114439.13l-1600,0" />
          <path d="M254015.52,114439.13l0,500" />
          <path d="M257615.52,114939.13l1600,0" />
          <path d="M259215.52,114939.13l0,-500" />
          <path d="M259215.52,114439.13l-1600,0" />
          <path d="M257615.52,114439.13l0,500" />
          <path d="M258225.52,105159.13l-250,0" />
          <path d="M257975.52,105159.13l0,380" />
          <path d="M257975.52,105539.13l630,0" />
          <path d="M247615.52,105539.13l5060,0" />
          <path d="M256975.52,105159.13l-2800,0" />
          <path d="M252713.02,105159.13l-4907.5,0" />
          <path d="M254175.52,105539.13l2800,0" />
          <path d="M256975.52,105539.13l0,-380" />
          <path d="M254175.52,105539.13l0,-380" />
          <path d="M252675.52,105539.13l0,-380" />
          <path d="M258415.52,98759.13l-800,0" />
          <path d="M257615.52,98759.13l0,500" />
          <path d="M257615.52,99259.13l610,0" />
          <path d="M247805.52,99259.13l610,0" />
          <path d="M248415.52,99259.13l0,-500" />
          <path d="M248415.52,98759.13l-800,0" />
          <path d="M255615.52,98759.13l-1600,0" />
          <path d="M254015.52,98759.13l0,500" />
          <path d="M254015.52,99259.13l1600,0" />
          <path d="M255615.52,99259.13l0,-500" />
          <path d="M252015.52,98759.13l-1600,0" />
          <path d="M250415.52,98759.13l0,500" />
          <path d="M250415.52,99259.13l1600,0" />
          <path d="M252015.52,99259.13l0,-500" />
          <path d="M258225.52,105159.13l0,-5900" />
          <path d="M258605.52,105539.13l0,-6280" />
          <path d="M262485.52,115439.13l2280,0" />
          <path d="M264765.52,115439.13l0,-500" />
          <path d="M264765.52,114939.13l-1970,0" />
          <path d="M266915.52,114939.13l-150,0" />
          <path d="M266765.52,114939.13l0,500" />
          <path d="M266765.52,115439.13l150,0" />
          <path d="M222415.52,114939.13l800,0" />
          <path d="M223215.52,114939.13l0,-500" />
          <path d="M223215.52,114439.13l-610,0" />
          <path d="M247425.52,114439.13l-610,0" />
          <path d="M246815.52,114439.13l0,500" />
          <path d="M246815.52,114939.13l800,0" />
          <path d="M225215.52,114939.13l1600,0" />
          <path d="M226815.52,114439.13l-1600,0" />
          <path d="M225215.52,114439.13l0,500" />
          <path d="M228815.52,114939.13l1600,0" />
          <path d="M230415.52,114939.13l0,-500" />
          <path d="M232415.52,114439.13l-3600,0" />
          <path d="M228815.52,114439.13l0,500" />
          <path d="M232415.52,114939.13l1600,0" />
          <path d="M234015.52,114939.13l0,-500" />
          <path d="M234015.52,114439.13l-1600,0" />
          <path d="M232415.52,114439.13l0,500" />
          <path d="M236015.52,114939.13l1600,0" />
          <path d="M237615.52,114939.13l0,-500" />
          <path d="M237615.52,114439.13l-1600,0" />
          <path d="M236015.52,114439.13l0,500" />
          <path d="M239615.52,114939.13l1600,0" />
          <path d="M241215.52,114939.13l0,-500" />
          <path d="M241215.52,114439.13l-1600,0" />
          <path d="M239615.52,114439.13l0,500" />
          <path d="M243215.52,114939.13l1600,0" />
          <path d="M244815.52,114939.13l0,-500" />
          <path d="M244815.52,114439.13l-1600,0" />
          <path d="M243215.52,114439.13l0,500" />
          <path d="M247425.52,114439.13l0,-6140" />
          <path d="M247805.52,114439.13l0,-6140" />
          <path d="M222225.52,114439.13l0,-6140" />
          <path d="M222605.52,114439.13l0,-6140" />
          <path d="M208085.52,114939.13l730,0" />
          <path d="M208815.52,114939.13l0,-500" />
          <path d="M208815.52,114439.13l-420,0" />
          <path d="M211540.52,114439.13l-725,0" />
          <path d="M210815.52,114439.13l0,500" />
          <path d="M210815.52,114939.13l800,0" />
          <path d="M247425.52,105159.13l-250,0" />
          <path d="M247175.52,105159.13l0,380" />
          <path d="M247175.52,105539.13l440,0" />
          <path d="M222415.52,105539.13l5777.18,0" />
          <path d="M228192.7,105539.13l0,-380" />
          <path d="M228192.7,105159.13l-5587.18,0" />
          <path d="M246175.52,105159.13l-3250,0" />
          <path d="M242925.52,105159.13l0,380" />
          <path d="M242925.52,105539.13l3250,0" />
          <path d="M246175.52,105539.13l0,-380" />
          <path d="M241425.52,105159.13l-9220,0" />
          <path d="M232205.52,105539.13l9220,0" />
          <path d="M241425.52,105539.13l0,-380" />
          <path d="M230705.52,105159.13l-1612.82,0" />
          <path d="M229092.7,105159.13l0,380" />
          <path d="M229092.7,105539.13l1612.82,0" />
          <path d="M230705.52,105539.13l0,-380" />
          <path d="M247615.52,98759.13l-800,0" />
          <path d="M246815.52,98759.13l0,500" />
          <path d="M246815.52,99259.13l610,0" />
          <path d="M222605.52,99259.13l610,0" />
          <path d="M223215.52,99259.13l0,-500" />
          <path d="M223215.52,98759.13l-800,0" />
          <path d="M244815.52,98759.13l-1600,0" />
          <path d="M243215.52,98759.13l0,500" />
          <path d="M243215.52,99259.13l1600,0" />
          <path d="M244815.52,99259.13l0,-500" />
          <path d="M241215.52,98759.13l-1600,0" />
          <path d="M239615.52,98759.13l0,500" />
          <path d="M239615.52,99259.13l1600,0" />
          <path d="M241215.52,99259.13l0,-500" />
          <path d="M237615.52,98759.13l-1600,0" />
          <path d="M236015.52,98759.13l0,500" />
          <path d="M236015.52,99259.13l1600,0" />
          <path d="M237615.52,99259.13l0,-500" />
          <path d="M234015.52,98759.13l-1600,0" />
          <path d="M232415.52,98759.13l0,500" />
          <path d="M232415.52,99259.13l1600,0" />
          <path d="M234015.52,99259.13l0,-500" />
          <path d="M230415.52,98759.13l-1600,0" />
          <path d="M228815.52,98759.13l0,500" />
          <path d="M228815.52,99259.13l1600,0" />
          <path d="M230415.52,99259.13l0,-500" />
          <path d="M226815.52,98759.13l-1600,0" />
          <path d="M225215.52,98759.13l0,500" />
          <path d="M225215.52,99259.13l1600,0" />
          <path d="M226815.52,99259.13l0,-500" />
          <path d="M247425.52,105159.13l0,-5900" />
          <path d="M247805.52,105159.13l0,-5900" />
          <path d="M222225.52,105159.13l0,-5900" />
          <path d="M222605.52,105159.13l0,-5900" />
          <path d="M266015.52,98759.13l-800,0" />
          <path d="M265215.52,98759.13l0,500" />
          <path d="M265215.52,99259.13l610,0" />
          <path d="M262795.52,99259.13l420,0" />
          <path d="M263215.52,99259.13l0,-500" />
          <path d="M263215.52,98759.13l-730,0" />
          <path d="M265825.52,105159.13l-1160,0" />
          <path d="M264665.52,105159.13l0,380" />
          <path d="M264665.52,105539.13l1350,0" />
          <path d="M262485.52,105539.13l1280,0" />
          <path d="M263765.52,105539.13l0,-380" />
          <path d="M263765.52,105159.13l-970,0" />
          <path d="M265825.52,105159.13l0,-5900" />
          <path d="M266205.52,105159.13l0,-5900" />
          <path d="M270705.52,99259.13l0,6280" />
          <path d="M270945.52,98759.13l0,500" />
          <path d="M270325.52,99259.13l0,5900" />
          <path d="M279805.52,98949.13l0,-500" />
          <path d="M279805.52,98449.13l-500,0" />
          <path d="M279305.52,90449.13l0,8310" />
          <path d="M279305.52,95449.13l0,1000" />
          <path d="M279305.52,96449.13l500,0" />
          <path d="M279805.52,96449.13l0,-375" />
          <path d="M211615.52,98759.13l-800,0" />
          <path d="M210815.52,98759.13l0,500" />
          <path d="M210815.52,99259.13l610,0" />
          <path d="M208395.52,99259.13l420,0" />
          <path d="M208815.52,99259.13l0,-500" />
          <path d="M208815.52,98759.13l-730,0" />
          <path d="M200505.52,98759.13l0,-900" />
          <path d="M200505.52,97859.13l-500,0" />
          <path d="M200005.52,97859.13l0,1400" />
          <path d="M200005.52,91559.13l0,1100" />
          <path d="M200005.52,92659.13l500,0" />
          <path d="M200505.52,92659.13l0,-1600" />
          <path d="M200505.52,95859.13l0,-1200" />
          <path d="M200505.52,94659.13l-500,0" />
          <path d="M200005.52,94659.13l0,1200" />
          <path d="M200005.52,95859.13l500,0" />
          <path d="M191025.52,95439.13l0,370" />
          <path d="M191025.52,95809.13l500,0" />
          <path d="M191525.52,98259.13l0,-3320" />
          <path d="M191525.52,107919.13l0,-510" />
          <path d="M191525.52,107409.13l-500,0" />
          <path d="M191025.52,107409.13l0,700" />
          <path d="M191025.52,97809.13l0,1200" />
          <path d="M191025.52,99009.13l500,0" />
          <path d="M191525.52,99009.13l0,-1200" />
          <path d="M191525.52,97809.13l-500,0" />
          <path d="M191025.52,101009.13l0,1200" />
          <path d="M191025.52,102209.13l500,0" />
          <path d="M191525.52,102209.13l0,-1200" />
          <path d="M191525.52,101009.13l-500,0" />
          <path d="M191025.52,104209.13l0,1200" />
          <path d="M191025.52,105409.13l500,0" />
          <path d="M191525.52,107409.13l0,-3200" />
          <path d="M191525.52,104209.13l-500,0" />
          <path d="M211425.52,105539.13l0,-6280" />
          <path d="M211805.52,105159.13l0,-5900" />
          <path d="M279805.52,108109.13l0,-430" />
          <path d="M279805.52,107679.13l-500,0" />
          <path d="M279305.52,107679.13l0,240" />
          <path d="M279305.52,105539.13l0,2140" />
          <path d="M279305.52,105679.13l500,0" />
          <path d="M279805.52,105679.13l0,-330" />
          <path d="M262795.52,108299.13l0,6640" />
          <path d="M262485.52,107919.13l0,7520" />
          <path d="M208395.52,108299.13l0,6140" />
          <path d="M208085.52,107919.13l0,7020" />
          <path d="M222415.52,107919.13l-990,0" />
          <path d="M221425.52,107919.13l0,380" />
          <path d="M221425.52,108299.13l800,0" />
          <path d="M220225.52,108299.13l0,-380" />
          <path d="M247615.52,107919.13l-440,0" />
          <path d="M247175.52,107919.13l0,380" />
          <path d="M247175.52,108299.13l250,0" />
          <path d="M222605.52,108299.13l1305,0" />
          <path d="M223910.52,108299.13l0,-380" />
          <path d="M223910.52,107919.13l-1495,0" />
          <path d="M246275.52,107919.13l-3465,0" />
          <path d="M242810.52,107919.13l0,380" />
          <path d="M242810.52,108299.13l3465,0" />
          <path d="M246275.52,108299.13l0,-380" />
          <path d="M241910.52,107919.13l-2700,0" />
          <path d="M239210.52,107919.13l0,380" />
          <path d="M239210.52,108299.13l2700,0" />
          <path d="M241910.52,108299.13l0,-380" />
          <path d="M238310.52,107919.13l-2700,0" />
          <path d="M235610.52,107919.13l0,380" />
          <path d="M235610.52,108299.13l2700,0" />
          <path d="M238310.52,108299.13l0,-380" />
          <path d="M234710.52,107919.13l-2700,0" />
          <path d="M232010.52,107919.13l0,380" />
          <path d="M232010.52,108299.13l2700,0" />
          <path d="M234710.52,108299.13l0,-380" />
          <path d="M231110.52,107919.13l-2700,0" />
          <path d="M228410.52,107919.13l0,380" />
          <path d="M228410.52,108299.13l2700,0" />
          <path d="M231110.52,108299.13l0,-380" />
          <path d="M227510.52,107919.13l-2700,0" />
          <path d="M224810.52,107919.13l0,380" />
          <path d="M224810.52,108299.13l2700,0" />
          <path d="M227510.52,108299.13l0,-380" />
          <path d="M272925.52,98759.13l0,5000" />
          <path d="M272925.52,103759.13l380,0" />
          <path d="M273305.52,103759.13l0,-4500" />
          <path d="M273305.52,105159.13l0,-400" />
          <path d="M273305.52,104759.13l-380,0" />
          <path d="M272925.52,104759.13l0,780" />
          <path d="M273305.52,105159.13l6000,0" />
          <path d="M272925.52,105539.13l6380,0" />
          <path d="M279805.52,105349.13l0,-900" />
          <path d="M279805.52,104449.13l-500,0" />
          <path d="M279305.52,104449.13l0,710" />
          <path d="M279305.52,99259.13l0,190" />
          <path d="M279305.52,99449.13l500,0" />
          <path d="M279805.52,99449.13l0,-500" />
          <path d="M279805.52,102449.13l0,-1000" />
          <path d="M279805.52,101449.13l-500,0" />
          <path d="M279305.52,101449.13l0,1000" />
          <path d="M279305.52,102449.13l500,0" />
          <path d="M267615.52,99259.13l-1410,0" />
          <path d="M267425.52,98759.13l-1410,0" />
          <path d="M270325.52,99259.13l-2710,0" />
          <path d="M270945.52,98759.13l-3020,0" />
          <path d="M254725.52,105159.13l180,0" class="cnc-2" />
          <path d="M254725.52,99259.13l180,0" class="cnc-2" />
          <path d="M222225.52,105159.13l-1110,0" />
          <path d="M221115.52,105159.13l0,380" />
          <path d="M221115.52,105539.13l1300,0" />
          <path d="M211425.52,105539.13l3340,0" />
          <path d="M214765.52,105159.13l-2960,0" />
          <path d="M220115.52,105159.13l-5350,0" />
          <path d="M214765.52,105539.13l5350,0" />
          <path d="M220115.52,105539.13l0,-380" />
          <path d="M222415.52,98759.13l-800,0" />
          <path d="M221615.52,98759.13l0,500" />
          <path d="M212415.52,99259.13l9810,0" />
          <path d="M211805.52,99259.13l610,0" />
          <path d="M212415.52,99259.13l0,-500" />
          <path d="M212415.52,98759.13l-800,0" />
          <path d="M219615.52,98759.13l-1600,0" />
          <path d="M218015.52,98759.13l0,500" />
          <path d="M218015.52,99259.13l1600,0" />
          <path d="M219615.52,99259.13l0,-500" />
          <path d="M216015.52,98759.13l-1600,0" />
          <path d="M214415.52,98759.13l0,500" />
          <path d="M214415.52,99259.13l1600,0" />
          <path d="M216015.52,99259.13l0,-500" />
          <path d="M200385.52,99259.13l0,5900" />
          <path d="M200005.52,99259.13l0,6280" />
          <path d="M200385.52,99259.13l-380,0" />
          <path d="M200005.52,105539.13l1630,0" />
          <path d="M201635.52,105539.13l0,-380" />
          <path d="M201635.52,105159.13l-1250,0" />
          <path d="M203035.52,105159.13l-500,0" />
          <path d="M202535.52,105159.13l0,380" />
          <path d="M202535.52,105539.13l690,0" />
          <path d="M203415.52,99259.13l0,5900" />
          <path d="M203035.52,99259.13l0,5900" />
          <path d="M203225.52,105539.13l690,0" />
          <path d="M203915.52,105539.13l0,-380" />
          <path d="M203915.52,105159.13l-500,0" />
          <path d="M207235.52,105159.13l-2420,0" />
          <path d="M204815.52,105159.13l0,380" />
          <path d="M204815.52,105539.13l3110,0" />
          <path d="M203225.52,98759.13l-410,0" />
          <path d="M202815.52,98759.13l0,500" />
          <path d="M202815.52,99259.13l220,0" />
          <path d="M200005.52,99259.13l810,0" />
          <path d="M200815.52,99259.13l0,-500" />
          <path d="M200815.52,98759.13l-310,0" />
          <path d="M191525.52,111499.13l-800,0" />
          <path d="M191025.52,111119.13l-800,0" />
          <path d="M191025.52,95439.13l-800,0" />
          <path d="M191525.52,94939.13l-800,0" />
          <path d="M191025.52,108109.13l0,500" />
          <path d="M191025.52,108609.13l500,0" />
          <path d="M191525.52,108609.13l0,-310" />
          <path d="M191525.52,111499.13l0,-2890" />
          <path d="M191525.52,110609.13l-500,0" />
          <path d="M191025.52,110609.13l0,510" />
          <path d="M190725.52,111499.13l0,3440" />
          <path d="M190225.52,111119.13l0,4320" />
          <path d="M229525.52,105159.13l0,-5900" />
          <path d="M229705.52,105159.13l0,-5900" />
          <path d="M229525.52,105159.13l180,0" />
          <path d="M229525.52,99259.13l180,0" />
          <path d="M225925.52,114439.13l0,-6140" />
          <path d="M226105.52,114439.13l0,-6140" />
          <path d="M225925.52,114439.13l180,0" />
          <path d="M225925.52,108299.13l180,0" />
          <path d="M229525.52,114439.13l0,-6140" />
          <path d="M229705.52,114439.13l0,-6140" />
          <path d="M229525.52,114439.13l180,0" />
          <path d="M229525.52,108299.13l180,0" />
          <path d="M243925.52,114439.13l0,-6140" />
          <path d="M244105.52,114439.13l0,-6140" />
          <path d="M243925.52,114439.13l180,0" />
          <path d="M243925.52,108299.13l180,0" />
          <path d="M218725.52,105159.13l180,0" />
          <path d="M218725.52,99259.13l180,0" />
          <path d="M243925.52,105159.13l0,-5900" />
          <path d="M244105.52,105159.13l0,-5900" />
          <path d="M243925.52,105159.13l180,0" />
          <path d="M243925.52,99259.13l180,0" />
          <path d="M233125.52,114439.13l0,-6140" />
          <path d="M233305.52,114439.13l0,-6140" />
          <path d="M233125.52,114439.13l180,0" />
          <path d="M233125.52,108299.13l180,0" />
          <path d="M240325.52,114439.13l0,-6140" />
          <path d="M240505.52,114439.13l0,-6140" />
          <path d="M240325.52,114439.13l180,0" />
          <path d="M240325.52,108299.13l180,0" />
          <path d="M273555.52,98759.13l120,0" />
          <path d="M211425.52,103289.13l0,-1539.27" />
          <path d="M211425.52,101637.16l0,-778.03" />
          <path d="M209800.52,103289.13l-1405,0" />
          <path d="M209800.52,103019.13l-1405,0" />
          <path d="M209800.52,102749.13l-1405,0" />
          <path d="M209799,102479.13l-1403.48,0" />
          <path d="M209800.52,102209.13l-304.25,0" />
          <path d="M209279.39,102209.13l-883.87,0" />
          <path d="M209800.52,101939.13l-823.87,0" />
          <path d="M211061.27,101939.13l364.25,0" />
          <path d="M209800.52,101669.13l-1343.48,0" />
          <path d="M209800.52,101399.13l-1405,0" />
          <path d="M209800.52,101129.13l-1405,0" />
          <path d="M209800.52,100859.13l-1405,0" />
          <path d="M209860.52,103289.13l0,-778.03" />
          <path d="M209860.52,102398.4l0,-1539.27" />
          <path d="M209860.52,102398.4l-641.62,-333.39" />
          <path d="M209860.52,102511.09l-663.95,-345" />
          <path d="M209196.57,102166.09l38.49,-174.23" />
          <path d="M209235.06,101991.86l-198.17,181.86" />
          <path d="M209036.89,102173.73l40.29,-182.37" />
          <path d="M209077.18,101991.36l-681.66,-354.2" />
          <path d="M209054.85,102092.45l-659.32,-342.6" />
          <path d="M208395.52,100859.13l0,2430" />
          <path d="M210020.52,100859.13l1405,0" />
          <path d="M210020.52,101129.13l1405,0" />
          <path d="M210020.52,101399.13l1405,0" />
          <path d="M210020.52,101669.13l1405,0" />
          <path d="M210020.52,101939.13l1405,0" />
          <path d="M210020.52,102209.13l1405,0" />
          <path d="M210020.52,102479.13l1405,0" />
          <path d="M210020.52,102749.13l1405,0" />
          <path d="M210020.52,103019.13l1405,0" />
          <path d="M210020.52,103289.13l1405,0" />
          <path d="M209960.52,100859.13l0,2430" />
          <path d="M209960.52,103379.13l-100,0" />
          <path d="M209860.52,103379.13l0,-868.03" />
          <path d="M209860.52,102398.4l0,-1629.27" />
          <path d="M209860.52,100769.13l100,0" />
          <path d="M209960.52,100769.13l0,2610" />
          <path d="M210020.52,103439.13l-220,0" />
          <path d="M209800.52,103439.13l0,-959.21" />
          <path d="M209800.52,102367.22l0,-1658.09" />
          <path d="M209800.52,100709.13l220,0" />
          <path d="M210020.52,100709.13l0,2730" />
          <path d="M211425.52,100859.13l0,-1600" />
          <path d="M211425.52,99259.13l-3030,0" />
          <path d="M208395.52,99259.13l0,1600" />
          <path d="M211425.52,100859.13l-1405,0" />
          <path d="M209960.52,100859.13l-100,0" />
          <path d="M209800.52,100859.13l-1405,0" />
          <path d="M209860.52,103289.13l100,0" />
          <path d="M258605.52,103289.13l0,-778.03" />
          <path d="M258605.52,102398.4l0,-1539.27" />
          <path d="M261635.52,103289.13l-1405,0" />
          <path d="M261635.52,103019.13l-1405,0" />
          <path d="M261635.52,102749.13l-1405,0" />
          <path d="M261574,102479.13l-1343.48,0" />
          <path d="M261635.52,102209.13l-364.25,0" />
          <path d="M261054.39,102209.13l-823.87,0" />
          <path d="M261635.52,101939.13l-883.87,0" />
          <path d="M260534.77,101939.13l-304.25,0" />
          <path d="M261635.52,101669.13l-1403.48,0" />
          <path d="M261635.52,101399.13l-1405,0" />
          <path d="M261635.52,101129.13l-1405,0" />
          <path d="M261635.52,100859.13l-1405,0" />
          <path d="M260170.52,103289.13l0,-1539.27" />
          <path d="M260170.52,101637.16l0,-778.03" />
          <path d="M261635.52,102398.4l-641.62,-333.39" />
          <path d="M261635.52,102511.09l-663.95,-345" />
          <path d="M260971.57,102166.09l38.49,-174.23" />
          <path d="M261010.06,101991.86l-198.17,181.86" />
          <path d="M260811.89,102173.73l40.29,-182.37" />
          <path d="M260852.18,101991.36l-681.66,-354.2" />
          <path d="M260829.85,102092.45l-659.32,-342.6" />
          <path d="M261635.52,100859.13l0,2430" />
          <path d="M258605.52,100859.13l1405,0" />
          <path d="M258605.52,101129.13l1405,0" />
          <path d="M258605.52,101399.13l1405,0" />
          <path d="M258605.52,101669.13l1405,0" />
          <path d="M258605.52,101939.13l1405,0" />
          <path d="M258605.52,102209.13l1405,0" />
          <path d="M258605.52,102479.13l1405,0" />
          <path d="M258605.52,102749.13l1405,0" />
          <path d="M258605.52,103019.13l1405,0" />
          <path d="M258605.52,103289.13l1405,0" />
          <path d="M260070.52,100859.13l0,2430" />
          <path d="M260010.52,103439.13l220,0" />
          <path d="M260230.52,103439.13l0,-1658.09" />
          <path d="M260230.52,101668.34l0,-959.21" />
          <path d="M260230.52,100709.13l-220,0" />
          <path d="M260010.52,100709.13l0,2730" />
          <path d="M260070.52,103379.13l100,0" />
          <path d="M260170.52,103379.13l0,-1629.27" />
          <path d="M260170.52,101637.16l0,-868.03" />
          <path d="M260170.52,100769.13l-100,0" />
          <path d="M260070.52,100769.13l0,2610" />
          <path d="M261635.52,100859.13l0,-1600" />
          <path d="M261635.52,99259.13l-3030,0" />
          <path d="M258605.52,99259.13l0,1600" />
          <path d="M261635.52,100859.13l-1405,0" />
          <path d="M260170.52,100859.13l-100,0" />
          <path d="M260010.52,100859.13l-1405,0" />
          <path d="M260170.52,103289.13l-100,0" />
          <path d="M211615.52,107919.13l-1220,0" />
          <path d="M210395.52,107919.13l0,380" />
          <path d="M208395.52,108299.13l800,0" />
          <path d="M209195.52,108299.13l0,-380" />
          <path d="M209195.52,107919.13l-1110,0" />
          <path d="M215290.52,108299.13l0,6140" />
          <path d="M215140.52,108299.13l0,6140" />
          <path d="M210395.52,108299.13l9830,0" />
          <path d="M220225.52,107919.13l-8610,0" />
          <path d="M251170.11,114439.13l0,-6140" />
          <path d="M251158.11,114439.13l0,-6140" />
          <path d="M251350.11,114439.13l0,-6140" />
          <path d="M251362.11,114439.13l0,-6140" />
          <path d="M251170.11,114439.13l180,0" />
          <path d="M251170.11,108299.13l180,0" />
          <path d="M272925.52,98759.13l-80,0" />
          <path d="M272845.52,98759.13l0,500" />
          <path d="M272845.52,99259.13l80,0" />
          <path d="M267425.52,90224.13l0,225" />
          <path d="M267425.52,90449.13l500,0" />
          <path d="M267925.52,90449.13l0,-225" />
          <path d="M267925.52,98759.13l0,-8310" />
          <path d="M267925.52,95449.13l-500,0" />
          <path d="M267425.52,95449.13l0,3310" />
          <path d="M267425.52,92449.13l0,1000" />
          <path d="M267425.52,93449.13l500,0" />
          <path d="M267925.52,92449.13l-500,0" />
          <path d="M211615.52,114939.13l800,0" />
          <path d="M212415.52,114939.13l0,-500" />
          <path d="M212415.52,114439.13l-725,0" />
          <path d="M215140.52,114439.13l-725,0" />
          <path d="M214415.52,114439.13l0,500" />
          <path d="M214415.52,114939.13l800,0" />
          <path d="M215215.52,114939.13l800,0" />
          <path d="M216015.52,114939.13l0,-500" />
          <path d="M216015.52,114439.13l-875,0" />
          <path d="M218740.52,114439.13l-725,0" />
          <path d="M218015.52,114439.13l0,500" />
          <path d="M218015.52,114939.13l800,0" />
          <path d="M218815.52,114939.13l800,0" />
          <path d="M219615.52,114939.13l0,-500" />
          <path d="M219615.52,114439.13l-725,0" />
          <path d="M222225.52,114439.13l-610,0" />
          <path d="M221615.52,114439.13l0,500" />
          <path d="M221615.52,114939.13l800,0" />
          <path d="M279805.52,96074.13l0,-625" />
          <path d="M279805.52,95449.13l-500,0" />
          <path d="M279305.52,87259.13l0,3190" />
          <path d="M279305.52,90449.13l500,0" />
          <path d="M279805.52,90449.13l0,-3690" />
          <path d="M279805.52,93449.13l0,-1000" />
          <path d="M279805.52,92449.13l-500,0" />
          <path d="M279305.52,92449.13l0,1000" />
          <path d="M279305.52,93449.13l500,0" />
          <path d="M191525.52,95089.13l0,-150" />
          <path d="M236890.52,108299.13l-150,0" />
          <path d="M236890.52,114439.13l-150,0" />
          <path d="M191525.52,98509.13l0,-120" />
          <path d="M266915.52,107919.13l-2120,0" />
          <path d="M264795.52,107919.13l0,380" />
          <path d="M264795.52,108299.13l2120,0" />
          <path d="M262795.52,108299.13l1000,0" />
          <path d="M263795.52,108299.13l0,-380" />
          <path d="M263795.52,107919.13l-1310,0" />
          <path d="M266915.52,115439.13l1350,0" />
          <path d="M268265.52,115439.13l0,-500" />
          <path d="M268265.52,114939.13l-1350,0" />
          <path d="M279305.52,114939.13l-2040,0" />
          <path d="M277265.52,114939.13l0,500" />
          <path d="M277265.52,115439.13l2540,0" />
          <path d="M270265.52,115439.13l1500,0" />
          <path d="M271765.52,115439.13l0,-500" />
          <path d="M271765.52,114939.13l-1500,0" />
          <path d="M270265.52,114939.13l0,500" />
          <path d="M273765.52,115439.13l1500,0" />
          <path d="M275265.52,115439.13l0,-500" />
          <path d="M275265.52,114939.13l-1500,0" />
          <path d="M273765.52,114939.13l0,500" />
          <path d="M197825.39,91565.37l0,813.76l-380,0l0,-813.76" />
          <path d="M270855.52,87309.13l0,525.98" />
          <path d="M270855.52,87915.1l0,525.98" />
          <path d="M270795.52,87309.13l0,525.98" />
          <path d="M270795.52,87915.1l0,525.98" />
          <path d="M270820.52,87309.13l0,525.98" />
          <path d="M270820.52,87915.1l0,525.98" />
          <path d="M270830.52,87309.13l0,525.98" />
          <path d="M270830.52,87915.1l0,525.98" />
          <path d="M270855.52,91141.08l0,810" />
          <path d="M270855.52,92031.08l0,820" />
          <path d="M270855.52,94731.08l0,820" />
          <path d="M270855.52,92931.08l0,820" />
          <path d="M270855.52,93831.08l0,820" />
          <path d="M270855.52,95631.08l0,820" />
          <path d="M270855.52,96531.08l0,820" />
          <path d="M270795.52,92031.08l0,820" />
          <path d="M270855.52,97431.08l0,820" />
          <path d="M270855.52,98331.08l0,378.05" />
          <path d="M270795.52,91141.08l0,810" />
          <path d="M270795.52,95631.08l0,820" />
          <path d="M270795.52,92931.08l0,820" />
          <path d="M270795.52,93831.08l0,820" />
          <path d="M270795.52,94731.08l0,820" />
          <path d="M270820.52,93831.08l0,820" />
          <path d="M270795.52,96531.08l0,820" />
          <path d="M270795.52,97431.08l0,820" />
          <path d="M270795.52,98331.08l0,378.05" />
          <path d="M270820.52,91141.08l0,810" />
          <path d="M270820.52,92031.08l0,820" />
          <path d="M270820.52,92931.08l0,820" />
          <path d="M270820.52,94731.08l0,820" />
          <path d="M270820.52,97431.08l0,820" />
          <path d="M270820.52,95631.08l0,820" />
          <path d="M270820.52,96531.08l0,820" />
          <path d="M270820.52,98331.08l0,378.05" />
          <path d="M270830.52,92031.08l0,820" />
          <path d="M270830.52,91141.08l0,810" />
          <path d="M270830.52,94731.08l0,820" />
          <path d="M270830.52,92931.08l0,820" />
          <path d="M270830.52,93831.08l0,820" />
          <path d="M270830.52,95631.08l0,820" />
          <path d="M270830.52,96531.08l0,820" />
          <path d="M270830.52,97431.08l0,820" />
          <path d="M270830.52,98331.08l0,378.05" />
          <path d="M269755.52,89761.08l-820,0" />
          <path d="M270785.52,89821.08l-950,0" />
          <path d="M269755.52,89821.08l-820,0" />
          <path d="M268855.52,89821.08l-880,0" />
          <path d="M270785.52,89761.08l-950,0" />
          <path d="M269755.52,89786.08l-820,0" />
          <path d="M268855.52,89761.08l-880,0" />
          <path d="M270785.52,89786.08l-950,0" />
          <path d="M269755.52,89796.08l-820,0" />
          <path d="M268855.52,89786.08l-880,0" />
          <path d="M270785.52,89796.08l-950,0" />
          <path d="M268855.52,89796.08l-880,0" />
          <path d="M270855.52,89541.08l0,210" />
          <path d="M270855.52,89831.08l0,210" />
          <path d="M270820.52,89541.08l0,210" />
          <path d="M270795.52,89541.08l0,210" />
          <path d="M270795.52,89831.08l0,210" />
          <path d="M270830.52,89831.08l0,210" />
          <path d="M270820.52,89831.08l0,210" />
          <path d="M270830.52,89541.08l0,210" />
          <path d="M270705.52,99259.13l240,0" />
          <path d="M201485.52,108299.13l0,-380" />
          <path d="M278805.52,107919.13l500,0" />
          <path d="M232205.52,105539.13l0,-380" />
          <use xlink:href="#$TCHSYS$WIN2D_1800x500" x="275075.52" y="87009.13" transform="scale(1,-1) translate(0,-174018.26) rotate(-180,275075.52,87009.13)">.<g class="blkclass0"><text transform="translate(-580,-487.43)" font-size="386.75">WC1824</text></g></use>
          <use xlink:href="#$TCHSYS$WIN2D_1800x500" x="272155.52" y="87009.13" transform="scale(-1,-1) translate(-544311.04,-174018.26) rotate(-180,272155.52,87009.13)">.<g class="blkclass0"><text transform="translate(-580,-536.94)" font-size="386.75">WC1824</text></g></use>
          <use xlink:href="#$TCHSYS$WIN2D_2000x500" x="267675.52" y="91449.13" transform="scale(-1,1) translate(-535351.04,0) rotate(-90,267675.52,91449.13)">.<g class="blkclass0"><text transform="rotate(-90 -513.81,560.36) translate(-513.81,560.36)" font-size="386.75">WC2024</text></g></use>
          <use xlink:href="#$TCHSYS$WIN2D_2000x500" x="267675.52" y="94449.13" transform="rotate(-270,267675.52,94449.13)">.<g class="blkclass0"><text transform="rotate(-90 -462.6,570.22) translate(-462.6,570.22)" font-size="386.75">WC2024</text></g></use>
          <use xlink:href="#$TCHSYS$WIN2D_1500x500" x="198950.52" y="91309.13" transform="scale(1,-1) translate(0,-182618.26) rotate(-180,198950.52,91309.13)">.<g class="blkclass0"><text transform="translate(-569.62,-482.83)" font-size="386.75">WC1524</text></g></use>
          <use xlink:href="#$TCHSYS$WIN2D_1800x500" x="194100.52" y="91309.13" transform="scale(-1,-1) translate(-388201.04,-182618.26) rotate(-180,194100.52,91309.13)">.<g class="blkclass0"><text transform="translate(-633.02,-554.77)" font-size="386.75">WC1824</text></g></use>
          <use xlink:href="#$TCHSYS$WIN2D_2000x500" x="209815.52" y="114689.13">.<g class="blkclass0"><text transform="translate(-600,798.75)" font-size="386.75">WC2024</text></g></use>
          <use xlink:href="#$TCHSYS$WIN2D_2000x500" x="193765.52" y="115189.13">.<g class="blkclass0"><text transform="translate(-600,798.75)" font-size="386.75">WC2024</text></g></use>
          <use xlink:href="#$TCHSYS$WIN2D_2000x500" x="197265.52" y="115189.13">.<g class="blkclass0"><text transform="translate(-600,798.75)" font-size="386.75">WC2024</text></g></use>
          <use xlink:href="#$TCHSYS$WIN2D_2000x500" x="200765.52" y="115189.13">.<g class="blkclass0"><text transform="translate(-600,798.75)" font-size="386.75">WC2024</text></g></use>
          <use xlink:href="#$TCHSYS$WIN2D_2000x500" x="204265.52" y="115189.13">.<g class="blkclass0"><text transform="translate(-600,798.75)" font-size="386.75">WC2024</text></g></use>
          <use xlink:href="#$TCHSYS$WIN2D_2000x500" x="279555.52" y="109869.13" transform="scale(1,-1) translate(0,-219738.26) rotate(-270,279555.52,109869.13)">.<g class="blkclass0"><text transform="rotate(-90 671,600) translate(671,600)" font-size="386.75">WC2024</text></g></use>
          <use xlink:href="#$TCHSYS$WIN2D_2000x500" x="260215.52" y="99009.13" transform="scale(-1,-1) translate(-520431.04,-198018.26) rotate(-180,260215.52,99009.13)">.<g class="blkclass0"><text transform="translate(-483.04,-464.34)" font-size="386.75">WC2024</text></g></use>
          <use xlink:href="#$TCHSYS$WIN2D_2000x500" x="205815.52" y="99009.13" transform="scale(-1,-1) translate(-411631.04,-198018.26) rotate(-180,205815.52,99009.13)">.<g class="blkclass0"><text transform="translate(-600,-473.83)" font-size="386.75">WC2024</text></g></use>
          <use xlink:href="#$TCHSYS$WIN2D_2000x500" x="260215.52" y="114689.13">.<g class="blkclass0"><text transform="translate(-600,798.75)" font-size="386.75">WC2024</text></g></use>
          <use xlink:href="#$TCHSYS$WIN2D_2000x500" x="253015.52" y="114689.13">.<g class="blkclass0"><text transform="translate(-600,798.75)" font-size="386.75">WC2024</text></g></use>
          <use xlink:href="#$TCHSYS$WIN2D_2000x500" x="256615.52" y="114689.13">.<g class="blkclass0"><text transform="translate(-600,798.75)" font-size="386.75">WC2024</text></g></use>
          <use xlink:href="#$TCHSYS$WIN2D_2000x500" x="249415.52" y="114689.13">.<g class="blkclass0"><text transform="translate(-600,798.75)" font-size="386.75">WC2024</text></g></use>
          <use xlink:href="#$TCHSYS$WIN2D_2000x500" x="256615.52" y="99009.13" transform="scale(-1,-1) translate(-513231.04,-198018.26) rotate(-180,256615.52,99009.13)">.<g class="blkclass0"><text transform="translate(-598.9,-407.76)" font-size="386.75">WC2024</text></g></use>
          <use xlink:href="#$TCHSYS$WIN2D_2000x500" x="253015.52" y="99009.13" transform="scale(-1,-1) translate(-506031.04,-198018.26) rotate(-180,253015.52,99009.13)">.<g class="blkclass0"><text transform="translate(-544.57,-408.07)" font-size="386.75">WC2024</text></g></use>
          <use xlink:href="#$TCHSYS$WIN2D_2000x500" x="249415.52" y="99009.13" transform="scale(1,-1) translate(0,-198018.26) rotate(-180,249415.52,99009.13)">.<g class="blkclass0"><text transform="translate(-604.76,-393.79)" font-size="386.75">WC2024</text></g></use>
          <use xlink:href="#$TCHSYS$WIN2D_2000x500" x="276265.52" y="115189.13" transform="scale(-1,1) translate(-552531.04,0)">.<g class="blkclass0"><text transform="translate(-600,798.75)" font-size="386.75">WC2024</text></g></use>
          <use xlink:href="#$TCHSYS$WIN2D_2000x500" x="272765.52" y="115189.13" transform="scale(-1,1) translate(-545531.04,0)">.<g class="blkclass0"><text transform="translate(-600,798.75)" font-size="386.75">WC2024</text></g></use>
          <use xlink:href="#$TCHSYS$WIN2D_2000x500" x="269265.52" y="115189.13" transform="scale(-1,1) translate(-538531.04,0)">.<g class="blkclass0"><text transform="translate(-600,798.75)" font-size="386.75">WC2024</text></g></use>
          <use xlink:href="#$TCHSYS$WIN2D_2000x500" x="265765.52" y="115189.13" transform="scale(-1,1) translate(-531531.04,0)">.<g class="blkclass0"><text transform="translate(-600,798.75)" font-size="386.75">WC2024</text></g></use>
          <use xlink:href="#$TCHSYS$WIN2D_2000x500" x="245815.52" y="114689.13" transform="scale(-1,-1) translate(-491631.04,-229378.26)">.<g class="blkclass0"><text transform="translate(-600,798.75)" font-size="386.75">WC2024</text></g></use>
          <use xlink:href="#$TCHSYS$WIN2D_2000x500" x="242215.52" y="114689.13" transform="scale(-1,-1) translate(-484431.04,-229378.26)">.<g class="blkclass0"><text transform="translate(-600,798.75)" font-size="386.75">WC2024</text></g></use>
          <use xlink:href="#$TCHSYS$WIN2D_2000x500" x="238615.52" y="114689.13">.<g class="blkclass0"><text transform="translate(-600,798.75)" font-size="386.75">WC2024</text></g></use>
          <use xlink:href="#$TCHSYS$WIN2D_2000x500" x="235015.52" y="114689.13">.<g class="blkclass0"><text transform="translate(-600,770.95)" font-size="386.75">WC2024</text></g></use>
          <use xlink:href="#$TCHSYS$WIN2D_2000x500" x="231415.52" y="114689.13">.<g class="blkclass0"><text transform="translate(-600,798.75)" font-size="386.75">WC2024</text></g></use>
          <use xlink:href="#$TCHSYS$WIN2D_2000x500" x="227815.52" y="114689.13">.<g class="blkclass0"><text transform="translate(-600,798.75)" font-size="386.75">WC2024</text></g></use>
          <use xlink:href="#$TCHSYS$WIN2D_2000x500" x="224215.52" y="114689.13">.<g class="blkclass0"><text transform="translate(-600,798.75)" font-size="386.75">WC2024</text></g></use>
          <use xlink:href="#$TCHSYS$WIN2D_2000x500" x="213415.52" y="114689.13">.<g class="blkclass0"><text transform="translate(-600,798.75)" font-size="386.75">WC2024</text></g></use>
          <use xlink:href="#$TCHSYS$WIN2D_2000x500" x="217015.52" y="114689.13">.<g class="blkclass0"><text transform="translate(-600,798.75)" font-size="386.75">WC2024</text></g></use>
          <use xlink:href="#$TCHSYS$WIN2D_2000x500" x="220615.52" y="114689.13">.<g class="blkclass0"><text transform="translate(-600,798.75)" font-size="386.75">WC2024</text></g></use>
          <use xlink:href="#$TCHSYS$WIN2D_2000x500" x="245815.52" y="99009.13" transform="scale(1,-1) translate(0,-198018.26) rotate(-180,245815.52,99009.13)">.<g class="blkclass0"><text transform="translate(-536.41,-422.88)" font-size="386.75">WC2024</text></g></use>
          <use xlink:href="#$TCHSYS$WIN2D_2000x500" x="242215.52" y="99009.13" transform="scale(1,-1) translate(0,-198018.26) rotate(-180,242215.52,99009.13)">.<g class="blkclass0"><text transform="translate(-608.22,-392.9)" font-size="386.75">WC2024</text></g></use>
          <use xlink:href="#$TCHSYS$WIN2D_2000x500" x="238615.52" y="99009.13" transform="scale(1,-1) translate(0,-198018.26) rotate(-180,238615.52,99009.13)">.<g class="blkclass0"><text transform="translate(-610.03,-408.36)" font-size="386.75">WC2024</text></g></use>
          <use xlink:href="#$TCHSYS$WIN2D_2000x500" x="235015.52" y="99009.13" transform="scale(1,-1) translate(0,-198018.26) rotate(-180,235015.52,99009.13)">.<g class="blkclass0"><text transform="translate(-526.05,-438.12)" font-size="386.75">WC2024</text></g></use>
          <use xlink:href="#$TCHSYS$WIN2D_2000x500" x="231415.52" y="99009.13" transform="scale(1,-1) translate(0,-198018.26) rotate(-180,231415.52,99009.13)">.<g class="blkclass0"><text transform="translate(-600,-398.24)" font-size="386.75">WC2024</text></g></use>
          <use xlink:href="#$TCHSYS$WIN2D_2000x500" x="227815.52" y="99009.13" transform="scale(1,-1) translate(0,-198018.26) rotate(-180,227815.52,99009.13)">.<g class="blkclass0"><text transform="translate(-600,-407.95)" font-size="386.75">WC2024</text></g></use>
          <use xlink:href="#$TCHSYS$WIN2D_2000x500" x="224215.52" y="99009.13" transform="scale(1,-1) translate(0,-198018.26) rotate(-180,224215.52,99009.13)">.<g class="blkclass0"><text transform="translate(-600,-398.28)" font-size="386.75">WC2024</text></g></use>
          <use xlink:href="#$TCHSYS$WIN2D_2000x500" x="264215.52" y="99009.13" transform="scale(1,-1) translate(0,-198018.26) rotate(-180,264215.52,99009.13)">.<g class="blkclass0"><text transform="translate(-564.97,-435.68)" font-size="386.75">WC2024</text></g></use>
          <use xlink:href="#$TCHSYS$WIN2D_2000x500" x="279555.52" y="97449.13" transform="scale(1,-1) translate(0,-194898.26) rotate(-270,279555.52,97449.13)">.<g class="blkclass0"><text transform="rotate(-90 703.12,600) translate(703.12,600)" font-size="386.75">WC2024</text></g></use>
          <use xlink:href="#$TCHSYS$WIN2D_2000x500" x="279555.52" y="91449.13" transform="scale(1,-1) translate(0,-182898.26) rotate(-270,279555.52,91449.13)">.<g class="blkclass0"><text transform="rotate(-90 849.95,555.44) translate(849.95,555.44)" font-size="386.75">WC2024</text></g></use>
          <use xlink:href="#$TCHSYS$WIN2D_2000x500" x="279555.52" y="94449.13" transform="scale(1,-1) translate(0,-188898.26) rotate(-270,279555.52,94449.13)">.<g class="blkclass0"><text transform="rotate(-90 735.47,583.31) translate(735.47,583.31)" font-size="386.75">WC2024</text></g></use>
          <use xlink:href="#$TCHSYS$WIN2D_2000x500" x="279555.52" y="100449.13" transform="scale(1,-1) translate(0,-200898.26) rotate(-270,279555.52,100449.13)">.<g class="blkclass0"><text transform="rotate(-90 735.17,600) translate(735.17,600)" font-size="386.75">WC2024</text></g></use>
          <use xlink:href="#$TCHSYS$WIN2D_2000x500" x="279555.52" y="103449.13" transform="scale(1,-1) translate(0,-206898.26) rotate(-270,279555.52,103449.13)">.<g class="blkclass0"><text transform="rotate(-90 751.73,780) translate(751.73,780)" font-size="386.75">WC2024</text></g></use>
          <use xlink:href="#$TCHSYS$WIN2D_2000x500" x="209815.52" y="99009.13" transform="scale(-1,-1) translate(-419631.04,-198018.26) rotate(-180,209815.52,99009.13)">.<g class="blkclass0"><text transform="translate(-600,-380.35)" font-size="386.75">WC2024</text></g></use>
          <use xlink:href="#$TCHSYS$WIN2D_2000x500" x="220615.52" y="99009.13" transform="scale(-1,-1) translate(-441231.04,-198018.26) rotate(-180,220615.52,99009.13)">.<g class="blkclass0"><text transform="translate(-600,-462.98)" font-size="386.75">WC2024</text></g></use>
          <use xlink:href="#$TCHSYS$WIN2D_2000x500" x="217015.52" y="99009.13" transform="scale(-1,-1) translate(-434031.04,-198018.26) rotate(-180,217015.52,99009.13)">.<g class="blkclass0"><text transform="translate(-600,-455.31)" font-size="386.75">WC2024</text></g></use>
          <use xlink:href="#$TCHSYS$WIN2D_2000x500" x="213415.52" y="99009.13" transform="scale(-1,-1) translate(-426831.04,-198018.26) rotate(-180,213415.52,99009.13)">.<g class="blkclass0"><text transform="translate(-600,-416.87)" font-size="386.75">WC2024</text></g></use>
          <use xlink:href="#$TCHSYS$WIN2D_2000x500" x="200255.52" y="93659.13" transform="scale(1,-1) translate(0,-187318.26) rotate(-270,200255.52,93659.13)">.<g class="blkclass0"><text transform="rotate(-90 1018.6,490) translate(1018.6,490)" font-size="386.75">WC2024</text></g></use>
          <use xlink:href="#$TCHSYS$WIN2D_2000x500" x="200255.52" y="96859.13" transform="scale(1,-1) translate(0,-193718.26) rotate(-270,200255.52,96859.13)">.<g class="blkclass0"><text transform="rotate(-90 1018.6,600) translate(1018.6,600)" font-size="386.75">WC2024</text></g></use>
          <use xlink:href="#$TCHSYS$WIN2D_2000x500" x="191275.52" y="96809.13" transform="scale(-1,1) translate(-382551.04,0) rotate(-90,191275.52,96809.13)">.<g class="blkclass0"><text transform="rotate(-90 -624.16,607.76) translate(-624.16,607.76)" font-size="386.75">WC2024</text></g></use>
          <use xlink:href="#$TCHSYS$WIN2D_2000x500" x="191275.52" y="100009.13" transform="scale(-1,-1) translate(-382551.04,-200018.26) rotate(-270,191275.52,100009.13)">.<g class="blkclass0"><text transform="rotate(-90 -721.1,600) translate(-721.1,600)" font-size="386.75">WC2024</text></g></use>
          <use xlink:href="#$TCHSYS$WIN2D_2000x500" x="191275.52" y="103209.13" transform="scale(-1,-1) translate(-382551.04,-206418.26) rotate(-270,191275.52,103209.13)">.<g class="blkclass0"><text transform="rotate(-90 -721.1,600) translate(-721.1,600)" font-size="386.75">WC2024</text></g></use>
          <use xlink:href="#$TCHSYS$WIN2D_2000x500" x="191275.52" y="106409.13" transform="scale(-1,-1) translate(-382551.04,-212818.26) rotate(-270,191275.52,106409.13)">.<g class="blkclass0"><text transform="rotate(-90 -721.1,600) translate(-721.1,600)" font-size="386.75">WC2024</text></g></use>
          <use xlink:href="#$TCHSYS$WIN2D_2000x500" x="279555.52" y="106679.13" transform="scale(1,-1) translate(0,-213358.26) rotate(-270,279555.52,106679.13)">.<g class="blkclass0"><text transform="rotate(-90 751.72,780) translate(751.72,780)" font-size="386.75">WC2024</text></g></use>
          <use xlink:href="#$TCHSYS$WIN2D_2000x500" x="201815.52" y="99009.13" transform="scale(-1,-1) translate(-403631.04,-198018.26) rotate(-180,201815.52,99009.13)">.<g class="blkclass0"><text transform="translate(-600,-424.89)" font-size="386.75">WC2024</text></g></use>
          <use xlink:href="#$TCHSYS$WIN2D_2000x500" x="191275.52" y="109609.13" transform="scale(-1,-1) translate(-382551.04,-219218.26) rotate(-270,191275.52,109609.13)">.<g class="blkclass0"><text transform="rotate(-90 -721.1,600) translate(-721.1,600)" font-size="386.75">WC2024</text></g></use>
          <use xlink:href="#$DorLib2D$00000001" x="264.296" y="108.124" transform="scale(1000,1000) rotate(-180,264.3,108.12)" stroke-width="0.0001%">.<g class="blkclass0"><text transform="translate(-470,-316.25)" font-size="386.75">M1027</text></g></use>
          <use xlink:href="#$DorLib2D$00000002" x="179.07" y="72.083" transform="scale(1500,1500) scale(-1,1) translate(-358.14,0) rotate(-180,179.07,72.08)" stroke-width="0.0001%">.<g class="blkclass0"><text transform="translate(-470,-316.25)" font-size="386.75">M1527</text></g></use>
          <use xlink:href="#$DorLib2D$00000001" x="278.306" y="108.124" transform="scale(1000,1000) scale(-1,1) translate(-556.61,0) rotate(-180,278.31,108.12)" stroke-width="0.0001%">.<g class="blkclass0"><text transform="translate(-470,-316.25)" font-size="386.75">M1027</text></g></use>
          <use xlink:href="#$DorLib2D$00000002" x="173.757" y="72.083" transform="scale(1500,1500) rotate(-180,173.76,72.08)" stroke-width="0.0001%">.<g class="blkclass0"><text transform="translate(-470,-316.25)" font-size="386.75">M1527</text></g></use>
          <use xlink:href="#$DorLib2D$00000001" x="193.503" y="108.124" transform="scale(1000,1000) rotate(-180,193.5,108.12)" stroke-width="0.0001%">.<g class="blkclass0"><text transform="translate(-470,-316.25)" font-size="386.75">M1027</text></g></use>
          <use xlink:href="#$DorLib2D$00000001" x="296.506" y="117.071" transform="scale(900,900) scale(1,-1) translate(0,-234.14) rotate(-180,296.51,117.07)" stroke-width="0.0001%">.<g class="blkclass0"><text transform="translate(-490,613.75)" font-size="386.75">M0927</text></g></use>
          <use xlink:href="#$DorLib2D$00000001" x="257.476" y="105.364" transform="scale(1000,1000) scale(-1,-1) translate(-514.95,-210.73) rotate(-180,257.48,105.36)" stroke-width="0.0001%">.<g class="blkclass0"><text transform="translate(-470,613.75)" font-size="386.75">M1027</text></g></use>
          <use xlink:href="#$DorLib2D$00000002" x="168.95" y="70.28" transform="scale(1500,1500) scale(1,-1) translate(0,-140.56) rotate(-180,168.95,70.28)" stroke-width="0.0001%">.<g class="blkclass0"><text transform="translate(-470,613.75)" font-size="386.75">M1527</text></g></use>
          <use xlink:href="#$DorLib2D$00000002" x="161.45" y="70.243" transform="scale(1500,1500) scale(1,-1) translate(0,-140.49) rotate(-180,161.45,70.24)" stroke-width="0.0001%">.<g class="blkclass0"><text transform="translate(-470,613.75)" font-size="386.75">M1527</text></g></use>
          <use xlink:href="#$DorLib2D$00000001" x="254.047" y="117.071" transform="scale(900,900) scale(1,-1) translate(0,-234.14) rotate(-180,254.05,117.07)" stroke-width="0.0001%">.<g class="blkclass0"><text transform="translate(-490,613.75)" font-size="386.75">M0927</text></g></use>
          <use xlink:href="#$DorLib2D$00000002" x="154.304" y="70.243" transform="scale(1500,1500) scale(-1,-1) translate(-308.61,-140.49) rotate(-180,154.3,70.24)" stroke-width="0.0001%">.<g class="blkclass0"><text transform="translate(-470,613.75)" font-size="386.75">M1527</text></g></use>
          <use xlink:href="#$DorLib2D$00000001" x="246.676" y="105.364" transform="scale(1000,1000) scale(-1,-1) translate(-493.35,-210.73) rotate(-180,246.68,105.36)" stroke-width="0.0001%">.<g class="blkclass0"><text transform="translate(-470,613.75)" font-size="386.75">M1027</text></g></use>
          <use xlink:href="#$DorLib2D$00000001" x="293.573" y="117.071" transform="scale(900,900) scale(-1,-1) translate(-587.15,-234.14) rotate(-180,293.57,117.07)" stroke-width="0.0001%">.<g class="blkclass0"><text transform="translate(-490,613.75)" font-size="386.75">M0927</text></g></use>
          <use xlink:href="#$DorLib2D$00000002" x="184.021" y="90.103" transform="scale(1200,1200) rotate(-180,184.02,90.1)" stroke-width="0.0001%">.<g class="blkclass1"><text transform="translate(-376,-253)" font-size="309.4">M1227</text></g></use>
          <use xlink:href="#$DorLib2D$00000001" x="249.289" y="120.138" transform="scale(900,900) scale(-1,1) translate(-498.58,0) rotate(-180,249.29,120.14)" stroke-width="0.0001%">.<g class="blkclass0"><text transform="translate(-490,-316.25)" font-size="386.75">M0927</text></g></use>
          <use xlink:href="#$DorLib2D$00000001" x="253.289" y="120.138" transform="scale(900,900) scale(-1,1) translate(-506.58,0) rotate(-180,253.29,120.14)" stroke-width="0.0001%">.<g class="blkclass0"><text transform="translate(-490,-316.25)" font-size="386.75">M0927</text></g></use>
          <use xlink:href="#$DorLib2D$00000001" x="257.289" y="120.138" transform="scale(900,900) scale(-1,1) translate(-514.58,0) rotate(-180,257.29,120.14)" stroke-width="0.0001%">.<g class="blkclass0"><text transform="translate(-490,-316.25)" font-size="386.75">M0927</text></g></use>
          <use xlink:href="#$DorLib2D$00000001" x="261.289" y="120.138" transform="scale(900,900) scale(-1,1) translate(-522.58,0) rotate(-180,261.29,120.14)" stroke-width="0.0001%">.<g class="blkclass0"><text transform="translate(-490,-316.25)" font-size="386.75">M0927</text></g></use>
          <use xlink:href="#$DorLib2D$00000001" x="265.289" y="120.138" transform="scale(900,900) scale(-1,1) translate(-530.58,0) rotate(-180,265.29,120.14)" stroke-width="0.0001%">.<g class="blkclass0"><text transform="translate(-490,-316.25)" font-size="386.75">M0927</text></g></use>
          <use xlink:href="#$DorLib2D$00000001" x="269.289" y="120.138" transform="scale(900,900) scale(-1,1) translate(-538.58,0) rotate(-180,269.29,120.14)" stroke-width="0.0001%">.<g class="blkclass0"><text transform="translate(-490,-316.25)" font-size="386.75">M0927</text></g></use>
          <use xlink:href="#$DorLib2D$00000001" x="274.139" y="120.138" transform="scale(900,900) scale(-1,1) translate(-548.28,0) rotate(-180,274.14,120.14)" stroke-width="0.0001%">.<g class="blkclass0"><text transform="translate(-490,-316.25)" font-size="386.75">M0927</text></g></use>
          <use xlink:href="#$DorLib2D$00000001" x="273.116" y="104.274" transform="scale(1000,1000) rotate(-270,273.12,104.27)" stroke-width="0.0001%">.<g class="blkclass0"><text transform="rotate(-90 -385.3,489.01) translate(-385.3,489.01)" font-size="386.75">M1027</text></g></use>
          <use xlink:href="#$DorLib2D$00000001" x="220.616" y="105.364" transform="scale(1000,1000) scale(1,-1) translate(0,-210.73) rotate(-180,220.62,105.36)" stroke-width="0.0001%">.<g class="blkclass0"><text transform="translate(-470,613.75)" font-size="386.75">M1027</text></g></use>
          <use xlink:href="#$DorLib2D$00000001" x="227.073" y="117.071" transform="scale(900,900) scale(-1,1) translate(-454.15,0)" stroke-width="0.0001%">.<g class="blkclass0"><text transform="translate(-490,639.09)" font-size="386.75">M0927</text></g></use>
          <use xlink:href="#$DorLib2D$00000001" x="224.539" y="117.071" transform="scale(900,900)" stroke-width="0.0001%">.<g class="blkclass0"><text transform="translate(-490,639.09)" font-size="386.75">M0927</text></g></use>
          <use xlink:href="#$DorLib2D$00000001" x="196.645" y="95.029" transform="scale(1000,1000) scale(-1,1) translate(-393.29,0) rotate(-180,196.65,95.03)" stroke-width="0.0001%">.<g class="blkclass0"><text transform="translate(-470,-316.25)" font-size="386.75">M1021</text></g></use>
          <use xlink:href="#$DorLib2D$00000002" x="143.103" y="52.118" transform="scale(1900,1900) scale(1,-1) translate(0,-104.24) rotate(-180,143.1,52.12)" stroke-width="0%">.<g class="blkclass2"><text transform="translate(-595.33,777.42)" font-size="489.883">M1827</text></g></use>
          <use xlink:href="#$DorLib2D$00000001" x="270.826" y="89.006" transform="scale(1000,1000) scale(-1,1) translate(-541.65,0) rotate(-270,270.83,89.01)" stroke-width="0.0001%">.<g class="blkclass0"><text transform="rotate(-270 385.3,-360.99) translate(385.3,-360.99)" font-size="386.75">M1021</text></g></use>
          <use xlink:href="#$DorLib2D$00000001" x="270.826" y="90.606" transform="scale(1000,1000) scale(-1,1) translate(-541.65,0) rotate(-270,270.83,90.61)" stroke-width="0.0001%">.<g class="blkclass0"><text transform="rotate(-270 385.3,-450.99) translate(385.3,-450.99)" font-size="386.75">M1021</text></g></use>
          <use xlink:href="#$DorLib2D$00000002" x="132.571" y="69.909" transform="scale(1500,1500) scale(1,-1) translate(0,-139.82) rotate(-180,132.57,69.91)" stroke-width="0.0001%">.<g class="blkclass0"><text transform="translate(-470,613.75)" font-size="386.75">M1827</text></g></use>
          <use xlink:href="#$DorLib2D$00000001" x="249.056" y="108.124" transform="scale(1000,1000) rotate(-180,249.06,108.12)" stroke-width="0.0001%">.<g class="blkclass0"><text transform="translate(-470,-316.25)" font-size="386.75">M1027</text></g></use>
          <use xlink:href="#$DorLib2D$00000002" x="174.83" y="90.103" transform="scale(1200,1200) rotate(-180,174.83,90.1)" stroke-width="0.0001%">.<g class="blkclass1"><text transform="translate(-376,-253)" font-size="309.4">M1227</text></g></use>
          <use xlink:href="#$DorLib2D$00000001" x="211.616" y="109.114" transform="scale(1000,1000) scale(-1,1) translate(-423.23,0) rotate(-90,211.62,109.11)" stroke-width="0.0001%">.<g class="blkclass0"><text transform="rotate(-90 -316.25,470) translate(-316.25,470)" font-size="386.75">M1021</text></g></use>
          <use xlink:href="#$DorLib2D$00000001" x="218.816" y="109.114" transform="scale(1000,1000) rotate(-90,218.82,109.11)" stroke-width="0.0001%">.<g class="blkclass0"><text transform="rotate(-90 613.75,470) translate(613.75,470)" font-size="386.75">M1021</text></g></use>
          <use xlink:href="#$DorLib2D$00000002" x="134.824" y="72.083" transform="scale(1500,1500) rotate(-180,134.82,72.08)" stroke-width="0.0001%">.<g class="blkclass3"><text transform="translate(-470,-316.25)" font-size="386.75">M1527</text></g></use>
          <path d="M259885.52,107919.13l0,380" class="body" />
        </g>
      </g>
      <g id="assets" fill="none">
        <g id="rm-assets" class="rm-asset">
          <path id="15009;F02;202" d="M267925.52,87259.13l11380,0l0,11500l-11380,0z" />
          <path id="15009;F02;212" d="M191525.52,101609.13l0,-6670l-800,0l3.14,-3380l9276.86,0l0,13150l-8480,0z" />
          <path id="15009;F02;226-228" d="M262795.52,108299.13l0,6640l16510,0l0,-6640z" />
          <path id="15009;F02;213-214" d="M191525.52,108299.13l0,3200l-800,0l0,3440l16510,0l0,-6640z" />
          <path id="15009;F02;205-207" d="M229705.52,99259.13l0,5900l17720,0l0,-5900z" />
          <path id="15009;F02;225" d="M251362.11,108299.13l0,6140l10273.41,0l0,-6140z" />
          <path id="15009;F02;203-204" d="M247805.52,99259.13l0,5900l10420,0l0,-5900z" />
          <path id="15009;F02;209" d="M211805.52,99259.13l0,5900l10420,0l0,-5900z" />
          <path id="15009;F02;216" d="M215305.52,108299.13l0,6140l6920,0l0,-6140z" />
          <path id="15009;F02;215" d="M208395.52,108299.13l0,6140l6730,0l0,-6140z" />
          <path id="15009;F02;208" d="M222605.52,99259.13l0,5900l6920,0l0,-5900z" />
          <path id="15009;F02;201" d="M273305.52,99259.13l0,5900l6000,0l0,-5900z" />
          <path id="15009;F02;210" d="M203415.52,99259.13l0,5900l3820,0l0,-5900z" />
          <path id="15009;F02;220" d="M233305.52,108299.13l0,6140l3435,0l0,-6140z" />
          <path id="15009;F02;218" d="M226105.52,108299.13l0,6140l3420,0l0,-6140z" />
          <path id="15009;F02;219" d="M229705.52,108299.13l0,6140l3420,0l0,-6140z" />
          <path id="15009;F02;222" d="M240517.52,108299.13l-12,6140l3420,0l0,-6140z" />
          <path id="15009;F02;221" d="M236905.52,108299.13l0,6140l3408,0l0,-6140l-3408,0z" />
          <path id="15009;F02;224" d="M247805.52,108299.13l0,6140l3352.59,0l0,-6140z" />
          <path id="15009;F02;223" d="M244105.52,108299.13l0,6140l3320,0l0,-6140z" />
          <path id="15009;F02;217" d="M222605.52,108299.13l0,6140l3320,0l0,-6140z" />
          <path id="15009;F02;211" d="M200385.52,99259.13l0,5900l2650,0l0,-5900z" />
        </g>
      </g>
    </g>
    <g id="text" font-family="Arial" font-size="438.86524822695031" font-weight="normal" text-style="normal" text-anchor="start" dominant-baseline="alphabetical" fill="#FF7F00" xml:space="preserve">
      <g id="layer-body-text">
        <g transform="translate(260761.53,103879.13)">
          <text>上</text>
        </g>
        <g transform="translate(259198.39,103879.13)">
          <text>下</text>
        </g>
        <g transform="translate(260761.53,103879.13)">
          <text>上</text>
        </g>
        <g transform="translate(259198.39,103879.13)">
          <text>下</text>
        </g>
        <g transform="translate(260761.53,103879.13)">
          <text>上</text>
        </g>
        <g transform="translate(259198.39,103879.13)">
          <text>下</text>
        </g>
        <g transform="translate(260761.53,103879.13)">
          <text>上</text>
        </g>
        <g transform="translate(259198.39,103879.13)">
          <text>下</text>
        </g>
        <g transform="translate(210582.47,103879.13)">
          <text>下</text>
        </g>
        <g transform="translate(260761.53,103879.13)">
          <text>上</text>
        </g>
        <g transform="translate(259198.39,103879.13)">
          <text>下</text>
        </g>
      </g>
    </g>
    <g id="asset-labels" font-family="Arial" font-weight="bold" font-size="38.1em" text-anchor="middle">
      <g id="rm-labels">
        <g id="l-rm-15009;F02;202" transform="translate(273615.52,93009.13)">
          <text>202</text>
        </g>
        <g id="l-rm-15009;F02;212" transform="translate(195365.52,98134.13)">
          <text>212</text>
        </g>
        <g id="l-rm-15009;F02;226-228" transform="translate(271050.52,111619.13)">
          <text>226-228</text>
        </g>
        <g id="l-rm-15009;F02;213-214" transform="translate(198980.52,111619.13)">
          <text>213-214</text>
        </g>
        <g id="l-rm-15009;F02;205-207" transform="translate(236815.52,102209.13)">
          <text>205-207</text>
        </g>
        <g id="l-rm-15009;F02;225" transform="translate(256498.81,111369.13)">
          <text>225</text>
        </g>
        <g id="l-rm-15009;F02;203-204" transform="translate(253015.52,102209.13)">
          <text>203-204</text>
        </g>
        <g id="l-rm-15009;F02;209" transform="translate(217015.52,102209.13)">
          <text>209</text>
        </g>
        <g id="l-rm-15009;F02;216" transform="translate(218765.52,111369.13)">
          <text>216</text>
        </g>
        <g id="l-rm-15009;F02;215" transform="translate(209960.52,111369.13)">
          <text>215</text>
        </g>
        <g id="l-rm-15009;F02;208" transform="translate(226065.52,102209.13)">
          <text>208</text>
        </g>
        <g id="l-rm-15009;F02;201" transform="translate(276305.52,102209.13)">
          <text>201</text>
        </g>
        <g id="l-rm-15009;F02;210" transform="translate(205325.52,102209.13)">
          <text>210</text>
        </g>
        <g id="l-rm-15009;F02;220" transform="translate(235023.02,111369.13)">
          <text>220</text>
        </g>
        <g id="l-rm-15009;F02;218" transform="translate(227815.52,111369.13)">
          <text>218</text>
        </g>
        <g id="l-rm-15009;F02;219" transform="translate(231415.52,111369.13)">
          <text>219</text>
        </g>
        <g id="l-rm-15009;F02;222" transform="translate(242215.52,111369.13)">
          <text>222</text>
        </g>
        <g id="l-rm-15009;F02;221" transform="translate(238609.52,111369.13)">
          <text>221</text>
        </g>
        <g id="l-rm-15009;F02;224" transform="translate(249481.81,111369.13)">
          <text>224</text>
        </g>
        <g id="l-rm-15009;F02;223" transform="translate(245765.52,111369.13)">
          <text>223</text>
        </g>
        <g id="l-rm-15009;F02;217" transform="translate(224265.52,111369.13)">
          <text>217</text>
        </g>
        <g id="l-rm-15009;F02;211" transform="translate(201710.52,102209.13)">
          <text>211</text>
        </g>
      </g>
    </g>
  </g>
</svg>