<svg version="1.1" xmlns="http://www.w3.org/2000/svg" xmlns:xlink="http://www.w3.org/1999/xlink" viewBox="190219.23 237171.65 90146 29839">
  <style>.i0 { stroke:#000000;   } .body { stroke:#ff7f00; stroke-width:0.17145%;  } .rm { stroke:#00ffff;   } .pub_wall { stroke:#c0c0c0;   } .rm-asset { stroke:#0000ff;   fill:#EEEEEE; fill-opacity:1;} .rmtc-asset { stroke:#0000ff;   } .rmtc { stroke:#00ffff;   } .rm-assettxt { stroke:#0000ff;   } .rmtc-assettxt { stroke:#0000ff;   } .cnc-0 { stroke:#ff7f00;  stroke-dasharray:0; fill:#cccccc; fill-opacity:1;} .cnc-1 { stroke:#ff7f00;  stroke-dasharray:0; } .cnc-2 { stroke:#ff7f00;  stroke-dasharray:0; } .blkclass0 { stroke:#ff7f00;  stroke-width:0.02;  fill:#ff7f00; fill-opacity:1; font-family:Arial; font-size:386.75; font-weight:normal; text-style:normal; text-anchor:start;} .blkclass1 { stroke:#ff7f00;  stroke-width:0.02;  fill:#ff7f00; fill-opacity:1; font-family:Arial; font-size:309.4; font-weight:normal; text-style:normal; text-anchor:start;} .blkclass2 { stroke:#ff7f00;  stroke-width:0.02;  fill:#ff7f00; fill-opacity:1; font-family:Arial; font-size:309.4; font-weight:normal; text-style:normal; text-anchor:start;} .blkclass3 { stroke:#ff7f00;  stroke-width:0.02;  fill:#ff7f00; fill-opacity:1; font-family:Arial; font-size:489.883; font-weight:normal; text-style:normal; text-anchor:start;}</style>
  <view id="defaultView" viewBox="190219.23 237171.65 90146 29839" />
  <defs>
    <symbol id="$TCHSYS$WIN2D_1800x500" overflow="visible" class="i0">
      <path d="M-900,-250l1800,0" />
      <path d="M-900,250l1800,0" />
      <path d="M900,83.33l-1800,0" />
      <path d="M900,-83.33l-1800,0" />
      <path d="M-900,-250l0,500" />
      <path d="M900,-250l0,500" />
    </symbol>
    <symbol id="$TCHSYS$WIN2D_2000x500" overflow="visible" class="i0">
      <path d="M-1000,-250l2000,0" />
      <path d="M-1000,250l2000,0" />
      <path d="M1000,83.33l-2000,0" />
      <path d="M1000,-83.33l-2000,0" />
      <path d="M-1000,-250l0,500" />
      <path d="M1000,-250l0,500" />
    </symbol>
    <symbol id="$TCHSYS$WIN2D_1500x500" overflow="visible" class="i0">
      <path d="M-750,-250l1500,0" />
      <path d="M-750,250l1500,0" />
      <path d="M750,83.33l-1500,0" />
      <path d="M750,-83.33l-1500,0" />
      <path d="M-750,-250l0,500" />
      <path d="M750,-250l0,500" />
    </symbol>
    <symbol id="$DorLib2D$00000001" overflow="visible" class="i0">
      <path d="M0.45,-0.98l0.05,0" />
      <path d="M0.5,0l-0.05,0" />
      <path d="M-0.5,0a0.98,0.98 0 0,1 0.95,-0.97" />
      <path d="M0.5,0l0,-0.98" />
      <path d="M0.45,0l0,-0.98" />
    </symbol>
    <symbol id="$DorLib2D$00000002" overflow="visible" class="i0">
      <path d="M-0.5,0l0,-0.49" />
      <path d="M-0.48,0l0,-0.49" />
      <path d="M-0.5,0l0.02,0" />
      <path d="M-0.48,-0.49l-0.02,0" />
      <path d="M-0.48,-0.49a0.49,0.49 0 0,1 0.48,0.49" />
      <path d="M0,0a0.49,0.49 0 0,1 0.48,-0.49" />
      <path d="M0.48,0l0,-0.49" />
      <path d="M0.5,0l0,-0.49" />
      <path d="M0.48,-0.49l0.02,0" />
      <path d="M0.5,0l-0.02,0" />
    </symbol>
  </defs>
  <g id="viewer">
    <g id="mirror" transform="scale(1, 1)" stroke-width="0.09%">
      <g id="background" fill="none">
        <g id="layer-body-fills" class="cnc-0">
          <path d="M220285.52,258938.86l300,0l0,380l-300,0z" />
          <path d="M270885.52,242668.86l0,-4390l-120,0l0,4390l120,0z" />
          <path d="M270785.52,242668.86l0,-40l10,-10l60,0l10,10l0,40z" />
          <path d="M270885.52,249778.86l0,-4511.85l-120,0l0,4511.85l120,0z" />
          <path d="M270785.52,249778.86l0,-40l10,-10l60,0l10,10l0,40z" />
          <path d="M270785.52,245267.01l0,40l10,10l60,0l10,-10l0,-40z" />
          <path d="M267925.52,243928.86l40,0l10,10l0,60l-10,10l-40,0z" />
          <path d="M270765.52,243908.86l-2840,0l0,120l2840,0l0,240l120,0l0,-600l-120,0l0,240z" />
          <path d="M270785.52,243668.86l0,40l10,10l60,0l10,-10l0,-40z" />
          <path d="M270855.52,244008.86l-60,0l-10,-10l0,-60l10,-10l60,0l10,10l0,60z" />
          <path d="M270785.52,238278.86l0,40l10,10l60,0l10,-10l0,-40z" />
          <path d="M270785.52,244268.86l0,-40l10,-10l60,0l10,10l0,40z" />
          <path d="M240295.52,259318.86l240,0l0,6140l-240,0z" />
          <path d="M243940.52,260618.86l150,0l0,4840l-150,0z" />
          <path d="M243940.52,259618.86l150,0l0,-300l-150,0z" />
          <path d="M236890.52,259618.86l-150,0l0,-300l150,0z" />
          <path d="M236890.52,260618.86l-150,0l0,4840l150,0z" />
          <path d="M215140.52,259318.86l150,0l0,6140l-150,0z" />
          <path d="M211540.52,259318.86l150,0l0,300l-150,0z" />
          <path d="M211540.52,260618.86l150,0l0,4840l-150,0z" />
          <path d="M218740.52,259318.86l150,0l0,300l-150,0z" />
          <path d="M218740.52,260618.86l150,0l0,4840l-150,0z" />
          <path d="M254895.83,250278.86l-150,0l0,5900l150,0z" />
          <path d="M191525.52,255778.86l6830,0l0,150l-6830,0z" />
          <path d="M199855.52,255778.86l150,0l0,150l-150,0z" />
          <path d="M199415.52,245958.86l0,120l590,0l0,-120l-590,0z" />
          <path d="M198415.52,245958.86l-6890,0l0,120l6890,0l0,-120z" />
          <path d="M199415.52,246058.86l40,0l10,-10l0,-60l-10,-10l-40,0z" />
          <path d="M200005.52,246058.86l-40,0l-10,-10l0,-60l10,-10l40,0z" />
          <path d="M191525.52,246058.86l40,0l10,-10l0,-60l-10,-10l-40,0z" />
          <path d="M198415.52,246058.86l-40,0l-10,-10l0,-60l10,-10l40,0z" />
          <path d="M197545.47,246058.86l-60,0l-10,-10l0,-60l10,-10l60,0l10,10l0,60z" />
          <path d="M196645.52,246058.86l-60,0l-10,-10l0,-60l10,-10l60,0l10,10l0,60z" />
          <path d="M195745.41,246058.86l-60,0l-10,-10l0,-60l10,-10l60,0l10,10l0,60z" />
          <path d="M194845.41,246058.86l-60,0l-10,-10l0,-60l10,-10l60,0l10,10l0,60z" />
          <path d="M193945.41,246058.86l-60,0l-10,-10l0,-60l10,-10l60,0l10,10l0,60z" />
          <path d="M193045.41,246058.86l-60,0l-10,-10l0,-60l10,-10l60,0l10,10l0,60z" />
          <path d="M192145.52,246058.86l-60,0l-10,-10l0,-60l10,-10l60,0l10,10l0,60z" />
          <path d="M269845.52,244008.86l-60,0l-10,-10l0,-60l10,-10l60,0l10,10l0,60z" />
          <path d="M268945.52,244008.86l-60,0l-10,-10l0,-60l10,-10l60,0l10,10l0,60z" />
          <path d="M270855.52,245808.86l-60,0l-10,-10l0,-60l10,-10l60,0l10,10l0,60z" />
          <path d="M270855.52,246708.86l-60,0l-10,-10l0,-60l10,-10l60,0l10,10l0,60z" />
          <path d="M270855.52,247608.86l-60,0l-10,-10l0,-60l10,-10l60,0l10,10l0,60z" />
          <path d="M270855.52,242208.86l-60,0l-10,-10l0,-60l10,-10l60,0l10,10l0,60z" />
          <path d="M270855.52,241308.86l-60,0l-10,-10l0,-60l10,-10l60,0l10,10l0,60z" />
          <path d="M270855.52,240408.86l-60,0l-10,-10l0,-60l10,-10l60,0l10,10l0,60z" />
          <path d="M270855.52,248508.86l-60,0l-10,-10l0,-60l10,-10l60,0l10,10l0,60z" />
          <path d="M270855.52,249408.86l-60,0l-10,-10l0,-60l10,-10l60,0l10,10l0,60z" />
          <path d="M211655.52,250278.86l150,0l0,1000l-150,0z" />
          <path d="M208245.52,265458.86l150,0l0,-500l-150,0z" />
          <path d="M207805.52,256558.86l-380,0l0,260l380,0z" />
          <path d="M207805.52,258678.86l-380,0l0,260l380,0z" />
          <path d="M222605.52,256558.86l-380,0l0,260l380,0z" />
          <path d="M222605.52,258678.86l-380,0l0,260l380,0z" />
          <path d="M229805.52,256558.86l-380,0l0,260l380,0z" />
          <path d="M229805.52,258678.86l-380,0l0,260l380,0z" />
          <path d="M247805.52,256558.86l-380,0l0,260l380,0z" />
          <path d="M247805.52,258678.86l-380,0l0,260l380,0z" />
          <path d="M262205.52,256558.86l-380,0l0,260l380,0z" />
          <path d="M262205.52,258678.86l-380,0l0,260l380,0z" />
          <path d="M202500.52,259318.86l150,0l0,6640l-150,0z" />
          <path d="M270325.52,255702.75l380,0l0,-600l-380,0z" />
        </g>
        <g id="layer-RM-fills" class="rm">
          <path d="M254890.52,250278.86l0,5900l3335,0l0,-5900z" />
          <path d="M262795.52,250278.86l0,5900l3030,0l0,-5900z" />
          <path d="M266205.52,250278.86l0,5900l4120,0l0,-5900z" />
          <path d="M267925.52,238278.86l0,5630l2840,0l0,-5630z" />
          <path d="M267925.52,244028.86l0,5750l2840,0l0,-5750z" />
          <path d="M270885.52,238278.86l0,11500l8420,0l0,-11500l-8420,0z" />
          <path d="M190725.52,242578.86l9280,0l0,3380l-9280,0z" />
          <path d="M191525.52,246078.86l8480,0l0,9700l-8480,0z" />
        </g>
        <g id="layer-body" class="cnc-1">
          <path d="M270265.52,265958.86l1500,0" />
          <path d="M279805.52,237778.86l-3830,0" />
          <path d="M275975.52,237778.86l0,500" />
          <path d="M275975.52,238278.86l3330,0" />
          <path d="M267925.52,238278.86l3330,0" />
          <path d="M271255.52,238278.86l0,-500" />
          <path d="M271255.52,237778.86l-3830,0" />
          <path d="M274175.52,237778.86l-1120,0" />
          <path d="M273055.52,237778.86l0,500" />
          <path d="M273055.52,238278.86l1120,0" />
          <path d="M274175.52,238278.86l0,-500" />
          <path d="M267425.52,237778.86l0,3690" />
          <path d="M267425.52,241468.86l500,0" />
          <path d="M267925.52,241468.86l0,-3190" />
          <path d="M267925.52,249778.86l0,-3310" />
          <path d="M267925.52,246468.86l-500,0" />
          <path d="M267425.52,246468.86l0,3310" />
          <path d="M267425.52,243468.86l0,1000" />
          <path d="M267425.52,244468.86l500,0" />
          <path d="M267925.52,244468.86l0,-1000" />
          <path d="M267925.52,243468.86l-500,0" />
          <path d="M200505.52,242078.86l-805,0" />
          <path d="M199700.52,242078.86l0,500" />
          <path d="M199700.52,242578.86l305,0" />
          <path d="M190725.52,242578.86l2475,0" />
          <path d="M193200.52,242578.86l0,-500" />
          <path d="M193200.52,242078.86l-2975,0" />
          <path d="M198200.52,242078.86l-3200,0" />
          <path d="M195000.52,242078.86l0,500" />
          <path d="M192950.52,242578.86l5250,0" />
          <path d="M198200.52,242578.86l0,-500" />
          <path d="M262795.52,250278.86l0,5900" />
          <path d="M262485.52,249778.86l0,6780" />
          <path d="M279305.52,250278.86l-5900,0" />
          <path d="M279305.52,249778.86l-6460,0" />
          <path d="M261635.52,265458.86l0,-6140" />
          <path d="M262325.52,265958.86l0,-7020" />
          <path d="M207235.52,265958.86l0,-6640" />
          <path d="M207925.52,266458.86l0,-7520" />
          <path d="M190225.52,266458.86l2540,0" />
          <path d="M192765.52,266458.86l0,-500" />
          <path d="M192765.52,265958.86l-2040,0" />
          <path d="M195440.52,265958.86l-675,0" />
          <path d="M194765.52,265958.86l0,500" />
          <path d="M194765.52,266458.86l750,0" />
          <path d="M279305.52,258938.86l-500,0" />
          <path d="M278805.52,258938.86l0,380" />
          <path d="M278805.52,259318.86l500,0" />
          <path d="M267340.52,259318.86l10465,0" />
          <path d="M277805.52,259318.86l0,-380" />
          <path d="M277805.52,258938.86l-10390,0" />
          <path d="M262325.52,258938.86l-1520,0" />
          <path d="M260805.52,258938.86l0,380" />
          <path d="M260805.52,259318.86l830,0" />
          <path d="M247805.52,259318.86l250,0" />
          <path d="M248055.52,259318.86l0,-380" />
          <path d="M248055.52,258938.86l-440,0" />
          <path d="M259805.52,258938.86l-2600,0" />
          <path d="M257205.52,258938.86l0,380" />
          <path d="M257205.52,259318.86l2600,0" />
          <path d="M259805.52,259318.86l0,-380" />
          <path d="M256205.52,258938.86l-7150,0" />
          <path d="M249055.52,258938.86l0,380" />
          <path d="M249055.52,259318.86l7150,0" />
          <path d="M256205.52,259318.86l0,-380" />
          <path d="M207925.52,258938.86l-2520,0" />
          <path d="M205405.52,258938.86l0,380" />
          <path d="M205405.52,259318.86l1830,0" />
          <path d="M197505.52,259318.86l0,-380" />
          <path d="M197505.52,258938.86l-3980,0" />
          <path d="M204405.52,258938.86l-3330,0" />
          <path d="M201075.52,258938.86l0,380" />
          <path d="M201075.52,259318.86l3330,0" />
          <path d="M204405.52,259318.86l0,-380" />
          <path d="M200075.52,258938.86l-1370,0" />
          <path d="M198705.52,258938.86l0,380" />
          <path d="M198705.52,259318.86l1370,0" />
          <path d="M200075.52,259318.86l0,-380" />
          <path d="M270325.52,256178.86l-3020,0" />
          <path d="M267305.52,256178.86l0,380" />
          <path d="M267305.52,256558.86l3400,0" />
          <path d="M266015.52,256558.86l390,0" />
          <path d="M266405.52,256558.86l0,-380" />
          <path d="M266405.52,256178.86l-200,0" />
          <path d="M279305.52,265958.86l0,-6640" />
          <path d="M279805.52,266458.86l0,-7330" />
          <path d="M207235.52,256178.86l0,-5900" />
          <path d="M207925.52,256558.86l0,-6780" />
          <path d="M261635.52,256558.86l0,-6280" />
          <path d="M262325.52,256558.86l0,-6780" />
          <path d="M261635.52,256558.86l690,0" />
          <path d="M208395.52,250278.86l0,6280" />
          <path d="M208085.52,249778.86l0,6780" />
          <path d="M208395.52,256558.86l-310,0" />
          <path d="M262325.52,249778.86l-1110,0" />
          <path d="M261215.52,249778.86l0,500" />
          <path d="M261215.52,250278.86l420,0" />
          <path d="M258605.52,250278.86l610,0" />
          <path d="M259215.52,250278.86l0,-500" />
          <path d="M259215.52,249778.86l-800,0" />
          <path d="M207925.52,249778.86l-1110,0" />
          <path d="M206815.52,249778.86l0,500" />
          <path d="M206815.52,250278.86l420,0" />
          <path d="M203415.52,250278.86l1400,0" />
          <path d="M204815.52,250278.86l0,-500" />
          <path d="M204815.52,249778.86l-1590,0" />
          <path d="M190725.52,242578.86l0,3380" />
          <path d="M190225.52,242078.86l0,4380" />
          <path d="M247615.52,265958.86l800,0" />
          <path d="M248415.52,265958.86l0,-500" />
          <path d="M248415.52,265458.86l-610,0" />
          <path d="M261635.52,265458.86l-420,0" />
          <path d="M261215.52,265458.86l0,500" />
          <path d="M261215.52,265958.86l1110,0" />
          <path d="M250415.52,265958.86l1600,0" />
          <path d="M252015.52,265958.86l0,-500" />
          <path d="M252015.52,265458.86l-1600,0" />
          <path d="M250415.52,265458.86l0,500" />
          <path d="M254015.52,265958.86l1600,0" />
          <path d="M255615.52,265958.86l0,-500" />
          <path d="M255615.52,265458.86l-1600,0" />
          <path d="M254015.52,265458.86l0,500" />
          <path d="M257615.52,265958.86l1600,0" />
          <path d="M259215.52,265958.86l0,-500" />
          <path d="M259215.52,265458.86l-1600,0" />
          <path d="M257615.52,265458.86l0,500" />
          <path d="M258225.52,256178.86l-1020,0" />
          <path d="M257205.52,256178.86l0,380" />
          <path d="M257205.52,256558.86l1400,0" />
          <path d="M247615.52,256558.86l4990,0" />
          <path d="M252605.52,256558.86l0,-380" />
          <path d="M252605.52,256178.86l-4800,0" />
          <path d="M256205.52,256178.86l-2100,0" />
          <path d="M254105.52,256178.86l0,380" />
          <path d="M254105.52,256558.86l2100,0" />
          <path d="M256205.52,256558.86l0,-380" />
          <path d="M258415.52,249778.86l-800,0" />
          <path d="M257615.52,249778.86l0,500" />
          <path d="M257615.52,250278.86l610,0" />
          <path d="M247805.52,250278.86l610,0" />
          <path d="M248415.52,250278.86l0,-500" />
          <path d="M248415.52,249778.86l-800,0" />
          <path d="M255615.52,249778.86l-1600,0" />
          <path d="M254015.52,249778.86l0,500" />
          <path d="M254015.52,250278.86l1600,0" />
          <path d="M255615.52,250278.86l0,-500" />
          <path d="M252015.52,249778.86l-1600,0" />
          <path d="M250415.52,249778.86l0,500" />
          <path d="M250415.52,250278.86l1600,0" />
          <path d="M252015.52,250278.86l0,-500" />
          <path d="M258225.52,256178.86l0,-5900" />
          <path d="M258605.52,256558.86l0,-6280" />
          <path d="M262485.52,266458.86l2280,0" />
          <path d="M264765.52,266458.86l0,-500" />
          <path d="M264765.52,265958.86l-1970,0" />
          <path d="M267340.52,265958.86l-575,0" />
          <path d="M266765.52,265958.86l0,500" />
          <path d="M266765.52,266458.86l650,0" />
          <path d="M222415.52,265958.86l800,0" />
          <path d="M223215.52,265958.86l0,-500" />
          <path d="M223215.52,265458.86l-610,0" />
          <path d="M236740.52,265458.86l-725,0" />
          <path d="M236015.52,265458.86l0,500" />
          <path d="M236015.52,265958.86l800,0" />
          <path d="M225215.52,265958.86l1600,0" />
          <path d="M226815.52,265958.86l0,-500" />
          <path d="M226815.52,265458.86l-1600,0" />
          <path d="M225215.52,265458.86l0,500" />
          <path d="M228815.52,265958.86l1600,0" />
          <path d="M230415.52,265958.86l0,-500" />
          <path d="M230415.52,265458.86l-1600,0" />
          <path d="M228815.52,265458.86l0,500" />
          <path d="M232415.52,265958.86l1600,0" />
          <path d="M234015.52,265958.86l0,-500" />
          <path d="M234015.52,265458.86l-1600,0" />
          <path d="M232415.52,265458.86l0,500" />
          <path d="M247425.52,265458.86l0,-6140" />
          <path d="M247805.52,265458.86l0,-6140" />
          <path d="M222225.52,265458.86l0,-6140" />
          <path d="M222605.52,265458.86l0,-6140" />
          <path d="M208085.52,265958.86l730,0" />
          <path d="M208815.52,265958.86l0,-500" />
          <path d="M208815.52,265458.86l-420,0" />
          <path d="M211540.52,265458.86l-725,0" />
          <path d="M210815.52,265458.86l0,500" />
          <path d="M210815.52,265958.86l800,0" />
          <path d="M247425.52,256178.86l-250,0" />
          <path d="M247175.52,256178.86l0,380" />
          <path d="M247175.52,256558.86l440,0" />
          <path d="M222415.52,256558.86l390,0" />
          <path d="M222805.52,256558.86l0,-380" />
          <path d="M222805.52,256178.86l-200,0" />
          <path d="M246275.52,256178.86l-6450,0" />
          <path d="M239825.52,256178.86l0,380" />
          <path d="M239825.52,256558.86l6450,0" />
          <path d="M246275.52,256558.86l0,-380" />
          <path d="M238925.52,256178.86l-7060,0" />
          <path d="M231865.52,256178.86l0,380" />
          <path d="M231865.52,256558.86l7060,0" />
          <path d="M238925.52,256558.86l0,-380" />
          <path d="M230965.52,256178.86l-2700,0" />
          <path d="M228265.52,256178.86l0,380" />
          <path d="M228265.52,256558.86l2700,0" />
          <path d="M230965.52,256558.86l0,-380" />
          <path d="M227365.52,256178.86l-3660,0" />
          <path d="M223705.52,256178.86l0,380" />
          <path d="M223705.52,256558.86l3660,0" />
          <path d="M227365.52,256558.86l0,-380" />
          <path d="M247615.52,249778.86l-800,0" />
          <path d="M246815.52,249778.86l0,500" />
          <path d="M246815.52,250278.86l610,0" />
          <path d="M222605.52,250278.86l610,0" />
          <path d="M223215.52,250278.86l0,-500" />
          <path d="M223215.52,249778.86l-800,0" />
          <path d="M244815.52,249778.86l-1600,0" />
          <path d="M243215.52,249778.86l0,500" />
          <path d="M243215.52,250278.86l1600,0" />
          <path d="M244815.52,250278.86l0,-500" />
          <path d="M241215.52,249778.86l-1600,0" />
          <path d="M239615.52,249778.86l0,500" />
          <path d="M239615.52,250278.86l1600,0" />
          <path d="M241215.52,250278.86l0,-500" />
          <path d="M237615.52,249778.86l-1600,0" />
          <path d="M236015.52,249778.86l0,500" />
          <path d="M236015.52,250278.86l1600,0" />
          <path d="M237615.52,250278.86l0,-500" />
          <path d="M234015.52,249778.86l-1600,0" />
          <path d="M232415.52,249778.86l0,500" />
          <path d="M232415.52,250278.86l1600,0" />
          <path d="M234015.52,250278.86l0,-500" />
          <path d="M230415.52,249778.86l-1600,0" />
          <path d="M228815.52,249778.86l0,500" />
          <path d="M228815.52,250278.86l1600,0" />
          <path d="M230415.52,250278.86l0,-500" />
          <path d="M226815.52,249778.86l-1600,0" />
          <path d="M225215.52,249778.86l0,500" />
          <path d="M225215.52,250278.86l1600,0" />
          <path d="M226815.52,250278.86l0,-500" />
          <path d="M247425.52,256178.86l0,-5900" />
          <path d="M247805.52,256178.86l0,-5900" />
          <path d="M222225.52,256178.86l0,-5900" />
          <path d="M222605.52,256178.86l0,-5900" />
          <path d="M266015.52,249778.86l-800,0" />
          <path d="M265215.52,249778.86l0,500" />
          <path d="M265215.52,250278.86l610,0" />
          <path d="M262795.52,250278.86l420,0" />
          <path d="M263215.52,250278.86l0,-500" />
          <path d="M263215.52,249778.86l-730,0" />
          <path d="M265825.52,256178.86l-1160,0" />
          <path d="M264665.52,256178.86l0,380" />
          <path d="M264665.52,256558.86l1350,0" />
          <path d="M262485.52,256558.86l1280,0" />
          <path d="M263765.52,256558.86l0,-380" />
          <path d="M263765.52,256178.86l-970,0" />
          <path d="M265825.52,256178.86l0,-5900" />
          <path d="M266205.52,256178.86l0,-5900" />
          <path d="M270705.52,250278.86l0,6280" />
          <path d="M270325.52,250278.86l0,5900" />
          <path d="M279305.52,249778.86l0,-11500" />
          <path d="M279805.52,249968.86l0,-12190" />
          <path d="M211615.52,249778.86l-800,0" />
          <path d="M210815.52,249778.86l0,500" />
          <path d="M210815.52,250278.86l610,0" />
          <path d="M208395.52,250278.86l420,0" />
          <path d="M208815.52,250278.86l0,-500" />
          <path d="M208815.52,249778.86l-730,0" />
          <path d="M191525.52,245958.86l0,720" />
          <path d="M191025.52,246458.86l0,295" />
          <path d="M211425.52,256558.86l0,-6280" />
          <path d="M211805.52,256178.86l0,-5900" />
          <path d="M279305.52,258938.86l0,-2290" />
          <path d="M279805.52,259128.86l0,-2760" />
          <path d="M262795.52,259318.86l0,6640" />
          <path d="M262485.52,258938.86l0,7520" />
          <path d="M208395.52,259318.86l0,6140" />
          <path d="M208085.52,258938.86l0,7020" />
          <path d="M222415.52,258938.86l-630,0" />
          <path d="M221785.52,258938.86l0,380" />
          <path d="M221785.52,259318.86l440,0" />
          <path d="M218890.52,259318.86l1395,0" />
          <path d="M220285.52,259318.86l0,-380" />
          <path d="M220585.52,259318.86l0,-380" />
          <path d="M220285.52,258938.86l-1470,0" />
          <path d="M247615.52,258938.86l-680,0" />
          <path d="M247235.52,259318.86l190,0" />
          <path d="M244090.52,259318.86l1645,0" />
          <path d="M245735.52,259318.86l0,-380" />
          <path d="M245735.52,258938.86l-4210,0" />
          <path d="M254725.52,265458.86l0,-6140" />
          <path d="M254905.52,265458.86l0,-6140" />
          <path d="M254725.52,265458.86l180,0" />
          <path d="M254725.52,259318.86l180,0" />
          <path d="M258325.52,265458.86l0,-6140" />
          <path d="M258505.52,265458.86l0,-6140" />
          <path d="M258325.52,265458.86l180,0" />
          <path d="M258325.52,259318.86l180,0" />
          <path d="M273025.52,254778.86l380,0" />
          <path d="M273405.52,255778.86l-380,0" />
          <path d="M279305.52,256178.86l-5900,0" />
          <path d="M273025.52,256648.86l6280,0" />
          <path d="M279305.52,256178.86l0,-5900" />
          <path d="M279805.52,256368.86l0,-6400" />
          <path d="M267615.52,250278.86l-1410,0" />
          <path d="M267425.52,249778.86l-1410,0" />
          <path d="M270325.52,250278.86l-2710,0" />
          <path d="M270945.52,249778.86l-3020,0" />
          <path d="M254755.52,256178.86l120,0" />
          <path d="M222225.52,256178.86l-500,0" />
          <path d="M221725.52,256178.86l0,380" />
          <path d="M221725.52,256558.86l690,0" />
          <path d="M211425.52,256558.86l880,0" />
          <path d="M212305.52,256558.86l0,-380" />
          <path d="M212305.52,256178.86l-500,0" />
          <path d="M220225.52,256178.86l-6420,0" />
          <path d="M213805.52,256178.86l0,380" />
          <path d="M213805.52,256558.86l6420,0" />
          <path d="M220225.52,256558.86l0,-380" />
          <path d="M222415.52,249778.86l-800,0" />
          <path d="M221615.52,249778.86l0,500" />
          <path d="M221615.52,250278.86l610,0" />
          <path d="M211805.52,250278.86l610,0" />
          <path d="M212415.52,250278.86l0,-500" />
          <path d="M212415.52,249778.86l-800,0" />
          <path d="M219615.52,249778.86l-1600,0" />
          <path d="M218015.52,249778.86l0,500" />
          <path d="M218015.52,250278.86l1600,0" />
          <path d="M219615.52,250278.86l0,-500" />
          <path d="M216015.52,249778.86l-1600,0" />
          <path d="M214415.52,249778.86l0,500" />
          <path d="M214415.52,250278.86l1600,0" />
          <path d="M216015.52,250278.86l0,-500" />
          <path d="M200385.52,250278.86l0,5590" />
          <path d="M200005.52,250278.86l0,5530" />
          <path d="M200385.52,250278.86l-380,0" />
          <path d="M200005.52,256558.86l1630,0" />
          <path d="M201635.52,256558.86l0,-380" />
          <path d="M201635.52,256178.86l-1250,0" />
          <path d="M203035.52,256178.86l-500,0" />
          <path d="M202535.52,256178.86l0,380" />
          <path d="M202535.52,256558.86l690,0" />
          <path d="M203415.52,250278.86l0,5900" />
          <path d="M203035.52,250278.86l0,5900" />
          <path d="M203225.52,256558.86l690,0" />
          <path d="M203915.52,256558.86l0,-380" />
          <path d="M203915.52,256178.86l-500,0" />
          <path d="M207235.52,256178.86l-2420,0" />
          <path d="M204815.52,256178.86l0,380" />
          <path d="M204815.52,256558.86l3110,0" />
          <path d="M203225.52,249778.86l-410,0" />
          <path d="M202815.52,249778.86l0,500" />
          <path d="M202815.52,250278.86l220,0" />
          <path d="M200005.52,250278.86l810,0" />
          <path d="M200815.52,250278.86l0,-500" />
          <path d="M200815.52,249778.86l-310,0" />
          <path d="M191525.52,262518.86l-800,0" />
          <path d="M191025.52,262138.86l-800,0" />
          <path d="M191025.52,246458.86l-800,0" />
          <path d="M191525.52,245958.86l-800,0" />
          <path d="M191025.52,259128.86l0,500" />
          <path d="M191025.52,259628.86l500,0" />
          <path d="M191525.52,259628.86l0,-310" />
          <path d="M191525.52,262518.86l0,-890" />
          <path d="M191525.52,261628.86l-500,0" />
          <path d="M191025.52,261628.86l0,510" />
          <path d="M190725.52,262518.86l0,3440" />
          <path d="M190225.52,262138.86l0,4320" />
          <path d="M198955.52,265958.86l0,-6640" />
          <path d="M198943.52,265958.86l0,-6640" />
          <path d="M199075.52,265958.86l0,-6640" />
          <path d="M199087.52,265958.86l0,-6640" />
          <path d="M198955.52,265958.86l120,0" />
          <path d="M198955.52,259318.86l120,0" />
          <path d="M229525.52,256178.86l0,-5900" />
          <path d="M229705.52,256178.86l0,-5900" />
          <path d="M229525.52,256178.86l180,0" />
          <path d="M229525.52,250278.86l180,0" />
          <path d="M225925.52,265458.86l0,-6140" />
          <path d="M226105.52,265458.86l0,-6140" />
          <path d="M225925.52,265458.86l180,0" />
          <path d="M225925.52,259318.86l180,0" />
          <path d="M229525.52,265458.86l0,-6140" />
          <path d="M229705.52,265458.86l0,-6140" />
          <path d="M229525.52,265458.86l180,0" />
          <path d="M229525.52,259318.86l180,0" />
          <path d="M202455.52,265958.86l120,0" />
          <path d="M202455.52,259318.86l120,0" />
          <path d="M233125.52,265458.86l0,-6140" />
          <path d="M233305.52,265458.86l0,-6140" />
          <path d="M233125.52,265458.86l180,0" />
          <path d="M233125.52,259318.86l180,0" />
          <path d="M240325.52,256178.86l0,-5900" />
          <path d="M240505.52,256178.86l0,-5900" />
          <path d="M240325.52,256178.86l180,0" />
          <path d="M240325.52,250278.86l180,0" />
          <path d="M258225.52,253168.86l0,120" />
          <path d="M254875.52,250278.86l-120,0" />
          <path d="M211425.52,254308.86l0,-1539.27" />
          <path d="M211425.52,252656.89l0,-778.03" />
          <path d="M209800.52,254308.86l-1405,0" />
          <path d="M209800.52,254038.86l-1405,0" />
          <path d="M209800.52,253768.86l-1405,0" />
          <path d="M209799,253498.86l-1403.48,0" />
          <path d="M209800.52,253228.86l-304.25,0" />
          <path d="M209279.39,253228.86l-883.87,0" />
          <path d="M209800.52,252958.86l-823.87,0" />
          <path d="M208759.77,252958.86l-364.25,0" />
          <path d="M209800.52,252688.86l-1343.48,0" />
          <path d="M209800.52,252418.86l-1405,0" />
          <path d="M209800.52,252148.86l-1405,0" />
          <path d="M209800.52,251878.86l-1405,0" />
          <path d="M209860.52,254308.86l0,-778.03" />
          <path d="M209860.52,253418.13l0,-1539.27" />
          <path d="M209860.52,253418.13l-641.62,-333.39" />
          <path d="M209860.52,253530.82l-663.95,-345" />
          <path d="M209196.57,253185.82l38.49,-174.23" />
          <path d="M209235.06,253011.59l-198.17,181.86" />
          <path d="M209036.89,253193.46l40.29,-182.37" />
          <path d="M209077.18,253011.09l-681.66,-354.2" />
          <path d="M209054.85,253112.18l-659.32,-342.6" />
          <path d="M208395.52,251878.86l0,2430" />
          <path d="M210020.52,251878.86l1405,0" />
          <path d="M210020.52,252148.86l1405,0" />
          <path d="M210020.52,252418.86l1405,0" />
          <path d="M210020.52,252688.86l1405,0" />
          <path d="M210020.52,252958.86l1405,0" />
          <path d="M210020.52,253228.86l1405,0" />
          <path d="M210020.52,253498.86l1405,0" />
          <path d="M210020.52,253768.86l1405,0" />
          <path d="M210020.52,254038.86l1405,0" />
          <path d="M210020.52,254308.86l1405,0" />
          <path d="M209960.52,251878.86l0,2430" />
          <path d="M209960.52,254398.86l-100,0" />
          <path d="M209860.52,254398.86l0,-868.03" />
          <path d="M209860.52,253418.13l0,-1629.27" />
          <path d="M209860.52,251788.86l100,0" />
          <path d="M209960.52,251788.86l0,2610" />
          <path d="M210020.52,254458.86l-220,0" />
          <path d="M209800.52,254458.86l0,-959.21" />
          <path d="M209800.52,253386.95l0,-1658.09" />
          <path d="M209800.52,251728.86l220,0" />
          <path d="M210020.52,251728.86l0,2730" />
          <path d="M211425.52,251878.86l0,-1600" />
          <path d="M211425.52,250278.86l-3030,0" />
          <path d="M208395.52,250278.86l0,1600" />
          <path d="M211425.52,251878.86l-1405,0" />
          <path d="M209960.52,251878.86l-100,0" />
          <path d="M209800.52,251878.86l-1405,0" />
          <path d="M209860.52,254308.86l100,0" />
          <path d="M258605.52,254308.86l0,-890" />
          <path d="M258605.52,253418.13l0,-1539.27" />
          <path d="M261635.52,254308.86l-1405,0" />
          <path d="M261635.52,254038.86l-1405,0" />
          <path d="M261635.52,253768.86l-1405,0" />
          <path d="M261574,253498.86l-1343.48,0" />
          <path d="M261635.52,253228.86l-364.25,0" />
          <path d="M261054.39,253228.86l-823.87,0" />
          <path d="M261635.52,252958.86l-883.87,0" />
          <path d="M260534.77,252958.86l-304.25,0" />
          <path d="M261635.52,252688.86l-1403.48,0" />
          <path d="M261635.52,252418.86l-1405,0" />
          <path d="M261635.52,252148.86l-1405,0" />
          <path d="M261635.52,251878.86l-1405,0" />
          <path d="M260170.52,254308.86l0,-1539.27" />
          <path d="M260170.52,252656.89l0,-778.03" />
          <path d="M261635.52,253418.13l-641.62,-333.39" />
          <path d="M261635.52,253530.82l-663.95,-345" />
          <path d="M260971.57,253185.82l38.49,-174.23" />
          <path d="M261010.06,253011.59l-198.17,181.86" />
          <path d="M260811.89,253193.46l40.29,-182.37" />
          <path d="M260852.18,253011.09l-681.66,-354.2" />
          <path d="M260829.85,253112.18l-659.32,-342.6" />
          <path d="M261635.52,251878.86l0,2430" />
          <path d="M258605.52,251878.86l1405,0" />
          <path d="M258605.52,252148.86l1405,0" />
          <path d="M258605.52,252418.86l1405,0" />
          <path d="M258605.52,252688.86l1405,0" />
          <path d="M258605.52,252958.86l1405,0" />
          <path d="M258605.52,253228.86l1405,0" />
          <path d="M258605.52,253498.86l1405,0" />
          <path d="M258605.52,253768.86l1405,0" />
          <path d="M258605.52,254038.86l1405,0" />
          <path d="M258605.52,254308.86l1405,0" />
          <path d="M260070.52,251878.86l0,2430" />
          <path d="M260010.52,254458.86l220,0" />
          <path d="M260230.52,254458.86l0,-1658.09" />
          <path d="M260230.52,252688.07l0,-959.21" />
          <path d="M260230.52,251728.86l-220,0" />
          <path d="M260010.52,251728.86l0,2730" />
          <path d="M260070.52,254398.86l100,0" />
          <path d="M260170.52,254398.86l0,-1629.27" />
          <path d="M260170.52,252656.89l0,-868.03" />
          <path d="M260170.52,251788.86l-100,0" />
          <path d="M260070.52,251788.86l0,2610" />
          <path d="M261635.52,251878.86l0,-1600" />
          <path d="M261635.52,250278.86l-3030,0" />
          <path d="M258605.52,250278.86l0,1600" />
          <path d="M261635.52,251878.86l-1405,0" />
          <path d="M260170.52,251878.86l-100,0" />
          <path d="M260010.52,251878.86l-1405,0" />
          <path d="M260170.52,254308.86l-100,0" />
          <path d="M200385.52,255868.86l0,310" />
          <path d="M200005.52,255808.86l0,750" />
          <path d="M211615.52,258938.86l-1470,0" />
          <path d="M210145.52,258938.86l0,380" />
          <path d="M210145.52,259318.86l1395,0" />
          <path d="M208395.52,259318.86l250,0" />
          <path d="M210145.52,259318.86l0,-380" />
          <path d="M208945.52,258938.86l-860,0" />
          <path d="M215215.52,258938.86l-2300,0" />
          <path d="M212915.52,259318.86l2225,0" />
          <path d="M211690.52,259318.86l1225,0" />
          <path d="M212915.52,258938.86l-1300,0" />
          <path d="M218815.52,258938.86l-1300,0" />
          <path d="M217515.52,259318.86l1225,0" />
          <path d="M215290.52,259318.86l2225,0" />
          <path d="M217515.52,258938.86l-2300,0" />
          <path d="M236815.52,258938.86l-2490,0" />
          <path d="M234325.52,259318.86l2415,0" />
          <path d="M222605.52,259318.86l1305,0" />
          <path d="M223910.52,259318.86l0,-380" />
          <path d="M223910.52,258938.86l-1495,0" />
          <path d="M234325.52,258938.86l-2315,0" />
          <path d="M232010.52,258938.86l0,380" />
          <path d="M232010.52,259318.86l2315,0" />
          <path d="M231110.52,258938.86l-2700,0" />
          <path d="M228410.52,258938.86l0,380" />
          <path d="M228410.52,259318.86l2700,0" />
          <path d="M231110.52,259318.86l0,-380" />
          <path d="M227510.52,258938.86l-2700,0" />
          <path d="M224810.52,258938.86l0,380" />
          <path d="M224810.52,259318.86l2700,0" />
          <path d="M227510.52,259318.86l0,-380" />
          <path d="M244090.52,265458.86l-150,0" />
          <path d="M241525.52,259318.86l2415,0" />
          <path d="M236890.52,259318.86l1495,0" />
          <path d="M238685.52,259318.86l0,-380" />
          <path d="M238685.52,258938.86l-1870,0" />
          <path d="M241525.52,258938.86l-1640,0" />
          <path d="M239885.52,258938.86l0,380" />
          <path d="M239885.52,259318.86l1640,0" />
          <path d="M267340.52,259318.86l0,300" />
          <path d="M267340.52,259618.86l150,0" />
          <path d="M267490.52,259618.86l0,-300" />
          <path d="M267490.52,265958.86l0,-5340" />
          <path d="M267490.52,260618.86l-150,0" />
          <path d="M267340.52,260618.86l0,5340" />
          <path d="M267415.52,258938.86l-2120,0" />
          <path d="M265295.52,258938.86l0,380" />
          <path d="M265295.52,259318.86l2045,0" />
          <path d="M262795.52,259318.86l1000,0" />
          <path d="M263795.52,259318.86l0,-380" />
          <path d="M263795.52,258938.86l-1310,0" />
          <path d="M267415.52,266458.86l850,0" />
          <path d="M268265.52,266458.86l0,-500" />
          <path d="M268265.52,265958.86l-925,0" />
          <path d="M279305.52,265958.86l-2040,0" />
          <path d="M277265.52,265958.86l0,500" />
          <path d="M277265.52,266458.86l2540,0" />
          <path d="M270265.52,266458.86l1500,0" />
          <path d="M271765.52,266458.86l0,-500" />
          <path d="M271765.52,265958.86l-1500,0" />
          <path d="M270265.52,265958.86l0,500" />
          <path d="M273765.52,266458.86l1500,0" />
          <path d="M275265.52,266458.86l0,-500" />
          <path d="M275265.52,265958.86l-1500,0" />
          <path d="M273765.52,265958.86l0,500" />
          <path d="M271990.52,238278.86l-150,0" />
          <path d="M211615.52,265958.86l800,0" />
          <path d="M212415.52,265958.86l0,-500" />
          <path d="M212415.52,265458.86l-725,0" />
          <path d="M215140.52,265458.86l-725,0" />
          <path d="M214415.52,265458.86l0,500" />
          <path d="M214415.52,265958.86l800,0" />
          <path d="M215215.52,265958.86l800,0" />
          <path d="M216015.52,265958.86l0,-500" />
          <path d="M216015.52,265458.86l-725,0" />
          <path d="M218740.52,265458.86l-725,0" />
          <path d="M218015.52,265458.86l0,500" />
          <path d="M218015.52,265958.86l800,0" />
          <path d="M218815.52,265958.86l800,0" />
          <path d="M219615.52,265958.86l0,-500" />
          <path d="M219615.52,265458.86l-725,0" />
          <path d="M222225.52,265458.86l-610,0" />
          <path d="M221615.52,265458.86l0,500" />
          <path d="M221615.52,265958.86l800,0" />
          <path d="M195515.52,266458.86l750,0" />
          <path d="M196265.52,266458.86l0,-500" />
          <path d="M196265.52,265958.86l-825,0" />
          <path d="M207235.52,265958.86l-1970,0" />
          <path d="M205265.52,265958.86l0,500" />
          <path d="M205265.52,266458.86l2660,0" />
          <path d="M198265.52,266458.86l1500,0" />
          <path d="M199765.52,266458.86l0,-500" />
          <path d="M199765.52,265958.86l-1500,0" />
          <path d="M198265.52,265958.86l0,500" />
          <path d="M201765.52,266458.86l1500,0" />
          <path d="M203265.52,266458.86l0,-500" />
          <path d="M203265.52,265958.86l-1500,0" />
          <path d="M201765.52,265958.86l0,500" />
          <path d="M191525.52,259318.86l5680,0" />
          <path d="M193525.52,258938.86l-2000,0" />
          <path d="M236815.52,265958.86l800,0" />
          <path d="M237615.52,265958.86l0,-500" />
          <path d="M237615.52,265458.86l-725,0" />
          <path d="M247425.52,265458.86l-610,0" />
          <path d="M246815.52,265458.86l0,500" />
          <path d="M246815.52,265958.86l800,0" />
          <path d="M239615.52,265958.86l1600,0" />
          <path d="M241215.52,265958.86l0,-500" />
          <path d="M241215.52,265458.86l-1600,0" />
          <path d="M239615.52,265458.86l0,500" />
          <path d="M243215.52,265958.86l1600,0" />
          <path d="M244815.52,265958.86l0,-500" />
          <path d="M244815.52,265458.86l-1600,0" />
          <path d="M243215.52,265458.86l0,500" />
          <path d="M225935.39,256178.86l180,0" class="cnc-2" />
          <path d="M200505.52,249778.86l0,-900" />
          <path d="M200505.52,248878.86l-500,0" />
          <path d="M200005.52,248878.86l0,1400" />
          <path d="M200005.52,246828.86l0,50" />
          <path d="M200005.52,246878.86l500,0" />
          <path d="M200505.52,246878.86l0,-125" />
          <path d="M200505.52,246753.86l0,-1075" />
          <path d="M200505.52,245678.86l-500,0" />
          <path d="M200005.52,245678.86l0,1200" />
          <path d="M200005.52,242578.86l0,1100" />
          <path d="M200005.52,243678.86l500,0" />
          <path d="M200505.52,243678.86l0,-1600" />
          <path d="M191025.52,246753.86l0,75" />
          <path d="M191025.52,246828.86l500,0" />
          <path d="M191525.52,258938.86l0,-510" />
          <path d="M191525.52,258428.86l-500,0" />
          <path d="M191025.52,258428.86l0,700" />
          <path d="M191025.52,248828.86l0,1200" />
          <path d="M191025.52,250028.86l500,0" />
          <path d="M191525.52,250028.86l0,-1200" />
          <path d="M191525.52,248828.86l-500,0" />
          <path d="M191025.52,252028.86l0,1200" />
          <path d="M191025.52,253228.86l500,0" />
          <path d="M191525.52,253228.86l0,-1200" />
          <path d="M191525.52,252028.86l-500,0" />
          <path d="M191025.52,255228.86l0,1200" />
          <path d="M191025.52,256428.86l500,0" />
          <path d="M191525.52,256428.86l0,-1200" />
          <path d="M191525.52,255228.86l-500,0" />
          <path d="M199465.52,246023.86l490,0" />
          <path d="M270855.52,238328.86l0,2000" />
          <path d="M270855.52,240408.86l0,820" />
          <path d="M270855.52,241308.86l0,820" />
          <path d="M270855.52,242208.86l0,410" />
          <path d="M270795.52,238328.86l0,2000" />
          <path d="M270795.52,240408.86l0,820" />
          <path d="M270795.52,241308.86l0,820" />
          <path d="M270795.52,242208.86l0,410" />
          <path d="M270820.52,238328.86l0,2000" />
          <path d="M270820.52,240408.86l0,820" />
          <path d="M270820.52,241308.86l0,820" />
          <path d="M270820.52,242208.86l0,410" />
          <path d="M270830.52,238328.86l0,2000" />
          <path d="M270830.52,240408.86l0,820" />
          <path d="M270830.52,241308.86l0,820" />
          <path d="M270830.52,242208.86l0,410" />
          <path d="M270855.52,245317.01l0,411.85" />
          <path d="M270855.52,245808.86l0,820" />
          <path d="M270855.52,246708.86l0,820" />
          <path d="M270855.52,247608.86l0,820" />
          <path d="M270855.52,248508.86l0,820" />
          <path d="M270855.52,249408.86l0,320" />
          <path d="M270795.52,245317.01l0,411.85" />
          <path d="M270795.52,245808.86l0,820" />
          <path d="M270795.52,246708.86l0,820" />
          <path d="M270795.52,247608.86l0,820" />
          <path d="M270795.52,248508.86l0,820" />
          <path d="M270795.52,249408.86l0,320" />
          <path d="M270820.52,245317.01l0,411.85" />
          <path d="M270820.52,245808.86l0,820" />
          <path d="M270820.52,246708.86l0,820" />
          <path d="M270820.52,247608.86l0,820" />
          <path d="M270820.52,248508.86l0,820" />
          <path d="M270820.52,249408.86l0,320" />
          <path d="M270830.52,245317.01l0,411.85" />
          <path d="M270830.52,245808.86l0,820" />
          <path d="M270830.52,246708.86l0,820" />
          <path d="M270830.52,247608.86l0,820" />
          <path d="M270830.52,248508.86l0,820" />
          <path d="M270830.52,249408.86l0,320" />
          <path d="M270785.52,243998.86l-930,0" />
          <path d="M269775.52,243998.86l-820,0" />
          <path d="M268875.52,243998.86l-900,0" />
          <path d="M270785.52,243938.86l-930,0" />
          <path d="M269775.52,243938.86l-820,0" />
          <path d="M268875.52,243938.86l-900,0" />
          <path d="M270785.52,243963.86l-930,0" />
          <path d="M269775.52,243963.86l-820,0" />
          <path d="M268875.52,243963.86l-900,0" />
          <path d="M270785.52,243973.86l-930,0" />
          <path d="M269775.52,243973.86l-820,0" />
          <path d="M268875.52,243973.86l-900,0" />
          <path d="M270855.52,243718.86l0,210" />
          <path d="M270855.52,244008.86l0,210" />
          <path d="M270795.52,243718.86l0,210" />
          <path d="M270795.52,244008.86l0,210" />
          <path d="M270820.52,243718.86l0,210" />
          <path d="M270820.52,244008.86l0,210" />
          <path d="M270830.52,243718.86l0,210" />
          <path d="M270830.52,244008.86l0,210" />
          <path d="M270945.52,249778.86l0,500" />
          <path d="M272845.52,249778.86l0,500" />
          <path d="M272845.52,250278.86l80,0" />
          <path d="M270705.52,250278.86l240,0" />
          <path d="M273405.52,250278.86l0,4500" />
          <path d="M273405.52,255778.86l0,400" />
          <path d="M273025.52,250278.86l0,4500" />
          <path d="M273025.52,255778.86l0,870" />
          <path d="M272925.52,250278.86l0,-500" />
          <path d="M208945.52,259318.86l0,-380" />
          <path d="M210145.52,259318.86l0,-380" />
          <path d="M246935.52,259318.86l0,-380" />
          <path d="M200005.52,244558.86l0,1120" />
          <path d="M199465.52,246013.86l490,0" />
          <path d="M199465.52,245988.86l490,0" />
          <path d="M199465.52,246048.86l490,0" />
          <path d="M193055.41,245988.86l820,0" />
          <path d="M191575.52,245988.86l500,0" />
          <path d="M192155.52,245988.86l819.89,0" />
          <path d="M194855.41,245988.86l820,0" />
          <path d="M193955.41,245988.86l820,0" />
          <path d="M196655.52,245988.86l819.94,0" />
          <path d="M191575.52,246048.86l500,0" />
          <path d="M195755.41,245988.86l820.11,0" />
          <path d="M192155.52,246048.86l819.89,0" />
          <path d="M197555.47,245988.86l810.06,0" />
          <path d="M195755.41,246048.86l820.11,0" />
          <path d="M193055.41,246048.86l820,0" />
          <path d="M194855.41,246048.86l820,0" />
          <path d="M193955.41,246048.86l820,0" />
          <path d="M191575.52,246023.86l500,0" />
          <path d="M197555.47,246048.86l810.06,0" />
          <path d="M196655.52,246048.86l819.94,0" />
          <path d="M193955.41,246023.86l820,0" />
          <path d="M193055.41,246023.86l820,0" />
          <path d="M192155.52,246023.86l819.89,0" />
          <path d="M194855.41,246023.86l820,0" />
          <path d="M195755.41,246023.86l820.11,0" />
          <path d="M196655.52,246023.86l819.94,0" />
          <path d="M197555.47,246023.86l810.06,0" />
          <path d="M191575.52,246013.86l500,0" />
          <path d="M193055.41,246013.86l820,0" />
          <path d="M193955.41,246013.86l820,0" />
          <path d="M194855.41,246013.86l820,0" />
          <path d="M196655.52,246013.86l819.94,0" />
          <path d="M197555.47,246013.86l810.06,0" />
          <path d="M195755.41,246013.86l820.11,0" />
          <path d="M192155.52,246013.86l819.89,0" />
          <path d="M273025.52,250278.86l-100,0" />
          <path d="M270265.52,265958.86l1500,0" />
          <path d="M270265.52,265958.86l1500,0" />
          <path d="M270265.52,265958.86l1500,0" />
          <use xlink:href="#$TCHSYS$WIN2D_1800x500" x="275075.52" y="238028.86" transform="scale(1,-1) translate(0,-476057.72) rotate(-180,275075.52,238028.86)">.<g class="blkclass0"><text transform="translate(-531.68,-460.53)" font-size="386.75">WC1824</text></g></use>
          <use xlink:href="#$TCHSYS$WIN2D_1800x500" x="272155.52" y="238028.86" transform="scale(-1,-1) translate(-544311.04,-476057.72) rotate(-180,272155.52,238028.86)">.<g class="blkclass0"><text transform="translate(-613.76,-557.78)" font-size="386.75">WC1824</text></g></use>
          <use xlink:href="#$TCHSYS$WIN2D_2000x500" x="267675.52" y="242468.86" transform="scale(-1,1) translate(-535351.04,0) rotate(-90,267675.52,242468.86)">.<g class="blkclass0"><text transform="rotate(-90 -461.83,539.03) translate(-461.83,539.03)" font-size="386.75">WC2024</text></g></use>
          <use xlink:href="#$TCHSYS$WIN2D_2000x500" x="267675.52" y="245468.86" transform="rotate(-270,267675.52,245468.86)">.<g class="blkclass0"><text transform="rotate(-90 -378.24,658.27) translate(-378.24,658.27)" font-size="386.75">WC2024</text></g></use>
          <use xlink:href="#$TCHSYS$WIN2D_1500x500" x="198950.52" y="242328.86" transform="scale(1,-1) translate(0,-484657.72) rotate(-180,198950.52,242328.86)">.<g class="blkclass0"><text transform="translate(-580,-447.15)" font-size="386.75">WC1524</text></g></use>
          <use xlink:href="#$TCHSYS$WIN2D_2000x500" x="209815.52" y="265708.86">.<g class="blkclass0"><text transform="translate(-600,798.75)" font-size="386.75">WC2024</text></g></use>
          <use xlink:href="#$TCHSYS$WIN2D_2000x500" x="193765.52" y="266208.86">.<g class="blkclass0"><text transform="translate(-600,798.75)" font-size="386.75">WC2024</text></g></use>
          <use xlink:href="#$TCHSYS$WIN2D_2000x500" x="197265.52" y="266208.86">.<g class="blkclass0"><text transform="translate(-600,798.75)" font-size="386.75">WC2024</text></g></use>
          <use xlink:href="#$TCHSYS$WIN2D_2000x500" x="200765.52" y="266208.86">.<g class="blkclass0"><text transform="translate(-600,798.75)" font-size="386.75">WC2024</text></g></use>
          <use xlink:href="#$TCHSYS$WIN2D_2000x500" x="204265.52" y="266208.86">.<g class="blkclass0"><text transform="translate(-600,798.75)" font-size="386.75">WC2024</text></g></use>
          <use xlink:href="#$TCHSYS$WIN2D_2000x500" x="260215.52" y="250028.86" transform="scale(-1,1) translate(-520431.04,0) rotate(-180,260215.52,250028.86)">.<g class="blkclass0"><text transform="translate(-600,-376.25)" font-size="386.75">WC2024</text></g></use>
          <use xlink:href="#$TCHSYS$WIN2D_2000x500" x="205815.52" y="250028.86" transform="scale(-1,1) translate(-411631.04,0) rotate(-180,205815.52,250028.86)">.<g class="blkclass0"><text transform="translate(-600,-376.25)" font-size="386.75">WC2024</text></g></use>
          <use xlink:href="#$TCHSYS$WIN2D_2000x500" x="260215.52" y="265708.86">.<g class="blkclass0"><text transform="translate(-600,798.75)" font-size="386.75">WC2024</text></g></use>
          <use xlink:href="#$TCHSYS$WIN2D_2000x500" x="253015.52" y="265708.86">.<g class="blkclass0"><text transform="translate(-600,798.75)" font-size="386.75">WC2024</text></g></use>
          <use xlink:href="#$TCHSYS$WIN2D_2000x500" x="256615.52" y="265708.86">.<g class="blkclass0"><text transform="translate(-600,798.75)" font-size="386.75">WC2024</text></g></use>
          <use xlink:href="#$TCHSYS$WIN2D_2000x500" x="249415.52" y="265708.86">.<g class="blkclass0"><text transform="translate(-600,798.75)" font-size="386.75">WC2024</text></g></use>
          <use xlink:href="#$TCHSYS$WIN2D_2000x500" x="256615.52" y="250028.86" transform="scale(1,-1) translate(0,-500057.72) rotate(-180,256615.52,250028.86)">.<g class="blkclass0"><text transform="translate(-600,-376.25)" font-size="386.75">WC2024</text></g></use>
          <use xlink:href="#$TCHSYS$WIN2D_2000x500" x="253015.52" y="250028.86" transform="scale(1,-1) translate(0,-500057.72) rotate(-180,253015.52,250028.86)">.<g class="blkclass0"><text transform="translate(-600,-376.25)" font-size="386.75">WC2024</text></g></use>
          <use xlink:href="#$TCHSYS$WIN2D_2000x500" x="249415.52" y="250028.86" transform="rotate(-180,249415.52,250028.86)">.<g class="blkclass0"><text transform="translate(-600,-376.25)" font-size="386.75">WC2024</text></g></use>
          <use xlink:href="#$TCHSYS$WIN2D_2000x500" x="276265.52" y="266208.86" transform="scale(-1,1) translate(-552531.04,0)">.<g class="blkclass0"><text transform="translate(-600,798.75)" font-size="386.75">WC2024</text></g></use>
          <use xlink:href="#$TCHSYS$WIN2D_2000x500" x="272765.52" y="266208.86" transform="scale(-1,1) translate(-545531.04,0)">.<g class="blkclass0"><text transform="translate(-600,798.75)" font-size="386.75">WC2024</text></g></use>
          <use xlink:href="#$TCHSYS$WIN2D_2000x500" x="269265.52" y="266208.86" transform="scale(-1,1) translate(-538531.04,0)">.<g class="blkclass0"><text transform="translate(-600,798.75)" font-size="386.75">WC2024</text></g></use>
          <use xlink:href="#$TCHSYS$WIN2D_2000x500" x="265765.52" y="266208.86" transform="scale(-1,1) translate(-531531.04,0)">.<g class="blkclass0"><text transform="translate(-600,798.75)" font-size="386.75">WC2024</text></g></use>
          <use xlink:href="#$TCHSYS$WIN2D_2000x500" x="245815.52" y="265708.86" transform="scale(-1,-1) translate(-491631.04,-531417.72)">.<g class="blkclass0"><text transform="translate(-600,798.75)" font-size="386.75">WC2024</text></g></use>
          <use xlink:href="#$TCHSYS$WIN2D_2000x500" x="242215.52" y="265708.86" transform="scale(-1,-1) translate(-484431.04,-531417.72)">.<g class="blkclass0"><text transform="translate(-600,798.75)" font-size="386.75">WC2024</text></g></use>
          <use xlink:href="#$TCHSYS$WIN2D_2000x500" x="238615.52" y="265708.86">.<g class="blkclass0"><text transform="translate(-600,798.75)" font-size="386.75">WC2024</text></g></use>
          <use xlink:href="#$TCHSYS$WIN2D_2000x500" x="235015.52" y="265708.86">.<g class="blkclass0"><text transform="translate(-600,749.03)" font-size="386.75">WC2024</text></g></use>
          <use xlink:href="#$TCHSYS$WIN2D_2000x500" x="231415.52" y="265708.86">.<g class="blkclass0"><text transform="translate(-600,798.75)" font-size="386.75">WC2024</text></g></use>
          <use xlink:href="#$TCHSYS$WIN2D_2000x500" x="227815.52" y="265708.86">.<g class="blkclass0"><text transform="translate(-600,798.75)" font-size="386.75">WC2024</text></g></use>
          <use xlink:href="#$TCHSYS$WIN2D_2000x500" x="224215.52" y="265708.86">.<g class="blkclass0"><text transform="translate(-600,798.75)" font-size="386.75">WC2024</text></g></use>
          <use xlink:href="#$TCHSYS$WIN2D_2000x500" x="213415.52" y="265708.86">.<g class="blkclass0"><text transform="translate(-600,798.75)" font-size="386.75">WC2024</text></g></use>
          <use xlink:href="#$TCHSYS$WIN2D_2000x500" x="217015.52" y="265708.86">.<g class="blkclass0"><text transform="translate(-600,798.75)" font-size="386.75">WC2024</text></g></use>
          <use xlink:href="#$TCHSYS$WIN2D_2000x500" x="220615.52" y="265708.86">.<g class="blkclass0"><text transform="translate(-600,798.75)" font-size="386.75">WC2024</text></g></use>
          <use xlink:href="#$TCHSYS$WIN2D_2000x500" x="245815.52" y="250028.86" transform="rotate(-180,245815.52,250028.86)">.<g class="blkclass0"><text transform="translate(-600,-376.25)" font-size="386.75">WC2024</text></g></use>
          <use xlink:href="#$TCHSYS$WIN2D_2000x500" x="242215.52" y="250028.86" transform="rotate(-180,242215.52,250028.86)">.<g class="blkclass0"><text transform="translate(-600,-376.25)" font-size="386.75">WC2024</text></g></use>
          <use xlink:href="#$TCHSYS$WIN2D_2000x500" x="238615.52" y="250028.86" transform="rotate(-180,238615.52,250028.86)">.<g class="blkclass0"><text transform="translate(-600,-376.25)" font-size="386.75">WC2024</text></g></use>
          <use xlink:href="#$TCHSYS$WIN2D_2000x500" x="235015.52" y="250028.86" transform="rotate(-180,235015.52,250028.86)">.<g class="blkclass0"><text transform="translate(-600,-376.25)" font-size="386.75">WC2024</text></g></use>
          <use xlink:href="#$TCHSYS$WIN2D_2000x500" x="231415.52" y="250028.86" transform="rotate(-180,231415.52,250028.86)">.<g class="blkclass0"><text transform="translate(-600,-376.25)" font-size="386.75">WC2024</text></g></use>
          <use xlink:href="#$TCHSYS$WIN2D_2000x500" x="227815.52" y="250028.86" transform="scale(-1,1) translate(-455631.04,0) rotate(-180,227815.52,250028.86)">.<g class="blkclass0"><text transform="translate(-600,-376.25)" font-size="386.75">WC2024</text></g></use>
          <use xlink:href="#$TCHSYS$WIN2D_2000x500" x="224215.52" y="250028.86" transform="scale(-1,1) translate(-448431.04,0) rotate(-180,224215.52,250028.86)">.<g class="blkclass0"><text transform="translate(-600,-376.25)" font-size="386.75">WC2024</text></g></use>
          <use xlink:href="#$TCHSYS$WIN2D_2000x500" x="264215.52" y="250028.86" transform="rotate(-180,264215.52,250028.86)">.<g class="blkclass0"><text transform="rotate(0 -600,-376.25) translate(-600,-376.25)" font-size="386.75">WC2024</text></g></use>
          <use xlink:href="#$TCHSYS$WIN2D_2000x500" x="209815.52" y="250028.86" transform="scale(-1,1) translate(-419631.04,0) rotate(-180,209815.52,250028.86)">.<g class="blkclass0"><text transform="translate(-600,-376.25)" font-size="386.75">WC2024</text></g></use>
          <use xlink:href="#$TCHSYS$WIN2D_2000x500" x="220615.52" y="250028.86" transform="scale(-1,1) translate(-441231.04,0) rotate(-180,220615.52,250028.86)">.<g class="blkclass0"><text transform="translate(-600,-376.25)" font-size="386.75">WC2024</text></g></use>
          <use xlink:href="#$TCHSYS$WIN2D_2000x500" x="217015.52" y="250028.86" transform="scale(-1,1) translate(-434031.04,0) rotate(-180,217015.52,250028.86)">.<g class="blkclass0"><text transform="translate(-600,-376.25)" font-size="386.75">WC2024</text></g></use>
          <use xlink:href="#$TCHSYS$WIN2D_2000x500" x="213415.52" y="250028.86" transform="scale(-1,1) translate(-426831.04,0) rotate(-180,213415.52,250028.86)">.<g class="blkclass0"><text transform="translate(-600,-376.25)" font-size="386.75">WC2024</text></g></use>
          <use xlink:href="#$TCHSYS$WIN2D_2000x500" x="200255.52" y="244678.86" transform="scale(1,-1) translate(0,-489357.72) rotate(-270,200255.52,244678.86)">.<g class="blkclass0"><text transform="rotate(-90 1018.6,490) translate(1018.6,490)" font-size="386.75">WC2024</text></g></use>
          <use xlink:href="#$TCHSYS$WIN2D_2000x500" x="200255.52" y="247878.86" transform="scale(1,-1) translate(0,-495757.72) rotate(-270,200255.52,247878.86)">.<g class="blkclass0"><text transform="rotate(-90 1018.6,600) translate(1018.6,600)" font-size="386.75">WC2024</text></g></use>
          <use xlink:href="#$TCHSYS$WIN2D_2000x500" x="191275.52" y="247828.86" transform="scale(-1,1) translate(-382551.04,0) rotate(-90,191275.52,247828.86)">.<g class="blkclass0"><text transform="rotate(-90 -518.59,600) translate(-518.59,600)" font-size="386.75">WC2024</text></g></use>
          <use xlink:href="#$TCHSYS$WIN2D_2000x500" x="191275.52" y="251028.86" transform="scale(-1,-1) translate(-382551.04,-502057.72) rotate(-270,191275.52,251028.86)">.<g class="blkclass0"><text transform="rotate(-90 -398.48,600) translate(-398.48,600)" font-size="386.75">WC2024</text></g></use>
          <use xlink:href="#$TCHSYS$WIN2D_2000x500" x="191275.52" y="254228.86" transform="scale(-1,-1) translate(-382551.04,-508457.72) rotate(-270,191275.52,254228.86)">.<g class="blkclass0"><text transform="rotate(-90 -366.46,600) translate(-366.46,600)" font-size="386.75">WC2024</text></g></use>
          <use xlink:href="#$TCHSYS$WIN2D_2000x500" x="191275.52" y="257428.86" transform="scale(-1,-1) translate(-382551.04,-514857.72) rotate(-270,191275.52,257428.86)">.<g class="blkclass0"><text transform="rotate(-90 -374.41,600) translate(-374.41,600)" font-size="386.75">WC2024</text></g></use>
          <use xlink:href="#$TCHSYS$WIN2D_2000x500" x="201815.52" y="250028.86" transform="scale(-1,1) translate(-403631.04,0) rotate(-180,201815.52,250028.86)">.<g class="blkclass0"><text transform="translate(-600,-376.25)" font-size="386.75">WC2024</text></g></use>
          <use xlink:href="#$TCHSYS$WIN2D_1800x500" x="194100.52" y="242328.86" transform="scale(-1,-1) translate(-388201.04,-484657.72) rotate(-180,194100.52,242328.86)">.<g class="blkclass0"><text transform="translate(-580,-410.77)" font-size="386.75">WC1824</text></g></use>
          <use xlink:href="#$TCHSYS$WIN2D_2000x500" x="191275.52" y="260628.86" transform="scale(-1,-1) translate(-382551.04,-521257.72) rotate(-270,191275.52,260628.86)">.<g class="blkclass0"><text transform="rotate(-90 -366.41,600) translate(-366.41,600)" font-size="386.75">WC2024</text></g></use>
          <use xlink:href="#$TCHSYS$WIN2D_2000x500" x="279555.52" y="260888.86" transform="scale(1,-1) translate(0,-521777.72) rotate(-270,279555.52,260888.86)">.<g class="blkclass0"><text transform="rotate(-90 708.6,622.38) translate(708.6,622.38)" font-size="386.75">WC2024</text></g></use>
          <use xlink:href="#$TCHSYS$WIN2D_2000x500" x="279555.52" y="248468.86" transform="scale(1,-1) translate(0,-496937.72) rotate(-270,279555.52,248468.86)">.<g class="blkclass0"><text transform="rotate(-90 744.9,581.11) translate(744.9,581.11)" font-size="386.75">WC2024</text></g></use>
          <use xlink:href="#$TCHSYS$WIN2D_2000x500" x="279555.52" y="242468.86" transform="scale(1,-1) translate(0,-484937.72) rotate(-270,279555.52,242468.86)">.<g class="blkclass0"><text transform="rotate(-90 809.24,557.35) translate(809.24,557.35)" font-size="386.75">WC2024</text></g></use>
          <use xlink:href="#$TCHSYS$WIN2D_2000x500" x="279555.52" y="245468.86" transform="scale(-1,-1) translate(-559111.04,-490937.72) rotate(-90,279555.52,245468.86)">.<g class="blkclass0"><text transform="rotate(-90 744.8,571.39) translate(744.8,571.39)" font-size="386.75">WC2024</text></g></use>
          <use xlink:href="#$TCHSYS$WIN2D_2000x500" x="279555.52" y="251468.86" transform="scale(1,-1) translate(0,-502937.72) rotate(-270,279555.52,251468.86)">.<g class="blkclass0"><text transform="rotate(-90 756.67,615.17) translate(756.67,615.17)" font-size="386.75">WC2024</text></g></use>
          <use xlink:href="#$TCHSYS$WIN2D_2000x500" x="279555.52" y="254468.86" transform="scale(1,-1) translate(0,-508937.72) rotate(-270,279555.52,254468.86)">.<g class="blkclass0"><text transform="rotate(-90 708.72,661.74) translate(708.72,661.74)" font-size="386.75">WC2024</text></g></use>
          <use xlink:href="#$TCHSYS$WIN2D_2000x500" x="279555.52" y="257768.86" transform="scale(1,-1) translate(0,-515537.72) rotate(-270,279555.52,257768.86)">.<g class="blkclass0"><text transform="rotate(-90 708.68,600.04) translate(708.68,600.04)" font-size="386.75">WC2024</text></g></use>
          <use xlink:href="#$DorLib2D$00000001" x="278.306" y="259.144" transform="scale(1000,1000) scale(-1,1) translate(-556.61,0) rotate(-180,278.31,259.14)" stroke-width="0.0001%">.<g class="blkclass0"><text transform="translate(-470,-316.25)" font-size="386.75">M1027</text></g></use>
          <use xlink:href="#$DorLib2D$00000002" x="176.364" y="172.763" transform="scale(1500,1500) rotate(-180,176.36,172.76)" stroke-width="0.0001%">.<g class="blkclass0"><text transform="translate(-470,-316.25)" font-size="386.75">M1527</text></g></use>
          <use xlink:href="#$DorLib2D$00000001" x="256.706" y="259.144" transform="scale(1000,1000) scale(-1,1) translate(-513.41,0) rotate(-180,256.71,259.14)" stroke-width="0.0001%">.<g class="blkclass0"><text transform="translate(-470,-316.25)" font-size="386.75">M1027</text></g></use>
          <use xlink:href="#$DorLib2D$00000001" x="260.306" y="259.144" transform="scale(1000,1000) scale(-1,1) translate(-520.61,0) rotate(-180,260.31,259.14)" stroke-width="0.0001%">.<g class="blkclass0"><text transform="translate(-470,-316.25)" font-size="386.75">M1027</text></g></use>
          <use xlink:href="#$DorLib2D$00000001" x="248.556" y="259.144" transform="scale(1000,1000) rotate(-180,248.56,259.14)" stroke-width="0.0001%">.<g class="blkclass0"><text transform="translate(-470,-316.25)" font-size="386.75">M1027</text></g></use>
          <use xlink:href="#$DorLib2D$00000002" x="165.088" y="215.903" transform="scale(1200,1200) rotate(-180,165.09,215.9)" stroke-width="0.0001%">.<g class="blkclass1"><text transform="translate(-376,-253)" font-size="309.4">M1227</text></g></use>
          <use xlink:href="#$DorLib2D$00000001" x="200.576" y="259.144" transform="scale(1000,1000) rotate(-180,200.58,259.14)" stroke-width="0.0001%">.<g class="blkclass0"><text transform="translate(-470,-316.25)" font-size="386.75">M1027</text></g></use>
          <use xlink:href="#$DorLib2D$00000001" x="204.906" y="259.144" transform="scale(1000,1000) rotate(-180,204.91,259.14)" stroke-width="0.0001%">.<g class="blkclass0"><text transform="translate(-470,-316.25)" font-size="386.75">M1027</text></g></use>
          <use xlink:href="#$DorLib2D$00000001" x="296.506" y="284.871" transform="scale(900,900) scale(1,-1) translate(0,-569.74) rotate(-180,296.51,284.87)" stroke-width="0.0001%">.<g class="blkclass0"><text transform="translate(-490,613.75)" font-size="386.75">M0927</text></g></use>
          <use xlink:href="#$DorLib2D$00000001" x="256.706" y="256.384" transform="scale(1000,1000) scale(-1,-1) translate(-513.41,-512.77) rotate(-180,256.71,256.38)" stroke-width="0.0001%">.<g class="blkclass0"><text transform="translate(-470,613.75)" font-size="386.75">M1027</text></g></use>
          <use xlink:href="#$DorLib2D$00000001" x="248.062" y="284.871" transform="scale(900,900) scale(1,-1) translate(0,-569.74) rotate(-180,248.06,284.87)" stroke-width="0.0001%">.<g class="blkclass0"><text transform="translate(-490,613.75)" font-size="386.75">M0927</text></g></use>
          <use xlink:href="#$DorLib2D$00000001" x="257.128" y="284.871" transform="scale(900,900) scale(1,-1) translate(0,-569.74) rotate(-180,257.13,284.87)" stroke-width="0.0001%">.<g class="blkclass0"><text transform="translate(-490,613.75)" font-size="386.75">M0927</text></g></use>
          <use xlink:href="#$DorLib2D$00000001" x="253.128" y="284.871" transform="scale(900,900) scale(1,-1) translate(0,-569.74) rotate(-180,253.13,284.87)" stroke-width="0.0001%">.<g class="blkclass0"><text transform="translate(-490,613.75)" font-size="386.75">M0927</text></g></use>
          <use xlink:href="#$DorLib2D$00000001" x="265.973" y="284.871" transform="scale(900,900) scale(-1,-1) translate(-531.95,-569.74) rotate(-180,265.97,284.87)" stroke-width="0.0001%">.<g class="blkclass0"><text transform="translate(-490,613.75)" font-size="386.75">M0927</text></g></use>
          <use xlink:href="#$DorLib2D$00000001" x="274.139" y="284.871" transform="scale(900,900) scale(-1,-1) translate(-548.28,-569.74) rotate(-180,274.14,284.87)" stroke-width="0.0001%">.<g class="blkclass0"><text transform="translate(-490,613.75)" font-size="386.75">M0927</text></g></use>
          <use xlink:href="#$DorLib2D$00000001" x="293.573" y="284.871" transform="scale(900,900) scale(-1,-1) translate(-587.15,-569.74) rotate(-180,293.57,284.87)" stroke-width="0.0001%">.<g class="blkclass0"><text transform="translate(-490,613.75)" font-size="386.75">M0927</text></g></use>
          <use xlink:href="#$DorLib2D$00000002" x="142.037" y="170.923" transform="scale(1500,1500) scale(-1,-1) translate(-284.07,-341.85) rotate(-180,142.04,170.92)" stroke-width="0.0001%">.<g class="blkclass0"><text transform="translate(-470,613.75)" font-size="386.75">M1527</text></g></use>
          <use xlink:href="#$DorLib2D$00000002" x="174.621" y="215.953" transform="scale(1200,1200) scale(-1,1) translate(-349.24,0) rotate(-180,174.62,215.95)" stroke-width="0.0001%">.<g class="blkclass2"><text transform="translate(-376,-253)" font-size="309.4">M1227</text></g></use>
          <use xlink:href="#$DorLib2D$00000002" x="184.321" y="215.953" transform="scale(1200,1200) rotate(-180,184.32,215.95)" stroke-width="0.0001%">.<g class="blkclass1"><text transform="translate(-376,-253)" font-size="309.4">M1227</text></g></use>
          <use xlink:href="#$DorLib2D$00000001" x="249.289" y="287.938" transform="scale(900,900) scale(-1,1) translate(-498.58,0) rotate(-180,249.29,287.94)" stroke-width="0.0001%">.<g class="blkclass0"><text transform="translate(-490,-316.25)" font-size="386.75">M0927</text></g></use>
          <use xlink:href="#$DorLib2D$00000001" x="253.289" y="287.938" transform="scale(900,900) scale(-1,1) translate(-506.58,0) rotate(-180,253.29,287.94)" stroke-width="0.0001%">.<g class="blkclass0"><text transform="translate(-490,-316.25)" font-size="386.75">M0927</text></g></use>
          <use xlink:href="#$DorLib2D$00000001" x="257.289" y="287.938" transform="scale(900,900) scale(-1,1) translate(-514.58,0) rotate(-180,257.29,287.94)" stroke-width="0.0001%">.<g class="blkclass0"><text transform="translate(-490,-316.25)" font-size="386.75">M0927</text></g></use>
          <use xlink:href="#$DorLib2D$00000002" x="199.405" y="215.953" transform="scale(1200,1200) rotate(-180,199.4,215.95)" stroke-width="0.0001%">.<g class="blkclass1"><text transform="translate(-376,-253)" font-size="309.4">M1227</text></g></use>
          <use xlink:href="#$DorLib2D$00000002" x="205.28" y="215.953" transform="scale(1200,1200) rotate(-180,205.28,215.95)" stroke-width="0.0001%">.<g class="blkclass1"><text transform="translate(-376,-253)" font-size="309.4">M1227</text></g></use>
          <use xlink:href="#$DorLib2D$00000002" x="147.317" y="170.923" transform="scale(1500,1500) scale(1,-1) translate(0,-341.85) rotate(-180,147.32,170.92)" stroke-width="0.0001%">.<g class="blkclass0"><text transform="translate(-470,613.75)" font-size="386.75">M1527</text></g></use>
          <use xlink:href="#$DorLib2D$00000001" x="227.073" y="284.871" transform="scale(900,900) scale(-1,1) translate(-454.15,0)" stroke-width="0.0001%">.<g class="blkclass0"><text transform="translate(-463.45,723.11)" font-size="386.75">M0927</text></g></use>
          <use xlink:href="#$DorLib2D$00000001" x="224.539" y="284.871" transform="scale(900,900)" stroke-width="0.0001%">.<g class="blkclass0"><text transform="translate(-502.82,723.11)" font-size="386.75">M0927</text></g></use>
          <use xlink:href="#$DorLib2D$00000001" x="267.416" y="260.134" transform="scale(1000,1000) scale(-1,1) translate(-534.83,0) rotate(-90,267.42,260.13)" stroke-width="0.0001%">.<g class="blkclass0"><text transform="rotate(-90 56.39,425) translate(56.39,425)" font-size="386.75">M1021</text></g></use>
          <use xlink:href="#$DorLib2D$00000002" x="168.904" y="170.923" transform="scale(1500,1500) scale(-1,1) translate(-337.81,0)" stroke-width="0.0001%">.<g class="blkclass0"><text transform="translate(-470,613.75)" font-size="386.75">M1527</text></g></use>
          <use xlink:href="#$DorLib2D$00000001" x="270.826" y="243.184" transform="scale(1000,1000) scale(-1,1) translate(-541.65,0) rotate(-270,270.83,243.18)" stroke-width="0.0001%">.<g class="blkclass0"><text transform="rotate(-270 385.3,-360.99) translate(385.3,-360.99)" font-size="386.75">M1021</text></g></use>
          <use xlink:href="#$DorLib2D$00000001" x="270.826" y="244.784" transform="scale(1000,1000) rotate(-90,270.83,244.78)" stroke-width="0.0001%">.<g class="blkclass0"><text transform="rotate(-270 385.3,-399.01) translate(385.3,-399.01)" font-size="386.75">M1021</text></g></use>
          <use xlink:href="#$DorLib2D$00000002" x="143.103" y="131.602" transform="scale(1900,1900) scale(1,-1) translate(0,-263.2) rotate(-180,143.1,131.6)" stroke-width="0%">.<g class="blkclass3"><text transform="translate(-595.33,777.42)" font-size="489.883">M1827</text></g></use>
          <use xlink:href="#$DorLib2D$00000001" x="273.216" y="255.294" transform="scale(1000,1000) scale(-1,-1) translate(-546.43,-510.59) rotate(-90,273.22,255.29)" stroke-width="0.0001%">.<g class="blkclass0"><text transform="rotate(-270 -613.75,-470) translate(-613.75,-470)" font-size="386.75">M1027</text></g></use>
          <use xlink:href="#$DorLib2D$00000001" x="236.816" y="260.134" transform="scale(1000,1000) rotate(-90,236.82,260.13)" stroke-width="0.0001%">.<g class="blkclass0"><text transform="rotate(-90 241.11,425) translate(241.11,425)" font-size="386.75">M1021</text></g></use>
          <use xlink:href="#$DorLib2D$00000001" x="244.016" y="260.134" transform="scale(1000,1000) rotate(-90,244.02,260.13)" stroke-width="0.0001%">.<g class="blkclass0"><text transform="rotate(-90 241.11,425) translate(241.11,425)" font-size="386.75">M1021</text></g></use>
          <use xlink:href="#$DorLib2D$00000001" x="218.816" y="260.134" transform="scale(1000,1000) rotate(-90,218.82,260.13)" stroke-width="0.0001%">.<g class="blkclass0"><text transform="rotate(-90 241.11,425) translate(241.11,425)" font-size="386.75">M1021</text></g></use>
          <use xlink:href="#$DorLib2D$00000001" x="211.616" y="260.134" transform="scale(1000,1000) rotate(-90,211.62,260.13)" stroke-width="0.0001%">.<g class="blkclass0"><text transform="rotate(-90 241.11,425) translate(241.11,425)" font-size="386.75">M1021</text></g></use>
          <use xlink:href="#$DorLib2D$00000002" x="132.737" y="170.579" transform="scale(1500,1500) scale(1,-1) translate(0,-341.16) rotate(-180,132.74,170.58)" stroke-width="0.0001%">.<g class="blkclass0"><text transform="rotate(-360 -470,553.75) translate(-470,553.75)" font-size="386.75">M1527</text></g></use>
          <use xlink:href="#$DorLib2D$00000001" x="198.916" y="246.034" transform="scale(1000,1000)" stroke-width="0.0001%">.<g class="blkclass0"><text transform="translate(-434.9,628.85)" font-size="386.75">M1021</text></g></use>
        </g>
      </g>
      <g id="assets" fill="none">
        <g id="rm-assets" class="rm-asset">
          <path id="15009;F04;402" d="M267925.52,238278.86l11380,0l0,11500l-11380,0z" />
          <path id="15009;F04;414" d="M191525.52,246078.86l0,-120l-800,0l0,-3380l9280,0l0,13200l-8480,0z" />
          <path id="15009;F04;428-429" d="M262795.52,259318.86l16510,0l0,6640l-16510,0z" />
          <path id="15009;F04;406-407" d="M229705.52,250278.86l0,5900l10620,0l0,-5900z" />
          <path id="15009;F04;403-404" d="M247805.52,250278.86l0,5900l10427.5,0l-15,-5900z" />
          <path id="15009;F04;410-411" d="M211805.52,250278.86l0,5900l10420,0l0,-5900z" />
          <path id="15009;F04;415" d="M191525.52,259318.86l0,3200l-800,0l0,3440l8230,0l-12,-6640l-7418,0z" />
          <path id="15009;F04;423" d="M233305.52,259318.86l6990,0l0,6140l-6990,0z" />
          <path id="15009;F04;419" d="M215290.52,259318.86l0,6140l6935,0l0,-6140z" />
          <path id="15009;F04;425" d="M247805.52,259318.86l0,6140l6920,0l0,-6140z" />
          <path id="15009;F04;424" d="M240535.52,259318.86l6890,0l0,6140l-6890,0z" />
          <path id="15009;F04;418" d="M208395.52,259318.86l0,6140l6745,0l0,-6140z" />
          <path id="15009;F04;405" d="M240505.52,250278.86l0,5900l6920,0l0,-5900z" />
          <path id="15009;F04;408-409" d="M222605.52,250278.86l6920,0l0,5900l-6920,0z" />
          <path id="15009;F04;401" d="M273405.52,250278.86l0,5900l5900,0l0,-5900z" />
          <path id="15009;F04;417" d="M202650.52,259318.86l0,6640l4585,0l0,-6640z" />
          <path id="15009;F04;416" d="M199087.52,259318.86l-12,6640l3380,0l45,0l0,-6640z" />
          <path id="15009;F04;412" d="M203415.52,250278.86l0,5900l3820,0l0,-5900z" />
          <path id="15009;F04;422" d="M229705.52,259318.86l0,6140l3420,0l0,-6140z" />
          <path id="15009;F04;426" d="M254905.52,259318.86l0,6140l3420,0l0,-6140z" />
          <path id="15009;F04;421" d="M226105.52,259318.86l0,6140l3420,0l0,-6140z" />
          <path id="15009;F04;420" d="M222605.52,259318.86l0,6140l3320,0l0,-6140z" />
          <path id="15009;F04;427" d="M258505.52,259318.86l0,6140l3130,0l0,-6140z" />
          <path id="15009;F04;413" d="M200385.52,250278.86l0,5900l2650,0l0,-5900z" />
        </g>
      </g>
    </g>
    <g id="text" font-family="Arial" font-size="438.86524822695031" font-weight="normal" text-style="normal" text-anchor="start" dominant-baseline="alphabetical" fill="#FF7F00" xml:space="preserve">
      <g id="layer-body-text">
        <g transform="translate(208986.53,254898.86)">
          <text>上</text>
        </g>
        <g transform="translate(210553.39,254898.86)">
          <text>下</text>
        </g>
        <g transform="translate(260761.53,254898.86)">
          <text>上</text>
        </g>
        <g transform="translate(259198.39,254898.86)">
          <text>下</text>
        </g>
        <g transform="translate(259198.39,254898.86)">
          <text>下</text>
        </g>
        <g transform="translate(210553.39,254898.86)">
          <text>下</text>
        </g>
        <g transform="translate(208986.53,254898.86)">
          <text>上</text>
        </g>
        <g transform="translate(260761.53,254898.86)">
          <text>上</text>
        </g>
        <g transform="translate(208986.53,254898.86)">
          <text>上</text>
        </g>
        <g transform="translate(210553.39,254898.86)">
          <text>下</text>
        </g>
        <g transform="translate(260761.53,254898.86)">
          <text>上</text>
        </g>
        <g transform="translate(259198.39,254898.86)">
          <text>下</text>
        </g>
        <g transform="translate(208986.53,254898.86)">
          <text>上</text>
        </g>
        <g transform="translate(210553.39,254898.86)">
          <text>下</text>
        </g>
        <g transform="translate(260761.53,254898.86)">
          <text>上</text>
        </g>
        <g transform="translate(259198.39,254898.86)">
          <text>下</text>
        </g>
        <g transform="translate(208986.53,254898.86)">
          <text>上</text>
        </g>
        <g transform="translate(210553.39,254898.86)">
          <text>下</text>
        </g>
        <g transform="translate(260761.53,254898.86)">
          <text>上</text>
        </g>
        <g transform="translate(259198.39,254898.86)">
          <text>下</text>
        </g>
      </g>
    </g>
    <g id="asset-labels" font-family="Arial" font-weight="bold" font-size="38.1em" text-anchor="middle">
      <g id="rm-labels">
        <g id="l-rm-15009;F04;402" transform="translate(273615.52,244028.86)">
          <text>402</text>
        </g>
        <g id="l-rm-15009;F04;414" transform="translate(195365.52,249178.86)">
          <text>414</text>
        </g>
        <g id="l-rm-15009;F04;428-429" transform="translate(271050.52,262638.86)">
          <text>428-429</text>
        </g>
        <g id="l-rm-15009;F04;406-407" transform="translate(235015.52,253228.86)">
          <text>406-407</text>
        </g>
        <g id="l-rm-15009;F04;403-404" transform="translate(253019.27,253228.86)">
          <text>403-404</text>
        </g>
        <g id="l-rm-15009;F04;410-411" transform="translate(217015.52,253228.86)">
          <text>410-411</text>
        </g>
        <g id="l-rm-15009;F04;415" transform="translate(194840.52,262638.86)">
          <text>415</text>
        </g>
        <g id="l-rm-15009;F04;423" transform="translate(236800.52,262388.86)">
          <text>423</text>
        </g>
        <g id="l-rm-15009;F04;419" transform="translate(218758.02,262388.86)">
          <text>419</text>
        </g>
        <g id="l-rm-15009;F04;425" transform="translate(251265.52,262388.86)">
          <text>425</text>
        </g>
        <g id="l-rm-15009;F04;424" transform="translate(243980.52,262388.86)">
          <text>424</text>
        </g>
        <g id="l-rm-15009;F04;418" transform="translate(211768.02,262388.86)">
          <text>418</text>
        </g>
        <g id="l-rm-15009;F04;405" transform="translate(243965.52,253228.86)">
          <text>405</text>
        </g>
        <g id="l-rm-15009;F04;408-409" transform="translate(226065.52,253228.86)">
          <text>408-409</text>
        </g>
        <g id="l-rm-15009;F04;401" transform="translate(276355.52,253228.86)">
          <text>401</text>
        </g>
        <g id="l-rm-15009;F04;417" transform="translate(204943.02,262638.86)">
          <text>417</text>
        </g>
        <g id="l-rm-15009;F04;416" transform="translate(200788.02,262638.86)">
          <text>416</text>
        </g>
        <g id="l-rm-15009;F04;412" transform="translate(205325.52,253228.86)">
          <text>412</text>
        </g>
        <g id="l-rm-15009;F04;422" transform="translate(231415.52,262388.86)">
          <text>422</text>
        </g>
        <g id="l-rm-15009;F04;426" transform="translate(256615.52,262388.86)">
          <text>426</text>
        </g>
        <g id="l-rm-15009;F04;421" transform="translate(227815.52,262388.86)">
          <text>421</text>
        </g>
        <g id="l-rm-15009;F04;420" transform="translate(224265.52,262388.86)">
          <text>420</text>
        </g>
        <g id="l-rm-15009;F04;427" transform="translate(260070.52,262388.86)">
          <text>427</text>
        </g>
        <g id="l-rm-15009;F04;413" transform="translate(201710.52,253228.86)">
          <text>413</text>
        </g>
      </g>
    </g>
  </g>
</svg>