<svg version="1.1" xmlns="http://www.w3.org/2000/svg" xmlns:xlink="http://www.w3.org/1999/xlink" viewBox="150644.65 170319.85 54223 17832">
  <style>.i0 { stroke:#000000;   } .body { stroke:#ff7f00;   } .rm { stroke:#00ffff;   } .pub_wall { stroke:#c0c0c0;   } .rm-asset { stroke:#0000ff;   fill:#EEEEEE; fill-opacity:1;} .rmtc-asset { stroke:#0000ff;   } .rmtc { stroke:#00ffff;   } .rm-assettxt { stroke:#0000ff;   } .rmtc-assettxt { stroke:#0000ff;   } .cnc-0 { stroke:#000000;  stroke-dasharray:0; } .cnc-1 { stroke:#000000;  stroke-dasharray:0; fill:#cccccc; fill-opacity:1;} .blkclass0 { stroke:#ff7f00;  stroke-width:0.02;  fill:#ff7f00; fill-opacity:1; font-family:Arial; font-size:386.75; font-weight:normal; text-style:normal; text-anchor:start;}</style>
  <view id="defaultView" viewBox="150644.65 170319.85 54223 17832" />
  <defs>
    <symbol id="$WINLIB2D$00000001_2900x360" overflow="visible" class="i0">
      <path d="M1450,180l0,-360" />
      <path d="M-1450,-180l0,360" />
      <path d="M1450,-60l-2900,0" />
      <path d="M1450,60l-2900,0" />
      <path d="M-1450,180l2900,0" />
      <path d="M-1450,-180l2900,0" />
    </symbol>
    <symbol id="$DorLib2D$00000114" overflow="visible" class="i0">
      <path d="M-0.5,0a1,1 0 0,1 0.29,-0.71" />
      <path d="M0.5,0l-0.71,-0.71" />
    </symbol>
    <symbol id="$WINLIB2D$00000001_3000x360" overflow="visible" class="i0">
      <path d="M1500,180l0,-360" />
      <path d="M-1500,-180l0,360" />
      <path d="M1500,-60l-3000,0" />
      <path d="M1500,60l-3000,0" />
      <path d="M-1500,180l3000,0" />
      <path d="M-1500,-180l3000,0" />
    </symbol>
    <symbol id="$DorLib2D$00000116" overflow="visible" class="i0">
      <path d="M-0.5,0l0.35,-0.35" />
      <path d="M-0.15,-0.35a0.5,0.5 0 0,1 0.15,0.35" />
      <path d="M0,0a0.5,0.5 0 0,1 0.15,-0.35" />
      <path d="M0.5,0l-0.35,-0.35" />
    </symbol>
    <symbol id="$lvtry$00000201" overflow="visible" class="i0">
      <path d="M-109.78,40l0,429.66" class="cnc-0" />
      <path d="M139.78,40a40,40 0 0,0 -40,-40m0,0l-199.57,0m0,0a40,40 0 0,0 -40,40m0,0l0,439.66m0,0a110,110 0 0,0 110,110m0,0l59.57,0m0,0a110,110 0 0,0 110,-110m0,0l0,-439.66" class="cnc-0" />
      <path d="M99.78,30a10,10 0 0,1 10,10" />
      <path d="M-109.78,40a10,10 0 0,1 10,-10" />
      <path d="M99.78,30l-199.57,0" />
      <circle r="20" cy="358.61" />
      <path d="M139.78,469.66l-279.57,0" />
      <path d="M109.78,469.66l0,-429.66" />
    </symbol>
    <symbol id="$TCHSYS$APDOOR2D" overflow="visible" class="i0">
      <path d="M0.5,0l-0.5,-0.87" />
      <path d="M-0.5,0a1,1 0 0,1 0.5,-0.87" />
    </symbol>
    <symbol id="$lvtry$00000171" overflow="visible" class="i0">
      <path d="M10.61,74.25l63.64,-63.64" />
      <path d="M-27.39,69.82l97.21,-97.21" />
      <path d="M-74.25,-10.61l63.64,-63.64" />
      <path d="M-69.82,27.39l97.21,-97.21" />
      <path d="M-53.03,53.03l106.07,-106.07" />
      <circle r="75" />
    </symbol>
    <symbol id="$lvtry$00000191" overflow="visible" class="i0">
      <circle r="50" cy="250" />
      <path d="M39.04,281.23l210.96,168.77" />
      <path d="M39.04,218.77l210.96,-168.77" />
      <path d="M250,450l0,-400l-500,0l0,400z" class="cnc-1" />
      <path d="M300,500l0,-500l-600,0l0,500z" class="cnc-1" />
      <path d="M-250,450l210.96,-168.77" />
      <path d="M-250,50l210.96,168.77" />
    </symbol>
    <symbol id="$lvtry$00000194" overflow="visible" class="i0">
      <path d="M14.41,34.95a172.58,172.58 0 0,1 27.83,-7.78" />
      <path d="M43.06,7.68a258.71,258.71 0 0,1 -34.21,-5.14" />
      <circle r="20" cy="221.43" />
      <path d="M-24.71,68.62a166.25,166.25 0 0,1 28.52,-25.84" />
      <path d="M-24.7,68.61a6.77,6.77 0 0,1 -10.36,-8.14" />
      <path d="M-16.69,26.66a166.25,166.25 0 0,1 -18.37,33.81" />
      <path d="M9.2,83.36a9.9,9.9 0 0,1 -18.4,0" />
      <path d="M9.2,83.36a372.22,372.22 0 0,1 5.21,-48.41" />
      <path d="M-11.46,55.11a372.22,372.22 0 0,1 2.26,28.25" />
      <path d="M-42.24,27.17a172.58,172.58 0 0,1 22.78,5.99" />
      <circle r="16.692" cy="26.53" />
      <path d="M-27.27,66.38a169.65,169.65 0 0,1 13.49,-13.76" />
      <path d="M-13.78,52.62a10.6,10.6 0 0,1 -8.32,-6.54" />
      <path d="M-22.1,46.08a169.65,169.65 0 0,1 -10.18,16.35" />
      <path d="M-26.81,65.94a3.37,3.37 0 0,1 -5.15,-4.05" />
      <path d="M-16.69,26.53l0,-9.84" />
      <path d="M16.69,26.53l0,-9.84" />
      <path d="M-8.85,2.54a258.71,258.71 0 0,1 -34.21,5.14" />
      <path d="M-16.69,16.69a16.69,16.69 0 0,1 33.38,0" />
      <path d="M-42.24,27.17a10.06,10.06 0 0,1 -0.82,-19.49" />
      <circle r="15" cy="221.43" />
      <path d="M92.26,53.38a297.6,297.6 0 0,0 -78.54,-14.35m152.45,53.87a239.54,239.54 0 0,0 -73.91,-39.52m125.84,101.92a194.91,194.91 0 0,0 -51.93,-62.39m68.82,130.81a146.95,146.95 0 0,0 -16.9,-68.42m0,136.85a146.95,146.95 0 0,0 16.9,-68.42m-68.82,130.82a194.91,194.91 0 0,0 51.93,-62.39m-125.84,101.91a239.54,239.54 0 0,0 73.91,-39.52m-166.17,54.18a297.6,297.6 0 0,0 92.26,-14.66m-184.52,0a297.6,297.6 0 0,0 92.26,14.66m-166.17,-54.18a239.54,239.54 0 0,0 73.91,39.52m-125.83,-101.91a194.91,194.91 0 0,0 51.93,62.39m-68.83,-130.82a146.95,146.95 0 0,0 16.9,68.42m0,-136.85a146.95,146.95 0 0,0 -16.9,68.42m68.83,-130.81a194.91,194.91 0 0,0 -51.93,62.39m125.83,-101.92a239.54,239.54 0 0,0 -73.91,39.52m143.65,-53.33a297.6,297.6 0 0,0 -69.74,13.81" class="cnc-0" />
      <path d="M43.06,7.68a10.06,10.06 0 0,1 -0.82,19.49" />
    </symbol>
    <symbol id="$WINLIB2D$00000001_1500x360" overflow="visible" class="i0">
      <path d="M750,180l0,-360" />
      <path d="M-750,-180l0,360" />
      <path d="M750,-60l-1500,0" />
      <path d="M750,60l-1500,0" />
      <path d="M-750,180l1500,0" />
      <path d="M-750,-180l1500,0" />
    </symbol>
    <symbol id="$lvtry$00000222" overflow="visible" class="i0">
      <path d="M-205,190.69l0,-190.69l410,0l0,190.69m0,0a203.43,203.43 0 0,0 -154.23,132.77m-50.77,36.19a54,54 0 0,0 50.77,-36.18m-101.53,0a54,54 0 0,0 50.77,36.18m-50.77,-36.19a203.43,203.43 0 0,0 -154.23,-132.77" class="cnc-0" />
      <path d="M22.45,323.92a233.43,233.43 0 0,1 138.63,-141.65" />
      <path d="M-155.89,184.28a233.43,233.43 0 0,1 133.44,139.64" />
      <circle r="20" cy="241.62" />
      <path d="M22.45,323.92a24,24 0 0,1 -22.45,16.08" />
      <path d="M0,340a24,24 0 0,1 -22.45,-16.08" />
      <path d="M-156.25,165.88a395,395 0 0,1 317.79,-2.15" />
      <path d="M-155.89,184.29a10,10 0 0,1 -0.36,-18.41" />
      <circle r="20" cx="-0.03" cy="60.43" />
      <path d="M161.54,163.73a10,10 0 0,1 -0.46,18.55" />
    </symbol>
  </defs>
  <g id="viewer">
    <g id="mirror" transform="scale(1, 1)" stroke-width="0.09%">
      <g id="background" fill="none">
        <g id="layer-body-fills" class="body">
          <path d="M158773.96,178632.16l0,-1860l600,0l0,1860z" />
          <path d="M158533.96,178632.16l0,-1860l-600,0l0,1860z" />
        </g>
        <g id="layer-body" class="body">
          <path d="M158799.92,176772.16l0,1860" />
          <path d="M158508,176772.16l0,1860" />
          <path d="M202053.96,179202.16l0,1500" />
          <path d="M202353.96,178872.16l0,2160" />
          <path d="M156353.96,178632.16l1000,0" />
          <path d="M159953.96,178632.16l1000,0" />
          <path d="M159986.46,176652.16l0,-3900" />
          <path d="M157321.46,176652.16l0,-3900" />
          <path d="M151253.96,187352.16l0,-6000" />
          <path d="M151613.96,187352.16l0,-6000" />
          <path d="M202053.96,172752.16l0,5800" />
          <path d="M201693.96,172752.16l0,5800" />
          <path d="M201653.96,172392.16l-200,0" />
          <path d="M201453.96,172392.16l0,360" />
          <path d="M201453.96,172752.16l200,0" />
          <path d="M198453.96,172752.16l100,0" />
          <path d="M198553.96,172752.16l0,-360" />
          <path d="M198553.96,172392.16l-100,0" />
          <use xlink:href="#$WINLIB2D$00000001_2900x360" x="200003.96" y="172572.16" transform="rotate(-180,200003.96,172572.16)">.<g class="blkclass0"><text transform="translate(-455,-306.25)" font-size="386.75">C2918</text></g></use>
          <path d="M151653.96,187712.16l200,0" />
          <path d="M151853.96,187712.16l0,-360" />
          <path d="M151853.96,187352.16l-200,0" />
          <path d="M154853.96,187352.16l-100,0" />
          <path d="M154753.96,187352.16l0,360" />
          <path d="M154753.96,187712.16l100,0" />
          <use xlink:href="#$WINLIB2D$00000001_2900x360" x="153303.96" y="187532.16">.<g class="blkclass0"><text transform="translate(-455,603.75)" font-size="386.75">C2918</text></g></use>
          <path d="M151613.96,180952.16l0,-250" />
          <path d="M151613.96,180702.16l-360,0" />
          <path d="M151253.96,180702.16l0,250" />
          <path d="M151253.96,178952.16l0,250" />
          <path d="M151253.96,179202.16l360,0" />
          <path d="M151613.96,179202.16l0,-250" />
          <path d="M202053.96,181352.16l0,6000" />
          <path d="M201693.96,181352.16l0,6000" />
          <path d="M151613.96,181272.16l1140,0" />
          <path d="M152753.96,181272.16l0,-240" />
          <path d="M152753.96,181032.16l-1140,0" />
          <path d="M155053.96,181032.16l-1300,0" />
          <path d="M153753.96,181032.16l0,240" />
          <path d="M153753.96,181272.16l1180,0" />
          <use xlink:href="#$DorLib2D$00000114" x="153.254" y="181.152" transform="scale(1000,1000) scale(-1,-1) translate(-306.51,-362.3)" stroke-width="0.0001%">.<g class="blkclass0"><text transform="translate(-470,-246.25)" font-size="386.75">M1027</text></g></use>
          <path d="M202053.96,181032.16l2080,0" />
          <path d="M202053.96,181272.16l2200,0" />
          <path d="M154933.96,178872.16l1420,0" />
          <path d="M156353.96,178872.16l0,-240" />
          <path d="M156353.96,178632.16l-1180,0" />
          <path d="M158533.96,178632.16l-1180,0" />
          <path d="M157353.96,178632.16l0,240" />
          <path d="M157353.96,178872.16l1300,0" />
          <use xlink:href="#$DorLib2D$00000114" x="156.854" y="178.752" transform="scale(1000,1000) scale(-1,1) translate(-313.71,0)" stroke-width="0.0001%">.<g class="blkclass0"><text transform="translate(-470,543.75)" font-size="386.75">M1027</text></g></use>
          <path d="M154853.96,172392.16l-100,0" />
          <path d="M154753.96,172392.16l0,360" />
          <path d="M154753.96,172752.16l100,0" />
          <path d="M151653.96,172752.16l200,0" />
          <path d="M151853.96,172752.16l0,-360" />
          <path d="M151853.96,172392.16l-200,0" />
          <use xlink:href="#$WINLIB2D$00000001_2900x360" x="153303.96" y="172572.16" transform="rotate(-180,153303.96,172572.16)">.<g class="blkclass0"><text transform="translate(-455,-306.25)" font-size="386.75">C2918</text></g></use>
          <path d="M155173.96,172752.16l0,3900" />
          <path d="M154933.96,172752.16l0,4020" />
          <path d="M198053.96,172392.16l-100,0" />
          <path d="M197953.96,172392.16l0,360" />
          <path d="M197953.96,172752.16l100,0" />
          <path d="M194853.96,172752.16l100,0" />
          <path d="M194953.96,172752.16l0,-360" />
          <path d="M194953.96,172392.16l-100,0" />
          <use xlink:href="#$WINLIB2D$00000001_3000x360" x="196453.96" y="172572.16" transform="rotate(-180,196453.96,172572.16)">.<g class="blkclass0"><text transform="translate(-455,-306.25)" font-size="386.75">C3018</text></g></use>
          <path d="M198373.96,172752.16l0,6120" />
          <path d="M198133.96,172752.16l0,5880" />
          <path d="M187253.96,172392.16l-100,0" />
          <path d="M187153.96,172392.16l0,360" />
          <path d="M187153.96,172752.16l100,0" />
          <path d="M184053.96,172752.16l100,0" />
          <path d="M184153.96,172752.16l0,-360" />
          <path d="M184153.96,172392.16l-100,0" />
          <use xlink:href="#$WINLIB2D$00000001_3000x360" x="185653.96" y="172572.16" transform="rotate(-180,185653.96,172572.16)">.<g class="blkclass0"><text transform="translate(-455,-306.25)" font-size="386.75">C3018</text></g></use>
          <path d="M187573.96,172752.16l0,5880" />
          <path d="M187333.96,172752.16l0,5880" />
          <path d="M180253.96,178872.16l1300,0" />
          <path d="M181553.96,178872.16l0,-240" />
          <path d="M181553.96,178632.16l-1180,0" />
          <path d="M187333.96,178632.16l-4780,0" />
          <path d="M182553.96,178632.16l0,240" />
          <path d="M182553.96,178872.16l4900,0" />
          <use xlink:href="#$DorLib2D$00000114" x="182.054" y="178.752" transform="scale(1000,1000) scale(-1,1) translate(-364.11,0)" stroke-width="0.0001%">.<g class="blkclass0"><text transform="translate(-470,543.75)" font-size="386.75">M1027</text></g></use>
          <path d="M180053.96,170752.16l-100,0" />
          <path d="M179953.96,170752.16l0,360" />
          <path d="M179953.96,171112.16l100,0" />
          <path d="M176853.96,171112.16l100,0" />
          <path d="M176953.96,171112.16l0,-360" />
          <path d="M176953.96,170752.16l-100,0" />
          <use xlink:href="#$WINLIB2D$00000001_3000x360" x="178453.96" y="170932.16" transform="rotate(-180,178453.96,170932.16)">.<g class="blkclass0"><text transform="translate(-455,-306.25)" font-size="386.75">C3018</text></g></use>
          <path d="M180373.96,172752.16l0,5880" />
          <path d="M180133.96,172752.16l0,5880" />
          <use xlink:href="#$WINLIB2D$00000001_3000x360" x="189253.96" y="172572.16" transform="rotate(-180,189253.96,172572.16)">.<g class="blkclass0"><text transform="translate(-455,-306.25)" font-size="386.75">C3018</text></g></use>
          <path d="M187453.96,178872.16l4900,0" />
          <path d="M192353.96,178872.16l0,-240" />
          <path d="M192353.96,178632.16l-4780,0" />
          <path d="M194533.96,178632.16l-1180,0" />
          <path d="M193353.96,178632.16l0,240" />
          <path d="M193353.96,178872.16l1300,0" />
          <use xlink:href="#$DorLib2D$00000114" x="192.854" y="178.752" transform="scale(1000,1000)" stroke-width="0.0001%">.<g class="blkclass0"><text transform="translate(-470,543.75)" font-size="386.75">M1027</text></g></use>
          <path d="M194453.96,172392.16l-100,0" />
          <path d="M194353.96,172392.16l0,360" />
          <path d="M194353.96,172752.16l100,0" />
          <path d="M191253.96,172752.16l100,0" />
          <path d="M191353.96,172752.16l0,-360" />
          <path d="M191353.96,172392.16l-100,0" />
          <use xlink:href="#$WINLIB2D$00000001_3000x360" x="192853.96" y="172572.16" transform="rotate(-180,192853.96,172572.16)">.<g class="blkclass0"><text transform="translate(-455,-306.25)" font-size="386.75">C3018</text></g></use>
          <path d="M194653.96,178872.16l1300,0" />
          <path d="M195953.96,178872.16l0,-240" />
          <path d="M195953.96,178632.16l-1180,0" />
          <path d="M198133.96,178632.16l-1180,0" />
          <path d="M196953.96,178632.16l0,240" />
          <path d="M196953.96,178872.16l1420,0" />
          <use xlink:href="#$DorLib2D$00000114" x="196.454" y="178.752" transform="scale(1000,1000) scale(-1,1) translate(-392.91,0)" stroke-width="0.0001%">.<g class="blkclass0"><text transform="translate(-470,543.75)" font-size="386.75">M1027</text></g></use>
          <path d="M194773.96,172752.16l0,5880" />
          <path d="M194533.96,172752.16l0,5880" />
          <path d="M169453.96,178872.16l1050,0" />
          <path d="M170503.96,178872.16l0,-240" />
          <path d="M170503.96,178632.16l-930,0" />
          <path d="M180133.96,178632.16l-930,0" />
          <path d="M179203.96,178632.16l0,240" />
          <path d="M179203.96,178872.16l1050,0" />
          <path d="M172003.96,178872.16l5700,0" />
          <path d="M177703.96,178872.16l0,-240" />
          <path d="M177703.96,178632.16l-5700,0" />
          <path d="M172003.96,178632.16l0,240" />
          <path d="M176453.96,170752.16l-100,0" />
          <path d="M176353.96,170752.16l0,360" />
          <path d="M176353.96,171112.16l100,0" />
          <path d="M173253.96,171112.16l100,0" />
          <path d="M173353.96,171112.16l0,-360" />
          <path d="M173353.96,170752.16l-100,0" />
          <use xlink:href="#$WINLIB2D$00000001_3000x360" x="174853.96" y="170932.16" transform="rotate(-180,174853.96,170932.16)">.<g class="blkclass0"><text transform="translate(-455,-306.25)" font-size="386.75">C3018</text></g></use>
          <use xlink:href="#$WINLIB2D$00000001_3000x360" x="171253.96" y="170932.16" transform="rotate(-180,171253.96,170932.16)">.<g class="blkclass0"><text transform="translate(-455,-306.25)" font-size="386.75">C3018</text></g></use>
          <path d="M169253.96,172392.16l-100,0" />
          <path d="M169153.96,172392.16l0,360" />
          <path d="M169153.96,172752.16l100,0" />
          <path d="M166053.96,172752.16l100,0" />
          <path d="M166153.96,172752.16l0,-360" />
          <path d="M166153.96,172392.16l-100,0" />
          <use xlink:href="#$WINLIB2D$00000001_3000x360" x="167653.96" y="172572.16" transform="rotate(-180,167653.96,172572.16)">.<g class="blkclass0"><text transform="translate(-455,-306.25)" font-size="386.75">C3018</text></g></use>
          <path d="M169573.96,172752.16l0,5880" />
          <path d="M169333.96,172752.16l0,5880" />
          <path d="M162253.96,178872.16l4900,0" />
          <path d="M167153.96,178872.16l0,-240" />
          <path d="M167153.96,178632.16l-4780,0" />
          <path d="M169333.96,178632.16l-1180,0" />
          <path d="M168153.96,178632.16l0,240" />
          <path d="M168153.96,178872.16l1300,0" />
          <use xlink:href="#$DorLib2D$00000114" x="167.654" y="178.752" transform="scale(1000,1000)" stroke-width="0.0001%">.<g class="blkclass0"><text transform="translate(-470,543.75)" font-size="386.75">M1027</text></g></use>
          <path d="M165653.96,172392.16l-100,0" />
          <path d="M165553.96,172392.16l0,360" />
          <path d="M165553.96,172752.16l100,0" />
          <path d="M162453.96,172752.16l100,0" />
          <path d="M162553.96,172752.16l0,-360" />
          <path d="M162553.96,172392.16l-100,0" />
          <use xlink:href="#$WINLIB2D$00000001_3000x360" x="164053.96" y="172572.16" transform="rotate(-180,164053.96,172572.16)">.<g class="blkclass0"><text transform="translate(-455,-306.25)" font-size="386.75">C3018</text></g></use>
          <path d="M162053.96,172392.16l-100,0" />
          <path d="M161953.96,172392.16l0,360" />
          <path d="M161953.96,172752.16l100,0" />
          <path d="M158853.96,172752.16l100,0" />
          <path d="M158953.96,172752.16l0,-360" />
          <path d="M158953.96,172392.16l-100,0" />
          <use xlink:href="#$WINLIB2D$00000001_3000x360" x="160453.96" y="172572.16" transform="rotate(-180,160453.96,172572.16)">.<g class="blkclass0"><text transform="translate(-455,-306.25)" font-size="386.75">C3018</text></g></use>
          <path d="M162373.96,172752.16l0,4020" />
          <path d="M162133.96,172752.16l0,3900" />
          <path d="M158653.96,178872.16l1300,0" />
          <path d="M159953.96,178872.16l0,-240" />
          <path d="M159953.96,178632.16l-1180,0" />
          <path d="M162133.96,178632.16l-1180,0" />
          <path d="M160953.96,178632.16l0,240" />
          <path d="M160953.96,178872.16l1300,0" />
          <use xlink:href="#$DorLib2D$00000114" x="160.454" y="178.752" transform="scale(1000,1000)" stroke-width="0.0001%">.<g class="blkclass0"><text transform="translate(-470,543.75)" font-size="386.75">M1027</text></g></use>
          <path d="M158453.96,172392.16l-100,0" />
          <path d="M158353.96,172392.16l0,360" />
          <path d="M158353.96,172752.16l100,0" />
          <path d="M155253.96,172752.16l100,0" />
          <path d="M155353.96,172752.16l0,-360" />
          <path d="M155353.96,172392.16l-100,0" />
          <use xlink:href="#$WINLIB2D$00000001_3000x360" x="156853.96" y="172572.16" transform="rotate(-180,156853.96,172572.16)">.<g class="blkclass0"><text transform="translate(-455,-306.25)" font-size="386.75">C3018</text></g></use>
          <path d="M158773.96,172752.16l0,3900" />
          <path d="M158533.96,172752.16l0,3900" />
          <path d="M155253.96,187712.16l100,0" />
          <path d="M155353.96,187712.16l0,-360" />
          <path d="M155353.96,187352.16l-100,0" />
          <path d="M158453.96,187352.16l-100,0" />
          <path d="M158353.96,187352.16l0,360" />
          <path d="M158353.96,187712.16l100,0" />
          <use xlink:href="#$WINLIB2D$00000001_3000x360" x="156853.96" y="187532.16">.<g class="blkclass0"><text transform="translate(-455,603.75)" font-size="386.75">C3018</text></g></use>
          <path d="M155053.96,181032.16l1315.31,0" />
          <path d="M157369.27,181032.16l1284.69,0" />
          <path d="M155173.96,181272.16l1202.53,0" />
          <path d="M157249.27,181272.16l1284.69,0" />
          <use xlink:href="#$DorLib2D$00000114" x="160.454" y="181.152" transform="scale(1000,1000) scale(1,-1) translate(0,-362.3)" stroke-width="0.0001%">.<g class="blkclass0"><text transform="translate(-470,-246.25)" font-size="386.75">M1027</text></g></use>
          <path d="M155173.96,187352.16l0,-6080" />
          <path d="M154933.96,181272.16l0,6080" />
          <path d="M162453.96,187712.16l100,0" />
          <path d="M162553.96,187712.16l0,-360" />
          <path d="M162553.96,187352.16l-100,0" />
          <path d="M165653.96,187352.16l-100,0" />
          <path d="M165553.96,187352.16l0,360" />
          <path d="M165553.96,187712.16l100,0" />
          <use xlink:href="#$WINLIB2D$00000001_3000x360" x="164053.96" y="187532.16">.<g class="blkclass0"><text transform="translate(-455,603.75)" font-size="386.75">C3018</text></g></use>
          <path d="M162373.96,181272.16l1180,0" />
          <path d="M163553.96,181272.16l0,-240" />
          <path d="M163553.96,181032.16l-1300,0" />
          <path d="M165853.96,181032.16l-1300,0" />
          <path d="M164553.96,181032.16l0,240" />
          <path d="M164553.96,181272.16l1180,0" />
          <use xlink:href="#$WINLIB2D$00000001_3000x360" x="167653.96" y="187532.16">.<g class="blkclass0"><text transform="translate(-455,603.75)" font-size="386.75">C3018</text></g></use>
          <path d="M165973.96,181272.16l1180,0" />
          <path d="M167153.96,181272.16l0,-240" />
          <path d="M167153.96,181032.16l-1300,0" />
          <path d="M169453.96,181032.16l-1300,0" />
          <path d="M168153.96,181032.16l0,240" />
          <path d="M168153.96,181272.16l1180,0" />
          <use xlink:href="#$DorLib2D$00000114" x="171.254" y="181.152" transform="scale(1000,1000) scale(1,-1) translate(0,-362.3)" stroke-width="0.0001%">.<g class="blkclass0"><text transform="translate(-470,-246.25)" font-size="386.75">M1027</text></g></use>
          <use xlink:href="#$DorLib2D$00000114" x="167.654" y="181.152" transform="scale(1000,1000) scale(1,-1) translate(0,-362.3)" stroke-width="0.0001%">.<g class="blkclass0"><text transform="translate(-470,-246.25)" font-size="386.75">M1027</text></g></use>
          <path d="M173253.96,187712.16l100,0" />
          <path d="M173353.96,187712.16l0,-360" />
          <path d="M173353.96,187352.16l-100,0" />
          <path d="M176453.96,187352.16l-100,0" />
          <path d="M176353.96,187352.16l0,360" />
          <path d="M176353.96,187712.16l100,0" />
          <use xlink:href="#$WINLIB2D$00000001_3000x360" x="174853.96" y="187532.16">.<g class="blkclass0"><text transform="translate(-455,603.75)" font-size="386.75">C3018</text></g></use>
          <path d="M173173.96,181272.16l1180,0" />
          <path d="M174353.96,181272.16l0,-240" />
          <path d="M174353.96,181032.16l-1300,0" />
          <path d="M176653.96,181032.16l-1300,0" />
          <path d="M175353.96,181032.16l0,240" />
          <path d="M175353.96,181272.16l1180,0" />
          <use xlink:href="#$DorLib2D$00000114" x="174.854" y="181.152" transform="scale(1000,1000) scale(1,-1) translate(0,-362.3)" stroke-width="0.0001%">.<g class="blkclass0"><text transform="translate(-470,-246.25)" font-size="386.75">M1027</text></g></use>
          <path d="M172933.96,187352.16l0,-6080" />
          <path d="M173173.96,187352.16l0,-6080" />
          <path d="M176853.96,187712.16l100,0" />
          <path d="M176953.96,187712.16l0,-360" />
          <path d="M176953.96,187352.16l-100,0" />
          <path d="M180053.96,187352.16l-100,0" />
          <path d="M179953.96,187352.16l0,360" />
          <path d="M179953.96,187712.16l100,0" />
          <use xlink:href="#$WINLIB2D$00000001_3000x360" x="178453.96" y="187532.16">.<g class="blkclass0"><text transform="translate(-455,603.75)" font-size="386.75">C3018</text></g></use>
          <path d="M176773.96,181272.16l1180,0" />
          <path d="M177953.96,181272.16l0,-240" />
          <path d="M177953.96,181032.16l-1300,0" />
          <path d="M180253.96,181032.16l-1300,0" />
          <path d="M178953.96,181032.16l0,240" />
          <path d="M178953.96,181272.16l1180,0" />
          <use xlink:href="#$DorLib2D$00000114" x="178.454" y="181.152" transform="scale(1000,1000) scale(1,-1) translate(0,-362.3)" stroke-width="0.0001%">.<g class="blkclass0"><text transform="translate(-470,-246.25)" font-size="386.75">M1027</text></g></use>
          <path d="M176533.96,187352.16l0,-6080" />
          <path d="M176773.96,187352.16l0,-6080" />
          <use xlink:href="#$WINLIB2D$00000001_3000x360" x="182053.96" y="187532.16">.<g class="blkclass0"><text transform="translate(-455,603.75)" font-size="386.75">C3018</text></g></use>
          <path d="M180373.96,181272.16l1180,0" />
          <path d="M181553.96,181272.16l0,-240" />
          <path d="M181553.96,181032.16l-1300,0" />
          <path d="M183853.96,181032.16l-1300,0" />
          <path d="M182553.96,181032.16l0,240" />
          <path d="M182553.96,181272.16l1180,0" />
          <path d="M180373.96,187352.16l0,-4840" />
          <path d="M180373.96,182512.16l-240,0" />
          <path d="M180133.96,182512.16l0,4840" />
          <path d="M180133.96,181272.16l0,240" />
          <path d="M180133.96,181512.16l240,0" />
          <path d="M180373.96,181512.16l0,-240" />
          <use xlink:href="#$WINLIB2D$00000001_3000x360" x="196453.96" y="187532.16">.<g class="blkclass0"><text transform="translate(-455,603.75)" font-size="386.75">C3018</text></g></use>
          <path d="M194773.96,181272.16l1180,0" />
          <path d="M195953.96,181272.16l0,-240" />
          <path d="M195953.96,181032.16l-1300,0" />
          <path d="M198253.96,181032.16l-1300,0" />
          <path d="M196953.96,181032.16l0,240" />
          <path d="M196953.96,181272.16l1180,0" />
          <use xlink:href="#$DorLib2D$00000114" x="200.054" y="181.152" transform="scale(1000,1000) scale(1,-1) translate(0,-362.3)" stroke-width="0.0001%">.<g class="blkclass0"><text transform="translate(-470,-246.25)" font-size="386.75">M1027</text></g></use>
          <path d="M194533.96,187352.16l0,-6080" />
          <path d="M194773.96,187352.16l0,-6080" />
          <path d="M202053.96,178632.16l2200,0" />
          <path d="M202053.96,178872.16l2080,0" />
          <path d="M201693.96,178952.16l0,250" />
          <path d="M201693.96,179202.16l360,0" />
          <path d="M202053.96,179202.16l0,-250" />
          <path d="M202053.96,180952.16l0,-250" />
          <path d="M202053.96,180702.16l-360,0" />
          <path d="M201693.96,180702.16l0,250" />
          <use xlink:href="#$DorLib2D$00000116" x="134.583" y="119.968" transform="scale(1500,1500) rotate(-270,134.58,119.97)" stroke-width="0.0001%">.<g class="blkclass0"><text transform="rotate(-90 -306.25,470) translate(-306.25,470)" font-size="386.75">M1527</text></g></use>
          <path d="M204373.96,181032.16l480,0" />
          <path d="M204253.96,181272.16l600,0" />
          <path d="M204853.96,181032.16l0,240" />
          <path d="M204253.96,178632.16l600,0" />
          <path d="M204373.96,178872.16l480,0" />
          <path d="M204853.96,178632.16l0,240" />
          <path d="M204373.96,181032.16l0,-330" />
          <path d="M204373.96,180702.16l-240,0" />
          <path d="M204133.96,180702.16l0,330" />
          <path d="M204133.96,178872.16l0,330" />
          <path d="M204133.96,179202.16l240,0" />
          <path d="M204373.96,179202.16l0,-330" />
          <use xlink:href="#$DorLib2D$00000116" x="136.169" y="119.968" transform="scale(1500,1500) scale(1,-1) translate(0,-239.94) rotate(-270,136.17,119.97)" stroke-width="0.0001%">.<g class="blkclass0"><text transform="rotate(-90 -246.25,470) translate(-246.25,470)" font-size="386.75">M1527</text></g></use>
          <path d="M158453.96,172752.16l400,0" />
          <path d="M158853.96,172752.16l0,-600" />
          <path d="M158853.96,172152.16l-400,0" />
          <path d="M158453.96,172152.16l0,600" />
          <path d="M158453.96,187952.16l400,0" />
          <path d="M158853.96,187952.16l0,-600" />
          <path d="M158853.96,187352.16l-400,0" />
          <path d="M158453.96,187352.16l0,600" />
          <path d="M158853.96,187712.16l100,0" />
          <path d="M158953.96,187712.16l0,-360" />
          <path d="M158953.96,187352.16l-100,0" />
          <path d="M162053.96,187352.16l-100,0" />
          <path d="M161953.96,187352.16l0,360" />
          <path d="M161953.96,187712.16l100,0" />
          <use xlink:href="#$WINLIB2D$00000001_3000x360" x="160453.96" y="187532.16">.<g class="blkclass0"><text transform="translate(-455,603.75)" font-size="386.75">C3018</text></g></use>
          <path d="M151253.96,187952.16l400,0" />
          <path d="M151653.96,187952.16l0,-600" />
          <path d="M151653.96,187352.16l-400,0" />
          <path d="M151253.96,187352.16l0,600" />
          <path d="M151253.96,172752.16l400,0" />
          <path d="M151653.96,172752.16l0,-600" />
          <path d="M151653.96,172152.16l-400,0" />
          <path d="M151253.96,172152.16l0,600" />
          <path d="M165653.96,172752.16l400,0" />
          <path d="M166053.96,172752.16l0,-600" />
          <path d="M166053.96,172152.16l-400,0" />
          <path d="M165653.96,172152.16l0,600" />
          <path d="M165653.96,187952.16l400,0" />
          <path d="M166053.96,187952.16l0,-600" />
          <path d="M166053.96,187352.16l-400,0" />
          <path d="M165653.96,187352.16l0,600" />
          <path d="M172853.96,187952.16l400,0" />
          <path d="M173253.96,187952.16l0,-600" />
          <path d="M173253.96,187352.16l-400,0" />
          <path d="M172853.96,187352.16l0,600" />
          <path d="M169253.96,171112.16l400,0" />
          <path d="M169653.96,171112.16l0,-360" />
          <path d="M169653.96,170752.16l-400,0" />
          <path d="M169253.96,170752.16l0,360" />
          <path d="M180053.96,172752.16l400,0" />
          <path d="M180453.96,172752.16l0,-600" />
          <path d="M180453.96,172152.16l-400,0" />
          <path d="M180053.96,172152.16l0,600" />
          <path d="M180053.96,187952.16l400,0" />
          <path d="M180453.96,187952.16l0,-600" />
          <path d="M180453.96,187352.16l-400,0" />
          <path d="M180053.96,187352.16l0,600" />
          <path d="M176453.96,171112.16l400,0" />
          <path d="M176853.96,171112.16l0,-360" />
          <path d="M176853.96,170752.16l-400,0" />
          <path d="M176453.96,170752.16l0,360" />
          <path d="M187253.96,172752.16l400,0" />
          <path d="M187653.96,172752.16l0,-600" />
          <path d="M187653.96,172152.16l-400,0" />
          <path d="M187253.96,172152.16l0,600" />
          <path d="M187253.96,187952.16l400,0" />
          <path d="M187653.96,187952.16l0,-600" />
          <path d="M187653.96,187352.16l-400,0" />
          <path d="M187253.96,187352.16l0,600" />
          <path d="M194453.96,172752.16l400,0" />
          <path d="M194853.96,172752.16l0,-600" />
          <path d="M194853.96,172152.16l-400,0" />
          <path d="M194453.96,172152.16l0,600" />
          <path d="M194453.96,187952.16l400,0" />
          <path d="M194853.96,187952.16l0,-600" />
          <path d="M194853.96,187352.16l-400,0" />
          <path d="M194453.96,187352.16l0,600" />
          <path d="M166053.96,187712.16l100,0" />
          <path d="M166153.96,187712.16l0,-360" />
          <path d="M166153.96,187352.16l-100,0" />
          <path d="M169253.96,187352.16l-100,0" />
          <path d="M169153.96,187352.16l0,360" />
          <path d="M169153.96,187712.16l100,0" />
          <use xlink:href="#$WINLIB2D$00000001_3000x360" x="171253.96" y="187532.16">.<g class="blkclass0"><text transform="translate(-455,603.75)" font-size="386.75">C3018</text></g></use>
          <use xlink:href="#$WINLIB2D$00000001_3000x360" x="189253.96" y="187532.16">.<g class="blkclass0"><text transform="translate(-455,603.75)" font-size="386.75">C3018</text></g></use>
          <use xlink:href="#$WINLIB2D$00000001_3000x360" x="182053.96" y="172572.16" transform="rotate(-180,182053.96,172572.16)">.<g class="blkclass0"><text transform="translate(-455,-306.25)" font-size="386.75">C3018</text></g></use>
          <path d="M180453.96,187712.16l100,0" />
          <path d="M180553.96,187712.16l0,-360" />
          <path d="M180553.96,187352.16l-100,0" />
          <path d="M183653.96,187352.16l-100,0" />
          <path d="M183553.96,187352.16l0,360" />
          <path d="M183553.96,187712.16l100,0" />
          <use xlink:href="#$WINLIB2D$00000001_3000x360" x="185653.96" y="187532.16">.<g class="blkclass0"><text transform="translate(-455,603.75)" font-size="386.75">C3018</text></g></use>
          <path d="M187653.96,187712.16l100,0" />
          <path d="M187753.96,187712.16l0,-360" />
          <path d="M187753.96,187352.16l-100,0" />
          <path d="M190853.96,187352.16l-100,0" />
          <path d="M190753.96,187352.16l0,360" />
          <path d="M190753.96,187712.16l100,0" />
          <use xlink:href="#$WINLIB2D$00000001_3000x360" x="192853.96" y="187532.16">.<g class="blkclass0"><text transform="translate(-455,603.75)" font-size="386.75">C3018</text></g></use>
          <path d="M201653.96,172752.16l400,0" />
          <path d="M202053.96,172752.16l0,-600" />
          <path d="M202053.96,172152.16l-400,0" />
          <path d="M201653.96,172152.16l0,600" />
          <path d="M201653.96,187952.16l400,0" />
          <path d="M202053.96,187952.16l0,-600" />
          <path d="M202053.96,187352.16l-400,0" />
          <path d="M201653.96,187352.16l0,600" />
          <path d="M194853.96,187712.16l100,0" />
          <path d="M194953.96,187712.16l0,-360" />
          <path d="M194953.96,187352.16l-100,0" />
          <path d="M198053.96,187352.16l-100,0" />
          <path d="M197953.96,187352.16l0,360" />
          <path d="M197953.96,187712.16l100,0" />
          <use xlink:href="#$WINLIB2D$00000001_2900x360" x="200003.96" y="187532.16">.<g class="blkclass0"><text transform="translate(-455,603.75)" font-size="386.75">C2918</text></g></use>
          <path d="M162133.96,187352.16l0,-6080" />
          <path d="M162373.96,187352.16l0,-6080" />
          <path d="M165733.96,187352.16l0,-6080" />
          <path d="M165973.96,187352.16l0,-6080" />
          <path d="M162133.96,176652.16l-1247.5,0" />
          <path d="M160886.46,176652.16l0,120" />
          <path d="M160886.46,176772.16l1247.5,0" />
          <path d="M158773.96,176772.16l1212.5,0" />
          <path d="M159986.46,176772.16l0,-120" />
          <path d="M159986.46,176652.16l-1212.5,0" />
          <path d="M159986.46,176652.16l0,120" />
          <path d="M160886.46,176772.16l0,-120" />
          <path d="M158533.96,176652.16l-1212.5,0" />
          <path d="M157321.46,176652.16l0,120" />
          <path d="M157321.46,176772.16l1212.5,0" />
          <path d="M155173.96,176772.16l1247.5,0" />
          <path d="M156421.46,176772.16l0,-120" />
          <path d="M156421.46,176652.16l-1247.5,0" />
          <path d="M156421.46,176652.16l0,120" />
          <path d="M157321.46,176772.16l0,-120" />
          <use xlink:href="#$lvtry$00000201" x="158333.96" y="176202.16" transform="rotate(-270,158333.96,176202.16)">.</use>
          <use xlink:href="#$lvtry$00000201" x="158333.96" y="175302.16" transform="rotate(-270,158333.96,175302.16)">.</use>
          <use xlink:href="#$lvtry$00000201" x="158333.96" y="174402.16" transform="rotate(-270,158333.96,174402.16)">.</use>
          <use xlink:href="#$lvtry$00000201" x="158333.96" y="173502.16" transform="rotate(-270,158333.96,173502.16)">.</use>
          <path d="M158533.96,175764.66l-1187.5,0" />
          <path d="M158533.96,175739.66l-1187.5,0" />
          <path d="M158533.96,175764.66l0,-25" />
          <path d="M157346.46,176652.16l0,-150" />
          <path d="M157346.46,176502.16l-25,0" />
          <path d="M157321.46,176502.16l0,150" />
          <path d="M157321.46,176652.16l25,0" />
          <path d="M157321.46,175752.16l0,150" />
          <path d="M157321.46,175902.16l25,0" />
          <path d="M157346.46,175902.16l0,-137.5" />
          <use xlink:href="#$TCHSYS$APDOOR2D" x="262.223" y="293.67" transform="scale(600,600) scale(-1,1) translate(-524.45,0) rotate(-270,262.22,293.67)" stroke-width="0.0002%">.</use>
          <path d="M158533.96,174864.66l-1187.5,0" />
          <path d="M158533.96,174839.66l-1187.5,0" />
          <path d="M158533.96,174864.66l0,-25" />
          <path d="M157346.46,175739.66l0,-137.5" />
          <path d="M157346.46,175602.16l-25,0" />
          <path d="M157321.46,175602.16l0,150" />
          <path d="M157321.46,174852.16l0,150" />
          <path d="M157321.46,175002.16l25,0" />
          <path d="M157346.46,175002.16l0,-137.5" />
          <use xlink:href="#$TCHSYS$APDOOR2D" x="262.223" y="292.17" transform="scale(600,600) scale(-1,1) translate(-524.45,0) rotate(-270,262.22,292.17)" stroke-width="0.0002%">.</use>
          <path d="M158533.96,173964.66l-1187.5,0" />
          <path d="M158533.96,173939.66l-1187.5,0" />
          <path d="M158533.96,173964.66l0,-25" />
          <path d="M157346.46,174839.66l0,-137.5" />
          <path d="M157346.46,174702.16l-25,0" />
          <path d="M157321.46,174702.16l0,150" />
          <path d="M157321.46,173952.16l0,150" />
          <path d="M157321.46,174102.16l25,0" />
          <path d="M157346.46,174102.16l0,-137.5" />
          <use xlink:href="#$TCHSYS$APDOOR2D" x="262.223" y="290.67" transform="scale(600,600) scale(-1,1) translate(-524.45,0) rotate(-270,262.22,290.67)" stroke-width="0.0002%">.</use>
          <path d="M158533.96,173064.66l-1187.5,0" />
          <path d="M158533.96,173039.66l-1212.5,0" />
          <path d="M158533.96,173064.66l0,-25" />
          <path d="M157346.46,173939.66l0,-137.5" />
          <path d="M157346.46,173802.16l-25,0" />
          <path d="M157321.46,173802.16l0,150" />
          <path d="M157321.46,173039.66l0,162.5" />
          <path d="M157321.46,173202.16l25,0" />
          <path d="M157346.46,173202.16l0,-137.5" />
          <use xlink:href="#$TCHSYS$APDOOR2D" x="262.223" y="289.17" transform="scale(600,600) scale(-1,1) translate(-524.45,0) rotate(-270,262.22,289.17)" stroke-width="0.0002%">.</use>
          <use xlink:href="#$lvtry$00000201" x="158973.96" y="176202.16" transform="scale(1,-1) translate(0,-352404.32) rotate(-90,158973.96,176202.16)">.</use>
          <use xlink:href="#$lvtry$00000201" x="158973.96" y="175302.16" transform="scale(1,-1) translate(0,-350604.32) rotate(-90,158973.96,175302.16)">.</use>
          <use xlink:href="#$lvtry$00000201" x="158973.96" y="174402.16" transform="scale(1,-1) translate(0,-348804.32) rotate(-90,158973.96,174402.16)">.</use>
          <use xlink:href="#$lvtry$00000201" x="158973.96" y="173502.16" transform="scale(1,-1) translate(0,-347004.32) rotate(-90,158973.96,173502.16)">.</use>
          <path d="M158773.96,175739.66l1187.5,0" />
          <path d="M158773.96,175764.66l1187.5,0" />
          <path d="M158773.96,175739.66l0,25" />
          <path d="M159986.46,176652.16l0,-150" />
          <path d="M159986.46,176502.16l-25,0" />
          <path d="M159961.46,176502.16l0,150" />
          <path d="M159961.46,176652.16l25,0" />
          <path d="M159961.46,175764.66l0,137.5" />
          <path d="M159961.46,175902.16l25,0" />
          <path d="M159986.46,175902.16l0,-150" />
          <use xlink:href="#$TCHSYS$APDOOR2D" x="266.623" y="293.67" transform="scale(600,600) scale(-1,-1) translate(-533.25,-587.34) rotate(-90,266.62,293.67)" stroke-width="0.0002%">.</use>
          <path d="M158773.96,174839.66l1187.5,0" />
          <path d="M158773.96,174864.66l1187.5,0" />
          <path d="M158773.96,174839.66l0,25" />
          <path d="M159986.46,175752.16l0,-150" />
          <path d="M159986.46,175602.16l-25,0" />
          <path d="M159961.46,175602.16l0,137.5" />
          <path d="M159961.46,174864.66l0,137.5" />
          <path d="M159961.46,175002.16l25,0" />
          <path d="M159986.46,175002.16l0,-150" />
          <use xlink:href="#$TCHSYS$APDOOR2D" x="266.623" y="292.17" transform="scale(600,600) scale(-1,-1) translate(-533.25,-584.34) rotate(-90,266.62,292.17)" stroke-width="0.0002%">.</use>
          <path d="M158773.96,173939.66l1187.5,0" />
          <path d="M158773.96,173964.66l1187.5,0" />
          <path d="M158773.96,173939.66l0,25" />
          <path d="M159986.46,174852.16l0,-150" />
          <path d="M159986.46,174702.16l-25,0" />
          <path d="M159961.46,174702.16l0,137.5" />
          <path d="M159961.46,173964.66l0,137.5" />
          <path d="M159961.46,174102.16l25,0" />
          <path d="M159986.46,174102.16l0,-150" />
          <use xlink:href="#$TCHSYS$APDOOR2D" x="266.623" y="290.67" transform="scale(600,600) scale(-1,-1) translate(-533.25,-581.34) rotate(-90,266.62,290.67)" stroke-width="0.0002%">.</use>
          <path d="M158773.96,173039.66l1212.5,0" />
          <path d="M158773.96,173064.66l1187.5,0" />
          <path d="M158773.96,173039.66l0,25" />
          <path d="M159986.46,173952.16l0,-150" />
          <path d="M159986.46,173802.16l-25,0" />
          <path d="M159961.46,173802.16l0,137.5" />
          <path d="M159961.46,173064.66l0,137.5" />
          <path d="M159961.46,173202.16l25,0" />
          <path d="M159986.46,173202.16l0,-162.5" />
          <use xlink:href="#$TCHSYS$APDOOR2D" x="266.623" y="289.17" transform="scale(600,600) scale(-1,-1) translate(-533.25,-578.34) rotate(-90,266.62,289.17)" stroke-width="0.0002%">.</use>
          <use xlink:href="#$lvtry$00000171" x="162003.08" y="173367.23">.</use>
          <path d="M162373.96,176772.16l0,1860" />
          <path d="M162133.96,176772.16l0,1860" />
          <path d="M158773.96,176772.16l0,1860" />
          <path d="M158533.96,176772.16l0,1860" />
          <path d="M155173.96,176772.16l0,1860" />
          <path d="M154933.96,176772.16l0,2100" />
          <use xlink:href="#$lvtry$00000191" x="155173.96" y="177072.16" transform="rotate(-90,155173.96,177072.16)">.</use>
          <use xlink:href="#$lvtry$00000191" x="155173.96" y="177072.16" transform="rotate(-90,155173.96,177072.16)">.</use>
          <use xlink:href="#$lvtry$00000191" x="162133.96" y="177072.16" transform="rotate(-270,162133.96,177072.16)">.</use>
          <use xlink:href="#$lvtry$00000194" x="158875.62" y="178082.16" transform="rotate(-90,158875.62,178082.16)">.</use>
          <use xlink:href="#$lvtry$00000194" x="158875.62" y="177382.16" transform="rotate(-90,158875.62,177382.16)">.</use>
          <use xlink:href="#$lvtry$00000194" x="158432.3" y="178082.16" transform="scale(1,-1) translate(0,-356164.32) rotate(-270,158432.3,178082.16)">.</use>
          <use xlink:href="#$lvtry$00000194" x="158432.3" y="177382.16" transform="scale(1,-1) translate(0,-354764.32) rotate(-270,158432.3,177382.16)">.</use>
          <path d="M154133.96,177502.16l0,-1650l0,-300" />
          <path d="M152413.96,177502.16l0,-3950l1720,0l0,1400l0,300" />
          <path d="M154933.96,177352.16l0,-2354.15" />
          <path d="M154933.96,174882.54l0,-530.38" />
          <path d="M153393.96,177352.16l1540,0" />
          <path d="M153393.96,177052.16l1540,0" />
          <path d="M153393.96,176752.16l1540,0" />
          <path d="M153393.96,176452.16l1540,0" />
          <path d="M153393.96,176152.16l1540,0" />
          <path d="M153454.53,175852.16l1479.42,0" />
          <path d="M153393.96,175552.16l380.19,0" />
          <path d="M153974.15,175552.16l959.81,0" />
          <path d="M153393.96,175252.16l899.81,0" />
          <path d="M154493.77,175252.16l440.19,0" />
          <path d="M153393.96,174952.16l1419.42,0" />
          <path d="M153393.96,174652.16l1540,0" />
          <path d="M153393.96,174352.16l1540,0" />
          <path d="M153333.96,177352.16l0,-1430.38" />
          <path d="M153333.96,175806.3l0,-1454.15" />
          <path d="M153333.96,175806.3l708.8,-409.23" />
          <path d="M153333.96,175921.78l735.6,-424.7" />
          <path d="M154069.55,175497.08l-46.18,-172.35" />
          <path d="M154023.37,175324.73l206.04,172.89" />
          <path d="M154229.42,175497.62l-48.34,-180.4" />
          <path d="M154181.08,175317.22l752.88,-434.67" />
          <path d="M154207.87,175417.22l726.08,-419.2" />
          <path d="M151613.96,174352.16l0,3000" />
          <path d="M153153.96,174352.16l-1540,0" />
          <path d="M153153.96,174652.16l-1540,0" />
          <path d="M153153.96,174952.16l-1540,0" />
          <path d="M153153.96,175252.16l-1540,0" />
          <path d="M153153.96,175552.16l-1540,0" />
          <path d="M153153.96,175852.16l-1540,0" />
          <path d="M153153.96,176152.16l-1540,0" />
          <path d="M153153.96,176452.16l-1540,0" />
          <path d="M153153.96,176752.16l-1540,0" />
          <path d="M153153.96,177052.16l-1540,0" />
          <path d="M153153.96,177352.16l-1540,0" />
          <path d="M153213.96,174352.16l0,3000" />
          <path d="M153213.96,177352.16l120,0" />
          <path d="M153333.96,177352.16l0,-1430.38" />
          <path d="M153333.96,175806.3l0,-1454.15" />
          <path d="M153333.96,174352.16l-120,0" />
          <path d="M153213.96,174352.16l0,3000" />
          <path d="M153153.96,177412.16l240,0" />
          <path d="M153393.96,177412.16l0,-1525.03" />
          <path d="M153393.96,175771.66l0,-1479.5" />
          <path d="M153393.96,174292.16l-240,0" />
          <path d="M153153.96,174292.16l0,3120" />
          <path d="M154933.96,174352.16l0,-1600" />
          <path d="M154853.96,172752.16l-3200,0" />
          <path d="M151613.96,172752.16l0,1600" />
          <path d="M151613.96,174352.16l1540,0" />
          <path d="M153393.96,174352.16l1540,0" />
          <path d="M153213.96,174352.16l120,0" />
          <path d="M153333.96,177352.16l-120,0" />
          <path d="M199173.96,177502.16l0,-1650l0,-300" />
          <path d="M200893.96,177502.16l0,-3950l-1720,0l0,1400l0,300" />
          <path d="M198373.96,177352.16l0,-1430.38" />
          <path d="M198373.96,175806.3l0,-1454.15" />
          <path d="M198373.96,177352.16l1540,0" />
          <path d="M198373.96,177052.16l1540,0" />
          <path d="M198373.96,176752.16l1540,0" />
          <path d="M198373.96,176452.16l1540,0" />
          <path d="M198373.96,176152.16l1540,0" />
          <path d="M198494.53,175852.16l1419.42,0" />
          <path d="M198373.96,175552.16l440.19,0" />
          <path d="M199014.15,175552.16l899.81,0" />
          <path d="M198373.96,175252.16l959.81,0" />
          <path d="M199533.77,175252.16l380.19,0" />
          <path d="M198373.96,174952.16l1479.42,0" />
          <path d="M198373.96,174652.16l1540,0" />
          <path d="M198373.96,174352.16l1540,0" />
          <path d="M199973.96,177352.16l0,-2354.15" />
          <path d="M199973.96,174882.54l0,-530.38" />
          <path d="M198373.96,175806.3l708.8,-409.23" />
          <path d="M198373.96,175921.78l735.6,-424.7" />
          <path d="M199109.55,175497.08l-46.18,-172.35" />
          <path d="M199063.37,175324.73l206.04,172.89" />
          <path d="M199269.42,175497.62l-48.34,-180.4" />
          <path d="M199221.08,175317.22l752.88,-434.67" />
          <path d="M199247.87,175417.22l726.08,-419.2" />
          <path d="M201693.96,174352.16l0,3000" />
          <path d="M201693.96,174352.16l-1540,0" />
          <path d="M201693.96,174652.16l-1540,0" />
          <path d="M201693.96,174952.16l-1540,0" />
          <path d="M201693.96,175252.16l-1540,0" />
          <path d="M201693.96,175552.16l-1540,0" />
          <path d="M201693.96,175852.16l-1540,0" />
          <path d="M201693.96,176152.16l-1540,0" />
          <path d="M201693.96,176452.16l-1540,0" />
          <path d="M201693.96,176752.16l-1540,0" />
          <path d="M201693.96,177052.16l-1540,0" />
          <path d="M201693.96,177352.16l-1540,0" />
          <path d="M200093.96,174352.16l0,3000" />
          <path d="M200153.96,177412.16l-240,0" />
          <path d="M199913.96,177412.16l0,-2379.5" />
          <path d="M199913.96,174917.19l0,-625.03" />
          <path d="M199913.96,174292.16l240,0" />
          <path d="M200153.96,174292.16l0,3120" />
          <path d="M200093.96,177352.16l-120,0" />
          <path d="M199973.96,177352.16l0,-2354.15" />
          <path d="M199973.96,174882.54l0,-530.38" />
          <path d="M199973.96,174352.16l120,0" />
          <path d="M200093.96,174352.16l0,3000" />
          <path d="M201693.96,174352.16l0,-1600" />
          <path d="M201693.96,172752.16l-3240,0" />
          <path d="M198373.96,172752.16l0,1600" />
          <path d="M198373.96,174352.16l1540,0" />
          <path d="M200153.96,174352.16l1540,0" />
          <path d="M199973.96,174352.16l120,0" />
          <path d="M199973.96,177352.16l120,0" />
          <path d="M172853.96,171112.16l400,0" />
          <path d="M173253.96,171112.16l0,-360" />
          <path d="M173253.96,170752.16l-400,0" />
          <path d="M172853.96,170752.16l0,360" />
          <path d="M172853.96,170752.16l-100,0" />
          <path d="M172753.96,170752.16l0,360" />
          <path d="M172753.96,171112.16l100,0" />
          <path d="M169653.96,171112.16l100,0" />
          <path d="M169753.96,171112.16l0,-360" />
          <path d="M169753.96,170752.16l-100,0" />
          <path d="M180053.96,171112.16l400,0" />
          <path d="M180453.96,171112.16l0,-360" />
          <path d="M180453.96,170752.16l-400,0" />
          <path d="M180053.96,170752.16l0,360" />
          <path d="M198053.96,172752.16l400,0" />
          <path d="M198453.96,172752.16l0,-600" />
          <path d="M198453.96,172152.16l-400,0" />
          <path d="M198053.96,172152.16l0,600" />
          <path d="M190853.96,172752.16l400,0" />
          <path d="M191253.96,172752.16l0,-600" />
          <path d="M191253.96,172152.16l-400,0" />
          <path d="M190853.96,172152.16l0,600" />
          <path d="M183653.96,172752.16l400,0" />
          <path d="M184053.96,172752.16l0,-600" />
          <path d="M184053.96,172152.16l-400,0" />
          <path d="M183653.96,172152.16l0,600" />
          <path d="M169253.96,172752.16l400,0" />
          <path d="M169653.96,172752.16l0,-600" />
          <path d="M169653.96,172152.16l-400,0" />
          <path d="M169253.96,172152.16l0,600" />
          <path d="M190853.96,172392.16l-100,0" />
          <path d="M190753.96,172392.16l0,360" />
          <path d="M190753.96,172752.16l100,0" />
          <path d="M187653.96,172752.16l100,0" />
          <path d="M187753.96,172752.16l0,-360" />
          <path d="M187753.96,172392.16l-100,0" />
          <path d="M183653.96,172392.16l-100,0" />
          <path d="M183553.96,172392.16l0,360" />
          <path d="M183553.96,172752.16l100,0" />
          <path d="M180453.96,172752.16l100,0" />
          <path d="M180553.96,172752.16l0,-360" />
          <path d="M180553.96,172392.16l-100,0" />
          <path d="M154853.96,172752.16l400,0" />
          <path d="M155253.96,172752.16l0,-600" />
          <path d="M155253.96,172152.16l-400,0" />
          <path d="M154853.96,172152.16l0,600" />
          <path d="M162053.96,172752.16l400,0" />
          <path d="M162453.96,172752.16l0,-600" />
          <path d="M162453.96,172152.16l-400,0" />
          <path d="M162053.96,172152.16l0,600" />
          <path d="M169253.96,172152.16l0,-1040" />
          <path d="M169613.96,172152.16l0,-1040" />
          <path d="M180093.96,172152.16l0,-1040" />
          <path d="M180453.96,172152.16l0,-1040" />
          <path d="M198053.96,187952.16l400,0" />
          <path d="M198453.96,187952.16l0,-600" />
          <path d="M198453.96,187352.16l-400,0" />
          <path d="M198053.96,187352.16l0,600" />
          <path d="M190853.96,187952.16l400,0" />
          <path d="M191253.96,187952.16l0,-600" />
          <path d="M191253.96,187352.16l-400,0" />
          <path d="M190853.96,187352.16l0,600" />
          <path d="M183653.96,187952.16l400,0" />
          <path d="M184053.96,187952.16l0,-600" />
          <path d="M184053.96,187352.16l-400,0" />
          <path d="M183653.96,187352.16l0,600" />
          <path d="M176453.96,187952.16l400,0" />
          <path d="M176853.96,187952.16l0,-600" />
          <path d="M176853.96,187352.16l-400,0" />
          <path d="M176453.96,187352.16l0,600" />
          <path d="M169253.96,187952.16l400,0" />
          <path d="M169653.96,187952.16l0,-600" />
          <path d="M169653.96,187352.16l-400,0" />
          <path d="M169253.96,187352.16l0,600" />
          <path d="M162053.96,187952.16l400,0" />
          <path d="M162453.96,187952.16l0,-600" />
          <path d="M162453.96,187352.16l-400,0" />
          <path d="M162053.96,187352.16l0,600" />
          <path d="M154853.96,187952.16l400,0" />
          <path d="M155253.96,187952.16l0,-600" />
          <path d="M155253.96,187352.16l-400,0" />
          <path d="M154853.96,187352.16l0,600" />
          <path d="M198453.96,187712.16l100,0" />
          <path d="M198553.96,187712.16l0,-360" />
          <path d="M198553.96,187352.16l-100,0" />
          <path d="M201653.96,187352.16l-200,0" />
          <path d="M201453.96,187352.16l0,360" />
          <path d="M201453.96,187712.16l200,0" />
          <path d="M191253.96,187712.16l100,0" />
          <path d="M191353.96,187712.16l0,-360" />
          <path d="M191353.96,187352.16l-100,0" />
          <path d="M194453.96,187352.16l-100,0" />
          <path d="M194353.96,187352.16l0,360" />
          <path d="M194353.96,187712.16l100,0" />
          <path d="M184053.96,187712.16l100,0" />
          <path d="M184153.96,187712.16l0,-360" />
          <path d="M184153.96,187352.16l-100,0" />
          <path d="M187253.96,187352.16l-100,0" />
          <path d="M187153.96,187352.16l0,360" />
          <path d="M187153.96,187712.16l100,0" />
          <path d="M169653.96,187712.16l100,0" />
          <path d="M169753.96,187712.16l0,-360" />
          <path d="M169753.96,187352.16l-100,0" />
          <path d="M172853.96,187352.16l-100,0" />
          <path d="M172753.96,187352.16l0,360" />
          <path d="M172753.96,187712.16l100,0" />
          <use xlink:href="#$DorLib2D$00000116" x="118.969" y="119.168" transform="scale(1500,1500)" stroke-width="0.0001%">.<g class="blkclass0"><text transform="translate(-470,423.75)" font-size="386.75">M1527</text></g></use>
          <use xlink:href="#$DorLib2D$00000116" x="114.169" y="119.168" transform="scale(1500,1500)" stroke-width="0.0001%">.<g class="blkclass0"><text transform="translate(-470,423.75)" font-size="386.75">M1527</text></g></use>
          <path d="M158533.96,187352.16l0,-6080" />
          <path d="M158773.96,187352.16l0,-6080" />
          <path d="M158773.96,181272.16l1180,0" />
          <path d="M159953.96,181272.16l0,-240" />
          <path d="M159953.96,181032.16l-1300,0" />
          <path d="M162253.96,181032.16l-1300,0" />
          <path d="M160953.96,181032.16l0,240" />
          <path d="M160953.96,181272.16l1180,0" />
          <path d="M169333.96,187352.16l0,-6080" />
          <path d="M169573.96,187352.16l0,-6080" />
          <path d="M169573.96,181272.16l1180,0" />
          <path d="M170753.96,181272.16l0,-240" />
          <path d="M170753.96,181032.16l-1300,0" />
          <path d="M173053.96,181032.16l-1300,0" />
          <path d="M171753.96,181032.16l0,240" />
          <path d="M171753.96,181272.16l1180,0" />
          <path d="M198133.96,187352.16l0,-6080" />
          <path d="M198373.96,187352.16l0,-6080" />
          <path d="M190933.96,187352.16l0,-6080" />
          <path d="M191173.96,187352.16l0,-6080" />
          <path d="M187573.96,187352.16l0,-4840" />
          <path d="M187573.96,182512.16l-240,0" />
          <path d="M187333.96,182512.16l0,4840" />
          <path d="M187333.96,181272.16l0,240" />
          <path d="M187333.96,181512.16l240,0" />
          <path d="M187573.96,181512.16l0,-240" />
          <path d="M183733.96,187352.16l0,-6080" />
          <path d="M183973.96,187352.16l0,-6080" />
          <path d="M198373.96,181272.16l1180,0" />
          <path d="M199553.96,181272.16l0,-240" />
          <path d="M199553.96,181032.16l-1300,0" />
          <path d="M201693.96,181032.16l-1140,0" />
          <path d="M200553.96,181032.16l0,240" />
          <path d="M200553.96,181272.16l1140,0" />
          <path d="M191173.96,181272.16l1180,0" />
          <path d="M192353.96,181272.16l0,-240" />
          <path d="M192353.96,181032.16l-1300,0" />
          <path d="M194653.96,181032.16l-1300,0" />
          <path d="M193353.96,181032.16l0,240" />
          <path d="M193353.96,181272.16l1180,0" />
          <path d="M187573.96,181272.16l1180,0" />
          <path d="M188753.96,181272.16l0,-240" />
          <path d="M188753.96,181032.16l-1300,0" />
          <path d="M191053.96,181032.16l-1300,0" />
          <path d="M189753.96,181032.16l0,240" />
          <path d="M189753.96,181272.16l1180,0" />
          <path d="M183973.96,181272.16l1180,0" />
          <path d="M185153.96,181272.16l0,-240" />
          <path d="M185153.96,181032.16l-1300,0" />
          <path d="M187453.96,181032.16l-1300,0" />
          <path d="M186153.96,181032.16l0,240" />
          <path d="M186153.96,181272.16l1180,0" />
          <use xlink:href="#$DorLib2D$00000114" x="164.054" y="181.152" transform="scale(1000,1000) scale(1,-1) translate(0,-362.3)" stroke-width="0.0001%">.<g class="blkclass0"><text transform="translate(-470,-246.25)" font-size="386.75">M1027</text></g></use>
          <use xlink:href="#$DorLib2D$00000114" x="182.054" y="181.152" transform="scale(1000,1000) scale(1,-1) translate(0,-362.3)" stroke-width="0.0001%">.<g class="blkclass0"><text transform="translate(-470,-246.25)" font-size="386.75">M1027</text></g></use>
          <use xlink:href="#$DorLib2D$00000114" x="185.654" y="181.152" transform="scale(1000,1000) scale(1,-1) translate(0,-362.3)" stroke-width="0.0001%">.<g class="blkclass0"><text transform="translate(-470,-246.25)" font-size="386.75">M1027</text></g></use>
          <use xlink:href="#$DorLib2D$00000114" x="189.254" y="181.152" transform="scale(1000,1000) scale(1,-1) translate(0,-362.3)" stroke-width="0.0001%">.<g class="blkclass0"><text transform="translate(-470,-246.25)" font-size="386.75">M1027</text></g></use>
          <use xlink:href="#$DorLib2D$00000114" x="192.854" y="181.152" transform="scale(1000,1000) scale(1,-1) translate(0,-362.3)" stroke-width="0.0001%">.<g class="blkclass0"><text transform="translate(-470,-246.25)" font-size="386.75">M1027</text></g></use>
          <use xlink:href="#$DorLib2D$00000114" x="196.454" y="181.152" transform="scale(1000,1000) scale(1,-1) translate(0,-362.3)" stroke-width="0.0001%">.<g class="blkclass0"><text transform="translate(-470,-246.25)" font-size="386.75">M1027</text></g></use>
          <use xlink:href="#$DorLib2D$00000114" x="180.254" y="182.012" transform="scale(1000,1000) scale(1,-1) translate(0,-364.02) rotate(-270,180.25,182.01)" stroke-width="0.0001%">.<g class="blkclass0"><text transform="rotate(-90 -246.25,470) translate(-246.25,470)" font-size="386.75">M1027</text></g></use>
          <use xlink:href="#$DorLib2D$00000114" x="187.454" y="182.012" transform="scale(1000,1000) scale(1,-1) translate(0,-364.02) rotate(-270,187.45,182.01)" stroke-width="0.0001%">.<g class="blkclass0"><text transform="rotate(-90 -246.25,470) translate(-246.25,470)" font-size="386.75">M1027</text></g></use>
          <path d="M198133.96,178872.16l240,0" />
          <path d="M198373.96,178872.16l0,-240" />
          <path d="M198373.96,178632.16l-240,0" />
          <path d="M198133.96,178632.16l0,240" />
          <path d="M155173.96,178632.16l-240,0" />
          <path d="M154933.96,178632.16l0,240" />
          <path d="M154933.96,178872.16l240,0" />
          <path d="M155173.96,178872.16l0,-240" />
          <path d="M151613.96,178952.16l0,-400" />
          <path d="M151613.96,178552.16l-360,0" />
          <path d="M151253.96,178552.16l0,400" />
          <path d="M151253.96,178952.16l360,0" />
          <path d="M151613.96,181352.16l0,-400" />
          <path d="M151613.96,180952.16l-360,0" />
          <path d="M151253.96,180952.16l0,400" />
          <path d="M151253.96,181352.16l360,0" />
          <path d="M151253.96,178552.16l0,-5800" />
          <path d="M151613.96,178552.16l0,-5800" />
          <path d="M202053.96,178952.16l0,-400" />
          <path d="M202053.96,178552.16l-360,0" />
          <path d="M201693.96,178552.16l0,400" />
          <path d="M201693.96,178952.16l360,0" />
          <path d="M202053.96,181352.16l0,-400" />
          <path d="M202053.96,180952.16l-360,0" />
          <path d="M201693.96,180952.16l0,400" />
          <path d="M201693.96,181352.16l360,0" />
          <path d="M204853.96,178632.16l-240,0" />
          <path d="M204613.96,178632.16l0,240" />
          <path d="M204613.96,178872.16l240,0" />
          <path d="M204853.96,178872.16l0,-240" />
          <path d="M204853.96,181032.16l-240,0" />
          <path d="M204613.96,181032.16l0,240" />
          <path d="M204613.96,181272.16l240,0" />
          <path d="M204853.96,181272.16l0,-240" />
          <use xlink:href="#$WINLIB2D$00000001_1500x360" x="151433.96" y="179952.16" transform="scale(1,-1) translate(0,-359904.32) rotate(-270,151433.96,179952.16)">.<g class="blkclass0"><text transform="rotate(-90 -306.25,435) translate(-306.25,435)" font-size="386.75">C1518</text></g></use>
          <path d="M151253.96,179202.16l-600,0" />
          <path d="M151253.96,179082.16l-480,0" />
          <path d="M151253.96,179202.16l0,-120" />
          <path d="M150653.96,179202.16l0,-650" />
          <path d="M150773.96,179082.16l0,-410" />
          <path d="M150653.96,178552.16l600,0" />
          <path d="M150773.96,178672.16l480,0" />
          <path d="M151253.96,181352.16l-600,0" />
          <path d="M151253.96,181232.16l-480,0" />
          <path d="M150653.96,181352.16l0,-650" />
          <path d="M150773.96,181232.16l0,-410" />
          <path d="M150653.96,180702.16l600,0" />
          <path d="M150773.96,180822.16l480,0" />
          <path d="M151253.96,180702.16l0,120" />
          <use xlink:href="#$lvtry$00000222" x="162133.96" y="176302.16" transform="rotate(-270,162133.96,176302.16)">.</use>
          <use xlink:href="#$lvtry$00000222" x="162133.96" y="175602.16" transform="rotate(-270,162133.96,175602.16)">.</use>
          <use xlink:href="#$lvtry$00000222" x="162133.96" y="174902.16" transform="rotate(-270,162133.96,174902.16)">.</use>
          <use xlink:href="#$lvtry$00000222" x="162133.96" y="174202.16" transform="rotate(-270,162133.96,174202.16)">.</use>
          <path d="M162133.96,175964.66l-400,0" />
          <path d="M162133.96,175939.66l-400,0" />
          <path d="M162133.96,175964.66l0,-25" />
          <path d="M161733.96,175964.66l0,-25" />
          <path d="M162133.96,175264.66l-400,0" />
          <path d="M162133.96,175239.66l-400,0" />
          <path d="M162133.96,175264.66l0,-25" />
          <path d="M161733.96,175264.66l0,-25" />
          <path d="M162133.96,174564.66l-400,0" />
          <path d="M162133.96,174539.66l-400,0" />
          <path d="M162133.96,174564.66l0,-25" />
          <path d="M161733.96,174564.66l0,-25" />
          <path d="M162133.96,173864.66l-400,0" />
          <path d="M162133.96,173839.66l-400,0" />
          <path d="M162133.96,173864.66l0,-25" />
          <path d="M161733.96,173864.66l0,-25" />
          <use xlink:href="#$DorLib2D$00000114" x="156.869" y="181.152" transform="scale(1000,1000) scale(1,-1) translate(0,-362.3)" stroke-width="0.0001%">.<g class="blkclass0"><text transform="translate(-470,-246.25)" font-size="386.75">M1027</text></g></use>
          <path d="M157369.27,181272.16l0,-240" />
          <path d="M156369.27,181272.16l0,-240" />
        </g>
      </g>
      <g id="assets" fill="none">
        <g id="rm-assets" class="rm-asset">
          <path id="15007;F02;218" d="M187333.96,178632.16l-6960,0l0,-5880l6960,0z" />
          <path id="15007;F02;219" d="M187573.96,172752.16l6960,0l0,5880l-6960,0z" />
          <path id="15007;F02;215" d="M169333.96,178632.16l-6960,0l0,-5880l6960,0z" />
          <path id="15007;F02;217" d="M180053.96,172752.16l0,-600l40,0l0,-1040l-5134.73,0l0,7520l5174.73,0l0,-5880z" />
          <path id="15007;F02;216" d="M169653.96,172752.16l0,-600l-40,0l0,-1040l5134.73,0l0,7520l-5174.73,0l0,-5880z" />
          <path id="15007;F02;203" d="M191173.96,181272.16l3360,0l0,6080l-3360,0z" />
          <path id="15007;F02;211" d="M162373.96,181272.16l3360,0l0,6080l-3360,0z" />
          <path id="15007;F02;202" d="M194773.96,181272.16l3360,0l0,6080l-3360,0z" />
          <path id="15007;F02;204" d="M187573.96,181272.16l3360,0l0,6080l-3360,0z" />
          <path id="15007;F02;210" d="M165973.96,181272.16l3360,0l0,6080l-3360,0z" />
          <path id="15007;F02;209" d="M169573.96,181272.16l3360,0l0,6080l-3360,0z" />
          <path id="15007;F02;207" d="M176773.96,181272.16l3360,0l0,6080l-3360,0z" />
          <path id="15007;F02;208" d="M173173.96,181272.16l3360,0l0,6080l-3360,0z" />
          <path id="15007;F02;213" d="M155173.96,181272.16l3360,0l0,6080l-3360,0z" />
          <path id="15007;F02;212" d="M158773.96,181272.16l3360,0l0,6080l-3360,0z" />
          <path id="15007;F02;205" d="M183973.96,181272.16l3360,0l0,6080l-3360,0z" />
          <path id="15007;F02;206" d="M180373.96,181272.16l3360,0l0,6080l-3360,0z" />
          <path id="15007;F02;201" d="M198373.96,181272.16l3320,0l0,6080l-3320,0z" />
          <path id="15007;F02;214" d="M151613.96,181272.16l3320,0l0,6080l-3320,0z" />
          <path id="15007;F02;220" d="M198133.96,178632.16l-3360,0l0,-5880l3360,0z" />
        </g>
      </g>
    </g>
    <g id="text" font-family="Arial" font-size="438.86524822695031" font-weight="normal" text-style="normal" text-anchor="start" dominant-baseline="alphabetical" fill="#FF7F00" xml:space="preserve">
      <g id="layer-body-text">
        <g transform="translate(154029.7,177957.16)">
          <text>上</text>
        </g>
        <g transform="translate(152319.01,177957.16)">
          <text>下</text>
        </g>
        <g transform="translate(199069.7,177957.16)">
          <text>上</text>
        </g>
        <g transform="translate(200799.01,177957.16)">
          <text>下</text>
        </g>
      </g>
    </g>
    <g id="asset-labels" font-family="Arial" font-weight="bold" font-size="38.1em" text-anchor="middle">
      <g id="rm-labels">
        <g id="l-rm-15007;F02;218" transform="translate(183853.96,175692.16)">
          <text>218</text>
        </g>
        <g id="l-rm-15007;F02;219" transform="translate(191053.96,175692.16)">
          <text>219</text>
        </g>
        <g id="l-rm-15007;F02;215" transform="translate(165853.96,175692.16)">
          <text>215</text>
        </g>
        <g id="l-rm-15007;F02;217" transform="translate(177546.59,174872.16)">
          <text>217</text>
        </g>
        <g id="l-rm-15007;F02;216" transform="translate(172161.32,174872.16)">
          <text>216</text>
        </g>
        <g id="l-rm-15007;F02;203" transform="translate(192853.96,184312.16)">
          <text>203</text>
        </g>
        <g id="l-rm-15007;F02;211" transform="translate(164053.96,184312.16)">
          <text>211</text>
        </g>
        <g id="l-rm-15007;F02;202" transform="translate(196453.96,184312.16)">
          <text>202</text>
        </g>
        <g id="l-rm-15007;F02;204" transform="translate(189253.96,184312.16)">
          <text>204</text>
        </g>
        <g id="l-rm-15007;F02;210" transform="translate(167653.96,184312.16)">
          <text>210</text>
        </g>
        <g id="l-rm-15007;F02;209" transform="translate(171253.96,184312.16)">
          <text>209</text>
        </g>
        <g id="l-rm-15007;F02;207" transform="translate(178453.96,184312.16)">
          <text>207</text>
        </g>
        <g id="l-rm-15007;F02;208" transform="translate(174853.96,184312.16)">
          <text>208</text>
        </g>
        <g id="l-rm-15007;F02;213" transform="translate(156853.96,184312.16)">
          <text>213</text>
        </g>
        <g id="l-rm-15007;F02;212" transform="translate(160453.96,184312.16)">
          <text>212</text>
        </g>
        <g id="l-rm-15007;F02;205" transform="translate(185653.96,184312.16)">
          <text>205</text>
        </g>
        <g id="l-rm-15007;F02;206" transform="translate(182053.96,184312.16)">
          <text>206</text>
        </g>
        <g id="l-rm-15007;F02;201" transform="translate(200033.96,184312.16)">
          <text>201</text>
        </g>
        <g id="l-rm-15007;F02;214" transform="translate(153273.96,184312.16)">
          <text>214</text>
        </g>
        <g id="l-rm-15007;F02;220" transform="translate(196453.96,175692.16)">
          <text>220</text>
        </g>
      </g>
    </g>
  </g>
</svg>