<svg version="1.1" xmlns="http://www.w3.org/2000/svg" xmlns:xlink="http://www.w3.org/1999/xlink" viewBox="189827.5 312669.92 90709 29842">
  <style>.i0 { stroke:#000000;   } .body { stroke:#ff7f00; stroke-width:0.17145%;  } .rm { stroke:#00ffff;   } .pub_wall { stroke:#c0c0c0;   } .rm-asset { stroke:#0000ff;   fill:#EEEEEE; fill-opacity:1;} .rmtc-asset { stroke:#0000ff;   } .rmtc { stroke:#00ffff;   } .rm-assettxt { stroke:#0000ff;   } .rmtc-assettxt { stroke:#0000ff;   } .cnc-0 { stroke:#ff7f00;  stroke-dasharray:0; fill:#cccccc; fill-opacity:1;} .cnc-1 { stroke:#ff7f00;  stroke-dasharray:0; } .cnc-2 { stroke:#ff7f00;  stroke-dasharray:0; } .blkclass0 { stroke:#ff7f00;  stroke-width:0.02;  fill:#ff7f00; fill-opacity:1; font-family:Arial; font-size:386.75; font-weight:normal; text-style:normal; text-anchor:start;} .blkclass1 { stroke:#ff7f00;  stroke-width:0.02;  fill:#ff7f00; fill-opacity:1; font-family:Arial; font-size:309.4; font-weight:normal; text-style:normal; text-anchor:start;} .blkclass2 { stroke:#ff7f00;  stroke-width:0.02;  fill:#ff7f00; fill-opacity:1; font-family:Arial; font-size:489.883; font-weight:normal; text-style:normal; text-anchor:start;}</style>
  <view id="defaultView" viewBox="189827.5 312669.92 90709 29842" />
  <defs>
    <symbol id="$TCHSYS$WIN2D_2000x500" overflow="visible" class="i0">
      <path d="M-1000,-250l2000,0" />
      <path d="M-1000,250l2000,0" />
      <path d="M1000,83.33l-2000,0" />
      <path d="M1000,-83.33l-2000,0" />
      <path d="M-1000,-250l0,500" />
      <path d="M1000,-250l0,500" />
    </symbol>
    <symbol id="$TCHSYS$WIN2D_1250x500" overflow="visible" class="i0">
      <path d="M-625,-250l1250,0" />
      <path d="M-625,250l1250,0" />
      <path d="M625,83.33l-1250,0" />
      <path d="M625,-83.33l-1250,0" />
      <path d="M-625,-250l0,500" />
      <path d="M625,-250l0,500" />
    </symbol>
    <symbol id="$TCHSYS$WIN2D_1800x500" overflow="visible" class="i0">
      <path d="M-900,-250l1800,0" />
      <path d="M-900,250l1800,0" />
      <path d="M900,83.33l-1800,0" />
      <path d="M900,-83.33l-1800,0" />
      <path d="M-900,-250l0,500" />
      <path d="M900,-250l0,500" />
    </symbol>
    <symbol id="$TCHSYS$WIN2D_1500x500" overflow="visible" class="i0">
      <path d="M-750,-250l1500,0" />
      <path d="M-750,250l1500,0" />
      <path d="M750,83.33l-1500,0" />
      <path d="M750,-83.33l-1500,0" />
      <path d="M-750,-250l0,500" />
      <path d="M750,-250l0,500" />
    </symbol>
    <symbol id="$DorLib2D$00000001" overflow="visible" class="i0">
      <path d="M0.45,-0.98l0.05,0" />
      <path d="M0.5,0l-0.05,0" />
      <path d="M-0.5,0a0.98,0.98 0 0,1 0.95,-0.97" />
      <path d="M0.5,0l0,-0.98" />
      <path d="M0.45,0l0,-0.98" />
    </symbol>
    <symbol id="$DorLib2D$00000002" overflow="visible" class="i0">
      <path d="M-0.5,0l0,-0.49" />
      <path d="M-0.48,0l0,-0.49" />
      <path d="M-0.5,0l0.02,0" />
      <path d="M-0.48,-0.49l-0.02,0" />
      <path d="M-0.48,-0.49a0.49,0.49 0 0,1 0.48,0.49" />
      <path d="M0,0a0.49,0.49 0 0,1 0.48,-0.49" />
      <path d="M0.48,0l0,-0.49" />
      <path d="M0.5,0l0,-0.49" />
      <path d="M0.48,-0.49l0.02,0" />
      <path d="M0.5,0l-0.02,0" />
    </symbol>
  </defs>
  <g id="viewer">
    <g id="mirror" transform="scale(1, 1)" stroke-width="0.09%">
      <g id="background" fill="none">
        <g id="layer-body-fills" class="cnc-0">
          <path d="M273449.71,325278.19l0,-1950l-120,0l0,1950l120,0z" />
          <path d="M273349.71,325278.19l0,-40l10,-10l60,0l10,10l0,40z" />
          <path d="M273349.71,323328.19l0,40l10,10l60,0l10,-10l0,-40z" />
          <path d="M273359.71,316298.19l60,0l10,10l0,60l-10,10l-60,0l-10,-10l0,-60z" />
          <path d="M273449.71,316398.19l6030,0l0,-120l-6030,0l0,-600l-120,0l0,4850l120,0l0,-4130z" />
          <path d="M273329.71,314678.19l120,0l0,-900l-120,0l0,900z" />
          <path d="M279479.71,316378.19l-40,0l-10,-10l0,-60l10,-10l40,0l0,10l0,60z" />
          <path d="M273349.71,313778.19l0,40l10,10l60,0l10,-10l0,-40z" />
          <path d="M273349.71,320528.19l0,-40l10,-10l60,0l10,10l0,40z" />
          <path d="M273329.71,321728.19l0,600l120,0l0,-240l6030,0l0,-120l-6030,0l0,-240l-120,0z" />
          <path d="M279479.71,322068.19l-40,0l-10,-10l0,-60l10,-10l40,0l0,10l0,60z" />
          <path d="M273349.71,314678.19l0,-40l10,-10l60,0l10,10l0,40z" />
          <path d="M273349.71,315678.19l0,40l10,10l60,0l10,-10l0,-40z" />
          <path d="M273349.71,321728.19l0,40l10,10l60,0l10,-10l0,-40z" />
          <path d="M273349.71,322328.19l0,-40l10,-10l60,0l10,10l0,40z" />
          <path d="M273359.71,321988.19l60,0l10,10l0,60l-10,10l-60,0l-10,-10l0,-60z" />
          <path d="M254914.71,325778.19l150,0l0,5900l-150,0z" />
          <path d="M191699.71,331278.19l6830,0l0,150l-6830,0z" />
          <path d="M200029.71,331278.19l150,0l0,150l-150,0z" />
          <path d="M244114.71,334818.19l150,0l0,300l-150,0z" />
          <path d="M244114.71,336018.19l150,0l0,4940l-150,0z" />
          <path d="M208819.71,334438.19l300,0l0,380l-300,0z" />
          <path d="M198579.71,334438.19l300,0l0,380l-300,0z" />
          <path d="M274149.71,316298.19l60,0l10,10l0,60l-10,10l-60,0l-10,-10l0,-60z" />
          <path d="M275049.71,316298.19l60,0l10,10l0,60l-10,10l-60,0l-10,-10l0,-60z" />
          <path d="M275949.71,316298.19l60,0l10,10l0,60l-10,10l-60,0l-10,-10l0,-60z" />
          <path d="M276849.71,316298.19l60,0l10,10l0,60l-10,10l-60,0l-10,-10l0,-60z" />
          <path d="M277749.71,316298.19l60,0l10,10l0,60l-10,10l-60,0l-10,-10l0,-60z" />
          <path d="M278649.71,316298.19l60,0l10,10l0,60l-10,10l-60,0l-10,-10l0,-60z" />
          <path d="M274149.71,321988.19l60,0l10,10l0,60l-10,10l-60,0l-10,-10l0,-60z" />
          <path d="M275049.71,321988.19l60,0l10,10l0,60l-10,10l-60,0l-10,-10l0,-60z" />
          <path d="M275949.71,321988.19l60,0l10,10l0,60l-10,10l-60,0l-10,-10l0,-60z" />
          <path d="M276849.71,321988.19l60,0l10,10l0,60l-10,10l-60,0l-10,-10l0,-60z" />
          <path d="M277749.71,321988.19l60,0l10,10l0,60l-10,10l-60,0l-10,-10l0,-60z" />
          <path d="M278649.71,321988.19l60,0l10,10l0,60l-10,10l-60,0l-10,-10l0,-60z" />
          <path d="M273359.71,324263.19l60,0l10,10l0,60l-10,10l-60,0l-10,-10l0,-60z" />
          <path d="M273359.71,317073.19l60,0l10,10l0,60l-10,10l-60,0l-10,-10l0,-60z" />
          <path d="M273359.71,317973.19l60,0l10,10l0,60l-10,10l-60,0l-10,-10l0,-60z" />
          <path d="M273359.71,318873.19l60,0l10,10l0,60l-10,10l-60,0l-10,-10l0,-60z" />
          <path d="M273359.71,319773.19l60,0l10,10l0,60l-10,10l-60,0l-10,-10l0,-60z" />
          <path d="M211829.71,325778.19l150,0l0,1000l-150,0z" />
          <path d="M208419.71,340958.19l150,0l0,-500l-150,0z" />
          <path d="M207979.71,332058.19l-380,0l0,260l380,0z" />
          <path d="M207979.71,334178.19l-380,0l0,260l380,0z" />
          <path d="M222779.71,332058.19l-380,0l0,260l380,0z" />
          <path d="M222779.71,334178.19l-380,0l0,260l380,0z" />
          <path d="M229979.71,332058.19l-380,0l0,260l380,0z" />
          <path d="M229979.71,334178.19l-380,0l0,260l380,0z" />
          <path d="M247979.71,332058.19l-380,0l0,260l380,0z" />
          <path d="M247979.71,334178.19l-380,0l0,260l380,0z" />
          <path d="M262379.71,332058.19l-380,0l0,260l380,0z" />
          <path d="M262379.71,334178.19l-380,0l0,260l380,0z" />
        </g>
        <g id="layer-RM-fills" class="rm">
          <path d="M226279.71,325778.19l0,5900l3420,0l0,-5900z" />
          <path d="M262969.71,325778.19l0,5900l3030,0l0,-5900z" />
          <path d="M266379.71,325778.19l0,5900l4120,0l0,-5900z" />
          <path d="M268099.71,313778.19l0,11500l5230,0l0,-11500z" />
          <path d="M273449.71,313778.19l0,2500l6030,0l0,-2500z" />
          <path d="M273449.71,316398.19l0,5570l6030,0l0,-5570z" />
          <path d="M273449.71,322088.19l0,3170l6030,20l0,-3190z" />
          <path d="M240679.71,334818.19l0,6140l3435,0l0,-6140l-3435,0z" />
        </g>
        <g id="layer-body" class="cnc-1">
          <path d="M270439.71,341458.19l1500,0" />
          <path d="M279479.71,313778.19l-11380,0" />
          <path d="M279979.71,313278.19l-12380,0" />
          <path d="M267599.71,313278.19l0,3690" />
          <path d="M267599.71,316968.19l500,0" />
          <path d="M268099.71,316968.19l0,-3190" />
          <path d="M268099.71,325278.19l0,-3310" />
          <path d="M268099.71,321968.19l-500,0" />
          <path d="M267599.71,321968.19l0,3310" />
          <path d="M267599.71,318968.19l0,1000" />
          <path d="M267599.71,319968.19l500,0" />
          <path d="M268099.71,319968.19l0,-1000" />
          <path d="M268099.71,318968.19l-500,0" />
          <path d="M200179.71,318078.19l-9280,0" />
          <path d="M200679.71,317578.19l-10280,0" />
          <path d="M262969.71,325778.19l0,5900" />
          <path d="M262659.71,325278.19l0,6780" />
          <path d="M279479.71,325778.19l-5900,0" />
          <path d="M279479.71,325278.19l-6280,0" />
          <path d="M261809.71,340958.19l0,-6140" />
          <path d="M262499.71,341458.19l0,-7020" />
          <path d="M207409.71,341458.19l0,-6640" />
          <path d="M208099.71,341958.19l0,-7520" />
          <path d="M279479.71,334438.19l-500,0" />
          <path d="M278979.71,334438.19l0,380" />
          <path d="M278979.71,334818.19l500,0" />
          <path d="M262969.71,334818.19l955.65,0" />
          <path d="M263925.36,334818.19l0,-380" />
          <path d="M263925.36,334438.19l-1265.65,0" />
          <path d="M277979.71,334438.19l-13054.35,0" />
          <path d="M264925.36,334438.19l0,380" />
          <path d="M264925.36,334818.19l13054.35,0" />
          <path d="M277979.71,334818.19l0,-380" />
          <path d="M262499.71,334438.19l-1520,0" />
          <path d="M260979.71,334438.19l0,380" />
          <path d="M260979.71,334818.19l830,0" />
          <path d="M247979.71,334818.19l250,0" />
          <path d="M248229.71,334818.19l0,-380" />
          <path d="M248229.71,334438.19l-440,0" />
          <path d="M259979.71,334438.19l-2600,0" />
          <path d="M257379.71,334438.19l0,380" />
          <path d="M257379.71,334818.19l2600,0" />
          <path d="M259979.71,334818.19l0,-380" />
          <path d="M256379.71,334438.19l-7150,0" />
          <path d="M249229.71,334438.19l0,380" />
          <path d="M249229.71,334818.19l7150,0" />
          <path d="M256379.71,334818.19l0,-380" />
          <path d="M208099.71,334438.19l-2520,0" />
          <path d="M205579.71,334438.19l0,380" />
          <path d="M205579.71,334818.19l1830,0" />
          <path d="M191699.71,334818.19l5680,0" />
          <path d="M197379.71,334818.19l0,-380" />
          <path d="M197379.71,334438.19l-5680,0" />
          <path d="M204579.71,334438.19l-3330,0" />
          <path d="M201249.71,334818.19l3330,0" />
          <path d="M204579.71,334818.19l0,-380" />
          <path d="M200249.71,334438.19l-1370,0" />
          <path d="M198879.71,334438.19l0,380" />
          <path d="M198879.71,334818.19l1370,0" />
          <path d="M200249.71,334818.19l1000,0" />
          <path d="M201249.71,334438.19l-1000,0" />
          <path d="M270499.71,331678.19l-3020,0" />
          <path d="M267479.71,331678.19l0,380" />
          <path d="M267479.71,332058.19l3400,0" />
          <path d="M266189.71,332058.19l390,0" />
          <path d="M266579.71,332058.19l0,-380" />
          <path d="M266579.71,331678.19l-200,0" />
          <path d="M279979.71,341958.19l0,-4570" />
          <path d="M279979.71,337388.19l-500,0" />
          <path d="M279479.71,337388.19l0,4070" />
          <path d="M279479.71,334818.19l0,570" />
          <path d="M279479.71,335388.19l500,0" />
          <path d="M279979.71,335388.19l0,-760" />
          <path d="M207409.71,331678.19l0,-5900" />
          <path d="M208099.71,332058.19l0,-6780" />
          <path d="M261809.71,332058.19l0,-6280" />
          <path d="M262499.71,332058.19l0,-6780" />
          <path d="M261809.71,332058.19l690,0" />
          <path d="M208569.71,325778.19l0,6280" />
          <path d="M208259.71,325278.19l0,6780" />
          <path d="M208569.71,332058.19l-310,0" />
          <path d="M261809.71,325778.19l-3030,0" />
          <path d="M262499.71,325278.19l-3910,0" />
          <path d="M207409.71,325778.19l-3820,0" />
          <path d="M208099.71,325278.19l-4700,0" />
          <path d="M190399.71,317578.19l0,1500" />
          <path d="M190399.71,319078.19l500,0" />
          <path d="M190899.71,319078.19l0,-1000" />
          <path d="M190899.71,321458.19l0,-1130" />
          <path d="M190899.71,320328.19l-500,0" />
          <path d="M190399.71,320328.19l0,1630" />
          <path d="M258399.71,331678.19l-1020,0" />
          <path d="M257379.71,331678.19l0,380" />
          <path d="M257379.71,332058.19l1400,0" />
          <path d="M247789.71,332058.19l1658.56,0" />
          <path d="M249448.27,331678.19l-1468.56,0" />
          <path d="M256379.71,331678.19l-5431.44,0" />
          <path d="M250948.27,331678.19l0,380" />
          <path d="M250948.27,332058.19l5431.44,0" />
          <path d="M256379.71,332058.19l0,-380" />
          <path d="M258399.71,325778.19l-10420,0" />
          <path d="M258589.71,325278.19l-10800,0" />
          <path d="M258399.71,331678.19l0,-5900" />
          <path d="M258779.71,332058.19l0,-6280" />
          <path d="M262969.71,341458.19l16510,0" />
          <path d="M262469.71,341958.19l17510,0" />
          <path d="M247599.71,340958.19l0,-6140" />
          <path d="M247979.71,340958.19l0,-6140" />
          <path d="M222399.71,340958.19l0,-6140" />
          <path d="M222779.71,340958.19l0,-6140" />
          <path d="M208569.71,340958.19l13830,0" />
          <path d="M208259.71,341458.19l14330,0" />
          <path d="M247599.71,331678.19l-250,0" />
          <path d="M247349.71,331678.19l0,380" />
          <path d="M247349.71,332058.19l440,0" />
          <path d="M222589.71,332058.19l1450,0" />
          <path d="M224039.71,332058.19l0,-380" />
          <path d="M224039.71,331678.19l-1260,0" />
          <path d="M246449.71,331678.19l-6450,0" />
          <path d="M239999.71,331678.19l0,380" />
          <path d="M239999.71,332058.19l6450,0" />
          <path d="M246449.71,332058.19l0,-380" />
          <path d="M239099.71,331678.19l-6460,0" />
          <path d="M232639.71,331678.19l0,380" />
          <path d="M232639.71,332058.19l6460,0" />
          <path d="M239099.71,332058.19l0,-380" />
          <path d="M231139.71,331678.19l-2700,0" />
          <path d="M228439.71,331678.19l0,380" />
          <path d="M228439.71,332058.19l2700,0" />
          <path d="M231139.71,332058.19l0,-380" />
          <path d="M227539.71,331678.19l-2600,0" />
          <path d="M224939.71,331678.19l0,380" />
          <path d="M224939.71,332058.19l2600,0" />
          <path d="M227539.71,332058.19l0,-380" />
          <path d="M247599.71,325778.19l-24820,0" />
          <path d="M247789.71,325278.19l-25200,0" />
          <path d="M247599.71,331678.19l0,-5900" />
          <path d="M247979.71,331678.19l0,-5900" />
          <path d="M222399.71,331678.19l0,-5900" />
          <path d="M222779.71,331678.19l0,-5900" />
          <path d="M265999.71,325778.19l-3030,0" />
          <path d="M266189.71,325278.19l-3530,0" />
          <path d="M265999.71,331678.19l-1160,0" />
          <path d="M264839.71,331678.19l0,380" />
          <path d="M264839.71,332058.19l1350,0" />
          <path d="M262659.71,332058.19l1280,0" />
          <path d="M263939.71,332058.19l0,-380" />
          <path d="M263939.71,331678.19l-970,0" />
          <path d="M265999.71,331678.19l0,-5900" />
          <path d="M266379.71,331678.19l0,-5900" />
          <path d="M270879.71,325778.19l0,6280" />
          <path d="M270499.71,325778.19l0,5900" />
          <path d="M279979.71,325468.19l0,-500" />
          <path d="M279979.71,324968.19l-500,0" />
          <path d="M279479.71,324968.19l0,310" />
          <path d="M279479.71,313778.19l0,3190" />
          <path d="M279479.71,316968.19l500,0" />
          <path d="M279979.71,316968.19l0,-3690" />
          <path d="M279979.71,322968.19l0,-1000" />
          <path d="M279979.71,321968.19l-500,0" />
          <path d="M279479.71,321968.19l0,1000" />
          <path d="M279479.71,322968.19l500,0" />
          <path d="M279979.71,319968.19l0,-1000" />
          <path d="M279979.71,318968.19l-500,0" />
          <path d="M279479.71,318968.19l0,1000" />
          <path d="M279479.71,319968.19l500,0" />
          <path d="M211599.71,325778.19l-3030,0" />
          <path d="M211789.71,325278.19l-3530,0" />
          <path d="M200179.71,325778.19l0,-7700" />
          <path d="M200679.71,325278.19l0,-7700" />
          <path d="M191199.71,321958.19l0,370" />
          <path d="M191199.71,322328.19l500,0" />
          <path d="M191699.71,322328.19l0,-870" />
          <path d="M191699.71,334438.19l0,-510" />
          <path d="M191699.71,333928.19l-500,0" />
          <path d="M191199.71,333928.19l0,700" />
          <path d="M191199.71,324328.19l0,1200" />
          <path d="M191199.71,325528.19l500,0" />
          <path d="M191699.71,325528.19l0,-1200" />
          <path d="M191699.71,324328.19l-500,0" />
          <path d="M191199.71,327528.19l0,1200" />
          <path d="M191199.71,328728.19l500,0" />
          <path d="M191699.71,328728.19l0,-1200" />
          <path d="M191699.71,327528.19l-500,0" />
          <path d="M191199.71,330728.19l0,1200" />
          <path d="M191199.71,331928.19l500,0" />
          <path d="M191699.71,331928.19l0,-1200" />
          <path d="M191699.71,330728.19l-500,0" />
          <path d="M211599.71,332058.19l0,-6280" />
          <path d="M211979.71,331678.19l0,-4900" />
          <path d="M211779.71,326778.19l0,-1000" />
          <path d="M279979.71,334628.19l0,-360" />
          <path d="M279979.71,334268.19l-500,0" />
          <path d="M279479.71,334268.19l0,170" />
          <path d="M279479.71,332058.19l0,210" />
          <path d="M279479.71,332268.19l500,0" />
          <path d="M279979.71,332268.19l0,-400" />
          <path d="M262969.71,334818.19l0,6640" />
          <path d="M262659.71,334438.19l0,7520" />
          <path d="M208569.71,334818.19l0,6140" />
          <path d="M208259.71,334438.19l0,7020" />
          <path d="M222589.71,334438.19l-630,0" />
          <path d="M221959.71,334438.19l0,380" />
          <path d="M221959.71,334818.19l440,0" />
          <path d="M216449.71,334818.19l4010,0" />
          <path d="M220759.71,334438.19l-4310,0" />
          <path d="M247789.71,334438.19l-880,0" />
          <path d="M246909.71,334438.19l0,380" />
          <path d="M246909.71,334818.19l690,0" />
          <path d="M244264.71,334818.19l1645,0" />
          <path d="M245909.71,334818.19l0,-380" />
          <path d="M245909.71,334438.19l-1720,0" />
          <path d="M273099.71,330278.19l480,0" />
          <path d="M273579.71,331278.19l-480,0" />
          <path d="M279979.71,331868.19l0,-900" />
          <path d="M279979.71,330968.19l-500,0" />
          <path d="M279479.71,330968.19l0,710" />
          <path d="M279479.71,325778.19l0,190" />
          <path d="M279479.71,325968.19l500,0" />
          <path d="M279979.71,325968.19l0,-500" />
          <path d="M279979.71,328968.19l0,-1000" />
          <path d="M279979.71,327968.19l-500,0" />
          <path d="M279479.71,327968.19l0,1000" />
          <path d="M279479.71,328968.19l500,0" />
          <path d="M267789.71,325778.19l-1410,0" />
          <path d="M267599.71,325278.19l-1410,0" />
          <path d="M270499.71,325778.19l-2710,0" />
          <path d="M271119.71,325278.19l-3020,0" />
          <path d="M222399.71,331678.19l-500,0" />
          <path d="M221899.71,331678.19l0,380" />
          <path d="M221899.71,332058.19l690,0" />
          <path d="M211599.71,332058.19l880,0" />
          <path d="M212479.71,332058.19l0,-380" />
          <path d="M212479.71,331678.19l-500,0" />
          <path d="M220999.71,331678.19l-7020,0" />
          <path d="M213979.71,331678.19l0,380" />
          <path d="M213979.71,332058.19l7020,0" />
          <path d="M220999.71,332058.19l0,-380" />
          <path d="M222399.71,325778.19l-10620,0" />
          <path d="M211979.71,326778.19l-200,0" />
          <path d="M222589.71,325278.19l-10800,0" />
          <path d="M200559.71,325778.19l0,5900" />
          <path d="M200179.71,325778.19l0,6280" />
          <path d="M200559.71,325778.19l-380,0" />
          <path d="M200179.71,332058.19l1630,0" />
          <path d="M201809.71,332058.19l0,-380" />
          <path d="M201809.71,331678.19l-1250,0" />
          <path d="M203209.71,331678.19l-500,0" />
          <path d="M202709.71,331678.19l0,380" />
          <path d="M202709.71,332058.19l690,0" />
          <path d="M203589.71,325778.19l0,5900" />
          <path d="M203209.71,325778.19l0,5900" />
          <path d="M203399.71,332058.19l690,0" />
          <path d="M204089.71,332058.19l0,-380" />
          <path d="M204089.71,331678.19l-500,0" />
          <path d="M207409.71,331678.19l-2420,0" />
          <path d="M204989.71,331678.19l0,380" />
          <path d="M204989.71,332058.19l3110,0" />
          <path d="M203209.71,325778.19l-3030,0" />
          <path d="M203399.71,325278.19l-2720,0" />
          <path d="M191699.71,338018.19l-800,0" />
          <path d="M191199.71,337638.19l-800,0" />
          <path d="M191199.71,321958.19l-800,0" />
          <path d="M191699.71,321458.19l-800,0" />
          <path d="M191199.71,334628.19l0,500" />
          <path d="M191199.71,335128.19l500,0" />
          <path d="M191699.71,335128.19l0,-310" />
          <path d="M191699.71,338018.19l0,-890" />
          <path d="M191699.71,337128.19l-500,0" />
          <path d="M191199.71,337128.19l0,510" />
          <path d="M190399.71,337638.19l0,1490" />
          <path d="M190399.71,339128.19l500,0" />
          <path d="M190899.71,339128.19l0,-1110" />
          <path d="M190899.71,341458.19l0,-1080" />
          <path d="M190899.71,340378.19l-500,0" />
          <path d="M190399.71,340378.19l0,1580" />
          <path d="M200179.71,331428.19l0,-120" />
          <path d="M229699.71,331678.19l0,-5900" />
          <path d="M229879.71,331678.19l0,-5900" />
          <path d="M229699.71,331678.19l180,0" />
          <path d="M229699.71,325778.19l180,0" />
          <path d="M226099.71,340958.19l0,-6140" />
          <path d="M226279.71,340958.19l0,-6140" />
          <path d="M226099.71,340958.19l180,0" />
          <path d="M226099.71,334818.19l180,0" />
          <path d="M229699.71,340958.19l0,-6140" />
          <path d="M229879.71,340958.19l0,-6140" />
          <path d="M240499.71,340958.19l0,-6140" />
          <path d="M240679.71,340958.19l0,-6140" />
          <path d="M279479.71,319528.19l0,-120" />
          <path d="M270759.71,325278.19l120,0" />
          <path d="M233299.71,340958.19l0,-6140" />
          <path d="M233479.71,340958.19l0,-6140" />
          <path d="M233299.71,340958.19l180,0" />
          <path d="M233299.71,334818.19l180,0" />
          <path d="M226099.71,331678.19l0,-5900" />
          <path d="M226279.71,331678.19l0,-5900" />
          <path d="M226099.71,331678.19l180,0" />
          <path d="M226099.71,325778.19l180,0" />
          <path d="M240499.71,331678.19l0,-5900" />
          <path d="M240679.71,331678.19l0,-5900" />
          <path d="M240499.71,331678.19l180,0" />
          <path d="M240499.71,325778.19l180,0" />
          <path d="M254929.71,331678.19l120,0" />
          <path d="M254929.71,325778.19l120,0" />
          <path d="M211599.71,329808.19l0,-1539.27" />
          <path d="M211599.71,328156.22l0,-778.03" />
          <path d="M209974.71,329808.19l-1405,0" />
          <path d="M209974.71,329538.19l-1405,0" />
          <path d="M209974.71,329268.19l-1405,0" />
          <path d="M209973.19,328998.19l-1403.48,0" />
          <path d="M209974.71,328728.19l-304.25,0" />
          <path d="M209453.58,328728.19l-883.87,0" />
          <path d="M209974.71,328458.19l-823.87,0" />
          <path d="M211235.46,328458.19l364.25,0" />
          <path d="M209974.71,328188.19l-1343.48,0" />
          <path d="M209974.71,327918.19l-1405,0" />
          <path d="M209974.71,327648.19l-1405,0" />
          <path d="M209974.71,327378.19l-1405,0" />
          <path d="M210034.71,329808.19l0,-778.03" />
          <path d="M210034.71,328917.46l0,-1539.27" />
          <path d="M210034.71,328917.46l-641.62,-333.39" />
          <path d="M210034.71,329030.15l-663.95,-345" />
          <path d="M209370.76,328685.15l38.49,-174.23" />
          <path d="M209409.25,328510.92l-198.17,181.86" />
          <path d="M209211.08,328692.79l40.29,-182.37" />
          <path d="M209251.37,328510.42l-681.66,-354.2" />
          <path d="M209229.03,328611.51l-659.32,-342.6" />
          <path d="M208569.71,327378.19l0,2430" />
          <path d="M210194.71,327378.19l1405,0" />
          <path d="M210194.71,327648.19l1405,0" />
          <path d="M210194.71,327918.19l1405,0" />
          <path d="M210194.71,328188.19l1405,0" />
          <path d="M210194.71,328458.19l1405,0" />
          <path d="M210194.71,328728.19l1405,0" />
          <path d="M210194.71,328998.19l1405,0" />
          <path d="M210194.71,329268.19l1405,0" />
          <path d="M210194.71,329538.19l1405,0" />
          <path d="M210194.71,329808.19l1405,0" />
          <path d="M210134.71,327378.19l0,2430" />
          <path d="M210134.71,329898.19l-100,0" />
          <path d="M210034.71,329898.19l0,-868.03" />
          <path d="M210034.71,328917.46l0,-1629.27" />
          <path d="M210034.71,327288.19l100,0" />
          <path d="M210134.71,327288.19l0,2610" />
          <path d="M210194.71,329958.19l-220,0" />
          <path d="M209974.71,329958.19l0,-959.21" />
          <path d="M209974.71,328886.28l0,-1658.09" />
          <path d="M209974.71,327228.19l220,0" />
          <path d="M210194.71,327228.19l0,2730" />
          <path d="M211599.71,327378.19l0,-1600" />
          <path d="M211599.71,325778.19l-3030,0" />
          <path d="M208569.71,325778.19l0,1600" />
          <path d="M211599.71,327378.19l-1405,0" />
          <path d="M210134.71,327378.19l-100,0" />
          <path d="M209974.71,327378.19l-1405,0" />
          <path d="M210034.71,329808.19l100,0" />
          <path d="M258779.71,329808.19l0,-778.03" />
          <path d="M258779.71,328917.46l0,-1539.27" />
          <path d="M261809.71,329808.19l-1405,0" />
          <path d="M261809.71,329538.19l-1405,0" />
          <path d="M261809.71,329268.19l-1405,0" />
          <path d="M261748.19,328998.19l-1343.48,0" />
          <path d="M258779.71,328728.19l364.25,0" />
          <path d="M261228.58,328728.19l-823.87,0" />
          <path d="M261809.71,328458.19l-883.87,0" />
          <path d="M260708.96,328458.19l-304.25,0" />
          <path d="M261809.71,328188.19l-1403.48,0" />
          <path d="M261809.71,327918.19l-1405,0" />
          <path d="M261809.71,327648.19l-1405,0" />
          <path d="M261809.71,327378.19l-1405,0" />
          <path d="M260344.71,329808.19l0,-1539.27" />
          <path d="M260344.71,328156.22l0,-778.03" />
          <path d="M261809.71,328917.46l-641.62,-333.39" />
          <path d="M261809.71,329030.15l-663.95,-345" />
          <path d="M261145.76,328685.15l38.49,-174.23" />
          <path d="M261184.25,328510.92l-198.17,181.86" />
          <path d="M260986.08,328692.79l40.29,-182.37" />
          <path d="M261026.37,328510.42l-681.66,-354.2" />
          <path d="M261004.03,328611.51l-659.32,-342.6" />
          <path d="M261809.71,327378.19l0,2430" />
          <path d="M258779.71,327378.19l1405,0" />
          <path d="M258779.71,327648.19l1405,0" />
          <path d="M258779.71,327918.19l1405,0" />
          <path d="M258779.71,328188.19l1405,0" />
          <path d="M258779.71,328458.19l1405,0" />
          <path d="M258779.71,328728.19l1405,0" />
          <path d="M258779.71,328998.19l1405,0" />
          <path d="M258779.71,329268.19l1405,0" />
          <path d="M258779.71,329538.19l1405,0" />
          <path d="M258779.71,329808.19l1405,0" />
          <path d="M260244.71,327378.19l0,2430" />
          <path d="M260184.71,329958.19l220,0" />
          <path d="M260404.71,329958.19l0,-1658.09" />
          <path d="M260404.71,328187.4l0,-959.21" />
          <path d="M260404.71,327228.19l-220,0" />
          <path d="M260184.71,327228.19l0,2730" />
          <path d="M260244.71,329898.19l100,0" />
          <path d="M260344.71,329898.19l0,-1629.27" />
          <path d="M260344.71,328156.22l0,-868.03" />
          <path d="M260344.71,327288.19l-100,0" />
          <path d="M260244.71,327288.19l0,2610" />
          <path d="M261809.71,327378.19l0,-1600" />
          <path d="M261809.71,325778.19l-3030,0" />
          <path d="M258779.71,325778.19l0,1600" />
          <path d="M261809.71,327378.19l-1405,0" />
          <path d="M260344.71,327378.19l-100,0" />
          <path d="M260184.71,327378.19l-1405,0" />
          <path d="M260344.71,329808.19l-100,0" />
          <path d="M190899.71,341458.19l16510,0" />
          <path d="M190399.71,341958.19l17700,0" />
          <path d="M222779.71,340958.19l6920,0" />
          <path d="M222589.71,341458.19l7200,0" />
          <path d="M229879.71,340958.19l10620,0" />
          <path d="M229789.71,341458.19l10800,0" />
          <path d="M240679.71,340958.19l6920,0" />
          <path d="M240589.71,341458.19l7200,0" />
          <path d="M240589.71,334438.19l-780,0" />
          <path d="M238609.71,334818.19l1890,0" />
          <path d="M237064.71,334818.19l1545,0" />
          <path d="M238609.71,334438.19l-1620,0" />
          <path d="M254899.71,340958.19l0,-6140" />
          <path d="M255079.71,340958.19l0,-6140" />
          <path d="M254899.71,340958.19l180,0" />
          <path d="M254899.71,334818.19l180,0" />
          <path d="M247979.71,340958.19l13830,0" />
          <path d="M247789.71,341458.19l14520,0" />
          <path d="M258499.71,340958.19l0,-6140" />
          <path d="M258679.71,340958.19l0,-6140" />
          <path d="M258499.71,340958.19l180,0" />
          <path d="M258499.71,334818.19l180,0" />
          <path d="M229789.71,334438.19l-1205,0" />
          <path d="M228584.71,334438.19l0,380" />
          <path d="M228584.71,334818.19l1115,0" />
          <path d="M222779.71,334818.19l1305,0" />
          <path d="M224084.71,334818.19l0,-380" />
          <path d="M224084.71,334438.19l-1495,0" />
          <path d="M227684.71,334438.19l-2700,0" />
          <path d="M224984.71,334438.19l0,380" />
          <path d="M224984.71,334818.19l2700,0" />
          <path d="M227684.71,334818.19l0,-380" />
          <path d="M215464.71,334818.19l0,6140" />
          <path d="M215314.71,334818.19l0,6140" />
          <path d="M215464.71,340958.19l-150,0" />
          <path d="M219064.71,340958.19l-150,0" />
          <path d="M211789.71,334438.19l-1470,0" />
          <path d="M210319.71,334438.19l0,380" />
          <path d="M210319.71,334818.19l1395,0" />
          <path d="M208569.71,334818.19l250,0" />
          <path d="M208819.71,334818.19l0,-380" />
          <path d="M208819.71,334438.19l-560,0" />
          <path d="M215389.71,334438.19l-2540,0" />
          <path d="M212849.71,334818.19l2465,0" />
          <path d="M211864.71,334818.19l985,0" />
          <path d="M212849.71,334438.19l-1060,0" />
          <path d="M215314.71,334818.19l1135,0" />
          <path d="M216449.71,334438.19l-1060,0" />
          <path d="M237064.71,340958.19l-150,0" />
          <path d="M244264.71,340958.19l-150,0" />
          <path d="M236989.71,334438.19l-2490,0" />
          <path d="M229879.71,334818.19l1405,0" />
          <path d="M231284.71,334818.19l0,-380" />
          <path d="M231284.71,334438.19l-1495,0" />
          <path d="M234499.71,334438.19l-2315,0" />
          <path d="M232184.71,334438.19l0,380" />
          <path d="M232184.71,334818.19l4730,0" />
          <path d="M244189.71,334438.19l-2490,0" />
          <path d="M241699.71,334818.19l2415,0" />
          <path d="M240679.71,334818.19l1020,0" />
          <path d="M241699.71,334438.19l-1110,0" />
          <path d="M202629.71,341458.19l120,0" class="cnc-2" />
          <path d="M197729.71,318078.19l120,0" class="cnc-2" />
          <path d="M273579.71,325778.19l0,4500" />
          <path d="M273579.71,331278.19l0,400" />
          <path d="M273099.71,325278.19l0,5000" />
          <path d="M273099.71,331278.19l0,780" />
          <path d="M279479.71,331678.19l-5900,0" />
          <path d="M273099.71,332058.19l6380,0" />
          <path d="M273419.71,313828.19l0,800" />
          <path d="M273419.71,315728.19l0,570" />
          <path d="M273419.71,316378.19l0,695" />
          <path d="M273419.71,317153.19l0,820" />
          <path d="M273419.71,318053.19l0,820" />
          <path d="M273419.71,318953.19l0,165" />
          <path d="M273359.71,313828.19l0,800" />
          <path d="M273359.71,315728.19l0,570" />
          <path d="M273359.71,316378.19l0,695" />
          <path d="M273359.71,317153.19l0,820" />
          <path d="M273359.71,318053.19l0,820" />
          <path d="M273359.71,318953.19l0,165" />
          <path d="M273384.71,313828.19l0,800" />
          <path d="M273384.71,315728.19l0,570" />
          <path d="M273384.71,316378.19l0,695" />
          <path d="M273384.71,317153.19l0,820" />
          <path d="M273384.71,318053.19l0,820" />
          <path d="M273384.71,318953.19l0,165" />
          <path d="M273394.71,313828.19l0,800" />
          <path d="M273394.71,315728.19l0,570" />
          <path d="M273394.71,316378.19l0,695" />
          <path d="M273394.71,317153.19l0,820" />
          <path d="M273394.71,318053.19l0,820" />
          <path d="M273394.71,318953.19l0,165" />
          <path d="M273419.71,323378.19l0,885" />
          <path d="M273419.71,324343.19l0,885" />
          <path d="M273359.71,323378.19l0,885" />
          <path d="M273359.71,324343.19l0,885" />
          <path d="M273384.71,323378.19l0,885" />
          <path d="M273384.71,324343.19l0,885" />
          <path d="M273394.71,323378.19l0,885" />
          <path d="M273394.71,324343.19l0,885" />
          <path d="M279429.71,316368.19l-710,0" />
          <path d="M278639.71,316368.19l-820,0" />
          <path d="M277739.71,316368.19l-820,0" />
          <path d="M276839.71,316368.19l-820,0" />
          <path d="M275939.71,316368.19l-820,0" />
          <path d="M275039.71,316368.19l-820,0" />
          <path d="M274139.71,316368.19l-710,0" />
          <path d="M279429.71,316308.19l-710,0" />
          <path d="M278639.71,316308.19l-820,0" />
          <path d="M277739.71,316308.19l-820,0" />
          <path d="M276839.71,316308.19l-820,0" />
          <path d="M275939.71,316308.19l-820,0" />
          <path d="M275039.71,316308.19l-820,0" />
          <path d="M274139.71,316308.19l-710,0" />
          <path d="M279429.71,316333.19l-710,0" />
          <path d="M278639.71,316333.19l-820,0" />
          <path d="M277739.71,316333.19l-820,0" />
          <path d="M276839.71,316333.19l-820,0" />
          <path d="M275939.71,316333.19l-820,0" />
          <path d="M275039.71,316333.19l-820,0" />
          <path d="M274139.71,316333.19l-710,0" />
          <path d="M279429.71,316343.19l-710,0" />
          <path d="M278639.71,316343.19l-820,0" />
          <path d="M277739.71,316343.19l-820,0" />
          <path d="M276839.71,316343.19l-820,0" />
          <path d="M275939.71,316343.19l-820,0" />
          <path d="M275039.71,316343.19l-820,0" />
          <path d="M274139.71,316343.19l-710,0" />
          <path d="M273419.71,319118.19l0,655" />
          <path d="M273419.71,319853.19l0,625" />
          <path d="M273359.71,319118.19l0,655" />
          <path d="M273359.71,319853.19l0,625" />
          <path d="M273384.71,319118.19l0,655" />
          <path d="M273384.71,319853.19l0,625" />
          <path d="M273394.71,319118.19l0,655" />
          <path d="M273394.71,319853.19l0,625" />
          <path d="M279429.71,322058.19l-710,0" />
          <path d="M278639.71,322058.19l-820,0" />
          <path d="M277739.71,322058.19l-820,0" />
          <path d="M276839.71,322058.19l-820,0" />
          <path d="M275939.71,322058.19l-820,0" />
          <path d="M275039.71,322058.19l-820,0" />
          <path d="M274139.71,322058.19l-710,0" />
          <path d="M279429.71,321998.19l-710,0" />
          <path d="M278639.71,321998.19l-820,0" />
          <path d="M277739.71,321998.19l-820,0" />
          <path d="M276839.71,321998.19l-820,0" />
          <path d="M275939.71,321998.19l-820,0" />
          <path d="M275039.71,321998.19l-820,0" />
          <path d="M274139.71,321998.19l-710,0" />
          <path d="M279429.71,322023.19l-710,0" />
          <path d="M278639.71,322023.19l-820,0" />
          <path d="M277739.71,322023.19l-820,0" />
          <path d="M276839.71,322023.19l-820,0" />
          <path d="M275939.71,322023.19l-820,0" />
          <path d="M275039.71,322023.19l-820,0" />
          <path d="M274139.71,322023.19l-710,0" />
          <path d="M279429.71,322033.19l-710,0" />
          <path d="M278639.71,322033.19l-820,0" />
          <path d="M277739.71,322033.19l-820,0" />
          <path d="M276839.71,322033.19l-820,0" />
          <path d="M275939.71,322033.19l-820,0" />
          <path d="M275039.71,322033.19l-820,0" />
          <path d="M274139.71,322033.19l-710,0" />
          <path d="M273419.71,321778.19l0,210" />
          <path d="M273419.71,322068.19l0,210" />
          <path d="M273359.71,321778.19l0,210" />
          <path d="M273359.71,322068.19l0,210" />
          <path d="M273384.71,321778.19l0,210" />
          <path d="M273384.71,322068.19l0,210" />
          <path d="M273394.71,321778.19l0,210" />
          <path d="M273394.71,322068.19l0,210" />
          <path d="M209119.71,334818.19l0,-380" />
          <path d="M208819.71,334818.19l0,-380" />
          <path d="M220759.71,334818.19l0,-380" />
          <path d="M198579.71,334818.19l0,-380" />
          <path d="M198879.71,334818.19l0,-380" />
          <path d="M198579.71,334818.19l0,-380" />
          <path d="M249448.27,332058.19l0,-380" />
          <path d="M279479.71,325278.19l-6460,0" />
          <path d="M271119.71,325278.19l0,500" />
          <path d="M273019.71,325278.19l0,500" />
          <path d="M273019.71,325778.19l80,0" />
          <path d="M270879.71,325778.19l240,0" />
          <path d="M270439.71,341458.19l1500,0" />
          <path d="M270439.71,341458.19l1500,0" />
          <path d="M270439.71,341458.19l1500,0" />
          <use xlink:href="#$TCHSYS$WIN2D_2000x500" x="267849.71" y="317968.19" transform="scale(-1,1) translate(-535699.42,0) rotate(-90,267849.71,317968.19)">.<g class="blkclass0"><text transform="rotate(-90 -475.32,679.67) translate(-475.32,679.67)" font-size="386.75">WC2024</text></g></use>
          <use xlink:href="#$TCHSYS$WIN2D_2000x500" x="267849.71" y="320968.19" transform="rotate(-270,267849.71,320968.19)">.<g class="blkclass0"><text transform="rotate(-90 -475.32,724.42) translate(-475.32,724.42)" font-size="386.75">WC2024</text></g></use>
          <use xlink:href="#$TCHSYS$WIN2D_2000x500" x="279729.71" y="336388.19" transform="scale(1,-1) translate(0,-672776.38) rotate(-270,279729.71,336388.19)">.<g class="blkclass0"><text transform="rotate(-90 730.98,638.6) translate(730.98,638.6)" font-size="386.75">WC2024</text></g></use>
          <use xlink:href="#$TCHSYS$WIN2D_1250x500" x="190649.71" y="319703.19" transform="rotate(-270,190649.71,319703.19)">.<g class="blkclass0"><text transform="rotate(-90 -522.65,663.94) translate(-522.65,663.94)" font-size="386.75">WC1224</text></g></use>
          <use xlink:href="#$TCHSYS$WIN2D_2000x500" x="279729.71" y="323968.19" transform="scale(1,-1) translate(0,-647936.38) rotate(-270,279729.71,323968.19)">.<g class="blkclass0"><text transform="rotate(-90 803.62,528.14) translate(803.62,528.14)" font-size="386.75">WC2024</text></g></use>
          <use xlink:href="#$TCHSYS$WIN2D_2000x500" x="279729.71" y="317968.19" transform="scale(1,-1) translate(0,-635936.38) rotate(-270,279729.71,317968.19)">.<g class="blkclass0"><text transform="rotate(-90 796.44,596.99) translate(796.44,596.99)" font-size="386.75">WC2024</text></g></use>
          <use xlink:href="#$TCHSYS$WIN2D_2000x500" x="279729.71" y="320968.19" transform="scale(-1,-1) translate(-559459.42,-641936.38) rotate(-90,279729.71,320968.19)">.<g class="blkclass0"><text transform="rotate(-90 771.52,561.95) translate(771.52,561.95)" font-size="386.75">WC2024</text></g></use>
          <use xlink:href="#$TCHSYS$WIN2D_2000x500" x="279729.71" y="326968.19" transform="scale(1,-1) translate(0,-653936.38) rotate(-270,279729.71,326968.19)">.<g class="blkclass0"><text transform="rotate(-90 723.52,655.81) translate(723.52,655.81)" font-size="386.75">WC2024</text></g></use>
          <use xlink:href="#$TCHSYS$WIN2D_2000x500" x="279729.71" y="329968.19" transform="scale(1,-1) translate(0,-659936.38) rotate(-270,279729.71,329968.19)">.<g class="blkclass0"><text transform="rotate(-90 803.24,565.38) translate(803.24,565.38)" font-size="386.75">WC2024</text></g></use>
          <use xlink:href="#$TCHSYS$WIN2D_2000x500" x="191449.71" y="323328.19" transform="scale(-1,1) translate(-382899.42,0) rotate(-90,191449.71,323328.19)">.<g class="blkclass0"><text transform="rotate(-90 -605.31,642.73) translate(-605.31,642.73)" font-size="386.75">WC2024</text></g></use>
          <use xlink:href="#$TCHSYS$WIN2D_2000x500" x="191449.71" y="326528.19" transform="scale(-1,-1) translate(-382899.42,-653056.38) rotate(-270,191449.71,326528.19)">.<g class="blkclass0"><text transform="rotate(-90 -721.1,600) translate(-721.1,600)" font-size="386.75">WC2024</text></g></use>
          <use xlink:href="#$TCHSYS$WIN2D_2000x500" x="191449.71" y="329728.19" transform="scale(-1,-1) translate(-382899.42,-659456.38) rotate(-270,191449.71,329728.19)">.<g class="blkclass0"><text transform="rotate(-90 -721.1,600) translate(-721.1,600)" font-size="386.75">WC2024</text></g></use>
          <use xlink:href="#$TCHSYS$WIN2D_2000x500" x="191449.71" y="332928.19" transform="scale(-1,-1) translate(-382899.42,-665856.38) rotate(-270,191449.71,332928.19)">.<g class="blkclass0"><text transform="rotate(-90 -721.1,600) translate(-721.1,600)" font-size="386.75">WC2024</text></g></use>
          <use xlink:href="#$TCHSYS$WIN2D_1250x500" x="190649.71" y="339753.19" transform="scale(-1,1) translate(-381299.42,0) rotate(-90,190649.71,339753.19)">.<g class="blkclass0"><text transform="rotate(-90 -428.81,556.26) translate(-428.81,556.26)" font-size="386.75">WC1224</text></g></use>
          <use xlink:href="#$TCHSYS$WIN2D_2000x500" x="279729.71" y="333268.19" transform="scale(1,-1) translate(0,-666536.38) rotate(-270,279729.71,333268.19)">.<g class="blkclass0"><text transform="rotate(-90 706.95,512.03) translate(706.95,512.03)" font-size="386.75">WC2024</text></g></use>
          <use xlink:href="#$TCHSYS$WIN2D_2000x500" x="191449.71" y="336128.19" transform="scale(-1,-1) translate(-382899.42,-672256.38) rotate(-270,191449.71,336128.19)">.<g class="blkclass0"><text transform="rotate(-90 -721.1,600) translate(-721.1,600)" font-size="386.75">WC2024</text></g></use>
          <use xlink:href="#$TCHSYS$WIN2D_2000x500" x="209989.71" y="341208.19">.<g class="blkclass0"><text transform="translate(-600,798.75)" font-size="386.75">WC2024</text></g></use>
          <use xlink:href="#$TCHSYS$WIN2D_2000x500" x="193939.71" y="341708.19">.<g class="blkclass0"><text transform="translate(-600,798.75)" font-size="386.75">WC2024</text></g></use>
          <use xlink:href="#$TCHSYS$WIN2D_2000x500" x="197439.71" y="341708.19">.<g class="blkclass0"><text transform="translate(-600,798.75)" font-size="386.75">WC2024</text></g></use>
          <use xlink:href="#$TCHSYS$WIN2D_2000x500" x="200939.71" y="341708.19">.<g class="blkclass0"><text transform="translate(-600,798.75)" font-size="386.75">WC2024</text></g></use>
          <use xlink:href="#$TCHSYS$WIN2D_2000x500" x="204439.71" y="341708.19">.<g class="blkclass0"><text transform="translate(-600,798.75)" font-size="386.75">WC2024</text></g></use>
          <use xlink:href="#$TCHSYS$WIN2D_2000x500" x="260389.71" y="341208.19">.<g class="blkclass0"><text transform="translate(-600,798.75)" font-size="386.75">WC2024</text></g></use>
          <use xlink:href="#$TCHSYS$WIN2D_2000x500" x="253189.71" y="341208.19">.<g class="blkclass0"><text transform="translate(-600,798.75)" font-size="386.75">WC2024</text></g></use>
          <use xlink:href="#$TCHSYS$WIN2D_2000x500" x="256789.71" y="341208.19">.<g class="blkclass0"><text transform="translate(-600,798.75)" font-size="386.75">WC2024</text></g></use>
          <use xlink:href="#$TCHSYS$WIN2D_2000x500" x="249589.71" y="341208.19">.<g class="blkclass0"><text transform="translate(-600,798.75)" font-size="386.75">WC2024</text></g></use>
          <use xlink:href="#$TCHSYS$WIN2D_2000x500" x="276439.71" y="341708.19" transform="scale(-1,1) translate(-552879.42,0)">.<g class="blkclass0"><text transform="translate(-600,798.75)" font-size="386.75">WC2024</text></g></use>
          <use xlink:href="#$TCHSYS$WIN2D_2000x500" x="272939.71" y="341708.19" transform="scale(-1,1) translate(-545879.42,0)">.<g class="blkclass0"><text transform="translate(-600,798.75)" font-size="386.75">WC2024</text></g></use>
          <use xlink:href="#$TCHSYS$WIN2D_2000x500" x="269439.71" y="341708.19" transform="scale(-1,1) translate(-538879.42,0)">.<g class="blkclass0"><text transform="translate(-600,798.75)" font-size="386.75">WC2024</text></g></use>
          <use xlink:href="#$TCHSYS$WIN2D_2000x500" x="265939.71" y="341708.19" transform="scale(-1,1) translate(-531879.42,0)">.<g class="blkclass0"><text transform="translate(-600,798.75)" font-size="386.75">WC2024</text></g></use>
          <use xlink:href="#$TCHSYS$WIN2D_2000x500" x="245989.71" y="341208.19" transform="scale(-1,-1) translate(-491979.42,-682416.38)">.<g class="blkclass0"><text transform="translate(-600,798.75)" font-size="386.75">WC2024</text></g></use>
          <use xlink:href="#$TCHSYS$WIN2D_2000x500" x="242389.71" y="341208.19" transform="scale(-1,-1) translate(-484779.42,-682416.38)">.<g class="blkclass0"><text transform="translate(-600,798.75)" font-size="386.75">WC2024</text></g></use>
          <use xlink:href="#$TCHSYS$WIN2D_2000x500" x="238789.71" y="341208.19">.<g class="blkclass0"><text transform="translate(-600,798.75)" font-size="386.75">WC2024</text></g></use>
          <use xlink:href="#$TCHSYS$WIN2D_2000x500" x="235189.71" y="341208.19">.<g class="blkclass0"><text transform="translate(-600,749.03)" font-size="386.75">WC2024</text></g></use>
          <use xlink:href="#$TCHSYS$WIN2D_2000x500" x="231589.71" y="341508.19">.<g class="blkclass0"><text transform="translate(-600,798.75)" font-size="386.75">WC2024</text></g></use>
          <use xlink:href="#$TCHSYS$WIN2D_2000x500" x="227989.71" y="341208.19">.<g class="blkclass0"><text transform="translate(-600,798.75)" font-size="386.75">WC2024</text></g></use>
          <use xlink:href="#$TCHSYS$WIN2D_2000x500" x="224389.71" y="341508.19">.<g class="blkclass0"><text transform="translate(-600,798.75)" font-size="386.75">WC2024</text></g></use>
          <use xlink:href="#$TCHSYS$WIN2D_2000x500" x="213589.71" y="341208.19">.<g class="blkclass0"><text transform="translate(-600,798.75)" font-size="386.75">WC2024</text></g></use>
          <use xlink:href="#$TCHSYS$WIN2D_2000x500" x="217189.71" y="341208.19">.<g class="blkclass0"><text transform="translate(-600,798.75)" font-size="386.75">WC2024</text></g></use>
          <use xlink:href="#$TCHSYS$WIN2D_2000x500" x="220789.71" y="341208.19">.<g class="blkclass0"><text transform="translate(-600,798.75)" font-size="386.75">WC2024</text></g></use>
          <use xlink:href="#$TCHSYS$WIN2D_2000x500" x="260389.71" y="325528.19" transform="scale(-1,1) translate(-520779.42,0) rotate(-180,260389.71,325528.19)">.<g class="blkclass0"><text transform="translate(-600,-376.25)" font-size="386.75">WC2024</text></g></use>
          <use xlink:href="#$TCHSYS$WIN2D_2000x500" x="205989.71" y="325528.19" transform="scale(-1,1) translate(-411979.42,0) rotate(-180,205989.71,325528.19)">.<g class="blkclass0"><text transform="translate(-600,-376.25)" font-size="386.75">WC2024</text></g></use>
          <use xlink:href="#$TCHSYS$WIN2D_2000x500" x="256789.71" y="325528.19" transform="scale(1,-1) translate(0,-651056.38) rotate(-180,256789.71,325528.19)">.<g class="blkclass0"><text transform="translate(-600,-376.25)" font-size="386.75">WC2024</text></g></use>
          <use xlink:href="#$TCHSYS$WIN2D_2000x500" x="253189.71" y="325528.19" transform="scale(1,-1) translate(0,-651056.38) rotate(-180,253189.71,325528.19)">.<g class="blkclass0"><text transform="translate(-600,-376.25)" font-size="386.75">WC2024</text></g></use>
          <use xlink:href="#$TCHSYS$WIN2D_2000x500" x="249589.71" y="325528.19" transform="rotate(-180,249589.71,325528.19)">.<g class="blkclass0"><text transform="translate(-600,-376.25)" font-size="386.75">WC2024</text></g></use>
          <use xlink:href="#$TCHSYS$WIN2D_2000x500" x="245989.71" y="325528.19" transform="rotate(-180,245989.71,325528.19)">.<g class="blkclass0"><text transform="translate(-600,-376.25)" font-size="386.75">WC2024</text></g></use>
          <use xlink:href="#$TCHSYS$WIN2D_2000x500" x="242389.71" y="325528.19" transform="rotate(-180,242389.71,325528.19)">.<g class="blkclass0"><text transform="translate(-600,-376.25)" font-size="386.75">WC2024</text></g></use>
          <use xlink:href="#$TCHSYS$WIN2D_2000x500" x="238789.71" y="325528.19" transform="rotate(-180,238789.71,325528.19)">.<g class="blkclass0"><text transform="translate(-600,-376.25)" font-size="386.75">WC2024</text></g></use>
          <use xlink:href="#$TCHSYS$WIN2D_2000x500" x="235189.71" y="325528.19" transform="rotate(-180,235189.71,325528.19)">.<g class="blkclass0"><text transform="translate(-600,-376.25)" font-size="386.75">WC2024</text></g></use>
          <use xlink:href="#$TCHSYS$WIN2D_2000x500" x="231589.71" y="325528.19" transform="rotate(-180,231589.71,325528.19)">.<g class="blkclass0"><text transform="translate(-600,-376.25)" font-size="386.75">WC2024</text></g></use>
          <use xlink:href="#$TCHSYS$WIN2D_2000x500" x="227989.71" y="325528.19" transform="scale(-1,1) translate(-455979.42,0) rotate(-180,227989.71,325528.19)">.<g class="blkclass0"><text transform="translate(-600,-376.25)" font-size="386.75">WC2024</text></g></use>
          <use xlink:href="#$TCHSYS$WIN2D_2000x500" x="224389.71" y="325528.19" transform="scale(-1,1) translate(-448779.42,0) rotate(-180,224389.71,325528.19)">.<g class="blkclass0"><text transform="translate(-600,-376.25)" font-size="386.75">WC2024</text></g></use>
          <use xlink:href="#$TCHSYS$WIN2D_2000x500" x="264389.71" y="325528.19" transform="rotate(-180,264389.71,325528.19)">.<g class="blkclass0"><text transform="rotate(0 -600,-376.25) translate(-600,-376.25)" font-size="386.75">WC2024</text></g></use>
          <use xlink:href="#$TCHSYS$WIN2D_2000x500" x="209989.71" y="325528.19" transform="scale(-1,1) translate(-419979.42,0) rotate(-180,209989.71,325528.19)">.<g class="blkclass0"><text transform="translate(-600,-376.25)" font-size="386.75">WC2024</text></g></use>
          <use xlink:href="#$TCHSYS$WIN2D_2000x500" x="220789.71" y="325528.19" transform="scale(-1,1) translate(-441579.42,0) rotate(-180,220789.71,325528.19)">.<g class="blkclass0"><text transform="translate(-600,-376.25)" font-size="386.75">WC2024</text></g></use>
          <use xlink:href="#$TCHSYS$WIN2D_2000x500" x="217189.71" y="325528.19" transform="scale(-1,1) translate(-434379.42,0) rotate(-180,217189.71,325528.19)">.<g class="blkclass0"><text transform="translate(-600,-376.25)" font-size="386.75">WC2024</text></g></use>
          <use xlink:href="#$TCHSYS$WIN2D_2000x500" x="213589.71" y="325528.19" transform="scale(-1,1) translate(-427179.42,0) rotate(-180,213589.71,325528.19)">.<g class="blkclass0"><text transform="translate(-600,-376.25)" font-size="386.75">WC2024</text></g></use>
          <use xlink:href="#$TCHSYS$WIN2D_2000x500" x="201989.71" y="325528.19" transform="scale(-1,1) translate(-403979.42,0) rotate(-180,201989.71,325528.19)">.<g class="blkclass0"><text transform="translate(-600,-376.25)" font-size="386.75">WC2024</text></g></use>
          <use xlink:href="#$TCHSYS$WIN2D_1800x500" x="275249.71" y="313528.19" transform="scale(1,-1) translate(0,-627056.38) rotate(-180,275249.71,313528.19)">.<g class="blkclass0"><text transform="translate(-531.68,-460.53)" font-size="386.75">WC1824</text></g></use>
          <use xlink:href="#$TCHSYS$WIN2D_1800x500" x="272329.71" y="313528.19" transform="scale(-1,-1) translate(-544659.42,-627056.38) rotate(-180,272329.71,313528.19)">.<g class="blkclass0"><text transform="translate(-613.76,-557.78)" font-size="386.75">WC1824</text></g></use>
          <use xlink:href="#$TCHSYS$WIN2D_1500x500" x="199124.71" y="317828.19" transform="scale(1,-1) translate(0,-635656.38) rotate(-180,199124.71,317828.19)">.<g class="blkclass0"><text transform="translate(-580,-447.15)" font-size="386.75">WC1524</text></g></use>
          <use xlink:href="#$TCHSYS$WIN2D_1800x500" x="194274.71" y="317828.19" transform="scale(-1,-1) translate(-388549.42,-635656.38) rotate(-180,194274.71,317828.19)">.<g class="blkclass0"><text transform="translate(-580,-410.77)" font-size="386.75">WC1824</text></g></use>
          <use xlink:href="#$TCHSYS$WIN2D_2000x500" x="200429.71" y="320178.19" transform="scale(-1,1) translate(-400859.42,0) rotate(-270,200429.71,320178.19)">.<g class="blkclass0"><text transform="rotate(-270 376.25,-600) translate(376.25,-600)" font-size="386.75">WC2024</text></g></use>
          <use xlink:href="#$TCHSYS$WIN2D_2000x500" x="200429.71" y="323378.19" transform="scale(-1,1) translate(-400859.42,0) rotate(-270,200429.71,323378.19)">.<g class="blkclass0"><text transform="rotate(-270 376.25,-600) translate(376.25,-600)" font-size="386.75">WC2024</text></g></use>
          <use xlink:href="#$DorLib2D$00000001" x="278.48" y="334.643" transform="scale(1000,1000) scale(-1,1) translate(-556.96,0) rotate(-180,278.48,334.64)" stroke-width="0.0001%">.<g class="blkclass0"><text transform="translate(-470,-316.25)" font-size="386.75">M1027</text></g></use>
          <use xlink:href="#$DorLib2D$00000001" x="260.48" y="334.643" transform="scale(1000,1000) scale(-1,1) translate(-520.96,0) rotate(-180,260.48,334.64)" stroke-width="0.0001%">.<g class="blkclass0"><text transform="translate(-470,-316.25)" font-size="386.75">M1027</text></g></use>
          <use xlink:href="#$DorLib2D$00000001" x="256.88" y="334.643" transform="scale(1000,1000) scale(-1,1) translate(-513.76,0) rotate(-180,256.88,334.64)" stroke-width="0.0001%">.<g class="blkclass0"><text transform="translate(-470,-316.25)" font-size="386.75">M1027</text></g></use>
          <use xlink:href="#$DorLib2D$00000001" x="248.73" y="334.643" transform="scale(1000,1000) rotate(-180,248.73,334.64)" stroke-width="0.0001%">.<g class="blkclass0"><text transform="translate(-470,-316.25)" font-size="386.75">M1027</text></g></use>
          <use xlink:href="#$DorLib2D$00000001" x="205.08" y="334.643" transform="scale(1000,1000) scale(-1,1) translate(-410.16,0) rotate(-180,205.08,334.64)" stroke-width="0.0001%">.<g class="blkclass0"><text transform="translate(-470,-316.25)" font-size="386.75">M1027</text></g></use>
          <use xlink:href="#$DorLib2D$00000002" x="164.996" y="278.869" transform="scale(1200,1200) rotate(-180,165,278.87)" stroke-width="0.0001%">.<g class="blkclass1"><text transform="translate(-376,-253)" font-size="309.4">M1227</text></g></use>
          <use xlink:href="#$DorLib2D$00000001" x="296.7" y="368.759" transform="scale(900,900) scale(1,-1) translate(0,-737.52) rotate(-180,296.7,368.76)" stroke-width="0.0001%">.<g class="blkclass0"><text transform="translate(-490,613.75)" font-size="386.75">M0927</text></g></use>
          <use xlink:href="#$DorLib2D$00000001" x="256.88" y="331.883" transform="scale(1000,1000) scale(-1,-1) translate(-513.76,-663.77) rotate(-180,256.88,331.88)" stroke-width="0.0001%">.<g class="blkclass0"><text transform="translate(-470,613.75)" font-size="386.75">M1027</text></g></use>
          <use xlink:href="#$DorLib2D$00000002" x="166.799" y="221.255" transform="scale(1500,1500) scale(1,-1) translate(0,-442.51) rotate(-180,166.8,221.26)" stroke-width="0.0001%">.<g class="blkclass0"><text transform="translate(-470,803.75)" font-size="386.75">M1527</text></g></use>
          <use xlink:href="#$DorLib2D$00000001" x="253.322" y="368.759" transform="scale(900,900) scale(1,-1) translate(0,-737.52) rotate(-180,253.32,368.76)" stroke-width="0.0001%">.<g class="blkclass0"><text transform="translate(-490,613.75)" font-size="386.75">M0927</text></g></use>
          <use xlink:href="#$DorLib2D$00000001" x="266.166" y="368.759" transform="scale(900,900) scale(-1,-1) translate(-532.33,-737.52) rotate(-180,266.17,368.76)" stroke-width="0.0001%">.<g class="blkclass0"><text transform="translate(-490,613.75)" font-size="386.75">M0927</text></g></use>
          <use xlink:href="#$DorLib2D$00000001" x="274.333" y="368.759" transform="scale(900,900) scale(-1,-1) translate(-548.67,-737.52) rotate(-180,274.33,368.76)" stroke-width="0.0001%">.<g class="blkclass0"><text transform="translate(-490,613.75)" font-size="386.75">M0927</text></g></use>
          <use xlink:href="#$DorLib2D$00000001" x="249.433" y="368.759" transform="scale(900,900) scale(1,-1) translate(0,-737.52) rotate(-180,249.43,368.76)" stroke-width="0.0001%">.<g class="blkclass0"><text transform="translate(-490,613.75)" font-size="386.75">M0927</text></g></use>
          <use xlink:href="#$DorLib2D$00000001" x="293.766" y="368.759" transform="scale(900,900) scale(-1,-1) translate(-587.53,-737.52) rotate(-180,293.77,368.76)" stroke-width="0.0001%">.<g class="blkclass0"><text transform="translate(-490,613.75)" font-size="386.75">M0927</text></g></use>
          <use xlink:href="#$DorLib2D$00000002" x="142.153" y="221.255" transform="scale(1500,1500) scale(-1,-1) translate(-284.31,-442.51) rotate(-180,142.15,221.26)" stroke-width="0.0001%">.<g class="blkclass0"><text transform="translate(-470,613.75)" font-size="386.75">M1527</text></g></use>
          <use xlink:href="#$DorLib2D$00000002" x="174.766" y="278.869" transform="scale(1200,1200) scale(-1,1) translate(-349.53,0) rotate(-180,174.77,278.87)" stroke-width="0.0001%">.<g class="blkclass1"><text transform="translate(-376,-253)" font-size="309.4">M1227</text></g></use>
          <use xlink:href="#$DorLib2D$00000002" x="184.466" y="278.869" transform="scale(1200,1200) rotate(-180,184.47,278.87)" stroke-width="0.0001%">.<g class="blkclass1"><text transform="translate(-376,-253)" font-size="309.4">M1227</text></g></use>
          <use xlink:href="#$DorLib2D$00000001" x="246.41" y="334.643" transform="scale(1000,1000) rotate(-180,246.41,334.64)" stroke-width="0.0001%">.<g class="blkclass0"><text transform="translate(-470,-316.25)" font-size="386.75">M1027</text></g></use>
          <use xlink:href="#$DorLib2D$00000001" x="249.483" y="371.826" transform="scale(900,900) scale(-1,1) translate(-498.97,0) rotate(-180,249.48,371.83)" stroke-width="0.0001%">.<g class="blkclass0"><text transform="translate(-490,-316.25)" font-size="386.75">M0927</text></g></use>
          <use xlink:href="#$DorLib2D$00000001" x="253.483" y="371.826" transform="scale(900,900) scale(-1,1) translate(-506.97,0) rotate(-180,253.48,371.83)" stroke-width="0.0001%">.<g class="blkclass0"><text transform="translate(-490,-316.25)" font-size="386.75">M0927</text></g></use>
          <use xlink:href="#$DorLib2D$00000001" x="257.483" y="371.826" transform="scale(900,900) scale(-1,1) translate(-514.97,0) rotate(-180,257.48,371.83)" stroke-width="0.0001%">.<g class="blkclass0"><text transform="translate(-490,-316.25)" font-size="386.75">M0927</text></g></use>
          <use xlink:href="#$DorLib2D$00000001" x="246.055" y="368.759" transform="scale(900,900) scale(-1,-1) translate(-492.11,-737.52) rotate(-180,246.06,368.76)" stroke-width="0.0001%">.<g class="blkclass0"><text transform="translate(-490,613.75)" font-size="386.75">M0927</text></g></use>
          <use xlink:href="#$DorLib2D$00000001" x="227.266" y="368.759" transform="scale(900,900) scale(-1,1) translate(-454.53,0)" stroke-width="0.0001%">.<g class="blkclass0"><text transform="translate(-490,423.75)" font-size="386.75">M0927</text></g></use>
          <use xlink:href="#$DorLib2D$00000001" x="224.733" y="368.759" transform="scale(900,900)" stroke-width="0.0001%">.<g class="blkclass0"><text transform="translate(-490,423.75)" font-size="386.75">M0927</text></g></use>
          <use xlink:href="#$DorLib2D$00000001" x="264.425" y="334.643" transform="scale(1000,1000) rotate(-180,264.43,334.64)" stroke-width="0.0001%">.<g class="blkclass0"><text transform="translate(-470,-316.25)" font-size="386.75">M1027</text></g></use>
          <use xlink:href="#$DorLib2D$00000001" x="273.39" y="315.193" transform="scale(1000,1000) scale(-1,1) translate(-546.78,0) rotate(-90,273.39,315.19)" stroke-width="0.0001%">.<g class="blkclass0"><text transform="rotate(-270 -682.8,-489.01) translate(-682.8,-489.01)" font-size="386.75">M1021</text></g></use>
          <use xlink:href="#$DorLib2D$00000001" x="273.39" y="322.843" transform="scale(1000,1000) scale(-1,1) translate(-546.78,0) rotate(-90,273.39,322.84)" stroke-width="0.0001%">.<g class="blkclass0"><text transform="rotate(-270 -682.8,-489.01) translate(-682.8,-489.01)" font-size="386.75">M1021</text></g></use>
          <use xlink:href="#$DorLib2D$00000002" x="227.825" y="267.619" transform="scale(1200,1200) rotate(-270,227.82,267.62)" stroke-width="0.0001%">.<g class="blkclass1"><text transform="rotate(-90 -388.42,376) translate(-388.42,376)" font-size="309.4">M1221</text></g></use>
          <use xlink:href="#$DorLib2D$00000002" x="132.853" y="220.912" transform="scale(1500,1500) scale(1,-1) translate(0,-441.82) rotate(-180,132.85,220.91)" stroke-width="0.0001%">.<g class="blkclass0"><text transform="rotate(-360 -470,553.75) translate(-470,553.75)" font-size="386.75">M1527</text></g></use>
          <use xlink:href="#$DorLib2D$00000001" x="271.322" y="372.87" transform="scale(900,900) rotate(-90,271.32,372.87)" stroke-width="0.0001%">.<g class="blkclass0"><text transform="rotate(-270 316.25,-490) translate(316.25,-490)" font-size="386.75">M0921</text></g></use>
          <use xlink:href="#$DorLib2D$00000002" x="154.593" y="221.255" transform="scale(1500,1500) scale(1,-1) translate(0,-442.51) rotate(-180,154.59,221.26)" stroke-width="0.0001%">.<g class="blkclass0"><text transform="translate(-470,803.75)" font-size="386.75">M1527</text></g></use>
          <use xlink:href="#$DorLib2D$00000002" x="143.195" y="171.339" transform="scale(1900,1900) scale(1,-1) translate(0,-342.68) rotate(-180,143.19,171.34)" stroke-width="0%">.<g class="blkclass2"><text transform="translate(-595.33,777.42)" font-size="489.883">M1827</text></g></use>
          <use xlink:href="#$DorLib2D$00000001" x="273.34" y="330.793" transform="scale(1000,1000) rotate(-270,273.34,330.79)" stroke-width="0.0001%">.<g class="blkclass0"><text transform="rotate(-270 -613.75,-470) translate(-613.75,-470)" font-size="386.75">M1027</text></g></use>
          <path d="M239809.71,334438.19l0,380" />
          <path d="M238809.71,334818.19l0,-380" />
          <use xlink:href="#$DorLib2D$00000001" x="239.31" y="334.643" transform="scale(1000,1000) rotate(-180,239.31,334.64)" stroke-width="0.0001%">.<g class="blkclass0"><text transform="translate(-470,-316.25)" font-size="386.75">M1027</text></g></use>
          <path d="M238809.71,334438.19l-200,0" />
        </g>
        <g id="layer-RM" class="rm">
          <path d="M190899.71,318078.19l0,3380" />
          <path d="M190899.71,318078.19l0,3380l800,0" />
        </g>
      </g>
      <g id="assets" fill="none">
        <g id="rm-assets" class="rm-asset">
          <path id="15009;F05;502" d="M268099.71,313778.19l11380,0l0,11500l-11380,0z" />
          <path id="15009;F05;514" d="M190899.71,318078.19l0,3380l800,0l0,9820l8480,0l0,-13200z" />
          <path id="15009;F05;527-528" d="M262969.71,334818.19l0,6640l16510,0l0,-6640z" />
          <path id="15009;F05;515-516" d="M207409.71,334818.19l0,6640l-16510,0l0,-3440l800,0l0,-3200z" />
          <path id="15009;F05;506-508" d="M226279.71,325778.19l0,5900l14220,0l0,-5900z" />
          <path id="15009;F05;510-511" d="M211979.71,325778.19l0,5900l10420,0l0,-5900z" />
          <path id="15009;F05;522" d="M233479.71,334818.19l7020,0l0,6140l-7020,0z" />
          <path id="15009;F05;518" d="M215464.71,334818.19l0,6140l6935,0l0,-6140z" />
          <path id="15009;F05;523" d="M240679.71,334818.19l0,6140l6920,0l0,-6140l-3335,0" />
          <path id="15009;F05;524" d="M247979.71,334818.19l0,6140l6920,0l0,-6140z" />
          <path id="15009;F05;517" d="M208569.71,334818.19l0,6140l6745,0l0,-6140z" />
          <path id="15009;F05;504" d="M247979.71,325778.19l0,5900l6950,0l-15,-5900z" />
          <path id="15009;F05;505" d="M240679.71,325778.19l6920,0l0,5900l-6920,0z" />
          <path id="15009;F05;501" d="M273579.71,325778.19l0,5900l5900,0l0,-5900z" />
          <path id="15009;F05;512" d="M203589.71,325778.19l0,5900l3820,0l0,-5900z" />
          <path id="15009;F05;521" d="M229879.71,334818.19l0,6140l3420,0l0,-6140z" />
          <path id="15009;F05;525" d="M255079.71,334818.19l0,6140l3420,0l0,-6140z" />
          <path id="15009;F05;520" d="M226279.71,334818.19l0,6140l3420,0l0,-6140z" />
          <path id="15009;F05;519" d="M222779.71,334818.19l0,6140l3320,0l0,-6140z" />
          <path id="15009;F05;503" d="M255064.71,325778.19l0,5900l3335,0l0,-5900z" />
          <path id="15009;F05;509" d="M222779.71,325778.19l0,5900l3320,0l0,-5900z" />
          <path id="15009;F05;526" d="M258679.71,334818.19l0,6140l3130,0l0,-6140z" />
          <path id="15009;F05;513" d="M200559.71,325778.19l0,5900l2650,0l0,-5900z" />
        </g>
      </g>
    </g>
    <g id="text" font-family="Arial" font-size="438.86524822695031" font-weight="normal" text-style="normal" text-anchor="start" dominant-baseline="alphabetical" fill="#FF7F00" xml:space="preserve">
      <g id="layer-body-text">
        <g transform="translate(209160.72,330398.19)">
          <text>上</text>
        </g>
        <g transform="translate(210727.58,330398.19)">
          <text>下</text>
        </g>
        <g transform="translate(260935.72,330398.19)">
          <text>上</text>
        </g>
        <g transform="translate(259372.58,330398.19)">
          <text>下</text>
        </g>
        <g transform="translate(209160.72,330398.19)">
          <text>上</text>
        </g>
        <g transform="translate(210727.58,330398.19)">
          <text>下</text>
        </g>
        <g transform="translate(260935.72,330398.19)">
          <text>上</text>
        </g>
        <g transform="translate(259372.58,330398.19)">
          <text>下</text>
        </g>
        <g transform="translate(209160.72,330398.19)">
          <text>上</text>
        </g>
        <g transform="translate(210727.58,330398.19)">
          <text>下</text>
        </g>
        <g transform="translate(260935.72,330398.19)">
          <text>上</text>
        </g>
        <g transform="translate(259372.58,330398.19)">
          <text>下</text>
        </g>
        <g transform="translate(209160.72,330398.19)">
          <text>上</text>
        </g>
        <g transform="translate(210727.58,330398.19)">
          <text>下</text>
        </g>
        <g transform="translate(260935.72,330398.19)">
          <text>上</text>
        </g>
        <g transform="translate(259372.58,330398.19)">
          <text>下</text>
        </g>
        <g transform="translate(209160.72,330398.19)">
          <text>上</text>
        </g>
        <g transform="translate(210727.58,330398.19)">
          <text>下</text>
        </g>
        <g transform="translate(260935.72,330398.19)">
          <text>上</text>
        </g>
        <g transform="translate(259372.58,330398.19)">
          <text>下</text>
        </g>
      </g>
    </g>
    <g id="asset-labels" font-family="Arial" font-weight="bold" font-size="38.1em" text-anchor="middle">
      <g id="rm-labels">
        <g id="l-rm-15009;F05;502" transform="translate(273789.71,319528.19)">
          <text>502</text>
        </g>
        <g id="l-rm-15009;F05;514" transform="translate(195539.71,324678.19)">
          <text>514</text>
        </g>
        <g id="l-rm-15009;F05;527-528" transform="translate(271224.71,338138.19)">
          <text>527-528</text>
        </g>
        <g id="l-rm-15009;F05;515-516" transform="translate(199154.71,338138.19)">
          <text>515-516</text>
        </g>
        <g id="l-rm-15009;F05;506-508" transform="translate(235189.71,328728.19)">
          <text>506-508</text>
        </g>
        <g id="l-rm-15009;F05;510-511" transform="translate(217189.71,328728.19)">
          <text>510-511</text>
        </g>
        <g id="l-rm-15009;F05;522" transform="translate(236989.71,337888.19)">
          <text>522</text>
        </g>
        <g id="l-rm-15009;F05;518" transform="translate(218932.21,337888.19)">
          <text>518</text>
        </g>
        <g id="l-rm-15009;F05;523" transform="translate(245932.21,337888.19)">
          <text>523</text>
        </g>
        <g id="l-rm-15009;F05;524" transform="translate(251439.71,337888.19)">
          <text>524</text>
        </g>
        <g id="l-rm-15009;F05;517" transform="translate(211942.21,337888.19)">
          <text>517</text>
        </g>
        <g id="l-rm-15009;F05;504" transform="translate(251454.71,328728.19)">
          <text>504</text>
        </g>
        <g id="l-rm-15009;F05;505" transform="translate(244139.71,328728.19)">
          <text>505</text>
        </g>
        <g id="l-rm-15009;F05;501" transform="translate(276529.71,328728.19)">
          <text>501</text>
        </g>
        <g id="l-rm-15009;F05;512" transform="translate(205499.71,328728.19)">
          <text>512</text>
        </g>
        <g id="l-rm-15009;F05;521" transform="translate(231589.71,337888.19)">
          <text>521</text>
        </g>
        <g id="l-rm-15009;F05;525" transform="translate(256789.71,337888.19)">
          <text>525</text>
        </g>
        <g id="l-rm-15009;F05;520" transform="translate(227989.71,337888.19)">
          <text>520</text>
        </g>
        <g id="l-rm-15009;F05;519" transform="translate(224439.71,337888.19)">
          <text>519</text>
        </g>
        <g id="l-rm-15009;F05;503" transform="translate(256732.21,328728.19)">
          <text>503</text>
        </g>
        <g id="l-rm-15009;F05;509" transform="translate(224439.71,328728.19)">
          <text>509</text>
        </g>
        <g id="l-rm-15009;F05;526" transform="translate(260244.71,337888.19)">
          <text>526</text>
        </g>
        <g id="l-rm-15009;F05;513" transform="translate(201884.71,328728.19)">
          <text>513</text>
        </g>
      </g>
    </g>
  </g>
</svg>