<svg version="1.1" xmlns="http://www.w3.org/2000/svg" xmlns:xlink="http://www.w3.org/1999/xlink" viewBox="190399.32 161674.2 103566 29754">
  <style>.i0 { stroke:#000000;   } .body { stroke:#ff7f00; stroke-width:0.17145%;  } .rm { stroke:#00ffff;   } .pub_wall { stroke:#c0c0c0;   } .rm-asset { stroke:#0000ff;   fill:#EEEEEE; fill-opacity:1;} .rmtc-asset { stroke:#0000ff;   } .rmtc { stroke:#00ffff;   } .rm-assettxt { stroke:#0000ff;   } .rmtc-assettxt { stroke:#0000ff;   } .cnc-0 { stroke:#ff7f00;  stroke-dasharray:0; fill:#cccccc; fill-opacity:1;} .cnc-1 { stroke:#ff7f00;  stroke-dasharray:0; } .cnc-2 { stroke:#ff7f00;  stroke-dasharray:0; } .blkclass0 { stroke:#ff7f00;  stroke-width:0.02;  fill:#ff7f00; fill-opacity:1; font-family:Arial; font-size:386.75; font-weight:normal; text-style:normal; text-anchor:start;} .blkclass1 { stroke:#ff7f00;  stroke-width:0.02;  fill:#ff7f00; fill-opacity:1; font-family:Arial; font-size:489.883; font-weight:normal; text-style:normal; text-anchor:start;} .blkclass2 { stroke:#ff7f00;  stroke-width:0.02;  fill:#ff7f00; fill-opacity:1; font-family:Arial; font-size:309.4; font-weight:normal; text-style:normal; text-anchor:start;}</style>
  <view id="defaultView" viewBox="190399.32 161674.2 103566 29754" />
  <defs>
    <symbol id="$DorLib2D$00000001" overflow="visible" class="i0">
      <path d="M0.45,-0.98l0.05,0" />
      <path d="M0.5,0l-0.05,0" />
      <path d="M-0.5,0a0.98,0.98 0 0,1 0.95,-0.97" />
      <path d="M0.5,0l0,-0.98" />
      <path d="M0.45,0l0,-0.98" />
    </symbol>
    <symbol id="$TCHSYS$WIN2D_1800x500" overflow="visible" class="i0">
      <path d="M-900,-250l1800,0" />
      <path d="M-900,250l1800,0" />
      <path d="M900,83.33l-1800,0" />
      <path d="M900,-83.33l-1800,0" />
      <path d="M-900,-250l0,500" />
      <path d="M900,-250l0,500" />
    </symbol>
    <symbol id="$TCHSYS$WIN2D_2000x500" overflow="visible" class="i0">
      <path d="M-1000,-250l2000,0" />
      <path d="M-1000,250l2000,0" />
      <path d="M1000,83.33l-2000,0" />
      <path d="M1000,-83.33l-2000,0" />
      <path d="M-1000,-250l0,500" />
      <path d="M1000,-250l0,500" />
    </symbol>
    <symbol id="$TCHSYS$WIN2D_1500x500" overflow="visible" class="i0">
      <path d="M-750,-250l1500,0" />
      <path d="M-750,250l1500,0" />
      <path d="M750,83.33l-1500,0" />
      <path d="M750,-83.33l-1500,0" />
      <path d="M-750,-250l0,500" />
      <path d="M750,-250l0,500" />
    </symbol>
    <symbol id="$DorLib2D$00000002" overflow="visible" class="i0">
      <path d="M-0.5,0l0,-0.49" />
      <path d="M-0.48,0l0,-0.49" />
      <path d="M-0.5,0l0.02,0" />
      <path d="M-0.48,-0.49l-0.02,0" />
      <path d="M-0.48,-0.49a0.49,0.49 0 0,1 0.48,0.49" />
      <path d="M0,0a0.49,0.49 0 0,1 0.48,-0.49" />
      <path d="M0.48,0l0,-0.49" />
      <path d="M0.5,0l0,-0.49" />
      <path d="M0.48,-0.49l0.02,0" />
      <path d="M0.5,0l-0.02,0" />
    </symbol>
  </defs>
  <g id="viewer">
    <g id="mirror" transform="scale(1, 1)" stroke-width="0.09%">
      <g id="background" fill="none">
        <g id="layer-body-fills" class="cnc-0">
          <path d="M267109.71,190378.43l0,-5340l-120,0l0,5340l120,0z" />
          <path d="M271059.71,163082.65l0,-384.22l-120,0l0,384.22l120,0z" />
          <path d="M270959.71,163082.65l0,-40l10,-10l60,0l10,10l0,40z" />
          <path d="M271059.71,174198.43l0,-604.67l-120,0l0,604.67l120,0z" />
          <path d="M270959.71,174198.43l0,-70l10,-10l60,0l10,10l0,70z" />
          <path d="M270959.71,173593.75l0,70l10,10l60,0l10,-10l0,-70z" />
          <path d="M268099.71,168348.43l40,0l10,10l0,60l-10,10l-40,0z" />
          <path d="M270939.71,168328.43l-2840,0l0,120l2840,0l0,4145.33l120,0l0,-8511.1l-120,0l0,4245.78z" />
          <path d="M270959.71,172593.75l0,-40l10,-10l60,0l10,10l0,40z" />
          <path d="M270959.71,164082.65l0,40l10,10l60,0l10,-10l0,-40z" />
          <path d="M271029.71,168428.43l-60,0l-10,-10l0,-60l10,-10l60,0l10,10l0,60z" />
          <path d="M270959.71,162698.43l0,40l10,10l60,0l10,-10l0,-40z" />
          <path d="M200179.71,180108.43l-370,0l0,240l370,0z" />
          <path d="M202629.71,186948.98l120,0l0,900l-120,0z" />
          <path d="M267109.71,184038.43l0,-300l-120,0l0,300l120,0z" />
          <path d="M267009.71,183738.43l0,30l10,10l60,0l10,-10l0,-30z" />
          <path d="M267009.71,184038.43l0,-30l10,-10l60,0l10,10l0,30z" />
          <path d="M267009.71,185038.43l0,40l10,10l60,0l10,-10l0,-40z" />
          <path d="M267079.71,190378.43l-60,0l-10,0l0,-40l10,-10l60,0l10,10l0,40z" />
          <path d="M236899.71,185738.49l180,0l0,180l-180,0z" />
          <path d="M236899.71,184558.49l180,0l0,180l-180,0z" />
          <path d="M202629.71,186948.98l120,0l0,900l-120,0z" />
          <path d="M267079.71,185978.43l-60,0l-10,-10l0,-60l10,-10l60,0l10,10l0,60z" />
          <path d="M267079.71,187778.43l-60,0l-10,-10l0,-60l10,-10l60,0l10,10l0,60z" />
          <path d="M267079.71,188678.43l-60,0l-10,-10l0,-60l10,-10l60,0l10,10l0,60z" />
          <path d="M267079.71,186878.43l-60,0l-10,-10l0,-60l10,-10l60,0l10,10l0,60z" />
          <path d="M267079.71,189578.43l-60,0l-10,-10l0,-60l10,-10l60,0l10,10l0,60z" />
          <path d="M270019.71,168428.43l-60,0l-10,-10l0,-60l10,-10l60,0l10,10l0,60z" />
          <path d="M269119.71,168428.43l-60,0l-10,-10l0,-60l10,-10l60,0l10,10l0,60z" />
          <path d="M271029.71,169328.43l-60,0l-10,-10l0,-60l10,-10l60,0l10,10l0,60z" />
          <path d="M271029.71,170228.43l-60,0l-10,-10l0,-60l10,-10l60,0l10,10l0,60z" />
          <path d="M271029.71,171128.43l-60,0l-10,-10l0,-60l10,-10l60,0l10,10l0,60z" />
          <path d="M271029.71,172028.43l-60,0l-10,-10l0,-60l10,-10l60,0l10,10l0,60z" />
          <path d="M271029.71,167528.43l-60,0l-10,-10l0,-60l10,-10l60,0l10,10l0,60z" />
          <path d="M271029.71,166628.43l-60,0l-10,-10l0,-60l10,-10l60,0l10,10l0,60z" />
          <path d="M271029.71,165728.43l-60,0l-10,-10l0,-60l10,-10l60,0l10,10l0,60z" />
          <path d="M271029.71,164828.43l-60,0l-10,-10l0,-60l10,-10l60,0l10,10l0,60z" />
          <path d="M211829.71,174698.43l150,0l0,1000l-150,0z" />
          <path d="M208419.71,189878.43l150,0l0,-500l-150,0z" />
          <path d="M207979.71,180978.43l-380,0l0,260l380,0z" />
          <path d="M207979.71,183098.43l-380,0l0,260l380,0z" />
          <path d="M222779.71,180978.43l-380,0l0,260l380,0z" />
          <path d="M222779.71,183098.43l-380,0l0,260l380,0z" />
          <path d="M229979.71,180978.43l-380,0l0,260l380,0z" />
          <path d="M229979.71,183098.43l-380,0l0,260l380,0z" />
          <path d="M247979.71,180978.43l-380,0l0,260l380,0z" />
          <path d="M247979.71,183098.43l-380,0l0,260l380,0z" />
          <path d="M262379.71,180978.43l-380,0l0,260l380,0z" />
          <path d="M262379.71,183098.43l-380,0l0,260l380,0z" />
          <path d="M254899.71,174698.43l150,0l0,5900l-150,0z" />
        </g>
        <g id="layer-RM-fills" class="rm">
          <path d="M262969.71,174698.43l0,5900l3030,0l0,-5900z" />
          <path d="M266379.71,174698.43l0,5900l4120,0l0,-5900z" />
          <path d="M268099.71,162698.43l0,5610l0,20l2840,0l0,-5630z" />
          <path d="M271059.71,162698.43l0,11500l8420,0l0,-11500z" />
        </g>
        <g id="layer-body" class="cnc-1">
          <path d="M279979.71,162198.43l-3830,0" />
          <path d="M276149.71,162198.43l0,500" />
          <path d="M276149.71,162698.43l3330,0" />
          <path d="M268099.71,162698.43l3330,0" />
          <path d="M271429.71,162698.43l0,-500" />
          <path d="M271429.71,162198.43l-3830,0" />
          <path d="M274349.71,162198.43l-1120,0" />
          <path d="M273229.71,162198.43l0,500" />
          <path d="M273229.71,162698.43l1120,0" />
          <path d="M274349.71,162698.43l0,-500" />
          <path d="M267599.71,162198.43l0,3690" />
          <path d="M267599.71,165888.43l500,0" />
          <path d="M268099.71,165888.43l0,-3190" />
          <path d="M268099.71,167888.43l-500,0" />
          <path d="M267599.71,167888.43l0,75" />
          <path d="M200679.71,166498.43l-805,0" />
          <path d="M199874.71,166498.43l0,500" />
          <path d="M199874.71,166998.43l305,0" />
          <path d="M190899.71,166998.43l2475,0" />
          <path d="M193374.71,166998.43l0,-500" />
          <path d="M193374.71,166498.43l-2975,0" />
          <path d="M198374.71,166498.43l-3200,0" />
          <path d="M195174.71,166498.43l0,500" />
          <path d="M195174.71,166998.43l3200,0" />
          <path d="M198374.71,166998.43l0,-500" />
          <path d="M262969.71,174698.43l0,5900" />
          <path d="M262659.71,174198.43l0,6780" />
          <path d="M279479.71,174698.43l-6000,0" />
          <path d="M279479.71,174198.43l-6380,0" />
          <path d="M261809.71,189878.43l0,-6140" />
          <path d="M262499.71,190378.43l0,-7020" />
          <path d="M207409.71,190378.43l0,-6640" />
          <path d="M208099.71,190878.43l0,-7520" />
          <path d="M190399.71,190878.43l2540,0" />
          <path d="M192939.71,190878.43l0,-500" />
          <path d="M192939.71,190378.43l-2040,0" />
          <path d="M207409.71,190378.43l-1970,0" />
          <path d="M205439.71,190378.43l0,500" />
          <path d="M205439.71,190878.43l2660,0" />
          <path d="M194939.71,190878.43l1500,0" />
          <path d="M196439.71,190878.43l0,-500" />
          <path d="M196439.71,190378.43l-1500,0" />
          <path d="M194939.71,190378.43l0,500" />
          <path d="M198439.71,190878.43l1500,0" />
          <path d="M199939.71,190878.43l0,-500" />
          <path d="M199939.71,190378.43l-1500,0" />
          <path d="M198439.71,190378.43l0,500" />
          <path d="M201939.71,190878.43l1500,0" />
          <path d="M203439.71,190878.43l0,-500" />
          <path d="M203439.71,190378.43l-1500,0" />
          <path d="M201939.71,190378.43l0,500" />
          <path d="M279479.71,183358.43l-6950,0" />
          <path d="M272529.71,183358.43l0,380" />
          <path d="M272529.71,183738.43l6950,0" />
          <path d="M262969.71,183738.43l250,0" />
          <path d="M263219.71,183738.43l0,-380" />
          <path d="M263219.71,183358.43l-560,0" />
          <path d="M271529.71,183358.43l-680,0" />
          <path d="M270849.71,183738.43l680,0" />
          <path d="M271529.71,183738.43l0,-380" />
          <path d="M269849.71,183358.43l-5630,0" />
          <path d="M264219.71,183358.43l0,380" />
          <path d="M264219.71,183738.43l5630,0" />
          <path d="M269849.71,183738.43l1000,0" />
          <path d="M270849.71,183358.43l-1000,0" />
          <path d="M262499.71,183358.43l-1520,0" />
          <path d="M260979.71,183358.43l0,380" />
          <path d="M260979.71,183738.43l830,0" />
          <path d="M247979.71,183738.43l1300,0" />
          <path d="M249279.71,183738.43l0,-380" />
          <path d="M249279.71,183358.43l-1490,0" />
          <path d="M259979.71,183358.43l-2600,0" />
          <path d="M257379.71,183358.43l0,380" />
          <path d="M257379.71,183738.43l2600,0" />
          <path d="M259979.71,183738.43l0,-380" />
          <path d="M256379.71,183358.43l-2600,0" />
          <path d="M253779.71,183358.43l0,380" />
          <path d="M253779.71,183738.43l2600,0" />
          <path d="M256379.71,183738.43l0,-380" />
          <path d="M252779.71,183358.43l-2500,0" />
          <path d="M250279.71,183358.43l0,380" />
          <path d="M250279.71,183738.43l2500,0" />
          <path d="M252779.71,183738.43l0,-380" />
          <path d="M208099.71,183358.43l-940,0" />
          <path d="M207159.71,183358.43l0,380" />
          <path d="M207159.71,183738.43l250,0" />
          <path d="M191699.71,183738.43l2705,0" />
          <path d="M195404.71,183358.43l-3705,0" />
          <path d="M206159.71,183358.43l-4910,0" />
          <path d="M201249.71,183358.43l0,380" />
          <path d="M201249.71,183738.43l4910,0" />
          <path d="M206159.71,183738.43l0,-380" />
          <path d="M200249.71,183358.43l-2475,0" />
          <path d="M197774.71,183358.43l0,380" />
          <path d="M197774.71,183738.43l2475,0" />
          <path d="M200249.71,183738.43l0,-380" />
          <path d="M196574.71,183358.43l-1170,0" />
          <path d="M195404.71,183738.43l1170,0" />
          <path d="M196574.71,183738.43l0,-380" />
          <path d="M270499.71,180598.43l-3020,0" />
          <path d="M267479.71,180598.43l0,380" />
          <path d="M267479.71,180978.43l3400,0" />
          <path d="M266189.71,180978.43l390,0" />
          <path d="M266579.71,180978.43l0,-380" />
          <path d="M266579.71,180598.43l-200,0" />
          <path d="M279979.71,190878.43l0,-4570" />
          <path d="M279979.71,186308.43l-500,0" />
          <path d="M279479.71,186308.43l0,4070" />
          <path d="M279479.71,183738.43l0,570" />
          <path d="M279479.71,184308.43l500,0" />
          <path d="M279979.71,184308.43l0,-760" />
          <path d="M207409.71,180598.43l0,-5900" />
          <path d="M208099.71,180978.43l0,-6780" />
          <path d="M261809.71,180978.43l0,-6280" />
          <path d="M262499.71,180978.43l0,-6780" />
          <path d="M261809.71,180978.43l690,0" />
          <path d="M208569.71,174698.43l0,6280" />
          <path d="M208259.71,174198.43l0,6780" />
          <path d="M208569.71,180978.43l-310,0" />
          <path d="M262499.71,174198.43l-1110,0" />
          <path d="M261389.71,174198.43l0,500" />
          <path d="M261389.71,174698.43l420,0" />
          <path d="M258779.71,174698.43l610,0" />
          <path d="M259389.71,174698.43l0,-500" />
          <path d="M259389.71,174198.43l-800,0" />
          <path d="M208099.71,174198.43l-1110,0" />
          <path d="M206989.71,174198.43l0,500" />
          <path d="M206989.71,174698.43l420,0" />
          <path d="M203589.71,174698.43l1400,0" />
          <path d="M204989.71,174698.43l0,-500" />
          <path d="M204989.71,174198.43l-1590,0" />
          <path d="M190899.71,166998.43l0,3380" />
          <path d="M190399.71,166498.43l0,4380" />
          <path d="M247789.71,190378.43l800,0" />
          <path d="M248589.71,190378.43l0,-500" />
          <path d="M248589.71,189878.43l-610,0" />
          <path d="M261809.71,189878.43l-420,0" />
          <path d="M261389.71,189878.43l0,500" />
          <path d="M261389.71,190378.43l1110,0" />
          <path d="M250589.71,190378.43l1600,0" />
          <path d="M252189.71,190378.43l0,-500" />
          <path d="M252189.71,189878.43l-1600,0" />
          <path d="M250589.71,189878.43l0,500" />
          <path d="M254189.71,190378.43l1600,0" />
          <path d="M255789.71,190378.43l0,-500" />
          <path d="M255789.71,189878.43l-1600,0" />
          <path d="M254189.71,189878.43l0,500" />
          <path d="M257789.71,190378.43l1600,0" />
          <path d="M259389.71,190378.43l0,-500" />
          <path d="M259389.71,189878.43l-1600,0" />
          <path d="M257789.71,189878.43l0,500" />
          <path d="M258399.71,180598.43l-1020,0" />
          <path d="M257379.71,180598.43l0,380" />
          <path d="M257379.71,180978.43l1400,0" />
          <path d="M251389.71,180978.43l1390,0" />
          <path d="M252779.71,180978.43l0,-380" />
          <path d="M252779.71,180598.43l-1200,0" />
          <path d="M256379.71,180598.43l-2600,0" />
          <path d="M253779.71,180598.43l0,380" />
          <path d="M253779.71,180978.43l2600,0" />
          <path d="M256379.71,180978.43l0,-380" />
          <path d="M258589.71,174198.43l-800,0" />
          <path d="M257789.71,174198.43l0,500" />
          <path d="M257789.71,174698.43l610,0" />
          <path d="M251579.71,174698.43l610,0" />
          <path d="M252189.71,174698.43l0,-500" />
          <path d="M252189.71,174198.43l-800,0" />
          <path d="M255789.71,174198.43l-1600,0" />
          <path d="M254189.71,174198.43l0,500" />
          <path d="M254189.71,174698.43l1600,0" />
          <path d="M255789.71,174698.43l0,-500" />
          <path d="M258399.71,180598.43l0,-5900" />
          <path d="M258779.71,180978.43l0,-6280" />
          <path d="M262659.71,190878.43l2280,0" />
          <path d="M264939.71,190878.43l0,-500" />
          <path d="M264939.71,190378.43l-1970,0" />
          <path d="M279479.71,190378.43l-2040,0" />
          <path d="M277439.71,190378.43l0,500" />
          <path d="M277439.71,190878.43l2540,0" />
          <path d="M266939.71,190878.43l1500,0" />
          <path d="M268439.71,190878.43l0,-500" />
          <path d="M268439.71,190378.43l-1500,0" />
          <path d="M266939.71,190378.43l0,500" />
          <path d="M270439.71,190878.43l1500,0" />
          <path d="M271939.71,190878.43l0,-500" />
          <path d="M271939.71,190378.43l-1500,0" />
          <path d="M270439.71,190378.43l0,500" />
          <path d="M273939.71,190878.43l1500,0" />
          <path d="M275439.71,190878.43l0,-500" />
          <path d="M275439.71,190378.43l-1500,0" />
          <path d="M273939.71,190378.43l0,500" />
          <path d="M222589.71,190378.43l800,0" />
          <path d="M223389.71,190378.43l0,-500" />
          <path d="M223389.71,189878.43l-610,0" />
          <path d="M247599.71,189878.43l-610,0" />
          <path d="M246989.71,189878.43l0,500" />
          <path d="M246989.71,190378.43l800,0" />
          <path d="M225389.71,190378.43l1600,0" />
          <path d="M226989.71,190378.43l0,-500" />
          <path d="M226989.71,189878.43l-1600,0" />
          <path d="M225389.71,189878.43l0,500" />
          <path d="M228989.71,190378.43l1600,0" />
          <path d="M230589.71,190378.43l0,-500" />
          <path d="M230589.71,189878.43l-1600,0" />
          <path d="M228989.71,189878.43l0,500" />
          <path d="M232589.71,190378.43l1600,0" />
          <path d="M234189.71,190378.43l0,-500" />
          <path d="M234189.71,189878.43l-1600,0" />
          <path d="M232589.71,189878.43l0,500" />
          <path d="M236189.71,190378.43l1600,0" />
          <path d="M237789.71,190378.43l0,-500" />
          <path d="M237789.71,189878.43l-1600,0" />
          <path d="M236189.71,189878.43l0,500" />
          <path d="M239789.71,190378.43l1600,0" />
          <path d="M241389.71,190378.43l0,-500" />
          <path d="M241389.71,189878.43l-1600,0" />
          <path d="M239789.71,189878.43l0,500" />
          <path d="M243389.71,190378.43l1600,0" />
          <path d="M244989.71,190378.43l0,-500" />
          <path d="M244989.71,189878.43l-1600,0" />
          <path d="M243389.71,189878.43l0,500" />
          <path d="M247599.71,189878.43l0,-6140" />
          <path d="M247979.71,189878.43l0,-6140" />
          <path d="M222399.71,189878.43l0,-6140" />
          <path d="M222779.71,189878.43l0,-6140" />
          <path d="M208259.71,190378.43l730,0" />
          <path d="M208989.71,190378.43l0,-500" />
          <path d="M208989.71,189878.43l-420,0" />
          <path d="M222399.71,189878.43l-610,0" />
          <path d="M221789.71,189878.43l0,500" />
          <path d="M221789.71,190378.43l800,0" />
          <path d="M210989.71,190378.43l1600,0" />
          <path d="M212589.71,190378.43l0,-500" />
          <path d="M212589.71,189878.43l-1600,0" />
          <path d="M210989.71,189878.43l0,500" />
          <path d="M214589.71,190378.43l1600,0" />
          <path d="M216189.71,190378.43l0,-500" />
          <path d="M216189.71,189878.43l-1600,0" />
          <path d="M214589.71,189878.43l0,500" />
          <path d="M218189.71,190378.43l1600,0" />
          <path d="M219789.71,190378.43l0,-500" />
          <path d="M219789.71,189878.43l-1600,0" />
          <path d="M218189.71,189878.43l0,500" />
          <path d="M247599.71,180598.43l-500,0" />
          <path d="M247099.71,180598.43l0,380" />
          <path d="M247099.71,180978.43l690,0" />
          <path d="M222589.71,180978.43l390,0" />
          <path d="M222979.71,180978.43l0,-380" />
          <path d="M222979.71,180598.43l-200,0" />
          <path d="M246199.71,180598.43l-4092.18,0" />
          <path d="M242107.53,180598.43l0,380" />
          <path d="M242107.53,180978.43l4092.18,0" />
          <path d="M246199.71,180978.43l0,-380" />
          <path d="M241207.53,180598.43l-1378.61,0" />
          <path d="M238928.92,180598.43l-3878.42,0" />
          <path d="M235050.5,180598.43l0,380" />
          <path d="M235050.5,180978.43l3878.42,0" />
          <path d="M239828.92,180978.43l1378.61,0" />
          <path d="M241207.53,180978.43l0,-380" />
          <path d="M234150.5,180598.43l-2110.79,0" />
          <path d="M232039.71,180598.43l0,380" />
          <path d="M232039.71,180978.43l2110.79,0" />
          <path d="M234150.5,180978.43l0,-380" />
          <path d="M231139.71,180598.43l-7260,0" />
          <path d="M223879.71,180598.43l0,380" />
          <path d="M223879.71,180978.43l7260,0" />
          <path d="M231139.71,180978.43l0,-380" />
          <path d="M247789.71,174198.43l-800,0" />
          <path d="M246989.71,174198.43l0,500" />
          <path d="M246989.71,174698.43l610,0" />
          <path d="M222779.71,174698.43l610,0" />
          <path d="M223389.71,174698.43l0,-500" />
          <path d="M223389.71,174198.43l-800,0" />
          <path d="M244989.71,174198.43l-1600,0" />
          <path d="M243389.71,174198.43l0,500" />
          <path d="M243389.71,174698.43l1600,0" />
          <path d="M244989.71,174698.43l0,-500" />
          <path d="M241389.71,174198.43l-1600,0" />
          <path d="M239789.71,174198.43l0,500" />
          <path d="M239789.71,174698.43l1600,0" />
          <path d="M241389.71,174698.43l0,-500" />
          <path d="M237789.71,174198.43l-1600,0" />
          <path d="M236189.71,174198.43l0,500" />
          <path d="M236189.71,174698.43l1600,0" />
          <path d="M237789.71,174698.43l0,-500" />
          <path d="M234189.71,174198.43l-1600,0" />
          <path d="M232589.71,174198.43l0,500" />
          <path d="M232589.71,174698.43l1600,0" />
          <path d="M234189.71,174698.43l0,-500" />
          <path d="M230589.71,174198.43l-1600,0" />
          <path d="M228989.71,174198.43l0,500" />
          <path d="M228989.71,174698.43l1600,0" />
          <path d="M230589.71,174698.43l0,-500" />
          <path d="M226989.71,174198.43l-1600,0" />
          <path d="M225389.71,174198.43l0,500" />
          <path d="M225389.71,174698.43l1600,0" />
          <path d="M226989.71,174698.43l0,-500" />
          <path d="M247599.71,180598.43l0,-5900" />
          <path d="M247979.71,180598.43l0,-5900" />
          <path d="M222399.71,180598.43l0,-5900" />
          <path d="M222779.71,180598.43l0,-5900" />
          <path d="M266189.71,174198.43l-800,0" />
          <path d="M265389.71,174198.43l0,500" />
          <path d="M265389.71,174698.43l610,0" />
          <path d="M262969.71,174698.43l420,0" />
          <path d="M263389.71,174698.43l0,-500" />
          <path d="M263389.71,174198.43l-730,0" />
          <path d="M265999.71,180598.43l-1160,0" />
          <path d="M264839.71,180598.43l0,380" />
          <path d="M264839.71,180978.43l1350,0" />
          <path d="M262659.71,180978.43l1280,0" />
          <path d="M263939.71,180978.43l0,-380" />
          <path d="M263939.71,180598.43l-970,0" />
          <path d="M265999.71,180598.43l0,-5900" />
          <path d="M266379.71,180598.43l0,-5900" />
          <path d="M270879.71,174698.43l0,6280" />
          <path d="M270499.71,174698.43l0,5900" />
          <path d="M279979.71,174388.43l0,-500" />
          <path d="M279979.71,173888.43l-500,0" />
          <path d="M279479.71,173888.43l0,310" />
          <path d="M279479.71,162698.43l0,3190" />
          <path d="M279479.71,165888.43l500,0" />
          <path d="M279979.71,165888.43l0,-3690" />
          <path d="M279979.71,171888.43l0,-1000" />
          <path d="M279979.71,170888.43l-500,0" />
          <path d="M279479.71,170888.43l0,1000" />
          <path d="M279479.71,171888.43l500,0" />
          <path d="M279979.71,168888.43l0,-1000" />
          <path d="M279979.71,167888.43l-500,0" />
          <path d="M279479.71,167888.43l0,1000" />
          <path d="M279479.71,168888.43l500,0" />
          <path d="M211789.71,174198.43l-800,0" />
          <path d="M210989.71,174198.43l0,500" />
          <path d="M210989.71,174698.43l610,0" />
          <path d="M208569.71,174698.43l420,0" />
          <path d="M208989.71,174698.43l0,-500" />
          <path d="M208989.71,174198.43l-730,0" />
          <path d="M200679.71,174198.43l0,-900" />
          <path d="M200679.71,173298.43l-500,0" />
          <path d="M200179.71,173298.43l0,1400" />
          <path d="M200179.71,166998.43l0,1100" />
          <path d="M200179.71,168098.43l500,0" />
          <path d="M200679.71,168098.43l0,-1600" />
          <path d="M200679.71,171298.43l0,-1200" />
          <path d="M200679.71,170098.43l-500,0" />
          <path d="M200179.71,170098.43l0,1200" />
          <path d="M200179.71,171298.43l500,0" />
          <path d="M191199.71,170878.43l0,370" />
          <path d="M191199.71,171248.43l500,0" />
          <path d="M191699.71,171248.43l0,-870" />
          <path d="M191699.71,183358.43l0,-510" />
          <path d="M191699.71,182848.43l-500,0" />
          <path d="M191199.71,182848.43l0,700" />
          <path d="M191199.71,173248.43l0,1200" />
          <path d="M191199.71,174448.43l500,0" />
          <path d="M191699.71,174448.43l0,-1200" />
          <path d="M191699.71,173248.43l-500,0" />
          <path d="M191199.71,176448.43l0,1200" />
          <path d="M191199.71,177648.43l500,0" />
          <path d="M191699.71,177648.43l0,-1200" />
          <path d="M191699.71,176448.43l-500,0" />
          <path d="M191199.71,179648.43l0,1200" />
          <path d="M191199.71,180848.43l500,0" />
          <path d="M191699.71,180848.43l0,-1200" />
          <path d="M191699.71,179648.43l-500,0" />
          <path d="M211599.71,180978.43l0,-6280" />
          <path d="M211979.71,180598.43l0,-5900" />
          <path d="M279979.71,183548.43l0,-360" />
          <path d="M279979.71,183188.43l-500,0" />
          <path d="M279479.71,183188.43l0,170" />
          <path d="M279479.71,180978.43l0,210" />
          <path d="M279479.71,181188.43l500,0" />
          <path d="M279979.71,181188.43l0,-400" />
          <path d="M262969.71,183738.43l0,6640" />
          <path d="M262659.71,183358.43l0,7520" />
          <path d="M208569.71,183738.43l0,6140" />
          <path d="M208259.71,183358.43l0,7020" />
          <path d="M222589.71,183358.43l-1305,0" />
          <path d="M221284.71,183358.43l0,380" />
          <path d="M221284.71,183738.43l1115,0" />
          <path d="M208569.71,183738.43l1115,0" />
          <path d="M209684.71,183738.43l0,-380" />
          <path d="M209684.71,183358.43l-1425,0" />
          <path d="M220384.71,183358.43l-2600,0" />
          <path d="M217784.71,183358.43l0,380" />
          <path d="M217784.71,183738.43l2600,0" />
          <path d="M220384.71,183738.43l0,-380" />
          <path d="M216884.71,183358.43l-2700,0" />
          <path d="M214184.71,183358.43l0,380" />
          <path d="M214184.71,183738.43l2700,0" />
          <path d="M216884.71,183738.43l0,-380" />
          <path d="M213284.71,183358.43l-2700,0" />
          <path d="M210584.71,183358.43l0,380" />
          <path d="M210584.71,183738.43l2700,0" />
          <path d="M213284.71,183738.43l0,-380" />
          <path d="M247789.71,183358.43l-1210,0" />
          <path d="M246579.71,183358.43l0,380" />
          <path d="M246579.71,183738.43l1020,0" />
          <path d="M222779.71,183738.43l1305,0" />
          <path d="M224084.71,183738.43l0,-380" />
          <path d="M224084.71,183358.43l-1495,0" />
          <path d="M245579.71,183358.43l-2780,0" />
          <path d="M242799.71,183358.43l0,380" />
          <path d="M242799.71,183738.43l2780,0" />
          <path d="M245579.71,183738.43l0,-380" />
          <path d="M241799.71,183358.43l-2600,0" />
          <path d="M239199.71,183358.43l0,380" />
          <path d="M239199.71,183738.43l2600,0" />
          <path d="M241799.71,183738.43l0,-380" />
          <path d="M238199.71,183358.43l-6200,0" />
          <path d="M231999.71,183358.43l0,380" />
          <path d="M231999.71,183738.43l6200,0" />
          <path d="M238199.71,183738.43l0,-380" />
          <path d="M230999.71,183358.43l-2415,0" />
          <path d="M228584.71,183358.43l0,380" />
          <path d="M228584.71,183738.43l2415,0" />
          <path d="M230999.71,183738.43l0,-380" />
          <path d="M227684.71,183358.43l-2700,0" />
          <path d="M224984.71,183358.43l0,380" />
          <path d="M224984.71,183738.43l2700,0" />
          <path d="M227684.71,183738.43l0,-380" />
          <path d="M254899.71,189878.43l0,-6140" />
          <path d="M255079.71,189878.43l0,-6140" />
          <path d="M254899.71,189878.43l180,0" />
          <path d="M254899.71,183738.43l180,0" />
          <path d="M258499.71,189878.43l0,-6140" />
          <path d="M258679.71,189878.43l0,-6140" />
          <path d="M258499.71,189878.43l180,0" />
          <path d="M258499.71,183738.43l180,0" />
          <path d="M273099.71,174198.43l0,5000" />
          <path d="M273099.71,179198.43l380,0" />
          <path d="M273479.71,179198.43l0,-4500" />
          <path d="M273479.71,180598.43l0,-400" />
          <path d="M273479.71,180198.43l-380,0" />
          <path d="M273099.71,180198.43l0,780" />
          <path d="M279479.71,180598.43l-6000,0" />
          <path d="M273099.71,180978.43l6380,0" />
          <path d="M279979.71,180788.43l0,-900" />
          <path d="M279979.71,179888.43l-500,0" />
          <path d="M279479.71,179888.43l0,710" />
          <path d="M279479.71,174698.43l0,190" />
          <path d="M279479.71,174888.43l500,0" />
          <path d="M279979.71,174888.43l0,-500" />
          <path d="M279979.71,177888.43l0,-1000" />
          <path d="M279979.71,176888.43l-500,0" />
          <path d="M279479.71,176888.43l0,1000" />
          <path d="M279479.71,177888.43l500,0" />
          <path d="M267789.71,174698.43l-1410,0" />
          <path d="M267599.71,174198.43l-1410,0" />
          <path d="M270499.71,174698.43l-2710,0" />
          <path d="M271119.71,174198.43l-3020,0" />
          <path d="M254899.71,180598.43l180,0" />
          <path d="M254899.71,174698.43l180,0" />
          <path d="M251579.71,180598.43l0,-250" />
          <path d="M251199.71,180348.43l0,250" />
          <path d="M251199.71,174698.43l0,4650" />
          <path d="M251579.71,179348.43l0,-4650" />
          <path d="M251199.71,179348.43l0,1000" />
          <path d="M251579.71,180348.43l0,-1000" />
          <path d="M251199.71,180598.43l-920,0" />
          <path d="M250279.71,180598.43l0,380" />
          <path d="M250279.71,180978.43l1110,0" />
          <path d="M247789.71,180978.43l1490,0" />
          <path d="M249279.71,180978.43l0,-380" />
          <path d="M249279.71,180598.43l-1300,0" />
          <path d="M251389.71,174198.43l-800,0" />
          <path d="M250589.71,174198.43l0,500" />
          <path d="M250589.71,174698.43l610,0" />
          <path d="M247979.71,174698.43l610,0" />
          <path d="M248589.71,174698.43l0,-500" />
          <path d="M248589.71,174198.43l-800,0" />
          <path d="M222399.71,180598.43l-500,0" />
          <path d="M221899.71,180598.43l0,380" />
          <path d="M221899.71,180978.43l690,0" />
          <path d="M211599.71,180978.43l880,0" />
          <path d="M212479.71,180978.43l0,-380" />
          <path d="M212479.71,180598.43l-500,0" />
          <path d="M220399.71,180598.43l-6420,0" />
          <path d="M213979.71,180598.43l0,380" />
          <path d="M213979.71,180978.43l6420,0" />
          <path d="M220399.71,180978.43l0,-380" />
          <path d="M222589.71,174198.43l-800,0" />
          <path d="M221789.71,174198.43l0,500" />
          <path d="M221789.71,174698.43l610,0" />
          <path d="M211979.71,174698.43l610,0" />
          <path d="M212589.71,174698.43l0,-500" />
          <path d="M212589.71,174198.43l-800,0" />
          <path d="M219789.71,174198.43l-1600,0" />
          <path d="M218189.71,174198.43l0,500" />
          <path d="M218189.71,174698.43l1600,0" />
          <path d="M219789.71,174698.43l0,-500" />
          <path d="M216189.71,174198.43l-1600,0" />
          <path d="M214589.71,174198.43l0,500" />
          <path d="M214589.71,174698.43l1600,0" />
          <path d="M216189.71,174698.43l0,-500" />
          <path d="M200559.71,174698.43l0,5900" />
          <path d="M200179.71,174698.43l0,6280" />
          <path d="M200559.71,174698.43l-380,0" />
          <path d="M200179.71,180978.43l1630,0" />
          <path d="M201809.71,180978.43l0,-380" />
          <path d="M201809.71,180598.43l-1250,0" />
          <path d="M203209.71,180598.43l-500,0" />
          <path d="M202709.71,180598.43l0,380" />
          <path d="M202709.71,180978.43l690,0" />
          <use xlink:href="#$DorLib2D$00000001" x="224.733" y="200.876" transform="scale(900,900)" stroke-width="0.0001%">.</use>
          <path d="M203589.71,174698.43l0,5900" />
          <path d="M203209.71,174698.43l0,5900" />
          <path d="M203399.71,180978.43l690,0" />
          <path d="M204089.71,180978.43l0,-380" />
          <path d="M204089.71,180598.43l-500,0" />
          <path d="M207409.71,180598.43l-2420,0" />
          <path d="M204989.71,180598.43l0,380" />
          <path d="M204989.71,180978.43l3110,0" />
          <path d="M203399.71,174198.43l-410,0" />
          <path d="M202989.71,174198.43l0,500" />
          <path d="M202989.71,174698.43l220,0" />
          <path d="M200179.71,174698.43l810,0" />
          <path d="M200989.71,174698.43l0,-500" />
          <path d="M200989.71,174198.43l-310,0" />
          <path d="M191699.71,186938.43l-800,0" />
          <path d="M191199.71,186558.43l-800,0" />
          <path d="M191199.71,170878.43l-800,0" />
          <path d="M191699.71,170378.43l-800,0" />
          <path d="M191199.71,183548.43l0,500" />
          <path d="M191199.71,184048.43l500,0" />
          <path d="M191699.71,184048.43l0,-310" />
          <path d="M191699.71,186938.43l0,-890" />
          <path d="M191699.71,186048.43l-500,0" />
          <path d="M191199.71,186048.43l0,510" />
          <path d="M190899.71,186938.43l0,3440" />
          <path d="M190399.71,186558.43l0,4320" />
          <path d="M195654.71,183738.43l120,0" />
          <path d="M199129.71,190378.43l0,-6640" />
          <path d="M199249.71,190378.43l0,-6640" />
          <path d="M199129.71,190378.43l120,0" />
          <path d="M199129.71,183738.43l120,0" />
          <path d="M229699.71,180598.43l0,-5900" />
          <path d="M229879.71,180598.43l0,-5900" />
          <path d="M229699.71,180598.43l180,0" />
          <path d="M229699.71,174698.43l180,0" />
          <path d="M233299.71,180598.43l0,-5900" />
          <path d="M233479.71,180598.43l0,-5900" />
          <path d="M233299.71,180598.43l180,0" />
          <path d="M233299.71,174698.43l180,0" />
          <path d="M211699.71,189878.43l0,-6140" />
          <path d="M211879.71,189878.43l0,-6140" />
          <path d="M211699.71,189878.43l180,0" />
          <path d="M211699.71,183738.43l180,0" />
          <path d="M215299.71,189878.43l0,-6140" />
          <path d="M215479.71,189878.43l0,-6140" />
          <path d="M215299.71,189878.43l180,0" />
          <path d="M215299.71,183738.43l180,0" />
          <path d="M218899.71,189878.43l0,-6140" />
          <path d="M219079.71,189878.43l0,-6140" />
          <path d="M218899.71,189878.43l180,0" />
          <path d="M218899.71,183738.43l180,0" />
          <path d="M226099.71,189878.43l0,-6140" />
          <path d="M226279.71,189878.43l0,-6140" />
          <path d="M226099.71,189878.43l180,0" />
          <path d="M226099.71,183738.43l180,0" />
          <path d="M229699.71,189878.43l0,-6140" />
          <path d="M229879.71,189878.43l0,-6140" />
          <path d="M229699.71,189878.43l180,0" />
          <path d="M229699.71,183738.43l180,0" />
          <path d="M237079.71,189878.43l0,-4139.94" />
          <path d="M237079.71,185738.49l-180,0" />
          <path d="M237079.71,185918.49l-180,0" />
          <path d="M236899.71,185738.49l0,4139.94" />
          <path d="M236899.71,189878.43l180,0" />
          <path d="M236899.71,183738.43l0,1000.06" />
          <path d="M236899.71,184738.49l180,0" />
          <path d="M236899.71,184558.49l180,0" />
          <path d="M237079.71,184738.49l0,-1000.06" />
          <path d="M237079.71,183738.43l-180,0" />
          <path d="M244099.71,189878.43l0,-6140" />
          <path d="M244279.71,189878.43l0,-6140" />
          <path d="M244099.71,189878.43l180,0" />
          <path d="M244099.71,183738.43l180,0" />
          <path d="M251299.71,189878.43l0,-6140" />
          <path d="M251479.71,189878.43l0,-6140" />
          <path d="M251299.71,189878.43l180,0" />
          <path d="M251299.71,183738.43l180,0" />
          <path d="M202749.71,190378.43l0,-2529.45" />
          <path d="M202749.71,187848.98l-120,0" />
          <path d="M202629.71,187848.98l0,2529.45" />
          <path d="M202629.71,190378.43l120,0" />
          <path d="M202629.71,183738.43l0,3210.55" />
          <path d="M202629.71,186948.98l120,0" />
          <path d="M202749.71,186948.98l0,-3210.55" />
          <path d="M202749.71,183738.43l-120,0" />
          <path d="M211599.71,178728.43l0,-1539.27" />
          <path d="M211599.71,177076.46l0,-778.03" />
          <path d="M209974.71,178728.43l-1405,0" />
          <path d="M209974.71,178458.43l-1405,0" />
          <path d="M209974.71,178188.43l-1405,0" />
          <path d="M209973.19,177918.43l-1403.48,0" />
          <path d="M209974.71,177648.43l-304.25,0" />
          <path d="M209453.58,177648.43l-883.87,0" />
          <path d="M209974.71,177378.43l-823.87,0" />
          <path d="M208933.96,177378.43l-364.25,0" />
          <path d="M209974.71,177108.43l-1343.48,0" />
          <path d="M209974.71,176838.43l-1405,0" />
          <path d="M209974.71,176568.43l-1405,0" />
          <path d="M209974.71,176298.43l-1405,0" />
          <path d="M210034.71,178728.43l0,-778.03" />
          <path d="M210034.71,177837.7l0,-1539.27" />
          <path d="M210034.71,177837.7l-641.62,-333.39" />
          <path d="M210034.71,177950.39l-663.95,-345" />
          <path d="M209370.76,177605.39l38.49,-174.23" />
          <path d="M209409.25,177431.16l-198.17,181.86" />
          <path d="M209211.08,177613.03l40.29,-182.37" />
          <path d="M209251.37,177430.66l-681.66,-354.2" />
          <path d="M209229.03,177531.75l-659.32,-342.6" />
          <path d="M208569.71,176298.43l0,2430" />
          <path d="M210194.71,176298.43l1405,0" />
          <path d="M210194.71,176568.43l1405,0" />
          <path d="M210194.71,176838.43l1405,0" />
          <path d="M210194.71,177108.43l1405,0" />
          <path d="M210194.71,177378.43l1405,0" />
          <path d="M210194.71,177648.43l1405,0" />
          <path d="M210194.71,177918.43l1405,0" />
          <path d="M210194.71,178188.43l1405,0" />
          <path d="M210194.71,178458.43l1405,0" />
          <path d="M210194.71,178728.43l1405,0" />
          <path d="M210134.71,176298.43l0,2430" />
          <path d="M210134.71,178818.43l-100,0" />
          <path d="M210034.71,178818.43l0,-868.03" />
          <path d="M210034.71,177837.7l0,-1629.27" />
          <path d="M210034.71,176208.43l100,0" />
          <path d="M210134.71,176208.43l0,2610" />
          <path d="M210194.71,178878.43l-220,0" />
          <path d="M209974.71,178878.43l0,-959.21" />
          <path d="M209974.71,177806.52l0,-1658.09" />
          <path d="M209974.71,176148.43l220,0" />
          <path d="M210194.71,176148.43l0,2730" />
          <path d="M211599.71,176298.43l0,-1600" />
          <path d="M211599.71,174698.43l-3030,0" />
          <path d="M208569.71,174698.43l0,1600" />
          <path d="M211599.71,176298.43l-1405,0" />
          <path d="M210134.71,176298.43l-100,0" />
          <path d="M209974.71,176298.43l-1405,0" />
          <path d="M210034.71,178728.43l100,0" />
          <path d="M258779.71,178728.43l0,-778.03" />
          <path d="M258779.71,177837.7l0,-1539.27" />
          <path d="M261809.71,178728.43l-1405,0" />
          <path d="M261809.71,178458.43l-1405,0" />
          <path d="M261809.71,178188.43l-1405,0" />
          <path d="M261748.19,177918.43l-1343.48,0" />
          <path d="M261809.71,177648.43l-364.25,0" />
          <path d="M261228.58,177648.43l-823.87,0" />
          <path d="M261809.71,177378.43l-883.87,0" />
          <path d="M260708.96,177378.43l-304.25,0" />
          <path d="M261809.71,177108.43l-1403.48,0" />
          <path d="M261809.71,176838.43l-1405,0" />
          <path d="M261809.71,176568.43l-1405,0" />
          <path d="M261809.71,176298.43l-1405,0" />
          <path d="M260344.71,178728.43l0,-1539.27" />
          <path d="M260344.71,177076.46l0,-778.03" />
          <path d="M261809.71,177837.7l-641.62,-333.39" />
          <path d="M261809.71,177950.39l-663.95,-345" />
          <path d="M261145.76,177605.39l38.49,-174.23" />
          <path d="M261184.25,177431.16l-198.17,181.86" />
          <path d="M260986.08,177613.03l40.29,-182.37" />
          <path d="M261026.37,177430.66l-681.66,-354.2" />
          <path d="M261004.03,177531.75l-659.32,-342.6" />
          <path d="M261809.71,176298.43l0,2430" />
          <path d="M258779.71,176298.43l1405,0" />
          <path d="M258779.71,176568.43l1405,0" />
          <path d="M258779.71,176838.43l1405,0" />
          <path d="M258779.71,177108.43l1405,0" />
          <path d="M258779.71,177378.43l1405,0" />
          <path d="M258779.71,177648.43l1405,0" />
          <path d="M258779.71,177918.43l1405,0" />
          <path d="M258779.71,178188.43l1405,0" />
          <path d="M258779.71,178458.43l1405,0" />
          <path d="M258779.71,178728.43l1405,0" />
          <path d="M260244.71,176298.43l0,2430" />
          <path d="M260184.71,178878.43l220,0" />
          <path d="M260404.71,178878.43l0,-1658.09" />
          <path d="M260404.71,177107.64l0,-959.21" />
          <path d="M260404.71,176148.43l-220,0" />
          <path d="M260184.71,176148.43l0,2730" />
          <path d="M260244.71,178818.43l100,0" />
          <path d="M260344.71,178818.43l0,-1629.27" />
          <path d="M260344.71,177076.46l0,-868.03" />
          <path d="M260344.71,176208.43l-100,0" />
          <path d="M260244.71,176208.43l0,2610" />
          <path d="M261809.71,176298.43l0,-1600" />
          <path d="M261809.71,174698.43l-3030,0" />
          <path d="M258779.71,174698.43l0,1600" />
          <path d="M261809.71,176298.43l-1405,0" />
          <path d="M260344.71,176298.43l-100,0" />
          <path d="M260184.71,176298.43l-1405,0" />
          <path d="M260344.71,178728.43l-100,0" />
          <path d="M191699.71,180228.43l0,120" />
          <path d="M198069.71,180228.43l-6370,0" />
          <path d="M191699.71,180348.43l6610,0" />
          <path d="M198069.71,180108.43l240,0" />
          <path d="M198309.71,180348.43l0,-240" />
          <path d="M240499.71,180598.43l0,-5900" />
          <path d="M240679.71,180598.43l0,-5900" />
          <path d="M240499.71,180598.43l180,0" />
          <path d="M240499.71,174698.43l180,0" />
          <path d="M240499.71,189878.43l0,-6140" />
          <path d="M240487.71,189878.43l0,-6140" />
          <path d="M240679.71,189878.43l0,-6140" />
          <path d="M240691.71,189878.43l0,-6140" />
          <path d="M240499.71,189878.43l180,0" />
          <path d="M240499.71,183738.43l180,0" />
          <path d="M236899.71,184738.49l0,1000" class="cnc-2" />
          <path d="M237079.71,185738.49l0,-1000" class="cnc-2" />
          <path d="M273299.71,174198.43l-135,0" />
          <path d="M272164.71,162698.43l-150,0" />
          <path d="M267599.71,167963.43l0,925" />
          <path d="M267599.71,168888.43l500,0" />
          <path d="M268099.71,168888.43l0,-850" />
          <path d="M268099.71,174198.43l0,-3310" />
          <path d="M268099.71,170888.43l-500,0" />
          <path d="M267599.71,170888.43l0,3310" />
          <path d="M268099.71,165888.43l0,2933.05" />
          <path d="M271029.71,162748.43l0,284.22" />
          <path d="M270969.71,162748.43l0,284.22" />
          <path d="M271004.71,162748.43l0,284.22" />
          <path d="M270994.71,162748.43l0,284.22" />
          <path d="M271029.71,173673.75l0,444.67" />
          <path d="M270969.71,173673.75l0,444.67" />
          <path d="M270994.71,173673.75l0,444.67" />
          <path d="M271004.71,173673.75l0,444.67" />
          <path d="M270959.71,168418.43l-930,0" />
          <path d="M269049.71,168418.43l-900,0" />
          <path d="M269949.71,168418.43l-820,0" />
          <path d="M269049.71,168358.43l-900,0" />
          <path d="M270959.71,168358.43l-930,0" />
          <path d="M269949.71,168358.43l-820,0" />
          <path d="M269049.71,168383.43l-900,0" />
          <path d="M270959.71,168383.43l-930,0" />
          <path d="M269949.71,168383.43l-820,0" />
          <path d="M270959.71,168393.43l-930,0" />
          <path d="M269949.71,168393.43l-820,0" />
          <path d="M269049.71,168393.43l-900,0" />
          <path d="M271029.71,164132.65l0,615.78" />
          <path d="M271029.71,164828.43l0,820" />
          <path d="M271029.71,165728.43l0,820" />
          <path d="M271029.71,166628.43l0,820" />
          <path d="M271029.71,167528.43l0,820" />
          <path d="M271029.71,168428.43l0,820" />
          <path d="M271029.71,169328.43l0,820" />
          <path d="M271029.71,170228.43l0,820" />
          <path d="M271029.71,171128.43l0,820" />
          <path d="M271029.71,172028.43l0,515.33" />
          <path d="M270969.71,164132.65l0,615.78" />
          <path d="M270969.71,164828.43l0,820" />
          <path d="M270969.71,165728.43l0,820" />
          <path d="M270969.71,166628.43l0,820" />
          <path d="M270969.71,167528.43l0,820" />
          <path d="M270969.71,168428.43l0,820" />
          <path d="M270969.71,169328.43l0,820" />
          <path d="M270969.71,170228.43l0,820" />
          <path d="M270969.71,171128.43l0,820" />
          <path d="M270969.71,172028.43l0,515.33" />
          <path d="M270994.71,164132.65l0,615.78" />
          <path d="M270994.71,164828.43l0,820" />
          <path d="M270994.71,165728.43l0,820" />
          <path d="M270994.71,166628.43l0,820" />
          <path d="M270994.71,167528.43l0,820" />
          <path d="M270994.71,168428.43l0,820" />
          <path d="M270994.71,169328.43l0,820" />
          <path d="M270994.71,170228.43l0,820" />
          <path d="M270994.71,171128.43l0,820" />
          <path d="M270994.71,172028.43l0,515.33" />
          <path d="M271004.71,164132.65l0,615.78" />
          <path d="M271004.71,164828.43l0,820" />
          <path d="M271004.71,165728.43l0,820" />
          <path d="M271004.71,166628.43l0,820" />
          <path d="M271004.71,167528.43l0,820" />
          <path d="M271004.71,168428.43l0,820" />
          <path d="M271004.71,169328.43l0,820" />
          <path d="M271004.71,170228.43l0,820" />
          <path d="M271004.71,171128.43l0,820" />
          <path d="M271004.71,172028.43l0,515.33" />
          <path d="M271119.71,174198.43l0,500" />
          <path d="M273099.71,174198.43l-80,0" />
          <path d="M273019.71,174198.43l0,500" />
          <path d="M273019.71,174698.43l80,0" />
          <path d="M270879.71,174698.43l240,0" />
          <path d="M267079.71,183778.43l0,220" />
          <path d="M267019.71,183778.43l0,220" />
          <path d="M267044.71,183778.43l0,220" />
          <path d="M267054.71,183778.43l0,220" />
          <path d="M267079.71,185088.43l0,810" />
          <path d="M267079.71,185978.43l0,820" />
          <path d="M267079.71,186878.43l0,820" />
          <path d="M267079.71,187778.43l0,820" />
          <path d="M267079.71,188678.43l0,820" />
          <path d="M267079.71,189578.43l0,750" />
          <path d="M267019.71,185088.43l0,810" />
          <path d="M267019.71,185978.43l0,820" />
          <path d="M267019.71,186878.43l0,820" />
          <path d="M267019.71,187778.43l0,820" />
          <path d="M267019.71,188678.43l0,820" />
          <path d="M267019.71,189578.43l0,750" />
          <path d="M267044.71,185088.43l0,810" />
          <path d="M267044.71,185978.43l0,820" />
          <path d="M267044.71,186878.43l0,820" />
          <path d="M267044.71,189578.43l0,750" />
          <path d="M267044.71,188678.43l0,820" />
          <path d="M267054.71,187778.43l0,820" />
          <path d="M267054.71,185088.43l0,810" />
          <path d="M267054.71,185978.43l0,820" />
          <path d="M267054.71,186878.43l0,820" />
          <path d="M267054.71,189578.43l0,750" />
          <path d="M267054.71,188678.43l0,820" />
          <path d="M238928.92,180978.43l0,-380" />
          <path d="M239828.92,180978.43l0,-380" />
          <path d="M267044.71,187778.43l0,820" />
          <path d="M236899.71,184738.49l0,1000" class="cnc-2" />
          <path d="M237079.71,185738.49l0,-1000" class="cnc-2" />
          <path d="M236899.71,184738.49l0,1000" class="cnc-2" />
          <path d="M237079.71,185738.49l0,-1000" class="cnc-2" />
          <use xlink:href="#$TCHSYS$WIN2D_1800x500" x="275249.71" y="162448.43" transform="scale(1,-1) translate(0,-324896.86) rotate(-180,275249.71,162448.43)">.<g class="blkclass0"><text transform="translate(-580,-435.29)" font-size="386.75">WC1824</text></g></use>
          <use xlink:href="#$TCHSYS$WIN2D_1800x500" x="272329.71" y="162448.43" transform="scale(-1,-1) translate(-544659.42,-324896.86) rotate(-180,272329.71,162448.43)">.<g class="blkclass0"><text transform="translate(-580,-476.37)" font-size="386.75">WC1824</text></g></use>
          <use xlink:href="#$TCHSYS$WIN2D_2000x500" x="267849.71" y="166888.43" transform="scale(-1,-1) translate(-535699.42,-333776.86) rotate(-270,267849.71,166888.43)">.<g class="blkclass0"><text transform="rotate(-90 -429.27,618.42) translate(-429.27,618.42)" font-size="386.75">WC2024</text></g></use>
          <use xlink:href="#$TCHSYS$WIN2D_2000x500" x="267849.71" y="169888.43" transform="scale(1,-1) translate(0,-339776.86) rotate(-90,267849.71,169888.43)">.<g class="blkclass0"><text transform="rotate(-90 -451.68,653.82) translate(-451.68,653.82)" font-size="386.75">WC2024</text></g></use>
          <use xlink:href="#$TCHSYS$WIN2D_1500x500" x="199124.71" y="166748.43" transform="scale(1,-1) translate(0,-333496.86) rotate(-180,199124.71,166748.43)">.<g class="blkclass0"><text transform="translate(-580,-373.84)" font-size="386.75">WC1524</text></g></use>
          <use xlink:href="#$TCHSYS$WIN2D_2000x500" x="209989.71" y="190128.43">.<g class="blkclass0"><text transform="translate(-600,798.75)" font-size="386.75">WC2024</text></g></use>
          <use xlink:href="#$TCHSYS$WIN2D_2000x500" x="193939.71" y="190628.43">.<g class="blkclass0"><text transform="translate(-600,798.75)" font-size="386.75">WC2024</text></g></use>
          <use xlink:href="#$TCHSYS$WIN2D_2000x500" x="197439.71" y="190628.43">.<g class="blkclass0"><text transform="translate(-600,798.75)" font-size="386.75">WC2024</text></g></use>
          <use xlink:href="#$TCHSYS$WIN2D_2000x500" x="200939.71" y="190628.43">.<g class="blkclass0"><text transform="translate(-600,798.75)" font-size="386.75">WC2024</text></g></use>
          <use xlink:href="#$TCHSYS$WIN2D_2000x500" x="204439.71" y="190628.43">.<g class="blkclass0"><text transform="translate(-600,798.75)" font-size="386.75">WC2024</text></g></use>
          <use xlink:href="#$TCHSYS$WIN2D_2000x500" x="279729.71" y="185308.43" transform="scale(1,-1) translate(0,-370616.86) rotate(-270,279729.71,185308.43)">.<g class="blkclass0"><text transform="rotate(-90 708.6,622.38) translate(708.6,622.38)" font-size="386.75">WC2024</text></g></use>
          <use xlink:href="#$TCHSYS$WIN2D_2000x500" x="260389.71" y="174448.43" transform="scale(1,-1) translate(0,-348896.86)">.<g class="blkclass0"><text transform="translate(-600,-376.25)" font-size="386.75">WC2024</text></g></use>
          <use xlink:href="#$TCHSYS$WIN2D_2000x500" x="205989.71" y="174448.43" transform="scale(-1,1) translate(-411979.42,0) rotate(-180,205989.71,174448.43)">.<g class="blkclass0"><text transform="translate(-600,-376.25)" font-size="386.75">WC2024</text></g></use>
          <use xlink:href="#$TCHSYS$WIN2D_2000x500" x="260389.71" y="190128.43">.<g class="blkclass0"><text transform="translate(-600,798.75)" font-size="386.75">WC2024</text></g></use>
          <use xlink:href="#$TCHSYS$WIN2D_2000x500" x="253189.71" y="190128.43">.<g class="blkclass0"><text transform="translate(-600,798.75)" font-size="386.75">WC2024</text></g></use>
          <use xlink:href="#$TCHSYS$WIN2D_2000x500" x="256789.71" y="190128.43">.<g class="blkclass0"><text transform="translate(-600,798.75)" font-size="386.75">WC2024</text></g></use>
          <use xlink:href="#$TCHSYS$WIN2D_2000x500" x="249589.71" y="190128.43">.<g class="blkclass0"><text transform="translate(-600,798.75)" font-size="386.75">WC2024</text></g></use>
          <use xlink:href="#$TCHSYS$WIN2D_2000x500" x="256789.71" y="174448.43" transform="scale(1,-1) translate(0,-348896.86)">.<g class="blkclass0"><text transform="translate(-600,-376.25)" font-size="386.75">WC2024</text></g></use>
          <use xlink:href="#$TCHSYS$WIN2D_2000x500" x="253189.71" y="174448.43" transform="scale(1,-1) translate(0,-348896.86)">.<g class="blkclass0"><text transform="translate(-600,-376.25)" font-size="386.75">WC2024</text></g></use>
          <use xlink:href="#$TCHSYS$WIN2D_2000x500" x="276439.71" y="190628.43" transform="scale(-1,1) translate(-552879.42,0)">.<g class="blkclass0"><text transform="translate(-600,798.75)" font-size="386.75">WC2024</text></g></use>
          <use xlink:href="#$TCHSYS$WIN2D_2000x500" x="272939.71" y="190628.43" transform="scale(-1,1) translate(-545879.42,0)">.<g class="blkclass0"><text transform="translate(-600,798.75)" font-size="386.75">WC2024</text></g></use>
          <use xlink:href="#$TCHSYS$WIN2D_2000x500" x="269439.71" y="190628.43" transform="scale(-1,1) translate(-538879.42,0)">.<g class="blkclass0"><text transform="translate(-600,798.75)" font-size="386.75">WC2024</text></g></use>
          <use xlink:href="#$TCHSYS$WIN2D_2000x500" x="265939.71" y="190628.43" transform="scale(-1,1) translate(-531879.42,0)">.<g class="blkclass0"><text transform="translate(-600,798.75)" font-size="386.75">WC2024</text></g></use>
          <use xlink:href="#$TCHSYS$WIN2D_2000x500" x="245989.71" y="190128.43" transform="scale(-1,-1) translate(-491979.42,-380256.86)">.<g class="blkclass0"><text transform="translate(-600,798.75)" font-size="386.75">WC2024</text></g></use>
          <use xlink:href="#$TCHSYS$WIN2D_2000x500" x="242389.71" y="190128.43" transform="scale(-1,-1) translate(-484779.42,-380256.86)">.<g class="blkclass0"><text transform="translate(-600,798.75)" font-size="386.75">WC2024</text></g></use>
          <use xlink:href="#$TCHSYS$WIN2D_2000x500" x="238789.71" y="190128.43">.<g class="blkclass0"><text transform="translate(-600,798.75)" font-size="386.75">WC2024</text></g></use>
          <use xlink:href="#$TCHSYS$WIN2D_2000x500" x="235189.71" y="190128.43">.<g class="blkclass0"><text transform="translate(-610.78,728.99)" font-size="386.75">WC2024</text></g></use>
          <use xlink:href="#$TCHSYS$WIN2D_2000x500" x="231589.71" y="190128.43">.<g class="blkclass0"><text transform="translate(-600,798.75)" font-size="386.75">WC2024</text></g></use>
          <use xlink:href="#$TCHSYS$WIN2D_2000x500" x="227989.71" y="190128.43">.<g class="blkclass0"><text transform="translate(-600,798.75)" font-size="386.75">WC2024</text></g></use>
          <use xlink:href="#$TCHSYS$WIN2D_2000x500" x="224389.71" y="190128.43">.<g class="blkclass0"><text transform="translate(-600,798.75)" font-size="386.75">WC2024</text></g></use>
          <use xlink:href="#$TCHSYS$WIN2D_2000x500" x="213589.71" y="190128.43">.<g class="blkclass0"><text transform="translate(-600,798.75)" font-size="386.75">WC2024</text></g></use>
          <use xlink:href="#$TCHSYS$WIN2D_2000x500" x="217189.71" y="190128.43">.<g class="blkclass0"><text transform="translate(-600,798.75)" font-size="386.75">WC2024</text></g></use>
          <use xlink:href="#$TCHSYS$WIN2D_2000x500" x="220789.71" y="190128.43">.<g class="blkclass0"><text transform="translate(-600,798.75)" font-size="386.75">WC2024</text></g></use>
          <use xlink:href="#$TCHSYS$WIN2D_2000x500" x="245989.71" y="174448.43" transform="scale(-1,-1) translate(-491979.42,-348896.86)">.<g class="blkclass0"><text transform="translate(-600,-376.25)" font-size="386.75">WC2024</text></g></use>
          <use xlink:href="#$TCHSYS$WIN2D_2000x500" x="242389.71" y="174448.43" transform="scale(-1,-1) translate(-484779.42,-348896.86)">.<g class="blkclass0"><text transform="translate(-600,-376.25)" font-size="386.75">WC2024</text></g></use>
          <use xlink:href="#$TCHSYS$WIN2D_2000x500" x="238789.71" y="174448.43" transform="scale(1,-1) translate(0,-348896.86) rotate(-180,238789.71,174448.43)">.<g class="blkclass0"><text transform="translate(-600,-406.33)" font-size="386.75">WC2024</text></g></use>
          <use xlink:href="#$TCHSYS$WIN2D_2000x500" x="235189.71" y="174448.43" transform="scale(1,-1) translate(0,-348896.86) rotate(-180,235189.71,174448.43)">.<g class="blkclass0"><text transform="translate(-600,-406.33)" font-size="386.75">WC2024</text></g></use>
          <use xlink:href="#$TCHSYS$WIN2D_2000x500" x="231589.71" y="174448.43" transform="scale(1,-1) translate(0,-348896.86) rotate(-180,231589.71,174448.43)">.<g class="blkclass0"><text transform="translate(-600,-436.47)" font-size="386.75">WC2024</text></g></use>
          <use xlink:href="#$TCHSYS$WIN2D_2000x500" x="227989.71" y="174448.43" transform="scale(-1,-1) translate(-455979.42,-348896.86) rotate(-180,227989.71,174448.43)">.<g class="blkclass0"><text transform="translate(-600,-407.33)" font-size="386.75">WC2024</text></g></use>
          <use xlink:href="#$TCHSYS$WIN2D_2000x500" x="224389.71" y="174448.43" transform="scale(-1,-1) translate(-448779.42,-348896.86) rotate(-180,224389.71,174448.43)">.<g class="blkclass0"><text transform="translate(-600,-455.4)" font-size="386.75">WC2024</text></g></use>
          <use xlink:href="#$TCHSYS$WIN2D_2000x500" x="264389.71" y="174448.43" transform="scale(-1,-1) translate(-528779.42,-348896.86)">.<g class="blkclass0"><text transform="translate(-600,-376.25)" font-size="386.75">WC2024</text></g></use>
          <use xlink:href="#$TCHSYS$WIN2D_2000x500" x="279729.71" y="172888.43" transform="scale(1,-1) translate(0,-345776.86) rotate(-270,279729.71,172888.43)">.<g class="blkclass0"><text transform="rotate(-90 744.9,581.11) translate(744.9,581.11)" font-size="386.75">WC2024</text></g></use>
          <use xlink:href="#$TCHSYS$WIN2D_2000x500" x="279729.71" y="166888.43" transform="scale(1,-1) translate(0,-333776.86) rotate(-270,279729.71,166888.43)">.<g class="blkclass0"><text transform="rotate(-90 809.24,557.35) translate(809.24,557.35)" font-size="386.75">WC2024</text></g></use>
          <use xlink:href="#$TCHSYS$WIN2D_2000x500" x="279729.71" y="169888.43" transform="scale(-1,-1) translate(-559459.42,-339776.86) rotate(-90,279729.71,169888.43)">.<g class="blkclass0"><text transform="rotate(-90 744.8,571.39) translate(744.8,571.39)" font-size="386.75">WC2024</text></g></use>
          <use xlink:href="#$TCHSYS$WIN2D_2000x500" x="279729.71" y="175888.43" transform="scale(1,-1) translate(0,-351776.86) rotate(-270,279729.71,175888.43)">.<g class="blkclass0"><text transform="rotate(-90 756.67,615.17) translate(756.67,615.17)" font-size="386.75">WC2024</text></g></use>
          <use xlink:href="#$TCHSYS$WIN2D_2000x500" x="279729.71" y="178888.43" transform="scale(1,-1) translate(0,-357776.86) rotate(-270,279729.71,178888.43)">.<g class="blkclass0"><text transform="rotate(-90 708.72,661.74) translate(708.72,661.74)" font-size="386.75">WC2024</text></g></use>
          <use xlink:href="#$TCHSYS$WIN2D_2000x500" x="249589.71" y="174448.43" transform="scale(-1,-1) translate(-499179.42,-348896.86)">.<g class="blkclass0"><text transform="translate(-600,-376.25)" font-size="386.75">WC2024</text></g></use>
          <use xlink:href="#$TCHSYS$WIN2D_2000x500" x="209989.71" y="174448.43" transform="scale(-1,1) translate(-419979.42,0) rotate(-180,209989.71,174448.43)">.<g class="blkclass0"><text transform="translate(-600,-376.25)" font-size="386.75">WC2024</text></g></use>
          <use xlink:href="#$TCHSYS$WIN2D_2000x500" x="220789.71" y="174448.43" transform="scale(-1,-1) translate(-441579.42,-348896.86) rotate(-180,220789.71,174448.43)">.<g class="blkclass0"><text transform="translate(-600,-455.4)" font-size="386.75">WC2024</text></g></use>
          <use xlink:href="#$TCHSYS$WIN2D_2000x500" x="217189.71" y="174448.43" transform="scale(-1,-1) translate(-434379.42,-348896.86) rotate(-180,217189.71,174448.43)">.<g class="blkclass0"><text transform="translate(-600,-475.33)" font-size="386.75">WC2024</text></g></use>
          <use xlink:href="#$TCHSYS$WIN2D_2000x500" x="213589.71" y="174448.43" transform="scale(-1,-1) translate(-427179.42,-348896.86) rotate(-180,213589.71,174448.43)">.<g class="blkclass0"><text transform="translate(-600,-417.63)" font-size="386.75">WC2024</text></g></use>
          <use xlink:href="#$TCHSYS$WIN2D_2000x500" x="200429.71" y="169098.43" transform="scale(1,-1) translate(0,-338196.86) rotate(-270,200429.71,169098.43)">.<g class="blkclass0"><text transform="rotate(-90 668.14,490) translate(668.14,490)" font-size="386.75">WC2024</text></g></use>
          <use xlink:href="#$TCHSYS$WIN2D_2000x500" x="200429.71" y="172298.43" transform="scale(1,-1) translate(0,-344596.86) rotate(-270,200429.71,172298.43)">.<g class="blkclass0"><text transform="rotate(-90 705.6,600) translate(705.6,600)" font-size="386.75">WC2024</text></g></use>
          <use xlink:href="#$TCHSYS$WIN2D_2000x500" x="191449.71" y="172248.43" transform="scale(-1,1) translate(-382899.42,0) rotate(-90,191449.71,172248.43)">.<g class="blkclass0"><text transform="rotate(-90 -423.46,600) translate(-423.46,600)" font-size="386.75">WC2024</text></g></use>
          <use xlink:href="#$TCHSYS$WIN2D_2000x500" x="191449.71" y="175448.43" transform="scale(-1,-1) translate(-382899.42,-350896.86) rotate(-270,191449.71,175448.43)">.<g class="blkclass0"><text transform="rotate(-90 -417.85,600) translate(-417.85,600)" font-size="386.75">WC2024</text></g></use>
          <use xlink:href="#$TCHSYS$WIN2D_2000x500" x="191449.71" y="178648.43" transform="scale(-1,-1) translate(-382899.42,-357296.86) rotate(-270,191449.71,178648.43)">.<g class="blkclass0"><text transform="rotate(-90 -406.38,600) translate(-406.38,600)" font-size="386.75">WC2024</text></g></use>
          <use xlink:href="#$TCHSYS$WIN2D_2000x500" x="191449.71" y="181848.43" transform="scale(-1,-1) translate(-382899.42,-363696.86) rotate(-270,191449.71,181848.43)">.<g class="blkclass0"><text transform="rotate(-90 -499.62,600) translate(-499.62,600)" font-size="386.75">WC2024</text></g></use>
          <use xlink:href="#$TCHSYS$WIN2D_2000x500" x="279729.71" y="182188.43" transform="scale(1,-1) translate(0,-364376.86) rotate(-270,279729.71,182188.43)">.<g class="blkclass0"><text transform="rotate(-90 708.68,600.04) translate(708.68,600.04)" font-size="386.75">WC2024</text></g></use>
          <use xlink:href="#$TCHSYS$WIN2D_2000x500" x="201989.71" y="174448.43" transform="scale(-1,1) translate(-403979.42,0) rotate(-180,201989.71,174448.43)">.<g class="blkclass0"><text transform="translate(-600,-376.25)" font-size="386.75">WC2024</text></g></use>
          <use xlink:href="#$TCHSYS$WIN2D_1800x500" x="194274.71" y="166748.43" transform="scale(-1,-1) translate(-388549.42,-333496.86) rotate(-180,194274.71,166748.43)">.<g class="blkclass0"><text transform="translate(-580,-425.29)" font-size="386.75">WC1824</text></g></use>
          <use xlink:href="#$TCHSYS$WIN2D_2000x500" x="191449.71" y="185048.43" transform="scale(-1,-1) translate(-382899.42,-370096.86) rotate(-270,191449.71,185048.43)">.<g class="blkclass0"><text transform="rotate(-90 -451.46,600) translate(-451.46,600)" font-size="386.75">WC2024</text></g></use>
          <path d="M236899.71,184738.49l0,1000" class="cnc-2" />
          <path d="M237079.71,185738.49l0,-1000" class="cnc-2" />
          <use xlink:href="#$DorLib2D$00000001" x="272.03" y="183.563" transform="scale(1000,1000) scale(-1,1) translate(-544.06,0) rotate(-180,272.03,183.56)" stroke-width="0.0001%">.<g class="blkclass0"><text transform="translate(-470,-316.25)" font-size="386.75">M1027</text></g></use>
          <use xlink:href="#$DorLib2D$00000001" x="263.72" y="183.563" transform="scale(1000,1000) rotate(-180,263.72,183.56)" stroke-width="0.0001%">.<g class="blkclass0"><text transform="translate(-470,-316.25)" font-size="386.75">M1027</text></g></use>
          <use xlink:href="#$DorLib2D$00000001" x="253.28" y="183.563" transform="scale(1000,1000) rotate(-180,253.28,183.56)" stroke-width="0.0001%">.<g class="blkclass0"><text transform="translate(-470,-316.25)" font-size="386.75">M1027</text></g></use>
          <use xlink:href="#$DorLib2D$00000001" x="256.88" y="183.563" transform="scale(1000,1000) rotate(-180,256.88,183.56)" stroke-width="0.0001%">.<g class="blkclass0"><text transform="translate(-470,-316.25)" font-size="386.75">M1027</text></g></use>
          <use xlink:href="#$DorLib2D$00000001" x="260.48" y="183.563" transform="scale(1000,1000) rotate(-180,260.48,183.56)" stroke-width="0.0001%">.<g class="blkclass0"><text transform="translate(-470,-316.25)" font-size="386.75">M1027</text></g></use>
          <use xlink:href="#$DorLib2D$00000001" x="249.78" y="183.563" transform="scale(1000,1000) rotate(-180,249.78,183.56)" stroke-width="0.0001%">.<g class="blkclass0"><text transform="translate(-470,-316.25)" font-size="386.75">M1027</text></g></use>
          <use xlink:href="#$DorLib2D$00000001" x="206.66" y="183.563" transform="scale(1000,1000) scale(-1,1) translate(-413.32,0) rotate(-180,206.66,183.56)" stroke-width="0.0001%">.<g class="blkclass0"><text transform="translate(-470,-316.25)" font-size="386.75">M1027</text></g></use>
          <use xlink:href="#$DorLib2D$00000001" x="200.75" y="183.563" transform="scale(1000,1000) rotate(-180,200.75,183.56)" stroke-width="0.0001%">.<g class="blkclass0"><text transform="translate(-470,-316.25)" font-size="386.75">M1027</text></g></use>
          <use xlink:href="#$DorLib2D$00000001" x="296.7" y="200.893" transform="scale(900,900) scale(1,-1) translate(0,-401.79) rotate(-180,296.7,200.89)" stroke-width="0.0001%">.</use>
          <use xlink:href="#$DorLib2D$00000001" x="253.28" y="180.803" transform="scale(1000,1000) scale(1,-1) translate(0,-361.61) rotate(-180,253.28,180.8)" stroke-width="0.0001%">.<g class="blkclass0"><text transform="translate(-470,613.75)" font-size="386.75">M1027</text></g></use>
          <use xlink:href="#$DorLib2D$00000001" x="256.88" y="180.803" transform="scale(1000,1000) scale(1,-1) translate(0,-361.61) rotate(-180,256.88,180.8)" stroke-width="0.0001%">.<g class="blkclass0"><text transform="translate(-470,613.75)" font-size="386.75">M1027</text></g></use>
          <use xlink:href="#$DorLib2D$00000001" x="238.7" y="183.563" transform="scale(1000,1000) rotate(-180,238.7,183.56)" stroke-width="0.0001%">.<g class="blkclass0"><text transform="translate(-470,-316.25)" font-size="386.75">M1027</text></g></use>
          <use xlink:href="#$DorLib2D$00000001" x="248.255" y="200.893" transform="scale(900,900) scale(1,-1) translate(0,-401.79) rotate(-180,248.26,200.89)" stroke-width="0.0001%">.<g class="blkclass0"><text transform="translate(-490,613.75)" font-size="386.75">M0927</text></g></use>
          <use xlink:href="#$DorLib2D$00000001" x="257.322" y="200.893" transform="scale(900,900) scale(1,-1) translate(0,-401.79) rotate(-180,257.32,200.89)" stroke-width="0.0001%">.<g class="blkclass0"><text transform="translate(-490,613.75)" font-size="386.75">M0927</text></g></use>
          <use xlink:href="#$DorLib2D$00000001" x="260.667" y="200.893" transform="scale(900,900) scale(1,-1) translate(0,-401.79) rotate(-180,260.67,200.89)" stroke-width="0.0001%">.<g class="blkclass0"><text transform="translate(-490,613.75)" font-size="386.75">M0927</text></g></use>
          <use xlink:href="#$DorLib2D$00000001" x="268.508" y="200.893" transform="scale(900,900) scale(1,-1) translate(0,-401.79) rotate(-180,268.51,200.89)" stroke-width="0.0001%">.<g class="blkclass0"><text transform="translate(-490,613.75)" font-size="386.75">M0927</text></g></use>
          <use xlink:href="#$DorLib2D$00000001" x="293.766" y="200.893" transform="scale(900,900) scale(-1,-1) translate(-587.53,-401.79) rotate(-180,293.77,200.89)" stroke-width="0.0001%">.</use>
          <use xlink:href="#$DorLib2D$00000002" x="142.153" y="120.536" transform="scale(1500,1500) scale(-1,-1) translate(-284.31,-241.07) rotate(-180,142.15,120.54)" stroke-width="0.0001%">.<g class="blkclass0"><text transform="translate(-470,613.75)" font-size="386.75">M1527</text></g></use>
          <use xlink:href="#$DorLib2D$00000001" x="233.483" y="203.959" transform="scale(900,900) scale(-1,1) translate(-466.97,0) rotate(-180,233.48,203.96)" stroke-width="0.0001%">.<g class="blkclass0"><text transform="translate(-490,-316.25)" font-size="386.75">M0927</text></g></use>
          <use xlink:href="#$DorLib2D$00000001" x="237.483" y="203.959" transform="scale(900,900) scale(-1,1) translate(-474.97,0) rotate(-180,237.48,203.96)" stroke-width="0.0001%">.<g class="blkclass0"><text transform="translate(-490,-316.25)" font-size="386.75">M0927</text></g></use>
          <use xlink:href="#$DorLib2D$00000001" x="241.483" y="203.959" transform="scale(900,900) scale(-1,1) translate(-482.97,0) rotate(-180,241.48,203.96)" stroke-width="0.0001%">.<g class="blkclass0"><text transform="translate(-490,-316.25)" font-size="386.75">M0927</text></g></use>
          <use xlink:href="#$DorLib2D$00000001" x="245.372" y="203.959" transform="scale(900,900) scale(-1,1) translate(-490.74,0) rotate(-180,245.37,203.96)" stroke-width="0.0001%">.<g class="blkclass0"><text transform="translate(-490,-316.25)" font-size="386.75">M0927</text></g></use>
          <use xlink:href="#$DorLib2D$00000001" x="249.483" y="203.959" transform="scale(900,900) scale(-1,1) translate(-498.97,0) rotate(-180,249.48,203.96)" stroke-width="0.0001%">.<g class="blkclass0"><text transform="translate(-490,-316.25)" font-size="386.75">M0927</text></g></use>
          <use xlink:href="#$DorLib2D$00000001" x="253.483" y="203.959" transform="scale(900,900) scale(-1,1) translate(-506.97,0) rotate(-180,253.48,203.96)" stroke-width="0.0001%">.<g class="blkclass0"><text transform="translate(-490,-316.25)" font-size="386.75">M0927</text></g></use>
          <use xlink:href="#$DorLib2D$00000001" x="246.08" y="183.563" transform="scale(1000,1000) rotate(-180,246.08,183.56)" stroke-width="0.0001%">.<g class="blkclass0"><text transform="translate(-470,-316.25)" font-size="386.75">M1027</text></g></use>
          <use xlink:href="#$DorLib2D$00000001" x="242.3" y="183.563" transform="scale(1000,1000) rotate(-180,242.3,183.56)" stroke-width="0.0001%">.<g class="blkclass0"><text transform="translate(-470,-316.25)" font-size="386.75">M1027</text></g></use>
          <use xlink:href="#$DorLib2D$00000001" x="231.5" y="183.563" transform="scale(1000,1000) rotate(-180,231.5,183.56)" stroke-width="0.0001%">.<g class="blkclass0"><text transform="translate(-470,-316.25)" font-size="386.75">M1027</text></g></use>
          <use xlink:href="#$DorLib2D$00000002" x="147.433" y="120.536" transform="scale(1500,1500) scale(1,-1) translate(0,-241.07) rotate(-180,147.43,120.54)" stroke-width="0.0001%">.<g class="blkclass0"><text transform="translate(-470,613.75)" font-size="386.75">M1527</text></g></use>
          <use xlink:href="#$DorLib2D$00000001" x="227.266" y="200.893" transform="scale(900,900) scale(-1,1) translate(-454.53,0)" stroke-width="0.0001%">.<g class="blkclass0"><text transform="translate(-490,764.69)" font-size="386.75">M0927</text></g></use>
          <use xlink:href="#$DorLib2D$00000002" x="132.706" y="120.202" transform="scale(1500,1500) scale(-1,-1) translate(-265.41,-240.4) rotate(-180,132.71,120.2)" stroke-width="0.0001%">.<g class="blkclass0"><text transform="rotate(-360 -470,673.75) translate(-470,673.75)" font-size="386.75">M1527</text></g></use>
          <use xlink:href="#$DorLib2D$00000001" x="249.78" y="180.803" transform="scale(1000,1000) scale(1,-1) translate(0,-361.61) rotate(-180,249.78,180.8)" stroke-width="0.0001%">.<g class="blkclass0"><text transform="translate(-470,626.98)" font-size="386.75">M1027</text></g></use>
          <use xlink:href="#$DorLib2D$00000001" x="273.29" y="179.713" transform="scale(1000,1000) rotate(-270,273.29,179.71)" stroke-width="0.0001%">.<g class="blkclass0"><text transform="rotate(-270 -686.79,-497.38) translate(-686.79,-497.38)" font-size="386.75">M1027</text></g></use>
          <use xlink:href="#$DorLib2D$00000001" x="271" y="163.598" transform="scale(1000,1000) rotate(-90,271,163.6)" stroke-width="0.0001%">.<g class="blkclass0"><text transform="rotate(-270 385.3,-489.01) translate(385.3,-489.01)" font-size="386.75">M1021</text></g></use>
          <use xlink:href="#$DorLib2D$00000001" x="271" y="173.109" transform="scale(1000,1000) scale(-1,1) translate(-542,0) rotate(-270,271,173.11)" stroke-width="0.0001%">.<g class="blkclass0"><text transform="rotate(-270 385.3,-450.99) translate(385.3,-450.99)" font-size="386.75">M1021</text></g></use>
          <use xlink:href="#$DorLib2D$00000002" x="143.195" y="91.823" transform="scale(1900,1900) scale(1,-1) translate(0,-183.65) rotate(-180,143.19,91.82)" stroke-width="0%">.<g class="blkclass1"><text transform="translate(-595.33,777.42)" font-size="489.883">M1827</text></g></use>
          <use xlink:href="#$DorLib2D$00000001" x="267.05" y="184.553" transform="scale(1000,1000) rotate(-90,267.05,184.55)" stroke-width="0.0001%">.<g class="blkclass0"><text transform="rotate(-270 385.3,-489.01) translate(385.3,-489.01)" font-size="386.75">M1021</text></g></use>
          <use xlink:href="#$DorLib2D$00000001" x="265.977" y="200.893" transform="scale(900,900) scale(-1,-1) translate(-531.95,-401.79) rotate(-180,265.98,200.89)" stroke-width="0.0001%">.<g class="blkclass0"><text transform="translate(-490,613.75)" font-size="386.75">M0927</text></g></use>
          <use xlink:href="#$DorLib2D$00000002" x="164.312" y="152.97" transform="scale(1200,1200) rotate(-180,164.31,152.97)" stroke-width="0.0001%">.<g class="blkclass2"><text transform="translate(-376,-253)" font-size="309.4">M1227</text></g></use>
          <use xlink:href="#$DorLib2D$00000001" x="274.055" y="200.893" transform="scale(900,900) scale(-1,-1) translate(-548.11,-401.79) rotate(-180,274.06,200.89)" stroke-width="0.0001%">.<g class="blkclass0"><text transform="translate(-490,613.75)" font-size="386.75">M0927</text></g></use>
          <path d="M198069.71,180228.43l0,-120" class="body" />
        </g>
      </g>
      <g id="assets" fill="none">
        <g id="rm-assets" class="rm-asset">
          <path id="15009;F03;302" d="M268099.71,162698.43l11380,0l0,11500l-11380,0z" />
          <path id="15009;F03;316" d="M190899.71,166998.43l0,3380l800,0l0,9850l6370,0l0,-120l2110,0l0,-13110z" />
          <path id="15009;F03;334-335" d="M262969.71,183738.43l0,6640l16510,0l0,-6640z" />
          <path id="15009;F03;312-313" d="M211979.71,174698.43l0,5900l10420,0l0,-5900z" />
          <path id="15009;F03;317" d="M191699.71,183738.43l0,3200l-800,0l0,3440l8230,0l0,-6640z" />
          <path id="15009;F03;326" d="M229879.71,183738.43l0,6140l7020,0l0,-6140z" />
          <path id="15009;F03;308-309" d="M233479.71,174698.43l0,5900l7020,0l0,-5900z" />
          <path id="15009;F03;306-307" d="M240679.71,174698.43l0,5900l6920,0l0,-5900z" />
          <path id="15009;F03;311" d="M222779.71,174698.43l0,5900l6920,0l0,-5900z" />
          <path id="15009;F03;301" d="M273479.71,174698.43l0,5900l6000,0l0,-5900z" />
          <path id="15009;F03;319" d="M202749.71,183738.43l0,6640l4660,0l0,-6640z" />
          <path id="15009;F03;314" d="M203589.71,174698.43l0,5900l3820,0l0,-5900z" />
          <path id="15009;F03;318" d="M199249.71,183738.43l0,6640l3380,0l0,-6640z" />
          <path id="15009;F03;325" d="M226279.71,183738.43l0,6140l3420,0l0,-6140z" />
          <path id="15009;F03;331" d="M251479.71,183738.43l0,6140l3420,0l0,-6140z" />
          <path id="15009;F03;332" d="M255079.71,183738.43l0,6140l3420,0l0,-6140z" />
          <path id="15009;F03;322" d="M215479.71,183738.43l0,6140l3420,0l0,-6140z" />
          <path id="15009;F03;321" d="M211879.71,183738.43l0,6140l3420,0l0,-6140z" />
          <path id="15009;F03;328" d="M240691.71,183738.43l-12,6140l3420,0l0,-6140z" />
          <path id="15009;F03;327" d="M237079.71,183738.43l0,6140l3408,0l0,-6140l-3408,0z" />
          <path id="15009;F03;330" d="M247979.71,183738.43l0,6140l3320,0l0,-6140z" />
          <path id="15009;F03;323" d="M219079.71,183738.43l0,6140l3320,0l0,-6140z" />
          <path id="15009;F03;324" d="M222779.71,183738.43l0,6140l3320,0l0,-6140z" />
          <path id="15009;F03;329" d="M244279.71,183738.43l0,6140l3320,0l0,-6140z" />
          <path id="15009;F03;310" d="M229879.71,174698.43l0,5900l3420,0l0,-5900z" />
          <path id="15009;F03;303" d="M255079.71,174698.43l-30,5900l3350,0l0,-5900z" />
          <path id="15009;F03;304" d="M251579.71,174698.43l0,5900l3320,0l0,-5900z" />
          <path id="15009;F03;333" d="M258679.71,183738.43l0,6140l3130,0l0,-6140z" />
          <path id="15009;F03;320" d="M208569.71,183738.43l0,6140l3130,0l0,-6140z" />
          <path id="15009;F03;305" d="M247979.71,174698.43l0,5900l3220,0l0,-5900z" />
          <path id="15009;F03;315" d="M200559.71,174698.43l0,5900l2650,0l0,-5900z" />
        </g>
      </g>
    </g>
    <g id="text" font-family="Arial" font-size="438.86524822695031" font-weight="normal" text-style="normal" text-anchor="start" dominant-baseline="alphabetical" fill="#FF7F00" xml:space="preserve">
      <g id="layer-body-text">
        <g transform="translate(209160.72,179318.43)">
          <text>上</text>
        </g>
        <g transform="translate(210727.58,179318.43)">
          <text>下</text>
        </g>
        <g transform="translate(260935.72,179318.43)">
          <text>上</text>
        </g>
        <g transform="translate(259372.58,179318.43)">
          <text>下</text>
        </g>
        <g transform="translate(209160.72,179318.43)">
          <text>上</text>
        </g>
        <g transform="translate(210727.58,179318.43)">
          <text>下</text>
        </g>
        <g transform="translate(260935.72,179318.43)">
          <text>上</text>
        </g>
        <g transform="translate(209160.72,179318.43)">
          <text>上</text>
        </g>
        <g transform="translate(210727.58,179318.43)">
          <text>下</text>
        </g>
        <g transform="translate(260935.72,179318.43)">
          <text>上</text>
        </g>
        <g transform="translate(209160.72,179318.43)">
          <text>上</text>
        </g>
        <g transform="translate(210727.58,179318.43)">
          <text>下</text>
        </g>
        <g transform="translate(260935.72,179318.43)">
          <text>上</text>
        </g>
        <g transform="translate(209160.72,179318.43)">
          <text>上</text>
        </g>
        <g transform="translate(210727.58,179318.43)">
          <text>下</text>
        </g>
        <g transform="translate(260935.72,179318.43)">
          <text>上</text>
        </g>
        <g transform="translate(201580.35,181528.34)" font-size="386.75">
          <text>FM0921</text>
        </g>
        <g transform="translate(202760.35,181528.34)">
          <text>乙</text>
        </g>
        <g transform="translate(293955.93,184563.45)" font-size="3.25">
          <text>{\fSimSun|b0|i0|c134|p2;首层}</text>
        </g>
      </g>
    </g>
    <g id="asset-labels" font-family="Arial" font-weight="bold" font-size="38.1em" text-anchor="middle">
      <g id="rm-labels">
        <g id="l-rm-15009;F03;302" transform="translate(273789.71,168448.43)">
          <text>302</text>
        </g>
        <g id="l-rm-15009;F03;316" transform="translate(195539.71,173613.43)">
          <text>316</text>
        </g>
        <g id="l-rm-15009;F03;334-335" transform="translate(271224.71,187058.43)">
          <text>334-335</text>
        </g>
        <g id="l-rm-15009;F03;312-313" transform="translate(217189.71,177648.43)">
          <text>312-313</text>
        </g>
        <g id="l-rm-15009;F03;317" transform="translate(195014.71,187058.43)">
          <text>317</text>
        </g>
        <g id="l-rm-15009;F03;326" transform="translate(233389.71,186808.43)">
          <text>326</text>
        </g>
        <g id="l-rm-15009;F03;308-309" transform="translate(236989.71,177648.43)">
          <text>308-309</text>
        </g>
        <g id="l-rm-15009;F03;306-307" transform="translate(244139.71,177648.43)">
          <text>306-307</text>
        </g>
        <g id="l-rm-15009;F03;311" transform="translate(226239.71,177648.43)">
          <text>311</text>
        </g>
        <g id="l-rm-15009;F03;301" transform="translate(276479.71,177648.43)">
          <text>301</text>
        </g>
        <g id="l-rm-15009;F03;319" transform="translate(205079.71,187058.43)">
          <text>319</text>
        </g>
        <g id="l-rm-15009;F03;314" transform="translate(205499.71,177648.43)">
          <text>314</text>
        </g>
        <g id="l-rm-15009;F03;318" transform="translate(200939.71,187058.43)">
          <text>318</text>
        </g>
        <g id="l-rm-15009;F03;325" transform="translate(227989.71,186808.43)">
          <text>325</text>
        </g>
        <g id="l-rm-15009;F03;331" transform="translate(253189.71,186808.43)">
          <text>331</text>
        </g>
        <g id="l-rm-15009;F03;332" transform="translate(256789.71,186808.43)">
          <text>332</text>
        </g>
        <g id="l-rm-15009;F03;322" transform="translate(217189.71,186808.43)">
          <text>322</text>
        </g>
        <g id="l-rm-15009;F03;321" transform="translate(213589.71,186808.43)">
          <text>321</text>
        </g>
        <g id="l-rm-15009;F03;328" transform="translate(242389.71,186808.43)">
          <text>328</text>
        </g>
        <g id="l-rm-15009;F03;327" transform="translate(238783.71,186808.43)">
          <text>327</text>
        </g>
        <g id="l-rm-15009;F03;330" transform="translate(249639.71,186808.43)">
          <text>330</text>
        </g>
        <g id="l-rm-15009;F03;323" transform="translate(220739.71,186808.43)">
          <text>323</text>
        </g>
        <g id="l-rm-15009;F03;324" transform="translate(224439.71,186808.43)">
          <text>324</text>
        </g>
        <g id="l-rm-15009;F03;329" transform="translate(245939.71,186808.43)">
          <text>329</text>
        </g>
        <g id="l-rm-15009;F03;310" transform="translate(231589.71,177648.43)">
          <text>310</text>
        </g>
        <g id="l-rm-15009;F03;303" transform="translate(256724.71,177648.43)">
          <text>303</text>
        </g>
        <g id="l-rm-15009;F03;304" transform="translate(253239.71,177648.43)">
          <text>304</text>
        </g>
        <g id="l-rm-15009;F03;333" transform="translate(260244.71,186808.43)">
          <text>333</text>
        </g>
        <g id="l-rm-15009;F03;320" transform="translate(210134.71,186808.43)">
          <text>320</text>
        </g>
        <g id="l-rm-15009;F03;305" transform="translate(249589.71,177648.43)">
          <text>305</text>
        </g>
        <g id="l-rm-15009;F03;315" transform="translate(201884.71,177648.43)">
          <text>315</text>
        </g>
      </g>
    </g>
  </g>
</svg>