<svg version="1.1" xmlns="http://www.w3.org/2000/svg" xmlns:xlink="http://www.w3.org/1999/xlink" viewBox="249965.57 91177.31 90661 30470">
  <style>.i0 { stroke:#000000;   } .body { stroke:#ff7f00;   } .rm { stroke:#00ffff;   } .pub_wall { stroke:#c0c0c0;   } .rm-asset { stroke:#0000ff;   fill:#EEEEEE; fill-opacity:1;} .rmtc-asset { stroke:#0000ff;   } .rmtc { stroke:#00ffff;   } .rm-assettxt { stroke:#0000ff;   } .rmtc-assettxt { stroke:#0000ff;   } .cnc-0 { stroke:#00ffff;  stroke-dasharray:0; fill:#cccccc; fill-opacity:1;} .cnc-1 { stroke:#00ffff; stroke-width:100; stroke-dasharray:0; fill:#cccccc; fill-opacity:1;} .cnc-2 { stroke:#000000; stroke-width:143.499999999767; stroke-dasharray:0; fill:#cccccc; fill-opacity:1;} .cnc-3 { stroke:#ff7f00;  stroke-dasharray:0; } .cnc-4 { stroke:#000000;  stroke-dasharray:0; } .cnc-5 { stroke:#000000; stroke-width:86.0999999998603; stroke-dasharray:0; } .blkclass0 { stroke:#000000;  stroke-width:0.02;  fill:#000000; fill-opacity:1; font-family:Arial; font-size:386.75; font-weight:normal; text-style:normal; text-anchor:start;}</style>
  <view id="defaultView" viewBox="249965.57 91177.31 90661 30470" />
  <defs>
    <symbol id="$TCHSYS$WIN2D_1500x500" overflow="visible" class="i0">
      <path d="M-750,-250l1500,0" />
      <path d="M-750,250l1500,0" />
      <path d="M750,83.33l-1500,0" />
      <path d="M750,-83.33l-1500,0" />
      <path d="M-750,-250l0,500" />
      <path d="M750,-250l0,500" />
    </symbol>
    <symbol id="$TCHSYS$WIN2D_2000x500" overflow="visible" class="i0">
      <path d="M-1000,-250l2000,0" />
      <path d="M-1000,250l2000,0" />
      <path d="M1000,83.33l-2000,0" />
      <path d="M1000,-83.33l-2000,0" />
      <path d="M-1000,-250l0,500" />
      <path d="M1000,-250l0,500" />
    </symbol>
    <symbol id="$DorLib2D$00000002" overflow="visible" class="i0">
      <path d="M-0.5,0l0,-0.49" />
      <path d="M-0.48,0l0,-0.49" />
      <path d="M-0.5,0l0.02,0" />
      <path d="M-0.48,-0.49l-0.02,0" />
      <path d="M-0.48,-0.49a0.49,0.49 0 0,1 0.48,0.49" />
      <path d="M0,0a0.49,0.49 0 0,1 0.48,-0.49" />
      <path d="M0.48,0l0,-0.49" />
      <path d="M0.5,0l0,-0.49" />
      <path d="M0.48,-0.49l0.02,0" />
      <path d="M0.5,0l-0.02,0" />
    </symbol>
    <symbol id="$DorLib2D$00000001" overflow="visible" class="i0">
      <path d="M0.45,-0.98l0.05,0" />
      <path d="M0.5,0l-0.05,0" />
      <path d="M-0.5,0a0.98,0.98 0 0,1 0.95,-0.97" />
      <path d="M0.5,0l0,-0.98" />
      <path d="M0.45,0l0,-0.98" />
    </symbol>
    <symbol id="$TCHSYS$WIN2D_1200x500" overflow="visible" class="i0">
      <path d="M-600,-250l1200,0" />
      <path d="M-600,250l1200,0" />
      <path d="M600,83.33l-1200,0" />
      <path d="M600,-83.33l-1200,0" />
      <path d="M-600,-250l0,500" />
      <path d="M600,-250l0,500" />
    </symbol>
    <symbol id="$TCHSYS$WIN2D_2000x380" overflow="visible" class="i0">
      <path d="M-1000,-190l2000,0" />
      <path d="M-1000,190l2000,0" />
      <path d="M1000,63.33l-2000,0" />
      <path d="M1000,-63.33l-2000,0" />
      <path d="M-1000,-190l0,380" />
      <path d="M1000,-190l0,380" />
    </symbol>
  </defs>
  <g id="viewer">
    <g id="mirror" transform="scale(1, 1)" stroke-width="0.09%">
      <g id="background" fill="none">
        <g id="layer-0-fills" class="cnc-0">
          <path d="M232692.41,137495.72l126100,0l0,-59400l-126100,0z" />
          <path d="M235192.41,136495.72l122600,0l0,-57400l-122600,0z" class="cnc-1" />
          <path d="M357792.41,79095.72l-5166,0l0,57400l5166,0z" class="cnc-2" />
        </g>
        <g id="layer-RM-fills" class="rm">
          <path d="M257290.64,92105.72l2700,0l0,5960l-2700,0z" />
          <path d="M257290.64,98445.72l2700,0l0,5960l-2700,0z" />
          <path d="M264490.64,104905.72l3030,0l0,5900l-1503.17,0l0,-819.83l-1526.83,0z" />
          <path d="M264490.64,110185.88l1326.83,0l0,619.83l-1326.83,0z" />
          <path d="M268680.64,104905.72l3030,0l0,4280.17l-1526.83,0l0,1619.83l-1503.17,0z" />
          <path d="M270383.81,109385.88l1326.83,0l0,1419.83l-1326.83,0z" />
          <path d="M318890.64,104905.72l3030,0l0,5900l-1503.17,0l0,-1619.83l-1526.83,0z" />
          <path d="M318890.64,109385.88l1326.83,0l0,1419.83l-1326.83,0z" />
          <path d="M324783.81,110185.88l1326.83,0l0,619.83l-1326.83,0z" />
          <path d="M324583.81,110805.72l0,-819.83l1526.83,0l0,-5080.17l-3030,0l0,5900z" />
          <path d="M330610.64,97205.72l2700,0l0,6700l-2700,0z" />
        </g>
        <g id="layer-body" class="cnc-3">
          <path d="M260290.64,106405.72l2020,0" />
          <path d="M260290.64,106345.72l2020,0" />
          <path d="M262610.64,106705.72l0,2300" />
          <path d="M262670.64,106705.72l0,2300" />
          <path d="M262310.64,106405.72a300,300 0 0,1 300,300" />
          <path d="M262310.64,106345.72a360,360 0 0,1 360,360" />
          <path d="M260290.64,109305.72l2020,0" />
          <path d="M260290.64,109365.72l2020,0" />
          <path d="M262610.64,109005.72a300,300 0 0,1 -300,300" />
          <path d="M262670.64,109005.72a360,360 0 0,1 -360,360" />
          <path d="M262610.64,106405.72l1500,0" />
          <path d="M262610.64,106705.72l1500,0" />
          <path d="M262610.64,107005.72l1500,0" />
          <path d="M262610.64,107305.72l1500,0" />
          <path d="M262610.64,107605.72l1500,0" />
          <path d="M262610.64,107905.72l1500,0" />
          <path d="M262610.64,108205.72l1500,0" />
          <path d="M262610.64,108505.72l1500,0" />
          <path d="M262610.64,108805.72l1500,0" />
          <path d="M262610.64,109105.72l1500,0" />
          <path d="M262610.64,109405.72l1500,0" />
          <path d="M262610.64,106405.72l0,-1500" />
          <path d="M262310.64,106405.72l0,-1500" />
          <path d="M262010.64,106405.72l0,-1500" />
          <path d="M261710.64,106405.72l0,-1500" />
          <path d="M261410.64,106405.72l0,-1500" />
          <path d="M261110.64,106405.72l0,-1500" />
          <path d="M260810.64,106405.72l0,-1500" />
          <path d="M260510.64,106405.72l0,-1500" />
          <path d="M260210.64,106405.72l0,-1500" />
          <path d="M262610.64,109405.72l0,1400" />
          <path d="M262310.64,109305.72l0,1500" />
          <path d="M262010.64,109305.72l0,1500" />
          <path d="M261710.64,109305.72l0,1500" />
          <path d="M261410.64,109305.72l0,1500" />
          <path d="M261110.64,109305.72l0,1500" />
          <path d="M260810.64,109305.72l0,1500" />
          <path d="M260510.64,109305.72l0,1500" />
          <path d="M260210.64,109305.72l0,1500" />
          <path d="M330310.64,106405.72l-2020,0" />
          <path d="M330310.64,106345.72l-2020,0" />
          <path d="M327990.64,106705.72l0,2300" />
          <path d="M327930.64,106705.72l0,2300" />
          <path d="M327990.64,106705.72a300,300 0 0,1 300,-300" />
          <path d="M327930.64,106705.72a360,360 0 0,1 360,-360" />
          <path d="M330310.64,109305.72l-2020,0" />
          <path d="M330310.64,109365.72l-2020,0" />
          <path d="M328290.64,109305.72a300,300 0 0,1 -300,-300" />
          <path d="M328290.64,109365.72a360,360 0 0,1 -360,-360" />
          <path d="M327990.64,106405.72l-1500,0" />
          <path d="M327990.64,106705.72l-1500,0" />
          <path d="M327990.64,107005.72l-1500,0" />
          <path d="M327990.64,107305.72l-1500,0" />
          <path d="M327990.64,107605.72l-1500,0" />
          <path d="M327990.64,107905.72l-1500,0" />
          <path d="M327990.64,108205.72l-1500,0" />
          <path d="M327990.64,108505.72l-1500,0" />
          <path d="M327990.64,108805.72l-1500,0" />
          <path d="M327990.64,109105.72l-1500,0" />
          <path d="M327990.64,109405.72l-1500,0" />
          <path d="M327990.64,106405.72l0,-1500" />
          <path d="M328290.64,106405.72l0,-1500" />
          <path d="M328590.64,106405.72l0,-1500" />
          <path d="M328890.64,106405.72l0,-1500" />
          <path d="M329190.64,106405.72l0,-1500" />
          <path d="M329490.64,106405.72l0,-1500" />
          <path d="M329790.64,106405.72l0,-1500" />
          <path d="M330090.64,106405.72l0,-1500" />
          <path d="M330390.64,106405.72l0,-1500" />
          <path d="M327990.64,109405.72l0,1400" />
          <path d="M328290.64,109305.72l0,1500" />
          <path d="M328590.64,109305.72l0,1500" />
          <path d="M328890.64,109305.72l0,1500" />
          <path d="M329190.64,109305.72l0,1500" />
          <path d="M329490.64,109305.72l0,1500" />
          <path d="M329790.64,109305.72l0,1500" />
          <path d="M330090.64,109305.72l0,1500" />
          <path d="M330390.64,109305.72l0,1500" />
          <path d="M260711.03,113565.72l0,380" />
          <path d="M251010.64,92105.72l990,0" />
          <path d="M252000.64,92105.72l0,-500" />
          <path d="M252000.64,91605.72l-1490,0" />
          <path d="M257100.64,91605.72l-600,0" />
          <path d="M256500.64,91605.72l0,500" />
          <path d="M256500.64,92105.72l410,0" />
          <path d="M253500.64,92105.72l1000,0" />
          <path d="M254500.64,92105.72l0,-500" />
          <path d="M254500.64,91605.72l-1000,0" />
          <path d="M253500.64,91605.72l0,500" />
          <use xlink:href="#$TCHSYS$WIN2D_1500x500" x="252750.64" y="91855.72" transform="scale(1,-1) translate(0,-183711.44)">.<g class="blkclass0"><text transform="translate(-580,-376.25)" font-size="386.75">MC1524</text></g></use>
          <use xlink:href="#$TCHSYS$WIN2D_2000x500" x="255500.64" y="91855.72" transform="scale(1,-1) translate(0,-183711.44)">.<g class="blkclass0"><text transform="translate(-600,-376.25)" font-size="386.75">MC2024</text></g></use>
          <path d="M259990.64,92105.72l0,3650" />
          <path d="M259990.64,95755.72l500,0" />
          <path d="M260490.64,95755.72l0,-4150" />
          <path d="M260490.64,98255.72l0,-500" />
          <path d="M260490.64,97755.72l-500,0" />
          <path d="M259990.64,97755.72l0,310" />
          <use xlink:href="#$TCHSYS$WIN2D_2000x500" x="260240.64" y="96755.72" transform="scale(-1,1) translate(-520481.28,0) rotate(-90,260240.64,96755.72)">.<g class="blkclass0"><text transform="rotate(-90 755.96,600) translate(755.96,600)" font-size="386.75">MC2024</text></g></use>
          <path d="M330610.64,97205.72l990,0" />
          <path d="M331600.64,97205.72l0,-500" />
          <path d="M331600.64,96705.72l-1490,0" />
          <path d="M333500.64,96705.72l-400,0" />
          <path d="M333100.64,96705.72l0,500" />
          <path d="M333100.64,97205.72l210,0" />
          <use xlink:href="#$TCHSYS$WIN2D_1500x500" x="332350.64" y="96955.72" transform="scale(1,-1) translate(0,-193911.44) rotate(-360,332350.64,96955.72)">.<g class="blkclass0"><text transform="rotate(0 -580,-501.25) translate(-580,-501.25)" font-size="386.75">MC1524</text></g></use>
          <path d="M321920.64,119785.72l-420,0" />
          <path d="M321500.64,119785.72l0,500" />
          <path d="M321500.64,120285.72l920,0" />
          <path d="M318700.64,120285.72l800,0" />
          <path d="M319500.64,120285.72l0,-500" />
          <path d="M319500.64,119785.72l-610,0" />
          <use xlink:href="#$TCHSYS$WIN2D_2000x500" x="320500.64" y="120035.72" transform="scale(1,-1) translate(0,-240071.44) rotate(-180,320500.64,120035.72)">.<g class="blkclass0"><text transform="translate(-600,798.75)" font-size="386.75">MC2024</text></g></use>
          <path d="M267520.64,120585.72l-1970,0" />
          <path d="M265550.64,120585.72l0,500" />
          <path d="M265550.64,121085.72l2470,0" />
          <path d="M262900.64,121085.72l650,0" />
          <path d="M263550.64,121085.72l0,-500" />
          <path d="M263550.64,120585.72l-460,0" />
          <use xlink:href="#$TCHSYS$WIN2D_2000x500" x="264550.64" y="120835.72" transform="scale(-1,-1) translate(-529101.28,-241671.44) rotate(-180,264550.64,120835.72)">.<g class="blkclass0"><text transform="translate(-600,798.75)" font-size="386.75">MC2024</text></g></use>
          <path d="M268020.64,104405.72l0,6780" />
          <path d="M267520.64,104905.72l0,5900" />
          <path d="M251010.64,104405.72l2099.96,0" />
          <path d="M251010.64,104905.72l2099.96,0" />
          <use xlink:href="#$DorLib2D$00000002" x="171.4" y="68.904" transform="scale(1500,1500) rotate(-90,171.4,68.9)" stroke-width="0.0001%">.</use>
          <path d="M268180.64,120285.72l0,-6720" />
          <path d="M268680.64,119785.72l0,-5840" />
          <path d="M322580.64,121085.72l0,-7520" />
          <path d="M323080.64,120585.72l0,-6640" />
          <path d="M339590.64,120585.72l-2040,0" />
          <path d="M337550.64,120585.72l0,500" />
          <path d="M337550.64,121085.72l2540,0" />
          <path d="M322580.64,121085.72l2470,0" />
          <path d="M325050.64,121085.72l0,-500" />
          <path d="M325050.64,120585.72l-1970,0" />
          <path d="M335550.64,120585.72l-1500,0" />
          <path d="M334050.64,120585.72l0,500" />
          <path d="M334050.64,121085.72l1500,0" />
          <path d="M335550.64,121085.72l0,-500" />
          <path d="M332050.64,120585.72l-1500,0" />
          <path d="M330550.64,120585.72l0,500" />
          <path d="M330550.64,121085.72l1500,0" />
          <path d="M332050.64,121085.72l0,-500" />
          <path d="M328550.64,120585.72l-1500,0" />
          <path d="M327050.64,120585.72l0,500" />
          <path d="M327050.64,121085.72l1500,0" />
          <path d="M328550.64,121085.72l0,-500" />
          <use xlink:href="#$TCHSYS$WIN2D_2000x500" x="336550.64" y="120835.72" transform="scale(1,-1) translate(0,-241671.44) rotate(-180,336550.64,120835.72)">.<g class="blkclass0"><text transform="translate(-600,798.75)" font-size="386.75">MC2024</text></g></use>
          <use xlink:href="#$TCHSYS$WIN2D_2000x500" x="333050.64" y="120835.72" transform="scale(1,-1) translate(0,-241671.44) rotate(-180,333050.64,120835.72)">.<g class="blkclass0"><text transform="translate(-600,798.75)" font-size="386.75">MC2024</text></g></use>
          <use xlink:href="#$TCHSYS$WIN2D_2000x500" x="329550.64" y="120835.72" transform="scale(1,-1) translate(0,-241671.44) rotate(-180,329550.64,120835.72)">.<g class="blkclass0"><text transform="translate(-600,798.75)" font-size="386.75">MC2024</text></g></use>
          <use xlink:href="#$TCHSYS$WIN2D_2000x500" x="326050.64" y="120835.72" transform="scale(1,-1) translate(0,-241671.44) rotate(-180,326050.64,120835.72)">.<g class="blkclass0"><text transform="translate(-600,798.75)" font-size="386.75">MC2024</text></g></use>
          <use xlink:href="#$TCHSYS$WIN2D_2000x500" x="339840.64" y="115255.72" transform="scale(1,-1) translate(0,-230511.44) rotate(-90,339840.64,115255.72)">.<g class="blkclass0"><text transform="rotate(-90 717.86,600) translate(717.86,600)" font-size="386.75">MC2024</text></g></use>
          <use xlink:href="#$DorLib2D$00000002" x="184.867" y="75.837" transform="scale(1500,1500) scale(1,-1) translate(0,-151.67)" stroke-width="0.0001%">.<g class="blkclass0"><text transform="translate(-470,-358.98)" font-size="386.75">M1527</text></g></use>
          <path d="M268680.64,113945.72l250,0" />
          <path d="M268930.64,113945.72l0,-380" />
          <path d="M268930.64,113565.72l-750,0" />
          <path d="M271900.64,113565.72l-1970,0" />
          <path d="M269930.64,113565.72l0,380" />
          <path d="M269930.64,113945.72l1780,0" />
          <use xlink:href="#$DorLib2D$00000001" x="269.431" y="113.756" transform="scale(1000,1000) scale(-1,-1) translate(-538.86,-227.51)" stroke-width="0.0001%">.<g class="blkclass0"><text transform="translate(-470,-316.25)" font-size="386.75">M1027</text></g></use>
          <use xlink:href="#$DorLib2D$00000002" x="216.22" y="75.837" transform="scale(1500,1500) scale(1,-1) translate(0,-151.67)" stroke-width="0.0001%">.<g class="blkclass0"><text transform="translate(-470,-316.25)" font-size="386.75">M1527</text></g></use>
          <path d="M260210.64,111185.72l1307.17,0" />
          <path d="M261517.81,111185.72l0,-380" />
          <path d="M261517.81,110805.72l-1307.17,0" />
          <path d="M260210.64,110805.72l0,380" />
          <path d="M264110.64,110805.72l-592.83,0" />
          <path d="M263517.81,110805.72l0,380" />
          <path d="M263517.81,111185.72l782.83,0" />
          <path d="M251010.64,120585.72l0,-4070" />
          <path d="M251010.64,116515.72l-500,0" />
          <path d="M250510.64,116515.72l0,4570" />
          <path d="M250510.64,113755.72l0,760" />
          <path d="M250510.64,114515.72l500,0" />
          <path d="M251010.64,114515.72l0,-570" />
          <use xlink:href="#$TCHSYS$WIN2D_2000x500" x="250760.64" y="115515.72" transform="rotate(-90,250760.64,115515.72)">.<g class="blkclass0"><text transform="rotate(-90 -420.84,600) translate(-420.84,600)" font-size="386.75">MC2024</text></g></use>
          <path d="M268180.64,111185.72l700,0" />
          <path d="M268880.64,111185.72l0,-380" />
          <path d="M268880.64,110805.72l-200,0" />
          <path d="M270183.81,110805.72l-403.17,0" />
          <path d="M269780.64,110805.72l0,380" />
          <path d="M269780.64,111185.72l503.17,0" />
          <use xlink:href="#$DorLib2D$00000001" x="299.256" y="123.329" transform="scale(900,900) scale(-1,1) translate(-598.51,0)" stroke-width="0.0001%">.<g class="blkclass0"><text transform="translate(-445,613.75)" font-size="386.75">M0921</text></g></use>
          <path d="M322580.64,111185.72l700,0" />
          <path d="M323280.64,111185.72l0,-380" />
          <path d="M323280.64,110805.72l-200,0" />
          <path d="M324583.81,110805.72l-403.17,0" />
          <path d="M324180.64,110805.72l0,380" />
          <path d="M324180.64,111185.72l503.17,0" />
          <use xlink:href="#$DorLib2D$00000001" x="359.701" y="123.329" transform="scale(900,900) scale(-1,1) translate(-719.4,0)" stroke-width="0.0001%">.<g class="blkclass0"><text transform="translate(-445,613.75)" font-size="386.75">M0921</text></g></use>
          <path d="M322580.64,111185.72l0,-6780" />
          <path d="M323080.64,110805.72l0,-5900" />
          <path d="M268180.64,111185.72l0,-6780" />
          <path d="M268680.64,110805.72l0,-5900" />
          <path d="M322420.64,104405.72l0,6780" />
          <path d="M321920.64,104905.72l0,5900" />
          <path d="M268680.64,104905.72l420,0" />
          <path d="M269100.64,104905.72l0,-500" />
          <path d="M269100.64,104405.72l-920,0" />
          <path d="M271900.64,104405.72l-800,0" />
          <path d="M271100.64,104405.72l0,500" />
          <path d="M271100.64,104905.72l610,0" />
          <use xlink:href="#$TCHSYS$WIN2D_2000x500" x="270100.64" y="104655.72" transform="scale(-1,-1) translate(-540201.28,-209311.44)">.<g class="blkclass0"><text transform="translate(-600,-376.25)" font-size="386.75">MC2024</text></g></use>
          <path d="M330110.64,104405.72l0,-310" />
          <path d="M330610.64,104905.72l0,-620" />
          <path d="M323080.64,104905.72l420,0" />
          <path d="M323500.64,104905.72l0,-500" />
          <path d="M323500.64,104405.72l-920,0" />
          <path d="M326300.64,104405.72l-800,0" />
          <path d="M325500.64,104405.72l0,500" />
          <path d="M325500.64,104905.72l610,0" />
          <use xlink:href="#$TCHSYS$WIN2D_2000x500" x="324500.64" y="104655.72" transform="scale(-1,-1) translate(-649001.28,-209311.44)">.<g class="blkclass0"><text transform="translate(-600,-376.25)" font-size="386.75">MC2024</text></g></use>
          <path d="M339590.64,97205.72l0,4250" />
          <path d="M339590.64,101455.72l500,0" />
          <path d="M340090.64,101455.72l0,-4750" />
          <path d="M340090.64,104095.72l0,-640" />
          <path d="M340090.64,103455.72l-500,0" />
          <path d="M339590.64,103455.72l0,450" />
          <use xlink:href="#$TCHSYS$WIN2D_2000x500" x="339840.64" y="102455.72" transform="scale(-1,-1) translate(-679681.28,-204911.44) rotate(-270,339840.64,102455.72)">.<g class="blkclass0"><text transform="rotate(-90 738.33,600) translate(738.33,600)" font-size="386.75">MC2024</text></g></use>
          <path d="M271710.64,119785.72l-610,0" />
          <path d="M271100.64,119785.72l0,500" />
          <path d="M271100.64,120285.72l800,0" />
          <path d="M268180.64,120285.72l920,0" />
          <path d="M269100.64,120285.72l0,-500" />
          <path d="M269100.64,119785.72l-420,0" />
          <use xlink:href="#$TCHSYS$WIN2D_2000x500" x="270100.64" y="120035.72" transform="scale(1,-1) translate(0,-240071.44) rotate(-180,270100.64,120035.72)">.<g class="blkclass0"><text transform="translate(-600,798.75)" font-size="386.75">MC2024</text></g></use>
          <path d="M271710.64,119785.72l0,-5840" />
          <path d="M272090.64,119785.72l0,-5840" />
          <use xlink:href="#$TCHSYS$WIN2D_2000x500" x="273700.64" y="104655.72" transform="scale(-1,-1) translate(-547401.28,-209311.44)">.<g class="blkclass0"><text transform="translate(-600,-376.25)" font-size="386.75">MC2024</text></g></use>
          <use xlink:href="#$TCHSYS$WIN2D_2000x500" x="277300.64" y="104655.72" transform="scale(-1,-1) translate(-554601.28,-209311.44)">.<g class="blkclass0"><text transform="translate(-600,-376.25)" font-size="386.75">MC2024</text></g></use>
          <use xlink:href="#$TCHSYS$WIN2D_2000x500" x="280900.64" y="104655.72" transform="scale(1,-1) translate(0,-209311.44)">.<g class="blkclass0"><text transform="translate(-600,-376.25)" font-size="386.75">MC2024</text></g></use>
          <path d="M271710.64,110805.72l0,-1419.83" />
          <path d="M272090.64,110805.72l0,-1519.83" />
          <path d="M262710.64,120585.72l-660,0" />
          <path d="M262050.64,120585.72l0,500" />
          <path d="M262050.64,121085.72l850,0" />
          <path d="M259300.64,121085.72l750,0" />
          <path d="M260050.64,121085.72l0,-500" />
          <path d="M260050.64,120585.72l-675,0" />
          <use xlink:href="#$TCHSYS$WIN2D_2000x500" x="254050.64" y="120835.72" transform="scale(-1,-1) translate(-508101.28,-241671.44) rotate(-180,254050.64,120835.72)">.<g class="blkclass0"><text transform="translate(-600,798.75)" font-size="386.75">MC2024</text></g></use>
          <use xlink:href="#$TCHSYS$WIN2D_2000x500" x="257550.64" y="120835.72" transform="scale(-1,-1) translate(-515101.28,-241671.44) rotate(-180,257550.64,120835.72)">.<g class="blkclass0"><text transform="translate(-600,798.75)" font-size="386.75">MC2024</text></g></use>
          <use xlink:href="#$TCHSYS$WIN2D_2000x500" x="261050.64" y="120835.72" transform="scale(-1,-1) translate(-522101.28,-241671.44) rotate(-180,261050.64,120835.72)">.<g class="blkclass0"><text transform="translate(-600,798.75)" font-size="386.75">MC2024</text></g></use>
          <path d="M263090.64,113945.72l3180,0" />
          <path d="M266270.64,113945.72l0,-380" />
          <path d="M266270.64,113565.72l-3370,0" />
          <path d="M268020.64,113565.72l-750,0" />
          <path d="M267270.64,113565.72l0,380" />
          <path d="M267270.64,113945.72l250,0" />
          <use xlink:href="#$DorLib2D$00000001" x="266.771" y="113.756" transform="scale(1000,1000) scale(1,-1) translate(0,-227.51)" stroke-width="0.0001%">.<g class="blkclass0"><text transform="translate(-470,-316.25)" font-size="386.75">M1027</text></g></use>
          <path d="M263090.64,120585.72l0,-6340" />
          <path d="M262710.64,114245.72l0,6340" />
          <path d="M262710.64,113945.72l0,300" />
          <path d="M263090.64,114245.72l0,-300" />
          <use xlink:href="#$TCHSYS$WIN2D_2000x500" x="277300.64" y="120035.72" transform="scale(1,-1) translate(0,-240071.44) rotate(-180,277300.64,120035.72)">.<g class="blkclass0"><text transform="translate(-600,798.75)" font-size="386.75">MC2024</text></g></use>
          <use xlink:href="#$TCHSYS$WIN2D_2000x500" x="273700.64" y="120035.72" transform="scale(1,-1) translate(0,-240071.44) rotate(-180,273700.64,120035.72)">.<g class="blkclass0"><text transform="translate(-600,798.75)" font-size="386.75">MC2024</text></g></use>
          <use xlink:href="#$TCHSYS$WIN2D_2000x500" x="280900.64" y="120035.72" transform="scale(1,-1) translate(0,-240071.44) rotate(-180,280900.64,120035.72)">.<g class="blkclass0"><text transform="translate(-600,798.75)" font-size="386.75">MC2024</text></g></use>
          <path d="M272090.64,113945.72l4460,0" />
          <path d="M276550.64,113945.72l0,-380" />
          <path d="M276550.64,113565.72l-4650,0" />
          <path d="M279100.64,113565.72l-1050,0" />
          <path d="M278050.64,113565.72l0,380" />
          <path d="M278050.64,113945.72l975,0" />
          <use xlink:href="#$DorLib2D$00000001" x="283.576" y="113.756" transform="scale(1000,1000) scale(-1,-1) translate(-567.15,-227.51) rotate(-360,283.58,113.76)" stroke-width="0.0001%">.<g class="blkclass0"><text transform="translate(-470,-316.25)" font-size="386.75">M1027</text></g></use>
          <path d="M286110.64,119785.72l-610,0" />
          <path d="M285500.64,119785.72l0,500" />
          <path d="M285500.64,120285.72l800,0" />
          <path d="M279100.64,120285.72l800,0" />
          <path d="M279900.64,120285.72l0,-500" />
          <path d="M279900.64,119785.72l-725,0" />
          <path d="M283500.64,119785.72l-1600,0" />
          <path d="M281900.64,119785.72l0,500" />
          <path d="M281900.64,120285.72l1600,0" />
          <path d="M283500.64,120285.72l0,-500" />
          <use xlink:href="#$TCHSYS$WIN2D_2000x500" x="284500.64" y="120035.72" transform="scale(1,-1) translate(0,-240071.44) rotate(-180,284500.64,120035.72)">.<g class="blkclass0"><text transform="translate(-600,798.75)" font-size="386.75">MC2024</text></g></use>
          <path d="M286110.64,119785.72l0,-5840" />
          <path d="M286490.64,119785.72l0,-5840" />
          <use xlink:href="#$TCHSYS$WIN2D_2000x500" x="288100.64" y="120035.72" transform="scale(1,-1) translate(0,-240071.44) rotate(-180,288100.64,120035.72)">.<g class="blkclass0"><text transform="translate(-600,798.75)" font-size="386.75">MC2024</text></g></use>
          <path d="M286490.64,113945.72l250,0" />
          <path d="M286740.64,113945.72l0,-380" />
          <path d="M286740.64,113565.72l-440,0" />
          <path d="M289900.64,113565.72l-2160,0" />
          <path d="M287740.64,113565.72l0,380" />
          <path d="M287740.64,113945.72l2085,0" />
          <use xlink:href="#$DorLib2D$00000001" x="287.241" y="113.756" transform="scale(1000,1000) scale(-1,-1) translate(-574.48,-227.51) rotate(0,287.24,113.76)" stroke-width="0.0001%">.<g class="blkclass0"><text transform="rotate(0 -470,-316.25) translate(-470,-316.25)" font-size="386.75">M1027</text></g></use>
          <path d="M293310.64,119785.72l-610,0" />
          <path d="M292700.64,119785.72l0,500" />
          <path d="M292700.64,120285.72l800,0" />
          <path d="M289900.64,120285.72l800,0" />
          <path d="M290700.64,120285.72l0,-500" />
          <path d="M290700.64,119785.72l-725,0" />
          <use xlink:href="#$TCHSYS$WIN2D_2000x500" x="291700.64" y="120035.72" transform="scale(1,-1) translate(0,-240071.44) rotate(-180,291700.64,120035.72)">.<g class="blkclass0"><text transform="translate(-600,798.75)" font-size="386.75">MC2024</text></g></use>
          <path d="M293310.64,119785.72l0,-5840" />
          <path d="M293690.64,119785.72l0,-5840" />
          <use xlink:href="#$TCHSYS$WIN2D_2000x500" x="295300.64" y="120035.72" transform="scale(1,-1) translate(0,-240071.44) rotate(-180,295300.64,120035.72)">.<g class="blkclass0"><text transform="translate(-600,798.75)" font-size="386.75">MC2024</text></g></use>
          <use xlink:href="#$TCHSYS$WIN2D_2000x500" x="298900.64" y="120035.72" transform="scale(1,-1) translate(0,-240071.44) rotate(-180,298900.64,120035.72)">.<g class="blkclass0"><text transform="translate(-600,798.75)" font-size="386.75">MC2024</text></g></use>
          <path d="M293690.64,113945.72l250,0" />
          <path d="M293940.64,113945.72l0,-380" />
          <path d="M293940.64,113565.72l-440,0" />
          <path d="M304300.64,113565.72l-2225,0" />
          <path d="M302075.64,113565.72l0,380" />
          <path d="M302075.64,113945.72l2035,0" />
          <path d="M294940.64,113945.72l2535,0" />
          <path d="M297475.64,113945.72l0,-380" />
          <path d="M297475.64,113565.72l-2535,0" />
          <path d="M294940.64,113565.72l0,380" />
          <path d="M301075.64,113945.72l0,-380" />
          <path d="M301075.64,113565.72l-2600,0" />
          <path d="M298475.64,113565.72l0,380" />
          <use xlink:href="#$DorLib2D$00000001" x="294.441" y="113.756" transform="scale(1000,1000) scale(-1,-1) translate(-588.88,-227.51) rotate(-360,294.44,113.76)" stroke-width="0.0001%">.<g class="blkclass0"><text transform="translate(-470,-316.25)" font-size="386.75">M1027</text></g></use>
          <use xlink:href="#$DorLib2D$00000001" x="297.976" y="113.756" transform="scale(1000,1000) scale(-1,-1) translate(-595.95,-227.51) rotate(-360,297.98,113.76)" stroke-width="0.0001%">.<g class="blkclass0"><text transform="translate(-470,-316.25)" font-size="386.75">M1027</text></g></use>
          <use xlink:href="#$DorLib2D$00000001" x="301.576" y="113.756" transform="scale(1000,1000) scale(-1,-1) translate(-603.15,-227.51) rotate(-360,301.58,113.76)" stroke-width="0.0001%">.<g class="blkclass0"><text transform="translate(-470,-316.25)" font-size="386.75">M1027</text></g></use>
          <path d="M304110.64,119785.72l0,-5840" />
          <path d="M304490.64,119785.72l0,-5840" />
          <path d="M304110.64,119785.72l-610,0" />
          <path d="M303500.64,119785.72l0,500" />
          <path d="M303500.64,120285.72l800,0" />
          <path d="M293500.64,120285.72l800,0" />
          <path d="M294300.64,120285.72l0,-500" />
          <path d="M294300.64,119785.72l-610,0" />
          <path d="M301500.64,119785.72l-1600,0" />
          <path d="M299900.64,119785.72l0,500" />
          <path d="M299900.64,120285.72l1600,0" />
          <path d="M301500.64,120285.72l0,-500" />
          <path d="M297900.64,119785.72l-1600,0" />
          <path d="M296300.64,119785.72l0,500" />
          <path d="M296300.64,120285.72l1600,0" />
          <path d="M297900.64,120285.72l0,-500" />
          <use xlink:href="#$TCHSYS$WIN2D_2000x500" x="302500.64" y="120035.72" transform="scale(1,-1) translate(0,-240071.44) rotate(-180,302500.64,120035.72)">.<g class="blkclass0"><text transform="translate(-600,798.75)" font-size="386.75">MC2024</text></g></use>
          <path d="M318510.64,119785.72l0,-5840" />
          <path d="M318890.64,119785.72l0,-5840" />
          <path d="M318510.64,119785.72l-610,0" />
          <path d="M317900.64,119785.72l0,500" />
          <path d="M317900.64,120285.72l800,0" />
          <path d="M308025.64,120285.72l675,0" />
          <path d="M308700.64,120285.72l0,-500" />
          <path d="M308700.64,119785.72l-800,0" />
          <path d="M315900.64,119785.72l-1600,0" />
          <path d="M314300.64,119785.72l0,500" />
          <path d="M314300.64,120285.72l1600,0" />
          <path d="M315900.64,120285.72l0,-500" />
          <path d="M312300.64,119785.72l-1600,0" />
          <path d="M310700.64,119785.72l0,500" />
          <path d="M310700.64,120285.72l1600,0" />
          <path d="M312300.64,120285.72l0,-500" />
          <use xlink:href="#$TCHSYS$WIN2D_2000x500" x="316900.64" y="120035.72" transform="scale(1,-1) translate(0,-240071.44) rotate(-180,316900.64,120035.72)">.<g class="blkclass0"><text transform="translate(-600,798.75)" font-size="386.75">MC2024</text></g></use>
          <use xlink:href="#$TCHSYS$WIN2D_2000x500" x="313300.64" y="120035.72" transform="scale(1,-1) translate(0,-240071.44) rotate(-180,313300.64,120035.72)">.<g class="blkclass0"><text transform="translate(-600,798.75)" font-size="386.75">MC2024</text></g></use>
          <use xlink:href="#$TCHSYS$WIN2D_2000x500" x="309700.64" y="120035.72" transform="scale(1,-1) translate(0,-240071.44) rotate(-180,309700.64,120035.72)">.<g class="blkclass0"><text transform="translate(-600,798.75)" font-size="386.75">MC2024</text></g></use>
          <use xlink:href="#$TCHSYS$WIN2D_2000x500" x="306100.64" y="120035.72" transform="scale(1,-1) translate(0,-240071.44) rotate(-180,306100.64,120035.72)">.<g class="blkclass0"><text transform="translate(-600,798.75)" font-size="386.75">MC2024</text></g></use>
          <path d="M318890.64,113945.72l1110,0" />
          <path d="M320000.64,113945.72l0,-380" />
          <path d="M320000.64,113565.72l-1300,0" />
          <path d="M322420.64,113565.72l-1420,0" />
          <path d="M321000.64,113565.72l0,380" />
          <path d="M321000.64,113945.72l920,0" />
          <use xlink:href="#$DorLib2D$00000001" x="320.501" y="113.756" transform="scale(1000,1000) scale(-1,-1) translate(-641,-227.51)" stroke-width="0.0001%">.<g class="blkclass0"><text transform="translate(-470,-316.25)" font-size="386.75">M1027</text></g></use>
          <path d="M271900.64,111185.72l5825,0" />
          <path d="M277725.64,111185.72l0,-380" />
          <path d="M277725.64,110805.72l-5635,0" />
          <path d="M282625.64,110805.72l-3900,0" />
          <path d="M278725.64,110805.72l0,380" />
          <path d="M278725.64,111185.72l3975,0" />
          <use xlink:href="#$DorLib2D$00000001" x="285.361" y="110.996" transform="scale(1000,1000)" stroke-width="0.0001%">.<g class="blkclass0"><text transform="translate(-470,613.75)" font-size="386.75">M1027</text></g></use>
          <use xlink:href="#$DorLib2D$00000001" x="278.226" y="110.996" transform="scale(1000,1000)" stroke-width="0.0001%">.<g class="blkclass0"><text transform="translate(-470,613.75)" font-size="386.75">M1027</text></g></use>
          <path d="M272090.64,104905.72l610,0" />
          <path d="M272700.64,104905.72l0,-500" />
          <path d="M272700.64,104405.72l-800,0" />
          <path d="M282700.64,104405.72l-800,0" />
          <path d="M281900.64,104405.72l0,500" />
          <path d="M281900.64,104905.72l725,0" />
          <path d="M274700.64,104905.72l1600,0" />
          <path d="M276300.64,104905.72l0,-500" />
          <path d="M276300.64,104405.72l-1600,0" />
          <path d="M274700.64,104405.72l0,500" />
          <path d="M278300.64,104905.72l1600,0" />
          <path d="M279900.64,104905.72l0,-500" />
          <path d="M279900.64,104405.72l-1600,0" />
          <path d="M278300.64,104405.72l0,500" />
          <use xlink:href="#$TCHSYS$WIN2D_2000x500" x="284500.64" y="104655.72" transform="scale(1,-1) translate(0,-209311.44)">.<g class="blkclass0"><text transform="translate(-600,-376.25)" font-size="386.75">MC2024</text></g></use>
          <use xlink:href="#$TCHSYS$WIN2D_2000x500" x="288100.64" y="104655.72" transform="scale(1,-1) translate(0,-209311.44)">.<g class="blkclass0"><text transform="translate(-600,-376.25)" font-size="386.75">MC2024</text></g></use>
          <path d="M286110.64,110805.72l0,-5900" />
          <path d="M286490.64,110805.72l0,-5900" />
          <use xlink:href="#$TCHSYS$WIN2D_2000x500" x="291700.64" y="104655.72" transform="scale(1,-1) translate(0,-209311.44)">.<g class="blkclass0"><text transform="translate(-600,-376.25)" font-size="386.75">MC2024</text></g></use>
          <path d="M286300.64,111185.72l5150,0" />
          <path d="M291450.64,111185.72l0,-380" />
          <path d="M291450.64,110805.72l-4960,0" />
          <path d="M296910.64,110805.72l-4460,0" />
          <path d="M292450.64,110805.72l0,380" />
          <path d="M292450.64,111185.72l4650,0" />
          <path d="M286490.64,104905.72l610,0" />
          <path d="M287100.64,104905.72l0,-500" />
          <path d="M287100.64,104405.72l-800,0" />
          <path d="M297100.64,104405.72l-800,0" />
          <path d="M296300.64,104405.72l0,500" />
          <path d="M296300.64,104905.72l610,0" />
          <path d="M289100.64,104905.72l1600,0" />
          <path d="M290700.64,104905.72l0,-500" />
          <path d="M290700.64,104405.72l-1600,0" />
          <path d="M289100.64,104405.72l0,500" />
          <path d="M292700.64,104905.72l1600,0" />
          <path d="M294300.64,104905.72l0,-500" />
          <path d="M294300.64,104405.72l-1600,0" />
          <path d="M292700.64,104405.72l0,500" />
          <use xlink:href="#$TCHSYS$WIN2D_2000x500" x="295300.64" y="104655.72" transform="scale(1,-1) translate(0,-209311.44)">.<g class="blkclass0"><text transform="translate(-600,-376.25)" font-size="386.75">MC2024</text></g></use>
          <path d="M297100.64,111185.72l440,0" />
          <path d="M297540.64,110805.72l-250,0" />
          <use xlink:href="#$DorLib2D$00000001" x="301.776" y="110.996" transform="scale(1000,1000) scale(-1,1) translate(-603.55,0)" stroke-width="0.0001%">.<g class="blkclass0"><text transform="translate(-470,613.75)" font-size="386.75">M1027</text></g></use>
          <path d="M297290.64,104905.72l610,0" />
          <path d="M297900.64,104905.72l0,-500" />
          <path d="M297900.64,104405.72l-800,0" />
          <path d="M304300.64,104405.72l-800,0" />
          <path d="M303500.64,104405.72l0,500" />
          <path d="M303500.64,104905.72l610,0" />
          <path d="M299900.64,104905.72l1600,0" />
          <path d="M301500.64,104905.72l0,-500" />
          <path d="M301500.64,104405.72l-1600,0" />
          <path d="M299900.64,104405.72l0,500" />
          <use xlink:href="#$TCHSYS$WIN2D_2000x500" x="298900.64" y="104655.72" transform="scale(1,-1) translate(0,-209311.44)">.<g class="blkclass0"><text transform="translate(-600,-376.25)" font-size="386.75">MC2024</text></g></use>
          <use xlink:href="#$TCHSYS$WIN2D_2000x500" x="302500.64" y="104655.72" transform="scale(-1,-1) translate(-605001.28,-209311.44)">.<g class="blkclass0"><text transform="translate(-600,-376.25)" font-size="386.75">MC2024</text></g></use>
          <path d="M304300.64,111185.72l5643.69,0" />
          <path d="M317260.64,111185.72l0,-380" />
          <path d="M317260.64,110805.72l-6385,0" />
          <path d="M318510.64,110805.72l-250,0" />
          <path d="M318260.64,110805.72l0,380" />
          <path d="M318260.64,111185.72l440,0" />
          <use xlink:href="#$DorLib2D$00000001" x="317.761" y="110.996" transform="scale(1000,1000)" stroke-width="0.0001%">.<g class="blkclass0"><text transform="translate(-470,613.75)" font-size="386.75">M1027</text></g></use>
          <path d="M304490.64,104905.72l610,0" />
          <path d="M305100.64,104905.72l0,-500" />
          <path d="M305100.64,104405.72l-800,0" />
          <path d="M318700.64,104405.72l-800,0" />
          <path d="M317900.64,104405.72l0,500" />
          <path d="M317900.64,104905.72l610,0" />
          <path d="M307100.64,104905.72l1600,0" />
          <path d="M308700.64,104905.72l0,-500" />
          <path d="M308700.64,104405.72l-1600,0" />
          <path d="M307100.64,104405.72l0,500" />
          <path d="M310700.64,104905.72l1600,0" />
          <path d="M312300.64,104905.72l0,-500" />
          <path d="M312300.64,104405.72l-1600,0" />
          <path d="M310700.64,104405.72l0,500" />
          <path d="M314300.64,104905.72l1600,0" />
          <path d="M315900.64,104905.72l0,-500" />
          <path d="M315900.64,104405.72l-1600,0" />
          <path d="M314300.64,104405.72l0,500" />
          <use xlink:href="#$TCHSYS$WIN2D_2000x500" x="306100.64" y="104655.72" transform="scale(-1,-1) translate(-612201.28,-209311.44)">.<g class="blkclass0"><text transform="translate(-600,-376.25)" font-size="386.75">MC2024</text></g></use>
          <use xlink:href="#$TCHSYS$WIN2D_2000x500" x="309700.64" y="104655.72" transform="scale(-1,-1) translate(-619401.28,-209311.44)">.<g class="blkclass0"><text transform="translate(-600,-376.25)" font-size="386.75">MC2024</text></g></use>
          <use xlink:href="#$TCHSYS$WIN2D_2000x500" x="313300.64" y="104655.72" transform="scale(-1,-1) translate(-626601.28,-209311.44)">.<g class="blkclass0"><text transform="translate(-600,-376.25)" font-size="386.75">MC2024</text></g></use>
          <use xlink:href="#$TCHSYS$WIN2D_2000x500" x="316900.64" y="104655.72" transform="scale(-1,-1) translate(-633801.28,-209311.44)">.<g class="blkclass0"><text transform="translate(-600,-376.25)" font-size="386.75">MC2024</text></g></use>
          <path d="M304490.64,110805.72l0,-250" />
          <path d="M304110.64,110555.72l0,250" />
          <path d="M304110.64,104905.72l0,5650" />
          <path d="M304490.64,110555.72l0,-5650" />
          <path d="M264490.64,104905.72l610,0" />
          <path d="M265100.64,104905.72l0,-500" />
          <path d="M265100.64,104405.72l-800,0" />
          <path d="M268020.64,104405.72l-920,0" />
          <path d="M267100.64,104405.72l0,500" />
          <path d="M267100.64,104905.72l420,0" />
          <use xlink:href="#$TCHSYS$WIN2D_2000x500" x="266100.64" y="104655.72" transform="scale(1,-1) translate(0,-209311.44) rotate(0,266100.64,104655.72)">.<g class="blkclass0"><text transform="translate(-600,-376.25)" font-size="386.75">MC2024</text></g></use>
          <use xlink:href="#$DorLib2D$00000001" x="296.523" y="123.329" transform="scale(900,900)" stroke-width="0.0001%">.<g class="blkclass0"><text transform="translate(-445,613.75)" font-size="386.75">M0921</text></g></use>
          <path d="M264110.64,110805.72l0,-719.83" />
          <path d="M264490.64,110805.72l0,-619.83" />
          <path d="M260300.64,104905.72l2000,0" />
          <path d="M262300.64,104905.72l0,-500" />
          <path d="M262300.64,104405.72l-1810,0" />
          <path d="M264300.64,104405.72l-800,0" />
          <path d="M263500.64,104405.72l0,500" />
          <path d="M263500.64,104905.72l610,0" />
          <use xlink:href="#$TCHSYS$WIN2D_1200x500" x="262900.64" y="104655.72" transform="scale(1,-1) translate(0,-209311.44)">.<g class="blkclass0"><text transform="translate(-580,-376.25)" font-size="386.75">MC1224</text></g></use>
          <use xlink:href="#$TCHSYS$WIN2D_2000x500" x="250760.64" y="96795.72" transform="rotate(-90,250760.64,96795.72)">.<g class="blkclass0"><text transform="rotate(-90 -473.35,600) translate(-473.35,600)" font-size="386.75">MC2024</text></g></use>
          <use xlink:href="#$TCHSYS$WIN2D_2000x500" x="250760.64" y="99915.72" transform="rotate(-90,250760.64,99915.72)">.<g class="blkclass0"><text transform="rotate(-90 -421.99,600) translate(-421.99,600)" font-size="386.75">MC2024</text></g></use>
          <use xlink:href="#$TCHSYS$WIN2D_2000x500" x="250760.64" y="103035.72" transform="rotate(-90,250760.64,103035.72)">.<g class="blkclass0"><text transform="rotate(-90 -456.47,600) translate(-456.47,600)" font-size="386.75">MC2024</text></g></use>
          <path d="M257290.64,92105.72l210,0" />
          <path d="M257500.64,92105.72l0,-500" />
          <path d="M257500.64,91605.72l-400,0" />
          <path d="M260490.64,91605.72l-1490,0" />
          <path d="M259000.64,91605.72l0,500" />
          <path d="M259000.64,92105.72l990,0" />
          <use xlink:href="#$TCHSYS$WIN2D_1500x500" x="258250.64" y="91855.72" transform="scale(-1,-1) translate(-516501.28,-183711.44)">.<g class="blkclass0"><text transform="translate(-580,-376.25)" font-size="386.75">MC1524</text></g></use>
          <path d="M257190.64,104905.72l741.08,0" />
          <path d="M257931.72,104905.72l0,-500" />
          <path d="M257931.72,104405.72l-641.08,0" />
          <path d="M259990.64,104405.72l-558.92,0" />
          <path d="M259431.72,104405.72l0,500" />
          <path d="M259431.72,104905.72l868.92,0" />
          <path d="M259990.64,98445.72l0,310" />
          <path d="M259990.64,98755.72l500,0" />
          <path d="M260490.64,98755.72l0,-500" />
          <path d="M260490.64,104405.72l0,-650" />
          <path d="M260490.64,103755.72l-500,0" />
          <path d="M259990.64,103755.72l0,650" />
          <path d="M259990.64,100755.72l0,1000" />
          <path d="M259990.64,101755.72l500,0" />
          <path d="M260490.64,101755.72l0,-1000" />
          <path d="M260490.64,100755.72l-500,0" />
          <use xlink:href="#$TCHSYS$WIN2D_2000x500" x="260240.64" y="99755.72" transform="rotate(-270,260240.64,99755.72)">.<g class="blkclass0"><text transform="rotate(-90 730.3,600) translate(730.3,600)" font-size="386.75">MC2024</text></g></use>
          <use xlink:href="#$TCHSYS$WIN2D_2000x500" x="260240.64" y="102755.72" transform="scale(-1,1) translate(-520481.28,0) rotate(-90,260240.64,102755.72)">.<g class="blkclass0"><text transform="rotate(-90 709.61,600) translate(709.61,600)" font-size="386.75">MC2024</text></g></use>
          <path d="M256910.64,98255.72l0,-6150" />
          <path d="M257290.64,98065.72l0,-5960" />
          <use xlink:href="#$DorLib2D$00000001" x="258.041" y="98.256" transform="scale(1000,1000) scale(1,-1) translate(0,-196.51) rotate(-180,258.04,98.26)" stroke-width="0.0001%">.</use>
          <path d="M259990.64,98065.72l-1450,0" />
          <path d="M258540.64,98065.72l0,380" />
          <path d="M258540.64,98445.72l1450,0" />
          <path d="M257290.64,98445.72l250,0" />
          <path d="M257540.64,98445.72l0,-380" />
          <path d="M257540.64,98065.72l-250,0" />
          <path d="M318510.64,110805.72l0,-1519.83" />
          <path d="M318890.64,110805.72l0,-1419.83" />
          <path d="M318890.64,104905.72l610,0" />
          <path d="M319500.64,104905.72l0,-500" />
          <path d="M319500.64,104405.72l-800,0" />
          <path d="M322420.64,104405.72l-920,0" />
          <path d="M321500.64,104405.72l0,500" />
          <path d="M321500.64,104905.72l420,0" />
          <use xlink:href="#$TCHSYS$WIN2D_2000x500" x="320500.64" y="104655.72" transform="scale(-1,-1) translate(-641001.28,-209311.44)">.<g class="blkclass0"><text transform="translate(-600,-376.25)" font-size="386.75">MC2024</text></g></use>
          <path d="M326490.64,104905.72l610,0" />
          <path d="M327100.64,104905.72l0,-500" />
          <path d="M327100.64,104405.72l-800,0" />
          <path d="M330110.64,104405.72l-1810,0" />
          <path d="M328300.64,104405.72l0,500" />
          <path d="M328300.64,104905.72l2310,0" />
          <use xlink:href="#$TCHSYS$WIN2D_1200x500" x="327700.64" y="104655.72" transform="scale(-1,-1) translate(-655401.28,-209311.44)">.<g class="blkclass0"><text transform="translate(-580,-376.25)" font-size="386.75">MC1224</text></g></use>
          <path d="M326110.64,110805.72l0,-619.83" />
          <path d="M326490.64,110805.72l0,-719.83" />
          <use xlink:href="#$TCHSYS$WIN2D_2000x500" x="330360.64" y="99195.72" transform="rotate(-90,330360.64,99195.72)">.<g class="blkclass0"><text transform="rotate(-90 -377.64,600) translate(-377.64,600)" font-size="386.75">MC2024</text></g></use>
          <use xlink:href="#$TCHSYS$WIN2D_2000x500" x="330360.64" y="102195.72" transform="rotate(-90,330360.64,102195.72)">.<g class="blkclass0"><text transform="rotate(-90 -402.36,600) translate(-402.36,600)" font-size="386.75">MC2024</text></g></use>
          <path d="M339590.64,104285.72l0,870" />
          <path d="M339590.64,105155.72l500,0" />
          <path d="M340090.64,105155.72l0,-1060" />
          <path d="M340090.64,107726.71l0,-570.99" />
          <path d="M340090.64,107155.72l-500,0" />
          <path d="M339590.64,107155.72l0,570.99" />
          <path d="M333500.64,104285.72l590,0" />
          <path d="M334090.64,104285.72l0,-380" />
          <path d="M334090.64,103905.72l-400,0" />
          <path d="M339590.64,103905.72l-4500,0" />
          <path d="M335090.64,103905.72l0,380" />
          <path d="M335090.64,104285.72l4500,0" />
          <use xlink:href="#$DorLib2D$00000001" x="334.591" y="104.096" transform="scale(1000,1000) scale(-1,-1) translate(-669.18,-208.19) rotate(-360,334.59,104.1)" stroke-width="0.0001%">.<g class="blkclass0"><text transform="translate(-470,-36.25)" font-size="386.75">M1027</text></g></use>
          <use xlink:href="#$DorLib2D$00000001" x="333.501" y="102.906" transform="scale(1000,1000) scale(-1,-1) translate(-667,-205.81) rotate(-90,333.5,102.91)" stroke-width="0.0001%">.<g class="blkclass0"><text transform="rotate(-90 -126.25,470) translate(-126.25,470)" font-size="386.75">M1027</text></g></use>
          <path d="M333690.64,103905.72l0,-500" />
          <path d="M333690.64,103405.72l-380,0" />
          <path d="M333310.64,103405.72l0,500" />
          <path d="M333310.64,100785.72l0,1620" />
          <path d="M333310.64,102405.72l380,0" />
          <path d="M333690.64,102405.72l0,-1620" />
          <path d="M333690.64,97205.72l410,0" />
          <path d="M334100.64,97205.72l0,-500" />
          <path d="M334100.64,96705.72l-600,0" />
          <path d="M340090.64,96705.72l-1490,0" />
          <path d="M338600.64,96705.72l0,500" />
          <path d="M338600.64,97205.72l990,0" />
          <path d="M336100.64,97205.72l1000,0" />
          <path d="M337100.64,97205.72l0,-500" />
          <path d="M337100.64,96705.72l-1000,0" />
          <path d="M336100.64,96705.72l0,500" />
          <use xlink:href="#$TCHSYS$WIN2D_2000x500" x="335100.64" y="96955.72" transform="scale(1,-1) translate(0,-193911.44) rotate(0,335100.64,96955.72)">.<g class="blkclass0"><text transform="translate(-600,-501.25)" font-size="386.75">MC2024</text></g></use>
          <use xlink:href="#$TCHSYS$WIN2D_1500x500" x="337850.64" y="96955.72" transform="scale(-1,-1) translate(-675701.28,-193911.44) rotate(-360,337850.64,96955.72)">.<g class="blkclass0"><text transform="translate(-580,-501.25)" font-size="386.75">MC1524</text></g></use>
          <path d="M326300.64,111185.72l782.83,0" />
          <path d="M327083.47,111185.72l0,-380" />
          <path d="M327083.47,110805.72l-592.83,0" />
          <path d="M330390.64,110805.72l-1307.17,0" />
          <path d="M329083.47,110805.72l0,380" />
          <path d="M329083.47,111185.72l1307.17,0" />
          <path d="M330390.64,111185.72l0,-380" />
          <use xlink:href="#$DorLib2D$00000001" x="356.967" y="123.329" transform="scale(900,900)" stroke-width="0.0001%">.<g class="blkclass0"><text transform="translate(-445,613.75)" font-size="386.75">M0921</text></g></use>
          <path d="M324583.81,110805.72l0,-819.83" />
          <path d="M324783.81,110805.72l0,-619.83" />
          <path d="M326110.64,109985.88l0,-5080.17" />
          <path d="M326490.64,110085.88l0,-5180.17" />
          <path d="M324583.81,109985.88l1526.83,0" />
          <path d="M324783.81,110185.88l1326.83,0" />
          <path d="M320217.47,110805.72l0,-1419.83" />
          <path d="M320417.47,110805.72l0,-1619.83" />
          <path d="M320217.47,109385.88l-1326.83,0" />
          <path d="M320417.47,109185.88l-1526.83,0" />
          <path d="M318700.64,111185.72l441.33,0" />
          <path d="M319141.96,111185.72l0,-380" />
          <path d="M319141.96,110805.72l-251.33,0" />
          <path d="M320217.47,110805.72l-175.5,0" />
          <path d="M320041.96,110805.72l0,380" />
          <path d="M320041.96,111185.72l275.5,0" />
          <path d="M318510.64,109285.88l0,-4380.17" />
          <path d="M318890.64,109185.88l0,-4280.17" />
          <use xlink:href="#$TCHSYS$WIN2D_2000x500" x="250760.64" y="106155.72" transform="rotate(-90,250760.64,106155.72)">.<g class="blkclass0"><text transform="rotate(-90 -418.92,600) translate(-418.92,600)" font-size="386.75">MC2024</text></g></use>
          <use xlink:href="#$TCHSYS$WIN2D_2000x500" x="250760.64" y="109275.72" transform="rotate(-90,250760.64,109275.72)">.<g class="blkclass0"><text transform="rotate(-90 -418.51,600) translate(-418.51,600)" font-size="386.75">MC2024</text></g></use>
          <path d="M257010.64,104905.72l0,4500" />
          <path d="M257010.64,109405.72l180,0" />
          <path d="M257190.64,109405.72l0,-4500" />
          <path d="M257190.64,111085.72l0,-680" />
          <path d="M257190.64,110405.72l-180,0" />
          <path d="M257010.64,110405.72l0,500" />
          <use xlink:href="#$DorLib2D$00000001" x="257.101" y="109.906" transform="scale(1000,1000) scale(1,-1) translate(0,-219.81) rotate(-90,257.1,109.91)" stroke-width="0.0001%">.<g class="blkclass0"><text transform="rotate(-90 523.75,470) translate(523.75,470)" font-size="386.75">M1027</text></g></use>
          <path d="M251010.64,110905.72l0,-630" />
          <path d="M251010.64,110275.72l-500,0" />
          <path d="M250510.64,110275.72l0,720" />
          <path d="M250510.64,104595.72l0,560" />
          <path d="M250510.64,105155.72l500,0" />
          <path d="M251010.64,105155.72l0,-250" />
          <path d="M251010.64,108275.72l0,-1120" />
          <path d="M251010.64,107155.72l-500,0" />
          <path d="M250510.64,107155.72l0,1120" />
          <path d="M250510.64,108275.72l500,0" />
          <path d="M257190.64,111085.72l-6180,0" />
          <path d="M257010.64,110905.72l-6000,0" />
          <path d="M265817.47,110805.72l0,-619.83" />
          <path d="M266017.47,110805.72l0,-819.83" />
          <path d="M265817.47,110185.88l-1326.83,0" />
          <path d="M266017.47,109985.88l-1526.83,0" />
          <path d="M270183.81,110805.72l0,-1619.83" />
          <path d="M270383.81,110805.72l0,-1419.83" />
          <path d="M270183.81,109185.88l1526.83,0" />
          <path d="M270383.81,109385.88l1326.83,0" />
          <path d="M264300.64,111185.72l253.41,0" />
          <path d="M264554.05,111185.72l0,-380" />
          <path d="M264554.05,110805.72l-63.41,0" />
          <path d="M265817.47,110805.72l-63.41,0" />
          <path d="M265754.05,110805.72l0,380" />
          <path d="M265754.05,111185.72l163.41,0" />
          <path d="M264110.64,110085.88l0,-5180.17" />
          <path d="M264490.64,109985.88l0,-5080.17" />
          <path d="M271710.64,109185.88l0,-4280.17" />
          <path d="M272090.64,109285.88l0,-4380.17" />
          <use xlink:href="#$TCHSYS$WIN2D_2000x500" x="250760.64" y="112395.72" transform="rotate(-90,250760.64,112395.72)">.<g class="blkclass0"><text transform="rotate(-90 -449.57,600) translate(-449.57,600)" font-size="386.75">MC2024</text></g></use>
          <path d="M251010.64,113565.72l0,-170" />
          <path d="M251010.64,113395.72l-500,0" />
          <path d="M250510.64,113395.72l0,360" />
          <path d="M250510.64,110995.72l0,400" />
          <path d="M250510.64,111395.72l500,0" />
          <path d="M251010.64,111395.72l0,-310" />
          <path d="M268020.64,113565.72l0,7520" />
          <path d="M267520.64,113945.72l0,6640" />
          <path d="M322420.64,113565.72l0,6720" />
          <path d="M321920.64,113945.72l0,5840" />
          <path d="M339590.64,113945.72l0,310" />
          <path d="M339590.64,114255.72l500,0" />
          <path d="M340090.64,114255.72l0,-500" />
          <path d="M340090.64,121085.72l0,-4830" />
          <path d="M340090.64,116255.72l-500,0" />
          <path d="M339590.64,116255.72l0,4330" />
          <path d="M304490.64,113945.72l250,0" />
          <path d="M304740.64,113945.72l0,-380" />
          <path d="M304740.64,113565.72l-440,0" />
          <path d="M318700.64,113565.72l-440,0" />
          <path d="M318260.64,113565.72l0,380" />
          <path d="M318260.64,113945.72l250,0" />
          <path d="M305740.64,113945.72l2535,0" />
          <path d="M308275.64,113945.72l0,-380" />
          <path d="M308275.64,113565.72l-2535,0" />
          <path d="M305740.64,113565.72l0,380" />
          <path d="M309275.64,113945.72l7985,0" />
          <path d="M317260.64,113945.72l0,-380" />
          <path d="M317260.64,113565.72l-7985,0" />
          <path d="M309275.64,113565.72l0,380" />
          <use xlink:href="#$DorLib2D$00000001" x="305.241" y="113.756" transform="scale(1000,1000) scale(-1,-1) translate(-610.48,-227.51)" stroke-width="0.0001%">.<g class="blkclass0"><text transform="translate(-470,-316.25)" font-size="386.75">M1027</text></g></use>
          <use xlink:href="#$DorLib2D$00000001" x="308.776" y="113.756" transform="scale(1000,1000) scale(-1,-1) translate(-617.55,-227.51)" stroke-width="0.0001%">.<g class="blkclass0"><text transform="translate(-470,-316.25)" font-size="386.75">M1027</text></g></use>
          <use xlink:href="#$DorLib2D$00000001" x="317.761" y="113.756" transform="scale(1000,1000) scale(1,-1) translate(0,-227.51)" stroke-width="0.0001%">.<g class="blkclass0"><text transform="translate(-470,-316.25)" font-size="386.75">M1027</text></g></use>
          <path d="M307900.64,119785.72l-800,0" />
          <path d="M307100.64,119785.72l0,500" />
          <path d="M307100.64,120285.72l675,0" />
          <path d="M304300.64,120285.72l800,0" />
          <path d="M305100.64,120285.72l0,-500" />
          <path d="M305100.64,119785.72l-610,0" />
          <path d="M307775.64,120285.72l0,0" />
          <path d="M308025.64,120285.72l0,0" />
          <path d="M307775.64,120285.72l250,0" />
          <path d="M307775.64,119785.72l0,-5840" />
          <path d="M308025.64,119785.72l0,-5840" />
          <path d="M307775.64,119785.72l250,0" />
          <path d="M307775.64,113945.72l250,0" />
          <path d="M311375.64,110805.72l0,-5900" />
          <path d="M311625.64,110805.72l0,-5900" />
          <path d="M311375.64,110805.72l250,0" />
          <path d="M311375.64,104905.72l250,0" />
          <path d="M333590.64,104285.72l0,6620" />
          <path d="M333410.64,104285.72l0,6800" />
          <path d="M333590.64,104285.72l-180,0" />
          <use xlink:href="#$DorLib2D$00000001" x="334.591" y="110.996" transform="scale(1000,1000) scale(-1,1) translate(-669.18,0)" stroke-width="0.0001%">.<g class="blkclass0"><text transform="translate(-470,433.75)" font-size="386.75">M1027</text></g></use>
          <path d="M333410.64,111085.72l680,0" />
          <path d="M334090.64,111085.72l0,-180" />
          <path d="M334090.64,110905.72l-500,0" />
          <path d="M339590.64,110905.72l-4500,0" />
          <path d="M335090.64,110905.72l0,180" />
          <path d="M335090.64,111085.72l4500,0" />
          <path d="M339590.64,111085.72l0,260" />
          <path d="M339590.64,111345.72l500,0" />
          <path d="M340090.64,111345.72l0,-350" />
          <path d="M340090.64,113755.72l0,-410" />
          <path d="M340090.64,113345.72l-500,0" />
          <path d="M339590.64,113345.72l0,220" />
          <path d="M282575.64,119785.72l0,-5840" />
          <path d="M282825.64,119785.72l0,-5840" />
          <path d="M282575.64,119785.72l250,0" />
          <path d="M282575.64,113945.72l250,0" />
          <path d="M300575.64,119785.72l0,-5840" />
          <path d="M300575.64,119785.72l250,0" />
          <path d="M300575.64,113945.72l250,0" />
          <path d="M296975.64,119785.72l0,-5840" />
          <path d="M297225.64,119785.72l0,-5840" />
          <path d="M296975.64,119785.72l250,0" />
          <path d="M296975.64,113945.72l250,0" />
          <path d="M311625.64,119785.72l0,-4490" />
          <path d="M311625.64,115295.72l-250,0" />
          <path d="M311375.64,115295.72l0,4490" />
          <path d="M311375.64,119785.72l250,0" />
          <path d="M311375.64,113945.72l0,250" />
          <path d="M311375.64,114195.72l250,0" />
          <path d="M311625.64,114195.72l0,-250" />
          <path d="M311625.64,113945.72l-250,0" />
          <path d="M311375.64,114195.72l0,1100" />
          <path d="M311625.64,115295.72l0,-1100" />
          <path d="M300825.64,110805.72l0,-250" />
          <path d="M300575.64,110555.72l0,250" />
          <path d="M300575.64,110805.72l250,0" />
          <path d="M300575.64,104905.72l0,5650" />
          <path d="M300825.64,110555.72l0,-5650" />
          <path d="M300825.64,104905.72l-250,0" />
          <path d="M278975.64,110805.72l0,-5900" />
          <path d="M279225.64,110805.72l0,-5900" />
          <path d="M278975.64,110805.72l250,0" />
          <path d="M278975.64,104905.72l250,0" />
          <path d="M270283.81,111185.72l275.5,0" />
          <path d="M270559.31,111185.72l0,-380" />
          <path d="M270559.31,110805.72l-175.5,0" />
          <path d="M271710.64,110805.72l-251.33,0" />
          <path d="M271459.31,110805.72l0,380" />
          <path d="M271459.31,111185.72l441.33,0" />
          <path d="M259990.64,101165.72l0.01,180" />
          <path d="M257290.64,101165.83l0.01,180" />
          <path d="M293625.64,110805.72l0,-250" />
          <path d="M293375.64,110555.72l0,250" />
          <path d="M293375.64,110805.72l250,0" />
          <path d="M293375.64,104905.72l0,250" />
          <path d="M293625.64,105155.72l0,-250" />
          <path d="M293625.64,104905.72l-250,0" />
          <path d="M293625.64,110555.72l0,-5400" />
          <path d="M293375.64,105155.72l0,5400" />
          <path d="M320317.47,111185.72l503.17,0" />
          <path d="M320820.64,111185.72l0,-380" />
          <path d="M320820.64,110805.72l-403.17,0" />
          <path d="M321920.64,110805.72l-200,0" />
          <path d="M321720.64,110805.72l0,380" />
          <path d="M321720.64,111185.72l700,0" />
          <path d="M330610.64,103905.72l0,-710" />
          <path d="M330610.64,103195.72l-500,0" />
          <path d="M330110.64,103195.72l0,900" />
          <path d="M330110.64,96705.72l0,1490" />
          <path d="M330110.64,98195.72l500,0" />
          <path d="M330610.64,98195.72l0,-990" />
          <path d="M330610.64,101195.72l0,-1000" />
          <path d="M330610.64,100195.72l-500,0" />
          <path d="M330110.64,100195.72l0,1000" />
          <path d="M330110.64,101195.72l500,0" />
          <path d="M333310.64,100605.72l0,-3400" />
          <path d="M333690.64,100605.72l0,-3400" />
          <path d="M330610.64,100785.72l0,-180" />
          <path d="M333310.64,100785.72l0,-180" />
          <path d="M339590.64,100785.72l0,-180" />
          <path d="M323080.64,113945.72l500,0" />
          <path d="M323580.64,113945.72l0,-380" />
          <path d="M323580.64,113565.72l-1000,0" />
          <path d="M339590.64,113565.72l-570,0" />
          <path d="M339020.64,113565.72l0,380" />
          <path d="M339020.64,113945.72l570,0" />
          <path d="M325080.64,113945.72l12440,0" />
          <path d="M337520.64,113565.72l-12440,0" />
          <path d="M325080.64,113565.72l0,380" />
          <path d="M324683.81,111185.72l163.41,0" />
          <path d="M324847.23,111185.72l0,-380" />
          <path d="M324847.23,110805.72l-63.41,0" />
          <path d="M326110.64,110805.72l-63.41,0" />
          <path d="M326047.23,110805.72l0,380" />
          <path d="M326047.23,111185.72l253.41,0" />
          <path d="M265917.47,111185.72l503.17,0" />
          <path d="M266420.64,111185.72l0,-380" />
          <path d="M266420.64,110805.72l-403.17,0" />
          <path d="M267520.64,110805.72l-200,0" />
          <path d="M267320.64,110805.72l0,380" />
          <path d="M267320.64,111185.72l700,0" />
          <use xlink:href="#$TCHSYS$WIN2D_2000x500" x="339840.64" y="106155.72" transform="scale(-1,1) translate(-679681.28,0) rotate(-90,339840.64,106155.72)">.<g class="blkclass0"><text transform="rotate(-90 768.17,600) translate(768.17,600)" font-size="386.75">MC2024</text></g></use>
          <use xlink:href="#$TCHSYS$WIN2D_2000x500" x="339840.64" y="109275.72" transform="scale(-1,1) translate(-679681.28,0) rotate(-90,339840.64,109275.72)">.<g class="blkclass0"><text transform="rotate(-90 730.13,600) translate(730.13,600)" font-size="386.75">MC2024</text></g></use>
          <use xlink:href="#$TCHSYS$WIN2D_2000x500" x="339840.64" y="112345.72" transform="scale(-1,1) translate(-679681.28,0) rotate(-90,339840.64,112345.72)">.<g class="blkclass0"><text transform="rotate(-90 736.47,600) translate(736.47,600)" font-size="386.75">MC2024</text></g></use>
          <use xlink:href="#$TCHSYS$WIN2D_2000x380" x="262517.81" y="110995.72">.</use>
          <use xlink:href="#$TCHSYS$WIN2D_2000x380" x="328083.47" y="110995.72" transform="scale(-1,1) translate(-656166.94,0)">.</use>
          <use xlink:href="#$DorLib2D$00000002" x="168.174" y="75.837" transform="scale(1500,1500) scale(1,-1) translate(0,-151.67)" stroke-width="0.0001%">.<g class="blkclass0"><text transform="translate(-470,-316.25)" font-size="386.75">M1527</text></g></use>
          <path d="M333590.64,107676.71l0,100" />
          <path d="M339590.64,107726.71l0,549.01" />
          <path d="M339590.64,108275.72l500,0" />
          <path d="M340090.64,108275.72l0,-549.01" />
          <path d="M340090.64,110995.72l0,-720" />
          <path d="M340090.64,110275.72l-500,0" />
          <path d="M339590.64,110275.72l0,630" />
          <use xlink:href="#$DorLib2D$00000001" x="355.102" y="123.329" transform="scale(900,900) scale(1,-1) translate(0,-246.66)" stroke-width="0.0001%">.</use>
          <use xlink:href="#$DorLib2D$00000001" x="301.121" y="123.329" transform="scale(900,900) scale(-1,-1) translate(-602.24,-246.66)" stroke-width="0.0001%">.</use>
          <use xlink:href="#$DorLib2D$00000002" x="220.962" y="92.496" transform="scale(1200,1200) scale(-1,-1) translate(-441.92,-184.99)" stroke-width="0.0001%">.</use>
          <use xlink:href="#$DorLib2D$00000002" x="271.206" y="92.496" transform="scale(1200,1200) scale(1,-1) translate(0,-184.99)" stroke-width="0.0001%">.</use>
          <path d="M271710.64,111436.07l0,-250.36" />
          <path d="M272090.64,111436.07l0,-250.36" />
          <path d="M271710.64,111436.07l380,0" />
          <path d="M271710.64,111185.72l380,0" />
          <path d="M272090.64,113315.36l0,250.36" />
          <path d="M271710.64,113315.36l0,250.36" />
          <path d="M272090.64,113315.36l-380,0" />
          <path d="M272090.64,113565.72l-380,0" />
          <path d="M286110.64,111436.07l0,-250.36" />
          <path d="M286490.64,111436.07l0,-250.36" />
          <path d="M286110.64,111436.07l380,0" />
          <path d="M286110.64,111185.72l380,0" />
          <path d="M286490.64,113315.36l0,250.36" />
          <path d="M286110.64,113315.36l0,250.36" />
          <path d="M286490.64,113315.36l-380,0" />
          <path d="M286490.64,113565.72l-380,0" />
          <path d="M304110.64,111436.07l0,-250.36" />
          <path d="M304490.64,111436.07l0,-250.36" />
          <path d="M304110.64,111436.07l380,0" />
          <path d="M304110.64,111185.72l380,0" />
          <path d="M304490.64,113315.36l0,250.36" />
          <path d="M304110.64,113315.36l0,250.36" />
          <path d="M304490.64,113315.36l-380,0" />
          <path d="M304490.64,113565.72l-380,0" />
          <path d="M318510.64,111436.07l0,-250.36" />
          <path d="M318890.64,111436.07l0,-250.36" />
          <path d="M318510.64,111436.07l380,0" />
          <path d="M318510.64,111185.72l380,0" />
          <path d="M318890.64,113315.36l0,250.36" />
          <path d="M318510.64,113315.36l0,250.36" />
          <path d="M318890.64,113315.36l-380,0" />
          <path d="M318890.64,113565.72l-380,0" />
          <path d="M253110.6,104405.72l3800.04,0" />
          <path d="M253110.6,104905.72l3900.04,0" />
          <path d="M257290.64,104405.72l0,-300" />
          <path d="M257290.64,104105.72l-380,0" />
          <path d="M256910.64,104105.72l0,300" />
          <path d="M256910.64,101995.72l0,610" />
          <path d="M256910.64,102605.72l380,0" />
          <path d="M257290.64,102605.72l0,-610" />
          <path d="M251010.64,99493l0,60" />
          <path d="M251010.64,104405.72l0,-370" />
          <path d="M251010.64,104035.72l-500,0" />
          <path d="M250510.64,104035.72l0,560" />
          <path d="M250510.64,102005.72l0,30" />
          <path d="M250510.64,102035.72l500,0" />
          <path d="M251010.64,102035.72l0,-30" />
          <path d="M250700.64,96865.9l0,60" />
          <path d="M251010.64,102005.72l0,-1090" />
          <path d="M251010.64,100915.72l-500,0" />
          <path d="M250510.64,100915.72l0,1090" />
          <path d="M250510.64,94376.35l0,1419.37" />
          <path d="M250510.64,95795.72l500,0" />
          <path d="M251010.64,95795.72l0,-1419.37" />
          <path d="M251010.64,98915.72l0,-1120" />
          <path d="M251010.64,97795.72l-500,0" />
          <path d="M250510.64,97795.72l0,1120" />
          <path d="M250510.64,98915.72l500,0" />
          <path d="M250510.64,94376.35l0,-2770.63" />
          <path d="M251010.64,94376.35l0,-2270.63" />
          <path d="M253140.6,92105.72l-60,0" />
          <path d="M256910.64,101995.72l0,-3740" />
          <path d="M257290.64,101995.72l0,-3550" />
          <path d="M259225.64,113945.72l0,300" />
          <path d="M259225.64,114245.72l150,0" />
          <path d="M259375.64,114245.72l0,-300" />
          <path d="M259375.64,120585.72l0,-5340" />
          <path d="M259375.64,115245.72l-150,0" />
          <path d="M259225.64,115245.72l0,5340" />
          <use xlink:href="#$DorLib2D$00000001" x="259.301" y="114.746" transform="scale(1000,1000) scale(-1,-1) translate(-518.6,-229.49) rotate(-270,259.3,114.75)" stroke-width="0.0001%">.<g class="blkclass0"><text transform="rotate(-90 457.48,470) translate(457.48,470)" font-size="386.75">M1027</text></g></use>
          <path d="M251010.64,113945.72l500,0" />
          <path d="M251510.64,113945.72l0,-380" />
          <path d="M251510.64,113565.72l-500,0" />
          <path d="M259300.64,113565.72l-6290,0" />
          <path d="M253010.64,113565.72l0,380" />
          <path d="M253010.64,113945.72l6215,0" />
          <path d="M259225.64,120585.72l-675,0" />
          <path d="M258550.64,120585.72l0,500" />
          <path d="M258550.64,121085.72l750,0" />
          <path d="M250510.64,121085.72l2540,0" />
          <path d="M253050.64,121085.72l0,-500" />
          <path d="M253050.64,120585.72l-2040,0" />
          <path d="M256550.64,120585.72l-1500,0" />
          <path d="M255050.64,120585.72l0,500" />
          <path d="M255050.64,121085.72l1500,0" />
          <path d="M256550.64,121085.72l0,-500" />
          <path d="M259375.64,113945.72l1835.39,0" />
          <path d="M261211.03,113945.72l0,-380" />
          <path d="M261211.03,113565.72l-1910.39,0" />
          <path d="M262900.64,113565.72l-689.61,0" />
          <path d="M262211.03,113565.72l0,380" />
          <path d="M262211.03,113945.72l499.61,0" />
          <use xlink:href="#$DorLib2D$00000001" x="261.711" y="113.756" transform="scale(1000,1000) scale(1,-1) translate(0,-227.51)" stroke-width="0.0001%">.<g class="blkclass0"><text transform="translate(-470,-244.63)" font-size="386.75">M1027</text></g></use>
          <path d="M282625.64,104905.72l150,0" />
          <path d="M282775.64,110805.72l-150,0" />
          <path d="M282775.64,104905.72l725,0" />
          <path d="M283500.64,104905.72l0,-500" />
          <path d="M283500.64,104405.72l-800,0" />
          <path d="M286300.64,104405.72l-800,0" />
          <path d="M285500.64,104405.72l0,500" />
          <path d="M285500.64,104905.72l610,0" />
          <path d="M282700.64,111185.72l2160,0" />
          <path d="M284860.64,111185.72l0,-380" />
          <path d="M284860.64,110805.72l-2085,0" />
          <path d="M286110.64,110805.72l-250,0" />
          <path d="M285860.64,110805.72l0,380" />
          <path d="M285860.64,111185.72l440,0" />
          <path d="M279025.64,119785.72l-725,0" />
          <path d="M278300.64,119785.72l0,500" />
          <path d="M278300.64,120285.72l800,0" />
          <path d="M271900.64,120285.72l800,0" />
          <path d="M272700.64,120285.72l0,-500" />
          <path d="M272700.64,119785.72l-610,0" />
          <path d="M276300.64,119785.72l-1600,0" />
          <path d="M274700.64,119785.72l0,500" />
          <path d="M274700.64,120285.72l1600,0" />
          <path d="M276300.64,120285.72l0,-500" />
          <path d="M279175.64,113945.72l1494.63,0" />
          <path d="M283075.64,113945.72l0,-380" />
          <path d="M283075.64,113565.72l-1426.32,0" />
          <path d="M286300.64,113565.72l-2225,0" />
          <path d="M284075.64,113565.72l0,380" />
          <path d="M284075.64,113945.72l2035,0" />
          <path d="M289825.64,113945.72l150,0" />
          <path d="M289975.64,119785.72l-150,0" />
          <path d="M289825.64,119785.72l-725,0" />
          <path d="M289100.64,119785.72l0,500" />
          <path d="M289100.64,120285.72l800,0" />
          <path d="M286300.64,120285.72l800,0" />
          <path d="M287100.64,120285.72l0,-500" />
          <path d="M287100.64,119785.72l-610,0" />
          <path d="M289900.64,113565.72l3600,0" />
          <path d="M289975.64,113945.72l3335,0" />
          <use xlink:href="#$DorLib2D$00000002" x="172.454" y="69.769" transform="scale(1500,1500)" stroke-width="0.0001%">.</use>
          <use xlink:href="#$DorLib2D$00000001" x="291.951" y="110.996" transform="scale(1000,1000) scale(-1,1) translate(-583.9,0)" stroke-width="0.0001%">.<g class="blkclass0"><text transform="translate(-470,613.75)" font-size="386.75">M1027</text></g></use>
          <use xlink:href="#$DorLib2D$00000001" x="299.626" y="110.996" transform="scale(1000,1000)" stroke-width="0.0001%">.<g class="blkclass0"><text transform="rotate(0 -470,613.75) translate(-470,613.75)" font-size="386.75">M1027</text></g></use>
          <path d="M304110.64,110805.72l-1835,0" />
          <path d="M302275.64,110805.72l0,380" />
          <path d="M302275.64,111185.72l1835,0" />
          <path d="M304110.64,111185.72l380,0" />
          <path d="M301275.64,110805.72l-1150,0" />
          <path d="M300125.64,110805.72l0,380" />
          <path d="M300125.64,111185.72l1150,0" />
          <path d="M301275.64,111185.72l0,-380" />
          <path d="M297540.64,110805.72l1585,0" />
          <path d="M299125.64,110805.72l0,380" />
          <path d="M299125.64,111185.72l-1585,0" />
          <path d="M296910.64,104905.72l380,0" />
          <path d="M297290.64,110805.72l-380,0" />
          <use xlink:href="#$DorLib2D$00000001" x="310.426" y="110.996" transform="scale(1000,1000)" stroke-width="0.0001%">.<g class="blkclass0"><text transform="translate(-470,613.75)" font-size="386.75">M1027</text></g></use>
          <path d="M310032.58,110805.72l-5541.94,0" />
          <path d="M311050.31,111185.72l6210.33,0" />
          <path d="M309944.33,111185.72l0,-380" />
          <path d="M310925.64,110805.72l0,380" />
          <path d="M310925.64,111185.72l124.67,0" />
          <path d="M333310.64,103905.72l0,380" />
          <path d="M333310.64,104285.72l100,0" />
          <use xlink:href="#$DorLib2D$00000001" x="338.521" y="113.666" transform="scale(1000,1000) rotate(-180,338.52,113.67)" stroke-width="0.0001%">.<g class="blkclass0"><text transform="translate(-470,-136.25)" font-size="386.75">M1027</text></g></use>
          <path d="M337520.64,113945.72l500,0" />
          <path d="M338020.64,113945.72l0,-380" />
          <path d="M338020.64,113565.72l-500,0" />
          <path d="M333670.64,120585.72l0,-6640" />
          <path d="M334050.64,120585.72l0,-6640" />
          <path d="M279025.64,119785.72l150,0" />
          <path d="M279025.64,113945.72l150,0" />
          <use xlink:href="#$DorLib2D$00000001" x="281.163" y="113.729" transform="scale(1000,1000) scale(-1,-1) translate(-562.33,-227.46) rotate(-360,281.16,113.73)" stroke-width="0.0001%">.<g class="blkclass0"><text transform="translate(-470,-316.25)" font-size="386.75">M1027</text></g></use>
          <path d="M280663.14,113565.72l-1562.5,0" />
          <path d="M281638.81,113945.72l1436.83,0" />
          <path d="M280663.14,113565.72l0,380" />
          <path d="M281638.81,113945.72l10.51,-380" />
        </g>
        <g id="layer-0" class="cnc-4">
          <path d="M352626.41,131473.22l5166,0" />
          <path d="M352626.41,132477.72l5166,0" />
          <path d="M355352.91,131473.22l0,5022.5" />
          <path d="M352626.41,133482.22l5166,0" />
          <path d="M357792.41,134486.72l-5166,0" />
          <path d="M357792.41,135491.22l-5166,0" />
          <path d="M352626.41,93033.97l5166,0" class="cnc-5" />
          <path d="M352539.85,122569.65l5166,0" class="cnc-5" />
        </g>
      </g>
      <g id="assets" fill="none">
        <g id="rm-assets" class="rm-asset">
          <path id="15006;F03;317" d="M251010.64,104405.72l5900,0l0,-12300l-5900,0z" />
          <path id="15006;F03;301" d="M323080.64,113945.72l10590,0l0,6640l-10590,0z" />
          <path id="15006;F03;311" d="M272090.64,113945.72l10485,0l0,5840l-10485,0z" />
          <path id="15006;F03;315" d="M251010.64,113945.72l8215,0l0,6640l-8215,0z" />
          <path id="15006;F03;323" d="M293625.64,104905.72l6950,0l0,5900l-6950,0z" />
          <path id="15006;F03;326" d="M311625.64,104905.72l6885,0l0,5900l-6885,0z" />
          <path id="15006;F03;320" d="M272090.64,104905.72l6885,0l0,5900l-6885,0z" />
          <path id="15006;F03;322" d="M286490.64,104905.72l6885,0l0,5900l-6885,0z" />
          <path id="15006;F03;321" d="M279225.64,104905.72l6885,0l0,5900l-6885,0z" />
          <path id="15006;F03;325" d="M304490.64,104905.72l6885,0l0,5900l-6885,0z" />
          <path id="15006;F03;303" d="M311625.64,113945.72l6885,0l0,5840l-6885,0z" />
          <path id="15006;F03;309" d="M286490.64,113945.72l6820,0l0,5840l-6820,0z" />
          <path id="15006;F03;327" d="M333590.64,104285.72l6000,0l0,6620l-6000,0z" />
          <path id="15006;F03;328" d="M333690.64,97205.72l5900,0l0,6700l-5900,0z" />
          <path id="15006;F03;301A" d="M334050.64,113945.72l5540,0l0,6640l-5540,0z" />
          <path id="15006;F03;316" d="M251010.64,104905.72l6000,0l0,6000l-6000,0z" />
          <path id="15006;F03;313" d="M263090.64,113945.72l4430,0l0,6640l-4430,0z" />
          <path id="15006;F03;314" d="M259375.64,113945.72l3335,0l0,6640l-3335,0z" />
          <path id="15006;F03;307" d="M300575.64,113945.72l-3350,0l0,5840l3350,0z" />
          <path id="15006;F03;304" d="M308025.64,113945.72l3350,0l0,5840l-3350,0z" />
          <path id="15006;F03;324" d="M300825.64,104905.72l3285,0l0,5900l-3285,0z" />
          <path id="15006;F03;305" d="M304490.64,113945.72l3285,0l0,5840l-3285,0z" />
          <path id="15006;F03;306" d="M304110.64,113945.72l-3285,0l0,5840l3285,0z" />
          <path id="15006;F03;308" d="M293690.64,113945.72l3285,0l0,5840l-3285,0z" />
          <path id="15006;F03;310" d="M282825.64,113945.72l3285,0l0,5840l-3285,0z" />
          <path id="15006;F03;302" d="M318890.64,113945.72l3030,0l0,5840l-3030,0z" />
          <path id="15006;F03;312" d="M268680.64,113945.72l3030,0l0,5840l-3030,0z" />
        </g>
      </g>
    </g>
    <g id="text" font-family="黑体" font-size="390.1020253158228" font-weight="normal" text-style="normal" text-anchor="middle" dominant-baseline="alphabetical" fill="#FFFFFF" xml:space="preserve">
      <g id="layer-0-text">
        <g transform="translate(354288.77,124242.93)" font-family="Arial" font-size="728" text-anchor="start">
          <text>三层平面图</text>
        </g>
        <g transform="translate(354011.18,131975.47)">
          <text>制    图</text>
        </g>
        <g transform="translate(354011.18,132979.97)">
          <text>校    对</text>
        </g>
        <g transform="translate(354011.18,133984.47)">
          <text>审    核</text>
        </g>
        <g transform="translate(354011.18,134988.97)">
          <text>图    号</text>
        </g>
        <g transform="translate(355575.76,136175.99)" font-family="Arial" font-size="596.96" text-anchor="start">
          <text>2014.06</text>
        </g>
        <g transform="translate(355209.41,87140.81)" font-size="668.746">
          <text>北京林业大学</text>
        </g>
        <g transform="translate(355209.41,90855.26)" font-size="417.966">
          <text>基建房产处</text>
        </g>
        <g transform="translate(353687.85,123008.61)" font-size="389.889">
          <text>工程名称</text>
        </g>
        <g transform="translate(355996.6,132024.43)" font-family="Arial" font-size="390" text-anchor="start">
          <text>朱洪磊</text>
        </g>
        <g transform="translate(353969.82,135981.53)">
          <text>日    期</text>
        </g>
      </g>
    </g>
    <g id="asset-labels" font-family="Arial" font-weight="bold" font-size="38.1em" text-anchor="middle">
      <g id="rm-labels">
        <g id="l-rm-15006;F03;317" transform="translate(253960.64,98255.72)">
          <text>317</text>
        </g>
        <g id="l-rm-15006;F03;301" transform="translate(328375.64,117265.72)">
          <text>301</text>
        </g>
        <g id="l-rm-15006;F03;311" transform="translate(277333.14,116865.72)">
          <text>311</text>
        </g>
        <g id="l-rm-15006;F03;315" transform="translate(255118.14,117265.72)">
          <text>315</text>
        </g>
        <g id="l-rm-15006;F03;323" transform="translate(297100.64,107855.72)">
          <text>323</text>
        </g>
        <g id="l-rm-15006;F03;326" transform="translate(315068.14,107855.72)">
          <text>326</text>
        </g>
        <g id="l-rm-15006;F03;320" transform="translate(275533.14,107855.72)">
          <text>320</text>
        </g>
        <g id="l-rm-15006;F03;322" transform="translate(289933.14,107855.72)">
          <text>322</text>
        </g>
        <g id="l-rm-15006;F03;321" transform="translate(282668.14,107855.72)">
          <text>321</text>
        </g>
        <g id="l-rm-15006;F03;325" transform="translate(307933.14,107855.72)">
          <text>325</text>
        </g>
        <g id="l-rm-15006;F03;303" transform="translate(315068.14,116865.72)">
          <text>303</text>
        </g>
        <g id="l-rm-15006;F03;309" transform="translate(289900.64,116865.72)">
          <text>309</text>
        </g>
        <g id="l-rm-15006;F03;327" transform="translate(336590.64,107595.72)">
          <text>327</text>
        </g>
        <g id="l-rm-15006;F03;328" transform="translate(336640.64,100555.72)">
          <text>328</text>
        </g>
        <g id="l-rm-15006;F03;301A" transform="translate(336820.64,117265.72)">
          <text>301A</text>
        </g>
        <g id="l-rm-15006;F03;316" transform="translate(254010.64,107905.72)">
          <text>316</text>
        </g>
        <g id="l-rm-15006;F03;313" transform="translate(265305.64,117265.72)">
          <text>313</text>
        </g>
        <g id="l-rm-15006;F03;314" transform="translate(261043.14,117265.72)">
          <text>314</text>
        </g>
        <g id="l-rm-15006;F03;307" transform="translate(298900.64,116865.72)">
          <text>307</text>
        </g>
        <g id="l-rm-15006;F03;304" transform="translate(309700.64,116865.72)">
          <text>304</text>
        </g>
        <g id="l-rm-15006;F03;324" transform="translate(302468.14,107855.72)">
          <text>324</text>
        </g>
        <g id="l-rm-15006;F03;305" transform="translate(306133.14,116865.72)">
          <text>305</text>
        </g>
        <g id="l-rm-15006;F03;306" transform="translate(302468.14,116865.72)">
          <text>306</text>
        </g>
        <g id="l-rm-15006;F03;308" transform="translate(295333.14,116865.72)">
          <text>308</text>
        </g>
        <g id="l-rm-15006;F03;310" transform="translate(284468.14,116865.72)">
          <text>310</text>
        </g>
        <g id="l-rm-15006;F03;302" transform="translate(320405.64,116865.72)">
          <text>302</text>
        </g>
        <g id="l-rm-15006;F03;312" transform="translate(270195.64,116865.72)">
          <text>312</text>
        </g>
      </g>
    </g>
  </g>
</svg>