<svg version="1.1" xmlns="http://www.w3.org/2000/svg" xmlns:xlink="http://www.w3.org/1999/xlink" viewBox="149397.36 213833.98 55470 17178">
  <style>.i0 { stroke:#000000;   } .body { stroke:#ff7f00;   } .rm { stroke:#00ffff;   } .pub_wall { stroke:#c0c0c0;   } .rm-asset { stroke:#0000ff;   fill:#EEEEEE; fill-opacity:1;} .rmtc-asset { stroke:#0000ff;   } .rmtc { stroke:#00ffff;   } .rm-assettxt { stroke:#0000ff;   } .rmtc-assettxt { stroke:#0000ff;   } .cnc-0 { stroke:#000000;  stroke-dasharray:0; } .cnc-1 { stroke:#000000;  stroke-dasharray:0; fill:#cccccc; fill-opacity:1;} .blkclass0 { stroke:#ff7f00;  stroke-width:0.02;  fill:#ff7f00; fill-opacity:1; font-family:Arial; font-size:386.75; font-weight:normal; text-style:normal; text-anchor:start;}</style>
  <view id="defaultView" viewBox="149397.36 213833.98 55470 17178" />
  <defs>
    <symbol id="$WINLIB2D$00000001_2900x360" overflow="visible" class="i0">
      <path d="M1450,180l0,-360" />
      <path d="M-1450,-180l0,360" />
      <path d="M1450,-60l-2900,0" />
      <path d="M1450,60l-2900,0" />
      <path d="M-1450,180l2900,0" />
      <path d="M-1450,-180l2900,0" />
    </symbol>
    <symbol id="$WINLIB2D$00000001_3000x360" overflow="visible" class="i0">
      <path d="M1500,180l0,-360" />
      <path d="M-1500,-180l0,360" />
      <path d="M1500,-60l-3000,0" />
      <path d="M1500,60l-3000,0" />
      <path d="M-1500,180l3000,0" />
      <path d="M-1500,-180l3000,0" />
    </symbol>
    <symbol id="$DorLib2D$00000116" overflow="visible" class="i0">
      <path d="M-0.5,0l0.35,-0.35" />
      <path d="M-0.15,-0.35a0.5,0.5 0 0,1 0.15,0.35" />
      <path d="M0,0a0.5,0.5 0 0,1 0.15,-0.35" />
      <path d="M0.5,0l-0.35,-0.35" />
    </symbol>
    <symbol id="$DorLib2D$00000114" overflow="visible" class="i0">
      <path d="M-0.5,0a1,1 0 0,1 0.29,-0.71" />
      <path d="M0.5,0l-0.71,-0.71" />
    </symbol>
    <symbol id="$lvtry$00000201" overflow="visible" class="i0">
      <path d="M-109.78,40l0,429.66" class="cnc-0" />
      <path d="M139.78,40a40,40 0 0,0 -40,-40m0,0l-199.57,0m0,0a40,40 0 0,0 -40,40m0,0l0,439.66m0,0a110,110 0 0,0 110,110m0,0l59.57,0m0,0a110,110 0 0,0 110,-110m0,0l0,-439.66" class="cnc-0" />
      <path d="M99.78,30a10,10 0 0,1 10,10" />
      <path d="M-109.78,40a10,10 0 0,1 10,-10" />
      <path d="M99.78,30l-199.57,0" />
      <circle r="20" cy="358.61" />
      <path d="M139.78,469.66l-279.57,0" />
      <path d="M109.78,469.66l0,-429.66" />
    </symbol>
    <symbol id="$TCHSYS$APDOOR2D" overflow="visible" class="i0">
      <path d="M0.5,0l-0.5,-0.87" />
      <path d="M-0.5,0a1,1 0 0,1 0.5,-0.87" />
    </symbol>
    <symbol id="$lvtry$00000171" overflow="visible" class="i0">
      <path d="M10.61,74.25l63.64,-63.64" />
      <path d="M-27.39,69.82l97.21,-97.21" />
      <path d="M-74.25,-10.61l63.64,-63.64" />
      <path d="M-69.82,27.39l97.21,-97.21" />
      <path d="M-53.03,53.03l106.07,-106.07" />
      <circle r="75" />
    </symbol>
    <symbol id="$lvtry$00000191" overflow="visible" class="i0">
      <circle r="50" cy="250" />
      <path d="M39.04,281.23l210.96,168.77" />
      <path d="M39.04,218.77l210.96,-168.77" />
      <path d="M250,450l0,-400l-500,0l0,400z" class="cnc-1" />
      <path d="M300,500l0,-500l-600,0l0,500z" class="cnc-1" />
      <path d="M-250,450l210.96,-168.77" />
      <path d="M-250,50l210.96,168.77" />
    </symbol>
    <symbol id="$lvtry$00000194" overflow="visible" class="i0">
      <path d="M14.41,34.95a172.58,172.58 0 0,1 27.83,-7.78" />
      <path d="M43.06,7.68a258.71,258.71 0 0,1 -34.21,-5.14" />
      <circle r="20" cy="221.43" />
      <path d="M-24.71,68.62a166.25,166.25 0 0,1 28.52,-25.84" />
      <path d="M-24.7,68.61a6.77,6.77 0 0,1 -10.36,-8.14" />
      <path d="M-16.69,26.66a166.25,166.25 0 0,1 -18.37,33.81" />
      <path d="M9.2,83.36a9.9,9.9 0 0,1 -18.4,0" />
      <path d="M9.2,83.36a372.22,372.22 0 0,1 5.21,-48.41" />
      <path d="M-11.46,55.11a372.22,372.22 0 0,1 2.26,28.25" />
      <path d="M-42.24,27.17a172.58,172.58 0 0,1 22.78,5.99" />
      <circle r="16.692" cy="26.53" />
      <path d="M-27.27,66.38a169.65,169.65 0 0,1 13.49,-13.76" />
      <path d="M-13.78,52.62a10.6,10.6 0 0,1 -8.32,-6.54" />
      <path d="M-22.1,46.08a169.65,169.65 0 0,1 -10.18,16.35" />
      <path d="M-26.81,65.94a3.37,3.37 0 0,1 -5.15,-4.05" />
      <path d="M-16.69,26.53l0,-9.84" />
      <path d="M16.69,26.53l0,-9.84" />
      <path d="M-8.85,2.54a258.71,258.71 0 0,1 -34.21,5.14" />
      <path d="M-16.69,16.69a16.69,16.69 0 0,1 33.38,0" />
      <path d="M-42.24,27.17a10.06,10.06 0 0,1 -0.82,-19.49" />
      <circle r="15" cy="221.43" />
      <path d="M92.26,53.38a297.6,297.6 0 0,0 -78.54,-14.35m152.45,53.87a239.54,239.54 0 0,0 -73.91,-39.52m125.84,101.92a194.91,194.91 0 0,0 -51.93,-62.39m68.82,130.81a146.95,146.95 0 0,0 -16.9,-68.42m0,136.85a146.95,146.95 0 0,0 16.9,-68.42m-68.82,130.82a194.91,194.91 0 0,0 51.93,-62.39m-125.84,101.91a239.54,239.54 0 0,0 73.91,-39.52m-166.17,54.18a297.6,297.6 0 0,0 92.26,-14.66m-184.52,0a297.6,297.6 0 0,0 92.26,14.66m-166.17,-54.18a239.54,239.54 0 0,0 73.91,39.52m-125.83,-101.91a194.91,194.91 0 0,0 51.93,62.39m-68.83,-130.82a146.95,146.95 0 0,0 16.9,68.42m0,-136.85a146.95,146.95 0 0,0 -16.9,68.42m68.83,-130.81a194.91,194.91 0 0,0 -51.93,62.39m125.83,-101.92a239.54,239.54 0 0,0 -73.91,39.52m143.65,-53.33a297.6,297.6 0 0,0 -69.74,13.81" class="cnc-0" />
      <path d="M43.06,7.68a10.06,10.06 0 0,1 -0.82,19.49" />
    </symbol>
    <symbol id="$lvtry$00000222" overflow="visible" class="i0">
      <path d="M-205,190.69l0,-190.69l410,0l0,190.69m0,0a203.43,203.43 0 0,0 -154.23,132.77m-50.77,36.19a54,54 0 0,0 50.77,-36.18m-101.53,0a54,54 0 0,0 50.77,36.18m-50.77,-36.19a203.43,203.43 0 0,0 -154.23,-132.77" class="cnc-0" />
      <path d="M22.45,323.92a233.43,233.43 0 0,1 138.63,-141.65" />
      <path d="M-155.89,184.28a233.43,233.43 0 0,1 133.44,139.64" />
      <circle r="20" cy="241.62" />
      <path d="M22.45,323.92a24,24 0 0,1 -22.45,16.08" />
      <path d="M0,340a24,24 0 0,1 -22.45,-16.08" />
      <path d="M-156.25,165.88a395,395 0 0,1 317.79,-2.15" />
      <path d="M-155.89,184.29a10,10 0 0,1 -0.36,-18.41" />
      <circle r="20" cx="-0.03" cy="60.43" />
      <path d="M161.54,163.73a10,10 0 0,1 -0.46,18.55" />
    </symbol>
  </defs>
  <g id="viewer">
    <g id="mirror" transform="scale(1, 1)" stroke-width="0.09%">
      <g id="background" fill="none">
        <g id="layer-body-fills" class="body">
          <path d="M158773.96,221006.39l0,-1860l600,0l0,1860z" />
          <path d="M158533.96,221006.39l0,-1860l-600,0l0,1860z" />
          <path d="M190933.96,219312.67l240,0l0,1092.14l-240,0z" />
        </g>
        <g id="layer-RM-fills" class="rm">
          <path d="M165973.96,223646.39l6960,0l0,6080l-6960,0z" />
          <path d="M180373.96,223646.39l14160,0l0,6080l-14160,0z" />
        </g>
        <g id="layer-body" class="body">
          <path d="M158799.92,219146.39l0,1860" />
          <path d="M158508,219146.39l0,1860" />
          <path d="M151253.96,221576.39l0,1500" />
          <path d="M150313.96,221326.39l0,2000" />
          <path d="M151253.96,220926.39l-1840,0" />
          <path d="M150313.96,221326.39l-900,0" />
          <path d="M150313.96,223326.39l-900,0" />
          <path d="M151253.96,223726.39l-1840,0" />
          <path d="M150013.96,221326.39l0,2000" />
          <path d="M149713.96,221326.39l0,2000" />
          <path d="M149413.96,220926.39l0,2800" />
          <path d="M151153.96,220926.39l0,-6500l600,0l0,240l6600,0l0,-240l600,0l0,240l6600,0l0,-240l600,0l0,240l6600,0l0,-240l600,0l0,240l6600,0l0,-240l600,0l0,240l6600,0l0,-240l600,0l0,240l6600,0l0,-240l600,0l0,240l6600,0l0,-140" />
          <path d="M201553.96,214526.39l0,-560" />
          <path d="M151153.96,223726.39l0,6700l600,0l0,-240l6600,0l0,240l600,0l0,-240l6600,0l0,240l600,0l0,-240l6600,0l0,240l600,0l0,-240l6600,0l0,240l600,0l0,-240l6600,0l0,240l600,0l0,-240l6600,0l0,240l600,0l0,-240l6600,0l0,140" />
          <path d="M201553.96,230326.39l0,560" />
          <path d="M201553.96,213846.39l-51240,0l0,7080" />
          <path d="M150313.96,223726.39l0,7280l51240,0" />
          <path d="M150433.96,223726.39l0,7160l51120,0" />
          <path d="M201553.96,213966.39l-51120,0l0,6960" />
          <path d="M202053.96,221576.39l0,1500" />
          <path d="M202353.96,221246.39l0,2160" />
          <path d="M156353.96,221006.39l1000,0" />
          <path d="M159953.96,221006.39l1000,0" />
          <path d="M159986.46,219026.39l0,-3900" />
          <path d="M157321.46,219026.39l0,-3900" />
          <path d="M151253.96,229726.39l0,-6000" />
          <path d="M151613.96,229726.39l0,-6000" />
          <path d="M202053.96,215126.39l0,5800" />
          <path d="M201693.96,215126.39l0,5800" />
          <path d="M201653.96,214766.39l-200,0" />
          <path d="M201453.96,214766.39l0,360" />
          <path d="M201453.96,215126.39l200,0" />
          <path d="M198453.96,215126.39l100,0" />
          <path d="M198553.96,215126.39l0,-360" />
          <path d="M198553.96,214766.39l-100,0" />
          <path d="M151653.96,230086.39l200,0" />
          <path d="M151853.96,230086.39l0,-360" />
          <path d="M151853.96,229726.39l-200,0" />
          <path d="M154853.96,229726.39l-100,0" />
          <path d="M154753.96,229726.39l0,360" />
          <path d="M154753.96,230086.39l100,0" />
          <path d="M151613.96,223326.39l0,-250" />
          <path d="M151613.96,223076.39l-360,0" />
          <path d="M151253.96,223076.39l0,250" />
          <path d="M151253.96,221326.39l0,250" />
          <path d="M151253.96,221576.39l360,0" />
          <path d="M151613.96,221576.39l0,-250" />
          <path d="M202053.96,223726.39l0,6000" />
          <path d="M201693.96,223726.39l0,6000" />
          <path d="M151613.96,223646.39l1140,0" />
          <path d="M152753.96,223646.39l0,-240" />
          <path d="M152753.96,223406.39l-1140,0" />
          <path d="M155053.96,223406.39l-1300,0" />
          <path d="M153753.96,223406.39l0,240" />
          <path d="M153753.96,223646.39l1180,0" />
          <path d="M202053.96,223406.39l2080,0" />
          <path d="M202053.96,223646.39l2200,0" />
          <path d="M154933.96,221246.39l1420,0" />
          <path d="M156353.96,221246.39l0,-240" />
          <path d="M156353.96,221006.39l-1180,0" />
          <path d="M158533.96,221006.39l-1180,0" />
          <path d="M157353.96,221006.39l0,240" />
          <path d="M157353.96,221246.39l1300,0" />
          <path d="M154853.96,214766.39l-100,0" />
          <path d="M154753.96,214766.39l0,360" />
          <path d="M154753.96,215126.39l100,0" />
          <path d="M151653.96,215126.39l200,0" />
          <path d="M151853.96,215126.39l0,-360" />
          <path d="M151853.96,214766.39l-200,0" />
          <path d="M155173.96,215126.39l0,3900" />
          <path d="M154933.96,215126.39l0,4020" />
          <path d="M198053.96,214766.39l-100,0" />
          <path d="M197953.96,214766.39l0,360" />
          <path d="M197953.96,215126.39l100,0" />
          <path d="M194853.96,215126.39l100,0" />
          <path d="M194953.96,215126.39l0,-360" />
          <path d="M194953.96,214766.39l-100,0" />
          <path d="M198373.96,215126.39l0,6120" />
          <path d="M198133.96,215126.39l0,5880" />
          <path d="M187453.96,221246.39l1300,0" />
          <path d="M188753.96,221246.39l0,-240" />
          <path d="M188753.96,221006.39l-1180,0" />
          <path d="M190933.96,221006.39l-1180,0" />
          <path d="M189753.96,221006.39l0,240" />
          <path d="M189753.96,221246.39l1300,0" />
          <path d="M187253.96,214766.39l-100,0" />
          <path d="M187153.96,214766.39l0,360" />
          <path d="M187153.96,215126.39l100,0" />
          <path d="M184053.96,215126.39l100,0" />
          <path d="M184153.96,215126.39l0,-360" />
          <path d="M184153.96,214766.39l-100,0" />
          <path d="M187573.96,215126.39l0,5880" />
          <path d="M187333.96,215126.39l0,5880" />
          <path d="M180253.96,221246.39l1300,0" />
          <path d="M181553.96,221246.39l0,-240" />
          <path d="M181553.96,221006.39l-1180,0" />
          <path d="M187333.96,221006.39l-4780,0" />
          <path d="M182553.96,221006.39l0,240" />
          <path d="M182553.96,221246.39l4900,0" />
          <path d="M180053.96,214766.39l-100,0" />
          <path d="M179953.96,214766.39l0,360" />
          <path d="M179953.96,215126.39l100,0" />
          <path d="M176853.96,215126.39l100,0" />
          <path d="M176953.96,215126.39l0,-360" />
          <path d="M176953.96,214766.39l-100,0" />
          <path d="M180373.96,215126.39l0,5880" />
          <path d="M180133.96,215126.39l0,5880" />
          <path d="M190853.96,214766.39l-100,0" />
          <path d="M190753.96,214766.39l0,360" />
          <path d="M190753.96,215126.39l100,0" />
          <path d="M187653.96,215126.39l100,0" />
          <path d="M187753.96,215126.39l0,-360" />
          <path d="M187753.96,214766.39l-100,0" />
          <path d="M191053.96,221246.39l1300,0" />
          <path d="M192353.96,221246.39l0,-240" />
          <path d="M192353.96,221006.39l-1180,0" />
          <path d="M194533.96,221006.39l-1180,0" />
          <path d="M193353.96,221006.39l0,240" />
          <path d="M193353.96,221246.39l1300,0" />
          <path d="M191173.96,215126.39l0,5880" />
          <path d="M190933.96,215126.39l0,5880" />
          <path d="M194453.96,214766.39l-100,0" />
          <path d="M194353.96,214766.39l0,360" />
          <path d="M194353.96,215126.39l100,0" />
          <path d="M191253.96,215126.39l100,0" />
          <path d="M191353.96,215126.39l0,-360" />
          <path d="M191353.96,214766.39l-100,0" />
          <path d="M194653.96,221246.39l1300,0" />
          <path d="M195953.96,221246.39l0,-240" />
          <path d="M195953.96,221006.39l-1180,0" />
          <path d="M198133.96,221006.39l-1180,0" />
          <path d="M196953.96,221006.39l0,240" />
          <path d="M196953.96,221246.39l1420,0" />
          <path d="M194773.96,215126.39l0,5880" />
          <path d="M194533.96,215126.39l0,5880" />
          <path d="M176653.96,221246.39l1300,0" />
          <path d="M177953.96,221246.39l0,-240" />
          <path d="M177953.96,221006.39l-1180,0" />
          <path d="M180133.96,221006.39l-1180,0" />
          <path d="M178953.96,221006.39l0,240" />
          <path d="M178953.96,221246.39l1300,0" />
          <path d="M176453.96,214766.39l-100,0" />
          <path d="M176353.96,214766.39l0,360" />
          <path d="M176353.96,215126.39l100,0" />
          <path d="M173253.96,215126.39l100,0" />
          <path d="M173353.96,215126.39l0,-360" />
          <path d="M173353.96,214766.39l-100,0" />
          <path d="M176773.96,215126.39l0,5880" />
          <path d="M176533.96,215126.39l0,5880" />
          <path d="M173053.96,221246.39l1300,0" />
          <path d="M174353.96,221246.39l0,-240" />
          <path d="M174353.96,221006.39l-1180,0" />
          <path d="M176533.96,221006.39l-1180,0" />
          <path d="M175353.96,221006.39l0,240" />
          <path d="M175353.96,221246.39l1300,0" />
          <path d="M172853.96,214766.39l-100,0" />
          <path d="M172753.96,214766.39l0,360" />
          <path d="M172753.96,215126.39l100,0" />
          <path d="M169653.96,215126.39l100,0" />
          <path d="M169753.96,215126.39l0,-360" />
          <path d="M169753.96,214766.39l-100,0" />
          <path d="M173173.96,215126.39l0,5880" />
          <path d="M172933.96,215126.39l0,5880" />
          <path d="M169453.96,221246.39l1300,0" />
          <path d="M170753.96,221246.39l0,-240" />
          <path d="M170753.96,221006.39l-1180,0" />
          <path d="M172933.96,221006.39l-1180,0" />
          <path d="M171753.96,221006.39l0,240" />
          <path d="M171753.96,221246.39l1300,0" />
          <path d="M169253.96,214766.39l-100,0" />
          <path d="M169153.96,214766.39l0,360" />
          <path d="M169153.96,215126.39l100,0" />
          <path d="M166053.96,215126.39l100,0" />
          <path d="M166153.96,215126.39l0,-360" />
          <path d="M166153.96,214766.39l-100,0" />
          <path d="M169573.96,215126.39l0,5880" />
          <path d="M169333.96,215126.39l0,5880" />
          <path d="M165853.96,221246.39l1300,0" />
          <path d="M167153.96,221246.39l0,-240" />
          <path d="M167153.96,221006.39l-1180,0" />
          <path d="M169333.96,221006.39l-1180,0" />
          <path d="M168153.96,221006.39l0,240" />
          <path d="M168153.96,221246.39l1300,0" />
          <path d="M165653.96,214766.39l-100,0" />
          <path d="M165553.96,214766.39l0,360" />
          <path d="M165553.96,215126.39l100,0" />
          <path d="M162453.96,215126.39l100,0" />
          <path d="M162553.96,215126.39l0,-360" />
          <path d="M162553.96,214766.39l-100,0" />
          <path d="M165973.96,215126.39l0,5880" />
          <path d="M165733.96,215126.39l0,5880" />
          <path d="M162253.96,221246.39l1300,0" />
          <path d="M163553.96,221246.39l0,-240" />
          <path d="M163553.96,221006.39l-1180,0" />
          <path d="M165733.96,221006.39l-1180,0" />
          <path d="M164553.96,221006.39l0,240" />
          <path d="M164553.96,221246.39l1300,0" />
          <path d="M162053.96,214766.39l-100,0" />
          <path d="M161953.96,214766.39l0,360" />
          <path d="M161953.96,215126.39l100,0" />
          <path d="M158853.96,215126.39l100,0" />
          <path d="M158953.96,215126.39l0,-360" />
          <path d="M158953.96,214766.39l-100,0" />
          <path d="M162373.96,215126.39l0,4020" />
          <path d="M162133.96,215126.39l0,3900" />
          <path d="M158653.96,221246.39l1300,0" />
          <path d="M159953.96,221246.39l0,-240" />
          <path d="M159953.96,221006.39l-1180,0" />
          <path d="M162133.96,221006.39l-1180,0" />
          <path d="M160953.96,221006.39l0,240" />
          <path d="M160953.96,221246.39l1300,0" />
          <path d="M158453.96,214766.39l-100,0" />
          <path d="M158353.96,214766.39l0,360" />
          <path d="M158353.96,215126.39l100,0" />
          <path d="M155253.96,215126.39l100,0" />
          <path d="M155353.96,215126.39l0,-360" />
          <path d="M155353.96,214766.39l-100,0" />
          <path d="M158773.96,215126.39l0,3900" />
          <path d="M158533.96,215126.39l0,3900" />
          <path d="M155253.96,230086.39l100,0" />
          <path d="M155353.96,230086.39l0,-360" />
          <path d="M155353.96,229726.39l-100,0" />
          <path d="M158453.96,229726.39l-100,0" />
          <path d="M158353.96,229726.39l0,360" />
          <path d="M158353.96,230086.39l100,0" />
          <path d="M155173.96,223646.39l4780,0" />
          <path d="M159953.96,223646.39l0,-240" />
          <path d="M159953.96,223406.39l-4900,0" />
          <path d="M162253.96,223406.39l-1300,0" />
          <path d="M160953.96,223406.39l0,240" />
          <path d="M160953.96,223646.39l1180,0" />
          <path d="M154933.96,229726.39l0,-6080" />
          <path d="M155173.96,229726.39l0,-6080" />
          <path d="M162453.96,230086.39l100,0" />
          <path d="M162553.96,230086.39l0,-360" />
          <path d="M162553.96,229726.39l-100,0" />
          <path d="M165653.96,229726.39l-100,0" />
          <path d="M165553.96,229726.39l0,360" />
          <path d="M165553.96,230086.39l100,0" />
          <path d="M162253.96,223406.39l1300,0" />
          <path d="M164553.96,223406.39l1300,0" />
          <path d="M162373.96,223646.39l1180,0" />
          <path d="M164553.96,223646.39l1180,0" />
          <path d="M162373.96,229726.39l0,-240" />
          <path d="M162133.96,229486.39l0,240" />
          <path d="M162133.96,226226.39l0,2260" />
          <path d="M162373.96,228486.39l0,-2380" />
          <path d="M166053.96,230086.39l100,0" />
          <path d="M166153.96,230086.39l0,-360" />
          <path d="M166153.96,229726.39l-100,0" />
          <path d="M169253.96,229726.39l-100,0" />
          <path d="M169153.96,229726.39l0,360" />
          <path d="M169153.96,230086.39l100,0" />
          <path d="M165973.96,223646.39l1180,0" />
          <path d="M167153.96,223646.39l0,-240" />
          <path d="M167153.96,223406.39l-1300,0" />
          <path d="M173053.96,223406.39l-1300,0" />
          <path d="M171753.96,223406.39l0,240" />
          <path d="M171753.96,223646.39l1180,0" />
          <path d="M168153.96,223646.39l2600,0" />
          <path d="M170753.96,223646.39l0,-240" />
          <path d="M170753.96,223406.39l-2600,0" />
          <path d="M168153.96,223406.39l0,240" />
          <path d="M165973.96,229726.39l0,-2140" />
          <path d="M165973.96,227586.39l-240,0" />
          <path d="M165733.96,227586.39l0,2140" />
          <path d="M165733.96,226346.39l0,240" />
          <path d="M165733.96,226586.39l240,0" />
          <path d="M165973.96,226586.39l0,-360" />
          <path d="M173253.96,230086.39l100,0" />
          <path d="M173353.96,230086.39l0,-360" />
          <path d="M173353.96,229726.39l-100,0" />
          <path d="M176453.96,229726.39l-100,0" />
          <path d="M176353.96,229726.39l0,360" />
          <path d="M176353.96,230086.39l100,0" />
          <path d="M173173.96,223646.39l1180,0" />
          <path d="M174353.96,223646.39l0,-240" />
          <path d="M174353.96,223406.39l-1300,0" />
          <path d="M176653.96,223406.39l-1300,0" />
          <path d="M175353.96,223406.39l0,240" />
          <path d="M175353.96,223646.39l1180,0" />
          <path d="M172933.96,229726.39l0,-6080" />
          <path d="M173173.96,229726.39l0,-6080" />
          <path d="M176853.96,230086.39l100,0" />
          <path d="M176953.96,230086.39l0,-360" />
          <path d="M176953.96,229726.39l-100,0" />
          <path d="M180053.96,229726.39l-100,0" />
          <path d="M179953.96,229726.39l0,360" />
          <path d="M179953.96,230086.39l100,0" />
          <path d="M176773.96,223646.39l1180,0" />
          <path d="M177953.96,223646.39l0,-240" />
          <path d="M177953.96,223406.39l-1300,0" />
          <path d="M180253.96,223406.39l-1300,0" />
          <path d="M178953.96,223406.39l0,240" />
          <path d="M178953.96,223646.39l1180,0" />
          <path d="M176533.96,229726.39l0,-6080" />
          <path d="M176773.96,229726.39l0,-6080" />
          <path d="M180453.96,230086.39l100,0" />
          <path d="M180553.96,230086.39l0,-360" />
          <path d="M180553.96,229726.39l-100,0" />
          <path d="M183653.96,229726.39l-100,0" />
          <path d="M183553.96,229726.39l0,360" />
          <path d="M183553.96,230086.39l100,0" />
          <path d="M180373.96,223646.39l930,0" />
          <path d="M181303.96,223406.39l-1050,0" />
          <path d="M194653.96,223406.39l-1050,0" />
          <path d="M193603.96,223406.39l0,240" />
          <path d="M193603.96,223646.39l930,0" />
          <path d="M182803.96,223646.39l9300,0" />
          <path d="M192103.96,223646.39l0,-240" />
          <path d="M192103.96,223406.39l-9300,0" />
          <path d="M182803.96,223406.39l0,240" />
          <path d="M180133.96,229726.39l0,-6080" />
          <path d="M180373.96,229726.39l0,-6080" />
          <path d="M194853.96,230086.39l100,0" />
          <path d="M194953.96,230086.39l0,-360" />
          <path d="M194953.96,229726.39l-100,0" />
          <path d="M198053.96,229726.39l-100,0" />
          <path d="M197953.96,229726.39l0,360" />
          <path d="M197953.96,230086.39l100,0" />
          <path d="M194773.96,223646.39l1225,0" />
          <path d="M196998.96,223646.39l2555,0" />
          <path d="M199553.96,223646.39l0,-240" />
          <path d="M199553.96,223406.39l-2555,0" />
          <path d="M195998.96,223406.39l-1345,0" />
          <path d="M201693.96,223406.39l-1140,0" />
          <path d="M200553.96,223406.39l0,240" />
          <path d="M200553.96,223646.39l1140,0" />
          <path d="M194533.96,229726.39l0,-6080" />
          <path d="M194773.96,229726.39l0,-6080" />
          <path d="M202053.96,221006.39l2200,0" />
          <path d="M202053.96,221246.39l2080,0" />
          <path d="M201693.96,221326.39l0,250" />
          <path d="M201693.96,221576.39l360,0" />
          <path d="M202053.96,221576.39l0,-250" />
          <path d="M202053.96,223326.39l0,-250" />
          <path d="M202053.96,223076.39l-360,0" />
          <path d="M201693.96,223076.39l0,250" />
          <path d="M204373.96,223406.39l480,0" />
          <path d="M204253.96,223646.39l600,0" />
          <path d="M204853.96,223406.39l0,240" />
          <path d="M204253.96,221006.39l600,0" />
          <path d="M204373.96,221246.39l480,0" />
          <path d="M204853.96,221006.39l0,240" />
          <path d="M204373.96,223406.39l0,-330" />
          <path d="M204373.96,223076.39l-240,0" />
          <path d="M204133.96,223076.39l0,330" />
          <path d="M204133.96,221246.39l0,330" />
          <path d="M204133.96,221576.39l240,0" />
          <path d="M204373.96,221576.39l0,-330" />
          <path d="M158453.96,215126.39l400,0" />
          <path d="M158853.96,215126.39l0,-600" />
          <path d="M158853.96,214526.39l-400,0" />
          <path d="M158453.96,214526.39l0,600" />
          <path d="M158453.96,230326.39l400,0" />
          <path d="M158853.96,230326.39l0,-600" />
          <path d="M158853.96,229726.39l-400,0" />
          <path d="M158453.96,229726.39l0,600" />
          <path d="M158853.96,230086.39l100,0" />
          <path d="M158953.96,230086.39l0,-360" />
          <path d="M158953.96,229726.39l-100,0" />
          <path d="M162053.96,229726.39l-100,0" />
          <path d="M161953.96,229726.39l0,360" />
          <path d="M161953.96,230086.39l100,0" />
          <path d="M151253.96,230326.39l400,0" />
          <path d="M151653.96,230326.39l0,-600" />
          <path d="M151653.96,229726.39l-400,0" />
          <path d="M151253.96,229726.39l0,600" />
          <path d="M151253.96,215126.39l400,0" />
          <path d="M151653.96,215126.39l0,-600" />
          <path d="M151653.96,214526.39l-400,0" />
          <path d="M151253.96,214526.39l0,600" />
          <path d="M154853.96,215126.39l400,0" />
          <path d="M155253.96,215126.39l0,-360" />
          <path d="M155253.96,214766.39l-400,0" />
          <path d="M154853.96,214766.39l0,360" />
          <path d="M154853.96,230086.39l400,0" />
          <path d="M155253.96,230086.39l0,-360" />
          <path d="M155253.96,229726.39l-400,0" />
          <path d="M154853.96,229726.39l0,360" />
          <path d="M165653.96,215126.39l400,0" />
          <path d="M166053.96,215126.39l0,-600" />
          <path d="M166053.96,214526.39l-400,0" />
          <path d="M165653.96,214526.39l0,600" />
          <path d="M165653.96,230326.39l400,0" />
          <path d="M166053.96,230326.39l0,-600" />
          <path d="M166053.96,229726.39l-400,0" />
          <path d="M165653.96,229726.39l0,600" />
          <path d="M162053.96,215126.39l400,0" />
          <path d="M162453.96,215126.39l0,-360" />
          <path d="M162453.96,214766.39l-400,0" />
          <path d="M162053.96,214766.39l0,360" />
          <path d="M162053.96,230086.39l400,0" />
          <path d="M162453.96,230086.39l0,-360" />
          <path d="M162453.96,229726.39l-400,0" />
          <path d="M162053.96,229726.39l0,360" />
          <path d="M172853.96,215126.39l400,0" />
          <path d="M173253.96,215126.39l0,-600" />
          <path d="M173253.96,214526.39l-400,0" />
          <path d="M172853.96,214526.39l0,600" />
          <path d="M172853.96,230326.39l400,0" />
          <path d="M173253.96,230326.39l0,-600" />
          <path d="M173253.96,229726.39l-400,0" />
          <path d="M172853.96,229726.39l0,600" />
          <path d="M169253.96,215126.39l400,0" />
          <path d="M169653.96,215126.39l0,-360" />
          <path d="M169653.96,214766.39l-400,0" />
          <path d="M169253.96,214766.39l0,360" />
          <path d="M169253.96,230086.39l400,0" />
          <path d="M169653.96,230086.39l0,-360" />
          <path d="M169653.96,229726.39l-400,0" />
          <path d="M169253.96,229726.39l0,360" />
          <path d="M180053.96,215126.39l400,0" />
          <path d="M180453.96,215126.39l0,-600" />
          <path d="M180453.96,214526.39l-400,0" />
          <path d="M180053.96,214526.39l0,600" />
          <path d="M180053.96,230326.39l400,0" />
          <path d="M180453.96,230326.39l0,-600" />
          <path d="M180453.96,229726.39l-400,0" />
          <path d="M180053.96,229726.39l0,600" />
          <path d="M176453.96,215126.39l400,0" />
          <path d="M176853.96,215126.39l0,-360" />
          <path d="M176853.96,214766.39l-400,0" />
          <path d="M176453.96,214766.39l0,360" />
          <path d="M176453.96,230086.39l400,0" />
          <path d="M176853.96,230086.39l0,-360" />
          <path d="M176853.96,229726.39l-400,0" />
          <path d="M176453.96,229726.39l0,360" />
          <path d="M187253.96,215126.39l400,0" />
          <path d="M187653.96,215126.39l0,-600" />
          <path d="M187653.96,214526.39l-400,0" />
          <path d="M187253.96,214526.39l0,600" />
          <path d="M187253.96,230326.39l400,0" />
          <path d="M187653.96,230326.39l0,-600" />
          <path d="M187653.96,229726.39l-400,0" />
          <path d="M187253.96,229726.39l0,600" />
          <path d="M183653.96,215126.39l400,0" />
          <path d="M184053.96,215126.39l0,-360" />
          <path d="M184053.96,214766.39l-400,0" />
          <path d="M183653.96,214766.39l0,360" />
          <path d="M183653.96,230086.39l400,0" />
          <path d="M184053.96,230086.39l0,-360" />
          <path d="M184053.96,229726.39l-400,0" />
          <path d="M183653.96,229726.39l0,360" />
          <path d="M194453.96,215126.39l400,0" />
          <path d="M194853.96,215126.39l0,-600" />
          <path d="M194853.96,214526.39l-400,0" />
          <path d="M194453.96,214526.39l0,600" />
          <path d="M194453.96,230326.39l400,0" />
          <path d="M194853.96,230326.39l0,-600" />
          <path d="M194853.96,229726.39l-400,0" />
          <path d="M194453.96,229726.39l0,600" />
          <path d="M190853.96,215126.39l400,0" />
          <path d="M191253.96,215126.39l0,-360" />
          <path d="M191253.96,214766.39l-400,0" />
          <path d="M190853.96,214766.39l0,360" />
          <path d="M190853.96,230086.39l400,0" />
          <path d="M191253.96,230086.39l0,-360" />
          <path d="M191253.96,229726.39l-400,0" />
          <path d="M190853.96,229726.39l0,360" />
          <path d="M169653.96,230086.39l100,0" />
          <path d="M169753.96,230086.39l0,-360" />
          <path d="M169753.96,229726.39l-100,0" />
          <path d="M172853.96,229726.39l-100,0" />
          <path d="M172753.96,229726.39l0,360" />
          <path d="M172753.96,230086.39l100,0" />
          <path d="M187653.96,230086.39l100,0" />
          <path d="M187753.96,230086.39l0,-360" />
          <path d="M187753.96,229726.39l-100,0" />
          <path d="M190853.96,229726.39l-100,0" />
          <path d="M190753.96,229726.39l0,360" />
          <path d="M190753.96,230086.39l100,0" />
          <path d="M183653.96,214766.39l-100,0" />
          <path d="M183553.96,214766.39l0,360" />
          <path d="M183553.96,215126.39l100,0" />
          <path d="M180453.96,215126.39l100,0" />
          <path d="M180553.96,215126.39l0,-360" />
          <path d="M180553.96,214766.39l-100,0" />
          <path d="M184053.96,230086.39l100,0" />
          <path d="M184153.96,230086.39l0,-360" />
          <path d="M184153.96,229726.39l-100,0" />
          <path d="M187253.96,229726.39l-100,0" />
          <path d="M187153.96,229726.39l0,360" />
          <path d="M187153.96,230086.39l100,0" />
          <path d="M191253.96,230086.39l100,0" />
          <path d="M191353.96,230086.39l0,-360" />
          <path d="M191353.96,229726.39l-100,0" />
          <path d="M194453.96,229726.39l-100,0" />
          <path d="M194353.96,229726.39l0,360" />
          <path d="M194353.96,230086.39l100,0" />
          <path d="M201653.96,215126.39l400,0" />
          <path d="M202053.96,215126.39l0,-600" />
          <path d="M202053.96,214526.39l-400,0" />
          <path d="M201653.96,214526.39l0,600" />
          <path d="M201653.96,230326.39l400,0" />
          <path d="M202053.96,230326.39l0,-600" />
          <path d="M202053.96,229726.39l-400,0" />
          <path d="M201653.96,229726.39l0,600" />
          <path d="M198053.96,215126.39l400,0" />
          <path d="M198453.96,215126.39l0,-360" />
          <path d="M198453.96,214766.39l-400,0" />
          <path d="M198053.96,214766.39l0,360" />
          <path d="M198053.96,230086.39l400,0" />
          <path d="M198453.96,230086.39l0,-360" />
          <path d="M198453.96,229726.39l-400,0" />
          <path d="M198053.96,229726.39l0,360" />
          <path d="M198453.96,230086.39l100,0" />
          <path d="M198553.96,230086.39l0,-360" />
          <path d="M198553.96,229726.39l-100,0" />
          <path d="M201653.96,229726.39l-200,0" />
          <path d="M201453.96,229726.39l0,360" />
          <path d="M201453.96,230086.39l200,0" />
          <use xlink:href="#$WINLIB2D$00000001_2900x360" x="153303.96" y="229906.39">.<g class="blkclass0"><text transform="translate(-455,603.75)" font-size="386.75">C2918</text></g></use>
          <use xlink:href="#$WINLIB2D$00000001_3000x360" x="156853.96" y="229906.39">.<g class="blkclass0"><text transform="translate(-455,603.75)" font-size="386.75">C3018</text></g></use>
          <use xlink:href="#$WINLIB2D$00000001_3000x360" x="160453.96" y="229906.39">.<g class="blkclass0"><text transform="translate(-455,603.75)" font-size="386.75">C3018</text></g></use>
          <use xlink:href="#$WINLIB2D$00000001_3000x360" x="164053.96" y="229906.39">.<g class="blkclass0"><text transform="translate(-455,603.75)" font-size="386.75">C3018</text></g></use>
          <use xlink:href="#$WINLIB2D$00000001_3000x360" x="167653.96" y="229906.39">.<g class="blkclass0"><text transform="translate(-455,603.75)" font-size="386.75">C3018</text></g></use>
          <use xlink:href="#$WINLIB2D$00000001_3000x360" x="171253.96" y="229906.39">.<g class="blkclass0"><text transform="translate(-455,603.75)" font-size="386.75">C3018</text></g></use>
          <use xlink:href="#$WINLIB2D$00000001_3000x360" x="174853.96" y="229906.39">.<g class="blkclass0"><text transform="translate(-455,603.75)" font-size="386.75">C3018</text></g></use>
          <use xlink:href="#$WINLIB2D$00000001_3000x360" x="178453.96" y="229906.39">.<g class="blkclass0"><text transform="translate(-455,603.75)" font-size="386.75">C3018</text></g></use>
          <use xlink:href="#$WINLIB2D$00000001_3000x360" x="182053.96" y="229906.39">.<g class="blkclass0"><text transform="translate(-455,603.75)" font-size="386.75">C3018</text></g></use>
          <use xlink:href="#$WINLIB2D$00000001_3000x360" x="185653.96" y="229906.39">.<g class="blkclass0"><text transform="translate(-455,603.75)" font-size="386.75">C3018</text></g></use>
          <use xlink:href="#$WINLIB2D$00000001_3000x360" x="189253.96" y="229906.39">.<g class="blkclass0"><text transform="translate(-455,603.75)" font-size="386.75">C3018</text></g></use>
          <use xlink:href="#$WINLIB2D$00000001_3000x360" x="192853.96" y="229906.39">.<g class="blkclass0"><text transform="translate(-455,603.75)" font-size="386.75">C3018</text></g></use>
          <use xlink:href="#$WINLIB2D$00000001_3000x360" x="196453.96" y="229906.39">.<g class="blkclass0"><text transform="translate(-455,603.75)" font-size="386.75">C3018</text></g></use>
          <use xlink:href="#$WINLIB2D$00000001_2900x360" x="200003.96" y="229906.39">.<g class="blkclass0"><text transform="translate(-455,603.75)" font-size="386.75">C2918</text></g></use>
          <use xlink:href="#$WINLIB2D$00000001_2900x360" x="200003.96" y="214946.39" transform="rotate(-180,200003.96,214946.39)">.<g class="blkclass0"><text transform="translate(-455,-306.25)" font-size="386.75">C2918</text></g></use>
          <use xlink:href="#$WINLIB2D$00000001_3000x360" x="196453.96" y="214946.39" transform="rotate(-180,196453.96,214946.39)">.<g class="blkclass0"><text transform="translate(-455,-306.25)" font-size="386.75">C3018</text></g></use>
          <use xlink:href="#$WINLIB2D$00000001_3000x360" x="192853.96" y="214946.39" transform="rotate(-180,192853.96,214946.39)">.<g class="blkclass0"><text transform="translate(-455,-306.25)" font-size="386.75">C3018</text></g></use>
          <use xlink:href="#$WINLIB2D$00000001_3000x360" x="189253.96" y="214946.39" transform="rotate(-180,189253.96,214946.39)">.<g class="blkclass0"><text transform="translate(-455,-306.25)" font-size="386.75">C3018</text></g></use>
          <use xlink:href="#$WINLIB2D$00000001_3000x360" x="185653.96" y="214946.39" transform="rotate(-180,185653.96,214946.39)">.<g class="blkclass0"><text transform="translate(-455,-306.25)" font-size="386.75">C3018</text></g></use>
          <use xlink:href="#$WINLIB2D$00000001_3000x360" x="182053.96" y="214946.39" transform="rotate(-180,182053.96,214946.39)">.<g class="blkclass0"><text transform="translate(-455,-306.25)" font-size="386.75">C3018</text></g></use>
          <use xlink:href="#$WINLIB2D$00000001_3000x360" x="178453.96" y="214946.39" transform="rotate(-180,178453.96,214946.39)">.<g class="blkclass0"><text transform="translate(-455,-306.25)" font-size="386.75">C3018</text></g></use>
          <use xlink:href="#$WINLIB2D$00000001_3000x360" x="174853.96" y="214946.39" transform="rotate(-180,174853.96,214946.39)">.<g class="blkclass0"><text transform="translate(-455,-306.25)" font-size="386.75">C3018</text></g></use>
          <use xlink:href="#$WINLIB2D$00000001_3000x360" x="171253.96" y="214946.39" transform="rotate(-180,171253.96,214946.39)">.<g class="blkclass0"><text transform="translate(-455,-306.25)" font-size="386.75">C3018</text></g></use>
          <use xlink:href="#$WINLIB2D$00000001_3000x360" x="167653.96" y="214946.39" transform="rotate(-180,167653.96,214946.39)">.<g class="blkclass0"><text transform="translate(-455,-306.25)" font-size="386.75">C3018</text></g></use>
          <use xlink:href="#$WINLIB2D$00000001_3000x360" x="164053.96" y="214946.39" transform="rotate(-180,164053.96,214946.39)">.<g class="blkclass0"><text transform="translate(-455,-306.25)" font-size="386.75">C3018</text></g></use>
          <use xlink:href="#$WINLIB2D$00000001_3000x360" x="160453.96" y="214946.39" transform="rotate(-180,160453.96,214946.39)">.<g class="blkclass0"><text transform="translate(-455,-306.25)" font-size="386.75">C3018</text></g></use>
          <use xlink:href="#$WINLIB2D$00000001_3000x360" x="156853.96" y="214946.39" transform="rotate(-180,156853.96,214946.39)">.<g class="blkclass0"><text transform="translate(-455,-306.25)" font-size="386.75">C3018</text></g></use>
          <use xlink:href="#$WINLIB2D$00000001_2900x360" x="153303.96" y="214946.39" transform="rotate(-180,153303.96,214946.39)">.<g class="blkclass0"><text transform="translate(-455,-306.25)" font-size="386.75">C2918</text></g></use>
          <use xlink:href="#$DorLib2D$00000116" x="100.956" y="148.218" transform="scale(1500,1500) rotate(-90,100.96,148.22)" stroke-width="0.0001%">.<g class="blkclass0"><text transform="rotate(-90 603.75,470) translate(603.75,470)" font-size="386.75">M1527</text></g></use>
          <use xlink:href="#$DorLib2D$00000116" x="134.583" y="148.218" transform="scale(1500,1500) rotate(-270,134.58,148.22)" stroke-width="0.0001%">.<g class="blkclass0"><text transform="rotate(-90 -306.25,470) translate(-306.25,470)" font-size="386.75">M1527</text></g></use>
          <use xlink:href="#$DorLib2D$00000116" x="136.169" y="148.218" transform="scale(1500,1500) scale(1,-1) translate(0,-296.44) rotate(-270,136.17,148.22)" stroke-width="0.0001%">.<g class="blkclass0"><text transform="rotate(-90 -246.25,470) translate(-246.25,470)" font-size="386.75">M1527</text></g></use>
          <use xlink:href="#$DorLib2D$00000116" x="128.569" y="149.018" transform="scale(1500,1500) scale(1,-1) translate(0,-298.04)" stroke-width="0.0001%">.<g class="blkclass0"><text transform="translate(-470,-246.25)" font-size="386.75">M1527</text></g></use>
          <use xlink:href="#$DorLib2D$00000116" x="121.369" y="149.018" transform="scale(1500,1500) scale(1,-1) translate(0,-298.04)" stroke-width="0.0001%">.<g class="blkclass0"><text transform="translate(-470,-246.25)" font-size="386.75">M1527</text></g></use>
          <use xlink:href="#$DorLib2D$00000114" x="160.454" y="221.126" transform="scale(1000,1000)" stroke-width="0.0001%">.<g class="blkclass0"><text transform="translate(-470,543.75)" font-size="386.75">M1027</text></g></use>
          <use xlink:href="#$DorLib2D$00000114" x="156.854" y="221.126" transform="scale(1000,1000) scale(-1,1) translate(-313.71,0)" stroke-width="0.0001%">.<g class="blkclass0"><text transform="translate(-470,543.75)" font-size="386.75">M1027</text></g></use>
          <use xlink:href="#$DorLib2D$00000114" x="164.054" y="221.126" transform="scale(1000,1000) scale(-1,1) translate(-328.11,0)" stroke-width="0.0001%">.<g class="blkclass0"><text transform="translate(-470,543.75)" font-size="386.75">M1027</text></g></use>
          <use xlink:href="#$DorLib2D$00000114" x="167.654" y="221.126" transform="scale(1000,1000)" stroke-width="0.0001%">.<g class="blkclass0"><text transform="translate(-470,543.75)" font-size="386.75">M1027</text></g></use>
          <use xlink:href="#$DorLib2D$00000114" x="171.254" y="221.126" transform="scale(1000,1000)" stroke-width="0.0001%">.<g class="blkclass0"><text transform="translate(-470,543.75)" font-size="386.75">M1027</text></g></use>
          <use xlink:href="#$DorLib2D$00000114" x="174.854" y="221.126" transform="scale(1000,1000) scale(-1,1) translate(-349.71,0)" stroke-width="0.0001%">.<g class="blkclass0"><text transform="translate(-470,543.75)" font-size="386.75">M1027</text></g></use>
          <use xlink:href="#$DorLib2D$00000114" x="178.454" y="221.126" transform="scale(1000,1000) scale(-1,1) translate(-356.91,0)" stroke-width="0.0001%">.<g class="blkclass0"><text transform="translate(-470,543.75)" font-size="386.75">M1027</text></g></use>
          <use xlink:href="#$DorLib2D$00000114" x="182.054" y="221.126" transform="scale(1000,1000) scale(-1,1) translate(-364.11,0)" stroke-width="0.0001%">.<g class="blkclass0"><text transform="translate(-470,543.75)" font-size="386.75">M1027</text></g></use>
          <use xlink:href="#$DorLib2D$00000114" x="189.254" y="221.126" transform="scale(1000,1000) scale(-1,1) translate(-378.51,0)" stroke-width="0.0001%">.<g class="blkclass0"><text transform="translate(-470,543.75)" font-size="386.75">M1027</text></g></use>
          <use xlink:href="#$DorLib2D$00000114" x="192.854" y="221.126" transform="scale(1000,1000)" stroke-width="0.0001%">.<g class="blkclass0"><text transform="translate(-470,543.75)" font-size="386.75">M1027</text></g></use>
          <use xlink:href="#$DorLib2D$00000114" x="196.454" y="221.126" transform="scale(1000,1000) scale(-1,1) translate(-392.91,0)" stroke-width="0.0001%">.<g class="blkclass0"><text transform="translate(-470,543.75)" font-size="386.75">M1027</text></g></use>
          <use xlink:href="#$DorLib2D$00000114" x="200.054" y="223.526" transform="scale(1000,1000) scale(1,-1) translate(0,-447.05)" stroke-width="0.0001%">.<g class="blkclass0"><text transform="translate(-470,-246.25)" font-size="386.75">M1027</text></g></use>
          <use xlink:href="#$DorLib2D$00000114" x="178.454" y="223.526" transform="scale(1000,1000) scale(1,-1) translate(0,-447.05)" stroke-width="0.0001%">.<g class="blkclass0"><text transform="translate(-470,-246.25)" font-size="386.75">M1027</text></g></use>
          <use xlink:href="#$DorLib2D$00000114" x="174.854" y="223.526" transform="scale(1000,1000) scale(1,-1) translate(0,-447.05)" stroke-width="0.0001%">.<g class="blkclass0"><text transform="translate(-470,-246.25)" font-size="386.75">M1027</text></g></use>
          <use xlink:href="#$DorLib2D$00000114" x="171.254" y="223.526" transform="scale(1000,1000) scale(1,-1) translate(0,-447.05)" stroke-width="0.0001%">.<g class="blkclass0"><text transform="translate(-470,-246.25)" font-size="386.75">M1027</text></g></use>
          <use xlink:href="#$DorLib2D$00000114" x="167.654" y="223.526" transform="scale(1000,1000) scale(-1,-1) translate(-335.31,-447.05)" stroke-width="0.0001%">.<g class="blkclass0"><text transform="translate(-470,-246.25)" font-size="386.75">M1027</text></g></use>
          <use xlink:href="#$DorLib2D$00000114" x="153.254" y="223.526" transform="scale(1000,1000) scale(-1,-1) translate(-306.51,-447.05)" stroke-width="0.0001%">.<g class="blkclass0"><text transform="translate(-470,-246.25)" font-size="386.75">M1027</text></g></use>
          <use xlink:href="#$DorLib2D$00000114" x="160.454" y="223.526" transform="scale(1000,1000) scale(1,-1) translate(0,-447.05)" stroke-width="0.0001%">.<g class="blkclass0"><text transform="translate(-470,-246.25)" font-size="386.75">M1027</text></g></use>
          <path d="M162133.96,226226.39l0,-2580" />
          <path d="M162373.96,226106.39l0,-2460" />
          <path d="M165733.96,226346.39l0,-2700" />
          <path d="M165973.96,226226.39l0,-2580" />
          <use xlink:href="#$DorLib2D$00000114" x="165.854" y="227.086" transform="scale(1000,1000) scale(1,-1) translate(0,-454.17) rotate(-270,165.85,227.09)" stroke-width="0.0001%">.<g class="blkclass0"><text transform="rotate(-90 -246.25,470) translate(-246.25,470)" font-size="386.75">M1027</text></g></use>
          <path d="M162133.96,219026.39l-1247.5,0" />
          <path d="M160886.46,219026.39l0,120" />
          <path d="M160886.46,219146.39l1247.5,0" />
          <path d="M158773.96,219146.39l1212.5,0" />
          <path d="M159986.46,219146.39l0,-120" />
          <path d="M159986.46,219026.39l-1212.5,0" />
          <path d="M158533.96,219026.39l-1212.5,0" />
          <path d="M157321.46,219026.39l0,120" />
          <path d="M157321.46,219146.39l1212.5,0" />
          <path d="M155173.96,219146.39l1247.5,0" />
          <path d="M156421.46,219146.39l0,-120" />
          <path d="M156421.46,219026.39l-1247.5,0" />
          <use xlink:href="#$lvtry$00000201" x="158333.96" y="218576.39" transform="rotate(-270,158333.96,218576.39)">.</use>
          <use xlink:href="#$lvtry$00000201" x="158333.96" y="217676.39" transform="rotate(-270,158333.96,217676.39)">.</use>
          <use xlink:href="#$lvtry$00000201" x="158333.96" y="216776.39" transform="rotate(-270,158333.96,216776.39)">.</use>
          <use xlink:href="#$lvtry$00000201" x="158333.96" y="215876.39" transform="rotate(-270,158333.96,215876.39)">.</use>
          <path d="M158533.96,218138.89l-1187.5,0" />
          <path d="M158533.96,218113.89l-1187.5,0" />
          <path d="M158533.96,218138.89l0,-25" />
          <path d="M157346.46,219026.39l0,-150" />
          <path d="M157346.46,218876.39l-25,0" />
          <path d="M157321.46,218876.39l0,150" />
          <path d="M157321.46,219026.39l25,0" />
          <path d="M157321.46,218126.39l0,150" />
          <path d="M157321.46,218276.39l25,0" />
          <path d="M157346.46,218276.39l0,-137.5" />
          <use xlink:href="#$TCHSYS$APDOOR2D" x="262.223" y="364.294" transform="scale(600,600) scale(-1,1) translate(-524.45,0) rotate(-270,262.22,364.29)" stroke-width="0.0002%">.</use>
          <path d="M158533.96,217238.89l-1187.5,0" />
          <path d="M158533.96,217213.89l-1187.5,0" />
          <path d="M158533.96,217238.89l0,-25" />
          <path d="M157346.46,218113.89l0,-137.5" />
          <path d="M157346.46,217976.39l-25,0" />
          <path d="M157321.46,217976.39l0,150" />
          <path d="M157321.46,217226.39l0,150" />
          <path d="M157321.46,217376.39l25,0" />
          <path d="M157346.46,217376.39l0,-137.5" />
          <use xlink:href="#$TCHSYS$APDOOR2D" x="262.223" y="362.794" transform="scale(600,600) scale(-1,1) translate(-524.45,0) rotate(-270,262.22,362.79)" stroke-width="0.0002%">.</use>
          <path d="M158533.96,216338.89l-1187.5,0" />
          <path d="M158533.96,216313.89l-1187.5,0" />
          <path d="M158533.96,216338.89l0,-25" />
          <path d="M157346.46,217213.89l0,-137.5" />
          <path d="M157346.46,217076.39l-25,0" />
          <path d="M157321.46,217076.39l0,150" />
          <path d="M157321.46,216326.39l0,150" />
          <path d="M157321.46,216476.39l25,0" />
          <path d="M157346.46,216476.39l0,-137.5" />
          <use xlink:href="#$TCHSYS$APDOOR2D" x="262.223" y="361.294" transform="scale(600,600) scale(-1,1) translate(-524.45,0) rotate(-270,262.22,361.29)" stroke-width="0.0002%">.</use>
          <path d="M158533.96,215438.89l-1187.5,0" />
          <path d="M158533.96,215413.89l-1212.5,0" />
          <path d="M158533.96,215438.89l0,-25" />
          <path d="M157346.46,216313.89l0,-137.5" />
          <path d="M157346.46,216176.39l-25,0" />
          <path d="M157321.46,216176.39l0,150" />
          <path d="M157321.46,215413.89l0,162.5" />
          <path d="M157321.46,215576.39l25,0" />
          <path d="M157346.46,215576.39l0,-137.5" />
          <use xlink:href="#$TCHSYS$APDOOR2D" x="262.223" y="359.794" transform="scale(600,600) scale(-1,1) translate(-524.45,0) rotate(-270,262.22,359.79)" stroke-width="0.0002%">.</use>
          <use xlink:href="#$lvtry$00000201" x="158973.96" y="218576.39" transform="scale(1,-1) translate(0,-437152.78) rotate(-90,158973.96,218576.39)">.</use>
          <use xlink:href="#$lvtry$00000201" x="158973.96" y="217676.39" transform="scale(1,-1) translate(0,-435352.78) rotate(-90,158973.96,217676.39)">.</use>
          <use xlink:href="#$lvtry$00000201" x="158973.96" y="216776.39" transform="scale(1,-1) translate(0,-433552.78) rotate(-90,158973.96,216776.39)">.</use>
          <use xlink:href="#$lvtry$00000201" x="158973.96" y="215876.39" transform="scale(1,-1) translate(0,-431752.78) rotate(-90,158973.96,215876.39)">.</use>
          <path d="M158773.96,218113.89l1187.5,0" />
          <path d="M158773.96,218138.89l1187.5,0" />
          <path d="M158773.96,218113.89l0,25" />
          <path d="M159986.46,219026.39l0,-150" />
          <path d="M159986.46,218876.39l-25,0" />
          <path d="M159961.46,218876.39l0,150" />
          <path d="M159961.46,219026.39l25,0" />
          <path d="M159961.46,218138.89l0,137.5" />
          <path d="M159961.46,218276.39l25,0" />
          <path d="M159986.46,218276.39l0,-150" />
          <use xlink:href="#$TCHSYS$APDOOR2D" x="266.623" y="364.294" transform="scale(600,600) scale(-1,-1) translate(-533.25,-728.59) rotate(-90,266.62,364.29)" stroke-width="0.0002%">.</use>
          <path d="M158773.96,217213.89l1187.5,0" />
          <path d="M158773.96,217238.89l1187.5,0" />
          <path d="M158773.96,217213.89l0,25" />
          <path d="M159986.46,218126.39l0,-150" />
          <path d="M159986.46,217976.39l-25,0" />
          <path d="M159961.46,217976.39l0,137.5" />
          <path d="M159961.46,217238.89l0,137.5" />
          <path d="M159961.46,217376.39l25,0" />
          <path d="M159986.46,217376.39l0,-150" />
          <use xlink:href="#$TCHSYS$APDOOR2D" x="266.623" y="362.794" transform="scale(600,600) scale(-1,-1) translate(-533.25,-725.59) rotate(-90,266.62,362.79)" stroke-width="0.0002%">.</use>
          <path d="M158773.96,216313.89l1187.5,0" />
          <path d="M158773.96,216338.89l1187.5,0" />
          <path d="M158773.96,216313.89l0,25" />
          <path d="M159986.46,217226.39l0,-150" />
          <path d="M159986.46,217076.39l-25,0" />
          <path d="M159961.46,217076.39l0,137.5" />
          <path d="M159961.46,216338.89l0,137.5" />
          <path d="M159961.46,216476.39l25,0" />
          <path d="M159986.46,216476.39l0,-150" />
          <use xlink:href="#$TCHSYS$APDOOR2D" x="266.623" y="361.294" transform="scale(600,600) scale(-1,-1) translate(-533.25,-722.59) rotate(-90,266.62,361.29)" stroke-width="0.0002%">.</use>
          <path d="M158773.96,215413.89l1212.5,0" />
          <path d="M158773.96,215438.89l1187.5,0" />
          <path d="M158773.96,215413.89l0,25" />
          <path d="M159986.46,216326.39l0,-150" />
          <path d="M159986.46,216176.39l-25,0" />
          <path d="M159961.46,216176.39l0,137.5" />
          <path d="M159961.46,215438.89l0,137.5" />
          <path d="M159961.46,215576.39l25,0" />
          <path d="M159986.46,215576.39l0,-162.5" />
          <use xlink:href="#$TCHSYS$APDOOR2D" x="266.623" y="359.794" transform="scale(600,600) scale(-1,-1) translate(-533.25,-719.59) rotate(-90,266.62,359.79)" stroke-width="0.0002%">.</use>
          <use xlink:href="#$lvtry$00000171" x="162003.08" y="215741.46">.</use>
          <path d="M162373.96,219146.39l0,1860" />
          <path d="M162133.96,219146.39l0,1860" />
          <path d="M158773.96,219146.39l0,1860" />
          <path d="M158533.96,219146.39l0,1860" />
          <path d="M155173.96,219146.39l0,1860" />
          <path d="M154933.96,219146.39l0,2100" />
          <path d="M156421.46,219026.39l0,120" />
          <path d="M157321.46,219146.39l0,-120" />
          <path d="M159986.46,219026.39l0,120" />
          <path d="M160886.46,219146.39l0,-120" />
          <use xlink:href="#$lvtry$00000191" x="155173.96" y="219446.39" transform="rotate(-90,155173.96,219446.39)">.</use>
          <use xlink:href="#$lvtry$00000191" x="155173.96" y="219446.39" transform="rotate(-90,155173.96,219446.39)">.</use>
          <use xlink:href="#$lvtry$00000191" x="162133.96" y="219446.39" transform="rotate(-270,162133.96,219446.39)">.</use>
          <use xlink:href="#$lvtry$00000194" x="158875.62" y="220456.39" transform="rotate(-90,158875.62,220456.39)">.</use>
          <use xlink:href="#$lvtry$00000194" x="158875.62" y="219756.39" transform="rotate(-90,158875.62,219756.39)">.</use>
          <use xlink:href="#$lvtry$00000194" x="158432.3" y="220456.39" transform="scale(1,-1) translate(0,-440912.78) rotate(-270,158432.3,220456.39)">.</use>
          <use xlink:href="#$lvtry$00000194" x="158432.3" y="219756.39" transform="scale(1,-1) translate(0,-439512.78) rotate(-270,158432.3,219756.39)">.</use>
          <path d="M154133.96,219876.39l0,-1650l0,-300" />
          <path d="M153393.96,219426.39l1540,0" />
          <path d="M153393.96,219126.39l1540,0" />
          <path d="M153393.96,218826.39l1540,0" />
          <path d="M153393.96,218526.39l1540,0" />
          <path d="M153393.96,218226.39l1540,0" />
          <path d="M153874.15,217926.39l1059.81,0" />
          <path d="M154393.77,217626.39l540.19,0" />
          <path d="M154933.96,219726.39l0,-2411.88" />
          <path d="M153393.96,219726.39l1540,0" />
          <path d="M153333.96,219726.39l0,-1488.12" />
          <path d="M154933.96,217314.51l-739.48,426.94" />
          <path d="M154194.48,217741.45l34.94,130.4" />
          <path d="M154229.42,217871.85l-206.04,-172.89" />
          <path d="M154023.37,217698.96l32.78,122.35" />
          <path d="M154056.16,217821.31l-722.2,416.96" />
          <path d="M153333.96,219756.39l0,-1518.12" />
          <path d="M153393.96,219756.39l0,-1552.76" />
          <path d="M153333.96,219756.39l60,0" />
          <path d="M199173.96,219876.39l0,-1650l0,-300" />
          <path d="M198373.96,219426.39l1540,0" />
          <path d="M198373.96,219126.39l1540,0" />
          <path d="M198373.96,218826.39l1540,0" />
          <path d="M198373.96,218526.39l1540,0" />
          <path d="M198394.53,218226.39l1519.42,0" />
          <path d="M198914.15,217926.39l999.81,0" />
          <path d="M199433.77,217626.39l480.19,0" />
          <path d="M198373.96,219726.39l0,-1488.12" />
          <path d="M198373.96,219726.39l1540,0" />
          <path d="M199973.96,219726.39l0,-2411.88" />
          <path d="M199973.96,217314.51l-739.48,426.94" />
          <path d="M199234.48,217741.45l34.94,130.4" />
          <path d="M199269.42,217871.85l-206.04,-172.89" />
          <path d="M199063.37,217698.96l32.78,122.35" />
          <path d="M199096.16,217821.31l-722.2,416.96" />
          <path d="M199913.96,219756.39l0,-2407.24" />
          <path d="M199973.96,219756.39l0,-2441.88" />
          <path d="M199913.96,219756.39l60,0" />
          <path d="M151613.96,221326.39l0,-400" />
          <path d="M151613.96,220926.39l-360,0" />
          <path d="M151253.96,220926.39l0,400" />
          <path d="M151253.96,221326.39l360,0" />
          <path d="M151253.96,220926.39l0,-5800" />
          <path d="M151613.96,220926.39l0,-5800" />
          <path d="M151613.96,223726.39l0,-400" />
          <path d="M151613.96,223326.39l-360,0" />
          <path d="M151253.96,223326.39l0,400" />
          <path d="M151253.96,223726.39l360,0" />
          <path d="M155173.96,221006.39l-240,0" />
          <path d="M154933.96,221006.39l0,240" />
          <path d="M155173.96,221246.39l0,-240" />
          <path d="M202053.96,221326.39l0,-400" />
          <path d="M202053.96,220926.39l-360,0" />
          <path d="M201693.96,220926.39l0,400" />
          <path d="M201693.96,221326.39l360,0" />
          <path d="M202053.96,223726.39l0,-400" />
          <path d="M202053.96,223326.39l-360,0" />
          <path d="M201693.96,223326.39l0,400" />
          <path d="M201693.96,223726.39l360,0" />
          <path d="M204853.96,221006.39l-240,0" />
          <path d="M204613.96,221006.39l0,240" />
          <path d="M204613.96,221246.39l240,0" />
          <path d="M204853.96,221246.39l0,-240" />
          <path d="M204853.96,223406.39l-240,0" />
          <path d="M204613.96,223406.39l0,240" />
          <path d="M204613.96,223646.39l240,0" />
          <path d="M204853.96,223646.39l0,-240" />
          <path d="M198133.96,221246.39l240,0" />
          <path d="M198373.96,221246.39l0,-240" />
          <path d="M198373.96,221006.39l-240,0" />
          <path d="M198133.96,221006.39l0,240" />
          <use xlink:href="#$lvtry$00000222" x="162133.96" y="218676.39" transform="rotate(-270,162133.96,218676.39)">.</use>
          <use xlink:href="#$lvtry$00000222" x="162133.96" y="217976.39" transform="rotate(-270,162133.96,217976.39)">.</use>
          <use xlink:href="#$lvtry$00000222" x="162133.96" y="217276.39" transform="rotate(-270,162133.96,217276.39)">.</use>
          <use xlink:href="#$lvtry$00000222" x="162133.96" y="216576.39" transform="rotate(-270,162133.96,216576.39)">.</use>
          <path d="M162133.96,218338.89l-400,0" />
          <path d="M162133.96,218313.89l-400,0" />
          <path d="M162133.96,218338.89l0,-25" />
          <path d="M161733.96,218338.89l0,-25" />
          <path d="M162133.96,217638.89l-400,0" />
          <path d="M162133.96,217613.89l-400,0" />
          <path d="M162133.96,217638.89l0,-25" />
          <path d="M161733.96,217638.89l0,-25" />
          <path d="M162133.96,216938.89l-400,0" />
          <path d="M162133.96,216913.89l-400,0" />
          <path d="M162133.96,216938.89l0,-25" />
          <path d="M161733.96,216938.89l0,-25" />
          <path d="M162133.96,216238.89l-400,0" />
          <path d="M162133.96,216213.89l-400,0" />
          <path d="M162133.96,216238.89l0,-25" />
          <path d="M161733.96,216238.89l0,-25" />
          <path d="M198328.96,223646.39l0,6080" />
          <path d="M198178.96,223646.39l0,6080" />
          <path d="M162373.96,228486.39l0,1000" />
          <path d="M162133.96,228486.39l0,1000" />
          <use xlink:href="#$DorLib2D$00000114" x="164.054" y="223.526" transform="scale(1000,1000) scale(-1,-1) translate(-328.11,-447.05)" stroke-width="0.0001%">.<g class="blkclass0"><text transform="translate(-470,-246.25)" font-size="386.75">M1027</text></g></use>
          <path d="M163553.96,223646.39l0,-240" />
          <path d="M164553.96,223646.39l0,-240" />
          <path d="M195998.96,223646.39l0,-240" />
          <path d="M196998.96,223646.39l0,-240" />
          <use xlink:href="#$DorLib2D$00000114" x="196.499" y="223.526" transform="scale(1000,1000) scale(-1,-1) translate(-393,-447.05)" stroke-width="0.0001%">.<g class="blkclass0"><text transform="translate(-470,-246.25)" font-size="386.75">M1027</text></g></use>
        </g>
      </g>
      <g id="assets" fill="none">
        <g id="rm-assets" class="rm-asset">
          <path id="15007;F01;110" d="M155173.96,223646.39l6960,0l0,6080l-6960,0z" />
          <path id="15007;F01;104" d="M187314.55,223646.39l-6940.59,0l0,6080l6940.59,0z" />
          <path id="15007;F01;103" d="M187593.37,223646.39l6940.59,0l0,6080l-6940.59,0z" />
          <path id="15007;F01;117" d="M180373.96,215126.39l6960,0l0,5880l-6960,0z" />
          <path id="15007;F01;102" d="M194773.96,223646.39l3405,0l0,6080l-3405,0z" />
          <path id="15007;F01;101" d="M198328.96,223646.39l3365,0l0,6080l-3365,0z" />
          <path id="15007;F01;105" d="M176773.96,223646.39l3360,0l0,6080l-3360,0z" />
          <path id="15007;F01;106" d="M173173.96,223646.39l3360,0l0,6080l-3360,0z" />
          <path id="15007;F01;107" d="M172933.96,223646.39l-3360,0l0,6080l3360,0z" />
          <path id="15007;F01;108" d="M165973.96,223646.39l3360,0l0,6080l-3360,0z" />
          <path id="15007;F01;109" d="M162373.96,223646.39l3360,0l0,6080l-3360,0z" />
          <path id="15007;F01;111" d="M151613.96,223646.39l3320,0l0,6080l-3320,0z" />
          <path id="15007;F01;112" d="M162373.96,215126.39l3360,0l0,5880l-3360,0z" />
          <path id="15007;F01;115" d="M173173.96,215126.39l3360,0l0,5880l-3360,0z" />
          <path id="15007;F01;113" d="M165973.96,215126.39l3360,0l0,5880l-3360,0z" />
          <path id="15007;F01;114" d="M169573.96,215126.39l3360,0l0,5880l-3360,0z" />
          <path id="15007;F01;120" d="M194773.96,215126.39l3360,0l0,5880l-3360,0z" />
          <path id="15007;F01;118" d="M187573.96,215126.39l3360,0l0,5880l-3360,0z" />
          <path id="15007;F01;119" d="M191173.96,215126.39l3360,0l0,5880l-3360,0z" />
          <path id="15007;F01;116" d="M176773.96,215126.39l3360,0l0,5880l-3360,0z" />
        </g>
      </g>
    </g>
    <g id="text" font-family="Arial" font-size="438.86524822695031" font-weight="normal" text-style="normal" text-anchor="start" dominant-baseline="alphabetical" fill="#FF7F00" xml:space="preserve">
      <g id="layer-body-text">
        <g transform="translate(154029.7,220331.39)">
          <text>上</text>
        </g>
        <g transform="translate(199069.7,220331.39)">
          <text>上</text>
        </g>
      </g>
    </g>
    <g id="asset-labels" font-family="Arial" font-weight="bold" font-size="38.1em" text-anchor="middle">
      <g id="rm-labels">
        <g id="l-rm-15007;F01;110" transform="translate(158653.96,226686.39)">
          <text>110</text>
        </g>
        <g id="l-rm-15007;F01;104" transform="translate(183844.25,226686.39)">
          <text>104</text>
        </g>
        <g id="l-rm-15007;F01;103" transform="translate(191063.66,226686.39)">
          <text>103</text>
        </g>
        <g id="l-rm-15007;F01;117" transform="translate(183853.96,218066.39)">
          <text>117</text>
        </g>
        <g id="l-rm-15007;F01;102" transform="translate(196476.46,226686.39)">
          <text>102</text>
        </g>
        <g id="l-rm-15007;F01;101" transform="translate(200011.46,226686.39)">
          <text>101</text>
        </g>
        <g id="l-rm-15007;F01;105" transform="translate(178453.96,226686.39)">
          <text>105</text>
        </g>
        <g id="l-rm-15007;F01;106" transform="translate(174853.96,226686.39)">
          <text>106</text>
        </g>
        <g id="l-rm-15007;F01;107" transform="translate(171253.96,226686.39)">
          <text>107</text>
        </g>
        <g id="l-rm-15007;F01;108" transform="translate(167653.96,226686.39)">
          <text>108</text>
        </g>
        <g id="l-rm-15007;F01;109" transform="translate(164053.96,226686.39)">
          <text>109</text>
        </g>
        <g id="l-rm-15007;F01;111" transform="translate(153273.96,226686.39)">
          <text>111</text>
        </g>
        <g id="l-rm-15007;F01;112" transform="translate(164053.96,218066.39)">
          <text>112</text>
        </g>
        <g id="l-rm-15007;F01;115" transform="translate(174853.96,218066.39)">
          <text>115</text>
        </g>
        <g id="l-rm-15007;F01;113" transform="translate(167653.96,218066.39)">
          <text>113</text>
        </g>
        <g id="l-rm-15007;F01;114" transform="translate(171253.96,218066.39)">
          <text>114</text>
        </g>
        <g id="l-rm-15007;F01;120" transform="translate(196453.96,218066.39)">
          <text>120</text>
        </g>
        <g id="l-rm-15007;F01;118" transform="translate(189253.96,218066.39)">
          <text>118</text>
        </g>
        <g id="l-rm-15007;F01;119" transform="translate(192853.96,218066.39)">
          <text>119</text>
        </g>
        <g id="l-rm-15007;F01;116" transform="translate(178453.96,218066.39)">
          <text>116</text>
        </g>
      </g>
    </g>
  </g>
</svg>