<svg version="1.1" xmlns="http://www.w3.org/2000/svg" xmlns:xlink="http://www.w3.org/1999/xlink" viewBox="147694.99 126478.72 54408 17396">
  <style>.i0 { stroke:#000000;   } .body { stroke:#ff7f00;   } .rm { stroke:#00ffff;   } .pub_wall { stroke:#c0c0c0;   } .rm-asset { stroke:#0000ff;   fill:#EEEEEE; fill-opacity:1;} .rmtc-asset { stroke:#0000ff;   } .rmtc { stroke:#00ffff;   } .rm-assettxt { stroke:#0000ff;   } .rmtc-assettxt { stroke:#0000ff;   } .cnc-0 { stroke:#000000;  stroke-dasharray:0; } .cnc-1 { stroke:#000000;  stroke-dasharray:0; fill:#cccccc; fill-opacity:1;} .blkclass0 { stroke:#ff7f00;  stroke-width:0.02;  fill:#ff7f00; fill-opacity:1; font-family:Arial; font-size:386.75; font-weight:normal; text-style:normal; text-anchor:start;}</style>
  <view id="defaultView" viewBox="147694.99 126478.72 54408 17396" />
  <defs>
    <symbol id="$DorLib2D$00000114" overflow="visible" class="i0">
      <path d="M-0.5,0a1,1 0 0,1 0.29,-0.71" />
      <path d="M0.5,0l-0.71,-0.71" />
    </symbol>
    <symbol id="$lvtry$00000201" overflow="visible" class="i0">
      <path d="M-109.78,40l0,429.66" class="cnc-0" />
      <path d="M139.78,40a40,40 0 0,0 -40,-40m0,0l-199.57,0m0,0a40,40 0 0,0 -40,40m0,0l0,439.66m0,0a110,110 0 0,0 110,110m0,0l59.57,0m0,0a110,110 0 0,0 110,-110m0,0l0,-439.66" class="cnc-0" />
      <path d="M99.78,30a10,10 0 0,1 10,10" />
      <path d="M-109.78,40a10,10 0 0,1 10,-10" />
      <path d="M99.78,30l-199.57,0" />
      <circle r="20" cy="358.61" />
      <path d="M139.78,469.66l-279.57,0" />
      <path d="M109.78,469.66l0,-429.66" />
    </symbol>
    <symbol id="$TCHSYS$APDOOR2D" overflow="visible" class="i0">
      <path d="M0.5,0l-0.5,-0.87" />
      <path d="M-0.5,0a1,1 0 0,1 0.5,-0.87" />
    </symbol>
    <symbol id="$lvtry$00000191" overflow="visible" class="i0">
      <circle r="50" cy="250" />
      <path d="M39.04,281.23l210.96,168.77" />
      <path d="M39.04,218.77l210.96,-168.77" />
      <path d="M250,450l0,-400l-500,0l0,400z" class="cnc-1" />
      <path d="M300,500l0,-500l-600,0l0,500z" class="cnc-1" />
      <path d="M-250,450l210.96,-168.77" />
      <path d="M-250,50l210.96,168.77" />
    </symbol>
    <symbol id="$lvtry$00000194" overflow="visible" class="i0">
      <path d="M14.41,34.95a172.58,172.58 0 0,1 27.83,-7.78" />
      <path d="M43.06,7.68a258.71,258.71 0 0,1 -34.21,-5.14" />
      <circle r="20" cy="221.43" />
      <path d="M-24.71,68.62a166.25,166.25 0 0,1 28.52,-25.84" />
      <path d="M-24.7,68.61a6.77,6.77 0 0,1 -10.36,-8.14" />
      <path d="M-16.69,26.66a166.25,166.25 0 0,1 -18.37,33.81" />
      <path d="M9.2,83.36a9.9,9.9 0 0,1 -18.4,0" />
      <path d="M9.2,83.36a372.22,372.22 0 0,1 5.21,-48.41" />
      <path d="M-11.46,55.11a372.22,372.22 0 0,1 2.26,28.25" />
      <path d="M-42.24,27.17a172.58,172.58 0 0,1 22.78,5.99" />
      <circle r="16.692" cy="26.53" />
      <path d="M-27.27,66.38a169.65,169.65 0 0,1 13.49,-13.76" />
      <path d="M-13.78,52.62a10.6,10.6 0 0,1 -8.32,-6.54" />
      <path d="M-22.1,46.08a169.65,169.65 0 0,1 -10.18,16.35" />
      <path d="M-26.81,65.94a3.37,3.37 0 0,1 -5.15,-4.05" />
      <path d="M-16.69,26.53l0,-9.84" />
      <path d="M16.69,26.53l0,-9.84" />
      <path d="M-8.85,2.54a258.71,258.71 0 0,1 -34.21,5.14" />
      <path d="M-16.69,16.69a16.69,16.69 0 0,1 33.38,0" />
      <path d="M-42.24,27.17a10.06,10.06 0 0,1 -0.82,-19.49" />
      <circle r="15" cy="221.43" />
      <path d="M92.26,53.38a297.6,297.6 0 0,0 -78.54,-14.35m152.45,53.87a239.54,239.54 0 0,0 -73.91,-39.52m125.84,101.92a194.91,194.91 0 0,0 -51.93,-62.39m68.82,130.81a146.95,146.95 0 0,0 -16.9,-68.42m0,136.85a146.95,146.95 0 0,0 16.9,-68.42m-68.82,130.82a194.91,194.91 0 0,0 51.93,-62.39m-125.84,101.91a239.54,239.54 0 0,0 73.91,-39.52m-166.17,54.18a297.6,297.6 0 0,0 92.26,-14.66m-184.52,0a297.6,297.6 0 0,0 92.26,14.66m-166.17,-54.18a239.54,239.54 0 0,0 73.91,39.52m-125.83,-101.91a194.91,194.91 0 0,0 51.93,62.39m-68.83,-130.82a146.95,146.95 0 0,0 16.9,68.42m0,-136.85a146.95,146.95 0 0,0 -16.9,68.42m68.83,-130.81a194.91,194.91 0 0,0 -51.93,62.39m125.83,-101.92a239.54,239.54 0 0,0 -73.91,39.52m143.65,-53.33a297.6,297.6 0 0,0 -69.74,13.81" class="cnc-0" />
      <path d="M43.06,7.68a10.06,10.06 0 0,1 -0.82,19.49" />
    </symbol>
    <symbol id="$WINLIB2D$00000001_1500x360" overflow="visible" class="i0">
      <path d="M750,180l0,-360" />
      <path d="M-750,-180l0,360" />
      <path d="M750,-60l-1500,0" />
      <path d="M750,60l-1500,0" />
      <path d="M-750,180l1500,0" />
      <path d="M-750,-180l1500,0" />
    </symbol>
    <symbol id="$WINLIB2D$00000001_1200x360" overflow="visible" class="i0">
      <path d="M600,180l0,-360" />
      <path d="M-600,-180l0,360" />
      <path d="M600,-60l-1200,0" />
      <path d="M600,60l-1200,0" />
      <path d="M-600,180l1200,0" />
      <path d="M-600,-180l1200,0" />
    </symbol>
    <symbol id="$WINLIB2D$00000001_1100x360" overflow="visible" class="i0">
      <path d="M550,180l0,-360" />
      <path d="M-550,-180l0,360" />
      <path d="M550,-60l-1100,0" />
      <path d="M550,60l-1100,0" />
      <path d="M-550,180l1100,0" />
      <path d="M-550,-180l1100,0" />
    </symbol>
    <symbol id="$lvtry$00000222" overflow="visible" class="i0">
      <path d="M-205,190.69l0,-190.69l410,0l0,190.69m0,0a203.43,203.43 0 0,0 -154.23,132.77m-50.77,36.19a54,54 0 0,0 50.77,-36.18m-101.53,0a54,54 0 0,0 50.77,36.18m-50.77,-36.19a203.43,203.43 0 0,0 -154.23,-132.77" class="cnc-0" />
      <path d="M22.45,323.92a233.43,233.43 0 0,1 138.63,-141.65" />
      <path d="M-155.89,184.28a233.43,233.43 0 0,1 133.44,139.64" />
      <circle r="20" cy="241.62" />
      <path d="M22.45,323.92a24,24 0 0,1 -22.45,16.08" />
      <path d="M0,340a24,24 0 0,1 -22.45,-16.08" />
      <path d="M-156.25,165.88a395,395 0 0,1 317.79,-2.15" />
      <path d="M-155.89,184.29a10,10 0 0,1 -0.36,-18.41" />
      <circle r="20" cx="-0.03" cy="60.43" />
      <path d="M161.54,163.73a10,10 0 0,1 -0.46,18.55" />
    </symbol>
    <symbol id="$DorLib2D$00000116" overflow="visible" class="i0">
      <path d="M-0.5,0l0.35,-0.35" />
      <path d="M-0.15,-0.35a0.5,0.5 0 0,1 0.15,0.35" />
      <path d="M0,0a0.5,0.5 0 0,1 0.15,-0.35" />
      <path d="M0.5,0l-0.35,-0.35" />
    </symbol>
  </defs>
  <g id="viewer">
    <g id="mirror" transform="scale(1, 1)" stroke-width="0.09%">
      <g id="background" fill="none">
        <g id="layer-body-fills" class="body">
          <path d="M158816.08,134361.1l0,-1860l600,0l0,1860z" />
          <path d="M158576.08,134361.1l0,-1860l-600,0l0,1860z" />
        </g>
        <g id="layer-RM-fills" class="rm">
          <path d="M169616.08,128481.1l10560,0l0,5880l-10560,0z" />
        </g>
        <g id="layer-body" class="body">
          <path d="M158842.04,132501.1l0,1860" />
          <path d="M158550.12,132501.1l0,1860" />
          <path d="M156396.08,134361.1l1000,0" />
          <path d="M159996.08,134361.1l1000,0" />
          <path d="M169296.08,127881.1l0,-1400l11200,0l0,1400" />
          <path d="M151296.08,143681.1l-3600,0l0,-15800l3600,0" />
          <path d="M151296.08,143441.1l-2500,0" />
          <path d="M148796.08,128121.1l2500,0" />
          <path d="M148596.08,143441.1l-660,0l0,-15320l660,0" />
          <path d="M169496.08,127881.1l0,-1200l10800,0l0,1200" />
          <path d="M160028.58,132381.1l0,-3900" />
          <path d="M157363.58,132381.1l0,-3900" />
          <path d="M151296.08,134931.1l0,1500" />
          <path d="M151296.08,143081.1l0,-6000" />
          <path d="M151656.08,143081.1l0,-6000" />
          <path d="M202096.08,128481.1l0,5800" />
          <path d="M201736.08,128481.1l0,5800" />
          <path d="M151696.08,143441.1l200,0" />
          <path d="M151896.08,143441.1l0,-360" />
          <path d="M151896.08,143081.1l-200,0" />
          <path d="M153296.08,143081.1l-300,0" />
          <path d="M152996.08,143081.1l0,1.58" />
          <path d="M151656.08,136681.1l0,-250" />
          <path d="M151656.08,136431.1l-360,0" />
          <path d="M151296.08,136431.1l0,250" />
          <path d="M151296.08,134681.1l0,250" />
          <path d="M151296.08,134931.1l360,0" />
          <path d="M151656.08,134931.1l0,-250" />
          <path d="M202096.08,137081.1l0,6000" />
          <path d="M201736.08,137081.1l0,6000" />
          <path d="M151656.08,137001.1l1140,0" />
          <path d="M152796.08,137001.1l0,-240" />
          <path d="M152796.08,136761.1l-1140,0" />
          <path d="M155096.08,136761.1l-1300,0" />
          <path d="M153796.08,136761.1l0,240" />
          <path d="M153796.08,137001.1l1180,0" />
          <use xlink:href="#$DorLib2D$00000114" x="153.296" y="136.881" transform="scale(1000,1000) scale(-1,-1) translate(-306.59,-273.76)" stroke-width="0.0001%">.<g class="blkclass0"><text transform="translate(-470,-246.25)" font-size="386.75">M1027</text></g></use>
          <path d="M154976.08,134601.1l1420,0" />
          <path d="M156396.08,134601.1l0,-240" />
          <path d="M156396.08,134361.1l-1180,0" />
          <path d="M158576.08,134361.1l-1180,0" />
          <path d="M157396.08,134361.1l0,240" />
          <path d="M157396.08,134601.1l1300,0" />
          <use xlink:href="#$DorLib2D$00000114" x="156.896" y="134.481" transform="scale(1000,1000) scale(-1,1) translate(-313.79,0)" stroke-width="0.0001%">.<g class="blkclass0"><text transform="translate(-470,543.75)" font-size="386.75">M1027</text></g></use>
          <path d="M154896.08,128121.1l-100,0" />
          <path d="M154796.08,128121.1l0,360" />
          <path d="M154796.08,128481.1l100,0" />
          <path d="M155216.08,128481.1l0,3900" />
          <path d="M154976.08,128481.1l0,4020" />
          <path d="M198416.08,128481.1l0,6120" />
          <path d="M198176.08,128481.1l0,5880" />
          <path d="M187616.08,128481.1l0,5880" />
          <path d="M187376.08,128481.1l0,5880" />
          <path d="M180296.08,134601.1l1300,0" />
          <path d="M181596.08,134601.1l0,-240" />
          <path d="M181596.08,134361.1l-1180,0" />
          <path d="M187376.08,134361.1l-4780,0" />
          <path d="M182596.08,134361.1l0,240" />
          <path d="M182596.08,134601.1l4900,0" />
          <use xlink:href="#$DorLib2D$00000114" x="182.096" y="134.481" transform="scale(1000,1000) scale(-1,1) translate(-364.19,0)" stroke-width="0.0001%">.<g class="blkclass0"><text transform="translate(-470,543.75)" font-size="386.75">M1027</text></g></use>
          <path d="M180416.08,128481.1l0,5880" />
          <path d="M180176.08,128481.1l0,5880" />
          <path d="M187496.08,134601.1l1300,0" />
          <path d="M188796.08,134601.1l0,-240" />
          <path d="M188796.08,134361.1l-1180,0" />
          <path d="M194576.08,134361.1l-4780,0" />
          <path d="M189796.08,134601.1l4900,0" />
          <path d="M194696.08,134601.1l1300,0" />
          <path d="M195996.08,134601.1l0,-240" />
          <path d="M195996.08,134361.1l-1180,0" />
          <path d="M198176.08,134361.1l-1180,0" />
          <path d="M196996.08,134361.1l0,240" />
          <path d="M196996.08,134601.1l1420,0" />
          <use xlink:href="#$DorLib2D$00000114" x="196.496" y="134.481" transform="scale(1000,1000) scale(-1,1) translate(-392.99,0)" stroke-width="0.0001%">.<g class="blkclass0"><text transform="translate(-470,543.75)" font-size="386.75">M1027</text></g></use>
          <path d="M194576.08,128481.1l0,5880" />
          <path d="M194816.08,134361.1l0,-5880" />
          <path d="M169496.08,134601.1l1300,0" />
          <path d="M170796.08,134601.1l0,-240" />
          <path d="M170796.08,134361.1l-1180,0" />
          <path d="M180176.08,134361.1l-1180,0" />
          <path d="M178996.08,134361.1l0,240" />
          <path d="M178996.08,134601.1l1300,0" />
          <path d="M171796.08,134601.1l6200,0" />
          <path d="M177996.08,134601.1l0,-240" />
          <path d="M177996.08,134361.1l-6200,0" />
          <path d="M171796.08,134361.1l0,240" />
          <path d="M169616.08,128481.1l0,5880" />
          <path d="M169376.08,128481.1l0,5880" />
          <path d="M162296.08,134601.1l1300,0" />
          <path d="M163596.08,134601.1l0,-240" />
          <path d="M163596.08,134361.1l-1180,0" />
          <path d="M165776.08,134361.1l-1180,0" />
          <path d="M164596.08,134361.1l0,240" />
          <path d="M164596.08,134601.1l1300,0" />
          <use xlink:href="#$DorLib2D$00000114" x="167.696" y="134.481" transform="scale(1000,1000) scale(-1,1) translate(-335.39,0)" stroke-width="0.0001%">.<g class="blkclass0"><text transform="translate(-470,543.75)" font-size="386.75">M1027</text></g></use>
          <path d="M162416.08,128481.1l0,4020" />
          <path d="M162176.08,128481.1l0,3900" />
          <path d="M158696.08,134601.1l1300,0" />
          <path d="M159996.08,134601.1l0,-240" />
          <path d="M159996.08,134361.1l-1180,0" />
          <path d="M162176.08,134361.1l-1180,0" />
          <path d="M160996.08,134361.1l0,240" />
          <path d="M160996.08,134601.1l1300,0" />
          <use xlink:href="#$DorLib2D$00000114" x="160.496" y="134.481" transform="scale(1000,1000)" stroke-width="0.0001%">.<g class="blkclass0"><text transform="translate(-470,543.75)" font-size="386.75">M1027</text></g></use>
          <path d="M158496.08,128121.1l-100,0" />
          <path d="M158396.08,128121.1l0,360" />
          <path d="M158396.08,128481.1l100,0" />
          <path d="M158816.08,128481.1l0,3900" />
          <path d="M158576.08,128481.1l0,3900" />
          <path d="M155296.08,143441.1l100,0" />
          <path d="M155396.08,143441.1l0,-360" />
          <path d="M155396.08,143081.1l-100,0" />
          <path d="M156896.08,143081.1l-300,0" />
          <path d="M156596.08,143081.1l0,1.58" />
          <path d="M155216.08,137001.1l1180,0" />
          <path d="M156396.08,137001.1l0,-240" />
          <path d="M156396.08,136761.1l-1300,0" />
          <path d="M158696.08,136761.1l-1300,0" />
          <path d="M157396.08,136761.1l0,240" />
          <path d="M157396.08,137001.1l1180,0" />
          <path d="M154976.08,143081.1l0,-6080" />
          <path d="M155216.08,143081.1l0,-6080" />
          <use xlink:href="#$DorLib2D$00000114" x="162.296" y="137.741" transform="scale(1000,1000) rotate(-90,162.3,137.74)" stroke-width="0.0001%">.<g class="blkclass0"><text transform="rotate(-90 -801.37,470) translate(-801.37,470)" font-size="386.75">M1027</text></g></use>
          <path d="M162416.08,137001.1l1180,0" />
          <path d="M163596.08,137001.1l0,-240" />
          <path d="M163596.08,136761.1l-1300,0" />
          <path d="M165896.08,136761.1l-1300,0" />
          <path d="M164596.08,136761.1l0,240" />
          <path d="M164596.08,137001.1l1180,0" />
          <use xlink:href="#$DorLib2D$00000114" x="164.096" y="136.881" transform="scale(1000,1000) scale(1,-1) translate(0,-273.76)" stroke-width="0.0001%">.<g class="blkclass0"><text transform="translate(-470,-246.25)" font-size="386.75">M1027</text></g></use>
          <path d="M166016.08,137001.1l1180,0" />
          <path d="M167196.08,137001.1l0,-240" />
          <path d="M167196.08,136761.1l-1300,0" />
          <path d="M169496.08,136761.1l-1300,0" />
          <path d="M168196.08,136761.1l0,240" />
          <path d="M168196.08,137001.1l1180,0" />
          <use xlink:href="#$DorLib2D$00000114" x="167.696" y="136.881" transform="scale(1000,1000) scale(1,-1) translate(0,-273.76)" stroke-width="0.0001%">.<g class="blkclass0"><text transform="translate(-470,-246.25)" font-size="386.75">M1027</text></g></use>
          <use xlink:href="#$DorLib2D$00000114" x="171.296" y="136.881" transform="scale(1000,1000) scale(1,-1) translate(0,-273.76)" stroke-width="0.0001%">.<g class="blkclass0"><text transform="translate(-470,-246.25)" font-size="386.75">M1027</text></g></use>
          <path d="M173216.08,137001.1l1180,0" />
          <path d="M174396.08,137001.1l0,-240" />
          <path d="M174396.08,136761.1l-1300,0" />
          <path d="M176696.08,136761.1l-1300,0" />
          <path d="M175396.08,136761.1l0,240" />
          <path d="M175396.08,137001.1l1180,0" />
          <use xlink:href="#$DorLib2D$00000114" x="174.896" y="136.881" transform="scale(1000,1000) scale(1,-1) translate(0,-273.76)" stroke-width="0.0001%">.<g class="blkclass0"><text transform="translate(-470,-246.25)" font-size="386.75">M1027</text></g></use>
          <path d="M172976.08,143081.1l0,-6080" />
          <path d="M173216.08,143081.1l0,-6080" />
          <path d="M176816.08,137001.1l1180,0" />
          <path d="M177996.08,137001.1l0,-240" />
          <path d="M177996.08,136761.1l-1300,0" />
          <path d="M180296.08,136761.1l-1300,0" />
          <path d="M178996.08,136761.1l0,240" />
          <path d="M178996.08,137001.1l1180,0" />
          <use xlink:href="#$DorLib2D$00000114" x="178.496" y="136.881" transform="scale(1000,1000) scale(1,-1) translate(0,-273.76)" stroke-width="0.0001%">.<g class="blkclass0"><text transform="translate(-470,-246.25)" font-size="386.75">M1027</text></g></use>
          <path d="M176576.08,143081.1l0,-6080" />
          <path d="M176816.08,143081.1l0,-6080" />
          <path d="M180416.08,137001.1l1180,0" />
          <path d="M181596.08,137001.1l0,-240" />
          <path d="M181596.08,136761.1l-1300,0" />
          <path d="M183896.08,136761.1l-1300,0" />
          <path d="M182596.08,136761.1l0,240" />
          <path d="M182596.08,137001.1l1180,0" />
          <use xlink:href="#$DorLib2D$00000114" x="182.096" y="136.881" transform="scale(1000,1000) scale(1,-1) translate(0,-273.76)" stroke-width="0.0001%">.<g class="blkclass0"><text transform="translate(-470,-246.25)" font-size="386.75">M1027</text></g></use>
          <path d="M180176.08,143081.1l0,-6080" />
          <path d="M180416.08,143081.1l0,-6080" />
          <path d="M194816.08,137001.1l1180,0" />
          <path d="M195996.08,137001.1l0,-240" />
          <path d="M195996.08,136761.1l-1300,0" />
          <path d="M198296.08,136761.1l-1300,0" />
          <path d="M196996.08,136761.1l0,240" />
          <path d="M196996.08,137001.1l1180,0" />
          <use xlink:href="#$DorLib2D$00000114" x="196.496" y="136.881" transform="scale(1000,1000) scale(1,-1) translate(0,-273.76)" stroke-width="0.0001%">.<g class="blkclass0"><text transform="translate(-470,-246.25)" font-size="386.75">M1027</text></g></use>
          <use xlink:href="#$DorLib2D$00000114" x="200.096" y="136.881" transform="scale(1000,1000) scale(1,-1) translate(0,-273.76)" stroke-width="0.0001%">.<g class="blkclass0"><text transform="translate(-470,-246.25)" font-size="386.75">M1027</text></g></use>
          <path d="M194576.08,143081.1l0,-6080" />
          <path d="M194816.08,143081.1l0,-6080" />
          <path d="M201736.08,134681.1l0,250" />
          <path d="M201736.08,134931.1l360,0" />
          <path d="M202096.08,134931.1l0,-250" />
          <path d="M202096.08,136681.1l0,-250" />
          <path d="M202096.08,136431.1l-360,0" />
          <path d="M201736.08,136431.1l0,250" />
          <path d="M158496.08,128481.1l400,0" />
          <path d="M158896.08,128481.1l0,-600" />
          <path d="M158896.08,127881.1l-400,0" />
          <path d="M158496.08,127881.1l0,600" />
          <path d="M158496.08,143681.1l400,0" />
          <path d="M158896.08,143681.1l0,-600" />
          <path d="M158896.08,143081.1l-400,0" />
          <path d="M158496.08,143081.1l0,600" />
          <path d="M151296.08,143681.1l400,0" />
          <path d="M151696.08,143681.1l0,-600" />
          <path d="M151696.08,143081.1l-400,0" />
          <path d="M151296.08,143081.1l0,600" />
          <path d="M151296.08,128481.1l400,0" />
          <path d="M151696.08,128481.1l0,-600" />
          <path d="M151696.08,127881.1l-400,0" />
          <path d="M151296.08,127881.1l0,600" />
          <path d="M165696.08,128481.1l400,0" />
          <path d="M166096.08,128481.1l0,-600" />
          <path d="M166096.08,127881.1l-400,0" />
          <path d="M165696.08,127881.1l0,600" />
          <path d="M165696.08,143681.1l400,0" />
          <path d="M166096.08,143681.1l0,-600" />
          <path d="M166096.08,143081.1l-400,0" />
          <path d="M165696.08,143081.1l0,600" />
          <path d="M172896.08,143681.1l400,0" />
          <path d="M173296.08,143681.1l0,-600" />
          <path d="M173296.08,143081.1l-400,0" />
          <path d="M172896.08,143081.1l0,600" />
          <path d="M180096.08,128481.1l400,0" />
          <path d="M180496.08,128481.1l0,-600" />
          <path d="M180496.08,127881.1l-400,0" />
          <path d="M180096.08,127881.1l0,600" />
          <path d="M180096.08,143681.1l400,0" />
          <path d="M180496.08,143681.1l0,-600" />
          <path d="M180496.08,143081.1l-400,0" />
          <path d="M180096.08,143081.1l0,600" />
          <path d="M187296.08,128481.1l400,0" />
          <path d="M187696.08,128481.1l0,-600" />
          <path d="M187696.08,127881.1l-400,0" />
          <path d="M187296.08,127881.1l0,600" />
          <path d="M187296.08,143681.1l400,0" />
          <path d="M187696.08,143681.1l0,-600" />
          <path d="M187696.08,143081.1l-400,0" />
          <path d="M187296.08,143081.1l0,600" />
          <path d="M194496.08,128481.1l400,0" />
          <path d="M194896.08,128481.1l0,-600" />
          <path d="M194896.08,127881.1l-400,0" />
          <path d="M194496.08,127881.1l0,600" />
          <path d="M194496.08,143681.1l400,0" />
          <path d="M194896.08,143681.1l0,-600" />
          <path d="M194896.08,143081.1l-400,0" />
          <path d="M194496.08,143081.1l0,600" />
          <path d="M201696.08,128481.1l400,0" />
          <path d="M202096.08,128481.1l0,-600" />
          <path d="M202096.08,127881.1l-400,0" />
          <path d="M201696.08,127881.1l0,600" />
          <path d="M201696.08,143681.1l400,0" />
          <path d="M202096.08,143681.1l0,-600" />
          <path d="M202096.08,143081.1l-400,0" />
          <path d="M201696.08,143081.1l0,600" />
          <path d="M162416.08,143081.1l0,-4840" />
          <path d="M162416.08,138241.1l-240,0" />
          <path d="M162176.08,138241.1l0,4840" />
          <path d="M162176.08,137001.1l0,240" />
          <path d="M162176.08,137241.1l240,0" />
          <path d="M162416.08,137241.1l0,-240" />
          <path d="M165776.08,143081.1l0,-6080" />
          <path d="M166016.08,143081.1l0,-6080" />
          <path d="M162176.08,132381.1l-1247.5,0" />
          <path d="M160928.58,132381.1l0,120" />
          <path d="M160928.58,132501.1l1247.5,0" />
          <path d="M158816.08,132501.1l1212.5,0" />
          <path d="M160028.58,132501.1l0,-120" />
          <path d="M160028.58,132381.1l-1212.5,0" />
          <path d="M160028.58,132381.1l0,120" />
          <path d="M160928.58,132501.1l0,-120" />
          <path d="M158576.08,132381.1l-1212.5,0" />
          <path d="M157363.58,132381.1l0,120" />
          <path d="M157363.58,132501.1l1212.5,0" />
          <path d="M155216.08,132501.1l1247.5,0" />
          <path d="M156463.58,132501.1l0,-120" />
          <path d="M156463.58,132381.1l-1247.5,0" />
          <path d="M156463.58,132381.1l0,120" />
          <path d="M157363.58,132501.1l0,-120" />
          <use xlink:href="#$lvtry$00000201" x="158376.08" y="131931.1" transform="rotate(-270,158376.08,131931.1)">.</use>
          <use xlink:href="#$lvtry$00000201" x="158376.08" y="131031.1" transform="rotate(-270,158376.08,131031.1)">.</use>
          <use xlink:href="#$lvtry$00000201" x="158376.08" y="130131.1" transform="rotate(-270,158376.08,130131.1)">.</use>
          <use xlink:href="#$lvtry$00000201" x="158376.08" y="129231.1" transform="rotate(-270,158376.08,129231.1)">.</use>
          <path d="M158576.08,131493.6l-1187.5,0" />
          <path d="M158576.08,131468.6l-1187.5,0" />
          <path d="M158576.08,131493.6l0,-25" />
          <path d="M157388.58,132381.1l0,-150" />
          <path d="M157388.58,132231.1l-25,0" />
          <path d="M157363.58,132231.1l0,150" />
          <path d="M157363.58,132381.1l25,0" />
          <path d="M157363.58,131481.1l0,150" />
          <path d="M157363.58,131631.1l25,0" />
          <path d="M157388.58,131631.1l0,-137.5" />
          <use xlink:href="#$TCHSYS$APDOOR2D" x="262.293" y="219.885" transform="scale(600,600) scale(-1,1) translate(-524.59,0) rotate(-270,262.29,219.89)" stroke-width="0.0002%">.</use>
          <path d="M158576.08,130593.6l-1187.5,0" />
          <path d="M158576.08,130568.6l-1187.5,0" />
          <path d="M158576.08,130593.6l0,-25" />
          <path d="M157388.58,131468.6l0,-137.5" />
          <path d="M157388.58,131331.1l-25,0" />
          <path d="M157363.58,131331.1l0,150" />
          <path d="M157363.58,130581.1l0,150" />
          <path d="M157363.58,130731.1l25,0" />
          <path d="M157388.58,130731.1l0,-137.5" />
          <use xlink:href="#$TCHSYS$APDOOR2D" x="262.293" y="218.385" transform="scale(600,600) scale(-1,1) translate(-524.59,0) rotate(-270,262.29,218.39)" stroke-width="0.0002%">.</use>
          <path d="M158576.08,129693.6l-1187.5,0" />
          <path d="M158576.08,129668.6l-1187.5,0" />
          <path d="M158576.08,129693.6l0,-25" />
          <path d="M157388.58,130568.6l0,-137.5" />
          <path d="M157388.58,130431.1l-25,0" />
          <path d="M157363.58,130431.1l0,150" />
          <path d="M157363.58,129681.1l0,150" />
          <path d="M157363.58,129831.1l25,0" />
          <path d="M157388.58,129831.1l0,-137.5" />
          <use xlink:href="#$TCHSYS$APDOOR2D" x="262.293" y="216.885" transform="scale(600,600) scale(-1,1) translate(-524.59,0) rotate(-270,262.29,216.89)" stroke-width="0.0002%">.</use>
          <path d="M158576.08,128793.6l-1187.5,0" />
          <path d="M158576.08,128768.6l-1212.5,0" />
          <path d="M158576.08,128793.6l0,-25" />
          <path d="M157388.58,129668.6l0,-137.5" />
          <path d="M157388.58,129531.1l-25,0" />
          <path d="M157363.58,129531.1l0,150" />
          <path d="M157363.58,128768.6l0,162.5" />
          <path d="M157363.58,128931.1l25,0" />
          <path d="M157388.58,128931.1l0,-137.5" />
          <use xlink:href="#$TCHSYS$APDOOR2D" x="262.293" y="215.385" transform="scale(600,600) scale(-1,1) translate(-524.59,0) rotate(-270,262.29,215.39)" stroke-width="0.0002%">.</use>
          <use xlink:href="#$lvtry$00000201" x="159016.08" y="131931.1" transform="scale(1,-1) translate(0,-263862.2) rotate(-90,159016.08,131931.1)">.</use>
          <use xlink:href="#$lvtry$00000201" x="159016.08" y="131031.1" transform="scale(1,-1) translate(0,-262062.2) rotate(-90,159016.08,131031.1)">.</use>
          <use xlink:href="#$lvtry$00000201" x="159016.08" y="130131.1" transform="scale(1,-1) translate(0,-260262.2) rotate(-90,159016.08,130131.1)">.</use>
          <use xlink:href="#$lvtry$00000201" x="159016.08" y="129231.1" transform="scale(1,-1) translate(0,-258462.2) rotate(-90,159016.08,129231.1)">.</use>
          <path d="M158816.08,131468.6l1187.5,0" />
          <path d="M158816.08,131493.6l1187.5,0" />
          <path d="M158816.08,131468.6l0,25" />
          <path d="M160028.58,132381.1l0,-150" />
          <path d="M160028.58,132231.1l-25,0" />
          <path d="M160003.58,132231.1l0,150" />
          <path d="M160003.58,132381.1l25,0" />
          <path d="M160003.58,131493.6l0,137.5" />
          <path d="M160003.58,131631.1l25,0" />
          <path d="M160028.58,131631.1l0,-150" />
          <use xlink:href="#$TCHSYS$APDOOR2D" x="266.693" y="219.885" transform="scale(600,600) scale(-1,-1) translate(-533.39,-439.77) rotate(-90,266.69,219.89)" stroke-width="0.0002%">.</use>
          <path d="M158816.08,130568.6l1187.5,0" />
          <path d="M158816.08,130593.6l1187.5,0" />
          <path d="M158816.08,130568.6l0,25" />
          <path d="M160028.58,131481.1l0,-150" />
          <path d="M160028.58,131331.1l-25,0" />
          <path d="M160003.58,131331.1l0,137.5" />
          <path d="M160003.58,130593.6l0,137.5" />
          <path d="M160003.58,130731.1l25,0" />
          <path d="M160028.58,130731.1l0,-150" />
          <use xlink:href="#$TCHSYS$APDOOR2D" x="266.693" y="218.385" transform="scale(600,600) scale(-1,-1) translate(-533.39,-436.77) rotate(-90,266.69,218.39)" stroke-width="0.0002%">.</use>
          <path d="M158816.08,129668.6l1187.5,0" />
          <path d="M158816.08,129693.6l1187.5,0" />
          <path d="M158816.08,129668.6l0,25" />
          <path d="M160028.58,130581.1l0,-150" />
          <path d="M160028.58,130431.1l-25,0" />
          <path d="M160003.58,130431.1l0,137.5" />
          <path d="M160003.58,129693.6l0,137.5" />
          <path d="M160003.58,129831.1l25,0" />
          <path d="M160028.58,129831.1l0,-150" />
          <use xlink:href="#$TCHSYS$APDOOR2D" x="266.693" y="216.885" transform="scale(600,600) scale(-1,-1) translate(-533.39,-433.77) rotate(-90,266.69,216.89)" stroke-width="0.0002%">.</use>
          <path d="M158816.08,128768.6l1212.5,0" />
          <path d="M158816.08,128793.6l1187.5,0" />
          <path d="M158816.08,128768.6l0,25" />
          <path d="M160028.58,129681.1l0,-150" />
          <path d="M160028.58,129531.1l-25,0" />
          <path d="M160003.58,129531.1l0,137.5" />
          <path d="M160003.58,128793.6l0,137.5" />
          <path d="M160003.58,128931.1l25,0" />
          <path d="M160028.58,128931.1l0,-162.5" />
          <use xlink:href="#$TCHSYS$APDOOR2D" x="266.693" y="215.385" transform="scale(600,600) scale(-1,-1) translate(-533.39,-430.77) rotate(-90,266.69,215.39)" stroke-width="0.0002%">.</use>
          <path d="M162416.08,132501.1l0,1860" />
          <path d="M162176.08,132501.1l0,1860" />
          <path d="M158816.08,132501.1l0,1860" />
          <path d="M158576.08,132501.1l0,1860" />
          <path d="M155216.08,132501.1l0,1860" />
          <path d="M154976.08,132501.1l0,2100" />
          <use xlink:href="#$lvtry$00000191" x="155216.08" y="132801.1" transform="rotate(-90,155216.08,132801.1)">.</use>
          <use xlink:href="#$lvtry$00000191" x="155216.08" y="132801.1" transform="rotate(-90,155216.08,132801.1)">.</use>
          <use xlink:href="#$lvtry$00000191" x="162176.08" y="132801.1" transform="rotate(-270,162176.08,132801.1)">.</use>
          <use xlink:href="#$lvtry$00000194" x="158917.74" y="133811.1" transform="rotate(-90,158917.74,133811.1)">.</use>
          <use xlink:href="#$lvtry$00000194" x="158917.74" y="133111.1" transform="rotate(-90,158917.74,133111.1)">.</use>
          <use xlink:href="#$lvtry$00000194" x="158474.42" y="133811.1" transform="scale(1,-1) translate(0,-267622.2) rotate(-270,158474.42,133811.1)">.</use>
          <use xlink:href="#$lvtry$00000194" x="158474.42" y="133111.1" transform="scale(1,-1) translate(0,-266222.2) rotate(-270,158474.42,133111.1)">.</use>
          <path d="M152456.08,133231.1l0,-3950l1720,0l0,3350l0,300" />
          <path d="M154976.08,133081.1l0,-3000" />
          <path d="M153436.08,132781.1l1540,0" />
          <path d="M153436.08,132481.1l1540,0" />
          <path d="M153436.08,132181.1l1540,0" />
          <path d="M153436.08,131881.1l1540,0" />
          <path d="M153436.08,131581.1l1540,0" />
          <path d="M153436.08,131281.1l1540,0" />
          <path d="M153436.08,130981.1l1540,0" />
          <path d="M153436.08,130681.1l1540,0" />
          <path d="M153436.08,130381.1l1540,0" />
          <path d="M153436.08,130081.1l1540,0" />
          <path d="M153376.08,133081.1l0,-3000" />
          <path d="M153436.08,133081.1l1540,0" />
          <path d="M153376.08,133081.1l60,0" />
          <path d="M151656.08,130081.1l0,3000" />
          <path d="M153196.08,130081.1l-1540,0" />
          <path d="M153196.08,130381.1l-1540,0" />
          <path d="M153196.08,130681.1l-1540,0" />
          <path d="M153196.08,130981.1l-1540,0" />
          <path d="M153196.08,131281.1l-1540,0" />
          <path d="M153196.08,131581.1l-1540,0" />
          <path d="M153196.08,131881.1l-1540,0" />
          <path d="M153196.08,132181.1l-1540,0" />
          <path d="M153196.08,132481.1l-1540,0" />
          <path d="M153196.08,132781.1l-1540,0" />
          <path d="M153196.08,133081.1l-1540,0" />
          <path d="M153256.08,130081.1l0,3000" />
          <path d="M153376.08,133081.1l0,-3000" />
          <path d="M153376.08,130081.1l-120,0" />
          <path d="M153256.08,130081.1l0,3000" />
          <path d="M153256.08,133081.1l1720,0" />
          <path d="M153436.08,133081.1l0,-3060" />
          <path d="M153436.08,130021.1l-240,0" />
          <path d="M153196.08,130021.1l0,3120" />
          <path d="M153196.08,133141.1l1780,0" />
          <path d="M153376.08,133081.1l60,0" />
          <path d="M154976.08,133081.1l0,60" />
          <path d="M154976.08,130081.1l0,-1600" />
          <path d="M154896.08,128481.1l-1300,0" />
          <path d="M152996.08,128481.1l-1300,0" />
          <path d="M151656.08,128481.1l0,1600" />
          <path d="M151656.08,130081.1l1540,0" />
          <path d="M153436.08,130081.1l1540,0" />
          <path d="M153256.08,130081.1l120,0" />
          <path d="M153376.08,133081.1l-120,0" />
          <path d="M199216.08,133231.1l0,-1650l0,-300" />
          <path d="M200936.08,133231.1l0,-3950l-1720,0l0,1400l0,300" />
          <path d="M198416.08,133081.1l0,-1430.38" />
          <path d="M198416.08,131535.25l0,-1454.15" />
          <path d="M198416.08,133081.1l1540,0" />
          <path d="M198416.08,132781.1l1540,0" />
          <path d="M198416.08,132481.1l1540,0" />
          <path d="M198416.08,132181.1l1540,0" />
          <path d="M198416.08,131881.1l1540,0" />
          <path d="M198536.65,131581.1l1419.42,0" />
          <path d="M198416.08,131281.1l440.19,0" />
          <path d="M199056.27,131281.1l899.81,0" />
          <path d="M198416.08,130981.1l959.81,0" />
          <path d="M199575.88,130981.1l380.19,0" />
          <path d="M198416.08,130681.1l1479.42,0" />
          <path d="M198416.08,130381.1l1540,0" />
          <path d="M198416.08,130081.1l1540,0" />
          <path d="M200016.08,133081.1l0,-2354.15" />
          <path d="M200016.08,130611.49l0,-530.38" />
          <path d="M198416.08,131535.25l708.8,-409.23" />
          <path d="M198416.08,131650.72l735.6,-424.7" />
          <path d="M199151.67,131226.02l-46.18,-172.35" />
          <path d="M199105.49,131053.67l206.04,172.89" />
          <path d="M199311.54,131226.56l-48.34,-180.4" />
          <path d="M199263.2,131046.16l752.88,-434.67" />
          <path d="M199289.99,131146.16l726.08,-419.2" />
          <path d="M201736.08,130081.1l0,3000" />
          <path d="M201736.08,130081.1l-1540,0" />
          <path d="M201736.08,130381.1l-1540,0" />
          <path d="M201736.08,130681.1l-1540,0" />
          <path d="M201736.08,130981.1l-1540,0" />
          <path d="M201736.08,131281.1l-1540,0" />
          <path d="M201736.08,131581.1l-1540,0" />
          <path d="M201736.08,131881.1l-1540,0" />
          <path d="M201736.08,132181.1l-1540,0" />
          <path d="M201736.08,132481.1l-1540,0" />
          <path d="M201736.08,132781.1l-1540,0" />
          <path d="M201736.08,133081.1l-1540,0" />
          <path d="M200136.08,130081.1l0,3000" />
          <path d="M200196.08,133141.1l-240,0" />
          <path d="M199956.08,133141.1l0,-2379.5" />
          <path d="M199956.08,130646.13l0,-625.03" />
          <path d="M199956.08,130021.1l240,0" />
          <path d="M200196.08,130021.1l0,3120" />
          <path d="M200136.08,133081.1l-120,0" />
          <path d="M200016.08,133081.1l0,-2354.15" />
          <path d="M200016.08,130611.49l0,-530.38" />
          <path d="M200016.08,130081.1l120,0" />
          <path d="M200136.08,130081.1l0,3000" />
          <path d="M201736.08,130081.1l0,-1600" />
          <path d="M201736.08,128481.1l-1340,0" />
          <path d="M199796.08,128481.1l-1300,0" />
          <path d="M198416.08,128481.1l0,1600" />
          <path d="M198416.08,130081.1l1540,0" />
          <path d="M200196.08,130081.1l1540,0" />
          <path d="M200016.08,130081.1l120,0" />
          <path d="M200016.08,133081.1l120,0" />
          <path d="M198096.08,128481.1l400,0" />
          <path d="M198496.08,128481.1l0,-600" />
          <path d="M198496.08,127881.1l-400,0" />
          <path d="M198096.08,127881.1l0,600" />
          <path d="M190896.08,128481.1l400,0" />
          <path d="M191296.08,128481.1l0,-600" />
          <path d="M191296.08,127881.1l-400,0" />
          <path d="M190896.08,127881.1l0,600" />
          <path d="M183696.08,128481.1l400,0" />
          <path d="M184096.08,128481.1l0,-600" />
          <path d="M184096.08,127881.1l-400,0" />
          <path d="M183696.08,127881.1l0,600" />
          <path d="M169296.08,128481.1l400,0" />
          <path d="M169696.08,128481.1l0,-600" />
          <path d="M169696.08,127881.1l-400,0" />
          <path d="M169296.08,127881.1l0,600" />
          <path d="M154896.08,128481.1l400,0" />
          <path d="M155296.08,128481.1l0,-600" />
          <path d="M155296.08,127881.1l-400,0" />
          <path d="M154896.08,127881.1l0,600" />
          <path d="M162096.08,128481.1l400,0" />
          <path d="M162496.08,128481.1l0,-600" />
          <path d="M162496.08,127881.1l-400,0" />
          <path d="M162096.08,127881.1l0,600" />
          <path d="M198096.08,143681.1l400,0" />
          <path d="M198496.08,143681.1l0,-600" />
          <path d="M198496.08,143081.1l-400,0" />
          <path d="M198096.08,143081.1l0,600" />
          <path d="M190896.08,143681.1l400,0" />
          <path d="M191296.08,143681.1l0,-600" />
          <path d="M191296.08,143081.1l-400,0" />
          <path d="M190896.08,143081.1l0,600" />
          <path d="M183696.08,143681.1l400,0" />
          <path d="M184096.08,143681.1l0,-600" />
          <path d="M184096.08,143081.1l-400,0" />
          <path d="M183696.08,143081.1l0,600" />
          <path d="M176496.08,143681.1l400,0" />
          <path d="M176896.08,143681.1l0,-600" />
          <path d="M176896.08,143081.1l-400,0" />
          <path d="M176496.08,143081.1l0,600" />
          <path d="M169296.08,143681.1l400,0" />
          <path d="M169696.08,143681.1l0,-600" />
          <path d="M169696.08,143081.1l-400,0" />
          <path d="M169296.08,143081.1l0,600" />
          <path d="M162096.08,143681.1l400,0" />
          <path d="M162496.08,143681.1l0,-600" />
          <path d="M162496.08,143081.1l-400,0" />
          <path d="M162096.08,143081.1l0,600" />
          <path d="M154896.08,143681.1l400,0" />
          <path d="M155296.08,143681.1l0,-600" />
          <path d="M155296.08,143081.1l-400,0" />
          <path d="M154896.08,143081.1l0,600" />
          <path d="M158576.08,143081.1l0,-6080" />
          <path d="M158816.08,143081.1l0,-6080" />
          <path d="M158696.08,136761.1l3600,0" />
          <path d="M158816.08,137001.1l3360,0" />
          <path d="M169376.08,143081.1l0,-6080" />
          <path d="M169616.08,143081.1l0,-6080" />
          <path d="M169616.08,137001.1l1180,0" />
          <path d="M170796.08,137001.1l0,-240" />
          <path d="M170796.08,136761.1l-1300,0" />
          <path d="M173096.08,136761.1l-1300,0" />
          <path d="M171796.08,136761.1l0,240" />
          <path d="M171796.08,137001.1l1180,0" />
          <path d="M198176.08,143081.1l0,-6080" />
          <path d="M198416.08,143081.1l0,-6080" />
          <path d="M190976.08,143081.1l0,-6080" />
          <path d="M191216.08,143081.1l0,-6080" />
          <path d="M187376.08,143081.1l0,-6080" />
          <path d="M187616.08,143081.1l0,-6080" />
          <path d="M183776.08,143081.1l0,-6080" />
          <path d="M184016.08,143081.1l0,-6080" />
          <path d="M198416.08,137001.1l1180,0" />
          <path d="M199596.08,137001.1l0,-240" />
          <path d="M199596.08,136761.1l-1300,0" />
          <path d="M201736.08,136761.1l-1140,0" />
          <path d="M200596.08,136761.1l0,240" />
          <path d="M200596.08,137001.1l1140,0" />
          <path d="M191216.08,137001.1l1180,0" />
          <path d="M192396.08,137001.1l0,-240" />
          <path d="M192396.08,136761.1l-1300,0" />
          <path d="M194696.08,136761.1l-1300,0" />
          <path d="M193396.08,136761.1l0,240" />
          <path d="M193396.08,137001.1l1180,0" />
          <use xlink:href="#$DorLib2D$00000114" x="192.896" y="136.881" transform="scale(1000,1000) scale(1,-1) translate(0,-273.76)" stroke-width="0.0001%">.<g class="blkclass0"><text transform="translate(-470,-246.25)" font-size="386.75">M1027</text></g></use>
          <path d="M187616.08,137001.1l1180,0" />
          <path d="M188796.08,137001.1l0,-240" />
          <path d="M188796.08,136761.1l-1300,0" />
          <path d="M191096.08,136761.1l-1300,0" />
          <path d="M189796.08,136761.1l0,240" />
          <path d="M189796.08,137001.1l1180,0" />
          <use xlink:href="#$DorLib2D$00000114" x="189.296" y="136.881" transform="scale(1000,1000) scale(1,-1) translate(0,-273.76)" stroke-width="0.0001%">.<g class="blkclass0"><text transform="translate(-470,-246.25)" font-size="386.75">M1027</text></g></use>
          <path d="M184016.08,137001.1l1180,0" />
          <path d="M185196.08,137001.1l0,-240" />
          <path d="M185196.08,136761.1l-1300,0" />
          <path d="M187496.08,136761.1l-1300,0" />
          <path d="M186196.08,136761.1l0,240" />
          <path d="M186196.08,137001.1l1180,0" />
          <use xlink:href="#$DorLib2D$00000114" x="185.696" y="136.881" transform="scale(1000,1000) scale(1,-1) translate(0,-273.76)" stroke-width="0.0001%">.<g class="blkclass0"><text transform="translate(-470,-246.25)" font-size="386.75">M1027</text></g></use>
          <path d="M198416.08,134601.1l0,-240" />
          <path d="M198176.08,134361.1l0,240" />
          <path d="M155216.08,134361.1l-240,0" />
          <path d="M154976.08,134361.1l0,240" />
          <path d="M154976.08,134601.1l240,0" />
          <path d="M155216.08,134601.1l0,-240" />
          <path d="M151656.08,134681.1l0,-400" />
          <path d="M151656.08,134281.1l-360,0" />
          <path d="M151296.08,134281.1l0,400" />
          <path d="M151296.08,134681.1l360,0" />
          <path d="M151656.08,137081.1l0,-400" />
          <path d="M151656.08,136681.1l-360,0" />
          <path d="M151296.08,136681.1l0,400" />
          <path d="M151296.08,137081.1l360,0" />
          <path d="M151296.08,134281.1l0,-5800" />
          <path d="M151656.08,134281.1l0,-5800" />
          <path d="M202096.08,134681.1l0,-400" />
          <path d="M202096.08,134281.1l-360,0" />
          <path d="M201736.08,134281.1l0,400" />
          <path d="M201736.08,134681.1l360,0" />
          <path d="M202096.08,137081.1l0,-400" />
          <path d="M202096.08,136681.1l-360,0" />
          <path d="M201736.08,136681.1l0,400" />
          <path d="M201736.08,137081.1l360,0" />
          <path d="M151296.08,134931.1l-600,0" />
          <path d="M151296.08,134811.1l-480,0" />
          <path d="M151296.08,134931.1l0,-120" />
          <path d="M150696.08,134931.1l0,-650" />
          <path d="M150816.08,134811.1l0,-410" />
          <path d="M150696.08,134281.1l600,0" />
          <path d="M150816.08,134401.1l480,0" />
          <path d="M151296.08,137081.1l-600,0" />
          <path d="M151296.08,136961.1l-480,0" />
          <path d="M150696.08,137081.1l0,-650" />
          <path d="M150816.08,136961.1l0,-410" />
          <path d="M150696.08,136431.1l600,0" />
          <path d="M150816.08,136551.1l480,0" />
          <path d="M151296.08,136431.1l0,120" />
          <use xlink:href="#$WINLIB2D$00000001_1500x360" x="201916.08" y="135681.1" transform="scale(-1,1) translate(-403832.16,0) rotate(-90,201916.08,135681.1)">.<g class="blkclass0"><text transform="rotate(-90 -346.25,435) translate(-346.25,435)" font-size="386.75">C1518</text></g></use>
          <path d="M154796.08,143441.1l0,240" />
          <path d="M154796.08,143681.1l100,0" />
          <path d="M155296.08,143681.1l100,0" />
          <path d="M155396.08,143681.1l0,-240" />
          <path d="M152996.08,143682.68l600,0" />
          <path d="M153596.08,143682.68l0,-600" />
          <path d="M153596.08,143082.68l-600,0" />
          <path d="M152996.08,143082.68l0,600" />
          <use xlink:href="#$WINLIB2D$00000001_1200x360" x="154196.08" y="143261.1">.<g class="blkclass0"><text transform="translate(-435,603.75)" font-size="386.75">C1218</text></g></use>
          <path d="M153596.08,143082.68l0,-1.58" />
          <path d="M153596.08,143081.1l-300,0" />
          <path d="M154896.08,143081.1l-100,0" />
          <path d="M154796.08,143081.1l0,360" />
          <path d="M154796.08,143441.1l100,0" />
          <use xlink:href="#$WINLIB2D$00000001_1100x360" x="152446.08" y="143261.1">.<g class="blkclass0"><text transform="translate(-415,603.75)" font-size="386.75">C1118</text></g></use>
          <path d="M151696.08,143681.1l200,0" />
          <path d="M151896.08,143681.1l0,-240" />
          <path d="M158396.08,143441.1l0,240" />
          <path d="M158396.08,143681.1l100,0" />
          <path d="M151896.08,128121.1l0,-240" />
          <path d="M151896.08,127881.1l-200,0" />
          <path d="M154896.08,127881.1l-100,0" />
          <path d="M154796.08,127881.1l0,240" />
          <path d="M152996.08,128481.1l600,0" />
          <path d="M153596.08,128481.1l0,-600" />
          <path d="M153596.08,127881.1l-600,0" />
          <path d="M152996.08,127881.1l0,600" />
          <use xlink:href="#$WINLIB2D$00000001_1200x360" x="154196.08" y="128301.1" transform="scale(-1,1) translate(-308392.16,0) rotate(-180,154196.08,128301.1)">.<g class="blkclass0"><text transform="translate(-429.89,-288.33)" font-size="386.75">C1218</text></g></use>
          <use xlink:href="#$WINLIB2D$00000001_1100x360" x="152446.08" y="128301.1" transform="scale(-1,-1) translate(-304892.16,-256602.2) rotate(-180,152446.08,128301.1)">.<g class="blkclass0"><text transform="translate(-415,-352.68)" font-size="386.75">C1118</text></g></use>
          <path d="M151696.08,128481.1l200,0" />
          <path d="M151896.08,128481.1l0,-360" />
          <path d="M151896.08,128121.1l-200,0" />
          <path d="M155396.08,128121.1l0,-240" />
          <path d="M155396.08,127881.1l-100,0" />
          <path d="M158496.08,127881.1l-100,0" />
          <path d="M158396.08,127881.1l0,240" />
          <use xlink:href="#$WINLIB2D$00000001_1200x360" x="157796.08" y="128301.1" transform="rotate(-180,157796.08,128301.1)">.<g class="blkclass0"><text transform="translate(-435,-306.25)" font-size="386.75">C1218</text></g></use>
          <use xlink:href="#$WINLIB2D$00000001_1200x360" x="155996.08" y="128301.1" transform="rotate(-180,155996.08,128301.1)">.<g class="blkclass0"><text transform="translate(-435,-306.25)" font-size="386.75">C1218</text></g></use>
          <path d="M156596.08,128481.1l600,0" />
          <path d="M157196.08,128481.1l0,-600" />
          <path d="M157196.08,127881.1l-600,0" />
          <path d="M156596.08,127881.1l0,600" />
          <path d="M155296.08,128481.1l100,0" />
          <path d="M155396.08,128481.1l0,-360" />
          <path d="M155396.08,128121.1l-100,0" />
          <path d="M162096.08,128121.1l-100,0" />
          <path d="M161996.08,128121.1l0,360" />
          <path d="M161996.08,128481.1l100,0" />
          <use xlink:href="#$WINLIB2D$00000001_1200x360" x="161396.08" y="128301.1" transform="rotate(-180,161396.08,128301.1)">.<g class="blkclass0"><text transform="translate(-435,-306.25)" font-size="386.75">C1218</text></g></use>
          <path d="M158996.08,128121.1l0,-240" />
          <path d="M158996.08,127881.1l-100,0" />
          <path d="M162096.08,127881.1l-100,0" />
          <path d="M161996.08,127881.1l0,240" />
          <use xlink:href="#$WINLIB2D$00000001_1200x360" x="159596.08" y="128301.1" transform="rotate(-180,159596.08,128301.1)">.<g class="blkclass0"><text transform="translate(-435,-306.25)" font-size="386.75">C1218</text></g></use>
          <path d="M160196.08,128481.1l600,0" />
          <path d="M160796.08,128481.1l0,-600" />
          <path d="M160796.08,127881.1l-600,0" />
          <path d="M160196.08,127881.1l0,600" />
          <path d="M158896.08,128481.1l100,0" />
          <path d="M158996.08,128481.1l0,-360" />
          <path d="M158996.08,128121.1l-100,0" />
          <path d="M165696.08,128121.1l-100,0" />
          <path d="M165596.08,128121.1l0,360" />
          <path d="M165596.08,128481.1l100,0" />
          <use xlink:href="#$WINLIB2D$00000001_1200x360" x="164996.08" y="128301.1" transform="rotate(-180,164996.08,128301.1)">.<g class="blkclass0"><text transform="translate(-435,-306.25)" font-size="386.75">C1218</text></g></use>
          <path d="M162596.08,128121.1l0,-240" />
          <path d="M162596.08,127881.1l-100,0" />
          <path d="M165696.08,127881.1l-100,0" />
          <path d="M165596.08,127881.1l0,240" />
          <use xlink:href="#$WINLIB2D$00000001_1200x360" x="163196.08" y="128301.1" transform="rotate(-180,163196.08,128301.1)">.<g class="blkclass0"><text transform="translate(-435,-306.25)" font-size="386.75">C1218</text></g></use>
          <path d="M163796.08,128481.1l600,0" />
          <path d="M164396.08,128481.1l0,-600" />
          <path d="M164396.08,127881.1l-600,0" />
          <path d="M163796.08,127881.1l0,600" />
          <path d="M162496.08,128481.1l100,0" />
          <path d="M162596.08,128481.1l0,-360" />
          <path d="M162596.08,128121.1l-100,0" />
          <path d="M169296.08,128121.1l-100,0" />
          <path d="M169196.08,128121.1l0,360" />
          <path d="M169196.08,128481.1l100,0" />
          <use xlink:href="#$WINLIB2D$00000001_1200x360" x="168596.08" y="128301.1" transform="rotate(-180,168596.08,128301.1)">.<g class="blkclass0"><text transform="translate(-435,-306.25)" font-size="386.75">C1218</text></g></use>
          <path d="M166196.08,128121.1l0,-240" />
          <path d="M166196.08,127881.1l-100,0" />
          <path d="M169296.08,127881.1l-100,0" />
          <path d="M169196.08,127881.1l0,240" />
          <use xlink:href="#$WINLIB2D$00000001_1200x360" x="166796.08" y="128301.1" transform="rotate(-180,166796.08,128301.1)">.<g class="blkclass0"><text transform="translate(-435,-306.25)" font-size="386.75">C1218</text></g></use>
          <path d="M167396.08,128481.1l600,0" />
          <path d="M167996.08,128481.1l0,-600" />
          <path d="M167996.08,127881.1l-600,0" />
          <path d="M167396.08,127881.1l0,600" />
          <path d="M166096.08,128481.1l100,0" />
          <path d="M166196.08,128481.1l0,-360" />
          <path d="M166196.08,128121.1l-100,0" />
          <use xlink:href="#$WINLIB2D$00000001_1200x360" x="172196.08" y="128301.1" transform="rotate(-180,172196.08,128301.1)">.<g class="blkclass0"><text transform="translate(-435,-306.25)" font-size="386.75">C1218</text></g></use>
          <path d="M169796.08,128121.1l0,-240" />
          <path d="M169796.08,127881.1l-100,0" />
          <path d="M172896.08,127881.1l-100,0" />
          <path d="M172796.08,127881.1l0,240" />
          <use xlink:href="#$WINLIB2D$00000001_1200x360" x="170396.08" y="128301.1" transform="rotate(-180,170396.08,128301.1)">.<g class="blkclass0"><text transform="translate(-435,-306.25)" font-size="386.75">C1218</text></g></use>
          <path d="M170996.08,128481.1l600,0" />
          <path d="M171596.08,128481.1l0,-600" />
          <path d="M171596.08,127881.1l-600,0" />
          <path d="M170996.08,127881.1l0,600" />
          <path d="M169696.08,128481.1l100,0" />
          <path d="M169796.08,128481.1l0,-360" />
          <path d="M169796.08,128121.1l-100,0" />
          <use xlink:href="#$WINLIB2D$00000001_1200x360" x="175796.08" y="128301.1" transform="rotate(-180,175796.08,128301.1)">.<g class="blkclass0"><text transform="rotate(-360 -435,-306.25) translate(-435,-306.25)" font-size="386.75">C1218</text></g></use>
          <path d="M173396.08,128121.1l0,-240" />
          <path d="M173396.08,127881.1l-100,0" />
          <path d="M176496.08,127881.1l-100,0" />
          <path d="M176396.08,127881.1l0,240" />
          <use xlink:href="#$WINLIB2D$00000001_1200x360" x="173996.08" y="128301.1" transform="rotate(-180,173996.08,128301.1)">.<g class="blkclass0"><text transform="translate(-435,-306.25)" font-size="386.75">C1218</text></g></use>
          <path d="M174596.08,128481.1l600,0" />
          <path d="M175196.08,128481.1l0,-600" />
          <path d="M175196.08,127881.1l-600,0" />
          <path d="M174596.08,127881.1l0,600" />
          <path d="M173296.08,128481.1l100,0" />
          <path d="M173396.08,128481.1l0,-360" />
          <path d="M173396.08,128121.1l-100,0" />
          <path d="M180096.08,128121.1l-100,0" />
          <path d="M179996.08,128121.1l0,360" />
          <path d="M179996.08,128481.1l100,0" />
          <use xlink:href="#$WINLIB2D$00000001_1200x360" x="179396.08" y="128301.1" transform="rotate(-180,179396.08,128301.1)">.<g class="blkclass0"><text transform="translate(-435,-306.25)" font-size="386.75">C1218</text></g></use>
          <path d="M176996.08,128121.1l0,-240" />
          <path d="M176996.08,127881.1l-100,0" />
          <path d="M180096.08,127881.1l-100,0" />
          <path d="M179996.08,127881.1l0,240" />
          <use xlink:href="#$WINLIB2D$00000001_1200x360" x="177596.08" y="128301.1" transform="rotate(-180,177596.08,128301.1)">.<g class="blkclass0"><text transform="rotate(-360 -435,-306.25) translate(-435,-306.25)" font-size="386.75">C1218</text></g></use>
          <path d="M178196.08,128481.1l600,0" />
          <path d="M178796.08,128481.1l0,-600" />
          <path d="M178796.08,127881.1l-600,0" />
          <path d="M178196.08,127881.1l0,600" />
          <path d="M176896.08,128481.1l100,0" />
          <path d="M176996.08,128481.1l0,-360" />
          <path d="M176996.08,128121.1l-100,0" />
          <path d="M183696.08,128121.1l-100,0" />
          <path d="M183596.08,128121.1l0,360" />
          <path d="M183596.08,128481.1l100,0" />
          <use xlink:href="#$WINLIB2D$00000001_1200x360" x="182996.08" y="128301.1" transform="rotate(-180,182996.08,128301.1)">.<g class="blkclass0"><text transform="translate(-435,-306.25)" font-size="386.75">C1218</text></g></use>
          <path d="M180596.08,128121.1l0,-240" />
          <path d="M180596.08,127881.1l-100,0" />
          <path d="M183696.08,127881.1l-100,0" />
          <path d="M183596.08,127881.1l0,240" />
          <use xlink:href="#$WINLIB2D$00000001_1200x360" x="181196.08" y="128301.1" transform="rotate(-180,181196.08,128301.1)">.<g class="blkclass0"><text transform="translate(-435,-306.25)" font-size="386.75">C1218</text></g></use>
          <path d="M181796.08,128481.1l600,0" />
          <path d="M182396.08,128481.1l0,-600" />
          <path d="M182396.08,127881.1l-600,0" />
          <path d="M181796.08,127881.1l0,600" />
          <path d="M180496.08,128481.1l100,0" />
          <path d="M180596.08,128481.1l0,-360" />
          <path d="M180596.08,128121.1l-100,0" />
          <path d="M187296.08,128121.1l-100,0" />
          <path d="M187196.08,128121.1l0,360" />
          <path d="M187196.08,128481.1l100,0" />
          <use xlink:href="#$WINLIB2D$00000001_1200x360" x="186596.08" y="128301.1" transform="rotate(-180,186596.08,128301.1)">.<g class="blkclass0"><text transform="translate(-435,-306.25)" font-size="386.75">C1218</text></g></use>
          <path d="M184196.08,128121.1l0,-240" />
          <path d="M184196.08,127881.1l-100,0" />
          <path d="M187296.08,127881.1l-100,0" />
          <path d="M187196.08,127881.1l0,240" />
          <use xlink:href="#$WINLIB2D$00000001_1200x360" x="184796.08" y="128301.1" transform="rotate(-180,184796.08,128301.1)">.<g class="blkclass0"><text transform="translate(-435,-306.25)" font-size="386.75">C1218</text></g></use>
          <path d="M185396.08,128481.1l600,0" />
          <path d="M185996.08,128481.1l0,-600" />
          <path d="M185996.08,127881.1l-600,0" />
          <path d="M185396.08,127881.1l0,600" />
          <path d="M184096.08,128481.1l100,0" />
          <path d="M184196.08,128481.1l0,-360" />
          <path d="M184196.08,128121.1l-100,0" />
          <path d="M190896.08,128121.1l-100,0" />
          <path d="M190796.08,128121.1l0,360" />
          <path d="M190796.08,128481.1l100,0" />
          <use xlink:href="#$WINLIB2D$00000001_1200x360" x="190196.08" y="128301.1" transform="rotate(-180,190196.08,128301.1)">.<g class="blkclass0"><text transform="translate(-435,-306.25)" font-size="386.75">C1218</text></g></use>
          <path d="M187796.08,128121.1l0,-240" />
          <path d="M187796.08,127881.1l-100,0" />
          <path d="M190896.08,127881.1l-100,0" />
          <path d="M190796.08,127881.1l0,240" />
          <use xlink:href="#$WINLIB2D$00000001_1200x360" x="188396.08" y="128301.1" transform="rotate(-180,188396.08,128301.1)">.<g class="blkclass0"><text transform="translate(-435,-306.25)" font-size="386.75">C1218</text></g></use>
          <path d="M188996.08,128481.1l600,0" />
          <path d="M189596.08,128481.1l0,-600" />
          <path d="M189596.08,127881.1l-600,0" />
          <path d="M188996.08,127881.1l0,600" />
          <path d="M187696.08,128481.1l100,0" />
          <path d="M187796.08,128481.1l0,-360" />
          <path d="M187796.08,128121.1l-100,0" />
          <path d="M194496.08,128121.1l-100,0" />
          <path d="M194396.08,128121.1l0,360" />
          <path d="M194396.08,128481.1l100,0" />
          <use xlink:href="#$WINLIB2D$00000001_1200x360" x="193796.08" y="128301.1" transform="rotate(-180,193796.08,128301.1)">.<g class="blkclass0"><text transform="translate(-435,-306.25)" font-size="386.75">C1218</text></g></use>
          <path d="M191396.08,128121.1l0,-240" />
          <path d="M191396.08,127881.1l-100,0" />
          <path d="M194496.08,127881.1l-100,0" />
          <path d="M194396.08,127881.1l0,240" />
          <use xlink:href="#$WINLIB2D$00000001_1200x360" x="191996.08" y="128301.1" transform="rotate(-180,191996.08,128301.1)">.<g class="blkclass0"><text transform="translate(-435,-306.25)" font-size="386.75">C1218</text></g></use>
          <path d="M192596.08,128481.1l600,0" />
          <path d="M193196.08,128481.1l0,-600" />
          <path d="M193196.08,127881.1l-600,0" />
          <path d="M192596.08,127881.1l0,600" />
          <path d="M191296.08,128481.1l100,0" />
          <path d="M191396.08,128481.1l0,-360" />
          <path d="M191396.08,128121.1l-100,0" />
          <path d="M198096.08,128121.1l-100,0" />
          <path d="M197996.08,128121.1l0,360" />
          <path d="M197996.08,128481.1l100,0" />
          <use xlink:href="#$WINLIB2D$00000001_1200x360" x="197396.08" y="128301.1" transform="rotate(-180,197396.08,128301.1)">.<g class="blkclass0"><text transform="translate(-435,-306.25)" font-size="386.75">C1218</text></g></use>
          <path d="M194996.08,128121.1l0,-240" />
          <path d="M194996.08,127881.1l-100,0" />
          <path d="M198096.08,127881.1l-100,0" />
          <path d="M197996.08,127881.1l0,240" />
          <use xlink:href="#$WINLIB2D$00000001_1200x360" x="195596.08" y="128301.1" transform="rotate(-180,195596.08,128301.1)">.<g class="blkclass0"><text transform="translate(-435,-306.25)" font-size="386.75">C1218</text></g></use>
          <path d="M196196.08,128481.1l600,0" />
          <path d="M196796.08,128481.1l0,-600" />
          <path d="M196796.08,127881.1l-600,0" />
          <path d="M196196.08,127881.1l0,600" />
          <path d="M194896.08,128481.1l100,0" />
          <path d="M194996.08,128481.1l0,-360" />
          <path d="M194996.08,128121.1l-100,0" />
          <path d="M176496.08,128481.1l400,0" />
          <path d="M176896.08,128481.1l0,-600" />
          <path d="M176896.08,127881.1l-400,0" />
          <path d="M176496.08,127881.1l0,600" />
          <path d="M172896.08,128481.1l400,0" />
          <path d="M173296.08,128481.1l0,-600" />
          <path d="M173296.08,127881.1l-400,0" />
          <path d="M172896.08,127881.1l0,600" />
          <path d="M176496.08,128121.1l-100,0" />
          <path d="M176396.08,128121.1l0,360" />
          <path d="M176396.08,128481.1l100,0" />
          <path d="M172896.08,128121.1l-100,0" />
          <path d="M172796.08,128121.1l0,360" />
          <path d="M172796.08,128481.1l100,0" />
          <path d="M198496.08,128481.1l100,0" />
          <path d="M198596.08,128481.1l0,-360" />
          <path d="M198596.08,128121.1l-100,0" />
          <use xlink:href="#$WINLIB2D$00000001_1200x360" x="199196.08" y="128301.1" transform="scale(-1,-1) translate(-398392.16,-256602.2)">.<g class="blkclass0"><text transform="translate(-440.11,-288.33)" font-size="386.75">C1218</text></g></use>
          <path d="M201696.08,127881.1l-200,0" />
          <path d="M201496.08,127881.1l0,240" />
          <path d="M198596.08,128121.1l0,-240" />
          <path d="M198596.08,127881.1l-100,0" />
          <path d="M200396.08,128481.1l0,-600" />
          <path d="M200396.08,127881.1l-600,0" />
          <path d="M199796.08,127881.1l0,600" />
          <path d="M199796.08,128481.1l600,0" />
          <use xlink:href="#$WINLIB2D$00000001_1100x360" x="200946.08" y="128301.1" transform="scale(-1,1) translate(-401892.16,0)">.<g class="blkclass0"><text transform="translate(-415,-352.68)" font-size="386.75">C1118</text></g></use>
          <path d="M201696.08,128121.1l-200,0" />
          <path d="M201496.08,128121.1l0,360" />
          <path d="M201496.08,128481.1l200,0" />
          <use xlink:href="#$WINLIB2D$00000001_1200x360" x="155996.08" y="143261.1">.<g class="blkclass0"><text transform="translate(-435,603.75)" font-size="386.75">C1218</text></g></use>
          <use xlink:href="#$WINLIB2D$00000001_1200x360" x="157796.08" y="143261.1">.<g class="blkclass0"><text transform="translate(-435,603.75)" font-size="386.75">C1218</text></g></use>
          <path d="M156596.08,143682.68l600,0" />
          <path d="M157196.08,143682.68l0,-600" />
          <path d="M157196.08,143082.68l-600,0" />
          <path d="M156596.08,143082.68l0,600" />
          <path d="M157196.08,143082.68l0,-1.58" />
          <path d="M157196.08,143081.1l-300,0" />
          <path d="M158496.08,143081.1l-100,0" />
          <path d="M158396.08,143081.1l0,360" />
          <path d="M158396.08,143441.1l100,0" />
          <path d="M201696.08,143081.1l-200,0" />
          <path d="M201496.08,143081.1l0,360" />
          <path d="M201496.08,143441.1l200,0" />
          <path d="M200396.08,143082.68l0,-1.58" />
          <path d="M200396.08,143081.1l-300,0" />
          <use xlink:href="#$WINLIB2D$00000001_1100x360" x="200946.08" y="143261.1" transform="scale(1,-1) translate(0,-286522.2) rotate(-180,200946.08,143261.1)">.<g class="blkclass0"><text transform="translate(-415,603.75)" font-size="386.75">C1118</text></g></use>
          <path d="M198496.08,143681.1l100,0" />
          <path d="M198596.08,143681.1l0,-240" />
          <path d="M200396.08,143682.68l0,-600" />
          <path d="M200396.08,143082.68l-600,0" />
          <path d="M199796.08,143082.68l0,600" />
          <path d="M199796.08,143682.68l600,0" />
          <use xlink:href="#$WINLIB2D$00000001_1200x360" x="199196.08" y="143261.1" transform="scale(1,-1) translate(0,-286522.2) rotate(-180,199196.08,143261.1)">.<g class="blkclass0"><text transform="translate(-435,603.75)" font-size="386.75">C1218</text></g></use>
          <path d="M200096.08,143081.1l-300,0" />
          <path d="M199796.08,143081.1l0,1.58" />
          <path d="M198496.08,143441.1l100,0" />
          <path d="M198596.08,143441.1l0,-360" />
          <path d="M198596.08,143081.1l-100,0" />
          <path d="M201496.08,143441.1l0,240" />
          <path d="M201496.08,143681.1l200,0" />
          <path d="M158896.08,143441.1l100,0" />
          <path d="M158996.08,143441.1l0,-360" />
          <path d="M158996.08,143081.1l-100,0" />
          <path d="M160496.08,143081.1l-300,0" />
          <path d="M160196.08,143081.1l0,1.58" />
          <use xlink:href="#$WINLIB2D$00000001_1200x360" x="159596.08" y="143261.1">.<g class="blkclass0"><text transform="translate(-435,603.75)" font-size="386.75">C1218</text></g></use>
          <path d="M158896.08,143681.1l100,0" />
          <path d="M158996.08,143681.1l0,-240" />
          <path d="M161996.08,143441.1l0,240" />
          <path d="M161996.08,143681.1l100,0" />
          <use xlink:href="#$WINLIB2D$00000001_1200x360" x="161396.08" y="143261.1">.<g class="blkclass0"><text transform="translate(-435,603.75)" font-size="386.75">C1218</text></g></use>
          <path d="M160196.08,143682.68l600,0" />
          <path d="M160796.08,143682.68l0,-600" />
          <path d="M160796.08,143082.68l-600,0" />
          <path d="M160196.08,143082.68l0,600" />
          <path d="M160796.08,143082.68l0,-1.58" />
          <path d="M160796.08,143081.1l-300,0" />
          <path d="M162096.08,143081.1l-100,0" />
          <path d="M161996.08,143081.1l0,360" />
          <path d="M161996.08,143441.1l100,0" />
          <path d="M162496.08,143441.1l100,0" />
          <path d="M162596.08,143441.1l0,-360" />
          <path d="M162596.08,143081.1l-100,0" />
          <path d="M164096.08,143081.1l-300,0" />
          <path d="M163796.08,143081.1l0,1.58" />
          <use xlink:href="#$WINLIB2D$00000001_1200x360" x="163196.08" y="143261.1">.<g class="blkclass0"><text transform="translate(-435,603.75)" font-size="386.75">C1218</text></g></use>
          <path d="M162496.08,143681.1l100,0" />
          <path d="M162596.08,143681.1l0,-240" />
          <path d="M165596.08,143441.1l0,240" />
          <path d="M165596.08,143681.1l100,0" />
          <use xlink:href="#$WINLIB2D$00000001_1200x360" x="164996.08" y="143261.1">.<g class="blkclass0"><text transform="translate(-435,603.75)" font-size="386.75">C1218</text></g></use>
          <path d="M163796.08,143682.68l600,0" />
          <path d="M164396.08,143682.68l0,-600" />
          <path d="M164396.08,143082.68l-600,0" />
          <path d="M163796.08,143082.68l0,600" />
          <path d="M164396.08,143082.68l0,-1.58" />
          <path d="M164396.08,143081.1l-300,0" />
          <path d="M165696.08,143081.1l-100,0" />
          <path d="M165596.08,143081.1l0,360" />
          <path d="M165596.08,143441.1l100,0" />
          <path d="M166096.08,143441.1l100,0" />
          <path d="M166196.08,143441.1l0,-360" />
          <path d="M166196.08,143081.1l-100,0" />
          <path d="M167696.08,143081.1l-300,0" />
          <path d="M167396.08,143081.1l0,1.58" />
          <use xlink:href="#$WINLIB2D$00000001_1200x360" x="166796.08" y="143261.1">.<g class="blkclass0"><text transform="translate(-435,603.75)" font-size="386.75">C1218</text></g></use>
          <path d="M166096.08,143681.1l100,0" />
          <path d="M166196.08,143681.1l0,-240" />
          <path d="M169196.08,143441.1l0,240" />
          <path d="M169196.08,143681.1l100,0" />
          <use xlink:href="#$WINLIB2D$00000001_1200x360" x="168596.08" y="143261.1">.<g class="blkclass0"><text transform="translate(-435,603.75)" font-size="386.75">C1218</text></g></use>
          <path d="M167396.08,143682.68l600,0" />
          <path d="M167996.08,143682.68l0,-600" />
          <path d="M167996.08,143082.68l-600,0" />
          <path d="M167396.08,143082.68l0,600" />
          <path d="M167996.08,143082.68l0,-1.58" />
          <path d="M167996.08,143081.1l-300,0" />
          <path d="M169296.08,143081.1l-100,0" />
          <path d="M169196.08,143081.1l0,360" />
          <path d="M169196.08,143441.1l100,0" />
          <path d="M169696.08,143441.1l100,0" />
          <path d="M169796.08,143441.1l0,-360" />
          <path d="M169796.08,143081.1l-100,0" />
          <path d="M171296.08,143081.1l-300,0" />
          <path d="M170996.08,143081.1l0,1.58" />
          <use xlink:href="#$WINLIB2D$00000001_1200x360" x="170396.08" y="143261.1">.<g class="blkclass0"><text transform="translate(-435,603.75)" font-size="386.75">C1218</text></g></use>
          <path d="M169696.08,143681.1l100,0" />
          <path d="M169796.08,143681.1l0,-240" />
          <path d="M172796.08,143441.1l0,240" />
          <path d="M172796.08,143681.1l100,0" />
          <use xlink:href="#$WINLIB2D$00000001_1200x360" x="172196.08" y="143261.1">.<g class="blkclass0"><text transform="translate(-435,603.75)" font-size="386.75">C1218</text></g></use>
          <path d="M170996.08,143682.68l600,0" />
          <path d="M171596.08,143682.68l0,-600" />
          <path d="M171596.08,143082.68l-600,0" />
          <path d="M170996.08,143082.68l0,600" />
          <path d="M171596.08,143082.68l0,-1.58" />
          <path d="M171596.08,143081.1l-300,0" />
          <path d="M172896.08,143081.1l-100,0" />
          <path d="M172796.08,143081.1l0,360" />
          <path d="M172796.08,143441.1l100,0" />
          <path d="M173296.08,143441.1l100,0" />
          <path d="M173396.08,143441.1l0,-360" />
          <path d="M173396.08,143081.1l-100,0" />
          <path d="M174896.08,143081.1l-300,0" />
          <path d="M174596.08,143081.1l0,1.58" />
          <use xlink:href="#$WINLIB2D$00000001_1200x360" x="173996.08" y="143261.1">.<g class="blkclass0"><text transform="translate(-435,603.75)" font-size="386.75">C1218</text></g></use>
          <path d="M173296.08,143681.1l100,0" />
          <path d="M173396.08,143681.1l0,-240" />
          <path d="M176396.08,143441.1l0,240" />
          <path d="M176396.08,143681.1l100,0" />
          <use xlink:href="#$WINLIB2D$00000001_1200x360" x="175796.08" y="143261.1">.<g class="blkclass0"><text transform="translate(-435,603.75)" font-size="386.75">C1218</text></g></use>
          <path d="M174596.08,143682.68l600,0" />
          <path d="M175196.08,143682.68l0,-600" />
          <path d="M175196.08,143082.68l-600,0" />
          <path d="M174596.08,143082.68l0,600" />
          <path d="M175196.08,143082.68l0,-1.58" />
          <path d="M175196.08,143081.1l-300,0" />
          <path d="M176496.08,143081.1l-100,0" />
          <path d="M176396.08,143081.1l0,360" />
          <path d="M176396.08,143441.1l100,0" />
          <path d="M176896.08,143441.1l100,0" />
          <path d="M176996.08,143441.1l0,-360" />
          <path d="M176996.08,143081.1l-100,0" />
          <path d="M178496.08,143081.1l-300,0" />
          <path d="M178196.08,143081.1l0,1.58" />
          <use xlink:href="#$WINLIB2D$00000001_1200x360" x="177596.08" y="143261.1">.<g class="blkclass0"><text transform="translate(-435,603.75)" font-size="386.75">C1218</text></g></use>
          <path d="M176896.08,143681.1l100,0" />
          <path d="M176996.08,143681.1l0,-240" />
          <path d="M179996.08,143441.1l0,240" />
          <path d="M179996.08,143681.1l100,0" />
          <use xlink:href="#$WINLIB2D$00000001_1200x360" x="179396.08" y="143261.1">.<g class="blkclass0"><text transform="translate(-435,603.75)" font-size="386.75">C1218</text></g></use>
          <path d="M178196.08,143682.68l600,0" />
          <path d="M178796.08,143682.68l0,-600" />
          <path d="M178796.08,143082.68l-600,0" />
          <path d="M178196.08,143082.68l0,600" />
          <path d="M178796.08,143082.68l0,-1.58" />
          <path d="M178796.08,143081.1l-300,0" />
          <path d="M180096.08,143081.1l-100,0" />
          <path d="M179996.08,143081.1l0,360" />
          <path d="M179996.08,143441.1l100,0" />
          <path d="M180496.08,143441.1l100,0" />
          <path d="M180596.08,143441.1l0,-360" />
          <path d="M180596.08,143081.1l-100,0" />
          <path d="M182096.08,143081.1l-300,0" />
          <path d="M181796.08,143081.1l0,1.58" />
          <use xlink:href="#$WINLIB2D$00000001_1200x360" x="181196.08" y="143261.1">.<g class="blkclass0"><text transform="translate(-435,603.75)" font-size="386.75">C1218</text></g></use>
          <path d="M180496.08,143681.1l100,0" />
          <path d="M180596.08,143681.1l0,-240" />
          <path d="M183596.08,143441.1l0,240" />
          <path d="M183596.08,143681.1l100,0" />
          <use xlink:href="#$WINLIB2D$00000001_1200x360" x="182996.08" y="143261.1">.<g class="blkclass0"><text transform="translate(-435,603.75)" font-size="386.75">C1218</text></g></use>
          <path d="M181796.08,143682.68l600,0" />
          <path d="M182396.08,143682.68l0,-600" />
          <path d="M182396.08,143082.68l-600,0" />
          <path d="M181796.08,143082.68l0,600" />
          <path d="M182396.08,143082.68l0,-1.58" />
          <path d="M182396.08,143081.1l-300,0" />
          <path d="M183696.08,143081.1l-100,0" />
          <path d="M183596.08,143081.1l0,360" />
          <path d="M183596.08,143441.1l100,0" />
          <path d="M184096.08,143441.1l100,0" />
          <path d="M184196.08,143441.1l0,-360" />
          <path d="M184196.08,143081.1l-100,0" />
          <path d="M185696.08,143081.1l-300,0" />
          <path d="M185396.08,143081.1l0,1.58" />
          <use xlink:href="#$WINLIB2D$00000001_1200x360" x="184796.08" y="143261.1">.<g class="blkclass0"><text transform="translate(-435,603.75)" font-size="386.75">C1218</text></g></use>
          <path d="M184096.08,143681.1l100,0" />
          <path d="M184196.08,143681.1l0,-240" />
          <path d="M187196.08,143441.1l0,240" />
          <path d="M187196.08,143681.1l100,0" />
          <use xlink:href="#$WINLIB2D$00000001_1200x360" x="186596.08" y="143261.1">.<g class="blkclass0"><text transform="translate(-435,603.75)" font-size="386.75">C1218</text></g></use>
          <path d="M185396.08,143682.68l600,0" />
          <path d="M185996.08,143682.68l0,-600" />
          <path d="M185996.08,143082.68l-600,0" />
          <path d="M185396.08,143082.68l0,600" />
          <path d="M185996.08,143082.68l0,-1.58" />
          <path d="M185996.08,143081.1l-300,0" />
          <path d="M187296.08,143081.1l-100,0" />
          <path d="M187196.08,143081.1l0,360" />
          <path d="M187196.08,143441.1l100,0" />
          <path d="M187696.08,143441.1l100,0" />
          <path d="M187796.08,143441.1l0,-360" />
          <path d="M187796.08,143081.1l-100,0" />
          <path d="M189296.08,143081.1l-300,0" />
          <path d="M188996.08,143081.1l0,1.58" />
          <use xlink:href="#$WINLIB2D$00000001_1200x360" x="188396.08" y="143261.1">.<g class="blkclass0"><text transform="translate(-435,603.75)" font-size="386.75">C1218</text></g></use>
          <path d="M187696.08,143681.1l100,0" />
          <path d="M187796.08,143681.1l0,-240" />
          <path d="M190796.08,143441.1l0,240" />
          <path d="M190796.08,143681.1l100,0" />
          <use xlink:href="#$WINLIB2D$00000001_1200x360" x="190196.08" y="143261.1">.<g class="blkclass0"><text transform="translate(-435,603.75)" font-size="386.75">C1218</text></g></use>
          <path d="M188996.08,143682.68l600,0" />
          <path d="M189596.08,143682.68l0,-600" />
          <path d="M189596.08,143082.68l-600,0" />
          <path d="M188996.08,143082.68l0,600" />
          <path d="M189596.08,143082.68l0,-1.58" />
          <path d="M189596.08,143081.1l-300,0" />
          <path d="M190896.08,143081.1l-100,0" />
          <path d="M190796.08,143081.1l0,360" />
          <path d="M190796.08,143441.1l100,0" />
          <path d="M191296.08,143441.1l100,0" />
          <path d="M191396.08,143441.1l0,-360" />
          <path d="M191396.08,143081.1l-100,0" />
          <path d="M192896.08,143081.1l-300,0" />
          <path d="M192596.08,143081.1l0,1.58" />
          <use xlink:href="#$WINLIB2D$00000001_1200x360" x="191996.08" y="143261.1">.<g class="blkclass0"><text transform="translate(-435,603.75)" font-size="386.75">C1218</text></g></use>
          <path d="M191296.08,143681.1l100,0" />
          <path d="M191396.08,143681.1l0,-240" />
          <path d="M194396.08,143441.1l0,240" />
          <path d="M194396.08,143681.1l100,0" />
          <use xlink:href="#$WINLIB2D$00000001_1200x360" x="193796.08" y="143261.1">.<g class="blkclass0"><text transform="translate(-435,603.75)" font-size="386.75">C1218</text></g></use>
          <path d="M192596.08,143682.68l600,0" />
          <path d="M193196.08,143682.68l0,-600" />
          <path d="M193196.08,143082.68l-600,0" />
          <path d="M192596.08,143082.68l0,600" />
          <path d="M193196.08,143082.68l0,-1.58" />
          <path d="M193196.08,143081.1l-300,0" />
          <path d="M194496.08,143081.1l-100,0" />
          <path d="M194396.08,143081.1l0,360" />
          <path d="M194396.08,143441.1l100,0" />
          <path d="M194896.08,143441.1l100,0" />
          <path d="M194996.08,143441.1l0,-360" />
          <path d="M194996.08,143081.1l-100,0" />
          <path d="M196496.08,143081.1l-300,0" />
          <path d="M196196.08,143081.1l0,1.58" />
          <use xlink:href="#$WINLIB2D$00000001_1200x360" x="195596.08" y="143261.1">.<g class="blkclass0"><text transform="translate(-435,603.75)" font-size="386.75">C1218</text></g></use>
          <path d="M194896.08,143681.1l100,0" />
          <path d="M194996.08,143681.1l0,-240" />
          <path d="M197996.08,143441.1l0,240" />
          <path d="M197996.08,143681.1l100,0" />
          <use xlink:href="#$WINLIB2D$00000001_1200x360" x="197396.08" y="143261.1">.<g class="blkclass0"><text transform="translate(-435,603.75)" font-size="386.75">C1218</text></g></use>
          <path d="M196196.08,143682.68l600,0" />
          <path d="M196796.08,143682.68l0,-600" />
          <path d="M196796.08,143082.68l-600,0" />
          <path d="M196196.08,143082.68l0,600" />
          <path d="M196796.08,143082.68l0,-1.58" />
          <path d="M196796.08,143081.1l-300,0" />
          <path d="M198096.08,143081.1l-100,0" />
          <path d="M197996.08,143081.1l0,360" />
          <path d="M197996.08,143441.1l100,0" />
          <path d="M148596.08,137081.1l400,0" />
          <path d="M148996.08,137081.1l0,-650" />
          <path d="M148996.08,136431.1l-400,0" />
          <path d="M148596.08,136431.1l0,650" />
          <path d="M148596.08,143681.1l200,0" />
          <path d="M148796.08,143681.1l0,-650" />
          <path d="M148796.08,143031.1l-200,0" />
          <path d="M148596.08,143031.1l0,650" />
          <path d="M148596.08,134931.1l400,0" />
          <path d="M148996.08,134931.1l0,-650" />
          <path d="M148996.08,134281.1l-400,0" />
          <path d="M148596.08,134281.1l0,650" />
          <path d="M148596.08,128531.1l200,0" />
          <path d="M148796.08,128531.1l0,-650" />
          <path d="M148796.08,127881.1l-200,0" />
          <path d="M148596.08,127881.1l0,650" />
          <use xlink:href="#$DorLib2D$00000114" x="156.896" y="136.881" transform="scale(1000,1000) scale(1,-1) translate(0,-273.76)" stroke-width="0.0001%">.<g class="blkclass0"><text transform="translate(-470,-246.25)" font-size="386.75">M1027</text></g></use>
          <path d="M166016.08,128481.1l0,5880" />
          <path d="M165776.08,128481.1l0,5880" />
          <path d="M165896.08,134601.1l1300,0" />
          <path d="M167196.08,134601.1l0,-240" />
          <path d="M167196.08,134361.1l-1180,0" />
          <path d="M169376.08,134361.1l-1180,0" />
          <path d="M168196.08,134361.1l0,240" />
          <path d="M168196.08,134601.1l1300,0" />
          <use xlink:href="#$DorLib2D$00000114" x="164.096" y="134.481" transform="scale(1000,1000) scale(-1,1) translate(-328.19,0)" stroke-width="0.0001%">.<g class="blkclass0"><text transform="translate(-470,543.75)" font-size="386.75">M1027</text></g></use>
          <use xlink:href="#$DorLib2D$00000114" x="189.296" y="134.481" transform="scale(1000,1000) scale(-1,1) translate(-378.59,0)" stroke-width="0.0001%">.<g class="blkclass0"><text transform="translate(-470,543.75)" font-size="386.75">M1027</text></g></use>
          <use xlink:href="#$DorLib2D$00000114" x="171.296" y="134.481" transform="scale(1000,1000) scale(-1,1) translate(-342.59,0)" stroke-width="0.0001%">.<g class="blkclass0"><text transform="translate(-470,543.75)" font-size="386.75">M1027</text></g></use>
          <use xlink:href="#$DorLib2D$00000114" x="178.496" y="134.481" transform="scale(1000,1000)" stroke-width="0.0001%">.<g class="blkclass0"><text transform="translate(-470,543.75)" font-size="386.75">M1027</text></g></use>
          <use xlink:href="#$lvtry$00000222" x="162176.08" y="132031.1" transform="rotate(-270,162176.08,132031.1)">.</use>
          <use xlink:href="#$lvtry$00000222" x="162176.08" y="131331.1" transform="rotate(-270,162176.08,131331.1)">.</use>
          <use xlink:href="#$lvtry$00000222" x="162176.08" y="130631.1" transform="rotate(-270,162176.08,130631.1)">.</use>
          <use xlink:href="#$lvtry$00000222" x="162176.08" y="129931.1" transform="rotate(-270,162176.08,129931.1)">.</use>
          <path d="M162176.08,131693.6l-400,0" />
          <path d="M162176.08,131668.6l-400,0" />
          <path d="M162176.08,131693.6l0,-25" />
          <path d="M161776.08,131693.6l0,-25" />
          <path d="M162176.08,130993.6l-400,0" />
          <path d="M162176.08,130968.6l-400,0" />
          <path d="M162176.08,130993.6l0,-25" />
          <path d="M161776.08,130993.6l0,-25" />
          <path d="M162176.08,130293.6l-400,0" />
          <path d="M162176.08,130268.6l-400,0" />
          <path d="M162176.08,130293.6l0,-25" />
          <path d="M161776.08,130293.6l0,-25" />
          <path d="M162176.08,129593.6l-400,0" />
          <path d="M162176.08,129568.6l-400,0" />
          <path d="M162176.08,129593.6l0,-25" />
          <path d="M161776.08,129593.6l0,-25" />
          <use xlink:href="#$DorLib2D$00000116" x="100.984" y="90.454" transform="scale(1500,1500) rotate(-90,100.98,90.45)" stroke-width="0.0001%">.<g class="blkclass0"><text transform="rotate(-90 603.75,470) translate(603.75,470)" font-size="386.75">M1527</text></g></use>
        </g>
      </g>
      <g id="assets" fill="none">
        <g id="rm-assets" class="rm-asset">
          <path id="15007;F03;311" d="M165776.08,137001.1l-6960,0l0,6080l6960,0z" />
          <path id="15007;F03;319" d="M187616.08,128481.1l6960,0l0,5880l-6960,0z" />
          <path id="15007;F03;318" d="M180416.08,128481.1l6960,0l0,5880l-6960,0z" />
          <path id="15007;F03;317" d="M175077.05,134361.1l5099.03,0l0,-5880l-5099.03,0z" />
          <path id="15007;F03;316" d="M174715.11,134361.1l-5099.03,0l0,-5880l5099.03,0z" />
          <path id="15007;F03;310" d="M169376.08,137001.1l-3360,0l0,6080l3360,0z" />
          <path id="15007;F03;308" d="M176576.08,137001.1l-3360,0l0,6080l3360,0z" />
          <path id="15007;F03;302" d="M194816.08,137001.1l3360,0l0,6080l-3360,0z" />
          <path id="15007;F03;306" d="M180416.08,137001.1l3360,0l0,6080l-3360,0z" />
          <path id="15007;F03;303" d="M191216.08,137001.1l3360,0l0,6080l-3360,0z" />
          <path id="15007;F03;304" d="M187616.08,137001.1l3360,0l0,6080l-3360,0z" />
          <path id="15007;F03;312" d="M155216.08,137001.1l3360,0l0,6080l-3360,0z" />
          <path id="15007;F03;305" d="M184016.08,137001.1l3360,0l0,6080l-3360,0z" />
          <path id="15007;F03;307" d="M176816.08,137001.1l3360,0l0,6080l-3360,0z" />
          <path id="15007;F03;309" d="M172976.08,137001.1l-3360,0l0,6080l3360,0z" />
          <path id="15007;F03;313" d="M154976.08,137001.1l-3320,0l0,6080l3320,0z" />
          <path id="15007;F03;301" d="M198416.08,137001.1l3320,0l0,6080l-3320,0z" />
          <path id="15007;F03;320" d="M194816.08,128481.1l3360,0l0,5880l-3360,0z" />
          <path id="15007;F03;314" d="M162416.08,128481.1l3360,0l0,5880l-3360,0z" />
          <path id="15007;F03;315" d="M166016.08,128481.1l3360,0l0,5880l-3360,0z" />
        </g>
      </g>
    </g>
    <g id="text" font-family="Arial" font-size="438.86524822695031" font-weight="normal" text-style="normal" text-anchor="start" dominant-baseline="alphabetical" fill="#FF7F00" xml:space="preserve">
      <g id="layer-body-text">
        <g transform="translate(152361.13,133686.1)">
          <text>下</text>
        </g>
        <g transform="translate(199111.82,133686.1)">
          <text>上</text>
        </g>
        <g transform="translate(200841.13,133686.1)">
          <text>下</text>
        </g>
      </g>
    </g>
    <g id="asset-labels" font-family="Arial" font-weight="bold" font-size="38.1em" text-anchor="middle">
      <g id="rm-labels">
        <g id="l-rm-15007;F03;311" transform="translate(162296.08,140041.1)">
          <text>311</text>
        </g>
        <g id="l-rm-15007;F03;319" transform="translate(191096.08,131421.1)">
          <text>319</text>
        </g>
        <g id="l-rm-15007;F03;318" transform="translate(183896.08,131421.1)">
          <text>318</text>
        </g>
        <g id="l-rm-15007;F03;317" transform="translate(177626.56,131421.1)">
          <text>317</text>
        </g>
        <g id="l-rm-15007;F03;316" transform="translate(172165.59,131421.1)">
          <text>316</text>
        </g>
        <g id="l-rm-15007;F03;310" transform="translate(167696.08,140041.1)">
          <text>310</text>
        </g>
        <g id="l-rm-15007;F03;308" transform="translate(174896.08,140041.1)">
          <text>308</text>
        </g>
        <g id="l-rm-15007;F03;302" transform="translate(196496.08,140041.1)">
          <text>302</text>
        </g>
        <g id="l-rm-15007;F03;306" transform="translate(182096.08,140041.1)">
          <text>306</text>
        </g>
        <g id="l-rm-15007;F03;303" transform="translate(192896.08,140041.1)">
          <text>303</text>
        </g>
        <g id="l-rm-15007;F03;304" transform="translate(189296.08,140041.1)">
          <text>304</text>
        </g>
        <g id="l-rm-15007;F03;312" transform="translate(156896.08,140041.1)">
          <text>312</text>
        </g>
        <g id="l-rm-15007;F03;305" transform="translate(185696.08,140041.1)">
          <text>305</text>
        </g>
        <g id="l-rm-15007;F03;307" transform="translate(178496.08,140041.1)">
          <text>307</text>
        </g>
        <g id="l-rm-15007;F03;309" transform="translate(171296.08,140041.1)">
          <text>309</text>
        </g>
        <g id="l-rm-15007;F03;313" transform="translate(153316.08,140041.1)">
          <text>313</text>
        </g>
        <g id="l-rm-15007;F03;301" transform="translate(200076.08,140041.1)">
          <text>301</text>
        </g>
        <g id="l-rm-15007;F03;320" transform="translate(196496.08,131421.1)">
          <text>320</text>
        </g>
        <g id="l-rm-15007;F03;314" transform="translate(164096.08,131421.1)">
          <text>314</text>
        </g>
        <g id="l-rm-15007;F03;315" transform="translate(167696.08,131421.1)">
          <text>315</text>
        </g>
      </g>
    </g>
  </g>
</svg>