<svg version="1.1" xmlns="http://www.w3.org/2000/svg" xmlns:xlink="http://www.w3.org/1999/xlink" viewBox="1176.66 -3569.43 77338 33581">
  <style>.i0 { stroke:#000000;   } .body { stroke:#ff7f00;   } .rm { stroke:#00ffff;   } .gros { stroke:#ff00ff;   } .axis_text { stroke:#000000;   } .pub_wall { stroke:#c0c0c0;   } .pub_hatch { stroke:#808080;   } .rm-asset { stroke:#0000ff;   fill:#EEEEEE; fill-opacity:1;} .rmtc-asset { stroke:#0000ff;   } .rmtc { stroke:#00ffff;   } .rm-assettxt { stroke:#0000ff;   } .rmtc-assettxt { stroke:#0000ff;   } .cnc-0 { stroke:#ff7f00;  stroke-dasharray:0; } .cnc-1 { stroke:#ff7f00;  stroke-dasharray:0; } .blkclass0 { stroke:#ff7f00;  stroke-width:0.02;  fill:#ff7f00; fill-opacity:1; font-family:Arial; font-size:580.125; font-weight:normal; text-style:normal; text-anchor:start;}</style>
  <view id="defaultView" viewBox="1176.66 -3569.43 77338 33581" />
  <defs>
    <symbol id="_FZHK_1550x600" overflow="visible" class="i0">
      <path d="M-775,300l1550,0l0,-600l-1550,0z" />
    </symbol>
    <symbol id="$DorLib2D$00000003" overflow="visible" class="i0">
      <path d="M0.47,0l0,-0.97" />
      <path d="M-0.5,0a0.97,0.97 0 0,1 0.97,-0.97" />
    </symbol>
    <symbol id="$TCHSYS$WIN2D_1600x370" overflow="visible" class="i0">
      <path d="M-800,-185l1600,0" />
      <path d="M-800,185l1600,0" />
      <path d="M800,61.67l-1600,0" />
      <path d="M800,-61.67l-1600,0" />
      <path d="M-800,-185l0,370" />
      <path d="M800,-185l0,370" />
    </symbol>
    <symbol id="$TCHSYS$WIN2D_1200x370" overflow="visible" class="i0">
      <path d="M-600,-185l1200,0" />
      <path d="M-600,185l1200,0" />
      <path d="M600,61.67l-1200,0" />
      <path d="M600,-61.67l-1200,0" />
      <path d="M-600,-185l0,370" />
      <path d="M600,-185l0,370" />
    </symbol>
    <symbol id="$DorLib2D$00000130_3200x500" overflow="visible" class="i0">
      <path d="M0,-256.33l0,-73.74" />
      <path d="M1706.67,-330.07l-1706.67,0" />
      <path d="M1706.67,-256.33l-1706.67,0" />
      <path d="M-1706.67,-330.07l0,73.74" />
      <path d="M1706.67,-330.07l0,73.74" />
      <path d="M-1232.99,-134.69l786.4,0" />
      <path d="M1232.99,-134.69l-786.4,0" />
      <path d="M0,-256.33l-1706.67,0" />
      <path d="M0,-330.07l-1706.67,0" />
      <path d="M-959.73,-107.22l0,-27.48" />
      <path d="M-1232.99,-134.69l273.26,27.48" />
      <path d="M959.73,-107.22l0,-27.48" />
      <path d="M1232.99,-134.69l-273.26,27.48" />
    </symbol>
    <symbol id="$DorLib2D$00000004" overflow="visible" class="i0">
      <path d="M-0.48,0l0,-0.48" />
      <path d="M-0.48,-0.48a0.49,0.49 0 0,1 0.49,0.48" />
      <path d="M-0.01,0a0.49,0.49 0 0,1 0.49,-0.48" />
      <path d="M0.48,0l0,-0.48" />
    </symbol>
    <symbol id="$TCHSYS$WIN2D_1700x370" overflow="visible" class="i0">
      <path d="M-850,-185l1700,0" />
      <path d="M-850,185l1700,0" />
      <path d="M850,61.67l-1700,0" />
      <path d="M850,-61.67l-1700,0" />
      <path d="M-850,-185l0,370" />
      <path d="M850,-185l0,370" />
    </symbol>
    <symbol id="$TCHSYS$WIN2D_4900x200" overflow="visible" class="i0">
      <path d="M-2450,-100l4900,0" />
      <path d="M-2450,100l4900,0" />
      <path d="M2450,33.33l-4900,0" />
      <path d="M2450,-33.33l-4900,0" />
      <path d="M-2450,-100l0,200" />
      <path d="M2450,-100l0,200" />
    </symbol>
    <symbol id="$TCHSYS$WIN2D_3500x200" overflow="visible" class="i0">
      <path d="M-1750,-100l3500,0" />
      <path d="M-1750,100l3500,0" />
      <path d="M1750,33.33l-3500,0" />
      <path d="M1750,-33.33l-3500,0" />
      <path d="M-1750,-100l0,200" />
      <path d="M1750,-100l0,200" />
    </symbol>
    <symbol id="$TCHSYS$WIN2D_1800x370" overflow="visible" class="i0">
      <path d="M-900,-185l1800,0" />
      <path d="M-900,185l1800,0" />
      <path d="M900,61.67l-1800,0" />
      <path d="M900,-61.67l-1800,0" />
      <path d="M-900,-185l0,370" />
      <path d="M900,-185l0,370" />
    </symbol>
    <symbol id="$TCHSYS$WIN2D_3400x200" overflow="visible" class="i0">
      <path d="M-1700,-100l3400,0" />
      <path d="M-1700,100l3400,0" />
      <path d="M1700,33.33l-3400,0" />
      <path d="M1700,-33.33l-3400,0" />
      <path d="M-1700,-100l0,200" />
      <path d="M1700,-100l0,200" />
    </symbol>
    <symbol id="$TCHSYS$WIN2D_2000x200" overflow="visible" class="i0">
      <path d="M-1000,-100l2000,0" />
      <path d="M-1000,100l2000,0" />
      <path d="M1000,33.33l-2000,0" />
      <path d="M1000,-33.33l-2000,0" />
      <path d="M-1000,-100l0,200" />
      <path d="M1000,-100l0,200" />
    </symbol>
    <symbol id="$TCHSYS$WIN2D_1600x500" overflow="visible" class="i0">
      <path d="M-800,-250l1600,0" />
      <path d="M-800,250l1600,0" />
      <path d="M800,83.33l-1600,0" />
      <path d="M800,-83.33l-1600,0" />
      <path d="M-800,-250l0,500" />
      <path d="M800,-250l0,500" />
    </symbol>
  </defs>
  <g id="viewer">
    <g id="mirror" transform="scale(1, 1)" stroke-width="0.09%">
      <g id="background" fill="none">
        <g id="layer-GROS-fills" class="gros">
          <path d="M5615,-3567.08l7585,0l0,800l5800,0l0,-315l1600,0l0,315l11600,0l0,-315l1600,0l0,315l11900,0l0,-315l1600,0l0,315l11600,0l0,-315l1600,0l0,315l11600,0l0,-315l1600,0l0,315l3585,0l0,14470l-1800,0l0,15000l-2702.5,0l-267.5,0l0,315l-1600,0l0,-315l-6800,0l0,315l-1600,0l0,-315l-6815,0l0,315l-1600,0l0,-315l-7100,0l0,315l-1600,0l0,-315l-6800,0l0,315l-1600,0l0,-315l-6800,0l0,315l-1600,0l0,-315l-6800,0l0,315l-9200,0l0,475l-5185,0l0,-7190l-6237.14,0l9137.14,-7800l0,-2100l-4700,0l0,-13970z" />
        </g>
        <g id="layer-RM-fills" class="rm">
          <path d="M6785,-597.08l1815,0l0,3015l-1815,0z" />
          <path d="M8800,-597.08l85,0l0,-1670l4130,0l0,4685l-4215,0l0,-3015z" />
          <path d="M13385,-2267.08l5615,0l0,185l615,0l0,8815l-6230,0z" />
          <path d="M6785,2617.92l6230,0l0,6530l-4130,-63l0,-1652l-2100,0z" />
          <path d="M19985,-2082.08l615,0l0,-315l5615,0l0,9830l-2900,0l0,1885l-3330,0l0,-650l-370,0l0,480l-6230,0l0,-2045l6230,0l0,365l370,0l0,-9550z" />
          <path d="M23685,7802.92l2530,0l0,1515l-2530,0l0,-1515z" />
          <path d="M26585,-2397.08l5615,0l0,315l615,0l0,11400l-6230,0l0,-11715z" />
          <path d="M33185,-2082.08l615,0l0,-315l5615,0l0,11715l-6230,0l0,-11400z" />
          <path d="M39785,-2397.08l5915,0l0,315l315,0l0,11400l-6230,0l0,-11715z" />
          <path d="M73085,-2082.08l615,0l0,-315l3215,0l0,2515l-3830,0z" />
          <path d="M73085,2117.92l0,-1800l3830,0l0,1800z" />
          <path d="M69700,2317.92l3015,0l0,3400l-3015,0z" />
          <path d="M69700,5917.92l3015,0l0,3400l-3015,0z" />
          <path d="M27900,11617.92l5600,0l0,5500l-5600,0z" />
          <path d="M33870,11617.92l3830,0l0,5500l-3830,0z" />
          <path d="M40915,11787.92l5015,0l0,5160l-5015,0z" />
          <path d="M46770,11617.92l3830,0l0,5500l-3830,0z" />
        </g>
        <g id="layer-body-fills" class="body">
          <path d="M11536.5,27017.92l0,2993.5l2127,0l0,-793.5l6273,0l0,793.5l2127,0l0,-2993.5z" />
        </g>
        <g id="layer-body" class="cnc-0">
          <path d="M8215,26702.92l-800,790" class="body" />
          <path d="M5615,-3567.08l800,800" class="body" />
          <path d="M10315,12502.92l800,368.92" class="body" />
          <path d="M10315,10402.92l800,-800" class="body" />
          <path d="M6415,9602.92l-800,800" class="body" />
          <path d="M11536.5,30011.42l0,-1570.5" class="body" />
          <use xlink:href="#_FZHK_1550x600" x="12600" y="29517.92">.</use>
          <use xlink:href="#_FZHK_1550x600" x="21000" y="29517.92">.</use>
          <path d="M8515,-2767.08l4685,0" />
          <path d="M8885,-2267.08l4130,0" />
          <path d="M33800,-2397.08l800,0" />
          <path d="M34600,-2397.08l0,-370" />
          <path d="M34600,-2767.08l-800,0" />
          <path d="M39600,-2767.08l-700,0" />
          <path d="M38900,-2767.08l0,370" />
          <path d="M38900,-2397.08l515,0" />
          <path d="M36200,-2397.08l1100,0" />
          <path d="M37300,-2397.08l0,-370" />
          <path d="M37300,-2767.08l-1100,0" />
          <path d="M36200,-2767.08l0,370" />
          <path d="M47300,-2397.08l800,0" />
          <path d="M48100,-2397.08l0,-370" />
          <path d="M48100,-2767.08l-800,0" />
          <path d="M53100,-2767.08l-700,0" />
          <path d="M52400,-2767.08l0,370" />
          <path d="M52400,-2397.08l515,0" />
          <path d="M49700,-2397.08l1100,0" />
          <path d="M50800,-2397.08l0,-370" />
          <path d="M50800,-2767.08l-1100,0" />
          <path d="M49700,-2767.08l0,370" />
          <path d="M60500,-2397.08l800,0" />
          <path d="M61300,-2397.08l0,-370" />
          <path d="M61300,-2767.08l-800,0" />
          <path d="M66300,-2767.08l-700,0" />
          <path d="M65600,-2767.08l0,370" />
          <path d="M65600,-2397.08l515,0" />
          <path d="M62900,-2397.08l1100,0" />
          <path d="M64000,-2397.08l0,-370" />
          <path d="M64000,-2767.08l-1100,0" />
          <path d="M62900,-2767.08l0,370" />
          <path d="M73700,-2767.08l3585,0" />
          <path d="M73700,-2397.08l3215,0" />
          <path d="M76915,-2397.08l0,414.98" />
          <path d="M76915,-1982.1l370,0" />
          <path d="M77285,-1982.1l0,-784.98" />
          <path d="M77285,217.92l0,-1300.02" />
          <path d="M77285,-1082.1l-370,0" />
          <path d="M76915,-1082.1l0,1200.02" />
          <path d="M77285,11702.92l-1800,0" />
          <path d="M76915,11332.92l-1800,0" />
          <path d="M75485,11702.92l0,-100" />
          <path d="M75115,11332.92l0,85" />
          <path d="M75115,26332.92l-415,0" />
          <path d="M74700,26332.92l0,370" />
          <path d="M74700,26702.92l785,0" />
          <path d="M72515,26702.92l585,0" />
          <path d="M73100,26702.92l0,-370" />
          <path d="M73100,26332.92l-585,0" />
          <path d="M54100,26332.92l-900,0" />
          <path d="M53200,26332.92l0,370" />
          <path d="M53200,26702.92l900,0" />
          <path d="M50700,26702.92l900,0" />
          <path d="M51600,26702.92l0,-370" />
          <path d="M51600,26332.92l-715,0" />
          <path d="M37000,26332.92l-900,0" />
          <path d="M36100,26332.92l0,370" />
          <path d="M36100,26702.92l900,0" />
          <path d="M33600,26702.92l900,0" />
          <path d="M34500,26702.92l0,-370" />
          <path d="M34500,26332.92l-715,0" />
          <path d="M28600,26332.92l-900,0" />
          <path d="M27700,26332.92l0,370" />
          <path d="M27700,26702.92l900,0" />
          <path d="M25200,26702.92l900,0" />
          <path d="M26100,26702.92l0,-370" />
          <path d="M26100,26332.92l-715,0" />
          <path d="M20815,26017.92l0,-1950" />
          <path d="M21185,26017.92l0,-2200" />
          <path d="M19615,9517.92l-6230,0" />
          <path d="M19615,9147.92l-6230,0" />
          <path d="M19615,6732.92l-815,0" />
          <path d="M18800,6732.92l0,370" />
          <path d="M18800,7102.92l815,0" />
          <path d="M13385,7102.92l815,0" />
          <path d="M14200,7102.92l0,-370" />
          <path d="M14200,6732.92l-815,0" />
          <path d="M17800,6732.92l-2600,0" />
          <path d="M15200,6732.92l0,370" />
          <path d="M15200,7102.92l2600,0" />
          <path d="M17800,7102.92l0,-370" />
          <path d="M8885,7432.92l-390,0" />
          <path d="M8495,7432.92l0,370" />
          <path d="M8495,7802.92l20,0" />
          <path d="M6415,7802.92l380,0" />
          <path d="M6795,7802.92l0,-370" />
          <path d="M6795,7432.92l-10,0" />
          <path d="M6415,7802.92l0,-5285" />
          <path d="M6785,7432.92l0,-4815" />
          <path d="M6785,2617.92l315,0" />
          <path d="M7100,2617.92l0,-200" />
          <path d="M7100,2417.92l-315,0" />
          <path d="M8600,2417.92l-500,0" />
          <path d="M8100,2417.92l0,200" />
          <path d="M8100,2617.92l600,0" />
          <path d="M6785,-597.08l1.5,0" />
          <path d="M6786.5,-597.08l0,-370" />
          <path d="M6786.5,-967.08l-371.5,0" />
          <path d="M8515,-967.08l-28.5,0" />
          <path d="M8486.5,-967.08l0,370" />
          <path d="M8486.5,-597.08l28.5,0" />
          <path d="M8885,-967.08l0,-5.5" />
          <path d="M8885,-972.58l-370,0" />
          <path d="M8515,-972.58l0,5.5" />
          <path d="M8515,-2767.08l0,594.5" />
          <path d="M8515,-2172.58l370,0" />
          <path d="M8885,-2172.58l0,-94.5" />
          <path d="M13015,9517.92l-4500,0" />
          <path d="M13015,9147.92l-4130,0" />
          <path d="M75115,19217.92l-2715,0" />
          <path d="M72400,19217.92l0,370" />
          <path d="M72400,19587.92l2715,0" />
          <path d="M71285,19587.92l115,0" />
          <path d="M71400,19587.92l0,-370" />
          <path d="M71400,19217.92l-300,0" />
          <path d="M70915,26332.92l-815,0" />
          <path d="M70100,26332.92l0,370" />
          <path d="M70100,26702.92l815,0" />
          <path d="M66900,26702.92l1600,0" />
          <path d="M68500,26702.92l0,-370" />
          <path d="M68500,26332.92l-1415,0" />
          <path d="M71100,19217.92l-300,0" />
          <path d="M70800,19217.92l0,370" />
          <path d="M70800,19587.92l115,0" />
          <path d="M67085,19587.92l2715,0" />
          <path d="M69800,19587.92l0,-370" />
          <path d="M69800,19217.92l-2900,0" />
          <path d="M66715,26332.92l-115,0" />
          <path d="M66600,26332.92l0,370" />
          <path d="M66600,26702.92l300,0" />
          <path d="M64115,26702.92l885,0" />
          <path d="M65000,26702.92l0,-370" />
          <path d="M65000,26332.92l-885,0" />
          <path d="M66900,19217.92l-300,0" />
          <path d="M66600,19217.92l0,370" />
          <path d="M66600,19587.92l115,0" />
          <path d="M62885,19587.92l2715,0" />
          <path d="M65600,19587.92l0,-370" />
          <path d="M65600,19217.92l-2900,0" />
          <path d="M62515,26332.92l-815,0" />
          <path d="M61700,26332.92l0,370" />
          <path d="M61700,26702.92l815,0" />
          <path d="M59100,26702.92l1000,0" />
          <path d="M60100,26702.92l0,-370" />
          <path d="M60100,26332.92l-815,0" />
          <path d="M62700,19217.92l-300,0" />
          <path d="M62400,19217.92l0,370" />
          <path d="M62400,19587.92l115,0" />
          <path d="M59285,19587.92l2115,0" />
          <path d="M61400,19587.92l0,-370" />
          <path d="M61400,19217.92l-2300,0" />
          <path d="M58915,26332.92l-715,0" />
          <path d="M58200,26332.92l0,370" />
          <path d="M58200,26702.92l900,0" />
          <path d="M55700,26702.92l900,0" />
          <path d="M56600,26702.92l0,-370" />
          <path d="M56600,26332.92l-900,0" />
          <path d="M59100,19217.92l-300,0" />
          <path d="M58800,19217.92l0,370" />
          <path d="M58800,19587.92l115,0" />
          <path d="M55085,19587.92l2715,0" />
          <path d="M57800,19587.92l0,-370" />
          <path d="M57800,19217.92l-2900,0" />
          <path d="M54900,19217.92l-300,0" />
          <path d="M54600,19217.92l0,370" />
          <path d="M54600,19587.92l115,0" />
          <path d="M50885,19587.92l2715,0" />
          <path d="M53600,19587.92l0,-370" />
          <path d="M53600,19217.92l-2715,0" />
          <path d="M50515,26332.92l-1015,0" />
          <path d="M49500,26332.92l0,370" />
          <path d="M49500,26702.92l1200,0" />
          <path d="M47000,26702.92l900,0" />
          <path d="M47900,26702.92l0,-370" />
          <path d="M47900,26332.92l-900,0" />
          <path d="M50885,19217.92l-485,0" />
          <path d="M50400,19217.92l0,200" />
          <path d="M50400,19417.92l115,0" />
          <path d="M46685,19417.92l2715,0" />
          <path d="M49400,19417.92l0,-200" />
          <path d="M49400,19217.92l-3085,0" />
          <path d="M50885,19217.92l0,0" />
          <path d="M50515,19417.92l0,-15" />
          <path d="M46685,19417.92l0,6600" />
          <path d="M46315,19217.92l0,6800" />
          <path d="M46385,19217.92l-485,0" />
          <path d="M45900,19217.92l0,200" />
          <path d="M45900,19417.92l115,0" />
          <path d="M42185,19417.92l2715,0" />
          <path d="M44900,19417.92l0,-200" />
          <path d="M44900,19217.92l-2900,0" />
          <path d="M46385,19217.92l0,6800" />
          <path d="M46015,19417.92l0,6600" />
          <path d="M41815,26332.92l-715,0" />
          <path d="M41100,26332.92l0,370" />
          <path d="M41100,26702.92l900,0" />
          <path d="M38600,26702.92l900,0" />
          <path d="M39500,26702.92l0,-370" />
          <path d="M39500,26332.92l-900,0" />
          <path d="M42000,19217.92l-300,0" />
          <path d="M41700,19217.92l0,200" />
          <path d="M41700,19417.92l115,0" />
          <path d="M37985,19417.92l2715,0" />
          <path d="M40700,19417.92l0,-200" />
          <path d="M40700,19217.92l-2900,0" />
          <path d="M42185,19417.92l0,6915" />
          <path d="M41815,19417.92l0,6915" />
          <path d="M37800,19217.92l-300,0" />
          <path d="M37500,19217.92l0,200" />
          <path d="M37500,19417.92l115,0" />
          <path d="M33785,19417.92l2715,0" />
          <path d="M36500,19417.92l0,-200" />
          <path d="M36500,19217.92l-2900,0" />
          <path d="M37985,19417.92l0,6600" />
          <path d="M37615,19417.92l0,6600" />
          <path d="M33415,26332.92l-715,0" />
          <path d="M32700,26332.92l0,370" />
          <path d="M32700,26702.92l900,0" />
          <path d="M30200,26702.92l900,0" />
          <path d="M31100,26702.92l0,-370" />
          <path d="M31100,26332.92l-900,0" />
          <path d="M33600,19217.92l-300,0" />
          <path d="M33300,19217.92l0,200" />
          <path d="M33300,19417.92l115,0" />
          <path d="M29585,19417.92l2715,0" />
          <path d="M32300,19417.92l0,-200" />
          <path d="M32300,19217.92l-2900,0" />
          <path d="M33785,19417.92l0,6915" />
          <path d="M33415,19417.92l0,6915" />
          <path d="M29400,19217.92l-300,0" />
          <path d="M29100,19217.92l0,200" />
          <path d="M29100,19417.92l115,0" />
          <path d="M25385,19417.92l2715,0" />
          <path d="M28100,19417.92l0,-200" />
          <path d="M28100,19217.92l-2900,0" />
          <path d="M29585,19417.92l0,6600" />
          <path d="M29215,19417.92l0,6600" />
          <path d="M25015,26332.92l-715,0" />
          <path d="M24300,26332.92l0,370" />
          <path d="M24300,26702.92l900,0" />
          <path d="M21800,26702.92l900,0" />
          <path d="M22700,26702.92l0,-370" />
          <path d="M22700,26332.92l-900,0" />
          <path d="M25200,19217.92l-300,0" />
          <path d="M24900,19217.92l0,200" />
          <path d="M24900,19417.92l115,0" />
          <path d="M21185,19417.92l2715,0" />
          <path d="M23900,19417.92l0,-200" />
          <path d="M23900,19217.92l-2900,0" />
          <path d="M25385,19417.92l0,6915" />
          <path d="M25015,19417.92l0,6915" />
          <path d="M19985,19217.92l0,-299.5" />
          <path d="M19985,18918.42l-370,0" />
          <path d="M19615,18918.42l0,299.5" />
          <path d="M19615,17117.92l0,700.5" />
          <path d="M19615,17818.42l370,0" />
          <path d="M19985,17818.42l0,-500.5" />
          <path d="M75115,11787.92l-11715.01,0" />
          <path d="M75115,11417.92l-11914.99,0" />
          <path d="M66485,-2397.08l515,0" />
          <path d="M67000,-2397.08l0,-370" />
          <path d="M67000,-2767.08l-700,0" />
          <path d="M72100,-2767.08l-800,0" />
          <path d="M71300,-2767.08l0,370" />
          <path d="M71300,-2397.08l800,0" />
          <path d="M68600,-2397.08l1100,0" />
          <path d="M69700,-2397.08l0,-370" />
          <path d="M69700,-2767.08l-1100,0" />
          <path d="M68600,-2767.08l0,370" />
          <path d="M53285,-2397.08l515,0" />
          <path d="M53800,-2397.08l0,-370" />
          <path d="M53800,-2767.08l-700,0" />
          <path d="M58900,-2767.08l-800,0" />
          <path d="M58100,-2767.08l0,370" />
          <path d="M58100,-2397.08l800,0" />
          <path d="M55400,-2397.08l1100,0" />
          <path d="M56500,-2397.08l0,-370" />
          <path d="M56500,-2767.08l-1100,0" />
          <path d="M55400,-2767.08l0,370" />
          <path d="M39785,-2397.08l815,0" />
          <path d="M40600,-2397.08l0,-370" />
          <path d="M40600,-2767.08l-1000,0" />
          <path d="M45700,-2767.08l-800,0" />
          <path d="M44900,-2767.08l0,370" />
          <path d="M44900,-2397.08l800,0" />
          <path d="M42200,-2397.08l1100,0" />
          <path d="M43300,-2397.08l0,-370" />
          <path d="M43300,-2767.08l-1100,0" />
          <path d="M42200,-2767.08l0,370" />
          <path d="M26585,-2397.08l515,0" />
          <path d="M27100,-2397.08l0,-370" />
          <path d="M27100,-2767.08l-700,0" />
          <path d="M32200,-2767.08l-800,0" />
          <path d="M31400,-2767.08l0,370" />
          <path d="M31400,-2397.08l800,0" />
          <path d="M28700,-2397.08l1100,0" />
          <path d="M29800,-2397.08l0,-370" />
          <path d="M29800,-2767.08l-1100,0" />
          <path d="M28700,-2767.08l0,370" />
          <path d="M19615,9417.92l0,100" />
          <path d="M19985,9317.92l0,15" />
          <path d="M73085,-2082.08l0,2200" />
          <path d="M72715,-2082.08l0,2300" />
          <path d="M76915,2317.92l0,5400" />
          <path d="M76915,7717.92l370,0" />
          <path d="M77285,7717.92l0,-5500" />
          <path d="M77285,9417.92l0,-500" />
          <path d="M77285,8917.92l-370,0" />
          <path d="M76915,8917.92l0,400" />
          <path d="M73085,2317.92l0,3400" />
          <path d="M72715,2317.92l0,3400" />
          <path d="M69500,2117.92l0,2300" />
          <path d="M69500,4417.92l200,0" />
          <path d="M69700,4417.92l0,-2100" />
          <path d="M69700,5717.92l0,-300" />
          <path d="M69700,5417.92l-200,0" />
          <path d="M69500,5417.92l0,400" />
          <path d="M76915,2317.92l-3015,0" />
          <path d="M76915,2117.92l-3115,0" />
          <path d="M72715,2317.92l-3015,0" />
          <path d="M72715,2117.92l-3215,0" />
          <path d="M66115,9317.92l0,-11715" />
          <path d="M66485,9317.92l0,-11715" />
          <path d="M59515,9317.92l0,-11400" />
          <path d="M59885,9317.92l0,-11400" />
          <path d="M52915,9317.92l0,-11715" />
          <path d="M53285,9317.92l0,-11715" />
          <path d="M46315,9517.92l0,-11600" />
          <path d="M46685,9317.92l0,-11400" />
          <path d="M46015,9317.92l0,-11400" />
          <path d="M46385,9517.92l0,-11600" />
          <path d="M39415,9317.92l0,-11715" />
          <path d="M39785,9317.92l0,-11715" />
          <path d="M32815,9317.92l0,-11400" />
          <path d="M33185,9317.92l0,-11400" />
          <path d="M26215,9317.92l0,-1515" />
          <path d="M26585,9317.92l0,-1700" />
          <path d="M23685,9317.92l0,-100" />
          <path d="M23685,9217.92l-370,0" />
          <path d="M23315,9217.92l0,100" />
          <path d="M23315,7432.92l0,885" />
          <path d="M23315,8317.92l370,0" />
          <path d="M23685,8317.92l0,-515" />
          <path d="M76915,9517.92l0,200" />
          <path d="M76915,9717.92l370,0" />
          <path d="M77285,9717.92l0,-300" />
          <path d="M77285,11702.92l0,-485" />
          <path d="M77285,11217.92l-370,0" />
          <path d="M76915,11217.92l0,115" />
          <path d="M76915,9317.92l-1215,0" />
          <path d="M75700,9317.92l0,200" />
          <path d="M75700,9517.92l1215,0" />
          <path d="M73800,9517.92l400,0" />
          <path d="M74200,9517.92l0,-200" />
          <path d="M74200,9317.92l-300,0" />
          <path d="M72900,9517.92l-3300,0" />
          <path d="M72715,9317.92l-3015,0" />
          <path d="M69500,9317.92l-500,0" />
          <path d="M69000,9317.92l0,200" />
          <path d="M69000,9517.92l600,0" />
          <path d="M66300,9517.92l1700,0" />
          <path d="M68000,9517.92l0,-200" />
          <path d="M68000,9317.92l-1515,0" />
          <path d="M66115,9317.92l-4715,0" />
          <path d="M61400,9317.92l0,200" />
          <path d="M61400,9517.92l4900,0" />
          <path d="M59700,9517.92l700,0" />
          <path d="M60400,9517.92l0,-200" />
          <path d="M60400,9317.92l-515,0" />
          <path d="M59515,9317.92l-4715,0" />
          <path d="M54800,9317.92l0,200" />
          <path d="M54800,9517.92l4900,0" />
          <path d="M53100,9517.92l700,0" />
          <path d="M53800,9517.92l0,-200" />
          <path d="M53800,9317.92l-515,0" />
          <path d="M52915,9317.92l-4715,0" />
          <path d="M48200,9317.92l0,200" />
          <path d="M48200,9517.92l4900,0" />
          <path d="M46315,9517.92l885,0" />
          <path d="M47200,9517.92l0,-200" />
          <path d="M47200,9317.92l-515,0" />
          <path d="M46015,9317.92l-4715,0" />
          <path d="M41300,9317.92l0,200" />
          <path d="M41300,9517.92l5085,0" />
          <path d="M39600,9517.92l700,0" />
          <path d="M40300,9517.92l0,-200" />
          <path d="M40300,9317.92l-515,0" />
          <path d="M39415,9317.92l-4715,0" />
          <path d="M34700,9317.92l0,200" />
          <path d="M34700,9517.92l4900,0" />
          <path d="M33000,9517.92l700,0" />
          <path d="M33700,9517.92l0,-200" />
          <path d="M33700,9317.92l-515,0" />
          <path d="M32815,9317.92l-515,0" />
          <path d="M32300,9317.92l0,200" />
          <path d="M32300,9517.92l700,0" />
          <path d="M26400,9517.92l4900,0" />
          <path d="M31300,9517.92l0,-200" />
          <path d="M31300,9317.92l-4715,0" />
          <path d="M26400,9517.92l-2900,0" />
          <path d="M26215,9317.92l-2530,0" />
          <path d="M75115,17317.92l-11915.24,0" />
          <path d="M75115,16947.92l-11715.23,0" />
          <path d="M11800,26702.92l-3585,0" />
          <path d="M11800,26332.92l-3215,0" />
          <path d="M12785,19587.92l0,3980" />
          <path d="M12415,19587.92l0,4230" />
          <path d="M8800,-597.08l0,3015" />
          <path d="M8600,-597.08l0,3015" />
          <path d="M6415,2517.92l0,-3485" />
          <path d="M6785,2417.92l0,-3015" />
          <path d="M13385,2517.92l0,4215" />
          <path d="M13015,2617.92l0,4300" />
          <path d="M8700,2617.92l3000,0" />
          <path d="M11700,2617.92l0,-200" />
          <path d="M11700,2417.92l-2900,0" />
          <path d="M13015,2417.92l-315,0" />
          <path d="M12700,2417.92l0,200" />
          <path d="M12700,2617.92l315,0" />
          <path d="M19615,6732.92l0,-8815" />
          <path d="M19985,6917.92l0,-9000" />
          <path d="M13015,6917.92l0,500" />
          <path d="M13015,7417.92l370,0" />
          <path d="M13385,7417.92l0,-315" />
          <path d="M13385,9147.92l0,-730" />
          <path d="M13385,8417.92l-370,0" />
          <path d="M13015,8417.92l0,730" />
          <path d="M13385,-2267.08l515,0" />
          <path d="M13900,-2267.08l0,-500" />
          <path d="M13900,-2767.08l-700,0" />
          <path d="M19000,-2767.08l-800,0" />
          <path d="M18200,-2767.08l0,500" />
          <path d="M18200,-2267.08l800,0" />
          <path d="M15500,-2267.08l1100,0" />
          <path d="M16600,-2267.08l0,-500" />
          <path d="M16600,-2767.08l-1100,0" />
          <path d="M15500,-2767.08l0,500" />
          <path d="M23315,9317.92l-1315,0" />
          <path d="M22000,9317.92l0,200" />
          <path d="M22000,9517.92l1500,0" />
          <path d="M19985,9517.92l1015,0" />
          <path d="M21000,9517.92l0,-200" />
          <path d="M21000,9317.92l-1015,0" />
          <path d="M20600,-2397.08l800,0" />
          <path d="M21400,-2397.08l0,-370" />
          <path d="M21400,-2767.08l-800,0" />
          <path d="M26400,-2767.08l-700,0" />
          <path d="M25700,-2767.08l0,370" />
          <path d="M25700,-2397.08l515,0" />
          <path d="M23000,-2397.08l1100,0" />
          <path d="M24100,-2397.08l0,-370" />
          <path d="M24100,-2767.08l-1100,0" />
          <path d="M23000,-2767.08l0,370" />
          <path d="M26585,7617.92l0,-185" />
          <path d="M26585,7432.92l-370,0" />
          <path d="M26215,-2397.08l0,1815" />
          <path d="M26215,-582.08l370,0" />
          <path d="M26585,-582.08l0,-1815" />
          <path d="M26585,6232.92l0,-5615" />
          <path d="M26585,617.92l-370,0" />
          <path d="M26215,617.92l0,5615" />
          <path d="M26215,6232.92l370,0" />
          <path d="M26215,7802.92l-2530,0" />
          <path d="M26215,7432.92l-2900,0" />
          <path d="M46200,-2582.08l0,0" />
          <path d="M46500,-2582.08l0,0" />
          <path d="M46350,-2582.08l0,0" />
          <path d="M11800,27017.92l1600,0" />
          <path d="M13400,27017.92l0,-1000" />
          <path d="M13400,26017.92l-1600,0" />
          <path d="M11800,26017.92l0,1000" />
          <path d="M20200,27017.92l1600,0" />
          <path d="M21800,27017.92l0,-1000" />
          <path d="M21800,26017.92l-1600,0" />
          <path d="M20200,26017.92l0,1000" />
          <path d="M28600,27017.92l1600,0" />
          <path d="M30200,27017.92l0,-1000" />
          <path d="M30200,26017.92l-1600,0" />
          <path d="M28600,26017.92l0,1000" />
          <path d="M37000,27017.92l1600,0" />
          <path d="M38600,27017.92l0,-1000" />
          <path d="M38600,26017.92l-1600,0" />
          <path d="M37000,26017.92l0,1000" />
          <path d="M45400,27017.92l1600,0" />
          <path d="M47000,27017.92l0,-1000" />
          <path d="M47000,26017.92l-1600,0" />
          <path d="M45400,26017.92l0,1000" />
          <path d="M45400,26332.92l-900,0" />
          <path d="M44500,26332.92l0,370" />
          <path d="M44500,26702.92l900,0" />
          <path d="M42000,26702.92l900,0" />
          <path d="M42900,26702.92l0,-370" />
          <path d="M42900,26332.92l-715,0" />
          <path d="M54100,27017.92l1600,0" />
          <path d="M55700,27017.92l0,-1000" />
          <path d="M55700,26017.92l-1600,0" />
          <path d="M54100,26017.92l0,1000" />
          <path d="M62515,27017.92l1600,0" />
          <path d="M64115,27017.92l0,-1000" />
          <path d="M64115,26017.92l-1600,0" />
          <path d="M62515,26017.92l0,1000" />
          <path d="M70915,27017.92l1600,0" />
          <path d="M72515,27017.92l0,-1000" />
          <path d="M72515,26017.92l-1600,0" />
          <path d="M70915,26017.92l0,1000" />
          <path d="M19000,-2082.08l1600,0" />
          <path d="M20600,-2082.08l0,-1000" />
          <path d="M20600,-3082.08l-1600,0" />
          <path d="M19000,-3082.08l0,1000" />
          <path d="M32200,-2082.08l1600,0" />
          <path d="M33800,-2082.08l0,-1000" />
          <path d="M33800,-3082.08l-1600,0" />
          <path d="M32200,-3082.08l0,1000" />
          <path d="M45700,-2082.08l1600,0" />
          <path d="M47300,-2082.08l0,-1000" />
          <path d="M47300,-3082.08l-1600,0" />
          <path d="M45700,-3082.08l0,1000" />
          <path d="M58900,-2082.08l1600,0" />
          <path d="M60500,-2082.08l0,-1000" />
          <path d="M60500,-3082.08l-1600,0" />
          <path d="M58900,-3082.08l0,1000" />
          <path d="M72100,-2082.08l1600,0" />
          <path d="M73700,-2082.08l0,-1000" />
          <path d="M73700,-3082.08l-1600,0" />
          <path d="M72100,-3082.08l0,1000" />
          <path d="M12600,27492.92l-5185,0" />
          <path d="M11800,26702.92l-3585,0" />
          <path d="M7415,27492.92l0,-7190" />
          <path d="M8215,26702.92l0,-7200" />
          <path d="M13200,-2767.08l-6785,0" />
          <path d="M13200,-3567.08l-7585,0" />
          <path d="M13200,-2767.08l0,-800" />
          <path d="M6415,9602.92l4700,0" />
          <path d="M5615,10402.92l4700,0" />
          <path d="M5615,10402.92l0,-13970" />
          <path d="M6415,9602.92l0,-12370" />
          <path d="M11115,9602.92l0,3268.92" />
          <path d="M10315,10402.92l0,2100" />
          <path d="M7415,20302.92l-6237.14,0" />
          <path d="M8215,19502.92l-4867.83,0" />
          <path d="M1177.86,20302.92l9137.14,-7800" />
          <path d="M3347.17,19502.92l7767.83,-6631.08" />
          <path d="M19985,17818.42l-370,0" class="cnc-1" />
          <path d="M19615,18918.42l370,0" class="cnc-1" />
          <path d="M19985,10018.42l-370,0" class="cnc-1" />
          <path d="M19615,11118.42l370,0" class="cnc-1" />
          <path d="M19985,13167.92l-370,0" class="cnc-1" />
          <path d="M19615,15567.92l370,0" class="cnc-1" />
          <path d="M20815,23567.92l0,-3980" />
          <path d="M21185,23817.92l0,-4400" />
          <path d="M12415,23817.92l0,1000" />
          <path d="M12415,24817.92l370,0" />
          <path d="M12785,24817.92l0,-750" />
          <path d="M12785,26017.92l0,-200" />
          <path d="M12785,25817.92l-370,0" />
          <path d="M12415,25817.92l0,200" />
          <path d="M12785,24067.92l2415,0" />
          <path d="M15200,24067.92l0,-500" />
          <path d="M15200,23567.92l-2415,0" />
          <path d="M20815,23567.92l-2415,0" />
          <path d="M18400,23567.92l0,500" />
          <path d="M18400,24067.92l2415,0" />
          <path d="M8215,26702.92l0,-7485" />
          <path d="M8585,26332.92l0,-6745" />
          <path d="M8585,19587.92l2715,0" />
          <path d="M11300,19587.92l0,-370" />
          <path d="M11300,19217.92l-3085,0" />
          <path d="M12600,19217.92l-300,0" />
          <path d="M12300,19217.92l0,370" />
          <path d="M12300,19587.92l115,0" />
          <path d="M19985,19217.92l1015,0" />
          <path d="M19800,19587.92l1015,0" />
          <path d="M12600,19217.92l415,0" />
          <path d="M12785,19587.92l415,0" />
          <path d="M13200,19587.92l1800,0" />
          <path d="M15000,19587.92l0,-370" />
          <path d="M15000,19217.92l-1615,0" />
          <path d="M19615,19217.92l-1015,0" />
          <path d="M18600,19217.92l0,370" />
          <path d="M18600,19587.92l1200,0" />
          <path d="M75485,19402.92l0,7300" />
          <path d="M75115,19587.92l0,6745" />
          <path d="M71285,19587.92l0,6430" />
          <path d="M70915,19587.92l0,6430" />
          <path d="M67085,19587.92l0,6745" />
          <path d="M66715,19587.92l0,6745" />
          <path d="M62885,19587.92l0,6430" />
          <path d="M62515,19587.92l0,6430" />
          <path d="M59285,19587.92l0,6745" />
          <path d="M58915,19587.92l0,6745" />
          <path d="M50885,19587.92l0,6745" />
          <path d="M50515,19402.92l0,6930" />
          <path d="M55085,19587.92l0,6430" />
          <path d="M54715,19587.92l0,6430" />
          <use xlink:href="#$DorLib2D$00000003" x="24.4" y="19.318" transform="scale(1000,1000) scale(-1,1) translate(-48.8,0) rotate(-180,24.4,19.32)" stroke-width="0.0001%">.<g class="blkclass0"><text transform="translate(-1212.5,-289.38)" font-size="580.125">M1024</text></g></use>
          <use xlink:href="#$DorLib2D$00000003" x="28.6" y="19.318" transform="scale(1000,1000) scale(-1,1) translate(-57.2,0) rotate(-180,28.6,19.32)" stroke-width="0.0001%">.<g class="blkclass0"><text transform="translate(-1212.5,-289.38)" font-size="580.125">M1024</text></g></use>
          <use xlink:href="#$DorLib2D$00000003" x="32.8" y="19.318" transform="scale(1000,1000) scale(-1,1) translate(-65.6,0) rotate(-180,32.8,19.32)" stroke-width="0.0001%">.<g class="blkclass0"><text transform="translate(-1212.5,-289.38)" font-size="580.125">M1024</text></g></use>
          <use xlink:href="#$DorLib2D$00000003" x="37" y="19.318" transform="scale(1000,1000) scale(-1,1) translate(-74,0) rotate(-180,37,19.32)" stroke-width="0.0001%">.<g class="blkclass0"><text transform="translate(-712.5,-289.38)" font-size="580.125">M1024</text></g></use>
          <use xlink:href="#$DorLib2D$00000003" x="41.2" y="19.318" transform="scale(1000,1000) scale(-1,1) translate(-82.4,0) rotate(-180,41.2,19.32)" stroke-width="0.0001%">.<g class="blkclass0"><text transform="rotate(-360 -712.5,-289.38) translate(-712.5,-289.38)" font-size="580.125">M1024</text></g></use>
          <use xlink:href="#$DorLib2D$00000003" x="45.4" y="19.318" transform="scale(1000,1000) scale(-1,1) translate(-90.8,0) rotate(-180,45.4,19.32)" stroke-width="0.0001%">.<g class="blkclass0"><text transform="rotate(0 -1212.5,-289.38) translate(-1212.5,-289.38)" font-size="580.125">M1024</text></g></use>
          <use xlink:href="#$DorLib2D$00000003" x="49.9" y="19.318" transform="scale(1000,1000) scale(-1,1) translate(-99.8,0) rotate(-180,49.9,19.32)" stroke-width="0.0001%">.<g class="blkclass0"><text transform="translate(-1212.5,-204.38)" font-size="580.125">M1024</text></g></use>
          <use xlink:href="#$DorLib2D$00000003" x="54.1" y="19.403" transform="scale(1000,1000) scale(-1,1) translate(-108.2,0) rotate(-180,54.1,19.4)" stroke-width="0.0001%">.<g class="blkclass0"><text transform="translate(-712.5,-374.38)" font-size="580.125">M1024</text></g></use>
          <use xlink:href="#$DorLib2D$00000003" x="58.3" y="19.403" transform="scale(1000,1000) scale(-1,1) translate(-116.6,0) rotate(-180,58.3,19.4)" stroke-width="0.0001%">.<g class="blkclass0"><text transform="translate(-712.5,-374.38)" font-size="580.125">M1024</text></g></use>
          <use xlink:href="#$DorLib2D$00000003" x="61.9" y="19.403" transform="scale(1000,1000) scale(-1,1) translate(-123.8,0) rotate(-180,61.9,19.4)" stroke-width="0.0001%">.<g class="blkclass0"><text transform="translate(-1212.5,-289.38)" font-size="580.125">M1024</text></g></use>
          <use xlink:href="#$DorLib2D$00000003" x="66.1" y="19.403" transform="scale(1000,1000) scale(-1,1) translate(-132.2,0) rotate(-180,66.1,19.4)" stroke-width="0.0001%">.<g class="blkclass0"><text transform="translate(-712.5,-289.38)" font-size="580.125">M1024</text></g></use>
          <use xlink:href="#$DorLib2D$00000003" x="70.3" y="19.403" transform="scale(1000,1000) scale(-1,1) translate(-140.6,0) rotate(-180,70.3,19.4)" stroke-width="0.0001%">.<g class="blkclass0"><text transform="translate(-712.5,-289.38)" font-size="580.125">M1024</text></g></use>
          <use xlink:href="#$DorLib2D$00000003" x="71.9" y="19.403" transform="scale(1000,1000) rotate(-180,71.9,19.4)" stroke-width="0.0001%">.<g class="blkclass0"><text transform="translate(-712.5,-374.38)" font-size="580.125">M1024</text></g></use>
          <use xlink:href="#$TCHSYS$WIN2D_1600x370" x="23500" y="26517.92" transform="scale(1,-1) translate(0,-53035.84) rotate(-180,23500,26517.92)">.<g class="blkclass0"><text transform="rotate(0 -690,820.63) translate(-690,820.63)" font-size="580.125">C1624</text></g></use>
          <use xlink:href="#$TCHSYS$WIN2D_1600x370" x="26900" y="26517.92" transform="scale(1,-1) translate(0,-53035.84) rotate(-180,26900,26517.92)">.<g class="blkclass0"><text transform="rotate(-360 -690,820.62) translate(-690,820.62)" font-size="580.125">C1624</text></g></use>
          <use xlink:href="#$TCHSYS$WIN2D_1600x370" x="31900" y="26517.92" transform="scale(1,-1) translate(0,-53035.84) rotate(-180,31900,26517.92)">.<g class="blkclass0"><text transform="translate(-690,820.63)" font-size="580.125">C1624</text></g></use>
          <use xlink:href="#$TCHSYS$WIN2D_1600x370" x="35300" y="26517.92" transform="scale(1,-1) translate(0,-53035.84) rotate(-180,35300,26517.92)">.<g class="blkclass0"><text transform="translate(-690,820.63)" font-size="580.125">C1624</text></g></use>
          <use xlink:href="#$TCHSYS$WIN2D_1600x370" x="40300" y="26517.92" transform="scale(1,-1) translate(0,-53035.84) rotate(-180,40300,26517.92)">.<g class="blkclass0"><text transform="rotate(0 -690,820.63) translate(-690,820.63)" font-size="580.125">C1624</text></g></use>
          <use xlink:href="#$TCHSYS$WIN2D_1600x370" x="43700" y="26517.92" transform="scale(1,-1) translate(0,-53035.84) rotate(-180,43700,26517.92)">.<g class="blkclass0"><text transform="rotate(-360 -690,820.62) translate(-690,820.62)" font-size="580.125">C1624</text></g></use>
          <use xlink:href="#$TCHSYS$WIN2D_1600x370" x="48700" y="26517.92" transform="scale(1,-1) translate(0,-53035.84) rotate(-180,48700,26517.92)">.<g class="blkclass0"><text transform="rotate(-360 -690,820.63) translate(-690,820.63)" font-size="580.125">C1624</text></g></use>
          <use xlink:href="#$TCHSYS$WIN2D_1600x370" x="52400" y="26517.92" transform="scale(1,-1) translate(0,-53035.84) rotate(-180,52400,26517.92)">.<g class="blkclass0"><text transform="rotate(-360 -690,820.63) translate(-690,820.63)" font-size="580.125">C1624</text></g></use>
          <use xlink:href="#$TCHSYS$WIN2D_1600x370" x="57400" y="26517.92" transform="scale(1,-1) translate(0,-53035.84) rotate(-180,57400,26517.92)">.<g class="blkclass0"><text transform="translate(-690,820.63)" font-size="580.125">C1624</text></g></use>
          <use xlink:href="#$TCHSYS$WIN2D_1600x370" x="60900" y="26517.92" transform="scale(1,-1) translate(0,-53035.84) rotate(-180,60900,26517.92)">.<g class="blkclass0"><text transform="rotate(0 -690,820.63) translate(-690,820.63)" font-size="580.125">C1624</text></g></use>
          <use xlink:href="#$TCHSYS$WIN2D_1600x370" x="69300" y="26517.92" transform="scale(1,-1) translate(0,-53035.84) rotate(-180,69300,26517.92)">.<g class="blkclass0"><text transform="rotate(0 -690,820.63) translate(-690,820.63)" font-size="580.125">C1624</text></g></use>
          <use xlink:href="#$TCHSYS$WIN2D_1600x370" x="65800" y="26517.92" transform="scale(1,-1) translate(0,-53035.84) rotate(-180,65800,26517.92)">.<g class="blkclass0"><text transform="rotate(-360 -690,820.63) translate(-690,820.63)" font-size="580.125">C1624</text></g></use>
          <use xlink:href="#$TCHSYS$WIN2D_1600x370" x="73900" y="26517.92" transform="scale(1,-1) translate(0,-53035.84) rotate(-180,73900,26517.92)">.<g class="blkclass0"><text transform="rotate(-360 -690,820.63) translate(-690,820.63)" font-size="580.125">C1624</text></g></use>
          <use xlink:href="#$TCHSYS$WIN2D_1200x370" x="75300" y="18267.92" transform="scale(1,-1) translate(0,-36535.84) rotate(-90,75300,18267.92)">.<g class="blkclass0"><text transform="rotate(-90 820.62,652.5) translate(820.62,652.5)" font-size="580.125">C1215</text></g></use>
          <use xlink:href="#$DorLib2D$00000130_3200x500" x="16800" y="23817.92" transform="rotate(0,16800,23817.92)">.<g class="blkclass0"><text transform="rotate(0 -742.5,885.63) translate(-742.5,885.63)" font-size="580.125">M3224</text></g></use>
          <path d="M18600,19587.92l0,-370" class="cnc-1" />
          <path d="M15000,19217.92l0,370" class="cnc-1" />
          <use xlink:href="#$TCHSYS$WIN2D_1200x370" x="75300" y="15917.9" transform="scale(1,-1) translate(0,-31835.8) rotate(-90,75300,15917.9)">.<g class="blkclass0"><text transform="rotate(-90 821.76,652.5) translate(821.76,652.5)" font-size="580.125">C1215</text></g></use>
          <use xlink:href="#$TCHSYS$WIN2D_1200x370" x="75300" y="13417.42" transform="scale(1,-1) translate(0,-26834.84) rotate(-90,75300,13417.42)">.<g class="blkclass0"><text transform="rotate(-90 820.62,652.5) translate(820.62,652.5)" font-size="580.125">C1215</text></g></use>
          <use xlink:href="#$DorLib2D$00000004" x="51.4" y="6.979" transform="scale(1500,1500) rotate(-270,51.4,6.98)" stroke-width="0.0001%">.<g class="blkclass0"><text transform="rotate(-90 1411.62,712.5) translate(1411.62,712.5)" font-size="580.125">M1524</text></g></use>
          <use xlink:href="#$DorLib2D$00000004" x="49.967" y="6.279" transform="scale(1500,1500) rotate(-180,49.97,6.28)" stroke-width="0.0001%">.<g class="blkclass0"><text transform="rotate(0 -712.5,-374.38) translate(-712.5,-374.38)" font-size="580.125">M1524</text></g></use>
          <path d="M73700,2317.92l-615,0" />
          <path d="M73800,2117.92l-715,0" />
          <path d="M73800,9517.92l-900,0" />
          <path d="M73700,9317.92l-615,0" />
          <path d="M73900,9317.92l0,-500" />
          <path d="M73900,8817.92l-200,0" />
          <path d="M73700,8817.92l0,500" />
          <path d="M73700,5917.92l0,2200" />
          <path d="M73700,8117.92l200,0" />
          <path d="M73900,8117.92l0,-2300" />
          <path d="M73085,5917.92l0,3400" />
          <path d="M72715,5917.92l0,3400" />
          <path d="M69500,5817.92l0,400" />
          <path d="M69500,6217.92l200,0" />
          <path d="M69700,6217.92l0,-300" />
          <path d="M69700,9317.92l0,-2100" />
          <path d="M69700,7217.92l-200,0" />
          <path d="M69500,7217.92l0,2100" />
          <path d="M73700,5717.92l0,-3400" />
          <path d="M73900,5817.92l0,-3500" />
          <path d="M69700,5717.92l3015,0" />
          <path d="M69700,5917.92l3015,0" />
          <path d="M73085,5717.92l615,0" />
          <path d="M73085,5917.92l615,0" />
          <use xlink:href="#$DorLib2D$00000003" x="105.429" y="12.097" transform="scale(700,700) scale(-1,-1) translate(-210.86,-24.19) rotate(-90,105.43,12.1)" stroke-width="0.0001%">.<g class="blkclass0"><text transform="rotate(-90 -289.38,727.5) translate(-289.38,727.5)" font-size="580.125">M0709</text></g></use>
          <use xlink:href="#$DorLib2D$00000003" x="69.6" y="6.718" transform="scale(1000,1000) scale(-1,-1) translate(-139.2,-13.44) rotate(-270,69.6,6.72)" stroke-width="0.0001%">.<g class="blkclass0"><text transform="rotate(-90 820.63,705) translate(820.63,705)" font-size="580.125">M1022</text></g></use>
          <use xlink:href="#$DorLib2D$00000003" x="69.6" y="4.918" transform="scale(1000,1000) scale(1,-1) translate(0,-9.84) rotate(-90,69.6,4.92)" stroke-width="0.0001%">.<g class="blkclass0"><text transform="rotate(-90 820.63,705) translate(820.63,705)" font-size="580.125">M1022</text></g></use>
          <use xlink:href="#$DorLib2D$00000003" x="68.5" y="9.418" transform="scale(1000,1000) scale(-1,-1) translate(-137,-18.84) rotate(-180,68.5,9.42)" stroke-width="0.0001%">.<g class="blkclass0"><text transform="rotate(0 -712.5,735.62) translate(-712.5,735.62)" font-size="580.125">M1024</text></g></use>
          <path d="M75115,11787.92l0,1029.5" />
          <path d="M75115,12817.42l370,0" />
          <path d="M75485,12817.42l0,-1214.5" />
          <path d="M75485,17132.92l0,-615.02" />
          <path d="M75485,16517.9l-370,0" />
          <path d="M75115,16517.9l0,430.02" />
          <path d="M75115,14017.42l0,1300.48" />
          <path d="M75115,15317.9l370,0" />
          <path d="M75485,15317.9l0,-1300.48" />
          <path d="M75485,14017.42l-370,0" />
          <path d="M19985,11417.92l0,-299.5" />
          <path d="M19985,11118.42l-370,0" />
          <path d="M19615,11118.42l0,484.5" />
          <path d="M19615,9417.92l0,600.5" />
          <path d="M19615,10018.42l370,0" />
          <path d="M19985,10018.42l0,-500.5" />
          <use xlink:href="#$DorLib2D$00000003" x="60.9" y="9.418" transform="scale(1000,1000) scale(1,-1) translate(0,-18.84) rotate(-180,60.9,9.42)" stroke-width="0.0001%">.<g class="blkclass0"><text transform="rotate(-360 -712.5,735.62) translate(-712.5,735.62)" font-size="580.125">M1024</text></g></use>
          <use xlink:href="#$DorLib2D$00000003" x="54.3" y="9.418" transform="scale(1000,1000) scale(1,-1) translate(0,-18.84) rotate(-180,54.3,9.42)" stroke-width="0.0001%">.<g class="blkclass0"><text transform="translate(-712.5,735.63)" font-size="580.125">M1024</text></g></use>
          <use xlink:href="#$DorLib2D$00000003" x="40.8" y="9.418" transform="scale(1000,1000) scale(1,-1) translate(0,-18.84) rotate(-180,40.8,9.42)" stroke-width="0.0001%">.<g class="blkclass0"><text transform="translate(-712.5,735.62)" font-size="580.125">M1024</text></g></use>
          <use xlink:href="#$DorLib2D$00000003" x="34.2" y="9.418" transform="scale(1000,1000) scale(1,-1) translate(0,-18.84) rotate(-180,34.2,9.42)" stroke-width="0.0001%">.<g class="blkclass0"><text transform="translate(-712.5,735.62)" font-size="580.125">M1024</text></g></use>
          <use xlink:href="#$DorLib2D$00000003" x="47.7" y="9.418" transform="scale(1000,1000) scale(1,-1) translate(0,-18.84) rotate(-180,47.7,9.42)" stroke-width="0.0001%">.<g class="blkclass0"><text transform="rotate(-360 -712.5,735.63) translate(-712.5,735.63)" font-size="580.125">M1024</text></g></use>
          <path d="M19985,9332.92l0,-665" />
          <path d="M19985,8667.92l-370,0" />
          <path d="M19615,8667.92l0,480" />
          <path d="M19615,7102.92l0,365" />
          <path d="M19615,7467.92l370,0" />
          <path d="M19985,7467.92l0,-550" />
          <path d="M13015,9517.92l0,845" />
          <path d="M13015,10362.92l370,0" />
          <path d="M13385,10362.92l0,-845" />
          <path d="M13385,19217.92l0,-805" />
          <path d="M13385,18412.92l-370,0" />
          <path d="M13015,18412.92l0,805" />
          <path d="M13015,11212.92l0,950" />
          <path d="M13015,12162.92l370,0" />
          <path d="M13385,12162.92l0,-950" />
          <path d="M13385,11212.92l-370,0" />
          <path d="M13015,13012.92l0,950" />
          <path d="M13015,13962.92l370,0" />
          <path d="M13385,13962.92l0,-950" />
          <path d="M13385,13012.92l-370,0" />
          <path d="M13015,14812.92l0,950" />
          <path d="M13015,15762.92l370,0" />
          <path d="M13385,15762.92l0,-950" />
          <path d="M13385,14812.92l-370,0" />
          <path d="M13015,16612.92l0,950" />
          <path d="M13015,17562.92l370,0" />
          <path d="M13385,17562.92l0,-950" />
          <path d="M13385,16612.92l-370,0" />
          <path d="M8885,9147.92l0,-63" />
          <path d="M8885,9084.92l-370,0" />
          <path d="M8515,9084.92l0,433" />
          <path d="M8515,7802.92l0,82" />
          <path d="M8515,7884.92l370,0" />
          <path d="M8885,7884.92l0,-452" />
          <use xlink:href="#$DorLib2D$00000003" x="21.5" y="9.418" transform="scale(1000,1000) scale(-1,-1) translate(-43,-18.84) rotate(-180,21.5,9.42)" stroke-width="0.0001%">.<g class="blkclass0"><text transform="translate(-712.5,735.62)" font-size="580.125">M1024</text></g></use>
          <use xlink:href="#$DorLib2D$00000003" x="26.111" y="9.742" transform="scale(900,900) scale(-1,1) translate(-52.22,0) rotate(-270,26.11,9.74)" stroke-width="0.0001%">.<g class="blkclass0"><text transform="rotate(-90 820.62,742.5) translate(820.62,742.5)" font-size="580.125">M0924</text></g></use>
          <path d="M19985,7467.92l-370,0" class="cnc-1" />
          <path d="M19615,8667.92l370,0" class="cnc-1" />
          <use xlink:href="#$DorLib2D$00000003" x="18.3" y="6.918" transform="scale(1000,1000) scale(-1,-1) translate(-36.6,-13.84) rotate(-180,18.3,6.92)" stroke-width="0.0001%">.<g class="blkclass0"><text transform="translate(-212.5,820.62)" font-size="580.125">M1024</text></g></use>
          <use xlink:href="#$DorLib2D$00000003" x="14.7" y="6.918" transform="scale(1000,1000) scale(1,-1) translate(0,-13.84) rotate(-180,14.7,6.92)" stroke-width="0.0001%">.<g class="blkclass0"><text transform="translate(-637.5,820.63)" font-size="580.125">M1021</text></g></use>
          <use xlink:href="#$DorLib2D$00000003" x="13.2" y="7.918" transform="scale(1000,1000) scale(1,-1) translate(0,-15.84) rotate(-90,13.2,7.92)" stroke-width="0.0001%">.<g class="blkclass0"><text transform="rotate(-90 820.62,712.5) translate(820.62,712.5)" font-size="580.125">M1024</text></g></use>
          <use xlink:href="#$TCHSYS$WIN2D_1200x370" x="8700" y="8484.92" transform="rotate(-90,8700,8484.92)">.<g class="blkclass0"><text transform="rotate(-90 820.62,682.5) translate(820.62,682.5)" font-size="580.125">C1227</text></g></use>
          <use xlink:href="#$TCHSYS$WIN2D_1700x370" x="7645" y="7617.92" transform="rotate(-180,7645,7617.92)">.<g class="blkclass0"><text transform="translate(-682.5,-374.38)" font-size="580.125">C1727</text></g></use>
          <path d="M8515,-597.08l370,0" />
          <path d="M8885,-597.08l0,-370" />
          <path d="M8885,-967.08l-370,0" />
          <path d="M8515,-967.08l0,370" />
          <use xlink:href="#$DorLib2D$00000003" x="7.6" y="2.518" transform="scale(1000,1000) scale(-1,1) translate(-15.2,0) rotate(0,7.6,2.52)" stroke-width="0.0001%">.<g class="blkclass0"><text transform="translate(-705,735.63)" font-size="580.125">M1022</text></g></use>
          <use xlink:href="#$DorLib2D$00000003" x="12.2" y="2.518" transform="scale(1000,1000)" stroke-width="0.0001%">.<g class="blkclass0"><text transform="translate(-705,735.62)" font-size="580.125">M1022</text></g></use>
          <use xlink:href="#$TCHSYS$WIN2D_1700x370" x="7636.5" y="-782.08" transform="scale(1,-1) translate(0,1564.16) rotate(0,7636.5,-782.08)">.<g class="blkclass0"><text transform="translate(-682.5,-374.37)" font-size="580.125">C1727</text></g></use>
          <use xlink:href="#$TCHSYS$WIN2D_1200x370" x="8700" y="-1572.58" transform="scale(1,-1) translate(0,3145.16) rotate(-270,8700,-1572.58)">.<g class="blkclass0"><text transform="rotate(-90 825.63,682.5) translate(825.63,682.5)" font-size="580.125">C1227</text></g></use>
          <path d="M13385,-2267.08l0,4785" />
          <path d="M13015,-2267.08l0,4685" />
          <path d="M13015,18412.92l370,0" class="cnc-1" />
          <path d="M13385,17562.92l-370,0" class="cnc-1" />
          <path d="M13015,16612.92l370,0" class="cnc-1" />
          <path d="M13385,15762.92l-370,0" class="cnc-1" />
          <path d="M13015,14812.92l370,0" class="cnc-1" />
          <path d="M13385,13962.92l-370,0" class="cnc-1" />
          <path d="M13015,13012.92l370,0" class="cnc-1" />
          <path d="M13385,12162.92l-370,0" class="cnc-1" />
          <path d="M13015,11212.92l370,0" class="cnc-1" />
          <path d="M13385,10362.92l-370,0" class="cnc-1" />
          <path d="M19985,16947.92l0,-1380" />
          <path d="M19985,15567.92l-370,0" />
          <path d="M19615,15567.92l0,1550" />
          <path d="M19615,11602.92l0,1565" />
          <path d="M19615,13167.92l370,0" />
          <path d="M19985,13167.92l0,-1380" />
          <path d="M27900,17317.92l-7915,0" />
          <path d="M27700,16947.92l-7715,0" />
          <path d="M27700,11787.92l-7715,0" />
          <path d="M27900,11417.92l-7915,0" />
          <path d="M27900,17317.92l0,-500.5" />
          <path d="M27900,16817.42l-200,0" />
          <path d="M27700,16817.42l0,130.5" />
          <path d="M27700,11787.92l0,129.5" />
          <path d="M27700,11917.42l200,0" />
          <path d="M27900,11917.42l0,-499.5" />
          <path d="M33500,17117.92l-350,0" />
          <path d="M33150,17117.92l0,200" />
          <path d="M33150,17317.92l450,0" />
          <path d="M27900,17317.92l350,0" />
          <path d="M28250,17317.92l0,-200" />
          <path d="M28250,17117.92l-350,0" />
          <path d="M27900,17117.92l0,200" />
          <path d="M33870,17117.92l0,-900" />
          <path d="M33870,16217.92l-370,0" />
          <path d="M33500,16217.92l0,900" />
          <path d="M33500,11617.92l0,900" />
          <path d="M33500,12517.92l370,0" />
          <path d="M33870,12517.92l0,-900" />
          <path d="M33870,15017.92l0,-1300" />
          <path d="M33870,13717.92l-370,0" />
          <path d="M33500,13717.92l0,1300" />
          <path d="M33500,15017.92l370,0" />
          <path d="M37700,11617.92l-3830,0" />
          <path d="M37900,11417.92l-4300,0" />
          <path d="M37900,17317.92l-4300,0" />
          <path d="M37700,17117.92l-3830,0" />
          <path d="M37900,17317.92l0,-4500" />
          <path d="M37900,12817.92l-200,0" />
          <path d="M37700,12817.92l0,4300" />
          <path d="M37700,11617.92l0,300" />
          <path d="M37700,11917.92l200,0" />
          <path d="M37900,11917.92l0,-500" />
          <path d="M40900,16947.92l0,-4130" />
          <path d="M40900,12817.92l-200,0" />
          <path d="M40700,12817.92l0,4500" />
          <path d="M40700,11417.92l0,500" />
          <path d="M40700,11917.92l200,0" />
          <path d="M40900,11917.92l0,-130" />
          <path d="M46400,17317.92l0,-5900" />
          <path d="M46770,17117.92l0,-5500" />
          <path d="M45930,11787.92l-5030,0" />
          <path d="M46300,11417.92l-5600,0" />
          <path d="M46300,17317.92l-5600,0" />
          <path d="M45930,16947.92l-5030,0" />
          <path d="M46300,17317.92l0,-2050" />
          <path d="M46300,15267.92l-370,0" />
          <path d="M45930,15267.92l0,1680" />
          <path d="M45930,11787.92l0,1680" />
          <path d="M45930,13467.92l370,0" />
          <path d="M46300,13467.92l0,-2050" />
          <path d="M50700,11417.92l-400,0" />
          <path d="M50300,11417.92l0,200" />
          <path d="M50300,11617.92l300,0" />
          <path d="M46770,11617.92l230,0" />
          <path d="M47000,11617.92l0,-200" />
          <path d="M47000,11417.92l-600,0" />
          <path d="M49400,11417.92l-400,0" />
          <path d="M49000,11417.92l0,200" />
          <path d="M49000,11617.92l400,0" />
          <path d="M49400,11617.92l0,-200" />
          <path d="M50600,17117.92l-300,0" />
          <path d="M50300,17117.92l0,200" />
          <path d="M50300,17317.92l400,0" />
          <path d="M46400,17317.92l500,0" />
          <path d="M46900,17317.92l0,-200" />
          <path d="M46900,17117.92l-130,0" />
          <path d="M50800,17117.92l0,-300" />
          <path d="M50800,16817.92l-200,0" />
          <path d="M50600,16817.92l0,300" />
          <path d="M50600,11617.92l0,300" />
          <path d="M50600,11917.92l200,0" />
          <path d="M50800,11917.92l0,-130" />
          <path d="M75115,17317.92l0,350" />
          <path d="M75115,17667.92l370,0" />
          <path d="M75485,17667.92l0,-535" />
          <path d="M75485,19402.92l0,-535" />
          <path d="M75485,18867.92l-370,0" />
          <path d="M75115,18867.92l0,350" />
          <path d="M60800,11787.92l-10000,0" />
          <path d="M61000,11417.92l-10300,0" />
          <path d="M61000,17317.92l-10300,0" />
          <path d="M60800,17117.92l-10000,0" />
          <path d="M63399.99,11787.92l-0.05,1230.11" />
          <path d="M63200.01,11417.92l-0.06,1500.1" />
          <path d="M61000,13117.92l349.96,0.01" />
          <path d="M61349.96,13117.94l0.01,-200" />
          <path d="M61349.97,12917.94l-349.97,-0.01" />
          <path d="M63199.94,12918.02l-349.97,-0.01" />
          <path d="M62849.97,12918l-0.01,200" />
          <path d="M62849.96,13118l349.97,0.01" />
          <use xlink:href="#$DorLib2D$00000004" x="40.6" y="9.579" transform="scale(1500,1500) rotate(-90,40.6,9.58)" stroke-width="0.0001%">.<g class="blkclass0"><text transform="rotate(-90 735.63,712.5) translate(735.63,712.5)" font-size="580.125">M1524</text></g></use>
          <use xlink:href="#$DorLib2D$00000004" x="42.2" y="9.579" transform="scale(1500,1500) rotate(-270,42.2,9.58)" stroke-width="0.0001%">.<g class="blkclass0"><text transform="rotate(-90 -289.4,712.49) translate(-289.4,712.49)" font-size="580.125">M1524</text></g></use>
          <use xlink:href="#$DorLib2D$00000004" x="41.4" y="8.679" transform="scale(1500,1500) rotate(-360,41.4,8.68)" stroke-width="0.0001%">.<g class="blkclass0"><text transform="rotate(-360 -712.53,735.59) translate(-712.53,735.59)" font-size="580.125">M1524</text></g></use>
          <use xlink:href="#$TCHSYS$WIN2D_4900x200" x="50700" y="14367.92" transform="rotate(-90,50700,14367.92)">.<g class="blkclass0"><text transform="rotate(-90 735.62,645) translate(735.62,645)" font-size="580.125">C4921</text></g></use>
          <use xlink:href="#$TCHSYS$WIN2D_4900x200" x="30700" y="17217.92" transform="scale(1,-1) translate(0,-34435.84) rotate(-180,30700,17217.92)">.<g class="blkclass0"><text transform="translate(-645,-264.38)" font-size="580.125">C4921</text></g></use>
          <use xlink:href="#$TCHSYS$WIN2D_4900x200" x="27800" y="14367.42" transform="rotate(-90,27800,14367.42)">.<g class="blkclass0"><text transform="rotate(-90 735.63,720) translate(735.63,720)" font-size="580.125">C4924</text></g></use>
          <use xlink:href="#$TCHSYS$WIN2D_3500x200" x="31500" y="11517.92" transform="rotate(-180,31500,11517.92)">.<g class="blkclass0"><text transform="translate(-645,-374.37)" font-size="580.125">C3521</text></g></use>
          <path d="M33600,11417.92l-350,0" />
          <path d="M33250,11417.92l0,200" />
          <path d="M33250,11617.92l250,0" />
          <path d="M27899.76,11617.92l450.24,0" />
          <path d="M28350,11617.92l0,-200" />
          <path d="M28350,11417.92l-450.24,0" />
          <path d="M27899.76,11417.92l0,200" />
          <path d="M29750,11417.92l-500,0" />
          <path d="M29250,11417.92l0,200" />
          <path d="M29250,11617.92l500,0" />
          <path d="M29750,11617.92l0,-200" />
          <use xlink:href="#$DorLib2D$00000003" x="32" y="12.798" transform="scale(900,900) rotate(-180,32,12.8)" stroke-width="0.0001%">.<g class="blkclass0"><text transform="translate(-742.5,-289.38)" font-size="580.125">M0924</text></g></use>
          <use xlink:href="#$DorLib2D$00000003" x="42" y="13.742" transform="scale(900,900) rotate(-90,42,13.74)" stroke-width="0.0001%">.<g class="blkclass0"><text transform="rotate(-90 735.62,742.5) translate(735.62,742.5)" font-size="580.125">M0924</text></g></use>
          <use xlink:href="#$DorLib2D$00000003" x="45.333" y="13.742" transform="scale(900,900) scale(1,-1) translate(0,-27.48) rotate(-270,45.33,13.74)" stroke-width="0.0001%">.<g class="blkclass0"><text transform="rotate(-90 -289.38,742.5) translate(-289.38,742.5)" font-size="580.125">M0924</text></g></use>
          <use xlink:href="#$TCHSYS$WIN2D_1200x370" x="33685" y="15617.92" transform="scale(1,-1) translate(0,-31235.84) rotate(-270,33685,15617.92)">.<g class="blkclass0"><text transform="rotate(-90 725.62,675) translate(725.62,675)" font-size="580.125">C1206</text></g></use>
          <use xlink:href="#$TCHSYS$WIN2D_1200x370" x="33685" y="13117.92" transform="scale(-1,-1) translate(-67370,-26235.84) rotate(-90,33685,13117.92)">.<g class="blkclass0"><text transform="rotate(-90 -374.38,675) translate(-374.38,675)" font-size="580.125">C1206</text></g></use>
          <use xlink:href="#$TCHSYS$WIN2D_1800x370" x="46115" y="14367.92" transform="scale(1,-1) translate(0,-28735.84) rotate(-270,46115,14367.92)">.<g class="blkclass0"><text transform="rotate(-90 -374.38,675) translate(-374.38,675)" font-size="580.125">C1806</text></g></use>
          <use xlink:href="#$TCHSYS$WIN2D_3400x200" x="48600" y="17217.92" transform="rotate(-180,48600,17217.92)">.<g class="blkclass0"><text transform="rotate(0 -645,-289.37) translate(-645,-289.37)" font-size="580.125">C3421</text></g></use>
          <use xlink:href="#$TCHSYS$WIN2D_2000x200" x="48000" y="11517.92" transform="rotate(-180,48000,11517.92)">.<g class="blkclass0"><text transform="rotate(-360 -645,-289.38) translate(-645,-289.38)" font-size="580.125">C2021</text></g></use>
          <use xlink:href="#$DorLib2D$00000003" x="55.389" y="12.798" transform="scale(900,900) scale(-1,1) translate(-110.78,0) rotate(-180,55.39,12.8)" stroke-width="0.0001%">.<g class="blkclass0"><text transform="rotate(-360 -742.5,-289.38) translate(-742.5,-289.38)" font-size="580.125">M0924</text></g></use>
          <path d="M27899.76,11917.92l0,-300" />
          <path d="M29299.76,11917.92l0,-300" />
          <path d="M27899.76,11917.92l1400,0" />
          <path d="M27899.76,11617.92l1400,0" />
          <use xlink:href="#$TCHSYS$WIN2D_1200x370" x="77100" y="8317.92" transform="rotate(-270,77100,8317.92)">.<g class="blkclass0"><text transform="rotate(-90 825.62,352.5) translate(825.62,352.5)" font-size="580.125">C1215</text></g></use>
          <path d="M76915,317.92l0,800" />
          <path d="M76915,1117.92l370,0" />
          <path d="M77285,1117.92l0,-900" />
          <path d="M77285,2217.92l0,-200" />
          <path d="M77285,2017.92l-370,0" />
          <path d="M76915,2017.92l0,100" />
          <path d="M73085,317.92l0,1800" />
          <path d="M72715,217.92l0,1900" />
          <path d="M76915,317.92l-3830,0" />
          <path d="M76915,117.92l-3830,0" />
          <use xlink:href="#$DorLib2D$00000003" x="85.667" y="1.742" transform="scale(900,900) scale(1,-1) translate(0,-3.48) rotate(-90,85.67,1.74)" stroke-width="0.0001%">.<g class="blkclass0"><text transform="rotate(-90 820.62,667.5) translate(820.62,667.5)" font-size="580.125">M0921</text></g></use>
          <use xlink:href="#$DorLib2D$00000003" x="85.667" y="-1.702" transform="scale(900,900) scale(-1,-1) translate(-171.33,3.4) rotate(-270,85.67,-1.7)" stroke-width="0.0001%">.<g class="blkclass0"><text transform="rotate(-90 821.4,667.5) translate(821.4,667.5)" font-size="580.125">M0921</text></g></use>
          <use xlink:href="#$TCHSYS$WIN2D_1600x370" x="67800" y="-2582.08" transform="scale(-1,-1) translate(-135600,5164.16) rotate(0,67800,-2582.08)">.<g class="blkclass0"><text transform="rotate(0 -690,-374.37) translate(-690,-374.37)" font-size="580.125">C1624</text></g></use>
          <use xlink:href="#$TCHSYS$WIN2D_1600x370" x="70500" y="-2582.08" transform="scale(-1,-1) translate(-141000,5164.16) rotate(0,70500,-2582.08)">.<g class="blkclass0"><text transform="rotate(0 -690,-374.37) translate(-690,-374.37)" font-size="580.125">C1624</text></g></use>
          <use xlink:href="#$TCHSYS$WIN2D_1600x370" x="62100" y="-2582.08" transform="scale(-1,-1) translate(-124200,5164.16) rotate(0,62100,-2582.08)">.<g class="blkclass0"><text transform="rotate(0 -690,-374.37) translate(-690,-374.37)" font-size="580.125">C1624</text></g></use>
          <use xlink:href="#$TCHSYS$WIN2D_1600x370" x="64800" y="-2582.08" transform="scale(-1,-1) translate(-129600,5164.16) rotate(0,64800,-2582.08)">.<g class="blkclass0"><text transform="rotate(0 -690,-374.38) translate(-690,-374.38)" font-size="580.125">C1624</text></g></use>
          <use xlink:href="#$DorLib2D$00000004" x="34.125" y="-1.614" transform="scale(1600,1600) scale(-1,-1) translate(-68.25,3.23)" stroke-width="0.0001%">.<g class="blkclass0"><text transform="translate(-705,-374.38)" font-size="580.125">M1627</text></g></use>
          <use xlink:href="#$TCHSYS$WIN2D_1600x370" x="57300" y="-2582.08" transform="scale(-1,-1) translate(-114600,5164.16)">.<g class="blkclass0"><text transform="translate(-690,-374.38)" font-size="580.125">C1624</text></g></use>
          <use xlink:href="#$TCHSYS$WIN2D_1600x370" x="48900" y="-2582.08" transform="scale(-1,1) translate(-97800,0)">.<g class="blkclass0"><text transform="translate(-690,820.62)" font-size="580.125">C1624</text></g></use>
          <use xlink:href="#$DorLib2D$00000004" x="32.25" y="-1.614" transform="scale(1600,1600) scale(-1,-1) translate(-64.5,3.23)" stroke-width="0.0001%">.<g class="blkclass0"><text transform="translate(-705,-374.38)" font-size="580.125">M1627</text></g></use>
          <use xlink:href="#$DorLib2D$00000004" x="25.875" y="-1.614" transform="scale(1600,1600) scale(-1,-1) translate(-51.75,3.23) rotate(-360,25.88,-1.61)" stroke-width="0.0001%">.<g class="blkclass0"><text transform="translate(-705,-374.38)" font-size="580.125">M1627</text></g></use>
          <use xlink:href="#$TCHSYS$WIN2D_1600x370" x="44100" y="-2582.08" transform="scale(-1,-1) translate(-88200,5164.16) rotate(-360,44100,-2582.08)">.<g class="blkclass0"><text transform="translate(-690,-374.38)" font-size="580.125">C1624</text></g></use>
          <use xlink:href="#$TCHSYS$WIN2D_1600x370" x="35400" y="-2582.08" transform="scale(-1,-1) translate(-70800,5164.16) rotate(0,35400,-2582.08)">.<g class="blkclass0"><text transform="rotate(0 -690,-374.38) translate(-690,-374.38)" font-size="580.125">C1624</text></g></use>
          <use xlink:href="#$DorLib2D$00000004" x="23.813" y="-1.614" transform="scale(1600,1600) scale(-1,-1) translate(-47.63,3.23) rotate(0,23.81,-1.61)" stroke-width="0.0001%">.<g class="blkclass0"><text transform="rotate(0 -705,-374.37) translate(-705,-374.37)" font-size="580.125">M1627</text></g></use>
          <use xlink:href="#$DorLib2D$00000004" x="17.438" y="-1.614" transform="scale(1600,1600) scale(-1,-1) translate(-34.88,3.23) rotate(-360,17.44,-1.61)" stroke-width="0.0001%">.<g class="blkclass0"><text transform="translate(-705,-374.38)" font-size="580.125">M1627</text></g></use>
          <use xlink:href="#$TCHSYS$WIN2D_1600x370" x="30600" y="-2582.08" transform="scale(-1,1) translate(-61200,0) rotate(0,30600,-2582.08)">.<g class="blkclass0"><text transform="translate(-690,820.62)" font-size="580.125">C1624</text></g></use>
          <use xlink:href="#$TCHSYS$WIN2D_1600x370" x="22200" y="-2582.08" transform="scale(-1,-1) translate(-44400,5164.16) rotate(-360,22200,-2582.08)">.<g class="blkclass0"><text transform="translate(-690,-374.38)" font-size="580.125">C1624</text></g></use>
          <use xlink:href="#$DorLib2D$00000004" x="15.563" y="-1.614" transform="scale(1600,1600) scale(-1,-1) translate(-31.13,3.23) rotate(-360,15.56,-1.61)" stroke-width="0.0001%">.<g class="blkclass0"><text transform="translate(-705,-374.38)" font-size="580.125">M1627</text></g></use>
          <use xlink:href="#$DorLib2D$00000004" x="9.188" y="-1.573" transform="scale(1600,1600) scale(-1,-1) translate(-18.38,3.15)" stroke-width="0.0001%">.<g class="blkclass0"><text transform="translate(-705,-439.38)" font-size="580.125">M1627</text></g></use>
          <use xlink:href="#$TCHSYS$WIN2D_1600x500" x="17400" y="-2517.08" transform="scale(-1,1) translate(-34800,0)">.<g class="blkclass0"><text transform="translate(-690,885.62)" font-size="580.125">C1624</text></g></use>
          <path d="M74650,6882.92l0,-765l0,-450" />
          <path d="M73900,6477.92l1440,0" />
          <path d="M73900,6207.92l1440,0" />
          <path d="M73948.52,5937.92l1391.48,0" />
          <path d="M74416.17,5667.92l923.83,0" />
          <path d="M74883.83,5397.92l456.17,0" />
          <path d="M73900,6747.92l0,-781.99" />
          <path d="M73900,6747.92l1440,0" />
          <path d="M75400,6747.92l0,-1648.01" />
          <path d="M75400,5099.91l-689.48,398.07" />
          <path d="M74710.52,5497.98l34.94,130.4" />
          <path d="M74745.46,5628.38l-206.04,-172.89" />
          <path d="M74539.41,5455.49l32.78,122.35" />
          <path d="M74572.2,5577.84l-672.2,388.09" />
          <path d="M75340,6777.92l0,-1643.37" />
          <path d="M75400,6777.92l0,-1678.01" />
          <path d="M75340,6777.92l60,0" />
          <path d="M22635,15757.92l765,0l450,0" />
          <path d="M23040,14627.92l0,2320" />
          <path d="M23310,14627.92l0,2320" />
          <path d="M23580,15056.44l0,1891.48" />
          <path d="M23850,15524.09l0,1423.83" />
          <path d="M24120,15991.75l0,956.17" />
          <path d="M24390,16459.4l0,488.52" />
          <path d="M24660,16927.05l0,20.87" />
          <path d="M22770,16947.92l1902.05,0" />
          <path d="M22770,14627.92l0,2320" />
          <path d="M22770,14567.92l527.95,0" />
          <path d="M24672.05,16947.92l-652.11,-1129.48" />
          <path d="M24019.94,15818.44l-130.4,34.94" />
          <path d="M23889.54,15853.38l172.89,-206.04" />
          <path d="M24062.43,15647.33l-122.35,32.78" />
          <path d="M23940.08,15680.12l-642.13,-1112.2" />
          <path d="M22740,14567.92l557.95,0" />
          <path d="M22740,14627.92l592.59,0" />
          <path d="M22740,14567.92l0,60" />
          <path d="M61000,17317.92l0,-2200" />
          <path d="M61000,15117.92l-200,0" />
          <path d="M60800,15117.92l0,2000" />
          <path d="M60800,13017.92l0,600" />
          <path d="M60800,13617.92l200,0" />
          <path d="M61000,13617.92l0,-500" />
          <path d="M60800,13017.92l0,-1230" />
          <path d="M61000,12917.92l0,-1500" />
          <path d="M63199.94,13118.02l-0.02,499.89" />
          <path d="M63199.91,13617.91l200,0.01" />
          <path d="M63399.91,13617.92l0.03,-599.89" />
          <path d="M63399.77,16947.92l0.08,-1830" />
          <path d="M63399.85,15117.92l-200,-0.01" />
          <path d="M63199.85,15117.91l-0.09,2200.01" />
          <use xlink:href="#$DorLib2D$00000003" x="31.8" y="9.418" transform="scale(1000,1000) scale(-1,-1) translate(-63.6,-18.84) rotate(-180,31.8,9.42)" stroke-width="0.0001%">.<g class="blkclass0"><text transform="rotate(0 -712.5,735.63) translate(-712.5,735.63)" font-size="580.125">M1024</text></g></use>
          <path d="M26585,6232.92l-370,0" class="body" />
          <path d="M26215,7432.92l370,0" class="body" />
          <use xlink:href="#$DorLib2D$00000003" x="11.8" y="19.403" transform="scale(1000,1000) scale(1,-1) translate(0,-38.81)" stroke-width="0.0001%">.<g class="blkclass0"><text transform="translate(-1212.5,-374.38)" font-size="580.125">M1024</text></g></use>
          <use xlink:href="#$DorLib2D$00000003" x="12.6" y="25.318" transform="scale(1000,1000) scale(1,-1) translate(0,-50.64) rotate(-90,12.6,25.32)" stroke-width="0.0001%" class="body">.<g class="blkclass0"><text transform="rotate(-90 820.62,712.5) translate(820.62,712.5)" font-size="580.125">M1024</text></g></use>
          <path d="M13663.5,29217.92l6273,0" class="body" />
          <path d="M13663.5,29517.92l6273,0" class="body" />
          <path d="M13663.5,29817.92l6273,0" class="body" />
          <path d="M26585,-582.08l-370,0" class="body" />
          <path d="M26215,617.92l370,0" class="body" />
        </g>
      </g>
      <g id="assets" fill="none">
        <g id="rm-assets" class="rm-asset">
          <path id="15014;F01;118" d="M53285,-2397.08l5615,0l0,315l615,0l0,11400l-6230,0l0,-11715z" />
          <path id="15014;F01;119" d="M46685,-2082.08l615,0l0,-315l5615,0l0,11715l-6230,0l0,-11400z" />
          <path id="15014;F01;117" d="M59885,-2082.08l615,0l0,-315l5615,0l0,11715l-6230,0z" />
          <path id="15014;F01;114" d="M63399.99,11787.92l11715.01,0l0,5160l-11715.23,0z" />
          <path id="15014;F01;115" d="M50800,11787.92l10000,0l0,5330l-10000,0z" />
          <path id="15014;F01;116" d="M66485,-2397.08l5615,0l0,315l615,0l0,4200l-3215,0l0,7200l-3015,0z" />
          <path id="15014;F01;107" d="M46685,19417.92l3830,0l0,6915l-3515,0l0,-315l-315,0l0,-6600z" />
          <path id="15014;F01;103" d="M29585,19417.92l3830,0l0,6915l-3215,0l0,-315l-615,0l0,-6600z" />
          <path id="15014;F01;106" d="M42185,19417.92l3830,0l0,6600l-615,0l0,315l-3215,0l0,-6915z" />
          <path id="15014;F01;101" d="M21185,19417.92l3830,0l0,6915l-3215,0l0,-315l-615,0l0,-6600z" />
          <path id="15014;F01;105" d="M37985,19417.92l3830,0l0,6915l-3215,0l0,-315l-615,0z" />
          <path id="15014;F01;102" d="M25385,19417.92l3830,0l0,6600l-615,0l0,315l-3215,0l0,-6915z" />
          <path id="15014;F01;104" d="M33785,19417.92l3830,0l0,6600l-615,0l0,315l-3215,0z" />
          <path id="15014;F01;112" d="M67085,19587.92l3830,0l0,6745l-3830,0z" />
          <path id="15014;F01;108" d="M54715,19587.92l-3830,0l0,6745l3215,0l0,-315l615,0l0,-6430z" />
          <path id="15014;F01;100" d="M8585,19587.92l3830,0l0,6430l-615,0l0,315l-3215,0z" />
          <path id="15014;F01;109" d="M55085,19587.92l3830,0l0,6745l-3215,0l0,-315l-615,0l0,-6430z" />
          <path id="15014;F01;113" d="M71285,19587.92l3830,0l0,6745l-2600,0l0,-315l-1230,0z" />
          <path id="15014;F01;111" d="M62885,19587.92l3830,0l0,6745l-2600,0l0,-315l-1230,0z" />
          <path id="15014;F01;110" d="M59285,19587.92l3230,0l0,6745l-3230,0z" />
        </g>
      </g>
    </g>
    <g id="text" font-family="Arial" font-size="658.29787234042544" font-weight="normal" text-style="normal" text-anchor="start" dominant-baseline="alphabetical" fill="#FFFFFF" xml:space="preserve">
      <g id="layer-body-text">
        <g transform="translate(74493.62,7565.42)">
          <text>上</text>
        </g>
        <g transform="translate(22164.73,16020.42)">
          <text>上</text>
        </g>
      </g>
    </g>
    <g id="asset-labels" font-family="Arial" font-weight="bold" font-size="38.1em" text-anchor="middle">
      <g id="rm-labels">
        <g id="l-rm-15014;F01;118" transform="translate(56400,3460.42)">
          <text>118</text>
        </g>
        <g id="l-rm-15014;F01;119" transform="translate(49800,3460.42)">
          <text>119</text>
        </g>
        <g id="l-rm-15014;F01;117" transform="translate(63000,3460.42)">
          <text>117</text>
        </g>
        <g id="l-rm-15014;F01;114" transform="translate(69257.39,14367.92)">
          <text>114</text>
        </g>
        <g id="l-rm-15014;F01;115" transform="translate(55800,14452.92)">
          <text>115</text>
        </g>
        <g id="l-rm-15014;F01;116" transform="translate(69600,3460.42)">
          <text>116</text>
        </g>
        <g id="l-rm-15014;F01;107" transform="translate(48600,22875.42)">
          <text>107</text>
        </g>
        <g id="l-rm-15014;F01;103" transform="translate(31500,22875.42)">
          <text>103</text>
        </g>
        <g id="l-rm-15014;F01;106" transform="translate(44100,22875.42)">
          <text>106</text>
        </g>
        <g id="l-rm-15014;F01;101" transform="translate(23100,22875.42)">
          <text>101</text>
        </g>
        <g id="l-rm-15014;F01;105" transform="translate(39900,22875.42)">
          <text>105</text>
        </g>
        <g id="l-rm-15014;F01;102" transform="translate(27300,22875.42)">
          <text>102</text>
        </g>
        <g id="l-rm-15014;F01;104" transform="translate(35700,22875.42)">
          <text>104</text>
        </g>
        <g id="l-rm-15014;F01;112" transform="translate(69000,22960.42)">
          <text>112</text>
        </g>
        <g id="l-rm-15014;F01;108" transform="translate(52800,22960.42)">
          <text>108</text>
        </g>
        <g id="l-rm-15014;F01;100" transform="translate(10500,22960.42)">
          <text>100</text>
        </g>
        <g id="l-rm-15014;F01;109" transform="translate(57000,22960.42)">
          <text>109</text>
        </g>
        <g id="l-rm-15014;F01;113" transform="translate(73200,22960.42)">
          <text>113</text>
        </g>
        <g id="l-rm-15014;F01;111" transform="translate(64800,22960.42)">
          <text>111</text>
        </g>
        <g id="l-rm-15014;F01;110" transform="translate(60900,22960.42)">
          <text>110</text>
        </g>
      </g>
    </g>
  </g>
</svg>