<svg version="1.1" xmlns="http://www.w3.org/2000/svg" xmlns:xlink="http://www.w3.org/1999/xlink" viewBox="440069.09 572969.11 71413 30953">
  <style>.i0 { stroke:#000000;   } .body { stroke:#ff7f00;   } .rm { stroke:#00ffff;   } .pub_wall { stroke:#c0c0c0;   } .rm-asset { stroke:#0000ff;   fill:#EEEEEE; fill-opacity:1;} .rmtc-asset { stroke:#0000ff;   } .rmtc { stroke:#00ffff;   } .rm-assettxt { stroke:#0000ff;   } .rmtc-assettxt { stroke:#0000ff;   } .cnc-0 { stroke:#000000;  stroke-dasharray:0; fill:#cccccc; fill-opacity:1;} .cnc-1 { stroke:#000000; stroke-width:100; stroke-dasharray:0; fill:#cccccc; fill-opacity:1;} .cnc-2 { stroke:#00ffff;  stroke-dasharray:0; fill:#cccccc; fill-opacity:1;} .cnc-3 { stroke:#00ffff; stroke-width:100; stroke-dasharray:0; fill:#cccccc; fill-opacity:1;} .cnc-4 { stroke:#000000; stroke-width:143.499999999767; stroke-dasharray:0; fill:#cccccc; fill-opacity:1;} .cnc-5 { stroke:#000000; stroke-width:86.0999999998603; stroke-dasharray:0; } .cnc-6 { stroke:#00bfff;  stroke-dasharray:0; }</style>
  <view id="defaultView" viewBox="440069.09 572969.11 71413 30953" />
  <defs>
    <symbol id="$TCHSYS$WIN2D_2000x380" overflow="visible" class="i0">
      <path d="M-1000,-190l2000,0" />
      <path d="M-1000,190l2000,0" />
      <path d="M1000,63.33l-2000,0" />
      <path d="M1000,-63.33l-2000,0" />
      <path d="M-1000,-190l0,380" />
      <path d="M1000,-190l0,380" />
    </symbol>
    <symbol id="$TCHSYS$WIN2D_1500x380" overflow="visible" class="i0">
      <path d="M-750,-190l1500,0" />
      <path d="M-750,190l1500,0" />
      <path d="M750,63.33l-1500,0" />
      <path d="M750,-63.33l-1500,0" />
      <path d="M-750,-190l0,380" />
      <path d="M750,-190l0,380" />
    </symbol>
    <symbol id="$DorLib2D$00000002" overflow="visible" class="i0">
      <path d="M-0.5,0l0,-0.49" />
      <path d="M-0.48,0l0,-0.49" />
      <path d="M-0.5,0l0.02,0" />
      <path d="M-0.48,-0.49l-0.02,0" />
      <path d="M-0.48,-0.49a0.49,0.49 0 0,1 0.48,0.49" />
      <path d="M0,0a0.49,0.49 0 0,1 0.48,-0.49" />
      <path d="M0.48,0l0,-0.49" />
      <path d="M0.5,0l0,-0.49" />
      <path d="M0.48,-0.49l0.02,0" />
      <path d="M0.5,0l-0.02,0" />
    </symbol>
    <symbol id="$DorLib2D$00000001" overflow="visible" class="i0">
      <path d="M0.45,-0.98l0.05,0" />
      <path d="M0.5,0l-0.05,0" />
      <path d="M-0.5,0a0.98,0.98 0 0,1 0.95,-0.97" />
      <path d="M0.5,0l0,-0.98" />
      <path d="M0.45,0l0,-0.98" />
    </symbol>
    <symbol id="$TCHSYS$WIN2D_1600x380" overflow="visible" class="i0">
      <path d="M-800,-190l1600,0" />
      <path d="M-800,190l1600,0" />
      <path d="M800,63.33l-1600,0" />
      <path d="M800,-63.33l-1600,0" />
      <path d="M-800,-190l0,380" />
      <path d="M800,-190l0,380" />
    </symbol>
  </defs>
  <g id="viewer">
    <g id="mirror" transform="scale(1, 1)" stroke-width="0.09%">
      <g id="background" fill="none">
        <g id="layer-0-fills" class="cnc-0">
          <path d="M426735.36,620070.69l105100,0l0,-59400l-105100,0z" />
          <path d="M429235.36,619070.69l101600,0l0,-57400l-101600,0z" class="cnc-1" />
          <path d="M426735.36,620070.69l105100,0l0,-59400l-105100,0z" class="cnc-2" />
          <path d="M429235.36,619070.69l101600,0l0,-57400l-101600,0z" class="cnc-3" />
          <path d="M530835.36,561670.69l-5166,0l0,57400l5166,0z" class="cnc-4" />
        </g>
        <g id="layer-body-fills" class="body">
          <path d="M496975.36,574518.35l154.88,0l0,3354.49l-154.88,0z" />
          <path d="M501462.61,593385.6l0,154.88l-3354.49,0l0,-154.88z" />
          <path d="M501195.36,581885.6l0,-380l200,0l0,380z" />
          <path d="M501462.61,593385.6l0,154.88l-3354.49,0l0,-154.88z" />
        </g>
        <g id="layer-RM-fills" class="rm">
          <path d="M482975.36,573385.6l0,5620l3120,0l0,-5620z" />
          <path d="M486475.36,573385.6l0,5620l3120,0l0,-5620z" />
          <path d="M496975.36,581885.6l0,2600l5620,0l0,-2600z" />
        </g>
        <g id="layer-body" class="body">
          <path d="M454975.36,587825.6l14018.57,0" />
          <path d="M472045.36,588205.6l0,2410l7480,0l0,-2410" />
          <path d="M472285.36,588205.6l0,2170l7000,0l0,-2170" />
          <path d="M454975.36,587825.6l14018.57,0" />
          <use xlink:href="#$TCHSYS$WIN2D_2000x380" x="440285.36" y="595095.6" transform="scale(1,-1) translate(0,-1190191.2) rotate(-270,440285.36,595095.6)">.</use>
          <path d="M440475.36,573385.6l1620,0" />
          <path d="M442095.36,573005.6l-2000,0" />
          <path d="M454785.36,573005.6l-735,0" />
          <path d="M454050.36,573005.6l0,380" />
          <path d="M454050.36,573385.6l545,0" />
          <path d="M443095.36,573385.6l1955,0" />
          <path d="M445050.36,573385.6l0,-380" />
          <path d="M445050.36,573005.6l-2955,0" />
          <path d="M447050.36,573385.6l1500,0" />
          <path d="M448550.36,573385.6l0,-380" />
          <path d="M448550.36,573005.6l-1500,0" />
          <path d="M447050.36,573005.6l0,380" />
          <path d="M450550.36,573385.6l1500,0" />
          <path d="M452050.36,573385.6l0,-380" />
          <path d="M452050.36,573005.6l-1500,0" />
          <path d="M450550.36,573005.6l0,380" />
          <use xlink:href="#$TCHSYS$WIN2D_2000x380" x="446050.36" y="573195.6" transform="scale(-1,-1) translate(-892100.72,-1146391.2)">.</use>
          <use xlink:href="#$TCHSYS$WIN2D_2000x380" x="449550.36" y="573195.6" transform="scale(-1,-1) translate(-899100.72,-1146391.2)">.</use>
          <use xlink:href="#$TCHSYS$WIN2D_2000x380" x="453050.36" y="573195.6" transform="scale(-1,-1) translate(-906100.72,-1146391.2)">.</use>
          <path d="M511095.36,573385.6l0,2855" />
          <path d="M511095.36,576240.6l380,0" />
          <path d="M511475.36,576240.6l0,-3235" />
          <path d="M511475.36,579195.6l0,-955" />
          <path d="M511475.36,578240.6l-380,0" />
          <path d="M511095.36,578240.6l0,765" />
          <use xlink:href="#$TCHSYS$WIN2D_2000x380" x="511285.36" y="577240.6" transform="scale(-1,1) translate(-1022570.72,0) rotate(-90,511285.36,577240.6)">.</use>
          <path d="M511095.36,603505.6l-3160,0" />
          <path d="M507935.36,603505.6l0,380" />
          <path d="M507935.36,603885.6l3540,0" />
          <path d="M502785.36,603885.6l250,0" />
          <path d="M503035.36,603885.6l0,-380" />
          <path d="M503035.36,603505.6l-60,0" />
          <path d="M505935.36,603505.6l-900,0" />
          <path d="M505035.36,603505.6l0,380" />
          <path d="M505035.36,603885.6l900,0" />
          <path d="M505935.36,603885.6l0,-380" />
          <use xlink:href="#$TCHSYS$WIN2D_2000x380" x="504035.36" y="603695.6" transform="scale(-1,-1) translate(-1008070.72,-1207391.2) rotate(-180,504035.36,603695.6)">.</use>
          <use xlink:href="#$TCHSYS$WIN2D_2000x380" x="506935.36" y="603695.6" transform="scale(-1,-1) translate(-1013870.72,-1207391.2) rotate(-180,506935.36,603695.6)">.</use>
          <use xlink:href="#$TCHSYS$WIN2D_2000x380" x="501135.36" y="603695.6" transform="scale(-1,-1) translate(-1002270.72,-1207391.2) rotate(-180,501135.36,603695.6)">.</use>
          <use xlink:href="#$TCHSYS$WIN2D_1500x380" x="496785.36" y="595155.6" transform="scale(1,-1) translate(0,-1190311.2) rotate(-270,496785.36,595155.6)">.</use>
          <use xlink:href="#$TCHSYS$WIN2D_1500x380" x="496785.36" y="598155.6" transform="scale(1,-1) translate(0,-1196311.2) rotate(-270,496785.36,598155.6)">.</use>
          <use xlink:href="#$TCHSYS$WIN2D_1500x380" x="496785.36" y="601155.6" transform="scale(1,-1) translate(0,-1202311.2) rotate(-270,496785.36,601155.6)">.</use>
          <path d="M496595.36,587825.6l-575,0" />
          <path d="M496020.36,587825.6l0,380" />
          <path d="M496020.36,588205.6l575,0" />
          <path d="M479285.36,588205.6l735,0" />
          <path d="M480020.36,588205.6l0,-380" />
          <path d="M480020.36,587825.6l-545,0" />
          <path d="M494020.36,587825.6l-1500,0" />
          <path d="M492520.36,587825.6l0,380" />
          <path d="M492520.36,588205.6l1500,0" />
          <path d="M494020.36,588205.6l0,-380" />
          <path d="M490520.36,587825.6l-1500,0" />
          <path d="M489020.36,587825.6l0,380" />
          <path d="M489020.36,588205.6l1500,0" />
          <path d="M490520.36,588205.6l0,-380" />
          <path d="M487020.36,587825.6l-1500,0" />
          <path d="M485520.36,587825.6l0,380" />
          <path d="M485520.36,588205.6l1500,0" />
          <path d="M487020.36,588205.6l0,-380" />
          <path d="M483520.36,587825.6l-1500,0" />
          <path d="M482020.36,587825.6l0,380" />
          <path d="M482020.36,588205.6l1500,0" />
          <path d="M483520.36,588205.6l0,-380" />
          <use xlink:href="#$TCHSYS$WIN2D_2000x380" x="495020.36" y="588015.6" transform="scale(-1,-1) translate(-990040.72,-1176031.2) rotate(-180,495020.36,588015.6)">.</use>
          <use xlink:href="#$TCHSYS$WIN2D_2000x380" x="491520.36" y="588015.6" transform="scale(-1,-1) translate(-983040.72,-1176031.2) rotate(-180,491520.36,588015.6)">.</use>
          <use xlink:href="#$TCHSYS$WIN2D_2000x380" x="488020.36" y="588015.6" transform="scale(-1,-1) translate(-976040.72,-1176031.2) rotate(-180,488020.36,588015.6)">.</use>
          <use xlink:href="#$TCHSYS$WIN2D_2000x380" x="484520.36" y="588015.6" transform="scale(-1,-1) translate(-969040.72,-1176031.2) rotate(-180,484520.36,588015.6)">.</use>
          <use xlink:href="#$TCHSYS$WIN2D_2000x380" x="481020.36" y="588015.6" transform="scale(-1,-1) translate(-962040.72,-1176031.2) rotate(-180,481020.36,588015.6)">.</use>
          <path d="M454975.36,581885.6l0,2790" />
          <path d="M454595.36,581885.6l0,2600" />
          <path d="M454595.36,603505.6l-3160,0" />
          <path d="M451435.36,603505.6l0,380" />
          <path d="M451435.36,603885.6l3540,0" />
          <path d="M440095.36,603885.6l3540,0" />
          <path d="M443635.36,603885.6l0,-380" />
          <path d="M443635.36,603505.6l-3160,0" />
          <path d="M449435.36,603505.6l-900,0" />
          <path d="M448535.36,603505.6l0,380" />
          <path d="M448535.36,603885.6l900,0" />
          <path d="M449435.36,603885.6l0,-380" />
          <path d="M446535.36,603505.6l-900,0" />
          <path d="M445635.36,603505.6l0,380" />
          <path d="M445635.36,603885.6l900,0" />
          <path d="M446535.36,603885.6l0,-380" />
          <use xlink:href="#$TCHSYS$WIN2D_2000x380" x="450435.36" y="603695.6" transform="scale(1,-1) translate(0,-1207391.2) rotate(-180,450435.36,603695.6)">.</use>
          <use xlink:href="#$TCHSYS$WIN2D_2000x380" x="447535.36" y="603695.6" transform="scale(1,-1) translate(0,-1207391.2) rotate(-180,447535.36,603695.6)">.</use>
          <use xlink:href="#$TCHSYS$WIN2D_2000x380" x="444635.36" y="603695.6" transform="scale(1,-1) translate(0,-1207391.2) rotate(-180,444635.36,603695.6)">.</use>
          <path d="M440475.36,579005.6l0,-575" />
          <path d="M440475.36,578430.6l-380,0" />
          <path d="M440095.36,578430.6l0,765" />
          <path d="M440095.36,573005.6l0,3425" />
          <path d="M440095.36,576430.6l380,0" />
          <path d="M440475.36,576430.6l0,-3045" />
          <use xlink:href="#$TCHSYS$WIN2D_2000x380" x="440285.36" y="577430.6" transform="scale(1,-1) translate(0,-1154861.2) rotate(-270,440285.36,577430.6)">.</use>
          <path d="M511095.36,579385.6l0,710" />
          <path d="M511095.36,580095.6l380,0" />
          <path d="M511475.36,580095.6l0,-900" />
          <path d="M511475.36,582695.6l0,-600" />
          <path d="M511475.36,582095.6l-380,0" />
          <path d="M511095.36,582095.6l0,410" />
          <use xlink:href="#$TCHSYS$WIN2D_2000x380" x="511285.36" y="581095.6" transform="scale(1,-1) translate(0,-1162191.2) rotate(-90,511285.36,581095.6)">.</use>
          <path d="M440475.36,579385.6l5120,0" />
          <path d="M445595.36,579385.6l0,-380" />
          <path d="M445595.36,579005.6l-5120,0" />
          <path d="M449685.36,579005.6l-2590,0" />
          <path d="M447095.36,579005.6l0,380" />
          <path d="M447095.36,579385.6l2400,0" />
          <use xlink:href="#$DorLib2D$00000002" x="297.564" y="386.13" transform="scale(1500,1500) scale(-1,1) translate(-595.13,0)" stroke-width="0.0001%">.</use>
          <use xlink:href="#$TCHSYS$WIN2D_2000x380" x="456550.36" y="573195.6" transform="scale(-1,-1) translate(-913100.72,-1146391.2)">.</use>
          <use xlink:href="#$TCHSYS$WIN2D_2000x380" x="460050.36" y="573195.6" transform="scale(-1,-1) translate(-920100.72,-1146391.2)">.</use>
          <use xlink:href="#$TCHSYS$WIN2D_2000x380" x="463550.36" y="573195.6" transform="scale(-1,-1) translate(-927100.72,-1146391.2)">.</use>
          <use xlink:href="#$DorLib2D$00000001" x="456.035" y="579.196" transform="scale(1000,1000) scale(-1,1) translate(-912.07,0)" stroke-width="0.0001%">.</use>
          <path d="M454595.36,579005.6l0,-5620" />
          <path d="M454975.36,579005.6l0,-5620" />
          <path d="M454975.36,573385.6l575,0" />
          <path d="M455550.36,573385.6l0,-380" />
          <path d="M455550.36,573005.6l-765,0" />
          <path d="M458285.36,573005.6l-735,0" />
          <path d="M457550.36,573005.6l0,380" />
          <path d="M457550.36,573385.6l545,0" />
          <use xlink:href="#$TCHSYS$WIN2D_2000x380" x="467050.36" y="573195.6" transform="scale(-1,-1) translate(-934100.72,-1146391.2)">.</use>
          <use xlink:href="#$TCHSYS$WIN2D_2000x380" x="470550.36" y="573195.6" transform="scale(-1,-1) translate(-941100.72,-1146391.2)">.</use>
          <path d="M454785.36,579385.6l750,0" />
          <path d="M455535.36,579385.6l0,-380" />
          <path d="M455535.36,579005.6l-560,0" />
          <path d="M458095.36,579005.6l-1560,0" />
          <path d="M456535.36,579005.6l0,380" />
          <path d="M456535.36,579385.6l1750,0" />
          <path d="M458095.36,579005.6l0,-5620" />
          <path d="M458475.36,579005.6l0,-5620" />
          <path d="M472475.36,573385.6l530,0" />
          <path d="M473005.36,573385.6l0,-380" />
          <path d="M473005.36,573005.6l-720,0" />
          <path d="M479285.36,573005.6l-720,0" />
          <path d="M478565.36,573005.6l0,380" />
          <path d="M478565.36,573385.6l530,0" />
          <path d="M474605.36,573385.6l380,0" />
          <path d="M474985.36,573385.6l0,-380" />
          <path d="M474985.36,573005.6l-380,0" />
          <path d="M474605.36,573005.6l0,380" />
          <path d="M476585.36,573385.6l380,0" />
          <path d="M476965.36,573385.6l0,-380" />
          <path d="M476965.36,573005.6l-380,0" />
          <path d="M476585.36,573005.6l0,380" />
          <use xlink:href="#$TCHSYS$WIN2D_1600x380" x="475785.36" y="573195.6" transform="scale(1,-1) translate(0,-1146391.2)">.</use>
          <use xlink:href="#$TCHSYS$WIN2D_1600x380" x="473805.36" y="573195.6" transform="scale(1,-1) translate(0,-1146391.2)">.</use>
          <use xlink:href="#$TCHSYS$WIN2D_1600x380" x="477765.36" y="573195.6" transform="scale(-1,-1) translate(-955530.72,-1146391.2)">.</use>
          <path d="M472095.36,579005.6l0,-5620" />
          <path d="M472475.36,579385.6l0,-6000" />
          <path d="M479475.36,573385.6l545,0" />
          <path d="M480020.36,573385.6l0,-380" />
          <path d="M480020.36,573005.6l-735,0" />
          <path d="M482785.36,573005.6l-765,0" />
          <path d="M482020.36,573005.6l0,380" />
          <path d="M482020.36,573385.6l575,0" />
          <use xlink:href="#$TCHSYS$WIN2D_2000x380" x="481020.36" y="573195.6" transform="scale(1,-1) translate(0,-1146391.2)">.</use>
          <path d="M479475.36,579005.6l710,0" />
          <path d="M479095.36,579385.6l900,0" />
          <path d="M479095.36,579385.6l0,-6000" />
          <path d="M479475.36,579005.6l0,-5620" />
          <path d="M486475.36,573385.6l545,0" />
          <path d="M487020.36,573385.6l0,-380" />
          <path d="M487020.36,573005.6l-735,0" />
          <path d="M489785.36,573005.6l-765,0" />
          <path d="M489020.36,573005.6l0,380" />
          <path d="M489020.36,573385.6l575,0" />
          <use xlink:href="#$TCHSYS$WIN2D_2000x380" x="488020.36" y="573195.6" transform="scale(1,-1) translate(0,-1146391.2)">.</use>
          <use xlink:href="#$TCHSYS$WIN2D_2000x380" x="495020.36" y="573195.6" transform="scale(1,-1) translate(0,-1146391.2)">.</use>
          <use xlink:href="#$TCHSYS$WIN2D_2000x380" x="491520.36" y="573195.6" transform="scale(1,-1) translate(0,-1146391.2)">.</use>
          <path d="M486285.36,579385.6l1750,0" />
          <path d="M488035.36,579385.6l0,-380" />
          <path d="M488035.36,579005.6l-1560,0" />
          <path d="M489595.36,579005.6l-560,0" />
          <path d="M489035.36,579005.6l0,380" />
          <path d="M489035.36,579385.6l750,0" />
          <use xlink:href="#$DorLib2D$00000001" x="488.535" y="579.196" transform="scale(1000,1000)" stroke-width="0.0001%">.</use>
          <use xlink:href="#$DorLib2D$00000001" x="495.535" y="579.196" transform="scale(1000,1000)" stroke-width="0.0001%">.</use>
          <path d="M486095.36,579005.6l0,-5620" />
          <path d="M486475.36,579005.6l0,-5620" />
          <path d="M496975.36,573385.6l545,0" />
          <path d="M497520.36,573385.6l0,-380" />
          <path d="M497520.36,573005.6l-735,0" />
          <path d="M511475.36,573005.6l-2000,0" />
          <path d="M509475.36,573385.6l1620,0" />
          <path d="M499520.36,573385.6l1500,0" />
          <path d="M501020.36,573385.6l0,-380" />
          <path d="M501020.36,573005.6l-1500,0" />
          <path d="M499520.36,573005.6l0,380" />
          <path d="M503020.36,573385.6l1500,0" />
          <path d="M504520.36,573385.6l0,-380" />
          <path d="M504520.36,573005.6l-1500,0" />
          <path d="M503020.36,573005.6l0,380" />
          <path d="M506520.36,573385.6l1955,0" />
          <path d="M509475.36,573005.6l-2955,0" />
          <path d="M506520.36,573005.6l0,380" />
          <use xlink:href="#$TCHSYS$WIN2D_2000x380" x="505520.36" y="573195.6" transform="scale(1,-1) translate(0,-1146391.2)">.</use>
          <use xlink:href="#$TCHSYS$WIN2D_2000x380" x="502020.36" y="573195.6" transform="scale(1,-1) translate(0,-1146391.2)">.</use>
          <use xlink:href="#$TCHSYS$WIN2D_2000x380" x="498520.36" y="573195.6" transform="scale(1,-1) translate(0,-1146391.2)">.</use>
          <path d="M496785.36,579385.6l750,0" />
          <path d="M497535.36,579385.6l0,-380" />
          <path d="M497535.36,579005.6l-560,0" />
          <path d="M501885.36,579005.6l-3350,0" />
          <path d="M498535.36,579005.6l0,380" />
          <path d="M498535.36,579385.6l3160,0" />
          <use xlink:href="#$DorLib2D$00000001" x="498.035" y="579.196" transform="scale(1000,1000) scale(-1,1) translate(-996.07,0)" stroke-width="0.0001%">.</use>
          <path d="M496595.36,579005.6l0,-5620" />
          <path d="M496975.36,579005.6l0,-5620" />
          <path d="M482975.36,573385.6l545,0" />
          <path d="M483520.36,573385.6l0,-380" />
          <path d="M483520.36,573005.6l-735,0" />
          <path d="M486285.36,573005.6l-765,0" />
          <path d="M485520.36,573005.6l0,380" />
          <path d="M485520.36,573385.6l575,0" />
          <use xlink:href="#$TCHSYS$WIN2D_2000x380" x="484520.36" y="573195.6" transform="scale(1,-1) translate(0,-1146391.2)">.</use>
          <path d="M482785.36,579385.6l690,0" />
          <path d="M483475.36,579385.6l0,-380" />
          <path d="M483475.36,579005.6l-500,0" />
          <path d="M486095.36,579005.6l-1620,0" />
          <path d="M484475.36,579005.6l0,380" />
          <path d="M484475.36,579385.6l1810,0" />
          <use xlink:href="#$DorLib2D$00000001" x="483.975" y="579.196" transform="scale(1000,1000) scale(-1,1) translate(-967.95,0) rotate(-360,483.98,579.2)" stroke-width="0.0001%">.</use>
          <path d="M482595.36,579005.6l0,-5620" />
          <path d="M482975.36,579005.6l0,-5620" />
          <path d="M502595.36,581885.6l-710,0" />
          <path d="M502975.36,581505.6l-900,0" />
          <path d="M496975.36,593005.6l0,-100" />
          <path d="M496975.36,592905.6l-380,0" />
          <path d="M496595.36,592905.6l0,290" />
          <path d="M496595.36,590455.6l0,950" />
          <path d="M496595.36,591405.6l380,0" />
          <path d="M496975.36,591405.6l0,-760" />
          <use xlink:href="#$TCHSYS$WIN2D_1500x380" x="496785.36" y="592155.6" transform="scale(1,-1) translate(0,-1184311.2) rotate(-270,496785.36,592155.6)">.</use>
          <path d="M511095.36,593385.6l0,710" />
          <path d="M511095.36,594095.6l380,0" />
          <path d="M511475.36,594095.6l0,-900" />
          <path d="M511475.36,596695.6l0,-600" />
          <path d="M511475.36,596095.6l-380,0" />
          <path d="M511095.36,596095.6l0,410" />
          <use xlink:href="#$TCHSYS$WIN2D_2000x380" x="511285.36" y="595095.6" transform="scale(-1,-1) translate(-1022570.72,-1190191.2) rotate(-270,511285.36,595095.6)">.</use>
          <path d="M496975.36,593005.6l5620,0" />
          <path d="M496975.36,593385.6l5620,0" />
          <path d="M496595.36,587825.6l0,-3150" />
          <path d="M496975.36,588015.6l0,-3150" />
          <path d="M502595.36,603505.6l0,-6810" />
          <path d="M502975.36,603505.6l0,-6620" />
          <path d="M496785.36,581505.6l-750,0" />
          <path d="M496035.36,581505.6l0,380" />
          <path d="M496035.36,581885.6l560,0" />
          <path d="M489885.36,581885.6l5150,0" />
          <path d="M495035.36,581885.6l0,-380" />
          <path d="M495035.36,581505.6l-5265,0" />
          <use xlink:href="#$DorLib2D$00000001" x="495.535" y="581.696" transform="scale(1000,1000) scale(-1,1) translate(-991.07,0) rotate(-180,495.54,581.7)" stroke-width="0.0001%">.</use>
          <path d="M505475.36,593005.6l0,-5320" />
          <path d="M505475.36,587685.6l-380,0" />
          <path d="M505095.36,587685.6l0,5510" />
          <path d="M505095.36,586195.6l0,490" />
          <path d="M505095.36,586685.6l380,0" />
          <path d="M505475.36,586685.6l0,-300" />
          <use xlink:href="#$DorLib2D$00000001" x="505.285" y="587.186" transform="scale(1000,1000) scale(1,-1) translate(0,-1174.37) rotate(-270,505.29,587.19)" stroke-width="0.0001%">.</use>
          <path d="M505475.36,593005.6l5620,0" />
          <path d="M505475.36,593385.6l5620,0" />
          <path d="M511095.36,582885.6l0,710" />
          <path d="M511095.36,583595.6l380,0" />
          <path d="M511475.36,583595.6l0,-900" />
          <path d="M511475.36,586195.6l0,-600" />
          <path d="M511475.36,585595.6l-380,0" />
          <path d="M511095.36,585595.6l0,410" />
          <use xlink:href="#$TCHSYS$WIN2D_2000x380" x="511285.36" y="584595.6" transform="scale(-1,-1) translate(-1022570.72,-1169191.2) rotate(-270,511285.36,584595.6)">.</use>
          <path d="M505095.36,582505.6l6000,0" />
          <path d="M505475.36,582885.6l5620,0" />
          <path d="M502075.36,581505.6l0,-310" />
          <path d="M502075.36,581195.6l-380,0" />
          <path d="M501695.36,581195.6l0,310" />
          <path d="M501695.36,579385.6l0,310" />
          <path d="M501695.36,579695.6l380,0" />
          <path d="M502075.36,579695.6l0,-310" />
          <path d="M501695.36,579695.6l0,1500" />
          <path d="M502075.36,581195.6l0,-1500" />
          <path d="M502075.36,579385.6l2400,0" />
          <path d="M504475.36,579385.6l0,-380" />
          <path d="M504475.36,579005.6l-2590,0" />
          <path d="M511095.36,579005.6l-5120,0" />
          <path d="M505975.36,579005.6l0,380" />
          <path d="M505975.36,579385.6l5120,0" />
          <use xlink:href="#$DorLib2D$00000002" x="336.817" y="386.13" transform="scale(1500,1500)" stroke-width="0.0001%">.</use>
          <path d="M501695.36,581505.6l-500,0" />
          <path d="M501195.36,581505.6l0,380" />
          <path d="M501195.36,581885.6l690,0" />
          <path d="M496975.36,581885.6l3220,0" />
          <path d="M500195.36,581885.6l0,-380" />
          <path d="M500195.36,581505.6l-3410,0" />
          <use xlink:href="#$DorLib2D$00000001" x="500.695" y="581.696" transform="scale(1000,1000) scale(1,-1) translate(0,-1163.39) rotate(-180,500.7,581.7)" stroke-width="0.0001%">.</use>
          <path d="M502095.36,584485.6l-1000,0" />
          <path d="M501095.36,584865.6l1000,0" />
          <path d="M502975.36,583785.6l310,0" />
          <path d="M503285.36,583785.6l0,-380" />
          <path d="M503285.36,583405.6l-310,0" />
          <path d="M505095.36,583405.6l-310,0" />
          <path d="M504785.36,583405.6l0,380" />
          <path d="M504785.36,583785.6l310,0" />
          <path d="M504785.36,583405.6l-1500,0" />
          <path d="M503285.36,583785.6l1500,0" />
          <path d="M502595.36,583595.6l0,-1710" />
          <path d="M502975.36,583405.6l0,-1900" />
          <path d="M505095.36,583405.6l0,-900" />
          <path d="M505475.36,583595.6l0,-710" />
          <path d="M454595.36,588015.6l0,390" />
          <path d="M454595.36,588405.6l380,0" />
          <path d="M454975.36,588405.6l0,-200" />
          <path d="M454975.36,593195.6l0,-290" />
          <path d="M454975.36,592905.6l-380,0" />
          <path d="M454595.36,592905.6l0,100" />
          <path d="M454595.36,589905.6l0,1500" />
          <path d="M454595.36,591405.6l380,0" />
          <path d="M454975.36,591405.6l0,-1500" />
          <path d="M454975.36,589905.6l-380,0" />
          <use xlink:href="#$TCHSYS$WIN2D_1500x380" x="454785.36" y="589155.6" transform="scale(-1,-1) translate(-909570.72,-1178311.2) rotate(-270,454785.36,589155.6)">.</use>
          <use xlink:href="#$TCHSYS$WIN2D_1500x380" x="454785.36" y="592155.6" transform="scale(-1,-1) translate(-909570.72,-1184311.2) rotate(-270,454785.36,592155.6)">.</use>
          <use xlink:href="#$DorLib2D$00000001" x="481.565" y="579.196" transform="scale(1000,1000) rotate(-360,481.57,579.2)" stroke-width="0.0001%">.</use>
          <path d="M505475.36,586005.6l0,-300" />
          <path d="M505475.36,585705.6l-380,0" />
          <path d="M505095.36,585705.6l0,490" />
          <path d="M505095.36,583785.6l0,920" />
          <path d="M505095.36,584705.6l380,0" />
          <path d="M505475.36,584705.6l0,-1110" />
          <use xlink:href="#$DorLib2D$00000001" x="505.285" y="585.206" transform="scale(1000,1000) scale(-1,-1) translate(-1010.57,-1170.41) rotate(-90,505.29,585.21)" stroke-width="0.0001%">.</use>
          <path d="M511095.36,586385.6l0,710" />
          <path d="M511095.36,587095.6l380,0" />
          <path d="M511475.36,587095.6l0,-900" />
          <path d="M511475.36,593195.6l0,-600" />
          <path d="M511475.36,592595.6l-380,0" />
          <path d="M511095.36,592595.6l0,410" />
          <path d="M511095.36,589095.6l0,1500" />
          <path d="M511095.36,590595.6l380,0" />
          <path d="M511475.36,590595.6l0,-1500" />
          <path d="M511475.36,589095.6l-380,0" />
          <use xlink:href="#$TCHSYS$WIN2D_2000x380" x="511285.36" y="588095.6" transform="scale(-1,-1) translate(-1022570.72,-1176191.2) rotate(-270,511285.36,588095.6)">.</use>
          <use xlink:href="#$TCHSYS$WIN2D_2000x380" x="511285.36" y="591595.6" transform="scale(-1,-1) translate(-1022570.72,-1183191.2) rotate(-270,511285.36,591595.6)">.</use>
          <path d="M505475.36,586005.6l5620,0" />
          <path d="M505475.36,586385.6l5620,0" />
          <path d="M496975.36,584865.6l4120,0" />
          <path d="M501095.36,584485.6l-4120,0" />
          <path d="M502595.36,584485.6l-500,0" />
          <path d="M502095.36,584865.6l500,0" />
          <path d="M496595.36,584675.6l0,-2790" />
          <path d="M496975.36,584485.6l0,-2600" />
          <path d="M502595.36,584485.6l0,-890" />
          <path d="M502975.36,584675.6l0,-890" />
          <path d="M496975.36,590265.6l5620,0" />
          <path d="M496975.36,590645.6l5620,0" />
          <path d="M496975.36,590265.6l0,-360" />
          <path d="M496975.36,589905.6l-380,0" />
          <path d="M496595.36,589905.6l0,550" />
          <path d="M496595.36,588205.6l0,200" />
          <path d="M496595.36,588405.6l380,0" />
          <path d="M496975.36,588405.6l0,-390" />
          <use xlink:href="#$TCHSYS$WIN2D_1500x380" x="496785.36" y="589155.6" transform="scale(1,-1) translate(0,-1178311.2) rotate(-270,496785.36,589155.6)">.</use>
          <path d="M502975.36,590455.6l0,-4290" />
          <path d="M502975.36,586165.6l-380,0" />
          <path d="M502595.36,586165.6l0,4100" />
          <path d="M502595.36,584865.6l0,300" />
          <path d="M502595.36,585165.6l380,0" />
          <path d="M502975.36,585165.6l0,-490" />
          <use xlink:href="#$DorLib2D$00000001" x="502.785" y="585.666" transform="scale(1000,1000) rotate(-90,502.79,585.67)" stroke-width="0.0001%">.</use>
          <path d="M448595.36,581505.6l900,0" />
          <path d="M448975.36,581885.6l710,0" />
          <path d="M454595.36,596795.6l-5900,0" />
          <path d="M454595.36,596595.6l-5800,0" />
          <use xlink:href="#$DorLib2D$00000001" x="448.785" y="585.866" transform="scale(1000,1000) scale(1,-1) translate(0,-1171.73) rotate(-270,448.79,585.87)" stroke-width="0.0001%">.</use>
          <use xlink:href="#$DorLib2D$00000002" x="298.357" y="397.797" transform="scale(1500,1500) scale(-1,-1) translate(-596.71,-795.59) rotate(-180,298.36,397.8)" stroke-width="0.0001%">.</use>
          <path d="M446475.36,596595.6l0,-1310" />
          <path d="M446475.36,595285.6l-380,0" />
          <path d="M446095.36,595285.6l0,1310" />
          <path d="M446095.36,593385.6l0,900" />
          <path d="M446095.36,594285.6l380,0" />
          <path d="M446475.36,594285.6l0,-1090" />
          <use xlink:href="#$DorLib2D$00000001" x="446.285" y="594.786" transform="scale(1000,1000) rotate(-90,446.29,594.79)" stroke-width="0.0001%">.</use>
          <use xlink:href="#$DorLib2D$00000001" x="446.285" y="590.546" transform="scale(1000,1000) rotate(-90,446.29,590.55)" stroke-width="0.0001%">.</use>
          <path d="M446095.36,582885.6l-5620,0" />
          <path d="M446475.36,582505.6l-6000,0" />
          <path d="M449875.36,581505.6l0,-310" />
          <path d="M449875.36,581195.6l-380,0" />
          <path d="M449495.36,581195.6l0,310" />
          <path d="M449495.36,579385.6l0,310" />
          <path d="M449495.36,579695.6l380,0" />
          <path d="M449875.36,579695.6l0,-310" />
          <path d="M449495.36,579695.6l0,1500" />
          <path d="M449875.36,581195.6l0,-1500" />
          <path d="M449685.36,581885.6l3350,0" />
          <path d="M453035.36,581885.6l0,-380" />
          <path d="M453035.36,581505.6l-3160,0" />
          <path d="M454785.36,581505.6l-750,0" />
          <path d="M454035.36,581505.6l0,380" />
          <path d="M454035.36,581885.6l560,0" />
          <use xlink:href="#$DorLib2D$00000001" x="453.535" y="581.696" transform="scale(1000,1000) scale(1,-1) translate(0,-1163.39)" stroke-width="0.0001%">.</use>
          <path d="M450175.36,581632.27l1200,0" />
          <path d="M450175.36,581758.93l1200,0" />
          <path d="M451375.36,581505.6l0,380" />
          <path d="M450175.36,581505.6l0,380" />
          <path d="M448595.36,583405.6l-310,0" />
          <path d="M448285.36,583405.6l0,380" />
          <path d="M448285.36,583785.6l310,0" />
          <path d="M446475.36,583785.6l310,0" />
          <path d="M446785.36,583785.6l0,-380" />
          <path d="M446785.36,583405.6l-310,0" />
          <path d="M446785.36,583785.6l1500,0" />
          <path d="M448285.36,583405.6l-1500,0" />
          <path d="M448595.36,583405.6l0,-1900" />
          <path d="M448975.36,583595.6l0,-1710" />
          <path d="M446095.36,583595.6l0,-710" />
          <path d="M446475.36,583405.6l0,-900" />
          <use xlink:href="#$DorLib2D$00000002" x="302.19" y="386.13" transform="scale(1500,1500) scale(-1,1) translate(-604.38,0)" stroke-width="0.0001%">.</use>
          <path d="M446475.36,593195.6l0,-2150" />
          <path d="M446475.36,591045.6l-380,0" />
          <path d="M446095.36,591045.6l0,1960" />
          <path d="M446095.36,583595.6l0,1110" />
          <path d="M446095.36,584705.6l380,0" />
          <path d="M446475.36,584705.6l0,-920" />
          <path d="M446475.36,590045.6l0,-4340" />
          <path d="M446475.36,585705.6l-380,0" />
          <path d="M446095.36,585705.6l0,4340" />
          <path d="M446095.36,590045.6l380,0" />
          <use xlink:href="#$DorLib2D$00000001" x="446.285" y="585.206" transform="scale(1000,1000) scale(-1,1) translate(-892.57,0) rotate(-270,446.29,585.21)" stroke-width="0.0001%">.</use>
          <path d="M454595.36,584865.6l-5620,0" />
          <path d="M454595.36,584485.6l-5620,0" />
          <path d="M448595.36,584675.6l0,-890" />
          <path d="M448975.36,584485.6l0,-890" />
          <use xlink:href="#$DorLib2D$00000001" x="448.785" y="592.006" transform="scale(1000,1000) scale(-1,-1) translate(-897.57,-1184.01) rotate(-90,448.79,592.01)" stroke-width="0.0001%">.</use>
          <use xlink:href="#$TCHSYS$WIN2D_1500x380" x="454785.36" y="595155.6" transform="scale(-1,-1) translate(-909570.72,-1190311.2) rotate(-270,454785.36,595155.6)">.</use>
          <use xlink:href="#$TCHSYS$WIN2D_1500x380" x="454785.36" y="598155.6" transform="scale(-1,-1) translate(-909570.72,-1196311.2) rotate(-270,454785.36,598155.6)">.</use>
          <use xlink:href="#$TCHSYS$WIN2D_1500x380" x="454785.36" y="601155.6" transform="scale(-1,-1) translate(-909570.72,-1202311.2) rotate(-270,454785.36,601155.6)">.</use>
          <use xlink:href="#$TCHSYS$WIN2D_2000x380" x="440285.36" y="588095.6" transform="scale(1,-1) translate(0,-1176191.2) rotate(-270,440285.36,588095.6)">.</use>
          <use xlink:href="#$TCHSYS$WIN2D_2000x380" x="440285.36" y="591595.6" transform="scale(1,-1) translate(0,-1183191.2) rotate(-270,440285.36,591595.6)">.</use>
          <path d="M440475.36,582505.6l0,-410" />
          <path d="M440475.36,582095.6l-380,0" />
          <path d="M440095.36,582095.6l0,600" />
          <path d="M440095.36,579195.6l0,900" />
          <path d="M440095.36,580095.6l380,0" />
          <path d="M440475.36,580095.6l0,-710" />
          <use xlink:href="#$TCHSYS$WIN2D_2000x380" x="440285.36" y="581095.6" transform="scale(-1,-1) translate(-880570.72,-1162191.2) rotate(-90,440285.36,581095.6)">.</use>
          <path d="M449875.36,579385.6l2660,0" />
          <path d="M452535.36,579385.6l0,-380" />
          <path d="M452535.36,579005.6l-2850,0" />
          <path d="M454595.36,579005.6l-560,0" />
          <path d="M454035.36,579005.6l0,380" />
          <path d="M454035.36,579385.6l750,0" />
          <path d="M440475.36,593005.6l0,-410" />
          <path d="M440475.36,592595.6l-380,0" />
          <path d="M440095.36,592595.6l0,600" />
          <path d="M440095.36,582695.6l0,900" />
          <path d="M440095.36,583595.6l380,0" />
          <path d="M440475.36,583595.6l0,-710" />
          <path d="M440475.36,590595.6l0,-1500" />
          <path d="M440475.36,589095.6l-380,0" />
          <path d="M440095.36,589095.6l0,1500" />
          <path d="M440095.36,590595.6l380,0" />
          <path d="M440475.36,587095.6l0,-1500" />
          <path d="M440475.36,585595.6l-380,0" />
          <path d="M440095.36,585595.6l0,1500" />
          <path d="M440095.36,587095.6l380,0" />
          <use xlink:href="#$TCHSYS$WIN2D_2000x380" x="440285.36" y="584595.6" transform="scale(1,-1) translate(0,-1169191.2) rotate(-270,440285.36,584595.6)">.</use>
          <path d="M454975.36,584675.6l0,3150" />
          <path d="M454595.36,584865.6l0,3150" />
          <path d="M479285.36,581505.6l-3000,0" />
          <path d="M476285.36,581505.6l0,380" />
          <path d="M476285.36,581885.6l2810,0" />
          <path d="M472475.36,581885.6l2810,0" />
          <path d="M475285.36,581885.6l0,-380" />
          <path d="M475285.36,581505.6l-3000,0" />
          <use xlink:href="#$DorLib2D$00000001" x="475.785" y="581.696" transform="scale(1000,1000) rotate(-180,475.79,581.7)" stroke-width="0.0001%">.</use>
          <path d="M479095.36,587825.6l-560,0" />
          <path d="M478535.36,587825.6l0,380" />
          <path d="M478535.36,588205.6l750,0" />
          <path d="M472285.36,588205.6l750,0" />
          <path d="M473035.36,588205.6l0,-380" />
          <path d="M473035.36,587825.6l-560,0" />
          <path d="M477035.36,587825.6l-500,0" />
          <path d="M476535.36,587825.6l0,380" />
          <path d="M476535.36,588205.6l500,0" />
          <path d="M477035.36,588205.6l0,-380" />
          <path d="M475035.36,587825.6l-500,0" />
          <path d="M474535.36,587825.6l0,380" />
          <path d="M474535.36,588205.6l500,0" />
          <path d="M475035.36,588205.6l0,-380" />
          <use xlink:href="#$DorLib2D$00000002" x="317.19" y="392.01" transform="scale(1500,1500) scale(-1,1) translate(-634.38,0) rotate(-180,317.19,392.01)" stroke-width="0.0001%">.</use>
          <use xlink:href="#$TCHSYS$WIN2D_1500x380" x="473785.36" y="588015.6" transform="scale(-1,-1) translate(-947570.72,-1176031.2) rotate(-180,473785.36,588015.6)">.</use>
          <use xlink:href="#$TCHSYS$WIN2D_1500x380" x="477785.36" y="588015.6" transform="scale(1,-1) translate(0,-1176031.2) rotate(-180,477785.36,588015.6)">.</use>
          <use xlink:href="#$TCHSYS$WIN2D_2000x380" x="470550.36" y="588015.6" transform="scale(1,-1) translate(0,-1176031.2) rotate(-180,470550.36,588015.6)">.</use>
          <use xlink:href="#$TCHSYS$WIN2D_2000x380" x="456550.36" y="588015.6" transform="scale(1,-1) translate(0,-1176031.2) rotate(-180,456550.36,588015.6)">.</use>
          <use xlink:href="#$TCHSYS$WIN2D_2000x380" x="460050.36" y="588015.6" transform="scale(1,-1) translate(0,-1176031.2) rotate(-180,460050.36,588015.6)">.</use>
          <use xlink:href="#$TCHSYS$WIN2D_2000x380" x="463550.36" y="588015.6" transform="scale(1,-1) translate(0,-1176031.2) rotate(-180,463550.36,588015.6)">.</use>
          <use xlink:href="#$TCHSYS$WIN2D_2000x380" x="467050.36" y="588015.6" transform="scale(1,-1) translate(0,-1176031.2) rotate(-180,467050.36,588015.6)">.</use>
          <use xlink:href="#$DorLib2D$00000001" x="481.565" y="581.696" transform="scale(1000,1000) scale(-1,1) translate(-963.13,0) rotate(-180,481.57,581.7)" stroke-width="0.0001%">.</use>
          <path d="M480375.36,581505.6l0,-310" />
          <path d="M480375.36,581195.6l-380,0" />
          <path d="M479995.36,581195.6l0,310" />
          <path d="M479995.36,579385.6l0,310" />
          <path d="M479995.36,579695.6l380,0" />
          <path d="M480375.36,579695.6l0,-310" />
          <path d="M479995.36,579695.6l0,1500" />
          <path d="M480375.36,581195.6l0,-1500" />
          <path d="M480185.36,581885.6l-710,0" />
          <path d="M479995.36,581505.6l-710,0" />
          <path d="M480375.36,579385.6l690,0" />
          <path d="M481065.36,579385.6l0,-380" />
          <path d="M481065.36,579005.6l-880,0" />
          <path d="M482595.36,579005.6l-530,0" />
          <path d="M482065.36,579005.6l0,380" />
          <path d="M482065.36,579385.6l720,0" />
          <path d="M471575.36,581505.6l0,-310" />
          <path d="M471575.36,581195.6l-380,0" />
          <path d="M471195.36,581195.6l0,310" />
          <path d="M471195.36,579385.6l0,310" />
          <path d="M471195.36,579695.6l380,0" />
          <path d="M471575.36,579695.6l0,-310" />
          <path d="M471195.36,579695.6l0,1500" />
          <path d="M471575.36,581195.6l0,-1500" />
          <path d="M471195.36,581505.6l-690,0" />
          <path d="M470505.36,581505.6l0,380" />
          <path d="M470505.36,581885.6l880,0" />
          <path d="M458360.36,581885.6l5205,0" />
          <path d="M463565.36,581885.6l0,-380" />
          <path d="M463565.36,581505.6l-5280,0" />
          <path d="M469505.36,581505.6l-2500,0" />
          <path d="M467005.36,581505.6l0,380" />
          <path d="M467005.36,581885.6l2500,0" />
          <path d="M469505.36,581885.6l0,-380" />
          <path d="M466005.36,581505.6l-1440,0" />
          <path d="M464565.36,581505.6l0,380" />
          <path d="M464565.36,581885.6l1440,0" />
          <path d="M466005.36,581885.6l0,-380" />
          <use xlink:href="#$DorLib2D$00000001" x="470.005" y="581.696" transform="scale(1000,1000) scale(-1,1) translate(-940.01,0) rotate(-180,470.01,581.7)" stroke-width="0.0001%">.</use>
          <path d="M466005.36,581885.6l1000,0" />
          <path d="M467005.36,581505.6l-1000,0" />
          <use xlink:href="#$DorLib2D$00000001" x="464.065" y="581.696" transform="scale(1000,1000) rotate(-180,464.07,581.7)" stroke-width="0.0001%">.</use>
          <path d="M471385.36,579005.6l710,0" />
          <path d="M471575.36,579385.6l900,0" />
          <path d="M479095.36,587825.6l0,-5940" />
          <path d="M479475.36,587825.6l0,-5940" />
          <path d="M472095.36,587825.6l0,-5940" />
          <path d="M472475.36,587825.6l0,-5940" />
          <path d="M472095.36,587825.6l-545,0" />
          <path d="M471550.36,587825.6l0,380" />
          <path d="M471550.36,588205.6l735,0" />
          <path d="M458285.36,588205.6l765,0" />
          <path d="M459050.36,588205.6l0,-380" />
          <path d="M459050.36,587825.6l-690,0" />
          <path d="M469550.36,587825.6l-1500,0" />
          <path d="M468050.36,587825.6l0,380" />
          <path d="M468050.36,588205.6l1500,0" />
          <path d="M469550.36,588205.6l0,-380" />
          <path d="M466050.36,587825.6l-1500,0" />
          <path d="M464550.36,587825.6l0,380" />
          <path d="M464550.36,588205.6l1500,0" />
          <path d="M466050.36,588205.6l0,-380" />
          <path d="M462550.36,587825.6l-1500,0" />
          <path d="M461050.36,587825.6l0,380" />
          <path d="M461050.36,588205.6l1500,0" />
          <path d="M462550.36,588205.6l0,-380" />
          <path d="M454595.36,596795.6l0,610" />
          <path d="M454595.36,597405.6l380,0" />
          <path d="M454975.36,597405.6l0,-710" />
          <path d="M454975.36,603885.6l0,-1980" />
          <path d="M454975.36,601905.6l-380,0" />
          <path d="M454595.36,601905.6l0,1600" />
          <path d="M454595.36,598905.6l0,1500" />
          <path d="M454595.36,600405.6l380,0" />
          <path d="M454975.36,600405.6l0,-1500" />
          <path d="M454975.36,598905.6l-380,0" />
          <path d="M440475.36,603505.6l0,-7410" />
          <path d="M440475.36,596095.6l-380,0" />
          <path d="M440095.36,596095.6l0,7790" />
          <path d="M440095.36,593195.6l0,900" />
          <path d="M440095.36,594095.6l380,0" />
          <path d="M440475.36,594095.6l0,-710" />
          <path d="M454595.36,593385.6l-6000,0" />
          <path d="M454595.36,593005.6l-5620,0" />
          <path d="M454595.36,593385.6l0,1020" />
          <path d="M454595.36,594405.6l380,0" />
          <path d="M454975.36,594405.6l0,-1210" />
          <path d="M454975.36,596695.6l0,-790" />
          <path d="M454975.36,595905.6l-380,0" />
          <path d="M454595.36,595905.6l0,690" />
          <path d="M446095.36,593385.6l-5620,0" />
          <path d="M446095.36,593005.6l-5620,0" />
          <path d="M448595.36,593385.6l0,900" />
          <path d="M448595.36,594285.6l200,0" />
          <path d="M448795.36,594285.6l0,-900" />
          <path d="M448795.36,593385.6l-200,0" />
          <path d="M448795.36,596595.6l0,-1310" />
          <path d="M448795.36,595285.6l-200,0" />
          <path d="M448595.36,595285.6l0,1310" />
          <use xlink:href="#$DorLib2D$00000001" x="448.695" y="594.786" transform="scale(1000,1000) scale(-1,1) translate(-897.39,0) rotate(-90,448.7,594.79)" stroke-width="0.0001%">.</use>
          <path d="M448595.36,596595.6l-310,0" />
          <path d="M448285.36,596595.6l0,200" />
          <path d="M448285.36,596795.6l410,0" />
          <path d="M446285.36,596795.6l500,0" />
          <path d="M446785.36,596795.6l0,-200" />
          <path d="M446785.36,596595.6l-310,0" />
          <use xlink:href="#$DorLib2D$00000001" x="456.035" y="581.696" transform="scale(1000,1000) rotate(-180,456.04,581.7)" stroke-width="0.0001%">.</use>
          <path d="M489885.36,581885.6l0,5940" />
          <path d="M489685.36,581885.6l0,5940" />
          <path d="M489885.36,587825.6l-200,0" />
          <path d="M489770.36,581505.6l-1900,0" />
          <path d="M487870.36,581505.6l0,380" />
          <path d="M487870.36,581885.6l1815,0" />
          <path d="M486385.36,581885.6l485,0" />
          <path d="M486870.36,581885.6l0,-380" />
          <path d="M486870.36,581505.6l-600,0" />
          <use xlink:href="#$DorLib2D$00000001" x="487.37" y="581.696" transform="scale(1000,1000) rotate(-180,487.37,581.7)" stroke-width="0.0001%">.</use>
          <path d="M496975.36,603505.6l0,-1600" />
          <path d="M496975.36,601905.6l-380,0" />
          <path d="M496595.36,601905.6l0,1980" />
          <path d="M496595.36,593195.6l0,1210" />
          <path d="M496595.36,594405.6l380,0" />
          <path d="M496975.36,594405.6l0,-1020" />
          <path d="M496975.36,600405.6l0,-1500" />
          <path d="M496975.36,598905.6l-380,0" />
          <path d="M496595.36,598905.6l0,1500" />
          <path d="M496595.36,600405.6l380,0" />
          <path d="M496975.36,597405.6l0,-1500" />
          <path d="M496975.36,595905.6l-380,0" />
          <path d="M496595.36,595905.6l0,1500" />
          <path d="M496595.36,597405.6l380,0" />
          <path d="M458285.36,579385.6l780,0" />
          <path d="M459065.36,579385.6l0,-380" />
          <path d="M459065.36,579005.6l-590,0" />
          <path d="M471385.36,579005.6l-3585,0" />
          <path d="M467800.36,579005.6l0,380" />
          <path d="M467800.36,579385.6l3395,0" />
          <path d="M460565.36,579385.6l5735,0" />
          <path d="M466300.36,579385.6l0,-380" />
          <path d="M466300.36,579005.6l-5735,0" />
          <path d="M460565.36,579005.6l0,380" />
          <use xlink:href="#$DorLib2D$00000002" x="306.544" y="386.13" transform="scale(1500,1500)" stroke-width="0.0001%">.</use>
          <use xlink:href="#$DorLib2D$00000002" x="311.367" y="386.13" transform="scale(1500,1500)" stroke-width="0.0001%">.</use>
          <path d="M458475.36,573385.6l575,0" />
          <path d="M459050.36,573385.6l0,-380" />
          <path d="M459050.36,573005.6l-765,0" />
          <path d="M472285.36,573005.6l-735,0" />
          <path d="M471550.36,573005.6l0,380" />
          <path d="M471550.36,573385.6l545,0" />
          <path d="M461050.36,573385.6l1500,0" />
          <path d="M462550.36,573385.6l0,-380" />
          <path d="M462550.36,573005.6l-1500,0" />
          <path d="M461050.36,573005.6l0,380" />
          <path d="M464550.36,573385.6l1500,0" />
          <path d="M466050.36,573385.6l0,-380" />
          <path d="M466050.36,573005.6l-1500,0" />
          <path d="M464550.36,573005.6l0,380" />
          <path d="M468050.36,573385.6l1500,0" />
          <path d="M469550.36,573385.6l0,-380" />
          <path d="M469550.36,573005.6l-1500,0" />
          <path d="M468050.36,573005.6l0,380" />
          <path d="M472095.36,581885.6l-710,0" />
          <path d="M472285.36,581505.6l-710,0" />
          <path d="M486385.36,581885.6l0,5940" />
          <path d="M486185.36,581885.6l0,5940" />
          <path d="M486385.36,587825.6l-200,0" />
          <path d="M482885.36,581885.6l0,5940" />
          <path d="M482685.36,581885.6l0,5940" />
          <path d="M482885.36,587825.6l-200,0" />
          <path d="M486270.36,581505.6l-1795,0" />
          <path d="M484475.36,581505.6l0,380" />
          <path d="M484475.36,581885.6l1710,0" />
          <path d="M482885.36,581885.6l590,0" />
          <path d="M483475.36,581885.6l0,-380" />
          <path d="M483475.36,581505.6l-705,0" />
          <use xlink:href="#$DorLib2D$00000001" x="483.975" y="581.696" transform="scale(1000,1000) rotate(-180,483.98,581.7)" stroke-width="0.0001%">.</use>
          <path d="M482770.36,581505.6l-705,0" />
          <path d="M482065.36,581505.6l0,380" />
          <path d="M482065.36,581885.6l620,0" />
          <path d="M480185.36,581885.6l880,0" />
          <path d="M481065.36,581885.6l0,-380" />
          <path d="M481065.36,581505.6l-690,0" />
          <path d="M489595.36,579005.6l0,-5620" />
          <path d="M489975.36,579005.6l0,-5620" />
          <path d="M489785.36,579385.6l5250,0" />
          <path d="M495035.36,579385.6l0,-380" />
          <path d="M495035.36,579005.6l-5060,0" />
          <path d="M496595.36,579005.6l-560,0" />
          <path d="M496035.36,579005.6l0,380" />
          <path d="M496035.36,579385.6l750,0" />
          <path d="M489975.36,573385.6l545,0" />
          <path d="M490520.36,573385.6l0,-380" />
          <path d="M490520.36,573005.6l-735,0" />
          <path d="M496785.36,573005.6l-765,0" />
          <path d="M496020.36,573005.6l0,380" />
          <path d="M496020.36,573385.6l575,0" />
          <path d="M492520.36,573385.6l1500,0" />
          <path d="M494020.36,573385.6l0,-380" />
          <path d="M494020.36,573005.6l-1500,0" />
          <path d="M492520.36,573005.6l0,380" />
          <path d="M502975.36,593195.6l0,-819.76" />
          <path d="M502975.36,592375.84l-380,0" />
          <path d="M502595.36,592375.84l0,629.76" />
          <path d="M502595.36,590645.6l0,730.24" />
          <path d="M502595.36,591375.84l380,0" />
          <path d="M502975.36,591375.84l0,-920.24" />
          <use xlink:href="#$DorLib2D$00000001" x="502.785" y="591.876" transform="scale(1000,1000) rotate(-90,502.79,591.88)" stroke-width="0.0001%">.</use>
          <path d="M502595.36,603505.6l-460,0" />
          <path d="M502135.36,603505.6l0,380" />
          <path d="M502135.36,603885.6l650,0" />
          <path d="M496595.36,603885.6l3540,0" />
          <path d="M500135.36,603885.6l0,-380" />
          <path d="M500135.36,603505.6l-3160,0" />
          <path d="M505475.36,596505.6l0,-760" />
          <path d="M505475.36,595745.6l-380,0" />
          <path d="M505095.36,595745.6l0,760" />
          <path d="M505095.36,593195.6l0,1550" />
          <path d="M505095.36,594745.6l380,0" />
          <path d="M505475.36,594745.6l0,-1360" />
          <use xlink:href="#$DorLib2D$00000001" x="505.285" y="595.246" transform="scale(1000,1000) scale(-1,-1) translate(-1010.57,-1190.49) rotate(-90,505.29,595.25)" stroke-width="0.0001%">.</use>
          <use xlink:href="#$DorLib2D$00000002" x="336.024" y="397.797" transform="scale(1500,1500) scale(-1,1) translate(-672.05,0)" stroke-width="0.0001%">.</use>
          <use xlink:href="#$DorLib2D$00000002" x="335.19" y="396.77" transform="scale(1500,1500) rotate(-90,335.19,396.77)" stroke-width="0.0001%">.</use>
          <path d="M502975.36,596885.6l310,0" />
          <path d="M503285.36,596885.6l0,-380" />
          <path d="M503285.36,596505.6l-310,0" />
          <path d="M505095.36,596505.6l-310,0" />
          <path d="M504785.36,596505.6l0,380" />
          <path d="M504785.36,596885.6l500,0" />
          <path d="M511095.36,596885.6l0,710" />
          <path d="M511095.36,597595.6l380,0" />
          <path d="M511475.36,597595.6l0,-900" />
          <path d="M511475.36,603885.6l0,-4290" />
          <path d="M511475.36,599595.6l-380,0" />
          <path d="M511095.36,599595.6l0,3910" />
          <use xlink:href="#$TCHSYS$WIN2D_2000x380" x="511285.36" y="598595.6" transform="scale(-1,-1) translate(-1022570.72,-1197191.2) rotate(-270,511285.36,598595.6)">.</use>
          <path d="M505475.36,596505.6l5620,0" />
          <path d="M505285.36,596885.6l5810,0" />
          <path d="M502975.36,596505.6l0,-600" />
          <path d="M502975.36,595905.6l-380,0" />
          <path d="M502595.36,595905.6l0,790" />
          <path d="M502595.36,593385.6l0,1020" />
          <path d="M502595.36,594405.6l380,0" />
          <path d="M502975.36,594405.6l0,-1210" />
          <path d="M444405.36,582505.6l-766.34,0" />
          <path d="M443526.32,582505.6l-1550.96,0" />
          <path d="M444405.36,582505.6l0,-1450" />
          <path d="M444135.36,582505.6l0,-1450" />
          <path d="M443865.36,582505.6l0,-1450" />
          <path d="M443595.36,582421.58l0,-1365.98" />
          <path d="M443325.36,582505.6l0,-386.75" />
          <path d="M443325.36,581901.97l0,-846.37" />
          <path d="M443055.36,582505.6l0,-906.37" />
          <path d="M443055.36,581382.35l0,-326.75" />
          <path d="M442785.36,582505.6l0,-1425.98" />
          <path d="M442515.36,582505.6l0,-1450" />
          <path d="M442245.36,582505.6l0,-1450" />
          <path d="M441975.36,582505.6l0,-1450" />
          <path d="M444405.36,580995.6l-1550.96,0" />
          <path d="M442741.7,580995.6l-766.34,0" />
          <path d="M443526.32,582505.6l-345.08,-664.12" />
          <path d="M443639.02,582505.6l-356.69,-686.45" />
          <path d="M443282.33,581819.15l-174.23,38.49" />
          <path d="M443108.1,581857.64l181.86,-198.17" />
          <path d="M443289.96,581659.47l-182.37,40.29" />
          <path d="M443107.59,581699.76l-365.89,-704.16" />
          <path d="M443208.68,581677.42l-354.29,-681.82" />
          <path d="M441975.36,579385.6l2430,0" />
          <path d="M441975.36,579385.6l0,1450" />
          <path d="M442245.36,579385.6l0,1450" />
          <path d="M442515.36,579385.6l0,1450" />
          <path d="M442785.36,579385.6l0,1450" />
          <path d="M443055.36,579385.6l0,1450" />
          <path d="M443325.36,579385.6l0,1450" />
          <path d="M443595.36,579385.6l0,1450" />
          <path d="M443865.36,579385.6l0,1450" />
          <path d="M444135.36,579385.6l0,1450" />
          <path d="M444405.36,579385.6l0,1450" />
          <path d="M441975.36,580895.6l2430,0" />
          <path d="M444555.36,580835.6l0,220" />
          <path d="M444555.36,581055.6l-1669.79,0" />
          <path d="M442772.88,581055.6l-947.52,0" />
          <path d="M441825.36,581055.6l0,-220" />
          <path d="M441825.36,580835.6l2730,0" />
          <path d="M444495.36,580895.6l0,100" />
          <path d="M444495.36,580995.6l-1640.96,0" />
          <path d="M442741.7,580995.6l-856.34,0" />
          <path d="M441885.36,580995.6l0,-100" />
          <path d="M441885.36,580895.6l2610,0" />
          <path d="M441975.36,579385.6l-1500,0" />
          <path d="M440475.36,579385.6l0,3120" />
          <path d="M440475.36,582505.6l1500,0" />
          <path d="M441975.36,582505.6l0,-1450" />
          <path d="M441975.36,580995.6l0,-100" />
          <path d="M441975.36,580835.6l0,-1450" />
          <path d="M444405.36,580995.6l0,-100" />
          <path d="M507165.36,582505.6l1550.96,0" />
          <path d="M508829.02,582505.6l766.34,0" />
          <path d="M507165.36,581055.6l0,1450" />
          <path d="M507435.36,581055.6l0,1450" />
          <path d="M507705.36,581055.6l0,1450" />
          <path d="M507975.36,581079.62l0,1425.98" />
          <path d="M508245.36,581055.6l0,326.75" />
          <path d="M508245.36,581599.23l0,906.37" />
          <path d="M508515.36,581055.6l0,846.37" />
          <path d="M508515.36,582118.85l0,386.75" />
          <path d="M508785.36,581055.6l0,1365.98" />
          <path d="M509055.36,581055.6l0,1450" />
          <path d="M509325.36,581055.6l0,1450" />
          <path d="M509595.36,581055.6l0,1450" />
          <path d="M507165.36,580995.6l766.34,0" />
          <path d="M508044.4,580995.6l1550.96,0" />
          <path d="M508044.4,580995.6l345.08,664.12" />
          <path d="M507931.7,580995.6l356.69,686.45" />
          <path d="M508288.39,581682.05l174.23,-38.49" />
          <path d="M508462.62,581643.56l-181.86,198.17" />
          <path d="M508280.76,581841.73l182.37,-40.29" />
          <path d="M508463.13,581801.44l365.89,704.16" />
          <path d="M508362.04,581823.78l354.29,681.82" />
          <path d="M509595.36,579385.6l-2430,0" />
          <path d="M509595.36,580835.6l0,-1450" />
          <path d="M509325.36,580835.6l0,-1450" />
          <path d="M509055.36,580835.6l0,-1450" />
          <path d="M508785.36,580835.6l0,-1450" />
          <path d="M508515.36,580835.6l0,-1450" />
          <path d="M508245.36,580835.6l0,-1450" />
          <path d="M507975.36,580835.6l0,-1450" />
          <path d="M507705.36,580835.6l0,-1450" />
          <path d="M507435.36,580835.6l0,-1450" />
          <path d="M507165.36,580835.6l0,-1450" />
          <path d="M509595.36,580895.6l-2430,0" />
          <path d="M507075.36,580895.6l0,100" />
          <path d="M507075.36,580995.6l856.34,0" />
          <path d="M508044.4,580995.6l1640.96,0" />
          <path d="M509685.36,580995.6l0,-100" />
          <path d="M509685.36,580895.6l-2610,0" />
          <path d="M507015.36,580835.6l0,220" />
          <path d="M507015.36,581055.6l947.52,0" />
          <path d="M508075.57,581055.6l1669.79,0" />
          <path d="M509745.36,581055.6l0,-220" />
          <path d="M509745.36,580835.6l-2730,0" />
          <path d="M509595.36,582505.6l1500,0" />
          <path d="M511095.36,582505.6l0,-3120" />
          <path d="M511095.36,579385.6l-1500,0" />
          <path d="M509595.36,579385.6l0,1450" />
          <path d="M509595.36,580895.6l0,100" />
          <path d="M509595.36,581055.6l0,1450" />
          <path d="M507165.36,580995.6l0,-100" />
          <path d="M472475.36,578215.6l0,-637.65" />
          <path d="M472475.36,577462.48l0,-1676.88" />
          <path d="M474275.36,578215.6l0,-1676.88" />
          <path d="M474275.36,576423.25l0,-637.65" />
          <path d="M472475.36,578215.6l1800,0" />
          <path d="M472475.36,577945.6l1800,0" />
          <path d="M472475.36,577675.6l1800,0" />
          <path d="M472475.36,577405.6l98.52,0" />
          <path d="M472773.88,577405.6l1501.48,0" />
          <path d="M472475.36,577135.6l566.17,0" />
          <path d="M473241.53,577135.6l1033.83,0" />
          <path d="M472475.36,576865.6l1033.83,0" />
          <path d="M473709.19,576865.6l566.17,0" />
          <path d="M472475.36,576595.6l1501.48,0" />
          <path d="M474176.84,576595.6l98.52,0" />
          <path d="M472475.36,576325.6l1800,0" />
          <path d="M472475.36,576055.6l1800,0" />
          <path d="M472475.36,575785.6l1800,0" />
          <path d="M472475.36,577462.48l808.8,-466.96" />
          <path d="M472475.36,577577.95l835.6,-482.43" />
          <path d="M473310.96,577095.52l-46.18,-172.35" />
          <path d="M473264.77,576923.17l206.04,172.89" />
          <path d="M473470.82,577096.06l-48.34,-180.4" />
          <path d="M473422.48,576915.66l852.88,-492.41" />
          <path d="M473449.28,577015.66l826.08,-476.94" />
          <path d="M476985.36,575785.6l0,2430" />
          <path d="M474585.36,575785.6l0,2430" />
          <path d="M476985.36,575785.6l-2400,0" />
          <path d="M476985.36,576055.6l-2400,0" />
          <path d="M476985.36,576325.6l-2400,0" />
          <path d="M476985.36,576595.6l-2400,0" />
          <path d="M476985.36,576865.6l-2400,0" />
          <path d="M476985.36,577135.6l-2400,0" />
          <path d="M476985.36,577405.6l-2400,0" />
          <path d="M476985.36,577675.6l-2400,0" />
          <path d="M476985.36,577945.6l-2400,0" />
          <path d="M476985.36,578215.6l-2400,0" />
          <path d="M477295.36,578215.6l0,-637.65" />
          <path d="M477295.36,577462.48l0,-1676.88" />
          <path d="M479095.36,578215.6l0,-1676.88" />
          <path d="M479095.36,576423.25l0,-637.65" />
          <path d="M477295.36,578215.6l1800,0" />
          <path d="M477295.36,577945.6l1800,0" />
          <path d="M477295.36,577675.6l1800,0" />
          <path d="M477295.36,577405.6l98.52,0" />
          <path d="M477593.88,577405.6l1501.48,0" />
          <path d="M477295.36,577135.6l566.17,0" />
          <path d="M478061.53,577135.6l1033.83,0" />
          <path d="M477295.36,576865.6l1033.83,0" />
          <path d="M478529.19,576865.6l566.17,0" />
          <path d="M477295.36,576595.6l1501.48,0" />
          <path d="M478996.84,576595.6l98.52,0" />
          <path d="M477295.36,576325.6l1800,0" />
          <path d="M477295.36,576055.6l1800,0" />
          <path d="M477295.36,575785.6l1800,0" />
          <path d="M477295.36,577462.48l808.8,-466.96" />
          <path d="M477295.36,577577.95l835.6,-482.43" />
          <path d="M478130.96,577095.52l-46.18,-172.35" />
          <path d="M478084.77,576923.17l206.04,172.89" />
          <path d="M478290.82,577096.06l-48.34,-180.4" />
          <path d="M478242.48,576915.66l852.88,-492.41" />
          <path d="M478269.28,577015.66l826.08,-476.94" />
          <path d="M474645.36,578275.6l-430,0" />
          <path d="M474215.36,578275.6l0,-2550" />
          <path d="M474215.36,575725.6l430,0" />
          <path d="M474645.36,575725.6l0,2550" />
          <path d="M474585.36,578215.6l-310,0" />
          <path d="M474275.36,578215.6l0,-2430" />
          <path d="M474275.36,575785.6l310,0" />
          <path d="M474585.36,575785.6l0,2430" />
          <path d="M476985.36,578215.6l310,0" />
          <path d="M477295.36,578215.6l0,-2430" />
          <path d="M477295.36,575785.6l-310,0" />
          <path d="M476985.36,575785.6l0,2430" />
          <path d="M476925.36,578275.6l430,0" />
          <path d="M477355.36,578275.6l0,-2550" />
          <path d="M477355.36,575725.6l-430,0" />
          <path d="M476925.36,575725.6l0,2550" />
          <path d="M479095.36,575785.6l0,-2400" />
          <path d="M479095.36,573385.6l-6620,0" />
          <path d="M472475.36,573385.6l0,2400" />
          <path d="M472475.36,575785.6l6620,0" />
          <path d="M448975.36,593005.6l0,-500" />
          <path d="M448975.36,592505.6l-380,0" />
          <path d="M448595.36,592505.6l0,880" />
          <path d="M448595.36,584675.6l0,690" />
          <path d="M448595.36,585365.6l380,0" />
          <path d="M448975.36,585365.6l0,-500" />
          <path d="M448975.36,591505.6l0,-5140" />
          <path d="M448975.36,586365.6l-380,0" />
          <path d="M448595.36,586365.6l0,5140" />
          <path d="M448595.36,591505.6l380,0" />
          <path d="M458360.36,581885.6l0,5940" />
          <path d="M458210.36,581885.6l0,5940" />
          <path d="M458285.36,581505.6l-1750,0" />
          <path d="M456535.36,581505.6l0,380" />
          <path d="M456535.36,581885.6l1675,0" />
          <path d="M454975.36,581885.6l560,0" />
          <path d="M455535.36,581885.6l0,-380" />
          <path d="M455535.36,581505.6l-750,0" />
          <path d="M458210.36,587825.6l-660,0" />
          <path d="M457550.36,587825.6l0,380" />
          <path d="M457550.36,588205.6l735,0" />
          <path d="M454975.36,588205.6l575,0" />
          <path d="M455550.36,588205.6l0,-380" />
          <path d="M455550.36,587825.6l-575,0" />
          <path d="M446285.36,596795.6l-5810,0" />
          <path d="M446095.36,596595.6l-5620,0" />
          <path d="M440475.36,596795.6l0,-200" />
          <use xlink:href="#$TCHSYS$WIN2D_2000x380" x="440285.36" y="598595.6" transform="scale(1,-1) translate(0,-1197191.2) rotate(-270,440285.36,598595.6)">.</use>
        </g>
        <g id="layer-0" class="cnc-6">
          <path d="M525669.36,601707.19l5166,0" class="cnc-5" />
          <path d="M530835.36,604864.19l-5166,0" />
          <path d="M525669.36,614048.19l5166,0" />
          <path d="M530835.36,608021.19l-5166,0" class="cnc-5" />
          <path d="M525669.36,615052.69l5166,0" />
          <path d="M528395.86,614048.19l0,5022.5" />
          <path d="M525669.36,616057.19l5166,0" />
          <path d="M530835.36,617061.69l-5166,0" />
          <path d="M530835.36,618066.19l-5166,0" />
        </g>
      </g>
      <g id="assets" fill="none">
        <g id="rm-assets" class="rm-asset">
          <path id="15010;F02;213" d="M440475.36,596795.6l0,6710l14120,0l0,-6710z" />
          <path id="15010;F02;218" d="M458360.36,581885.6l0,5940l13735,0l0,-5940z" />
          <path id="15010;F02;205" d="M496975.36,573385.6l0,5620l14120,0l0,-5620z" />
          <path id="15010;F02;210" d="M440475.36,573385.6l0,5620l14120,0l0,-5620z" />
          <path id="15010;F02;208" d="M458475.36,573385.6l0,5620l13620,0l0,-5620z" />
          <path id="15010;F02;211" d="M440475.36,582885.6l0,10120l5620,0l0,-10120z" />
          <path id="15010;F02;226" d="M496975.36,593385.6l0,10120l5620,0l0,-10120z" />
          <path id="15010;F02;201" d="M502975.36,596885.6l0,6620l8120,0l0,-6620z" />
          <path id="15010;F02;215" d="M448975.36,584865.6l0,8140l5620,0l0,-8140z" />
          <path id="15010;F02;223" d="M489885.36,581885.6l0,5940l6710,0l0,-5940z" />
          <path id="15010;F02;219" d="M472475.36,581885.6l0,5940l6620,0l0,-5940z" />
          <path id="15010;F02;206" d="M489975.36,573385.6l0,5620l6620,0l0,-5620z" />
          <path id="15010;F02;203" d="M505475.36,586385.6l0,6620l5620,0l0,-6620z" />
          <path id="15010;F02;224" d="M496975.36,584865.6l0,5400l5620,0l0,-5400z" />
          <path id="15010;F02;222" d="M486385.36,581885.6l0,5940l3300,0l0,-5940z" />
          <path id="15010;F02;221" d="M482885.36,581885.6l0,5940l3300,0l0,-5940z" />
          <path id="15010;F02;217" d="M454975.36,581885.6l0,5940l3235,0l0,-5940z" />
          <path id="15010;F02;220" d="M479475.36,581885.6l0,5940l3210,0l0,-5940z" />
          <path id="15010;F02;214" d="M448795.36,593385.6l0,3210l5800,0l0,-3210z" />
          <path id="15010;F02;212" d="M440475.36,593385.6l0,3210l5620,0l0,-3210z" />
          <path id="15010;F02;202" d="M505475.36,593385.6l0,3120l5620,0l0,-3120z" />
          <path id="15010;F02;209" d="M454975.36,573385.6l0,5620l3120,0l0,-5620z" />
          <path id="15010;F02;204" d="M505475.36,582885.6l0,3120l5620,0l0,-3120z" />
          <path id="15010;F02;207" d="M479475.36,573385.6l0,5620l3120,0l0,-5620z" />
          <path id="15010;F02;216" d="M448975.36,581885.6l0,2600l5620,0l0,-2600z" />
          <path id="15010;F02;225" d="M496975.36,590645.6l0,2360l5620,0l0,-2360z" />
        </g>
      </g>
    </g>
    <g id="text" font-family="黑体" font-size="390.1020253158228" font-weight="normal" text-style="normal" text-anchor="middle" dominant-baseline="alphabetical" fill="#00BFFF" xml:space="preserve">
      <g id="layer-0-text">
        <g transform="translate(528285.36,610270.69)" font-family="Arial" font-size="520" fill="#000000" stroke="#000000" stroke-width="0.02">
          <text>二层平面图</text>
        </g>
        <g transform="translate(526817.36,602146.15)" font-size="389.889">
          <text>工程名称</text>
        </g>
        <g transform="translate(526817.36,605275.56)" font-size="389.889">
          <text>图    名</text>
        </g>
        <g transform="translate(526879.24,603715.33)" font-family="Arial" font-size="629.772" text-anchor="start" fill="#000000" stroke="#000000" stroke-width="0.02">
          <text>北京林业大学基础楼</text>
        </g>
        <g transform="translate(527054.13,614550.44)">
          <text>制    图</text>
        </g>
        <g transform="translate(527054.13,615554.94)">
          <text>校    对</text>
        </g>
        <g transform="translate(527054.13,616559.44)">
          <text>审    核</text>
        </g>
        <g transform="translate(527054.13,617563.94)">
          <text>图    号</text>
        </g>
        <g transform="translate(527054.13,618568.44)">
          <text>日    期</text>
        </g>
        <g transform="translate(528485.12,614773.56)" font-family="Arial" font-size="596.96" text-anchor="start" fill="#000000" stroke="#000000" stroke-width="0.02">
          <text>刘程程</text>
        </g>
        <g transform="translate(528618.72,618750.96)" font-family="Arial" font-size="596.96" text-anchor="start" fill="#000000" stroke="#000000" stroke-width="0.02">
          <text>2014.06</text>
        </g>
      </g>
    </g>
    <g id="asset-labels" font-family="Arial" font-weight="bold" font-size="38.1em" text-anchor="middle">
      <g id="rm-labels">
        <g id="l-rm-15010;F02;213" transform="translate(447535.36,600150.6)">
          <text>213</text>
        </g>
        <g id="l-rm-15010;F02;218" transform="translate(465227.86,584855.6)">
          <text>218</text>
        </g>
        <g id="l-rm-15010;F02;205" transform="translate(504035.36,576195.6)">
          <text>205</text>
        </g>
        <g id="l-rm-15010;F02;210" transform="translate(447535.36,576195.6)">
          <text>210</text>
        </g>
        <g id="l-rm-15010;F02;208" transform="translate(465285.36,576195.6)">
          <text>208</text>
        </g>
        <g id="l-rm-15010;F02;211" transform="translate(443285.36,587945.6)">
          <text>211</text>
        </g>
        <g id="l-rm-15010;F02;226" transform="translate(499785.36,598445.6)">
          <text>226</text>
        </g>
        <g id="l-rm-15010;F02;201" transform="translate(507035.36,600195.6)">
          <text>201</text>
        </g>
        <g id="l-rm-15010;F02;215" transform="translate(451785.36,588935.6)">
          <text>215</text>
        </g>
        <g id="l-rm-15010;F02;223" transform="translate(493240.36,584855.6)">
          <text>223</text>
        </g>
        <g id="l-rm-15010;F02;219" transform="translate(475785.36,584855.6)">
          <text>219</text>
        </g>
        <g id="l-rm-15010;F02;206" transform="translate(493285.36,576195.6)">
          <text>206</text>
        </g>
        <g id="l-rm-15010;F02;203" transform="translate(508285.36,589695.6)">
          <text>203</text>
        </g>
        <g id="l-rm-15010;F02;224" transform="translate(499785.36,587565.6)">
          <text>224</text>
        </g>
        <g id="l-rm-15010;F02;222" transform="translate(488035.36,584855.6)">
          <text>222</text>
        </g>
        <g id="l-rm-15010;F02;221" transform="translate(484535.36,584855.6)">
          <text>221</text>
        </g>
        <g id="l-rm-15010;F02;217" transform="translate(456592.86,584855.6)">
          <text>217</text>
        </g>
        <g id="l-rm-15010;F02;220" transform="translate(481080.36,584855.6)">
          <text>220</text>
        </g>
        <g id="l-rm-15010;F02;214" transform="translate(451695.36,594990.6)">
          <text>214</text>
        </g>
        <g id="l-rm-15010;F02;212" transform="translate(443285.36,594990.6)">
          <text>212</text>
        </g>
        <g id="l-rm-15010;F02;202" transform="translate(508285.36,594945.6)">
          <text>202</text>
        </g>
        <g id="l-rm-15010;F02;209" transform="translate(456535.36,576195.6)">
          <text>209</text>
        </g>
        <g id="l-rm-15010;F02;204" transform="translate(508285.36,584445.6)">
          <text>204</text>
        </g>
        <g id="l-rm-15010;F02;207" transform="translate(481035.36,576195.6)">
          <text>207</text>
        </g>
        <g id="l-rm-15010;F02;216" transform="translate(451785.36,583185.6)">
          <text>216</text>
        </g>
        <g id="l-rm-15010;F02;225" transform="translate(499785.36,591825.6)">
          <text>225</text>
        </g>
      </g>
    </g>
  </g>
</svg>