<svg version="1.1" xmlns="http://www.w3.org/2000/svg" xmlns:xlink="http://www.w3.org/1999/xlink" viewBox="12738.75 151474.01 72238 31818">
  <style>.i0 { stroke:#000000;   } .body { stroke:#ff7f00;   } .name { stroke:#ff0000;   } .rm { stroke:#00ffff;   } .gros { stroke:#ff00ff;   } .pub_wall { stroke:#c0c0c0;   } .rm-asset { stroke:#0000ff;   fill:#EEEEEE; fill-opacity:1;} .rmtc-asset { stroke:#0000ff;   } .rmtc { stroke:#00ffff;   } .rm-assettxt { stroke:#0000ff;   } .rmtc-assettxt { stroke:#0000ff;   } .blkclass0 { stroke:#000000;  stroke-width:0.02;  fill:#000000; fill-opacity:1; font-family:Arial; font-size:386.75; font-weight:normal; text-style:normal; text-anchor:start;}</style>
  <view id="defaultView" viewBox="12738.75 151474.01 72238 31818" />
  <defs>
    <symbol id="$TCHSYS$WIN2D_2000x380" overflow="visible" class="i0">
      <path d="M-1000,-190l2000,0" />
      <path d="M-1000,190l2000,0" />
      <path d="M1000,63.33l-2000,0" />
      <path d="M1000,-63.33l-2000,0" />
      <path d="M-1000,-190l0,380" />
      <path d="M1000,-190l0,380" />
    </symbol>
    <symbol id="$DorLib2D$00000002" overflow="visible" class="i0">
      <path d="M-0.5,0l0,-0.49" />
      <path d="M-0.48,0l0,-0.49" />
      <path d="M-0.5,0l0.02,0" />
      <path d="M-0.48,-0.49l-0.02,0" />
      <path d="M-0.48,-0.49a0.49,0.49 0 0,1 0.48,0.49" />
      <path d="M0,0a0.49,0.49 0 0,1 0.48,-0.49" />
      <path d="M0.48,0l0,-0.49" />
      <path d="M0.5,0l0,-0.49" />
      <path d="M0.48,-0.49l0.02,0" />
      <path d="M0.5,0l-0.02,0" />
    </symbol>
    <symbol id="$DorLib2D$00000001" overflow="visible" class="i0">
      <path d="M0.45,-0.98l0.05,0" />
      <path d="M0.5,0l-0.05,0" />
      <path d="M-0.5,0a0.98,0.98 0 0,1 0.95,-0.97" />
      <path d="M0.5,0l0,-0.98" />
      <path d="M0.45,0l0,-0.98" />
    </symbol>
    <symbol id="$TCHSYS$WIN2D_1000x380" overflow="visible" class="i0">
      <path d="M-500,-190l1000,0" />
      <path d="M-500,190l1000,0" />
      <path d="M500,63.33l-1000,0" />
      <path d="M500,-63.33l-1000,0" />
      <path d="M-500,-190l0,380" />
      <path d="M500,-190l0,380" />
    </symbol>
    <symbol id="$TCHSYS$WIN2D_1600x380" overflow="visible" class="i0">
      <path d="M-800,-190l1600,0" />
      <path d="M-800,190l1600,0" />
      <path d="M800,63.33l-1600,0" />
      <path d="M800,-63.33l-1600,0" />
      <path d="M-800,-190l0,380" />
      <path d="M800,-190l0,380" />
    </symbol>
    <symbol id="$TCHSYS$WIN2D_1500x380" overflow="visible" class="i0">
      <path d="M-750,-190l1500,0" />
      <path d="M-750,190l1500,0" />
      <path d="M750,63.33l-1500,0" />
      <path d="M750,-63.33l-1500,0" />
      <path d="M-750,-190l0,380" />
      <path d="M750,-190l0,380" />
    </symbol>
    <symbol id="$DorLib2D$00000130_900x60" overflow="visible" class="i0">
      <path d="M0,-30.76l0,-8.85" />
      <path d="M480,-39.61l-480,0" />
      <path d="M480,-30.76l-480,0" />
      <path d="M-480,-39.61l0,8.85" />
      <path d="M480,-39.61l0,8.85" />
      <path d="M-346.78,-16.16l221.17,0" />
      <path d="M346.78,-16.16l-221.17,0" />
      <path d="M0,-30.76l-480,0" />
      <path d="M0,-39.61l-480,0" />
      <path d="M-269.92,-12.87l0,-3.3" />
      <path d="M-346.78,-16.16l76.86,3.3" />
      <path d="M269.92,-12.87l0,-3.3" />
      <path d="M346.78,-16.16l-76.86,3.3" />
    </symbol>
  </defs>
  <g id="viewer">
    <g id="mirror" transform="scale(1, 1)" stroke-width="0.09%">
      <g id="background" fill="none">
        <g id="layer-body-fills" class="body">
          <path d="M28048.13,172883.12l1001.78,0l0,2476.8l-1001.78,0z" />
          <path d="M68666.36,172883.12l1001.78,0l0,2476.8l-1001.78,0z" />
        </g>
        <g id="layer-RM-fills" class="rm">
          <path d="M13548.13,164971.51l5620,0l0,-3120l-5620,0z" />
          <path d="M41958.13,166791.51l3210,0l0,-5940l-3210,0z" />
          <path d="M62958.13,166791.51l3985,0l0,-5940l-3985,0z" />
          <path d="M70048.13,163451.51l1655,0l0,-2600l-1655,0z" />
          <path d="M71853.13,163451.51l3815,0l0,-2600l-3815,0z" />
          <path d="M78548.13,164971.51l5620,0l0,-3120l-5620,0z" />
          <path d="M70048.13,171971.51l5620,0l0,-2360l-5620,0z" />
          <path d="M25008.62,163831.51l2659.51,0l0,2400l-2659.51,0z" />
          <path d="M23908.62,163831.51l1040,0l0,2400l-1040,0z" />
        </g>
        <g id="layer-GROS-fills" class="gros">
          <path d="M13168.13,151971.51l0,30880l14880,0l0,-15680l41620,0l0,15680l14880,0l0,-30880z" />
        </g>
        <g id="layer-body" class="body">
          <path d="M81993.68,159871.51l0,-1520" />
          <path d="M81693.68,159871.51l0,-1520" />
          <path d="M81393.68,159871.51l0,-1520" />
          <path d="M44958.13,167171.51l0,2410l7600,0l0,-2410" />
          <use xlink:href="#$TCHSYS$WIN2D_2000x380" x="13358.13" y="174061.51" transform="scale(1,-1) translate(0,-348123.02) rotate(-270,13358.13,174061.51)">.<g class="blkclass0"><text transform="rotate(-90 -316.25,695) translate(-316.25,695)" font-size="386.75">WC2020</text></g></use>
          <path d="M13548.13,152351.51l1575,0" />
          <path d="M15123.13,152351.51l0,-380" />
          <path d="M15123.13,151971.51l-1955,0" />
          <path d="M27858.13,151971.51l-757.5,0" />
          <path d="M27100.63,151971.51l0,380" />
          <path d="M27100.63,152351.51l567.5,0" />
          <path d="M16123.13,152351.51l1977.5,0" />
          <path d="M18100.63,152351.51l0,-380" />
          <path d="M18100.63,151971.51l-1977.5,0" />
          <path d="M16123.13,151971.51l0,380" />
          <path d="M20100.63,152351.51l1500,0" />
          <path d="M21600.63,152351.51l0,-380" />
          <path d="M21600.63,151971.51l-1500,0" />
          <path d="M20100.63,151971.51l0,380" />
          <path d="M23600.63,152351.51l1500,0" />
          <path d="M25100.63,152351.51l0,-380" />
          <path d="M25100.63,151971.51l-1500,0" />
          <path d="M23600.63,151971.51l0,380" />
          <path d="M84548.13,151971.51l0,3341.8" />
          <path d="M84168.13,152351.51l0,2961.8" />
          <path d="M84168.13,182471.51l-3160,0" />
          <path d="M81008.13,182471.51l0,380" />
          <path d="M81008.13,182851.51l3540,0" />
          <path d="M69668.13,182851.51l3540,0" />
          <path d="M73208.13,182851.51l0,-380" />
          <path d="M73208.13,182471.51l-3160,0" />
          <path d="M79008.13,182471.51l-900,0" />
          <path d="M78108.13,182471.51l0,380" />
          <path d="M78108.13,182851.51l900,0" />
          <path d="M79008.13,182851.51l0,-380" />
          <path d="M76108.13,182471.51l-900,0" />
          <path d="M75208.13,182471.51l0,380" />
          <path d="M75208.13,182851.51l900,0" />
          <path d="M76108.13,182851.51l0,-380" />
          <use xlink:href="#$TCHSYS$WIN2D_2000x380" x="74208.13" y="182661.51" transform="scale(-1,-1) translate(-148416.26,-365323.02) rotate(-180,74208.13,182661.51)">.<g class="blkclass0"><text transform="translate(-600,613.75)" font-size="386.75">WC2020</text></g></use>
          <use xlink:href="#$TCHSYS$WIN2D_2000x380" x="77108.13" y="182661.51" transform="scale(-1,-1) translate(-154216.26,-365323.02) rotate(-180,77108.13,182661.51)">.<g class="blkclass0"><text transform="translate(-600,613.75)" font-size="386.75">WC2020</text></g></use>
          <use xlink:href="#$TCHSYS$WIN2D_2000x380" x="80008.13" y="182661.51" transform="scale(-1,-1) translate(-160016.26,-365323.02) rotate(-180,80008.13,182661.51)">.<g class="blkclass0"><text transform="translate(-600,613.75)" font-size="386.75">WC2020</text></g></use>
          <path d="M70048.13,182471.51l0,-1600" />
          <path d="M70048.13,180871.51l-380,0" />
          <path d="M69668.13,180871.51l0,1980" />
          <path d="M69668.13,175661.51l0,710" />
          <path d="M69668.13,176371.51l380,0" />
          <path d="M70048.13,176371.51l0,-610" />
          <path d="M70048.13,179371.51l0,-1500" />
          <path d="M70048.13,177871.51l-380,0" />
          <path d="M69668.13,177871.51l0,1500" />
          <path d="M69668.13,179371.51l380,0" />
          <path d="M69668.13,166791.51l-575,0" />
          <path d="M69093.13,166791.51l0,380" />
          <path d="M69093.13,167171.51l575,0" />
          <path d="M67018.13,167171.51l75,0" />
          <path d="M67093.13,167171.51l0,-380" />
          <path d="M28048.13,160851.51l0,2790" />
          <path d="M27668.13,160851.51l0,2600" />
          <path d="M27668.13,182471.51l-3160,0" />
          <path d="M24508.13,182471.51l0,380" />
          <path d="M24508.13,182851.51l3540,0" />
          <path d="M13168.13,182851.51l3540,0" />
          <path d="M16708.13,182851.51l0,-380" />
          <path d="M16708.13,182471.51l-3160,0" />
          <path d="M22508.13,182471.51l-900,0" />
          <path d="M21608.13,182471.51l0,380" />
          <path d="M21608.13,182851.51l900,0" />
          <path d="M22508.13,182851.51l0,-380" />
          <path d="M19608.13,182471.51l-900,0" />
          <path d="M18708.13,182471.51l0,380" />
          <path d="M18708.13,182851.51l900,0" />
          <path d="M19608.13,182851.51l0,-380" />
          <use xlink:href="#$TCHSYS$WIN2D_2000x380" x="23508.13" y="182661.51" transform="scale(1,-1) translate(0,-365323.02) rotate(-180,23508.13,182661.51)">.<g class="blkclass0"><text transform="rotate(-360 -590,613.75) translate(-590,613.75)" font-size="386.75">WC2020</text></g></use>
          <use xlink:href="#$TCHSYS$WIN2D_2000x380" x="20608.13" y="182661.51" transform="scale(1,-1) translate(0,-365323.02) rotate(-180,20608.13,182661.51)">.<g class="blkclass0"><text transform="rotate(-360 -590,613.75) translate(-590,613.75)" font-size="386.75">WC2020</text></g></use>
          <use xlink:href="#$TCHSYS$WIN2D_2000x380" x="17708.13" y="182661.51" transform="scale(1,-1) translate(0,-365323.02) rotate(-180,17708.13,182661.51)">.<g class="blkclass0"><text transform="rotate(-360 -590,613.75) translate(-590,613.75)" font-size="386.75">WC2020</text></g></use>
          <path d="M13168.13,158161.51l0,-6190" />
          <path d="M13548.13,157971.51l0,-5620" />
          <path d="M84168.13,158351.51l0,710" />
          <path d="M84168.13,159061.51l380,0" />
          <path d="M84548.13,159061.51l0,-900" />
          <path d="M84548.13,161661.51l0,-600" />
          <path d="M84548.13,161061.51l-380,0" />
          <path d="M84168.13,161061.51l0,410" />
          <use xlink:href="#$TCHSYS$WIN2D_2000x380" x="84358.13" y="160061.51" transform="scale(1,-1) translate(0,-320123.02) rotate(-90,84358.13,160061.51)">.<g class="blkclass0"><text transform="rotate(-90 613.75,445) translate(613.75,445)" font-size="386.75">WC2020</text></g></use>
          <use xlink:href="#$DorLib2D$00000002" x="12.945" y="105.441" transform="scale(1500,1500) scale(-1,1) translate(-25.89,0)" stroke-width="0.0001%">.<g class="blkclass0"><text transform="translate(-470,613.75)" font-size="386.75">M1530</text></g></use>
          <path d="M28048.13,152351.51l552.5,0" />
          <path d="M28600.63,152351.51l0,-380" />
          <path d="M28600.63,151971.51l-742.5,0" />
          <path d="M38358.13,151971.51l-757.5,0" />
          <path d="M37600.63,151971.51l0,380" />
          <path d="M37600.63,152351.51l567.5,0" />
          <path d="M30600.63,152351.51l1500,0" />
          <path d="M32100.63,152351.51l0,-380" />
          <path d="M32100.63,151971.51l-1500,0" />
          <path d="M30600.63,151971.51l0,380" />
          <path d="M34100.63,152351.51l1500,0" />
          <path d="M35600.63,152351.51l0,-380" />
          <path d="M35600.63,151971.51l-1500,0" />
          <path d="M34100.63,151971.51l0,380" />
          <path d="M27858.13,158351.51l750,0" />
          <path d="M28608.13,158351.51l0,-380" />
          <path d="M28608.13,157971.51l-560,0" />
          <path d="M38168.13,157971.51l-530,0" />
          <path d="M37638.13,157971.51l0,380" />
          <path d="M37638.13,158351.51l720,0" />
          <path d="M29608.13,158351.51l7030,0" />
          <path d="M36638.13,158351.51l0,-380" />
          <path d="M36638.13,157971.51l-7030,0" />
          <path d="M29608.13,157971.51l0,380" />
          <use xlink:href="#$DorLib2D$00000001" x="29.108" y="158.162" transform="scale(1000,1000) scale(-1,1) translate(-58.22,0)" stroke-width="0.0001%">.<g class="blkclass0"><text transform="translate(-470,613.75)" font-size="386.75">M1030</text></g></use>
          <use xlink:href="#$DorLib2D$00000001" x="37.138" y="158.162" transform="scale(1000,1000)" stroke-width="0.0001%">.<g class="blkclass0"><text transform="translate(-470,613.75)" font-size="386.75">M1030</text></g></use>
          <path d="M27668.13,157971.51l0,-5620" />
          <path d="M28048.13,157971.51l0,-5620" />
          <path d="M38548.13,152351.51l552.5,0" />
          <path d="M39100.63,152351.51l0,-380" />
          <path d="M39100.63,151971.51l-742.5,0" />
          <path d="M45358.13,151971.51l-757.5,0" />
          <path d="M44600.63,151971.51l0,380" />
          <path d="M44600.63,152351.51l567.5,0" />
          <path d="M41100.63,152351.51l1500,0" />
          <path d="M42600.63,152351.51l0,-380" />
          <path d="M42600.63,151971.51l-1500,0" />
          <path d="M41100.63,151971.51l0,380" />
          <use xlink:href="#$DorLib2D$00000001" x="39.578" y="158.162" transform="scale(1000,1000) scale(-1,1) translate(-79.16,0)" stroke-width="0.0001%">.<g class="blkclass0"><text transform="translate(-470,613.75)" font-size="386.75">M1030</text></g></use>
          <path d="M38168.13,157971.51l0,-5620" />
          <path d="M38548.13,157971.51l0,-5620" />
          <path d="M45548.13,152351.51l507.5,0" />
          <path d="M46055.63,152351.51l0,-380" />
          <path d="M46055.63,151971.51l-697.5,0" />
          <path d="M52358.13,151971.51l-742.5,0" />
          <path d="M51615.63,151971.51l0,380" />
          <path d="M51615.63,152351.51l552.5,0" />
          <path d="M47655.63,152351.51l380,0" />
          <path d="M48035.63,152351.51l0,-380" />
          <path d="M48035.63,151971.51l-380,0" />
          <path d="M47655.63,151971.51l0,380" />
          <path d="M49635.63,152351.51l380,0" />
          <path d="M50015.63,152351.51l0,-380" />
          <path d="M50015.63,151971.51l-380,0" />
          <path d="M49635.63,151971.51l0,380" />
          <path d="M45168.13,157971.51l0,-5620" />
          <path d="M45548.13,158351.51l0,-6000" />
          <path d="M52548.13,152351.51l522.5,0" />
          <path d="M53070.63,152351.51l0,-380" />
          <path d="M53070.63,151971.51l-712.5,0" />
          <path d="M55858.13,151971.51l-787.5,0" />
          <path d="M55070.63,151971.51l0,380" />
          <path d="M55070.63,152351.51l597.5,0" />
          <path d="M52168.13,158351.51l0,-6000" />
          <path d="M52548.13,157971.51l0,-5620" />
          <path d="M59548.13,152351.51l522.5,0" />
          <path d="M60070.63,152351.51l0,-380" />
          <path d="M60070.63,151971.51l-712.5,0" />
          <path d="M69858.13,151971.51l-787.5,0" />
          <path d="M69070.63,151971.51l0,380" />
          <path d="M69070.63,152351.51l597.5,0" />
          <path d="M62070.63,152351.51l1500,0" />
          <path d="M63570.63,152351.51l0,-380" />
          <path d="M63570.63,151971.51l-1500,0" />
          <path d="M62070.63,151971.51l0,380" />
          <path d="M65570.63,152351.51l1500,0" />
          <path d="M67070.63,152351.51l0,-380" />
          <path d="M67070.63,151971.51l-1500,0" />
          <path d="M65570.63,151971.51l0,380" />
          <path d="M59358.13,158351.51l720,0" />
          <path d="M60078.13,158351.51l0,-380" />
          <path d="M60078.13,157971.51l-530,0" />
          <path d="M69668.13,157971.51l-560,0" />
          <path d="M69108.13,157971.51l0,380" />
          <path d="M69108.13,158351.51l750,0" />
          <path d="M61078.13,158351.51l7030,0" />
          <path d="M68108.13,158351.51l0,-380" />
          <path d="M68108.13,157971.51l-7030,0" />
          <path d="M61078.13,157971.51l0,380" />
          <use xlink:href="#$DorLib2D$00000001" x="68.608" y="158.162" transform="scale(1000,1000)" stroke-width="0.0001%">.<g class="blkclass0"><text transform="translate(-470,613.75)" font-size="386.75">M1030</text></g></use>
          <use xlink:href="#$DorLib2D$00000001" x="60.578" y="158.162" transform="scale(1000,1000) scale(-1,1) translate(-121.16,0)" stroke-width="0.0001%">.<g class="blkclass0"><text transform="translate(-470,613.75)" font-size="386.75">M1030</text></g></use>
          <path d="M59168.13,157971.51l0,-5620" />
          <path d="M59548.13,157971.51l0,-5620" />
          <path d="M70048.13,152351.51l522.5,0" />
          <path d="M70570.63,152351.51l0,-380" />
          <path d="M70570.63,151971.51l-712.5,0" />
          <path d="M84548.13,151971.51l-2000,0" />
          <path d="M82548.13,151971.51l0,380" />
          <path d="M82548.13,152351.51l1620,0" />
          <path d="M72570.63,152351.51l1500,0" />
          <path d="M74070.63,152351.51l0,-380" />
          <path d="M74070.63,151971.51l-1500,0" />
          <path d="M72570.63,151971.51l0,380" />
          <path d="M76070.63,152351.51l1500,0" />
          <path d="M77570.63,152351.51l0,-380" />
          <path d="M77570.63,151971.51l-1500,0" />
          <path d="M76070.63,151971.51l0,380" />
          <path d="M79570.63,152351.51l1977.5,0" />
          <path d="M81548.13,152351.51l0,-380" />
          <path d="M81548.13,151971.51l-1977.5,0" />
          <path d="M79570.63,151971.51l0,380" />
          <use xlink:href="#$DorLib2D$00000002" x="47.572" y="105.441" transform="scale(1500,1500)" stroke-width="0.0001%">.<g class="blkclass0"><text transform="translate(-470,613.75)" font-size="386.75">M1530</text></g></use>
          <path d="M69668.13,157971.51l0,-5620" />
          <path d="M70048.13,157971.51l0,-5620" />
          <path d="M56048.13,152351.51l522.5,0" />
          <path d="M56570.63,152351.51l0,-380" />
          <path d="M56570.63,151971.51l-712.5,0" />
          <path d="M59358.13,151971.51l-787.5,0" />
          <path d="M58570.63,151971.51l0,380" />
          <path d="M58570.63,152351.51l597.5,0" />
          <path d="M55858.13,158351.51l1780,0" />
          <path d="M57638.13,158351.51l0,-380" />
          <path d="M57638.13,157971.51l-1590,0" />
          <path d="M59168.13,157971.51l-530,0" />
          <path d="M58638.13,157971.51l0,380" />
          <path d="M58638.13,158351.51l720,0" />
          <use xlink:href="#$DorLib2D$00000001" x="58.138" y="158.162" transform="scale(1000,1000) rotate(0,58.14,158.16)" stroke-width="0.0001%">.<g class="blkclass0"><text transform="rotate(0 -470,613.75) translate(-470,613.75)" font-size="386.75">M1030</text></g></use>
          <path d="M55668.13,157971.51l0,-5620" />
          <path d="M56048.13,157971.51l0,-5620" />
          <path d="M75668.13,160851.51l-5620,0" />
          <path d="M75668.13,160471.51l-5810,0" />
          <path d="M70048.13,171971.51l0,-100" />
          <path d="M70048.13,171871.51l-380,0" />
          <path d="M69668.13,171871.51l0,290" />
          <path d="M69668.13,169421.51l0,950" />
          <path d="M69668.13,170371.51l380,0" />
          <path d="M70048.13,170371.51l0,-760" />
          <path d="M84168.13,172351.51l0,710" />
          <path d="M84168.13,173061.51l380,0" />
          <path d="M84548.13,173061.51l0,-900" />
          <path d="M84548.13,182851.51l0,-7790" />
          <path d="M84548.13,175061.51l-380,0" />
          <path d="M84168.13,175061.51l0,7410" />
          <use xlink:href="#$TCHSYS$WIN2D_2000x380" x="84358.13" y="174061.51" transform="scale(-1,-1) translate(-168716.26,-348123.02) rotate(-270,84358.13,174061.51)">.<g class="blkclass0"><text transform="rotate(-90 613.75,695) translate(613.75,695)" font-size="386.75">WC2020</text></g></use>
          <path d="M70048.13,172351.51l4320,0" />
          <path d="M74368.13,171971.51l-4320,0" />
          <path d="M75668.13,171971.51l-400,0" />
          <path d="M75268.13,172351.51l780,0" />
          <path d="M69668.13,166791.51l0,-3150" />
          <path d="M70048.13,166981.51l0,-3150" />
          <path d="M75668.13,171971.51l0,-2360" />
          <path d="M76048.13,172351.51l0,-2930" />
          <path d="M69858.13,160471.51l-750,0" />
          <path d="M69108.13,160471.51l0,380" />
          <path d="M69108.13,160851.51l560,0" />
          <path d="M67093.13,160851.51l1015,0" />
          <path d="M68108.13,160851.51l0,-380" />
          <path d="M68108.13,160471.51l-1090,0" />
          <path d="M78548.13,171971.51l0,-5320" />
          <path d="M78548.13,166651.51l-380,0" />
          <path d="M78168.13,166651.51l0,5700" />
          <path d="M78168.13,165161.51l0,490" />
          <path d="M78168.13,165651.51l380,0" />
          <path d="M78548.13,165651.51l0,-300" />
          <path d="M78548.13,171971.51l5620,0" />
          <path d="M78168.13,172351.51l6000,0" />
          <path d="M84168.13,161851.51l0,710" />
          <path d="M84168.13,162561.51l380,0" />
          <path d="M84548.13,162561.51l0,-900" />
          <path d="M84548.13,165161.51l0,-600" />
          <path d="M84548.13,164561.51l-380,0" />
          <path d="M84168.13,164561.51l0,410" />
          <use xlink:href="#$TCHSYS$WIN2D_2000x380" x="84358.13" y="163561.51" transform="scale(-1,-1) translate(-168716.26,-327123.02) rotate(-270,84358.13,163561.51)">.<g class="blkclass0"><text transform="rotate(-90 613.75,595) translate(613.75,595)" font-size="386.75">WC2020</text></g></use>
          <path d="M78168.13,161471.51l6000,0" />
          <path d="M78548.13,161851.51l5620,0" />
          <path d="M69858.13,158351.51l750,0" />
          <path d="M70608.13,158351.51l0,-380" />
          <path d="M70608.13,157971.51l-560,0" />
          <path d="M75858.13,157971.51l-3750,0" />
          <path d="M72108.13,157971.51l0,380" />
          <path d="M72108.13,158351.51l3560,0" />
          <use xlink:href="#$DorLib2D$00000002" x="52.199" y="105.441" transform="scale(1500,1500)" stroke-width="0.0001%">.<g class="blkclass0"><text transform="translate(-470,613.75)" font-size="386.75">M1530</text></g></use>
          <path d="M75668.13,163451.51l0,-875.77" />
          <path d="M76048.13,163641.51l0,-875.77" />
          <path d="M78548.13,164971.51l0,-300" />
          <path d="M78548.13,164671.51l-380,0" />
          <path d="M78168.13,164671.51l0,490" />
          <path d="M78168.13,162765.74l0,905.77" />
          <path d="M78168.13,163671.51l380,0" />
          <path d="M78548.13,163671.51l0,-1095.77" />
          <path d="M27668.13,166981.51l0,390" />
          <path d="M27668.13,167371.51l380,0" />
          <path d="M28048.13,167371.51l0,-200" />
          <path d="M28048.13,172161.51l0,-290" />
          <path d="M28048.13,171871.51l-380,0" />
          <path d="M27668.13,171871.51l0,100" />
          <path d="M27668.13,168871.51l0,1500" />
          <path d="M27668.13,170371.51l380,0" />
          <path d="M28048.13,170371.51l0,-1500" />
          <path d="M28048.13,168871.51l-380,0" />
          <use xlink:href="#$DorLib2D$00000001" x="54.638" y="158.162" transform="scale(1000,1000)" stroke-width="0.0001%">.<g class="blkclass0"><text transform="translate(-470,613.75)" font-size="386.75">M1030</text></g></use>
          <use xlink:href="#$DorLib2D$00000001" x="78.358" y="164.172" transform="scale(1000,1000) scale(-1,-1) translate(-156.72,-328.34) rotate(-90,78.36,164.17)" stroke-width="0.0001%">.<g class="blkclass0"><text transform="rotate(-90 -217.5,425) translate(-217.5,425)" font-size="386.75">M1021</text></g></use>
          <path d="M84168.13,165351.51l0,710" />
          <path d="M84168.13,166061.51l380,0" />
          <path d="M84548.13,166061.51l0,-900" />
          <path d="M84548.13,172161.51l0,-600" />
          <path d="M84548.13,171561.51l-380,0" />
          <path d="M84168.13,171561.51l0,410" />
          <path d="M84168.13,168061.51l0,1500" />
          <path d="M84168.13,169561.51l380,0" />
          <path d="M84548.13,169561.51l0,-1500" />
          <path d="M84548.13,168061.51l-380,0" />
          <use xlink:href="#$TCHSYS$WIN2D_2000x380" x="84358.13" y="167061.51" transform="scale(-1,-1) translate(-168716.26,-334123.02) rotate(-270,84358.13,167061.51)">.<g class="blkclass0"><text transform="rotate(-90 613.75,695) translate(613.75,695)" font-size="386.75">WC2020</text></g></use>
          <use xlink:href="#$TCHSYS$WIN2D_2000x380" x="84358.13" y="170561.51" transform="scale(-1,-1) translate(-168716.26,-341123.02) rotate(-270,84358.13,170561.51)">.<g class="blkclass0"><text transform="rotate(-90 613.75,695) translate(613.75,695)" font-size="386.75">WC2020</text></g></use>
          <path d="M78548.13,164971.51l5620,0" />
          <path d="M78548.13,165351.51l5620,0" />
          <path d="M70048.13,163831.51l0,-380" />
          <path d="M75668.13,163451.51l0,380" />
          <path d="M70048.13,169231.51l3990,0" />
          <path d="M70048.13,169611.51l3990,0" />
          <path d="M70048.13,169231.51l0,-360" />
          <path d="M70048.13,168871.51l-380,0" />
          <path d="M69668.13,168871.51l0,550" />
          <path d="M69668.13,167171.51l0,200" />
          <path d="M69668.13,167371.51l380,0" />
          <path d="M70048.13,167371.51l0,-390" />
          <path d="M76048.13,169421.51l0,-490" />
          <path d="M76048.13,168931.51l-380,0" />
          <path d="M75668.13,168931.51l0,300" />
          <path d="M75668.13,163831.51l0,4100" />
          <path d="M75668.13,167931.51l380,0" />
          <path d="M76048.13,167931.51l0,-4290" />
          <use xlink:href="#$DorLib2D$00000001" x="75.858" y="168.432" transform="scale(1000,1000) scale(-1,1) translate(-151.72,0) rotate(-270,75.86,168.43)" stroke-width="0.0001%">.<g class="blkclass0"><text transform="rotate(-90 423.75,470) translate(423.75,470)" font-size="386.75">M1030</text></g></use>
          <path d="M27668.13,175561.51l-4300,0" />
          <path d="M23368.13,175561.51l0,200" />
          <path d="M23368.13,175761.51l4300,0" />
          <path d="M21768.13,175761.51l600,0" />
          <path d="M22368.13,175761.51l0,-200" />
          <path d="M22368.13,175561.51l-500,0" />
          <use xlink:href="#$DorLib2D$00000001" x="21.858" y="164.832" transform="scale(1000,1000) scale(1,-1) translate(0,-329.66) rotate(-270,21.86,164.83)" stroke-width="0.0001%">.<g class="blkclass0"><text transform="rotate(-90 -126.25,470) translate(-126.25,470)" font-size="386.75">M1030</text></g></use>
          <use xlink:href="#$DorLib2D$00000002" x="13.739" y="117.108" transform="scale(1500,1500) scale(-1,-1) translate(-27.48,-234.22) rotate(-180,13.74,117.11)" stroke-width="0.0001%">.<g class="blkclass0"><text transform="translate(-470,534.18)" font-size="386.75">M1530</text></g></use>
          <path d="M19548.13,172351.51l0,-2340" />
          <path d="M19548.13,170011.51l-380,0" />
          <path d="M19168.13,170011.51l0,1960" />
          <path d="M19168.13,165351.51l0,1960" />
          <path d="M19168.13,167311.51l380,0" />
          <path d="M19548.13,167311.51l0,-2150" />
          <path d="M19548.13,169011.51l0,-700" />
          <path d="M19548.13,168311.51l-380,0" />
          <path d="M19168.13,168311.51l0,700" />
          <path d="M19168.13,169011.51l380,0" />
          <use xlink:href="#$DorLib2D$00000001" x="19.358" y="167.812" transform="scale(1000,1000) scale(-1,1) translate(-38.72,0) rotate(-270,19.36,167.81)" stroke-width="0.0001%">.<g class="blkclass0"><text transform="rotate(-90 423.75,470) translate(423.75,470)" font-size="386.75">M1030</text></g></use>
          <path d="M19168.13,161851.51l-5620,0" />
          <path d="M19548.13,161471.51l-6000,0" />
          <use xlink:href="#$DorLib2D$00000001" x="26.608" y="160.662" transform="scale(1000,1000) scale(1,-1) translate(0,-321.32)" stroke-width="0.0001%">.<g class="blkclass0"><text transform="translate(-470,-316.25)" font-size="386.75">M1030</text></g></use>
          <path d="M21668.13,163641.51l0,-875.77" />
          <path d="M22048.13,163451.51l0,-875.77" />
          <path d="M21794.8,162251.51l0,-1200" />
          <path d="M21921.46,162251.51l0,-1200" />
          <path d="M21668.13,161051.51l380,0" />
          <path d="M21668.13,162251.51l380,0" />
          <path d="M19548.13,165161.51l0,-490" />
          <path d="M19548.13,164671.51l-380,0" />
          <path d="M19168.13,164671.51l0,300" />
          <path d="M19168.13,162575.74l0,1095.77" />
          <path d="M19168.13,163671.51l380,0" />
          <path d="M19548.13,163671.51l0,-905.77" />
          <use xlink:href="#$DorLib2D$00000002" x="17.572" y="105.441" transform="scale(1500,1500) scale(-1,1) translate(-35.14,0)" stroke-width="0.0001%">.<g class="blkclass0"><text transform="translate(-470,613.75)" font-size="386.75">M1530</text></g></use>
          <use xlink:href="#$DorLib2D$00000001" x="19.358" y="164.172" transform="scale(1000,1000) scale(-1,1) translate(-38.72,0) rotate(-270,19.36,164.17)" stroke-width="0.0001%">.<g class="blkclass0"><text transform="rotate(-90 768.4,425) translate(768.4,425)" font-size="386.75">M1021</text></g></use>
          <path d="M19168.13,165351.51l-5620,0" />
          <path d="M19168.13,164971.51l-5620,0" />
          <path d="M27668.13,163831.51l-2689.51,0" />
          <path d="M27668.13,163451.51l-2689.51,0" />
          <path d="M22048.13,171971.51l0,-500" />
          <path d="M22048.13,171471.51l-380,0" />
          <path d="M21668.13,171471.51l0,880" />
          <path d="M21668.13,163641.51l0,690" />
          <path d="M21668.13,164331.51l380,0" />
          <path d="M22048.13,164331.51l0,-500" />
          <path d="M22048.13,170471.51l0,-5140" />
          <path d="M22048.13,165331.51l-380,0" />
          <path d="M21668.13,165331.51l0,5140" />
          <path d="M21668.13,170471.51l380,0" />
          <use xlink:href="#$TCHSYS$WIN2D_2000x380" x="13358.13" y="167061.51" transform="scale(1,-1) translate(0,-334123.02) rotate(-270,13358.13,167061.51)">.<g class="blkclass0"><text transform="rotate(-90 -316.25,695) translate(-316.25,695)" font-size="386.75">WC2020</text></g></use>
          <use xlink:href="#$TCHSYS$WIN2D_2000x380" x="13358.13" y="170561.51" transform="scale(1,-1) translate(0,-341123.02) rotate(-270,13358.13,170561.51)">.<g class="blkclass0"><text transform="rotate(-90 -316.25,695) translate(-316.25,695)" font-size="386.75">WC2020</text></g></use>
          <path d="M13548.13,161471.51l0,-410" />
          <path d="M13548.13,161061.51l-380,0" />
          <path d="M13168.13,161061.51l0,600" />
          <path d="M13168.13,158161.51l0,900" />
          <path d="M13168.13,159061.51l380,0" />
          <path d="M13548.13,159061.51l0,-710" />
          <use xlink:href="#$TCHSYS$WIN2D_2000x380" x="13358.13" y="160061.51" transform="scale(-1,-1) translate(-26716.26,-320123.02) rotate(-90,13358.13,160061.51)">.<g class="blkclass0"><text transform="rotate(-90 -316.25,445) translate(-316.25,445)" font-size="386.75">WC2020</text></g></use>
          <path d="M13548.13,158351.51l5120,0" />
          <path d="M18668.13,158351.51l0,-380" />
          <path d="M18668.13,157971.51l-5120,0" />
          <path d="M21858.13,157971.51l-1690,0" />
          <path d="M20168.13,157971.51l0,380" />
          <path d="M20168.13,158351.51l1500,0" />
          <path d="M13548.13,164971.51l0,-410" />
          <path d="M13548.13,164561.51l-380,0" />
          <path d="M13168.13,164561.51l0,600" />
          <path d="M13168.13,161661.51l0,900" />
          <path d="M13168.13,162561.51l380,0" />
          <path d="M13548.13,162561.51l0,-710" />
          <use xlink:href="#$TCHSYS$WIN2D_2000x380" x="13358.13" y="163561.51" transform="scale(1,-1) translate(0,-327123.02) rotate(-270,13358.13,163561.51)">.<g class="blkclass0"><text transform="rotate(-90 -316.25,595) translate(-316.25,595)" font-size="386.75">WC2020</text></g></use>
          <path d="M28048.13,163641.51l0,2620" />
          <path d="M27668.13,163831.51l0,2430" />
          <path d="M45168.13,160851.51l-3210,0" />
          <path d="M45548.13,160471.51l-3690,0" />
          <path d="M52168.13,166791.51l-575,0" />
          <path d="M51593.13,166791.51l0,380" />
          <path d="M51593.13,167171.51l765,0" />
          <path d="M45358.13,167171.51l765,0" />
          <path d="M46123.13,167171.51l0,-380" />
          <path d="M46123.13,166791.51l-575,0" />
          <path d="M49593.13,166791.51l-1470,0" />
          <path d="M48123.13,166791.51l0,380" />
          <path d="M48123.13,167171.51l1470,0" />
          <path d="M49593.13,167171.51l0,-380" />
          <use xlink:href="#$DorLib2D$00000001" x="54.638" y="160.662" transform="scale(1000,1000) rotate(-180,54.64,160.66)" stroke-width="0.0001%">.<g class="blkclass0"><text transform="translate(-470,-316.25)" font-size="386.75">M1030</text></g></use>
          <path d="M38358.13,158351.51l720,0" />
          <path d="M39078.13,158351.51l0,-380" />
          <path d="M39078.13,157971.51l-530,0" />
          <path d="M45168.13,157971.51l-5090,0" />
          <path d="M40078.13,157971.51l0,380" />
          <path d="M40078.13,158351.51l5470,0" />
          <path d="M52168.13,166791.51l0,-6320" />
          <path d="M52548.13,166791.51l0,-5940" />
          <path d="M45168.13,166791.51l0,-5940" />
          <path d="M45548.13,166791.51l0,-6320" />
          <path d="M82867.68,160071.51l-1848,0" />
          <path d="M82867.68,159871.51l-1848,0" />
          <path d="M82867.68,160071.51l0,-200" />
          <path d="M81019.68,160071.51l0,-200" />
          <path d="M78598.47,160601.51l1569.21,0l300,0" />
          <path d="M45168.13,166791.51l-545,0" />
          <path d="M44623.13,166791.51l0,380" />
          <path d="M44623.13,167171.51l735,0" />
          <path d="M41858.13,167171.51l765,0" />
          <path d="M42623.13,167171.51l0,-380" />
          <path d="M42623.13,166791.51l-665,0" />
          <path d="M45548.13,160671.51l500,0" />
          <path d="M46048.13,160671.51l0,-200" />
          <path d="M46048.13,160471.51l-500,0" />
          <path d="M45548.13,160471.51l0,200" />
          <path d="M52168.13,160471.51l-500,0" />
          <path d="M51668.13,160471.51l0,200" />
          <path d="M51668.13,160671.51l500,0" />
          <path d="M52168.13,160671.51l0,-200" />
          <path d="M47048.13,160671.51l3620,0" />
          <path d="M50668.13,160671.51l0,-200" />
          <path d="M50668.13,160471.51l-3620,0" />
          <path d="M47048.13,160471.51l0,200" />
          <path d="M48958.13,160671.51l0,6120" />
          <path d="M48758.13,160671.51l0,6120" />
          <path d="M48958.13,160671.51l-200,0" />
          <path d="M48958.13,166791.51l-200,0" />
          <use xlink:href="#$DorLib2D$00000001" x="46.548" y="160.572" transform="scale(1000,1000) scale(-1,-1) translate(-93.1,-321.14)" stroke-width="0.0001%">.<g class="blkclass0"><text transform="translate(-470,-406.25)" font-size="386.75">M1030</text></g></use>
          <use xlink:href="#$DorLib2D$00000001" x="51.168" y="160.572" transform="scale(1000,1000) scale(1,-1) translate(0,-321.14)" stroke-width="0.0001%">.<g class="blkclass0"><text transform="translate(-470,-406.25)" font-size="386.75">M1030</text></g></use>
          <path d="M13548.13,168561.51l5620,0" />
          <path d="M13548.13,168761.51l5620,0" />
          <path d="M13548.13,168561.51l0,200" />
          <path d="M19168.13,168561.51l0,200" />
          <path d="M27668.13,175761.51l0,610" />
          <path d="M27668.13,176371.51l380,0" />
          <path d="M28048.13,176371.51l0,-710" />
          <path d="M28048.13,182851.51l0,-1980" />
          <path d="M28048.13,180871.51l-380,0" />
          <path d="M27668.13,180871.51l0,1600" />
          <path d="M27668.13,177871.51l0,1500" />
          <path d="M27668.13,179371.51l380,0" />
          <path d="M28048.13,179371.51l0,-1500" />
          <path d="M28048.13,177871.51l-380,0" />
          <path d="M13548.13,182471.51l0,-7410" />
          <path d="M13548.13,175061.51l-380,0" />
          <path d="M13168.13,175061.51l0,7790" />
          <path d="M13168.13,172161.51l0,900" />
          <path d="M13168.13,173061.51l380,0" />
          <path d="M13548.13,173061.51l0,-710" />
          <path d="M27668.13,172351.51l-6000,0" />
          <path d="M27668.13,171971.51l-5620,0" />
          <path d="M27668.13,172351.51l0,1020" />
          <path d="M27668.13,173371.51l380,0" />
          <path d="M28048.13,173371.51l0,-1210" />
          <path d="M28048.13,175661.51l0,-790" />
          <path d="M28048.13,174871.51l-380,0" />
          <path d="M27668.13,174871.51l0,690" />
          <path d="M13548.13,171971.51l0,-410" />
          <path d="M13548.13,171561.51l-380,0" />
          <path d="M13168.13,171561.51l0,600" />
          <path d="M13168.13,165161.51l0,900" />
          <path d="M13168.13,166061.51l380,0" />
          <path d="M13548.13,166061.51l0,-710" />
          <path d="M13548.13,169561.51l0,-1500" />
          <path d="M13548.13,168061.51l-380,0" />
          <path d="M13168.13,168061.51l0,1500" />
          <path d="M13168.13,169561.51l380,0" />
          <path d="M19548.13,172351.51l-6000,0" />
          <path d="M19168.13,171971.51l-5620,0" />
          <path d="M19348.13,172351.51l0,900" />
          <path d="M19348.13,173251.51l200,0" />
          <path d="M19548.13,173251.51l0,-900" />
          <path d="M19548.13,172351.51l-200,0" />
          <path d="M19548.13,175561.51l0,-1310" />
          <path d="M19548.13,174251.51l-200,0" />
          <path d="M19348.13,174251.51l0,1310" />
          <path d="M19348.13,175561.51l-500,0" />
          <path d="M18848.13,175561.51l0,200" />
          <path d="M18848.13,175761.51l600,0" />
          <path d="M13548.13,175761.51l4300,0" />
          <path d="M17848.13,175761.51l0,-200" />
          <path d="M17848.13,175561.51l-4300,0" />
          <path d="M13548.13,175561.51l0,200" />
          <path d="M21668.13,172351.51l0,900" />
          <path d="M21668.13,173251.51l200,0" />
          <path d="M21868.13,173251.51l0,-900" />
          <path d="M21868.13,172351.51l-200,0" />
          <path d="M21868.13,175561.51l0,-1310" />
          <path d="M21868.13,174251.51l-200,0" />
          <path d="M21668.13,174251.51l0,1310" />
          <path d="M21668.13,175561.51l-310,0" />
          <path d="M21358.13,175561.51l0,200" />
          <path d="M21358.13,175761.51l410,0" />
          <path d="M19448.13,175761.51l410,0" />
          <path d="M19858.13,175761.51l0,-200" />
          <path d="M19858.13,175561.51l-310,0" />
          <use xlink:href="#$DorLib2D$00000001" x="19.358" y="169.512" transform="scale(1000,1000) rotate(-90,19.36,169.51)" stroke-width="0.0001%">.<g class="blkclass0"><text transform="rotate(-90 423.75,470) translate(423.75,470)" font-size="386.75">M1030</text></g></use>
          <use xlink:href="#$DorLib2D$00000001" x="21.858" y="170.972" transform="scale(1000,1000) scale(-1,-1) translate(-43.72,-341.94) rotate(-90,21.86,170.97)" stroke-width="0.0001%">.<g class="blkclass0"><text transform="rotate(-90 -126.25,470) translate(-126.25,470)" font-size="386.75">M1030</text></g></use>
          <use xlink:href="#$DorLib2D$00000001" x="19.448" y="173.752" transform="scale(1000,1000) scale(-1,-1) translate(-38.9,-347.5) rotate(-270,19.45,173.75)" stroke-width="0.0001%">.<g class="blkclass0"><text transform="rotate(-90 513.75,470) translate(513.75,470)" font-size="386.75">M1030</text></g></use>
          <use xlink:href="#$DorLib2D$00000001" x="21.768" y="173.752" transform="scale(1000,1000) scale(-1,1) translate(-43.54,0) rotate(-90,21.77,173.75)" stroke-width="0.0001%">.<g class="blkclass0"><text transform="rotate(-90 -216.25,470) translate(-216.25,470)" font-size="386.75">M1030</text></g></use>
          <path d="M38458.13,160851.51l0,5940" />
          <path d="M38258.13,160851.51l0,5940" />
          <path d="M38358.13,160471.51l-720,0" />
          <path d="M37638.13,160471.51l0,380" />
          <path d="M37638.13,160851.51l620,0" />
          <path d="M34933.13,160851.51l1705,0" />
          <path d="M36638.13,160851.51l0,-380" />
          <path d="M36638.13,160471.51l-1780,0" />
          <use xlink:href="#$DorLib2D$00000001" x="29.108" y="160.662" transform="scale(1000,1000) rotate(-180,29.11,160.66)" stroke-width="0.0001%">.<g class="blkclass0"><text transform="translate(-470,-316.25)" font-size="386.75">M1030</text></g></use>
          <use xlink:href="#$DorLib2D$00000001" x="37.138" y="160.662" transform="scale(1000,1000) scale(-1,1) translate(-74.28,0) rotate(-180,37.14,160.66)" stroke-width="0.0001%">.<g class="blkclass0"><text transform="translate(-470,-316.25)" font-size="386.75">M1030</text></g></use>
          <use xlink:href="#$DorLib2D$00000001" x="39.578" y="160.662" transform="scale(1000,1000) rotate(-180,39.58,160.66)" stroke-width="0.0001%">.<g class="blkclass0"><text transform="translate(-470,-316.25)" font-size="386.75">M1030</text></g></use>
          <path d="M62843.13,160471.51l-600,0" />
          <path d="M62243.13,160471.51l0,380" />
          <path d="M62243.13,160851.51l515,0" />
          <path d="M52548.13,160851.51l1590,0" />
          <path d="M54138.13,160851.51l0,-380" />
          <path d="M54138.13,160471.51l-1970,0" />
          <path d="M61243.13,160471.51l-6105,0" />
          <path d="M55138.13,160471.51l0,380" />
          <path d="M55138.13,160851.51l6105,0" />
          <path d="M61243.13,160851.51l0,-380" />
          <use xlink:href="#$DorLib2D$00000001" x="61.743" y="160.662" transform="scale(1000,1000) scale(-1,1) translate(-123.49,0) rotate(-180,61.74,160.66)" stroke-width="0.0001%">.<g class="blkclass0"><text transform="translate(-470,-316.25)" font-size="386.75">M1030</text></g></use>
          <use xlink:href="#$DorLib2D$00000001" x="68.608" y="160.662" transform="scale(1000,1000) scale(-1,1) translate(-137.22,0) rotate(-180,68.61,160.66)" stroke-width="0.0001%">.<g class="blkclass0"><text transform="translate(-470,-316.25)" font-size="386.75">M1030</text></g></use>
          <path d="M70048.13,175761.51l4300,0" />
          <path d="M74368.13,172351.51l0,-380" />
          <path d="M74348.13,175561.51l-4300,0" />
          <path d="M75848.13,175561.51l-1500,0" />
          <path d="M75268.13,171971.51l0,380" />
          <path d="M74348.13,175761.51l1600,0" />
          <use xlink:href="#$DorLib2D$00000002" x="51.405" y="117.108" transform="scale(1500,1500) scale(-1,1) translate(-102.81,0)" stroke-width="0.0001%">.<g class="blkclass0"><text transform="translate(-423.57,563.81)" font-size="386.75">M1530</text></g></use>
          <path d="M78168.13,172351.51l0,900" />
          <path d="M78168.13,173251.51l200,0" />
          <path d="M78368.13,173251.51l0,-900" />
          <path d="M78368.13,172351.51l-200,0" />
          <path d="M78368.13,175561.51l0,-1310" />
          <path d="M78368.13,174251.51l-200,0" />
          <path d="M78168.13,174251.51l0,1310" />
          <use xlink:href="#$DorLib2D$00000001" x="78.268" y="173.752" transform="scale(1000,1000) scale(-1,1) translate(-156.54,0) rotate(-90,78.27,173.75)" stroke-width="0.0001%">.<g class="blkclass0"><text transform="rotate(-90 -216.25,470) translate(-216.25,470)" font-size="386.75">M1030</text></g></use>
          <path d="M78368.13,175561.51l5800,0" />
          <path d="M78268.13,175761.51l5900,0" />
          <path d="M84168.13,175561.51l0,200" />
          <path d="M75848.13,172351.51l0,900" />
          <path d="M75848.13,173251.51l200,0" />
          <path d="M76048.13,173251.51l0,-900" />
          <path d="M76048.13,172351.51l-200,0" />
          <path d="M76048.13,175561.51l0,-1310" />
          <path d="M76048.13,174251.51l-200,0" />
          <path d="M75848.13,174251.51l0,1310" />
          <use xlink:href="#$DorLib2D$00000001" x="75.948" y="173.752" transform="scale(1000,1000) scale(-1,-1) translate(-151.9,-347.5) rotate(-270,75.95,173.75)" stroke-width="0.0001%">.<g class="blkclass0"><text transform="rotate(-90 513.75,470) translate(513.75,470)" font-size="386.75">M1030</text></g></use>
          <path d="M75948.13,175761.51l410,0" />
          <path d="M76358.13,175761.51l0,-200" />
          <path d="M76358.13,175561.51l-310,0" />
          <path d="M78168.13,175561.51l-310,0" />
          <path d="M77858.13,175561.51l0,200" />
          <path d="M77858.13,175761.51l410,0" />
          <path d="M70048.13,175561.51l0,-690" />
          <path d="M70048.13,174871.51l-380,0" />
          <path d="M69668.13,174871.51l0,790" />
          <path d="M69668.13,172161.51l0,1210" />
          <path d="M69668.13,173371.51l380,0" />
          <path d="M70048.13,173371.51l0,-1020" />
          <use xlink:href="#$DorLib2D$00000001" x="78.358" y="166.152" transform="scale(1000,1000) scale(1,-1) translate(0,-332.3) rotate(-270,78.36,166.15)" stroke-width="0.0001%">.<g class="blkclass0"><text transform="rotate(-90 -217.5,470) translate(-217.5,470)" font-size="386.75">M1030</text></g></use>
          <path d="M52168.13,158351.51l1970,0" />
          <path d="M54138.13,158351.51l0,-380" />
          <path d="M54138.13,157971.51l-1590,0" />
          <path d="M55668.13,157971.51l-530,0" />
          <path d="M55138.13,157971.51l0,380" />
          <path d="M55138.13,158351.51l720,0" />
          <path d="M55758.13,166791.51l200,0" />
          <path d="M55758.13,160851.51l200,0" />
          <path d="M17478.13,161471.51l-766.34,0" />
          <path d="M16599.09,161471.51l-1550.96,0" />
          <path d="M17478.13,161471.51l0,-1450" />
          <path d="M17208.13,161471.51l0,-1450" />
          <path d="M16938.13,161471.51l0,-1450" />
          <path d="M16668.13,161387.5l0,-1365.98" />
          <path d="M16398.13,161471.51l0,-386.75" />
          <path d="M16398.13,160867.88l0,-846.37" />
          <path d="M16128.13,161471.51l0,-906.37" />
          <path d="M16128.13,160348.27l0,-326.75" />
          <path d="M15858.13,161471.51l0,-1425.98" />
          <path d="M15588.13,161471.51l0,-1450" />
          <path d="M15318.13,161471.51l0,-1450" />
          <path d="M15048.13,161471.51l0,-1450" />
          <path d="M17478.13,159961.51l-1550.96,0" />
          <path d="M15814.47,159961.51l-766.34,0" />
          <path d="M16599.09,161471.51l-345.08,-664.12" />
          <path d="M16711.79,161471.51l-356.69,-686.45" />
          <path d="M16355.1,160785.07l-174.23,38.49" />
          <path d="M16180.87,160823.56l181.86,-198.17" />
          <path d="M16362.73,160625.38l-182.37,40.29" />
          <path d="M16180.36,160665.67l-365.89,-704.16" />
          <path d="M16281.45,160643.34l-354.29,-681.82" />
          <path d="M15048.13,158351.51l2430,0" />
          <path d="M15048.13,158351.51l0,1450" />
          <path d="M15318.13,158351.51l0,1450" />
          <path d="M15588.13,158351.51l0,1450" />
          <path d="M15858.13,158351.51l0,1450" />
          <path d="M16128.13,158351.51l0,1450" />
          <path d="M16398.13,158351.51l0,1450" />
          <path d="M16668.13,158351.51l0,1450" />
          <path d="M16938.13,158351.51l0,1450" />
          <path d="M17208.13,158351.51l0,1450" />
          <path d="M17478.13,158351.51l0,1450" />
          <path d="M15048.13,159861.51l2430,0" />
          <path d="M17628.13,159801.51l0,220" />
          <path d="M17628.13,160021.51l-1669.79,0" />
          <path d="M15845.65,160021.51l-947.52,0" />
          <path d="M14898.13,160021.51l0,-220" />
          <path d="M14898.13,159801.51l2730,0" />
          <path d="M17568.13,159861.51l0,100" />
          <path d="M17568.13,159961.51l-1640.96,0" />
          <path d="M15814.47,159961.51l-856.34,0" />
          <path d="M14958.13,159961.51l0,-100" />
          <path d="M14958.13,159861.51l2610,0" />
          <path d="M15048.13,158351.51l-1500,0" />
          <path d="M13548.13,158351.51l0,3120" />
          <path d="M13548.13,161471.51l1500,0" />
          <path d="M15048.13,161471.51l0,-1450" />
          <path d="M15048.13,159961.51l0,-100" />
          <path d="M15048.13,159801.51l0,-1450" />
          <path d="M17478.13,159961.51l0,-100" />
          <path d="M17613.13,160716.51l-915,0l-300,0" />
          <path d="M17613.13,159106.51l-3315,0l0,1610l1530,0l300,0" />
          <path d="M80238.13,161471.51l1550.96,0" />
          <path d="M81901.79,161471.51l766.34,0" />
          <path d="M80238.13,160021.51l0,1450" />
          <path d="M80508.13,160021.51l0,1450" />
          <path d="M80778.13,160021.51l0,1450" />
          <path d="M81048.13,160045.53l0,1425.98" />
          <path d="M81318.13,160021.51l0,326.75" />
          <path d="M81318.13,160565.15l0,906.37" />
          <path d="M81588.13,160021.51l0,846.37" />
          <path d="M81588.13,161084.76l0,386.75" />
          <path d="M81858.13,160021.51l0,1365.98" />
          <path d="M82128.13,160021.51l0,1450" />
          <path d="M82398.13,160021.51l0,1450" />
          <path d="M82668.13,160021.51l0,1450" />
          <path d="M80238.13,159961.51l766.34,0" />
          <path d="M81117.17,159961.51l1550.96,0" />
          <path d="M81117.17,159961.51l345.08,664.12" />
          <path d="M81004.47,159961.51l356.69,686.45" />
          <path d="M81361.16,160647.96l174.23,-38.49" />
          <path d="M81535.39,160609.47l-181.86,198.17" />
          <path d="M81353.53,160807.64l182.37,-40.29" />
          <path d="M81535.9,160767.36l365.89,704.16" />
          <path d="M81434.81,160789.69l354.29,681.82" />
          <path d="M82668.13,158351.51l-2430,0" />
          <path d="M82668.13,159801.51l0,-1450" />
          <path d="M82398.13,159801.51l0,-1450" />
          <path d="M82128.13,159801.51l0,-1450" />
          <path d="M81858.13,159801.51l0,-1450" />
          <path d="M81588.13,159801.51l0,-1450" />
          <path d="M81318.13,159801.51l0,-1450" />
          <path d="M81048.13,159801.51l0,-1450" />
          <path d="M80778.13,159801.51l0,-1450" />
          <path d="M80508.13,159801.51l0,-1450" />
          <path d="M80238.13,159801.51l0,-1450" />
          <path d="M82668.13,159861.51l-2430,0" />
          <path d="M80148.13,159861.51l0,100" />
          <path d="M80148.13,159961.51l856.34,0" />
          <path d="M81117.17,159961.51l1640.96,0" />
          <path d="M82758.13,159961.51l0,-100" />
          <path d="M82758.13,159861.51l-2610,0" />
          <path d="M80088.13,159801.51l0,220" />
          <path d="M80088.13,160021.51l947.52,0" />
          <path d="M81148.35,160021.51l1669.79,0" />
          <path d="M82818.13,160021.51l0,-220" />
          <path d="M82818.13,159801.51l-2730,0" />
          <path d="M82668.13,161471.51l1500,0" />
          <path d="M84168.13,161471.51l0,-3120" />
          <path d="M84168.13,158351.51l-1500,0" />
          <path d="M82668.13,158351.51l0,1450" />
          <path d="M82668.13,159861.51l0,100" />
          <path d="M82668.13,160021.51l0,1450" />
          <path d="M80238.13,159961.51l0,-100" />
          <path d="M80103.13,159106.51l3315,0l0,1610l-1530,0l-300,0" />
          <path d="M46448.13,157316.51l0,-915l0,-300" />
          <path d="M51268.13,157316.51l0,-915l0,-300" />
          <path d="M48858.13,157316.51l0,-3765l-2410,0l0,1980l0,300" />
          <path d="M48858.13,157316.51l0,-3765l2410,0l0,1980l0,300" />
          <path d="M45548.13,157181.51l0,-637.65" />
          <path d="M45548.13,156428.39l0,-1676.88" />
          <path d="M47348.13,157181.51l0,-1676.88" />
          <path d="M47348.13,155389.16l0,-637.65" />
          <path d="M45548.13,157181.51l1800,0" />
          <path d="M45548.13,156911.51l1800,0" />
          <path d="M45548.13,156641.51l1800,0" />
          <path d="M45548.13,156371.51l98.52,0" />
          <path d="M45846.65,156371.51l1501.48,0" />
          <path d="M45548.13,156101.51l566.17,0" />
          <path d="M46314.3,156101.51l1033.83,0" />
          <path d="M45548.13,155831.51l1033.83,0" />
          <path d="M46781.96,155831.51l566.17,0" />
          <path d="M45548.13,155561.51l1501.48,0" />
          <path d="M47249.61,155561.51l98.52,0" />
          <path d="M45548.13,155291.51l1800,0" />
          <path d="M45548.13,155021.51l1800,0" />
          <path d="M45548.13,154751.51l1800,0" />
          <path d="M45548.13,156428.39l808.8,-466.96" />
          <path d="M45548.13,156543.86l835.6,-482.43" />
          <path d="M46383.73,156061.43l-46.18,-172.35" />
          <path d="M46337.54,155889.08l206.04,172.89" />
          <path d="M46543.59,156061.97l-48.34,-180.4" />
          <path d="M46495.25,155881.57l852.88,-492.41" />
          <path d="M46522.05,155981.57l826.08,-476.94" />
          <path d="M50058.13,154751.51l0,2430" />
          <path d="M47658.13,154751.51l0,2430" />
          <path d="M50058.13,154751.51l-2400,0" />
          <path d="M50058.13,155021.51l-2400,0" />
          <path d="M50058.13,155291.51l-2400,0" />
          <path d="M50058.13,155561.51l-2400,0" />
          <path d="M50058.13,155831.51l-2400,0" />
          <path d="M50058.13,156101.51l-2400,0" />
          <path d="M50058.13,156371.51l-2400,0" />
          <path d="M50058.13,156641.51l-2400,0" />
          <path d="M50058.13,156911.51l-2400,0" />
          <path d="M50058.13,157181.51l-2400,0" />
          <path d="M50368.13,157181.51l0,-637.65" />
          <path d="M50368.13,156428.39l0,-1676.88" />
          <path d="M52168.13,157181.51l0,-1676.88" />
          <path d="M52168.13,155389.16l0,-637.65" />
          <path d="M50368.13,157181.51l1800,0" />
          <path d="M50368.13,156911.51l1800,0" />
          <path d="M50368.13,156641.51l1800,0" />
          <path d="M50368.13,156371.51l98.52,0" />
          <path d="M50666.65,156371.51l1501.48,0" />
          <path d="M50368.13,156101.51l566.17,0" />
          <path d="M51134.3,156101.51l1033.83,0" />
          <path d="M50368.13,155831.51l1033.83,0" />
          <path d="M51601.96,155831.51l566.17,0" />
          <path d="M50368.13,155561.51l1501.48,0" />
          <path d="M52069.61,155561.51l98.52,0" />
          <path d="M50368.13,155291.51l1800,0" />
          <path d="M50368.13,155021.51l1800,0" />
          <path d="M50368.13,154751.51l1800,0" />
          <path d="M50368.13,156428.39l808.8,-466.96" />
          <path d="M50368.13,156543.86l835.6,-482.43" />
          <path d="M51203.73,156061.43l-46.18,-172.35" />
          <path d="M51157.54,155889.08l206.04,172.89" />
          <path d="M51363.59,156061.97l-48.34,-180.4" />
          <path d="M51315.25,155881.57l852.88,-492.41" />
          <path d="M51342.05,155981.57l826.08,-476.94" />
          <path d="M47718.13,157241.51l-430,0" />
          <path d="M47288.13,157241.51l0,-2550" />
          <path d="M47288.13,154691.51l430,0" />
          <path d="M47718.13,154691.51l0,2550" />
          <path d="M47658.13,157181.51l-310,0" />
          <path d="M47348.13,157181.51l0,-2430" />
          <path d="M47348.13,154751.51l310,0" />
          <path d="M47658.13,154751.51l0,2430" />
          <path d="M50058.13,157181.51l310,0" />
          <path d="M50368.13,157181.51l0,-2430" />
          <path d="M50368.13,154751.51l-310,0" />
          <path d="M50058.13,154751.51l0,2430" />
          <path d="M49998.13,157241.51l430,0" />
          <path d="M50428.13,157241.51l0,-2550" />
          <path d="M50428.13,154691.51l-430,0" />
          <path d="M49998.13,154691.51l0,2550" />
          <path d="M52168.13,154751.51l0,-2400" />
          <path d="M52168.13,152351.51l-6620,0" />
          <path d="M45548.13,152351.51l0,2400" />
          <path d="M45548.13,154751.51l6620,0" />
          <use xlink:href="#$TCHSYS$WIN2D_1000x380" x="15623.13" y="152161.51" transform="scale(-1,1) translate(-31246.26,0) rotate(-360,15623.13,152161.51)">.<g class="blkclass0"><text transform="rotate(0 -595,-312.56) translate(-595,-312.56)" font-size="386.75">WC0920</text></g></use>
          <use xlink:href="#$TCHSYS$WIN2D_2000x380" x="19100.63" y="152161.51" transform="scale(-1,1) translate(-38201.26,0) rotate(-360,19100.63,152161.51)">.<g class="blkclass0"><text transform="rotate(0 -595,-375.79) translate(-595,-375.79)" font-size="386.75">WC2020</text></g></use>
          <use xlink:href="#$TCHSYS$WIN2D_2000x380" x="22600.63" y="152161.51" transform="scale(-1,-1) translate(-45201.26,-304323.02) rotate(0,22600.63,152161.51)">.<g class="blkclass0"><text transform="rotate(0 -595,-316.25) translate(-595,-316.25)" font-size="386.75">WC2020</text></g></use>
          <use xlink:href="#$TCHSYS$WIN2D_2000x380" x="26100.63" y="152161.51" transform="scale(-1,-1) translate(-52201.26,-304323.02) rotate(0,26100.63,152161.51)">.<g class="blkclass0"><text transform="rotate(0 -595,-316.25) translate(-595,-316.25)" font-size="386.75">WC2020</text></g></use>
          <use xlink:href="#$TCHSYS$WIN2D_2000x380" x="29600.63" y="152161.51" transform="scale(-1,1) translate(-59201.26,0)">.<g class="blkclass0"><text transform="translate(-595,-314.4)" font-size="386.75">WC2020</text></g></use>
          <use xlink:href="#$TCHSYS$WIN2D_2000x380" x="33100.63" y="152161.51" transform="scale(-1,-1) translate(-66201.26,-304323.02)">.<g class="blkclass0"><text transform="translate(-595,-316.25)" font-size="386.75">WC2020</text></g></use>
          <use xlink:href="#$TCHSYS$WIN2D_2000x380" x="36600.63" y="152161.51" transform="scale(-1,-1) translate(-73201.26,-304323.02)">.<g class="blkclass0"><text transform="translate(-595,-316.25)" font-size="386.75">WC2020</text></g></use>
          <use xlink:href="#$TCHSYS$WIN2D_2000x380" x="40100.63" y="152161.51" transform="scale(-1,-1) translate(-80201.26,-304323.02)">.<g class="blkclass0"><text transform="translate(-595,-316.25)" font-size="386.75">WC2020</text></g></use>
          <use xlink:href="#$TCHSYS$WIN2D_2000x380" x="43600.63" y="152161.51" transform="scale(-1,-1) translate(-87201.26,-304323.02)">.<g class="blkclass0"><text transform="translate(-595,-316.25)" font-size="386.75">WC2020</text></g></use>
          <use xlink:href="#$TCHSYS$WIN2D_1600x380" x="48835.63" y="152161.51" transform="scale(1,-1) translate(0,-304323.02)">.<g class="blkclass0"><text transform="translate(-580,-350.41)" font-size="386.75">WC1624</text></g></use>
          <use xlink:href="#$TCHSYS$WIN2D_1600x380" x="46855.63" y="152161.51">.<g class="blkclass0"><text transform="translate(-530,-322.69)" font-size="386.75">WC1624</text></g></use>
          <use xlink:href="#$TCHSYS$WIN2D_1600x380" x="50815.63" y="152161.51" transform="scale(1,-1) translate(0,-304323.02)">.<g class="blkclass0"><text transform="translate(-630,-308)" font-size="386.75">WC1624</text></g></use>
          <use xlink:href="#$TCHSYS$WIN2D_2000x380" x="54070.63" y="152161.51" transform="scale(1,-1) translate(0,-304323.02)">.<g class="blkclass0"><text transform="translate(-595,-316.25)" font-size="386.75">WC2020</text></g></use>
          <use xlink:href="#$TCHSYS$WIN2D_2000x380" x="68070.63" y="152161.51" transform="scale(1,-1) translate(0,-304323.02) rotate(0,68070.63,152161.51)">.<g class="blkclass0"><text transform="translate(-595,-316.25)" font-size="386.75">WC2020</text></g></use>
          <use xlink:href="#$TCHSYS$WIN2D_2000x380" x="64570.63" y="152161.51" transform="scale(1,-1) translate(0,-304323.02) rotate(0,64570.63,152161.51)">.<g class="blkclass0"><text transform="translate(-595,-316.25)" font-size="386.75">WC2020</text></g></use>
          <use xlink:href="#$TCHSYS$WIN2D_2000x380" x="61070.63" y="152161.51" transform="scale(1,-1) translate(0,-304323.02) rotate(0,61070.63,152161.51)">.<g class="blkclass0"><text transform="translate(-595,-316.25)" font-size="386.75">WC2020</text></g></use>
          <use xlink:href="#$TCHSYS$WIN2D_1000x380" x="82048.13" y="152161.51" transform="scale(1,-1) translate(0,-304323.02)">.<g class="blkclass0"><text transform="translate(-595,-316.25)" font-size="386.75">WC0920</text></g></use>
          <use xlink:href="#$TCHSYS$WIN2D_2000x380" x="78570.63" y="152161.51" transform="scale(1,-1) translate(0,-304323.02)">.<g class="blkclass0"><text transform="translate(-595,-316.25)" font-size="386.75">WC2020</text></g></use>
          <use xlink:href="#$TCHSYS$WIN2D_2000x380" x="75070.63" y="152161.51" transform="scale(1,-1) translate(0,-304323.02)">.<g class="blkclass0"><text transform="translate(-595,-316.25)" font-size="386.75">WC2020</text></g></use>
          <use xlink:href="#$TCHSYS$WIN2D_2000x380" x="71570.63" y="152161.51" transform="scale(1,-1) translate(0,-304323.02)">.<g class="blkclass0"><text transform="translate(-595,-316.25)" font-size="386.75">WC2020</text></g></use>
          <use xlink:href="#$TCHSYS$WIN2D_2000x380" x="57570.63" y="152161.51" transform="scale(1,-1) translate(0,-304323.02)">.<g class="blkclass0"><text transform="translate(-595,-316.25)" font-size="386.75">WC2020</text></g></use>
          <use xlink:href="#$TCHSYS$WIN2D_2000x380" x="68093.13" y="166981.51" transform="scale(-1,-1) translate(-136186.26,-333963.02) rotate(-180,68093.13,166981.51)">.<g class="blkclass0"><text transform="translate(-595,613.75)" font-size="386.75">WC2020</text></g></use>
          <use xlink:href="#$TCHSYS$WIN2D_2000x380" x="64593.13" y="166981.51" transform="scale(-1,-1) translate(-129186.26,-333963.02) rotate(-180,64593.13,166981.51)">.<g class="blkclass0"><text transform="translate(-595,613.75)" font-size="386.75">WC2020</text></g></use>
          <use xlink:href="#$TCHSYS$WIN2D_2000x380" x="61093.13" y="166981.51" transform="scale(-1,-1) translate(-122186.26,-333963.02) rotate(-180,61093.13,166981.51)">.<g class="blkclass0"><text transform="translate(-595,613.75)" font-size="386.75">WC2020</text></g></use>
          <use xlink:href="#$TCHSYS$WIN2D_2000x380" x="57593.13" y="166981.51" transform="scale(-1,-1) translate(-115186.26,-333963.02) rotate(-180,57593.13,166981.51)">.<g class="blkclass0"><text transform="translate(-595,613.75)" font-size="386.75">WC2020</text></g></use>
          <use xlink:href="#$TCHSYS$WIN2D_2000x380" x="54093.13" y="166981.51" transform="scale(-1,-1) translate(-108186.26,-333963.02) rotate(-180,54093.13,166981.51)">.<g class="blkclass0"><text transform="translate(-595,613.75)" font-size="386.75">WC2020</text></g></use>
          <use xlink:href="#$TCHSYS$WIN2D_2000x380" x="50593.13" y="166981.51" transform="scale(-1,-1) translate(-101186.26,-333963.02) rotate(-180,50593.13,166981.51)">.<g class="blkclass0"><text transform="translate(-595,613.75)" font-size="386.75">WC2020</text></g></use>
          <use xlink:href="#$TCHSYS$WIN2D_2000x380" x="47123.13" y="166981.51" transform="scale(1,-1) translate(0,-333963.02) rotate(-180,47123.13,166981.51)">.<g class="blkclass0"><text transform="translate(-595,613.75)" font-size="386.75">WC2020</text></g></use>
          <use xlink:href="#$TCHSYS$WIN2D_2000x380" x="43623.13" y="166981.51" transform="scale(1,-1) translate(0,-333963.02) rotate(-180,43623.13,166981.51)">.<g class="blkclass0"><text transform="translate(-595,613.75)" font-size="386.75">WC2020</text></g></use>
          <use xlink:href="#$TCHSYS$WIN2D_2000x380" x="29623.13" y="166981.51" transform="scale(1,-1) translate(0,-333963.02) rotate(-180,29623.13,166981.51)">.<g class="blkclass0"><text transform="translate(-595,613.75)" font-size="386.75">WC2020</text></g></use>
          <use xlink:href="#$TCHSYS$WIN2D_2000x380" x="33123.13" y="166981.51" transform="scale(1,-1) translate(0,-333963.02) rotate(-180,33123.13,166981.51)">.<g class="blkclass0"><text transform="translate(-595,613.75)" font-size="386.75">WC2020</text></g></use>
          <use xlink:href="#$TCHSYS$WIN2D_2000x380" x="36623.13" y="166981.51" transform="scale(1,-1) translate(0,-333963.02) rotate(-180,36623.13,166981.51)">.<g class="blkclass0"><text transform="translate(-595,613.75)" font-size="386.75">WC2020</text></g></use>
          <use xlink:href="#$TCHSYS$WIN2D_2000x380" x="40123.13" y="166981.51" transform="scale(1,-1) translate(0,-333963.02) rotate(-180,40123.13,166981.51)">.<g class="blkclass0"><text transform="translate(-595,613.75)" font-size="386.75">WC2020</text></g></use>
          <use xlink:href="#$TCHSYS$WIN2D_1500x380" x="69858.13" y="177121.51" transform="scale(1,-1) translate(0,-354243.02) rotate(-270,69858.13,177121.51)">.<g class="blkclass0"><text transform="rotate(-90 -316.25,575) translate(-316.25,575)" font-size="386.75">WC1520</text></g></use>
          <use xlink:href="#$TCHSYS$WIN2D_1500x380" x="69858.13" y="180121.51" transform="scale(1,-1) translate(0,-360243.02) rotate(-270,69858.13,180121.51)">.<g class="blkclass0"><text transform="rotate(-90 -316.25,575) translate(-316.25,575)" font-size="386.75">WC1520</text></g></use>
          <use xlink:href="#$TCHSYS$WIN2D_1500x380" x="69858.13" y="174121.51" transform="scale(1,-1) translate(0,-348243.02) rotate(-270,69858.13,174121.51)">.<g class="blkclass0"><text transform="rotate(-90 -319.54,575) translate(-319.54,575)" font-size="386.75">WC1520</text></g></use>
          <use xlink:href="#$TCHSYS$WIN2D_1500x380" x="69858.13" y="171121.51" transform="scale(1,-1) translate(0,-342243.02) rotate(-270,69858.13,171121.51)">.<g class="blkclass0"><text transform="rotate(-90 -316.25,575) translate(-316.25,575)" font-size="386.75">WC1520</text></g></use>
          <use xlink:href="#$TCHSYS$WIN2D_1500x380" x="69858.13" y="168121.51" transform="scale(1,-1) translate(0,-336243.02) rotate(-270,69858.13,168121.51)">.<g class="blkclass0"><text transform="rotate(-90 -316.25,575) translate(-316.25,575)" font-size="386.75">WC1520</text></g></use>
          <use xlink:href="#$TCHSYS$WIN2D_1500x380" x="27858.13" y="168121.51" transform="scale(-1,1) translate(-55716.26,0) rotate(-90,27858.13,168121.51)">.<g class="blkclass0"><text transform="rotate(-90 683.46,575) translate(683.46,575)" font-size="386.75">WC1520</text></g></use>
          <use xlink:href="#$TCHSYS$WIN2D_1500x380" x="27858.13" y="171121.51" transform="scale(-1,-1) translate(-55716.26,-342243.02) rotate(-270,27858.13,171121.51)">.<g class="blkclass0"><text transform="rotate(-90 613.75,575) translate(613.75,575)" font-size="386.75">WC1520</text></g></use>
          <use xlink:href="#$TCHSYS$WIN2D_1500x380" x="27858.13" y="174121.51" transform="scale(-1,-1) translate(-55716.26,-348243.02) rotate(-270,27858.13,174121.51)">.<g class="blkclass0"><text transform="rotate(-90 611.5,575) translate(611.5,575)" font-size="386.75">WC1520</text></g></use>
          <use xlink:href="#$TCHSYS$WIN2D_1500x380" x="27858.13" y="177121.51" transform="scale(-1,-1) translate(-55716.26,-354243.02) rotate(-270,27858.13,177121.51)">.<g class="blkclass0"><text transform="rotate(-90 613.75,575) translate(613.75,575)" font-size="386.75">WC1520</text></g></use>
          <use xlink:href="#$TCHSYS$WIN2D_1500x380" x="27858.13" y="180121.51" transform="scale(-1,1) translate(-55716.26,0) rotate(-90,27858.13,180121.51)">.<g class="blkclass0"><text transform="rotate(-90 613.75,575) translate(613.75,575)" font-size="386.75">WC1520</text></g></use>
          <path d="M22048.13,160851.51l4060,0" />
          <path d="M26108.13,160851.51l0,-380" />
          <path d="M26108.13,160471.51l-4060,0" />
          <path d="M27858.13,160471.51l-750,0" />
          <path d="M27108.13,160471.51l0,380" />
          <path d="M27108.13,160851.51l560,0" />
          <path d="M34933.13,160851.51l0,5940" />
          <path d="M34783.13,160851.51l0,5940" />
          <path d="M34783.13,166791.51l-660,0" />
          <path d="M34123.13,166791.51l0,380" />
          <path d="M34123.13,167171.51l735,0" />
          <path d="M28048.13,167171.51l575,0" />
          <path d="M28623.13,167171.51l0,-380" />
          <path d="M28623.13,166791.51l-575,0" />
          <path d="M32123.13,166791.51l-1500,0" />
          <path d="M30623.13,166791.51l0,380" />
          <path d="M30623.13,167171.51l1500,0" />
          <path d="M32123.13,167171.51l0,-380" />
          <path d="M34858.13,160471.51l-5250,0" />
          <path d="M29608.13,160471.51l0,380" />
          <path d="M29608.13,160851.51l5175,0" />
          <path d="M28048.13,160851.51l560,0" />
          <path d="M28608.13,160851.51l0,-380" />
          <path d="M28608.13,160471.51l-750,0" />
          <path d="M38258.13,166791.51l-635,0" />
          <path d="M37623.13,166791.51l0,380" />
          <path d="M37623.13,167171.51l735,0" />
          <path d="M34858.13,167171.51l765,0" />
          <path d="M35623.13,167171.51l0,-380" />
          <path d="M35623.13,166791.51l-690,0" />
          <path d="M22048.13,160471.51l0,-160" />
          <path d="M22048.13,160311.51l-380,0" />
          <path d="M21668.13,160311.51l0,350" />
          <path d="M21668.13,158351.51l0,160" />
          <path d="M21668.13,158511.51l380,0" />
          <path d="M22048.13,158511.51l0,-160" />
          <path d="M22048.13,158351.51l3560,0" />
          <path d="M25608.13,158351.51l0,-380" />
          <path d="M25608.13,157971.51l-3750,0" />
          <path d="M27668.13,157971.51l-560,0" />
          <path d="M27108.13,157971.51l0,380" />
          <path d="M27108.13,158351.51l750,0" />
          <path d="M21668.13,158511.51l0,1800" />
          <path d="M22048.13,160311.51l0,-1800" />
          <path d="M76048.13,160661.51l0,-350" />
          <path d="M76048.13,160311.51l-380,0" />
          <path d="M75668.13,160311.51l0,160" />
          <path d="M75668.13,158351.51l0,160" />
          <path d="M75668.13,158511.51l380,0" />
          <path d="M76048.13,158511.51l0,-160" />
          <path d="M75668.13,158511.51l0,1800" />
          <path d="M76048.13,160311.51l0,-1800" />
          <path d="M76048.13,158351.51l1500,0" />
          <path d="M77548.13,158351.51l0,-380" />
          <path d="M77548.13,157971.51l-1690,0" />
          <path d="M84168.13,157971.51l-5120,0" />
          <path d="M79048.13,157971.51l0,380" />
          <path d="M79048.13,158351.51l5120,0" />
          <path d="M21668.13,162385.74l-260,0" />
          <path d="M21408.13,162385.74l0,380" />
          <path d="M21408.13,162765.74l260,0" />
          <path d="M19548.13,162765.74l260,0" />
          <path d="M19808.13,162765.74l0,-380" />
          <path d="M19808.13,162385.74l-260,0" />
          <path d="M19808.13,162765.74l1600,0" />
          <path d="M21408.13,162385.74l-1600,0" />
          <path d="M21668.13,162385.74l0,-1724.23" />
          <path d="M22048.13,162575.74l0,-1724.23" />
          <path d="M19168.13,162575.74l0,-724.23" />
          <path d="M19548.13,162385.74l0,-914.23" />
          <path d="M66943.13,160851.51l0,600" />
          <path d="M66943.13,161451.51l150,0" />
          <path d="M67093.13,161451.51l0,-600" />
          <path d="M67093.13,166791.51l0,-4340" />
          <path d="M67093.13,162451.51l-150,0" />
          <path d="M66943.13,162451.51l0,4340" />
          <use xlink:href="#$DorLib2D$00000001" x="67.018" y="161.952" transform="scale(1000,1000) scale(-1,-1) translate(-134.04,-323.9) rotate(-270,67.02,161.95)" stroke-width="0.0001%">.<g class="blkclass0"><text transform="rotate(-90 688.75,425) translate(688.75,425)" font-size="386.75">M1021</text></g></use>
          <path d="M62958.13,160851.51l0,5940" />
          <path d="M62758.13,160851.51l0,5940" />
          <path d="M62758.13,166791.51l-665,0" />
          <path d="M62093.13,166791.51l0,380" />
          <path d="M62093.13,167171.51l765,0" />
          <path d="M52358.13,167171.51l735,0" />
          <path d="M53093.13,167171.51l0,-380" />
          <path d="M53093.13,166791.51l-545,0" />
          <path d="M60093.13,166791.51l-1500,0" />
          <path d="M58593.13,166791.51l0,380" />
          <path d="M58593.13,167171.51l1500,0" />
          <path d="M60093.13,167171.51l0,-380" />
          <path d="M56593.13,166791.51l-1500,0" />
          <path d="M55093.13,166791.51l0,380" />
          <path d="M55093.13,167171.51l1500,0" />
          <path d="M56593.13,167171.51l0,-380" />
          <path d="M76048.13,162765.74l215,0" />
          <path d="M76263.13,162765.74l0,-380" />
          <path d="M76263.13,162385.74l-215,0" />
          <path d="M78168.13,162385.74l-305,0" />
          <path d="M77863.13,162385.74l0,380" />
          <path d="M77863.13,162765.74l305,0" />
          <path d="M75668.13,162575.74l0,-1724.23" />
          <path d="M76048.13,162385.74l0,-1724.23" />
          <path d="M78168.13,162385.74l0,-914.23" />
          <path d="M78548.13,162575.74l0,-724.23" />
          <path d="M23888.62,166251.51l1090,0" />
          <path d="M23868.62,166271.51l1110,0" />
          <path d="M23908.62,166231.51l1040,0" />
          <path d="M23848.62,166291.51l1130,0" />
          <path d="M28048.13,166261.51l0,530" />
          <path d="M27668.13,166261.51l0,720" />
          <path d="M23868.62,166271.51l0,-1419.71" />
          <path d="M23868.62,163951.81l0,-120.29" />
          <path d="M23888.62,166251.51l0,-1399.71" />
          <path d="M23888.62,163951.81l0,-120.29" />
          <path d="M23908.62,166231.51l0,-1379.71" />
          <path d="M23908.62,164851.81l-60,0" />
          <path d="M23848.62,164851.81l0,1439.71" />
          <path d="M23848.62,163831.51l0,120.29" />
          <path d="M23848.62,163951.81l60,0" />
          <path d="M23908.62,163951.81l0,-120.29" />
          <path d="M23878.62,163831.51l-1830.49,0" />
          <path d="M23878.62,163451.51l-1830.49,0" />
          <path d="M24968.62,166251.51l0,-1399.71" />
          <path d="M24968.62,163951.81l0,-120.29" />
          <path d="M24988.62,166271.51l0,-1419.71" />
          <path d="M24988.62,163951.81l0,-120.29" />
          <path d="M25008.62,166231.51l0,-1379.71" />
          <path d="M25008.62,164851.81l-60,0" />
          <path d="M24948.62,164851.81l0,1379.71" />
          <path d="M24948.62,163831.51l0,120.29" />
          <path d="M24948.62,163951.81l60,0" />
          <path d="M25008.62,163951.81l0,-120.29" />
          <path d="M24988.62,166251.51l2679.51,0" />
          <path d="M24968.62,166271.51l2699.51,0" />
          <path d="M25008.62,166231.51l2659.51,0" />
          <path d="M24978.62,166291.51l2689.51,0" />
          <path d="M24978.62,163831.51l-1100,0" />
          <path d="M24978.62,163451.51l-1100,0" />
          <use xlink:href="#$DorLib2D$00000001" x="27.754" y="182.669" transform="scale(900,900) rotate(-90,27.75,182.67)" stroke-width="0.0001%">.<g class="blkclass0"><text transform="rotate(-90 649.36,550) translate(649.36,550)" font-size="386.75">BM0921</text></g></use>
          <use xlink:href="#$DorLib2D$00000001" x="26.532" y="182.669" transform="scale(900,900) rotate(-90,26.53,182.67)" stroke-width="0.0001%">.<g class="blkclass0"><text transform="rotate(-90 649.36,550) translate(649.36,550)" font-size="386.75">BM0921</text></g></use>
          <path d="M74028.13,169231.51l0,-2400.28" />
          <path d="M74028.13,165931.24l0,-5079.72" />
          <path d="M74048.13,169231.51l0,-2400.28" />
          <path d="M74048.13,165931.24l0,-5079.72" />
          <path d="M74068.13,169231.51l0,-2400.28" />
          <path d="M74068.13,166831.24l-60,0" />
          <path d="M74008.13,166831.24l0,2400.28" />
          <path d="M74008.13,160851.51l0,5079.72" />
          <path d="M74008.13,165931.24l60,0" />
          <path d="M74068.13,165931.24l0,-5079.72" />
          <use xlink:href="#$DorLib2D$00000130_900x60" x="74038.13" y="166381.24" transform="rotate(-90,74038.13,166381.24)">.<g class="blkclass0"><text transform="rotate(-90 649.36,620) translate(649.36,620)" font-size="386.75">TLM0921</text></g></use>
          <path d="M74038.13,169231.51l1630,0" />
          <path d="M74038.13,169611.51l1630,0" />
          <path d="M71853.13,160851.51l-150,0" />
          <path d="M69668.13,163641.51l0,-2790" />
          <path d="M70048.13,163451.51l0,-2600" />
          <path d="M82128.13,155323.31l0,-90.36" />
          <path d="M82128.13,154332.95l0,-1981.44" />
          <path d="M82148.13,155303.31l0,-70.36" />
          <path d="M82148.13,154332.95l0,-1981.44" />
          <path d="M82168.13,155283.31l0,-50.36" />
          <path d="M82168.13,155232.95l-60,0" />
          <path d="M82108.13,155232.95l0,110.36" />
          <path d="M82108.13,152351.51l0,1981.44" />
          <path d="M82108.13,154332.95l60,0" />
          <path d="M82168.13,154332.95l0,-1981.44" />
          <use xlink:href="#$DorLib2D$00000001" x="91.265" y="171.981" transform="scale(900,900) scale(-1,-1) translate(-182.53,-343.96) rotate(-90,91.26,171.98)" stroke-width="0.0001%">.<g class="blkclass0"><text transform="rotate(-90 -371.32,550) translate(-371.32,550)" font-size="386.75">BM0921</text></g></use>
          <path d="M84548.13,155313.31l0,2848.2" />
          <path d="M84168.13,155313.31l0,2658.2" />
          <path d="M82148.13,155303.31l2020,0" />
          <path d="M82128.13,155323.31l2040,0" />
          <path d="M82168.13,155283.31l2000,0" />
          <path d="M82108.13,155343.31l2060,0" />
          <path d="M41758.13,160851.51l0,810" />
          <path d="M41758.13,161661.51l200,0" />
          <path d="M41958.13,161661.51l0,-810" />
          <path d="M41958.13,166791.51l0,-4130" />
          <path d="M41958.13,162661.51l-200,0" />
          <path d="M41758.13,162661.51l0,4130" />
          <path d="M41858.13,160471.51l-1780,0" />
          <path d="M40078.13,160471.51l0,380" />
          <path d="M40078.13,160851.51l1680,0" />
          <path d="M38458.13,160851.51l620,0" />
          <path d="M39078.13,160851.51l0,-380" />
          <path d="M39078.13,160471.51l-720,0" />
          <path d="M41758.13,166791.51l-635,0" />
          <path d="M41123.13,166791.51l0,380" />
          <path d="M41123.13,167171.51l735,0" />
          <path d="M38358.13,167171.51l765,0" />
          <path d="M39123.13,167171.51l0,-380" />
          <path d="M39123.13,166791.51l-665,0" />
          <path d="M66943.13,160851.51l-3985,0" />
          <path d="M67018.13,160471.51l-4175,0" />
          <path d="M66943.13,166791.51l-1350,0" />
          <path d="M65593.13,166791.51l0,380" />
          <path d="M65593.13,167171.51l1425,0" />
          <path d="M62858.13,167171.51l735,0" />
          <path d="M63593.13,167171.51l0,-380" />
          <path d="M63593.13,166791.51l-635,0" />
        </g>
        <g id="layer-0" class="i0">
          <path d="M82168.13,152351.51l-60,0" />
        </g>
      </g>
      <g id="assets" fill="none">
        <g id="rm-assets" class="rm-asset">
          <path id="15013;F02;214" d="M13548.13,182471.51l14120,0l0,-6710l-14120,0z" />
          <path id="15013;F02;201" d="M70048.13,175761.51l14120,0l0,6710l-14120,0z" />
          <path id="15013;F02;210" d="M13548.13,157971.51l14120,0l0,-5620l-14120,0z" />
          <path id="15013;F02;204" d="M70048.13,152351.51l0,5620l14120,0l0,-2628.2l0,-2991.8l-2060,0z" />
          <path id="15013;F02;223" d="M52548.13,166791.51l10210,0l0,-5940l-10210,0z" />
          <path id="15013;F02;205" d="M59548.13,157971.51l10120,0l0,-5620l-10120,0z" />
          <path id="15013;F02;209" d="M28048.13,157971.51l10120,0l0,-5620l-10120,0z" />
          <path id="15013;F02;218" d="M28048.13,166791.51l6735,0l0,-5940l-6735,0z" />
          <path id="15013;F02;220" d="M38458.13,166791.51l6710,0l0,-5940l-6710,0z" />
          <path id="15013;F02;224" d="M62958.13,166791.51l6710,0l0,-5940l-6710,0z" />
          <path id="15013;F02;208" d="M38548.13,157971.51l6620,0l0,-5620l-6620,0z" />
          <path id="15013;F02;203" d="M78548.13,171971.51l5620,0l0,-6620l-5620,0z" />
          <path id="15013;F02;215" d="M23848.62,166291.51l0,-2460l-1800.49,0l0,8140l5620,0l0,-5680l-3779.51,-40" />
          <path id="15013;F02;226" d="M70048.13,175561.51l5800,0l0,-5950l-5800,0z" />
          <path id="15013;F02;225" d="M70048.13,163831.51l5620,0l0,5400l-5620,0z" />
          <path id="15013;F02;219" d="M34933.13,166791.51l3325,0l0,-5940l-3325,0z" />
          <path id="15013;F02;221" d="M45548.13,166791.51l3210,0l0,-6120l-3210,0z" />
          <path id="15013;F02;222" d="M48958.13,166791.51l3210,0l0,-6120l-3210,0z" />
          <path id="15013;F02;202" d="M78368.13,175561.51l5800,0l0,-3210l-5800,0z" />
          <path id="15013;F02;216" d="M21868.13,172351.51l5800,0l0,3210l-5800,0z" />
          <path id="15013;F02;211" d="M13548.13,168561.51l5620,0l0,-3210l-5620,0z" />
          <path id="15013;F02;212" d="M13548.13,168761.51l5620,0l0,3210l-5620,0z" />
          <path id="15013;F02;213" d="M13548.13,172351.51l5604.37,0l0,3210l-5604.37,0z" />
          <path id="15013;F02;206" d="M56048.13,157971.51l3120,0l0,-5620l-3120,0z" />
          <path id="15013;F02;207" d="M52548.13,157971.51l3120,0l0,-5620l-3120,0z" />
          <path id="15013;F02;217" d="M22048.13,160851.51l5620,0l0,2600l-5620,0z" />
        </g>
      </g>
    </g>
    <g id="text" font-family="Arial" font-size="910" font-weight="normal" text-style="normal" text-anchor="start" dominant-baseline="alphabetical" fill="#FF0000" xml:space="preserve">
      <g id="layer-body-text" font-size="438.865" fill="#ff7f00" stroke="#ff7f00" stroke-width="0.02">
        <g transform="rotate(-90 21541.88,162206.51) translate(21541.88,162206.51)" font-size="386.75">
          <text>GC1209</text>
        </g>
        <g transform="translate(78284.96,160776.51)">
          <text>上</text>
        </g>
        <g transform="translate(17718.13,160891.51)">
          <text>上</text>
        </g>
        <g transform="translate(17718.13,159281.51)">
          <text>下</text>
        </g>
        <g transform="translate(79808.24,159281.51)">
          <text>下</text>
        </g>
        <g transform="translate(46343.88,157771.51)">
          <text>上</text>
        </g>
        <g transform="translate(51163.88,157771.51)">
          <text>上</text>
        </g>
        <g transform="translate(48763.18,157771.51)">
          <text>下</text>
        </g>
        <g transform="translate(48763.18,157771.51)">
          <text>下</text>
        </g>
      </g>
      <g id="layer-name-text">
        <g transform="translate(80706.53,163311.51)" font-size="626.95">
          <text>女卫生间</text>
        </g>
        <g transform="translate(15714.51,163311.51)" font-size="626.95">
          <text>男卫生间</text>
        </g>
        <g transform="translate(17637.1,173672.75)" font-size="552.5">
          <text>213</text>
        </g>
        <g transform="translate(76563.85,177092.71)">
          <text>201</text>
        </g>
        <g transform="translate(79012.86,174538.38)">
          <text>202</text>
        </g>
        <g transform="translate(71873.2,165760.3)">
          <text>225</text>
        </g>
        <g transform="translate(77667.07,157253.05)">
          <text>204</text>
        </g>
        <g transform="translate(70689.72,157035.69)">
          <text>204</text>
        </g>
        <g transform="translate(68079.99,157020.16)">
          <text>205</text>
        </g>
        <g transform="translate(59914.83,157020.16)">
          <text>205</text>
        </g>
        <g transform="translate(57577.48,157020.16)">
          <text>206</text>
        </g>
        <g transform="translate(54071.45,157020.16)">
          <text>207</text>
        </g>
        <g transform="translate(53924.5,162362.7)">
          <text>223</text>
        </g>
        <g transform="translate(38862.18,162362.7)">
          <text>220</text>
        </g>
        <g transform="translate(38788.6,157020.16)">
          <text>208</text>
        </g>
        <g transform="translate(36575.99,157020.16)">
          <text>209</text>
        </g>
        <g transform="translate(28434.51,157020.16)">
          <text>209</text>
        </g>
        <g transform="translate(25809.24,157020.16)">
          <text>210</text>
        </g>
        <g transform="translate(28361.26,162362.7)">
          <text>218</text>
        </g>
        <g transform="translate(18886.64,157020.16)">
          <text>210</text>
        </g>
        <g transform="translate(17337.39,167933.03)">
          <text>211</text>
        </g>
        <g transform="translate(22864.13,171493.1)">
          <text>215</text>
        </g>
        <g transform="translate(17337.39,169902.7)">
          <text>212</text>
        </g>
        <g transform="translate(20103.31,176999.05)">
          <text>214</text>
        </g>
        <g transform="translate(22864.13,174409.87)">
          <text>216</text>
        </g>
        <g transform="translate(22445.42,165663.22)">
          <text>215</text>
        </g>
        <g transform="translate(36668.07,162362.7)">
          <text>219</text>
        </g>
        <g transform="translate(45867.92,162362.7)">
          <text>221</text>
        </g>
        <g transform="translate(50521.73,162362.7)">
          <text>222</text>
        </g>
        <g transform="translate(61247.17,162362.7)">
          <text>223</text>
        </g>
        <g transform="translate(68136.14,162362.7)">
          <text>224</text>
        </g>
        <g transform="translate(73782.51,174501.62)">
          <text>226</text>
        </g>
        <g transform="translate(79516.11,166604.78)">
          <text>203</text>
        </g>
        <g transform="translate(25982.01,162299.33)">
          <text>217</text>
        </g>
      </g>
    </g>
    <g id="asset-labels" font-family="Arial" font-weight="bold" font-size="38.1em" text-anchor="middle">
      <g id="rm-labels">
        <g id="l-rm-15013;F02;214" transform="translate(20608.13,179116.51)">
          <text>214</text>
        </g>
        <g id="l-rm-15013;F02;201" transform="translate(77108.13,179116.51)">
          <text>201</text>
        </g>
        <g id="l-rm-15013;F02;210" transform="translate(20608.13,155161.51)">
          <text>210</text>
        </g>
        <g id="l-rm-15013;F02;204" transform="translate(77108.13,155161.51)">
          <text>204</text>
        </g>
        <g id="l-rm-15013;F02;223" transform="translate(57653.13,163821.51)">
          <text>223</text>
        </g>
        <g id="l-rm-15013;F02;205" transform="translate(64608.13,155161.51)">
          <text>205</text>
        </g>
        <g id="l-rm-15013;F02;209" transform="translate(33108.13,155161.51)">
          <text>209</text>
        </g>
        <g id="l-rm-15013;F02;218" transform="translate(31415.63,163821.51)">
          <text>218</text>
        </g>
        <g id="l-rm-15013;F02;220" transform="translate(40108.13,163821.51)">
          <text>220</text>
        </g>
        <g id="l-rm-15013;F02;224" transform="translate(68380.63,163821.51)">
          <text>224</text>
        </g>
        <g id="l-rm-15013;F02;208" transform="translate(41858.13,155161.51)">
          <text>208</text>
        </g>
        <g id="l-rm-15013;F02;203" transform="translate(81358.13,168661.51)">
          <text>203</text>
        </g>
        <g id="l-rm-15013;F02;215" transform="translate(24858.13,167901.51)">
          <text>215</text>
        </g>
        <g id="l-rm-15013;F02;226" transform="translate(72948.13,173956.51)">
          <text>226</text>
        </g>
        <g id="l-rm-15013;F02;225" transform="translate(72858.13,166531.51)">
          <text>225</text>
        </g>
        <g id="l-rm-15013;F02;219" transform="translate(36595.63,163821.51)">
          <text>219</text>
        </g>
        <g id="l-rm-15013;F02;221" transform="translate(47153.13,163731.51)">
          <text>221</text>
        </g>
        <g id="l-rm-15013;F02;222" transform="translate(50563.13,163731.51)">
          <text>222</text>
        </g>
        <g id="l-rm-15013;F02;202" transform="translate(81268.13,173956.51)">
          <text>202</text>
        </g>
        <g id="l-rm-15013;F02;216" transform="translate(24768.13,173956.51)">
          <text>216</text>
        </g>
        <g id="l-rm-15013;F02;211" transform="translate(16358.13,166956.51)">
          <text>211</text>
        </g>
        <g id="l-rm-15013;F02;212" transform="translate(16358.13,170366.51)">
          <text>212</text>
        </g>
        <g id="l-rm-15013;F02;213" transform="translate(16350.32,173956.51)">
          <text>213</text>
        </g>
        <g id="l-rm-15013;F02;206" transform="translate(57608.13,155161.51)">
          <text>206</text>
        </g>
        <g id="l-rm-15013;F02;207" transform="translate(54108.13,155161.51)">
          <text>207</text>
        </g>
        <g id="l-rm-15013;F02;217" transform="translate(24858.13,162151.51)">
          <text>217</text>
        </g>
      </g>
    </g>
  </g>
</svg>