<svg version="1.1" xmlns="http://www.w3.org/2000/svg" xmlns:xlink="http://www.w3.org/1999/xlink" viewBox="11960.96 211693.74 73794 32501">
  <style>.i0 { stroke:#000000;   } .body { stroke:#ff7f00;   } .rm { stroke:#00ffff;   } .gros { stroke:#ff00ff;   } .pub_wall { stroke:#c0c0c0;   } .rm-asset { stroke:#0000ff;   fill:#EEEEEE; fill-opacity:1;} .rmtc-asset { stroke:#0000ff;   } .rmtc { stroke:#00ffff;   } .rm-assettxt { stroke:#0000ff;   } .rmtc-assettxt { stroke:#0000ff;   } .cnc-0 { stroke:#000000;  stroke-dasharray:0; } .cnc-1 { stroke:#000000;  stroke-dasharray:0; } .cnc-2 { stroke:#ff7f00; stroke-width:40; stroke-dasharray:0; } .cnc-3 { stroke:#000000; stroke-width:70; stroke-dasharray:0; } .blkclass0 { stroke:#000000;  stroke-width:0.02;  fill:#000000; fill-opacity:1; font-family:Arial; font-size:386.75; font-weight:normal; text-style:normal; text-anchor:start;}</style>
  <view id="defaultView" viewBox="11960.96 211693.74 73794 32501" />
  <defs>
    <symbol id="$DorLib2D$00000001" overflow="visible" class="i0">
      <path d="M0.45,-0.98l0.05,0" />
      <path d="M0.5,0l-0.05,0" />
      <path d="M-0.5,0a0.98,0.98 0 0,1 0.95,-0.97" />
      <path d="M0.5,0l0,-0.98" />
      <path d="M0.45,0l0,-0.98" />
    </symbol>
    <symbol id="$DorLib2D$00000002" overflow="visible" class="i0">
      <path d="M-0.5,0l0,-0.49" />
      <path d="M-0.48,0l0,-0.49" />
      <path d="M-0.5,0l0.02,0" />
      <path d="M-0.48,-0.49l-0.02,0" />
      <path d="M-0.48,-0.49a0.49,0.49 0 0,1 0.48,0.49" />
      <path d="M0,0a0.49,0.49 0 0,1 0.48,-0.49" />
      <path d="M0.48,0l0,-0.49" />
      <path d="M0.5,0l0,-0.49" />
      <path d="M0.48,-0.49l0.02,0" />
      <path d="M0.5,0l-0.02,0" />
    </symbol>
    <symbol id="$TCHSYS$WIN2D_1000x380" overflow="visible" class="i0">
      <path d="M-500,-190l1000,0" />
      <path d="M-500,190l1000,0" />
      <path d="M500,63.33l-1000,0" />
      <path d="M500,-63.33l-1000,0" />
      <path d="M-500,-190l0,380" />
      <path d="M500,-190l0,380" />
    </symbol>
    <symbol id="$TCHSYS$WIN2D_2000x380" overflow="visible" class="i0">
      <path d="M-1000,-190l2000,0" />
      <path d="M-1000,190l2000,0" />
      <path d="M1000,63.33l-2000,0" />
      <path d="M1000,-63.33l-2000,0" />
      <path d="M-1000,-190l0,380" />
      <path d="M1000,-190l0,380" />
    </symbol>
    <symbol id="$TCHSYS$WIN2D_1500x380" overflow="visible" class="i0">
      <path d="M-750,-190l1500,0" />
      <path d="M-750,190l1500,0" />
      <path d="M750,63.33l-1500,0" />
      <path d="M750,-63.33l-1500,0" />
      <path d="M-750,-190l0,380" />
      <path d="M750,-190l0,380" />
    </symbol>
    <symbol id="$DorLib2D$00000141" overflow="visible" class="i0">
      <path d="M0,0l0.03,0.12l0.06,0.11l0.08,0.1l0.1,0.08l0.11,0.05l0.12,0.03" class="cnc-0" />
      <path d="M-0.5,0l0,0.49" class="cnc-0" />
      <path d="M-0.5,0l0.03,0" class="cnc-1" />
      <path d="M-0.48,0.49l-0.03,0" class="cnc-0" />
      <path d="M-0.01,0.11l0.01,-0.11" class="cnc-1" />
      <path d="M-0.05,0.21l0.03,-0.1" class="cnc-0" />
      <path d="M-0.1,0.3l0.06,-0.09" class="cnc-0" />
      <path d="M-0.18,0.38l0.07,-0.08" class="cnc-0" />
      <path d="M-0.27,0.44l0.09,-0.06" class="cnc-0" />
      <path d="M-0.37,0.47l0.1,-0.04" class="cnc-0" />
      <path d="M-0.48,0.49l0.11,-0.01" class="cnc-0" />
      <path d="M0.01,-0.11l-0.01,0.11" class="cnc-1" />
      <path d="M0.05,-0.21l-0.03,0.1" class="cnc-1" />
      <path d="M0.1,-0.3l-0.06,0.09" class="cnc-1" />
      <path d="M0.18,-0.38l-0.07,0.08" class="cnc-1" />
      <path d="M0.27,-0.44l-0.09,0.06" class="cnc-1" />
      <path d="M0.37,-0.47l-0.1,0.04" class="cnc-1" />
      <path d="M0.48,-0.49l-0.11,0.01" class="cnc-1" />
      <path d="M0.47,0l0,-0.49" class="cnc-1" />
      <path d="M0.5,0l0,-0.49" class="cnc-1" />
      <path d="M0.47,-0.49l0.02,0" class="cnc-1" />
      <path d="M0.5,0l-0.02,0" class="cnc-1" />
      <path d="M-0.5,0l0,-0.49" class="cnc-1" />
      <path d="M-0.48,0l0,-0.49" class="cnc-1" />
      <path d="M-0.48,-0.49l-0.03,0" class="cnc-1" />
      <path d="M-0.37,-0.47l-0.11,-0.01" class="cnc-1" />
      <path d="M-0.27,-0.44l-0.1,-0.04" class="cnc-1" />
      <path d="M-0.18,-0.38l-0.09,-0.06" class="cnc-1" />
      <path d="M-0.1,-0.3l-0.07,-0.08" class="cnc-1" />
      <path d="M-0.05,-0.21l-0.06,-0.09" class="cnc-1" />
      <path d="M-0.01,-0.11l-0.03,-0.1" class="cnc-1" />
      <path d="M0,0l-0.01,-0.11" class="cnc-1" />
      <path d="M0.5,0l0,0.49" class="cnc-0" />
    </symbol>
    <symbol id="$DorLib2D$00000130_900x60" overflow="visible" class="i0">
      <path d="M0,-30.76l0,-8.85" />
      <path d="M480,-39.61l-480,0" />
      <path d="M480,-30.76l-480,0" />
      <path d="M-480,-39.61l0,8.85" />
      <path d="M480,-39.61l0,8.85" />
      <path d="M-346.78,-16.16l221.17,0" />
      <path d="M346.78,-16.16l-221.17,0" />
      <path d="M0,-30.76l-480,0" />
      <path d="M0,-39.61l-480,0" />
      <path d="M-269.92,-12.87l0,-3.3" />
      <path d="M-346.78,-16.16l76.86,3.3" />
      <path d="M269.92,-12.87l0,-3.3" />
      <path d="M346.78,-16.16l-76.86,3.3" />
    </symbol>
  </defs>
  <g id="viewer">
    <g id="mirror" transform="scale(1, 1)" stroke-width="0.09%">
      <g id="background" fill="none">
        <g id="layer-body-fills" class="body">
          <path d="M44838.13,228014.24l0,2410l400,0l0,850l-3260,0l0,-3260z" />
          <path d="M44958.13,227894.24l0,2410l400,0l0,1090l-3500,0l0,-3500z" />
          <path d="M52878.13,228014.24l0,2410l-400,0l0,850l3260,0l0,-3260z" />
          <path d="M52758.13,227894.24l0,2410l-400,0l0,1090l3500,0l0,-3500z" />
          <path d="M51488.13,211694.24l1500,0l0,1000l-1500,0z" />
          <path d="M46228.13,211694.24l-1500,0l0,1000l1500,0z" />
          <path d="M51608.13,211814.24l1260,0l0,760l-1260,0z" />
          <path d="M46108.13,211814.24l-1260,0l0,760l1260,0z" />
          <path d="M12168.13,218484.24l1000,0l0,800l-1000,0z" />
          <path d="M12268.13,218584.24l800,0l0,600l-800,0z" />
          <path d="M12168.13,223084.24l1000,0l0,-800l-1000,0z" />
          <path d="M12268.13,222984.24l800,0l0,-600l-800,0z" />
          <path d="M85548.13,218484.24l-1000,0l0,800l1000,0z" />
          <path d="M85448.13,218584.24l-800,0l0,600l800,0z" />
          <path d="M85548.13,223084.24l-1000,0l0,-800l1000,0z" />
          <path d="M85448.13,222984.24l-800,0l0,-600l800,0z" />
          <path d="M21668.13,222774.24l380,0l0,200l-380,0z" />
          <path d="M67768.13,233594.24l1900,0l0,300l-1900,0z" />
          <path d="M67768.13,236094.24l1900,0l0,-300l-1900,0z" />
          <path d="M29948.13,233594.24l-1900,0l0,300l1900,0z" />
          <path d="M29948.13,236094.24l-1900,0l0,-300l1900,0z" />
          <path d="M76048.13,222774.24l-380,0l0,200l380,0z" />
        </g>
        <g id="layer-RM-fills" class="rm">
          <path d="M42048.13,213074.24l3120,0l0,5620l-3120,0z" />
          <path d="M13548.13,222574.24l5620,0l0,3120l-5620,0z" />
          <path d="M22048.13,224174.24l2999.92,0l0,-2600l-2999.92,0z" />
          <path d="M70048.13,224174.24l2999.92,0l0,-2600l-2999.92,0z" />
        </g>
        <g id="layer-GROS-fills" class="gros">
          <path d="M13168.13,212694.24l0,30880l14880,0l0,-15680l41620,0l0,15680l14880,0l0,-30880z" />
        </g>
        <g id="layer-body" class="body">
          <path d="M45358.13,231394.24l7000,0" />
          <path d="M45358.13,231694.24l7000,0" />
          <path d="M45058.13,231994.24l7600,0" />
          <path d="M44758.13,232294.24l8200,0" />
          <path d="M45358.13,231394.24l0,300" />
          <path d="M45058.13,231394.24l0,600" />
          <path d="M44758.13,231394.24l0,900" />
          <path d="M52358.13,231394.24l0,300" />
          <path d="M52658.13,231394.24l0,600" />
          <path d="M52958.13,231394.24l0,900" />
          <path d="M46228.13,211694.24l5260,0" />
          <path d="M50368.13,217022.24l-3020,0" />
          <path d="M50368.13,217322.24l-3020,0" />
          <path d="M50368.13,217622.24l-3020,0" />
          <path d="M50368.13,217922.24l-3020,0" />
          <path d="M12168.13,222284.24l-200,0" />
          <path d="M11968.13,222284.24l0,-3000" />
          <path d="M12168.13,219284.24l-200,0" />
          <path d="M15722.58,220594.24l0,-1520" />
          <path d="M16022.58,220594.24l0,-1520" />
          <path d="M16322.58,220594.24l0,-1520" />
          <path d="M81993.68,220594.24l0,-1520" />
          <path d="M81693.68,220594.24l0,-1520" />
          <path d="M81393.68,220594.24l0,-1520" />
          <path d="M85548.13,222284.24l200,0" />
          <path d="M85748.13,222284.24l0,-3000" />
          <path d="M85548.13,219284.24l200,0" />
          <path d="M44728.13,212094.24l-32160,0l0,6390" />
          <path d="M13168.13,212694.24l-600,-600" />
          <path d="M52988.13,212094.24l32160,0l0,6390" />
          <path d="M84548.13,212694.24l600,-600" />
          <path d="M85148.13,223084.24l0,21090l-16080,0l0,-8080" />
          <path d="M68768.13,233894.24l0,1900" />
          <path d="M68468.13,233894.24l0,1900" />
          <path d="M68168.13,233894.24l0,1900" />
          <path d="M67868.13,233894.24l0,1900" />
          <path d="M28948.13,233894.24l0,1900" />
          <path d="M29248.13,233894.24l0,1900" />
          <path d="M29548.13,233894.24l0,1900" />
          <path d="M29848.13,233894.24l0,1900" />
          <path d="M55858.13,228494.24l13210,0l0,5100" />
          <path d="M12568.13,223084.24l0,21090l16080,0l0,-8080" />
          <path d="M41858.13,228494.24l-13210,0l0,5100" />
          <path d="M13168.13,243574.24l-600,600" />
          <path d="M28048.13,243574.24l600,600" />
          <path d="M69068.13,228494.24l600,-600" />
          <path d="M28648.13,228494.24l-600,-600" />
          <path d="M69068.13,244174.24l600,-600" />
          <path d="M13548.13,243194.24l0,-7410" />
          <path d="M13548.13,235784.24l-380,0" />
          <path d="M13168.13,235784.24l0,7790" />
          <path d="M13168.13,232884.24l0,900" />
          <path d="M13168.13,233784.24l380,0" />
          <path d="M13548.13,233784.24l0,-710" />
          <path d="M13548.13,213074.24l1597.5,0" />
          <path d="M15145.63,213074.24l0,-380" />
          <path d="M15145.63,212694.24l-1977.5,0" />
          <path d="M27858.13,212694.24l-735,0" />
          <path d="M27123.13,212694.24l0,380" />
          <path d="M27123.13,213074.24l545,0" />
          <path d="M16145.63,213074.24l1977.5,0" />
          <path d="M18123.13,213074.24l0,-380" />
          <path d="M18123.13,212694.24l-1977.5,0" />
          <path d="M16145.63,212694.24l0,380" />
          <path d="M20123.13,213074.24l1500,0" />
          <path d="M21623.13,213074.24l0,-380" />
          <path d="M21623.13,212694.24l-1500,0" />
          <path d="M20123.13,212694.24l0,380" />
          <path d="M23623.13,213074.24l1500,0" />
          <path d="M25123.13,213074.24l0,-380" />
          <path d="M25123.13,212694.24l-1500,0" />
          <path d="M23623.13,212694.24l0,380" />
          <path d="M84548.13,212694.24l0,6190" />
          <path d="M84168.13,213074.24l0,5620" />
          <path d="M84168.13,243194.24l-3160,0" />
          <path d="M81008.13,243194.24l0,380" />
          <path d="M81008.13,243574.24l3540,0" />
          <path d="M69668.13,243574.24l3540,0" />
          <path d="M73208.13,243574.24l0,-380" />
          <path d="M73208.13,243194.24l-3160,0" />
          <path d="M79008.13,243194.24l-900,0" />
          <path d="M78108.13,243194.24l0,380" />
          <path d="M78108.13,243574.24l900,0" />
          <path d="M79008.13,243574.24l0,-380" />
          <path d="M76108.13,243194.24l-900,0" />
          <path d="M75208.13,243194.24l0,380" />
          <path d="M75208.13,243574.24l900,0" />
          <path d="M76108.13,243574.24l0,-380" />
          <path d="M70048.13,243194.24l0,-1600" />
          <path d="M70048.13,241594.24l-380,0" />
          <path d="M69668.13,241594.24l0,1980" />
          <path d="M69668.13,232884.24l0,1210" />
          <path d="M69668.13,234094.24l380,0" />
          <path d="M70048.13,234094.24l0,-1020" />
          <path d="M70048.13,240094.24l0,-1500" />
          <path d="M70048.13,238594.24l-380,0" />
          <path d="M69668.13,238594.24l0,1500" />
          <path d="M69668.13,240094.24l380,0" />
          <path d="M70048.13,237094.24l0,-1500" />
          <path d="M70048.13,235594.24l-380,0" />
          <path d="M69668.13,235594.24l0,1500" />
          <path d="M69668.13,237094.24l380,0" />
          <path d="M69668.13,227514.24l-575,0" />
          <path d="M69093.13,227514.24l0,380" />
          <path d="M69093.13,227894.24l575,0" />
          <path d="M55858.13,227894.24l735,0" />
          <path d="M56593.13,227894.24l0,-380" />
          <path d="M56593.13,227514.24l-545,0" />
          <path d="M67093.13,227514.24l-1500,0" />
          <path d="M65593.13,227514.24l0,380" />
          <path d="M65593.13,227894.24l1500,0" />
          <path d="M67093.13,227894.24l0,-380" />
          <path d="M63593.13,227514.24l-1500,0" />
          <path d="M62093.13,227514.24l0,380" />
          <path d="M62093.13,227894.24l1500,0" />
          <path d="M63593.13,227894.24l0,-380" />
          <path d="M60093.13,227514.24l-1500,0" />
          <path d="M58593.13,227514.24l0,380" />
          <path d="M58593.13,227894.24l1500,0" />
          <path d="M60093.13,227894.24l0,-380" />
          <path d="M28048.13,221574.24l0,2790" />
          <path d="M27668.13,221574.24l0,2600" />
          <path d="M27668.13,243194.24l-3160,0" />
          <path d="M24508.13,243194.24l0,380" />
          <path d="M24508.13,243574.24l3540,0" />
          <path d="M13168.13,243574.24l3540,0" />
          <path d="M16708.13,243574.24l0,-380" />
          <path d="M16708.13,243194.24l-3160,0" />
          <path d="M22508.13,243194.24l-900,0" />
          <path d="M21608.13,243194.24l0,380" />
          <path d="M21608.13,243574.24l900,0" />
          <path d="M22508.13,243574.24l0,-380" />
          <path d="M19608.13,243194.24l-900,0" />
          <path d="M18708.13,243194.24l0,380" />
          <path d="M18708.13,243574.24l900,0" />
          <path d="M19608.13,243574.24l0,-380" />
          <path d="M13168.13,218884.24l0,-6190" />
          <path d="M13548.13,218694.24l0,-5620" />
          <path d="M84168.13,219074.24l0,810" />
          <path d="M84168.13,219884.24l380,0" />
          <path d="M84548.13,219884.24l0,-1000" />
          <path d="M84548.13,222384.24l0,-700" />
          <path d="M84548.13,221684.24l-380,0" />
          <path d="M84168.13,221684.24l0,510" />
          <path d="M28048.13,213074.24l575,0" />
          <path d="M28623.13,213074.24l0,-380" />
          <path d="M28623.13,212694.24l-765,0" />
          <path d="M38358.13,212694.24l-735,0" />
          <path d="M37623.13,212694.24l0,380" />
          <path d="M37623.13,213074.24l545,0" />
          <path d="M30623.13,213074.24l1500,0" />
          <path d="M32123.13,213074.24l0,-380" />
          <path d="M32123.13,212694.24l-1500,0" />
          <path d="M30623.13,212694.24l0,380" />
          <path d="M34123.13,213074.24l1500,0" />
          <path d="M35623.13,213074.24l0,-380" />
          <path d="M35623.13,212694.24l-1500,0" />
          <path d="M34123.13,212694.24l0,380" />
          <path d="M27858.13,219074.24l750,0" />
          <path d="M28608.13,219074.24l0,-380" />
          <path d="M28608.13,218694.24l-560,0" />
          <path d="M38168.13,218694.24l-530,0" />
          <path d="M37638.13,218694.24l0,380" />
          <path d="M37638.13,219074.24l720,0" />
          <path d="M29608.13,219074.24l7030,0" />
          <path d="M36638.13,219074.24l0,-380" />
          <path d="M36638.13,218694.24l-7030,0" />
          <path d="M29608.13,218694.24l0,380" />
          <path d="M27668.13,218694.24l0,-5620" />
          <path d="M28048.13,218694.24l0,-5620" />
          <path d="M38548.13,213074.24l575,0" />
          <path d="M39123.13,213074.24l0,-380" />
          <path d="M39123.13,212694.24l-765,0" />
          <path d="M41858.13,212694.24l-735,0" />
          <path d="M41123.13,212694.24l0,380" />
          <path d="M41123.13,213074.24l545,0" />
          <path d="M38168.13,218694.24l0,-5620" />
          <path d="M38548.13,218694.24l0,-5620" />
          <path d="M45548.13,213074.24l680,0" />
          <path d="M46228.13,213074.24l0,-380" />
          <path d="M46228.13,212694.24l-870,0" />
          <path d="M52358.13,212694.24l-870,0" />
          <path d="M51488.13,212694.24l0,380" />
          <path d="M51488.13,213074.24l680,0" />
          <path d="M47728.13,213074.24l380,0" />
          <path d="M48108.13,213074.24l0,-380" />
          <path d="M48108.13,212694.24l-380,0" />
          <path d="M47728.13,212694.24l0,380" />
          <path d="M49608.13,213074.24l380,0" />
          <path d="M49988.13,213074.24l0,-380" />
          <path d="M49988.13,212694.24l-380,0" />
          <path d="M49608.13,212694.24l0,380" />
          <path d="M45168.13,218694.24l0,-5620" />
          <path d="M45548.13,219074.24l0,-6000" />
          <path d="M52548.13,213074.24l545,0" />
          <path d="M53093.13,213074.24l0,-380" />
          <path d="M53093.13,212694.24l-735,0" />
          <path d="M55858.13,212694.24l-765,0" />
          <path d="M55093.13,212694.24l0,380" />
          <path d="M55093.13,213074.24l575,0" />
          <path d="M59548.13,213074.24l545,0" />
          <path d="M60093.13,213074.24l0,-380" />
          <path d="M60093.13,212694.24l-735,0" />
          <path d="M69858.13,212694.24l-765,0" />
          <path d="M69093.13,212694.24l0,380" />
          <path d="M69093.13,213074.24l575,0" />
          <path d="M62093.13,213074.24l1500,0" />
          <path d="M63593.13,213074.24l0,-380" />
          <path d="M63593.13,212694.24l-1500,0" />
          <path d="M62093.13,212694.24l0,380" />
          <path d="M65593.13,213074.24l1500,0" />
          <path d="M67093.13,213074.24l0,-380" />
          <path d="M67093.13,212694.24l-1500,0" />
          <path d="M65593.13,212694.24l0,380" />
          <path d="M59358.13,219074.24l720,0" />
          <path d="M60078.13,219074.24l0,-380" />
          <path d="M60078.13,218694.24l-530,0" />
          <path d="M69668.13,218694.24l-560,0" />
          <path d="M69108.13,218694.24l0,380" />
          <path d="M69108.13,219074.24l750,0" />
          <path d="M61078.13,219074.24l7030,0" />
          <path d="M68108.13,219074.24l0,-380" />
          <path d="M68108.13,218694.24l-7030,0" />
          <path d="M61078.13,218694.24l0,380" />
          <path d="M59168.13,218694.24l0,-5620" />
          <path d="M59548.13,218694.24l0,-5620" />
          <path d="M70048.13,213074.24l545,0" />
          <path d="M70593.13,213074.24l0,-380" />
          <path d="M70593.13,212694.24l-735,0" />
          <path d="M84548.13,212694.24l-1977.5,0" />
          <path d="M82570.63,212694.24l0,380" />
          <path d="M82570.63,213074.24l1597.5,0" />
          <path d="M72593.13,213074.24l1500,0" />
          <path d="M74093.13,213074.24l0,-380" />
          <path d="M74093.13,212694.24l-1500,0" />
          <path d="M72593.13,212694.24l0,380" />
          <path d="M76093.13,213074.24l1500,0" />
          <path d="M77593.13,213074.24l0,-380" />
          <path d="M77593.13,212694.24l-1500,0" />
          <path d="M76093.13,212694.24l0,380" />
          <path d="M79593.13,213074.24l1977.5,0" />
          <path d="M81570.63,213074.24l0,-380" />
          <path d="M81570.63,212694.24l-1977.5,0" />
          <path d="M79593.13,212694.24l0,380" />
          <path d="M69668.13,218694.24l0,-5620" />
          <path d="M70048.13,218694.24l0,-5620" />
          <path d="M56048.13,213074.24l545,0" />
          <path d="M56593.13,213074.24l0,-380" />
          <path d="M56593.13,212694.24l-735,0" />
          <path d="M59358.13,212694.24l-765,0" />
          <path d="M58593.13,212694.24l0,380" />
          <path d="M58593.13,213074.24l575,0" />
          <path d="M55858.13,219074.24l1780,0" />
          <path d="M57638.13,219074.24l0,-380" />
          <path d="M57638.13,218694.24l-1590,0" />
          <path d="M59168.13,218694.24l-530,0" />
          <path d="M58638.13,218694.24l0,380" />
          <path d="M58638.13,219074.24l720,0" />
          <path d="M75668.13,221574.24l-2470.08,0" />
          <path d="M76048.13,221194.24l-2925.08,0" />
          <path d="M70048.13,232694.24l0,-100" />
          <path d="M70048.13,232594.24l-380,0" />
          <path d="M69668.13,232594.24l0,290" />
          <path d="M69668.13,230144.24l0,950" />
          <path d="M69668.13,231094.24l380,0" />
          <path d="M70048.13,231094.24l0,-760" />
          <path d="M84168.13,233074.24l0,710" />
          <path d="M84168.13,233784.24l380,0" />
          <path d="M84548.13,233784.24l0,-900" />
          <path d="M84548.13,243574.24l0,-7790" />
          <path d="M84548.13,235784.24l-380,0" />
          <path d="M84168.13,235784.24l0,7410" />
          <path d="M70048.13,233074.24l5320,0" />
          <path d="M75368.13,232694.24l-5320,0" />
          <path d="M75668.13,232694.24l-300,0" />
          <path d="M75368.13,233074.24l490,0" />
          <path d="M69668.13,227514.24l0,-3150" />
          <path d="M70048.13,227704.24l0,-3150" />
          <path d="M76048.13,232694.24l0,-760" />
          <path d="M76048.13,231934.24l-380,0" />
          <path d="M75668.13,231934.24l0,760" />
          <path d="M75668.13,230334.24l0,600" />
          <path d="M75668.13,230934.24l380,0" />
          <path d="M76048.13,230934.24l0,-790" />
          <path d="M69858.13,221194.24l-750,0" />
          <path d="M69108.13,221194.24l0,380" />
          <path d="M69108.13,221574.24l560,0" />
          <path d="M56048.13,221574.24l560,0" />
          <path d="M56608.13,221574.24l0,-380" />
          <path d="M56608.13,221194.24l-750,0" />
          <path d="M67608.13,221194.24l-9500,0" />
          <path d="M58108.13,221194.24l0,380" />
          <path d="M58108.13,221574.24l9500,0" />
          <path d="M67608.13,221574.24l0,-380" />
          <path d="M75858.13,233074.24l500,0" />
          <path d="M76358.13,233074.24l0,-380" />
          <path d="M76358.13,232694.24l-310,0" />
          <path d="M78168.13,232694.24l-310,0" />
          <path d="M77858.13,232694.24l0,380" />
          <path d="M77858.13,233074.24l500,0" />
          <path d="M78548.13,232694.24l0,-760" />
          <path d="M78548.13,231934.24l-380,0" />
          <path d="M78168.13,231934.24l0,760" />
          <path d="M78168.13,225884.24l0,5050" />
          <path d="M78168.13,230934.24l380,0" />
          <path d="M78548.13,230934.24l0,-4860" />
          <path d="M78548.13,232694.24l5620,0" />
          <path d="M78358.13,233074.24l5810,0" />
          <path d="M84168.13,222574.24l0,710" />
          <path d="M84168.13,223284.24l380,0" />
          <path d="M84548.13,223284.24l0,-900" />
          <path d="M84548.13,225884.24l0,-600" />
          <path d="M84548.13,225284.24l-380,0" />
          <path d="M84168.13,225284.24l0,410" />
          <path d="M78168.13,222194.24l6000,0" />
          <path d="M78548.13,222574.24l5620,0" />
          <path d="M69858.13,219074.24l750,0" />
          <path d="M70608.13,219074.24l0,-380" />
          <path d="M70608.13,218694.24l-560,0" />
          <path d="M84168.13,218694.24l-5120,0" />
          <path d="M79048.13,218694.24l0,380" />
          <path d="M79048.13,219074.24l5120,0" />
          <path d="M71608.13,219074.24l5940,0" />
          <path d="M77548.13,219074.24l0,-380" />
          <path d="M77548.13,218694.24l-5940,0" />
          <path d="M71608.13,218694.24l0,380" />
          <path d="M75668.13,224174.24l0,-875.77" />
          <path d="M76048.13,224364.24l0,-875.77" />
          <path d="M78548.13,225694.24l0,-300" />
          <path d="M78548.13,225394.24l-380,0" />
          <path d="M78168.13,225394.24l0,490" />
          <path d="M78168.13,223488.47l0,905.77" />
          <path d="M78168.13,224394.24l380,0" />
          <path d="M78548.13,224394.24l0,-1095.77" />
          <path d="M27668.13,227704.24l0,390" />
          <path d="M27668.13,228094.24l380,0" />
          <path d="M28048.13,228094.24l0,-200" />
          <path d="M28048.13,230144.24l0,-550" />
          <path d="M28048.13,229594.24l-380,0" />
          <path d="M27668.13,229594.24l0,360" />
          <use xlink:href="#$DorLib2D$00000001" x="68.608" y="218.884" transform="scale(1000,1000)" stroke-width="0.0001%">.<g class="blkclass0"><text transform="translate(-470,613.75)" font-size="386.75">M1030</text></g></use>
          <use xlink:href="#$DorLib2D$00000002" x="52.199" y="145.923" transform="scale(1500,1500)" stroke-width="0.0001%">.<g class="blkclass0"><text transform="translate(-470,613.75)" font-size="386.75">M1530</text></g></use>
          <use xlink:href="#$DorLib2D$00000002" x="45.572" y="147.589" transform="scale(1500,1500) rotate(-180,45.57,147.59)" stroke-width="0.0001%">.<g class="blkclass0"><text transform="translate(-470,-316.25)" font-size="386.75">M1530</text></g></use>
          <use xlink:href="#$DorLib2D$00000001" x="71.108" y="221.384" transform="scale(1000,1000) scale(1,-1) translate(0,-442.77) rotate(-180,71.11,221.38)" stroke-width="0.0001%">.</use>
          <use xlink:href="#$TCHSYS$WIN2D_1000x380" x="82070.63" y="212884.24" transform="scale(1,-1) translate(0,-425768.48)">.<g class="blkclass0"><text transform="translate(-595,-316.25)" font-size="386.75">WC0920</text></g></use>
          <use xlink:href="#$TCHSYS$WIN2D_2000x380" x="78593.13" y="212884.24" transform="scale(1,-1) translate(0,-425768.48)">.<g class="blkclass0"><text transform="translate(-595,-316.25)" font-size="386.75">WC2020</text></g></use>
          <use xlink:href="#$TCHSYS$WIN2D_2000x380" x="75093.13" y="212884.24" transform="scale(1,-1) translate(0,-425768.48)">.<g class="blkclass0"><text transform="translate(-595,-316.25)" font-size="386.75">WC2020</text></g></use>
          <use xlink:href="#$TCHSYS$WIN2D_2000x380" x="71593.13" y="212884.24" transform="scale(1,-1) translate(0,-425768.48)">.<g class="blkclass0"><text transform="translate(-595,-316.25)" font-size="386.75">WC2020</text></g></use>
          <use xlink:href="#$TCHSYS$WIN2D_2000x380" x="68093.13" y="212884.24" transform="scale(1,-1) translate(0,-425768.48) rotate(0,68093.13,212884.24)">.<g class="blkclass0"><text transform="translate(-595,-316.25)" font-size="386.75">WC2020</text></g></use>
          <use xlink:href="#$TCHSYS$WIN2D_2000x380" x="64593.13" y="212884.24" transform="scale(1,-1) translate(0,-425768.48) rotate(0,64593.13,212884.24)">.<g class="blkclass0"><text transform="translate(-595,-316.25)" font-size="386.75">WC2020</text></g></use>
          <use xlink:href="#$TCHSYS$WIN2D_2000x380" x="61093.13" y="212884.24" transform="scale(1,-1) translate(0,-425768.48) rotate(0,61093.13,212884.24)">.<g class="blkclass0"><text transform="translate(-595,-316.25)" font-size="386.75">WC2020</text></g></use>
          <use xlink:href="#$TCHSYS$WIN2D_2000x380" x="57593.13" y="212884.24" transform="scale(1,-1) translate(0,-425768.48)">.<g class="blkclass0"><text transform="translate(-595,-316.25)" font-size="386.75">WC2020</text></g></use>
          <use xlink:href="#$TCHSYS$WIN2D_2000x380" x="54093.13" y="212884.24" transform="scale(1,-1) translate(0,-425768.48)">.<g class="blkclass0"><text transform="translate(-595,-316.25)" font-size="386.75">WC2020</text></g></use>
          <use xlink:href="#$TCHSYS$WIN2D_1000x380" x="15645.63" y="212884.24" transform="scale(-1,-1) translate(-31291.26,-425768.48) rotate(0,15645.63,212884.24)">.<g class="blkclass0"><text transform="rotate(0 -595,-316.25) translate(-595,-316.25)" font-size="386.75">WC0920</text></g></use>
          <use xlink:href="#$TCHSYS$WIN2D_2000x380" x="19123.13" y="212884.24" transform="scale(-1,-1) translate(-38246.26,-425768.48) rotate(0,19123.13,212884.24)">.<g class="blkclass0"><text transform="rotate(0 -595,-316.25) translate(-595,-316.25)" font-size="386.75">WC2020</text></g></use>
          <use xlink:href="#$TCHSYS$WIN2D_2000x380" x="22623.13" y="212884.24" transform="scale(-1,-1) translate(-45246.26,-425768.48) rotate(0,22623.13,212884.24)">.<g class="blkclass0"><text transform="rotate(0 -595,-316.25) translate(-595,-316.25)" font-size="386.75">WC2020</text></g></use>
          <use xlink:href="#$TCHSYS$WIN2D_2000x380" x="26123.13" y="212884.24" transform="scale(-1,-1) translate(-52246.26,-425768.48) rotate(0,26123.13,212884.24)">.<g class="blkclass0"><text transform="rotate(0 -595,-316.25) translate(-595,-316.25)" font-size="386.75">WC2020</text></g></use>
          <use xlink:href="#$TCHSYS$WIN2D_2000x380" x="29623.13" y="212884.24" transform="scale(-1,-1) translate(-59246.26,-425768.48)">.<g class="blkclass0"><text transform="translate(-595,-316.25)" font-size="386.75">WC2020</text></g></use>
          <use xlink:href="#$TCHSYS$WIN2D_2000x380" x="33123.13" y="212884.24" transform="scale(-1,-1) translate(-66246.26,-425768.48)">.<g class="blkclass0"><text transform="translate(-595,-316.25)" font-size="386.75">WC2020</text></g></use>
          <use xlink:href="#$TCHSYS$WIN2D_2000x380" x="36623.13" y="212884.24" transform="scale(-1,-1) translate(-73246.26,-425768.48)">.<g class="blkclass0"><text transform="translate(-595,-316.25)" font-size="386.75">WC2020</text></g></use>
          <use xlink:href="#$TCHSYS$WIN2D_2000x380" x="40123.13" y="212884.24" transform="scale(-1,-1) translate(-80246.26,-425768.48)">.<g class="blkclass0"><text transform="translate(-595,-316.25)" font-size="386.75">WC2020</text></g></use>
          <use xlink:href="#$TCHSYS$WIN2D_2000x380" x="43623.13" y="212884.24" transform="scale(-1,-1) translate(-87246.26,-425768.48)">.<g class="blkclass0"><text transform="translate(-595,-316.25)" font-size="386.75">WC2020</text></g></use>
          <use xlink:href="#$DorLib2D$00000001" x="60.578" y="218.884" transform="scale(1000,1000) scale(-1,1) translate(-121.16,0)" stroke-width="0.0001%">.<g class="blkclass0"><text transform="translate(-470,613.75)" font-size="386.75">M1030</text></g></use>
          <use xlink:href="#$DorLib2D$00000001" x="58.138" y="218.884" transform="scale(1000,1000)" stroke-width="0.0001%">.<g class="blkclass0"><text transform="translate(-470,613.75)" font-size="386.75">M1030</text></g></use>
          <use xlink:href="#$DorLib2D$00000001" x="54.638" y="218.884" transform="scale(1000,1000)" stroke-width="0.0001%">.<g class="blkclass0"><text transform="translate(-425,613.75)" font-size="386.75">M1021</text></g></use>
          <path d="M84168.13,226074.24l0,710" />
          <path d="M84168.13,226784.24l380,0" />
          <path d="M84548.13,226784.24l0,-900" />
          <path d="M84548.13,232884.24l0,-600" />
          <path d="M84548.13,232284.24l-380,0" />
          <path d="M84168.13,232284.24l0,410" />
          <path d="M84168.13,228784.24l0,1500" />
          <path d="M84168.13,230284.24l380,0" />
          <path d="M84548.13,230284.24l0,-1500" />
          <path d="M84548.13,228784.24l-380,0" />
          <path d="M78548.13,225694.24l5620,0" />
          <path d="M78548.13,226074.24l5620,0" />
          <path d="M69668.13,224364.24l0,-2790" />
          <path d="M70048.13,224174.24l0,-2600" />
          <path d="M70048.13,229954.24l5620,0" />
          <path d="M70048.13,230334.24l5620,0" />
          <path d="M70048.13,229954.24l0,-360" />
          <path d="M70048.13,229594.24l-380,0" />
          <path d="M69668.13,229594.24l0,550" />
          <path d="M69668.13,227894.24l0,200" />
          <path d="M69668.13,228094.24l380,0" />
          <path d="M70048.13,228094.24l0,-390" />
          <path d="M76048.13,230144.24l0,-490" />
          <path d="M76048.13,229654.24l-380,0" />
          <path d="M75668.13,229654.24l0,300" />
          <path d="M75668.13,224554.24l0,4100" />
          <path d="M75668.13,228654.24l380,0" />
          <path d="M76048.13,228654.24l0,-4290" />
          <use xlink:href="#$DorLib2D$00000001" x="75.858" y="229.154" transform="scale(1000,1000) scale(-1,1) translate(-151.72,0) rotate(-270,75.86,229.15)" stroke-width="0.0001%">.<g class="blkclass0"><text transform="rotate(-90 680.21,470) translate(680.21,470)" font-size="386.75">M1030</text></g></use>
          <use xlink:href="#$DorLib2D$00000001" x="75.858" y="231.434" transform="scale(1000,1000) rotate(-90,75.86,231.43)" stroke-width="0.0001%">.<g class="blkclass0"><text transform="rotate(-90 638.56,470) translate(638.56,470)" font-size="386.75">M1030</text></g></use>
          <use xlink:href="#$DorLib2D$00000001" x="78.358" y="224.894" transform="scale(1000,1000) scale(-1,-1) translate(-156.72,-449.79) rotate(-90,78.36,224.89)" stroke-width="0.0001%">.<g class="blkclass0"><text transform="rotate(-90 -412.59,470) translate(-412.59,470)" font-size="386.75">M1030</text></g></use>
          <use xlink:href="#$DorLib2D$00000001" x="78.358" y="231.434" transform="scale(1000,1000) scale(-1,-1) translate(-156.72,-462.87) rotate(-90,78.36,231.43)" stroke-width="0.0001%">.<g class="blkclass0"><text transform="rotate(-90 -231.82,470) translate(-231.82,470)" font-size="386.75">M1030</text></g></use>
          <use xlink:href="#$DorLib2D$00000002" x="51.405" y="155.256" transform="scale(1500,1500) scale(-1,-1) translate(-102.81,-310.51)" stroke-width="0.0001%">.<g class="blkclass0"><text transform="translate(-470,-675.78)" font-size="386.75">M1530</text></g></use>
          <use xlink:href="#$DorLib2D$00000002" x="46.572" y="156.563" transform="scale(1500,1500) rotate(-90,46.57,156.56)" stroke-width="0.0001%">.</use>
          <use xlink:href="#$TCHSYS$WIN2D_1500x380" x="69858.13" y="228844.24" transform="scale(1,-1) translate(0,-457688.48) rotate(-270,69858.13,228844.24)">.<g class="blkclass0"><text transform="rotate(-90 -316.25,575) translate(-316.25,575)" font-size="386.75">WC1520</text></g></use>
          <use xlink:href="#$TCHSYS$WIN2D_1500x380" x="69858.13" y="231844.24" transform="scale(1,-1) translate(0,-463688.48) rotate(-270,69858.13,231844.24)">.<g class="blkclass0"><text transform="rotate(-90 -316.25,575) translate(-316.25,575)" font-size="386.75">WC1520</text></g></use>
          <use xlink:href="#$TCHSYS$WIN2D_1500x380" x="69858.13" y="237844.24" transform="scale(1,-1) translate(0,-475688.48) rotate(-270,69858.13,237844.24)">.<g class="blkclass0"><text transform="rotate(-90 -316.25,575) translate(-316.25,575)" font-size="386.75">WC1520</text></g></use>
          <use xlink:href="#$TCHSYS$WIN2D_1500x380" x="69858.13" y="240844.24" transform="scale(1,-1) translate(0,-481688.48) rotate(-270,69858.13,240844.24)">.<g class="blkclass0"><text transform="rotate(-90 -316.25,575) translate(-316.25,575)" font-size="386.75">WC1520</text></g></use>
          <path d="M27668.13,233074.24l-5810,0" />
          <path d="M27668.13,232694.24l-5620,0" />
          <path d="M22048.13,232694.24l0,-760" />
          <path d="M22048.13,231934.24l-380,0" />
          <path d="M21668.13,231934.24l0,760" />
          <path d="M21668.13,230144.24l0,790" />
          <path d="M21668.13,230934.24l380,0" />
          <path d="M22048.13,230934.24l0,-600" />
          <use xlink:href="#$DorLib2D$00000001" x="21.858" y="231.434" transform="scale(1000,1000) scale(1,-1) translate(0,-462.87) rotate(-270,21.86,231.43)" stroke-width="0.0001%">.<g class="blkclass0"><text transform="rotate(-90 -126.25,470) translate(-126.25,470)" font-size="386.75">M1030</text></g></use>
          <path d="M21668.13,232694.24l-310,0" />
          <path d="M21358.13,232694.24l0,380" />
          <path d="M21358.13,233074.24l500,0" />
          <path d="M19358.13,233074.24l500,0" />
          <path d="M19858.13,233074.24l0,-380" />
          <path d="M19858.13,232694.24l-310,0" />
          <use xlink:href="#$DorLib2D$00000002" x="13.739" y="155.256" transform="scale(1500,1500) scale(-1,1) translate(-27.48,0) rotate(-180,13.74,155.26)" stroke-width="0.0001%">.<g class="blkclass0"><text transform="translate(-470,-340.64)" font-size="386.75">M1530</text></g></use>
          <path d="M19548.13,232694.24l0,-760" />
          <path d="M19548.13,231934.24l-380,0" />
          <path d="M19168.13,231934.24l0,760" />
          <path d="M19168.13,226074.24l0,1600" />
          <path d="M19168.13,227674.24l380,0" />
          <path d="M19548.13,227674.24l0,-1790" />
          <path d="M19548.13,230934.24l0,-2260" />
          <path d="M19548.13,228674.24l-380,0" />
          <path d="M19168.13,228674.24l0,2260" />
          <path d="M19168.13,230934.24l380,0" />
          <use xlink:href="#$DorLib2D$00000001" x="19.358" y="231.434" transform="scale(1000,1000) scale(-1,1) translate(-38.72,0) rotate(-270,19.36,231.43)" stroke-width="0.0001%">.<g class="blkclass0"><text transform="rotate(-90 423.75,470) translate(423.75,470)" font-size="386.75">M1030</text></g></use>
          <path d="M19358.13,233074.24l-5810,0" />
          <path d="M19168.13,232694.24l-5620,0" />
          <path d="M19168.13,222574.24l-5620,0" />
          <path d="M19548.13,222194.24l-6000,0" />
          <use xlink:href="#$DorLib2D$00000001" x="26.608" y="221.384" transform="scale(1000,1000) scale(1,-1) translate(0,-442.77)" stroke-width="0.0001%">.<g class="blkclass0"><text transform="translate(-470,-316.25)" font-size="386.75">M1030</text></g></use>
          <use xlink:href="#$DorLib2D$00000002" x="17.572" y="145.923" transform="scale(1500,1500) scale(-1,1) translate(-35.14,0)" stroke-width="0.0001%">.<g class="blkclass0"><text transform="translate(-470,613.75)" font-size="386.75">M1530</text></g></use>
          <use xlink:href="#$DorLib2D$00000002" x="12.945" y="145.923" transform="scale(1500,1500) scale(-1,1) translate(-25.89,0)" stroke-width="0.0001%">.<g class="blkclass0"><text transform="translate(-470,613.75)" font-size="386.75">M1530</text></g></use>
          <use xlink:href="#$DorLib2D$00000001" x="19.358" y="224.894" transform="scale(1000,1000) scale(-1,1) translate(-38.72,0) rotate(-270,19.36,224.89)" stroke-width="0.0001%">.<g class="blkclass0"><text transform="rotate(-90 515,425) translate(515,425)" font-size="386.75">M1021</text></g></use>
          <path d="M19168.13,226074.24l-5620,0" />
          <path d="M19168.13,225694.24l-5620,0" />
          <path d="M27668.13,224554.24l-2545.08,0" />
          <path d="M27668.13,224174.24l-2470.08,0" />
          <path d="M27668.13,230334.24l-5620,0" />
          <path d="M27668.13,229954.24l-5620,0" />
          <path d="M22048.13,229954.24l0,-300" />
          <path d="M22048.13,229654.24l-380,0" />
          <path d="M21668.13,229654.24l0,490" />
          <path d="M21668.13,225884.24l0,2770" />
          <path d="M21668.13,228654.24l380,0" />
          <path d="M22048.13,228654.24l0,-2770" />
          <use xlink:href="#$DorLib2D$00000001" x="21.858" y="229.154" transform="scale(1000,1000) scale(-1,-1) translate(-43.72,-458.31) rotate(-90,21.86,229.15)" stroke-width="0.0001%">.<g class="blkclass0"><text transform="rotate(-90 -126.25,470) translate(-126.25,470)" font-size="386.75">M1030</text></g></use>
          <use xlink:href="#$DorLib2D$00000002" x="18.572" y="156.563" transform="scale(1500,1500) scale(-1,1) translate(-37.14,0) rotate(-90,18.57,156.56)" stroke-width="0.0001%">.</use>
          <use xlink:href="#$TCHSYS$WIN2D_1500x380" x="27858.13" y="228844.24" transform="scale(-1,-1) translate(-55716.26,-457688.48) rotate(-270,27858.13,228844.24)">.<g class="blkclass0"><text transform="rotate(-90 613.75,575) translate(613.75,575)" font-size="386.75">WC1520</text></g></use>
          <use xlink:href="#$TCHSYS$WIN2D_1500x380" x="27858.13" y="231844.24" transform="scale(-1,-1) translate(-55716.26,-463688.48) rotate(-270,27858.13,231844.24)">.<g class="blkclass0"><text transform="rotate(-90 613.75,575) translate(613.75,575)" font-size="386.75">WC1520</text></g></use>
          <use xlink:href="#$TCHSYS$WIN2D_1500x380" x="27858.13" y="237844.24" transform="scale(-1,-1) translate(-55716.26,-475688.48) rotate(-270,27858.13,237844.24)">.<g class="blkclass0"><text transform="rotate(-90 613.75,575) translate(613.75,575)" font-size="386.75">WC1520</text></g></use>
          <use xlink:href="#$TCHSYS$WIN2D_1500x380" x="27858.13" y="240844.24" transform="scale(-1,-1) translate(-55716.26,-481688.48) rotate(-270,27858.13,240844.24)">.<g class="blkclass0"><text transform="rotate(-90 613.75,575) translate(613.75,575)" font-size="386.75">WC1520</text></g></use>
          <path d="M27668.13,233074.24l0,1020" />
          <path d="M27668.13,234094.24l380,0" />
          <path d="M28048.13,234094.24l0,-1210" />
          <path d="M28048.13,243574.24l0,-1980" />
          <path d="M28048.13,241594.24l-380,0" />
          <path d="M27668.13,241594.24l0,1600" />
          <path d="M27668.13,235594.24l0,1500" />
          <path d="M27668.13,237094.24l380,0" />
          <path d="M28048.13,237094.24l0,-1500" />
          <path d="M28048.13,235594.24l-380,0" />
          <path d="M27668.13,238594.24l0,1500" />
          <path d="M27668.13,240094.24l380,0" />
          <path d="M28048.13,240094.24l0,-1500" />
          <path d="M28048.13,238594.24l-380,0" />
          <path d="M13548.13,232694.24l0,-410" />
          <path d="M13548.13,232284.24l-380,0" />
          <path d="M13168.13,232284.24l0,600" />
          <path d="M13168.13,225884.24l0,900" />
          <path d="M13168.13,226784.24l380,0" />
          <path d="M13548.13,226784.24l0,-710" />
          <path d="M13548.13,230284.24l0,-1500" />
          <path d="M13548.13,228784.24l-380,0" />
          <path d="M13168.13,228784.24l0,1500" />
          <path d="M13168.13,230284.24l380,0" />
          <path d="M13548.13,222194.24l0,-510" />
          <path d="M13548.13,221684.24l-380,0" />
          <path d="M13168.13,221684.24l0,700" />
          <path d="M13168.13,218884.24l0,1000" />
          <path d="M13168.13,219884.24l380,0" />
          <path d="M13548.13,219884.24l0,-810" />
          <path d="M13548.13,219074.24l5120,0" />
          <path d="M18668.13,219074.24l0,-380" />
          <path d="M18668.13,218694.24l-5120,0" />
          <path d="M27668.13,218694.24l-560,0" />
          <path d="M27108.13,218694.24l0,380" />
          <path d="M27108.13,219074.24l750,0" />
          <path d="M20168.13,219074.24l5440,0" />
          <path d="M25608.13,219074.24l0,-380" />
          <path d="M25608.13,218694.24l-5440,0" />
          <path d="M20168.13,218694.24l0,380" />
          <path d="M13548.13,225694.24l0,-410" />
          <path d="M13548.13,225284.24l-380,0" />
          <path d="M13168.13,225284.24l0,600" />
          <path d="M13168.13,222384.24l0,900" />
          <path d="M13168.13,223284.24l380,0" />
          <path d="M13548.13,223284.24l0,-710" />
          <path d="M28048.13,224364.24l0,3150" />
          <path d="M27668.13,224554.24l0,3150" />
          <path d="M27668.13,230334.24l0,760" />
          <path d="M27668.13,231094.24l380,0" />
          <path d="M28048.13,231094.24l0,-950" />
          <path d="M28048.13,232884.24l0,-290" />
          <path d="M28048.13,232594.24l-380,0" />
          <path d="M27668.13,232594.24l0,100" />
          <use xlink:href="#$TCHSYS$WIN2D_2000x380" x="23508.13" y="243384.24" transform="scale(1,-1) translate(0,-486768.48) rotate(-180,23508.13,243384.24)">.<g class="blkclass0"><text transform="translate(-590,613.75)" font-size="386.75">WC2020</text></g></use>
          <use xlink:href="#$TCHSYS$WIN2D_2000x380" x="20608.13" y="243384.24" transform="scale(1,-1) translate(0,-486768.48) rotate(-180,20608.13,243384.24)">.<g class="blkclass0"><text transform="translate(-590,613.75)" font-size="386.75">WC2020</text></g></use>
          <use xlink:href="#$TCHSYS$WIN2D_2000x380" x="17708.13" y="243384.24" transform="scale(1,-1) translate(0,-486768.48) rotate(-180,17708.13,243384.24)">.<g class="blkclass0"><text transform="translate(-590,613.75)" font-size="386.75">WC2020</text></g></use>
          <use xlink:href="#$DorLib2D$00000002" x="7.421" y="122.658" transform="scale(1800,1800) scale(-1,1) translate(-14.84,0) rotate(-270,7.42,122.66)" stroke-width="0.0001%">.</use>
          <use xlink:href="#$TCHSYS$WIN2D_2000x380" x="13358.13" y="224284.24" transform="scale(1,-1) translate(0,-448568.48) rotate(-270,13358.13,224284.24)">.<g class="blkclass0"><text transform="rotate(-90 -316.25,595) translate(-316.25,595)" font-size="386.75">WC2020</text></g></use>
          <use xlink:href="#$TCHSYS$WIN2D_2000x380" x="13358.13" y="227784.24" transform="scale(1,-1) translate(0,-455568.48) rotate(-270,13358.13,227784.24)">.<g class="blkclass0"><text transform="rotate(-90 -316.25,695) translate(-316.25,695)" font-size="386.75">WC2020</text></g></use>
          <use xlink:href="#$TCHSYS$WIN2D_2000x380" x="13358.13" y="231284.24" transform="scale(1,-1) translate(0,-462568.48) rotate(-270,13358.13,231284.24)">.<g class="blkclass0"><text transform="rotate(-90 -316.25,695) translate(-316.25,695)" font-size="386.75">WC2020</text></g></use>
          <use xlink:href="#$TCHSYS$WIN2D_2000x380" x="13358.13" y="234784.24" transform="scale(1,-1) translate(0,-469568.48) rotate(-270,13358.13,234784.24)">.<g class="blkclass0"><text transform="rotate(-90 -316.25,695) translate(-316.25,695)" font-size="386.75">WC2020</text></g></use>
          <path d="M41668.13,227514.24l0,-5940" />
          <path d="M42048.13,227514.24l0,-5940" />
          <path d="M41858.13,221194.24l-750,0" />
          <path d="M41108.13,221194.24l0,380" />
          <path d="M41108.13,221574.24l560,0" />
          <path d="M28048.13,221574.24l560,0" />
          <path d="M28608.13,221574.24l0,-380" />
          <path d="M28608.13,221194.24l-750,0" />
          <path d="M39608.13,221194.24l-9500,0" />
          <path d="M30108.13,221194.24l0,380" />
          <path d="M30108.13,221574.24l9500,0" />
          <path d="M39608.13,221574.24l0,-380" />
          <path d="M45168.13,227514.24l0,-1210" />
          <path d="M45548.13,227894.24l0,-1400" />
          <path d="M45548.13,221194.24l-1970,0" />
          <path d="M43578.13,221194.24l0,380" />
          <path d="M43578.13,221574.24l1590,0" />
          <path d="M42048.13,221574.24l530,0" />
          <path d="M42578.13,221574.24l0,-380" />
          <path d="M42578.13,221194.24l-720,0" />
          <path d="M45168.13,227514.24l-545,0" />
          <path d="M44623.13,227514.24l0,380" />
          <path d="M44623.13,227894.24l925,0" />
          <path d="M41858.13,227894.24l765,0" />
          <path d="M42623.13,227894.24l0,-380" />
          <path d="M42623.13,227514.24l-575,0" />
          <path d="M41668.13,227514.24l-545,0" />
          <path d="M41123.13,227514.24l0,380" />
          <path d="M41123.13,227894.24l735,0" />
          <path d="M28048.13,227894.24l575,0" />
          <path d="M28623.13,227894.24l0,-380" />
          <path d="M28623.13,227514.24l-575,0" />
          <path d="M39123.13,227514.24l-1500,0" />
          <path d="M37623.13,227514.24l0,380" />
          <path d="M37623.13,227894.24l1500,0" />
          <path d="M39123.13,227894.24l0,-380" />
          <path d="M35623.13,227514.24l-1500,0" />
          <path d="M34123.13,227514.24l0,380" />
          <path d="M34123.13,227894.24l1500,0" />
          <path d="M35623.13,227894.24l0,-380" />
          <path d="M32123.13,227514.24l-1500,0" />
          <path d="M30623.13,227514.24l0,380" />
          <path d="M30623.13,227894.24l1500,0" />
          <path d="M32123.13,227894.24l0,-380" />
          <path d="M52168.13,227894.24l0,-1400" />
          <path d="M52548.13,227514.24l0,-1210" />
          <path d="M55668.13,227514.24l0,-5940" />
          <path d="M56048.13,227514.24l0,-5940" />
          <path d="M52168.13,226114.24l-1060,0" />
          <path d="M51108.13,226114.24l0,380" />
          <path d="M51108.13,226494.24l1060,0" />
          <path d="M45548.13,226494.24l1060,0" />
          <path d="M46608.13,226494.24l0,-380" />
          <path d="M46608.13,226114.24l-1060,0" />
          <path d="M55668.13,227514.24l-575,0" />
          <path d="M55093.13,227514.24l0,380" />
          <path d="M55093.13,227894.24l765,0" />
          <path d="M52168.13,227894.24l925,0" />
          <path d="M53093.13,227894.24l0,-380" />
          <path d="M53093.13,227514.24l-545,0" />
          <path d="M55858.13,221194.24l-720,0" />
          <path d="M55138.13,221194.24l0,380" />
          <path d="M55138.13,221574.24l530,0" />
          <path d="M52548.13,221574.24l1590,0" />
          <path d="M54138.13,221574.24l0,-380" />
          <path d="M54138.13,221194.24l-1970,0" />
          <use xlink:href="#$DorLib2D$00000002" x="38.239" y="147.589" transform="scale(1500,1500) scale(-1,1) translate(-76.48,0) rotate(-180,38.24,147.59)" stroke-width="0.0001%">.<g class="blkclass0"><text transform="translate(-470,-316.25)" font-size="386.75">M1530</text></g></use>
          <use xlink:href="#$TCHSYS$WIN2D_2000x380" x="68093.13" y="227704.24" transform="scale(-1,-1) translate(-136186.26,-455408.48) rotate(-180,68093.13,227704.24)">.<g class="blkclass0"><text transform="translate(-595,613.75)" font-size="386.75">WC2020</text></g></use>
          <use xlink:href="#$TCHSYS$WIN2D_2000x380" x="64593.13" y="227704.24" transform="scale(-1,-1) translate(-129186.26,-455408.48) rotate(-180,64593.13,227704.24)">.<g class="blkclass0"><text transform="translate(-595,613.75)" font-size="386.75">WC2020</text></g></use>
          <use xlink:href="#$TCHSYS$WIN2D_2000x380" x="61093.13" y="227704.24" transform="scale(-1,-1) translate(-122186.26,-455408.48) rotate(-180,61093.13,227704.24)">.<g class="blkclass0"><text transform="translate(-595,613.75)" font-size="386.75">WC2020</text></g></use>
          <use xlink:href="#$TCHSYS$WIN2D_2000x380" x="57593.13" y="227704.24" transform="scale(-1,-1) translate(-115186.26,-455408.48) rotate(-180,57593.13,227704.24)">.<g class="blkclass0"><text transform="translate(-595,613.75)" font-size="386.75">WC2020</text></g></use>
          <use xlink:href="#$TCHSYS$WIN2D_2000x380" x="54093.13" y="227704.24" transform="scale(-1,-1) translate(-108186.26,-455408.48) rotate(-180,54093.13,227704.24)">.<g class="blkclass0"><text transform="translate(-595,613.75)" font-size="386.75">WC2020</text></g></use>
          <use xlink:href="#$DorLib2D$00000001" x="54.638" y="221.384" transform="scale(1000,1000) scale(-1,1) translate(-109.28,0) rotate(-180,54.64,221.38)" stroke-width="0.0001%">.<g class="blkclass0"><text transform="translate(-470,-316.25)" font-size="386.75">M1030</text></g></use>
          <path d="M52168.13,219074.24l1970,0" />
          <path d="M54138.13,219074.24l0,-380" />
          <path d="M54138.13,218694.24l-1590,0" />
          <path d="M55668.13,218694.24l-530,0" />
          <path d="M55138.13,218694.24l0,380" />
          <path d="M55138.13,219074.24l720,0" />
          <path d="M38358.13,219074.24l720,0" />
          <path d="M39078.13,219074.24l0,-380" />
          <path d="M39078.13,218694.24l-530,0" />
          <path d="M41668.13,218694.24l-1590,0" />
          <path d="M40078.13,218694.24l0,380" />
          <path d="M40078.13,219074.24l1780,0" />
          <use xlink:href="#$DorLib2D$00000002" x="32.572" y="141.923" transform="scale(1500,1500)" stroke-width="0.0001%">.</use>
          <use xlink:href="#$DorLib2D$00000002" x="31.319" y="141.923" transform="scale(1500,1500)" stroke-width="0.0001%">.</use>
          <use xlink:href="#$DorLib2D$00000002" x="33.825" y="141.923" transform="scale(1500,1500) scale(-1,1) translate(-67.65,0)" stroke-width="0.0001%">.</use>
          <path d="M52168.13,226114.24l0,-4920" />
          <path d="M52548.13,226304.24l0,-4730" />
          <path d="M45168.13,226304.24l0,-4730" />
          <path d="M45548.13,226114.24l0,-4920" />
          <use xlink:href="#$DorLib2D$00000141" x="32.572" y="150.869" transform="scale(1500,1500) scale(-1,-1) translate(-65.14,-301.74) rotate(-180,32.57,150.87)" stroke-width="0.0001%">.</use>
          <use xlink:href="#$DorLib2D$00000141" x="31.572" y="150.869" transform="scale(1500,1500) scale(-1,-1) translate(-63.14,-301.74) rotate(-180,31.57,150.87)" stroke-width="0.0001%">.</use>
          <use xlink:href="#$DorLib2D$00000141" x="33.572" y="150.869" transform="scale(1500,1500) scale(1,-1) translate(0,-301.74) rotate(-180,33.57,150.87)" stroke-width="0.0001%">.</use>
          <use xlink:href="#$TCHSYS$WIN2D_2000x380" x="29623.13" y="227704.24" transform="scale(1,-1) translate(0,-455408.48) rotate(-180,29623.13,227704.24)">.<g class="blkclass0"><text transform="translate(-595,613.75)" font-size="386.75">WC2020</text></g></use>
          <use xlink:href="#$TCHSYS$WIN2D_2000x380" x="33123.13" y="227704.24" transform="scale(1,-1) translate(0,-455408.48) rotate(-180,33123.13,227704.24)">.<g class="blkclass0"><text transform="translate(-595,613.75)" font-size="386.75">WC2020</text></g></use>
          <use xlink:href="#$TCHSYS$WIN2D_2000x380" x="36623.13" y="227704.24" transform="scale(1,-1) translate(0,-455408.48) rotate(-180,36623.13,227704.24)">.<g class="blkclass0"><text transform="translate(-595,613.75)" font-size="386.75">WC2020</text></g></use>
          <use xlink:href="#$TCHSYS$WIN2D_2000x380" x="40123.13" y="227704.24" transform="scale(1,-1) translate(0,-455408.48) rotate(-180,40123.13,227704.24)">.<g class="blkclass0"><text transform="translate(-595,613.75)" font-size="386.75">WC2020</text></g></use>
          <use xlink:href="#$TCHSYS$WIN2D_2000x380" x="43623.13" y="227704.24" transform="scale(1,-1) translate(0,-455408.48) rotate(-180,43623.13,227704.24)">.<g class="blkclass0"><text transform="translate(-595,613.75)" font-size="386.75">WC2020</text></g></use>
          <use xlink:href="#$DorLib2D$00000001" x="29.108" y="218.884" transform="scale(1000,1000) scale(-1,1) translate(-58.22,0)" stroke-width="0.0001%">.<g class="blkclass0"><text transform="translate(-470,613.75)" font-size="386.75">M1030</text></g></use>
          <use xlink:href="#$DorLib2D$00000002" x="19.572" y="147.589" transform="scale(1500,1500) scale(-1,1) translate(-39.14,0) rotate(-180,19.57,147.59)" stroke-width="0.0001%">.<g class="blkclass0"><text transform="translate(-470,-316.25)" font-size="386.75">M1530</text></g></use>
          <use xlink:href="#$DorLib2D$00000001" x="37.138" y="218.884" transform="scale(1000,1000)" stroke-width="0.0001%">.<g class="blkclass0"><text transform="translate(-470,613.75)" font-size="386.75">M1030</text></g></use>
          <use xlink:href="#$DorLib2D$00000001" x="39.578" y="218.884" transform="scale(1000,1000) scale(-1,1) translate(-79.16,0)" stroke-width="0.0001%">.<g class="blkclass0"><text transform="translate(-470,613.75)" font-size="386.75">M1030</text></g></use>
          <use xlink:href="#$DorLib2D$00000002" x="26.905" y="147.589" transform="scale(1500,1500) rotate(-180,26.91,147.59)" stroke-width="0.0001%">.<g class="blkclass0"><text transform="translate(-470,-316.25)" font-size="386.75">M1530</text></g></use>
          <use xlink:href="#$DorLib2D$00000001" x="43.078" y="221.384" transform="scale(1000,1000) rotate(-180,43.08,221.38)" stroke-width="0.0001%">.<g class="blkclass0"><text transform="translate(-470,-316.25)" font-size="386.75">M1030</text></g></use>
          <path d="M44958.13,227894.24l0,160" />
          <path d="M44958.13,228054.24l200,0" />
          <path d="M45158.13,228054.24l0,-160" />
          <path d="M45158.13,227894.24l-200,0" />
          <path d="M45158.13,230104.24l0,-750" />
          <path d="M45158.13,229354.24l-200,0" />
          <path d="M44958.13,229354.24l0,950" />
          <path d="M44958.13,230304.24l1700,0" />
          <path d="M46658.13,230304.24l0,-200" />
          <path d="M46658.13,230104.24l-1500,0" />
          <path d="M52358.13,230104.24l-1300,0" />
          <path d="M51058.13,230104.24l0,200" />
          <path d="M51058.13,230304.24l1500,0" />
          <path d="M52558.13,230304.24l0,-950" />
          <path d="M52558.13,229354.24l-200,0" />
          <path d="M52358.13,229354.24l0,750" />
          <path d="M52358.13,227894.24l0,160" />
          <path d="M52358.13,228054.24l200,0" />
          <path d="M52558.13,228054.24l0,-160" />
          <path d="M52558.13,227894.24l-200,0" />
          <path d="M51058.13,230304.24l0,-200" />
          <path d="M46658.13,230104.24l0,200" />
          <path d="M52558.13,228054.24l-200,0" />
          <path d="M52358.13,229354.24l200,0" />
          <path d="M44958.13,229354.24l200,0" />
          <path d="M45158.13,228054.24l-200,0" />
          <path d="M45548.13,218774.24l1800,0" />
          <path d="M45548.13,218474.24l1800,0" />
          <path d="M45548.13,218174.24l1800,0" />
          <path d="M45548.13,217874.24l1800,0" />
          <path d="M45548.13,217574.24l1800,0" />
          <path d="M45548.13,217274.24l1800,0" />
          <path d="M45548.13,216974.24l1800,0" />
          <path d="M45737.6,216674.24l1610.53,0" />
          <path d="M46211.29,216374.24l1136.84,0" />
          <path d="M46684.97,216074.24l663.16,0" />
          <path d="M47158.66,215774.24l189.47,0" />
          <path d="M45548.13,219074.24l0,-2280" />
          <path d="M47348.13,219074.24l0,-3420" />
          <path d="M45548.13,219074.24l1800,0" />
          <path d="M47348.13,215654.24l-840.96,532.61" />
          <path d="M46507.17,216186.85l40.25,128.86" />
          <path d="M46547.42,216315.71l-212.95,-164.31" />
          <path d="M46334.47,216151.41l37.77,120.91" />
          <path d="M46372.23,216272.31l-824.1,521.93" />
          <path d="M47288.13,218939.24l0,-5130" />
          <path d="M47348.13,218939.24l0,-5130" />
          <path d="M47288.13,218939.24l60,0" />
          <path d="M47288.13,213809.24l60,0" />
          <path d="M50368.13,218774.24l1800,0" />
          <path d="M50368.13,218474.24l1800,0" />
          <path d="M50368.13,218174.24l1800,0" />
          <path d="M50368.13,217874.24l1800,0" />
          <path d="M50368.13,217574.24l1800,0" />
          <path d="M50368.13,217274.24l1800,0" />
          <path d="M50368.13,216974.24l1800,0" />
          <path d="M50557.6,216674.24l1610.53,0" />
          <path d="M51031.29,216374.24l1136.84,0" />
          <path d="M51504.97,216074.24l663.16,0" />
          <path d="M51978.66,215774.24l189.47,0" />
          <path d="M50368.13,219074.24l0,-2280" />
          <path d="M52168.13,219074.24l0,-3420" />
          <path d="M50368.13,219074.24l1800,0" />
          <path d="M52168.13,215654.24l-840.96,532.61" />
          <path d="M51327.17,216186.85l40.25,128.86" />
          <path d="M51367.42,216315.71l-212.95,-164.31" />
          <path d="M51154.47,216151.41l37.77,120.91" />
          <path d="M51192.23,216272.31l-824.1,521.93" />
          <path d="M50368.13,218939.24l0,-5130" />
          <path d="M50428.13,218939.24l0,-5130" />
          <path d="M50368.13,218939.24l60,0" />
          <path d="M50368.13,213809.24l60,0" />
          <path d="M45548.13,215274.24l405,0" />
          <path d="M45953.13,215274.24l0,-200" />
          <path d="M45953.13,215074.24l-405,0" />
          <path d="M45548.13,215074.24l0,200" />
          <path d="M47548.13,215074.24l-695,0" />
          <path d="M46853.13,215074.24l0,200" />
          <path d="M46853.13,215274.24l495,0" />
          <path d="M47548.13,215074.24l0,1948" />
          <path d="M47348.13,215274.24l0,1748" />
          <path d="M47548.13,217022.24l-200,0" />
          <use xlink:href="#$DorLib2D$00000002" x="46.866" y="122.658" transform="scale(1800,1800) rotate(-270,46.87,122.66)" stroke-width="0.0001%">.</use>
          <use xlink:href="#$TCHSYS$WIN2D_2000x380" x="84358.13" y="224284.24" transform="scale(-1,-1) translate(-168716.26,-448568.48) rotate(-270,84358.13,224284.24)">.<g class="blkclass0"><text transform="rotate(-90 613.75,595) translate(613.75,595)" font-size="386.75">WC2020</text></g></use>
          <use xlink:href="#$TCHSYS$WIN2D_2000x380" x="84358.13" y="227784.24" transform="scale(-1,-1) translate(-168716.26,-455568.48) rotate(-270,84358.13,227784.24)">.<g class="blkclass0"><text transform="rotate(-90 613.75,695) translate(613.75,695)" font-size="386.75">WC2020</text></g></use>
          <use xlink:href="#$TCHSYS$WIN2D_2000x380" x="84358.13" y="231284.24" transform="scale(-1,-1) translate(-168716.26,-462568.48) rotate(-270,84358.13,231284.24)">.<g class="blkclass0"><text transform="rotate(-90 613.75,695) translate(613.75,695)" font-size="386.75">WC2020</text></g></use>
          <use xlink:href="#$TCHSYS$WIN2D_2000x380" x="84358.13" y="234784.24" transform="scale(-1,-1) translate(-168716.26,-469568.48) rotate(-270,84358.13,234784.24)">.<g class="blkclass0"><text transform="rotate(-90 613.75,695) translate(613.75,695)" font-size="386.75">WC2020</text></g></use>
          <use xlink:href="#$DorLib2D$00000001" x="51.559" y="239.082" transform="scale(900,900) scale(-1,1) translate(-103.12,0)" stroke-width="0.0001%">.<g class="blkclass0"><text transform="translate(-445,523.75)" font-size="386.75">M0921</text></g></use>
          <path d="M52168.13,215074.24l-405,0" />
          <path d="M51763.13,215074.24l0,200" />
          <path d="M51763.13,215274.24l405,0" />
          <path d="M52168.13,215274.24l0,-200" />
          <path d="M50368.13,215274.24l495,0" />
          <path d="M50863.13,215274.24l0,-200" />
          <path d="M50863.13,215074.24l-695,0" />
          <use xlink:href="#$DorLib2D$00000001" x="57.015" y="239.082" transform="scale(900,900) scale(-1,-1) translate(-114.03,-478.16) rotate(-180,57.01,239.08)" stroke-width="0.0001%">.<g class="blkclass0"><text transform="translate(-445,523.75)" font-size="386.75">M0921</text></g></use>
          <path d="M50368.13,215274.24l0,1748" />
          <path d="M50168.13,215074.24l0,1948" />
          <path d="M50368.13,217022.24l-200,0" />
          <path d="M48858.13,216224.36l0,1097.89l0,300" />
          <path d="M46418.13,219443.45l0,-1569.21l0,-300" />
          <path d="M51298.13,219443.45l0,-1569.21l0,-300" />
          <path d="M18448.58,222194.24l0,-1400" />
          <path d="M18148.58,222194.24l0,-1400" />
          <path d="M17848.58,222194.24l0,-1400" />
          <path d="M17548.58,222194.24l0,-1400" />
          <path d="M17248.58,222194.24l0,-1400" />
          <path d="M16948.58,222194.24l0,-1400" />
          <path d="M16648.58,222194.24l0,-1400" />
          <path d="M16348.58,222046.88l0,-1252.63" />
          <path d="M16048.58,221678.45l0,-884.21" />
          <path d="M15748.58,221310.03l0,-515.79" />
          <path d="M15448.58,220941.61l0,-147.37" />
          <path d="M18748.58,222194.24l-2280,0" />
          <path d="M18748.58,220794.24l-3420,0" />
          <path d="M18748.58,222194.24l0,-1400" />
          <path d="M15328.58,220794.24l525.88,645.81" />
          <path d="M15854.46,221440.06l123.18,-55.24" />
          <path d="M15977.64,221384.81l-137.91,230.93" />
          <path d="M15839.73,221615.74l115.58,-51.83" />
          <path d="M15955.31,221563.91l513.27,630.34" />
          <path d="M18613.58,220854.24l-5130,0" />
          <path d="M18613.58,220794.24l-5130,0" />
          <path d="M18613.58,220854.24l0,-60" />
          <path d="M13483.58,220854.24l0,-60" />
          <path d="M14948.58,222194.24l0,-405" />
          <path d="M14948.58,221789.24l-200,0" />
          <path d="M14748.58,221789.24l0,405" />
          <path d="M14748.58,222194.24l200,0" />
          <path d="M14748.58,220594.24l0,295" />
          <path d="M14748.58,220889.24l200,0" />
          <path d="M14948.58,220889.24l0,-95" />
          <use xlink:href="#$DorLib2D$00000001" x="16.498" y="245.932" transform="scale(900,900) scale(-1,1) translate(-33,0) rotate(-270,16.5,245.93)" stroke-width="0.0001%">.<g class="blkclass0"><text transform="rotate(-90 523.75,445) translate(523.75,445)" font-size="386.75">M0921</text></g></use>
          <path d="M14748.58,220594.24l1948,0" />
          <path d="M14948.58,220794.24l1748,0" />
          <path d="M16696.58,220594.24l0,200" />
          <path d="M19117.79,221324.24l-1569.21,0l-300,0" />
          <path d="M15057.22,219834.24l665.36,0l300,0" />
          <path d="M79267.68,220794.24l0,1400" />
          <path d="M79567.68,220794.24l0,1400" />
          <path d="M79867.68,220794.24l0,1400" />
          <path d="M80167.68,220794.24l0,1400" />
          <path d="M80467.68,220794.24l0,1400" />
          <path d="M80767.68,220794.24l0,1400" />
          <path d="M81067.68,220794.24l0,1400" />
          <path d="M81367.68,220941.61l0,1252.63" />
          <path d="M81667.68,221310.03l0,884.21" />
          <path d="M81967.68,221678.45l0,515.79" />
          <path d="M82267.68,222046.88l0,147.37" />
          <path d="M78967.68,220794.24l2280,0" />
          <path d="M78967.68,222194.24l3420,0" />
          <path d="M78967.68,220794.24l0,1400" />
          <path d="M82387.68,222194.24l-525.88,-645.81" />
          <path d="M81861.8,221548.43l-123.18,55.24" />
          <path d="M81738.62,221603.68l137.91,-230.93" />
          <path d="M81876.53,221372.75l-115.58,51.83" />
          <path d="M81760.95,221424.58l-513.27,-630.34" />
          <path d="M79102.68,220794.24l5130,0" />
          <path d="M79102.68,220854.24l5130,0" />
          <path d="M79102.68,220794.24l0,60" />
          <path d="M84232.68,220794.24l0,60" />
          <path d="M82967.68,222194.24l0,-405" />
          <path d="M82967.68,221789.24l-200,0" />
          <path d="M82767.68,221789.24l0,405" />
          <path d="M82767.68,222194.24l200,0" />
          <path d="M82767.68,220794.24l0,95" />
          <path d="M82767.68,220889.24l200,0" />
          <path d="M82967.68,220889.24l0,-295" />
          <use xlink:href="#$DorLib2D$00000001" x="92.075" y="245.932" transform="scale(900,900) scale(-1,-1) translate(-184.15,-491.86) rotate(-90,92.08,245.93)" stroke-width="0.0001%">.<g class="blkclass0"><text transform="rotate(-90 -226.25,445) translate(-226.25,445)" font-size="386.75">M0921</text></g></use>
          <path d="M82767.68,220794.24l-1748,0" />
          <path d="M82967.68,220594.24l-1948,0" />
          <path d="M81019.68,220794.24l0,-200" />
          <path d="M78598.47,221324.24l1569.21,0l300,0" />
          <path d="M82659.04,219834.24l-665.36,0l-300,0" />
          <use xlink:href="#$TCHSYS$WIN2D_2000x380" x="74208.13" y="243384.24" transform="scale(-1,-1) translate(-148416.26,-486768.48) rotate(-180,74208.13,243384.24)">.<g class="blkclass0"><text transform="translate(-600,613.75)" font-size="386.75">WC2020</text></g></use>
          <use xlink:href="#$TCHSYS$WIN2D_2000x380" x="77108.13" y="243384.24" transform="scale(-1,-1) translate(-154216.26,-486768.48) rotate(-180,77108.13,243384.24)">.<g class="blkclass0"><text transform="translate(-600,613.75)" font-size="386.75">WC2020</text></g></use>
          <use xlink:href="#$TCHSYS$WIN2D_2000x380" x="80008.13" y="243384.24" transform="scale(-1,-1) translate(-160016.26,-486768.48) rotate(-180,80008.13,243384.24)">.<g class="blkclass0"><text transform="translate(-600,613.75)" font-size="386.75">WC2020</text></g></use>
          <path d="M21668.13,221194.24l3454.92,0" />
          <path d="M22048.13,221574.24l2999.92,0" />
          <path d="M62758.13,227514.24l0,-5940" />
          <path d="M62958.13,227514.24l0,-5940" />
          <path d="M62758.13,227514.24l200,0" />
          <path d="M62758.13,221574.24l200,0" />
          <use xlink:href="#$DorLib2D$00000001" x="71.108" y="218.884" transform="scale(1000,1000) scale(-1,1) translate(-142.22,0)" stroke-width="0.0001%">.<g class="blkclass0"><text transform="translate(-470,613.75)" font-size="386.75">M1030</text></g></use>
          <path d="M66458.13,218694.24l0,-300" />
          <path d="M66458.13,218394.24l-200,0" />
          <path d="M66258.13,218394.24l0,300" />
          <path d="M66258.13,218694.24l200,0" />
          <path d="M66258.13,213074.24l0,4320" />
          <path d="M66258.13,217394.24l200,0" />
          <path d="M66458.13,217394.24l0,-4320" />
          <path d="M66458.13,213074.24l-200,0" />
          <path d="M72758.13,229954.24l200,0" />
          <path d="M72958.13,224554.24l-200,0" />
          <path d="M75668.13,227354.24l0,-200" />
          <path d="M34758.13,227514.24l200,0" />
          <path d="M34958.13,221574.24l-200,0" />
          <path d="M31258.13,227514.24l200,0" />
          <path d="M31458.13,221574.24l-200,0" />
          <path d="M13548.13,229434.24l5620,0" />
          <path d="M13548.13,229634.24l5620,0" />
          <path d="M13548.13,229434.24l0,200" />
          <path d="M19168.13,229434.24l0,200" />
          <use xlink:href="#$DorLib2D$00000001" x="19.358" y="228.174" transform="scale(1000,1000) scale(-1,1) translate(-38.72,0) rotate(-270,19.36,228.17)" stroke-width="0.0001%">.<g class="blkclass0"><text transform="rotate(-90 423.75,470) translate(423.75,470)" font-size="386.75">M1030</text></g></use>
          <path d="M25198.05,221574.24l0,2600" />
          <path d="M25048.05,221574.24l0,2600" />
          <path d="M25198.05,221574.24l910.08,0" />
          <path d="M26108.13,221574.24l0,-380" />
          <path d="M26108.13,221194.24l-985.08,0" />
          <path d="M27858.13,221194.24l-750,0" />
          <path d="M27108.13,221194.24l0,380" />
          <path d="M27108.13,221574.24l560,0" />
          <path d="M25123.05,224554.24l-3074.92,0" />
          <path d="M25048.05,224174.24l-2999.92,0" />
          <use xlink:href="#$DorLib2D$00000001" x="21.858" y="222.274" transform="scale(1000,1000) scale(-1,1) translate(-43.72,0) rotate(-270,21.86,222.27)" stroke-width="0.0001%">.</use>
          <path d="M21668.13,223108.47l-260,0" />
          <path d="M21408.13,223108.47l0,380" />
          <path d="M21408.13,223488.47l260,0" />
          <path d="M19548.13,223488.47l260,0" />
          <path d="M19808.13,223488.47l0,-380" />
          <path d="M19808.13,223108.47l-260,0" />
          <path d="M21668.13,224364.24l0,-875.77" />
          <path d="M22048.13,224174.24l0,-875.77" />
          <path d="M19548.13,225884.24l0,-490" />
          <path d="M19548.13,225394.24l-380,0" />
          <path d="M19168.13,225394.24l0,300" />
          <path d="M19168.13,223298.47l0,1095.77" />
          <path d="M19168.13,224394.24l380,0" />
          <path d="M19548.13,224394.24l0,-905.77" />
          <path d="M22048.13,223298.47l0,-524.23" />
          <path d="M22048.13,222774.24l-380,0" />
          <path d="M21668.13,222774.24l0,334.23" />
          <path d="M21668.13,221194.24l0,580" />
          <path d="M21668.13,221774.24l380,0" />
          <path d="M22048.13,221774.24l0,-200" />
          <path d="M19168.13,223298.47l0,-724.23" />
          <path d="M19548.13,223108.47l0,-914.23" />
          <path d="M19548.13,225984.24l260,0" />
          <path d="M19808.13,225984.24l0,-200" />
          <path d="M19808.13,225784.24l-260,0" />
          <path d="M21668.13,225784.24l-260,0" />
          <path d="M21408.13,225784.24l0,200" />
          <path d="M21408.13,225984.24l260,0" />
          <path d="M21668.13,225884.24l0,-1520" />
          <path d="M22048.13,225884.24l0,-1330" />
          <path d="M76048.13,223488.47l260,0" />
          <path d="M76308.13,223488.47l0,-380" />
          <path d="M76308.13,223108.47l-260,0" />
          <path d="M78168.13,223108.47l-260,0" />
          <path d="M77908.13,223108.47l0,380" />
          <path d="M77908.13,223488.47l260,0" />
          <path d="M77908.13,223108.47l-1600,0" />
          <path d="M76308.13,223488.47l1600,0" />
          <path d="M78168.13,223108.47l0,-914.23" />
          <path d="M78548.13,223298.47l0,-724.23" />
          <path d="M73198.05,221574.24l0,2600" />
          <path d="M73048.05,221574.24l0,2600" />
          <path d="M70048.13,224174.24l2999.92,0" />
          <path d="M70048.13,224554.24l3074.92,0" />
          <path d="M73123.05,221194.24l-1514.92,0" />
          <path d="M71608.13,221194.24l0,380" />
          <path d="M71608.13,221574.24l1439.92,0" />
          <path d="M70048.13,221574.24l560,0" />
          <path d="M70608.13,221574.24l0,-380" />
          <path d="M70608.13,221194.24l-750,0" />
          <path d="M73198.05,224174.24l2470.08,0" />
          <path d="M73123.05,224554.24l2545.08,0" />
          <use xlink:href="#$DorLib2D$00000001" x="75.858" y="222.274" transform="scale(1000,1000) scale(-1,-1) translate(-151.72,-444.55) rotate(-90,75.86,222.27)" stroke-width="0.0001%">.<g class="blkclass0"><text transform="rotate(-90 680.73,470) translate(680.73,470)" font-size="386.75">M1030</text></g></use>
          <path d="M76048.13,223108.47l0,-334.23" />
          <path d="M76048.13,222774.24l-380,0" />
          <path d="M75668.13,222774.24l0,524.23" />
          <path d="M75668.13,221574.24l0,200" />
          <path d="M75668.13,221774.24l380,0" />
          <path d="M76048.13,221774.24l0,-580" />
          <path d="M52548.13,216904.65l1620,0" />
          <path d="M55068.13,216904.65l600,0" />
          <path d="M52548.13,216924.65l1620,0" />
          <path d="M55068.13,216924.65l600,0" />
          <path d="M52548.13,216944.65l1620,0" />
          <path d="M54168.13,216944.65l0,-60" />
          <path d="M54168.13,216884.65l-1620,0" />
          <path d="M55668.13,216884.65l-600,0" />
          <path d="M55068.13,216884.65l0,60" />
          <path d="M55068.13,216944.65l600,0" />
          <path d="M52168.13,219074.24l0,-2159.6" />
          <path d="M52548.13,218694.24l0,-1779.6" />
          <path d="M55668.13,218694.24l0,-1779.6" />
          <path d="M56048.13,218694.24l0,-1779.6" />
          <path d="M52168.13,216914.65l0,-3840.4" />
          <path d="M52548.13,216914.65l0,-3840.4" />
          <path d="M55668.13,216914.65l0,-3840.4" />
          <path d="M56048.13,216914.65l0,-3840.4" />
          <use xlink:href="#$DorLib2D$00000130_900x60" x="54618.13" y="216914.65" transform="scale(1,-1) translate(0,-433829.3)">.<g class="blkclass0"><text transform="translate(-620,-341.86)" font-size="386.75">TLM0921</text></g></use>
          <path d="M54148.85,216939.33a20,20 0 0,0 38.56,10.64a20,20 0 0,0 -38.56,-10.64" class="cnc-2" />
          <path d="M42048.13,218694.24l0,-360" />
          <path d="M42048.13,218334.24l-380,0" />
          <path d="M41668.13,218334.24l0,360" />
          <path d="M41668.13,213074.24l0,4260" />
          <path d="M41668.13,217334.24l380,0" />
          <path d="M42048.13,217334.24l0,-4260" />
          <path d="M42048.13,218694.24l3120,0" />
          <path d="M41858.13,219074.24l3690,0" />
          <path d="M42048.13,213074.24l575,0" />
          <path d="M42623.13,213074.24l0,-380" />
          <path d="M42623.13,212694.24l-765,0" />
          <path d="M45358.13,212694.24l-735,0" />
          <path d="M44623.13,212694.24l0,380" />
          <path d="M44623.13,213074.24l545,0" />
          <use xlink:href="#$DorLib2D$00000001" x="41.858" y="217.834" transform="scale(1000,1000) scale(-1,-1) translate(-83.72,-435.67) rotate(-90,41.86,217.83)" stroke-width="0.0001%">.<g class="blkclass0"><text transform="rotate(-90 -126.25,470) translate(-126.25,470)" font-size="386.75">M1030</text></g></use>
        </g>
        <g id="layer-GROS" class="gros">
          <path d="M85148.13,244174.24l-600,-600" />
        </g>
        <g id="layer-0" class="i0">
          <circle r="1200" cx="92790.95" cy="206304.86" />
          <path d="M92790.95,207504.86l0,-2400" />
          <path d="M46742.51,253051.29l3469.13,0" class="cnc-3" />
        </g>
      </g>
      <g id="assets" fill="none">
        <g id="rm-assets" class="rm-asset">
          <path id="15013;F01;114" d="M13548.13,233074.24l14120,0l0,10120l-14120,0z" />
          <path id="15013;F01;101" d="M70048.13,243194.24l14120,0l0,-10120l-14120,0z" />
          <path id="15013;F01;118" d="M28048.13,227514.24l13620,0l0,-5940l-13620,0z" />
          <path id="15013;F01;111" d="M13548.13,213074.24l14120,0l0,5620l-14120,0z" />
          <path id="15013;F01;104" d="M70048.13,213074.24l14120,0l0,5620l-14120,0z" />
          <path id="15013;F01;110" d="M28048.13,213074.24l10120,0l0,5620l-10120,0z" />
          <path id="15013;F01;122" d="M62958.13,227514.24l6710,0l0,-5940l-6710,0z" />
          <path id="15013;F01;121" d="M56048.13,221574.24l6710,0l0,5940l-6710,0z" />
          <path id="15013;F01;106" d="M59548.13,213074.24l6710,0l0,5620l-6710,0z" />
          <path id="15013;F01;109" d="M38548.13,213074.24l6620,0l0,5620l-6620,0z" />
          <path id="15013;F01;102" d="M78548.13,226074.24l5620,0l0,6620l-5620,0z" />
          <path id="15013;F01;124" d="M70048.13,224554.24l5620,0l0,5400l-5620,0z" />
          <path id="15013;F01;116" d="M22048.13,229954.24l5620,0l0,-5400l-5620,0z" />
          <path id="15013;F01;112" d="M13548.13,226074.24l5620,0l0,3360l-5620,0z" />
          <path id="15013;F01;119" d="M42048.13,227514.24l3120,0l0,-5940l-3120,0z" />
          <path id="15013;F01;120" d="M52548.13,221574.24l3120,0l0,5940l-3120,0z" />
          <path id="15013;F01;105" d="M66458.13,218694.24l3210,0l0,-5620l-3210,0z" />
          <path id="15013;F01;108" d="M52548.13,213074.24l3120,0l0,5620l-3120,0z" />
          <path id="15013;F01;107" d="M56048.13,213074.24l3120,0l0,5620l-3120,0z" />
          <path id="15013;F01;103" d="M78548.13,225694.24l5620,0l0,-3120l-5620,0z" />
          <path id="15013;F01;113" d="M13548.13,229634.24l5620,0l0,3060l-5620,0z" />
          <path id="15013;F01;115" d="M22048.13,232694.24l5620,0l0,-2360l-5620,0z" />
          <path id="15013;F01;125" d="M70048.13,230334.24l5620,0l0,2360l-5620,0z" />
          <path id="15013;F01;123" d="M73198.05,224174.24l2470.08,0l0,-2600l-2470.08,0z" />
          <path id="15013;F01;117" d="M25198.05,221574.24l2470.08,0l0,2600l-2470.08,0z" />
        </g>
      </g>
    </g>
    <g id="text" font-family="Arial" font-size="438.86524822695031" font-weight="normal" text-style="normal" text-anchor="start" dominant-baseline="alphabetical" fill="#FF7F00" xml:space="preserve">
      <g id="layer-0-text" font-size="290.063" fill="#000000" stroke="#000000" stroke-width="0.02">
        <g transform="translate(47266.53,254487.79)" font-size="658.298">
          <text>总建筑面积：</text>
        </g>
        <g transform="translate(49478.23,254487.79)" font-size="580.125">
          <text>4654.83m</text>
        </g>
        <g transform="translate(51878.23,254225.29)">
          <text>2</text>
        </g>
        <g transform="translate(47091.78,253759.44)" font-size="658.298">
          <text>本层建筑面积：</text>
        </g>
        <g transform="translate(49672.1,253759.44)" font-size="580.125">
          <text>1551.61m</text>
        </g>
        <g transform="translate(51892.1,253496.94)">
          <text>2</text>
        </g>
        <g transform="translate(92647.33,204854.86)" font-size="626.95">
          <text>北</text>
        </g>
        <g transform="translate(46742.51,252922.31)" font-size="910">
          <text>首层平面图</text>
        </g>
        <g transform="translate(50491.64,252922.31)" font-size="650">
          <text>1:100</text>
        </g>
      </g>
      <g id="layer-body-text">
        <g transform="translate(70448.77,222024.24)" font-size="386.75">
          <text>FM1021</text>
        </g>
        <g transform="translate(71588.77,222024.24)">
          <text>乙</text>
        </g>
        <g transform="translate(48753.88,216119.36)">
          <text>上</text>
        </g>
        <g transform="translate(46313.88,219898.45)">
          <text>上</text>
        </g>
        <g transform="translate(51193.88,219898.45)">
          <text>上</text>
        </g>
        <g transform="translate(19222.79,221499.24)">
          <text>上</text>
        </g>
        <g transform="translate(14743.71,220009.24)">
          <text>上</text>
        </g>
        <g transform="translate(78284.96,221499.24)">
          <text>上</text>
        </g>
        <g transform="translate(82764.04,220009.24)">
          <text>上</text>
        </g>
        <g transform="rotate(-90 21501.15,222920.57) translate(21501.15,222920.57)" font-size="386.75">
          <text>FM1021</text>
        </g>
        <g transform="rotate(-90 21501.15,221780.57) translate(21501.15,221780.57)">
          <text>甲</text>
        </g>
      </g>
    </g>
    <g id="asset-labels" font-family="Arial" font-weight="bold" font-size="38.1em" text-anchor="middle">
      <g id="rm-labels">
        <g id="l-rm-15013;F01;114" transform="translate(20608.13,238134.24)">
          <text>114</text>
        </g>
        <g id="l-rm-15013;F01;101" transform="translate(77108.13,238134.24)">
          <text>101</text>
        </g>
        <g id="l-rm-15013;F01;118" transform="translate(34858.13,224544.24)">
          <text>118</text>
        </g>
        <g id="l-rm-15013;F01;111" transform="translate(20608.13,215884.24)">
          <text>111</text>
        </g>
        <g id="l-rm-15013;F01;104" transform="translate(77108.13,215884.24)">
          <text>104</text>
        </g>
        <g id="l-rm-15013;F01;110" transform="translate(33108.13,215884.24)">
          <text>110</text>
        </g>
        <g id="l-rm-15013;F01;122" transform="translate(66313.13,224544.24)">
          <text>122</text>
        </g>
        <g id="l-rm-15013;F01;121" transform="translate(59403.13,224544.24)">
          <text>121</text>
        </g>
        <g id="l-rm-15013;F01;106" transform="translate(62903.13,215884.24)">
          <text>106</text>
        </g>
        <g id="l-rm-15013;F01;109" transform="translate(41858.13,215884.24)">
          <text>109</text>
        </g>
        <g id="l-rm-15013;F01;102" transform="translate(81358.13,229384.24)">
          <text>102</text>
        </g>
        <g id="l-rm-15013;F01;124" transform="translate(72858.13,227254.24)">
          <text>124</text>
        </g>
        <g id="l-rm-15013;F01;116" transform="translate(24858.13,227254.24)">
          <text>116</text>
        </g>
        <g id="l-rm-15013;F01;112" transform="translate(16358.13,227754.24)">
          <text>112</text>
        </g>
        <g id="l-rm-15013;F01;119" transform="translate(43608.13,224544.24)">
          <text>119</text>
        </g>
        <g id="l-rm-15013;F01;120" transform="translate(54108.13,224544.24)">
          <text>120</text>
        </g>
        <g id="l-rm-15013;F01;105" transform="translate(68063.13,215884.24)">
          <text>105</text>
        </g>
        <g id="l-rm-15013;F01;108" transform="translate(54108.13,215884.24)">
          <text>108</text>
        </g>
        <g id="l-rm-15013;F01;107" transform="translate(57608.13,215884.24)">
          <text>107</text>
        </g>
        <g id="l-rm-15013;F01;103" transform="translate(81358.13,224134.24)">
          <text>103</text>
        </g>
        <g id="l-rm-15013;F01;113" transform="translate(16358.13,231164.24)">
          <text>113</text>
        </g>
        <g id="l-rm-15013;F01;115" transform="translate(24858.13,231514.24)">
          <text>115</text>
        </g>
        <g id="l-rm-15013;F01;125" transform="translate(72858.13,231514.24)">
          <text>125</text>
        </g>
        <g id="l-rm-15013;F01;123" transform="translate(74433.09,222874.24)">
          <text>123</text>
        </g>
        <g id="l-rm-15013;F01;117" transform="translate(26433.09,222874.24)">
          <text>117</text>
        </g>
      </g>
    </g>
  </g>
</svg>