<svg version="1.1" xmlns="http://www.w3.org/2000/svg" xmlns:xlink="http://www.w3.org/1999/xlink" viewBox="438892.39 633775.88 73807 32547">
  <style>.i0 { stroke:#000000;   } .body { stroke:#ff7f00;   } .rm { stroke:#00ffff;   } .pub_wall { stroke:#c0c0c0;   } .rm-asset { stroke:#0000ff;   fill:#EEEEEE; fill-opacity:1;} .rmtc-asset { stroke:#0000ff;   } .rmtc { stroke:#00ffff;   } .rm-assettxt { stroke:#0000ff;   } .rmtc-assettxt { stroke:#0000ff;   } .cnc-0 { stroke:#000000;  stroke-dasharray:0; fill:#cccccc; fill-opacity:1;} .cnc-1 { stroke:#00ffff;  stroke-dasharray:0; fill:#cccccc; fill-opacity:1;} .cnc-2 { stroke:#00ffff; stroke-width:100; stroke-dasharray:0; fill:#cccccc; fill-opacity:1;} .cnc-3 { stroke:#000000; stroke-width:143.499999999767; stroke-dasharray:0; fill:#cccccc; fill-opacity:1;} .cnc-4 { stroke:#212830;  stroke-dasharray:0; } .cnc-5 { stroke:#212830;  stroke-dasharray:0; } .cnc-6 { stroke:#000000; stroke-width:86.0999999998603; stroke-dasharray:0; } .cnc-7 { stroke:#00bfff;  stroke-dasharray:0; }</style>
  <view id="defaultView" viewBox="438892.39 633775.88 73807 32547" />
  <defs>
    <symbol id="$TCHSYS$WIN2D_2000x380" overflow="visible" class="i0">
      <path d="M-1000,-190l2000,0" />
      <path d="M-1000,190l2000,0" />
      <path d="M1000,63.33l-2000,0" />
      <path d="M1000,-63.33l-2000,0" />
      <path d="M-1000,-190l0,380" />
      <path d="M1000,-190l0,380" />
    </symbol>
    <symbol id="$TCHSYS$WIN2D_1500x380" overflow="visible" class="i0">
      <path d="M-750,-190l1500,0" />
      <path d="M-750,190l1500,0" />
      <path d="M750,63.33l-1500,0" />
      <path d="M750,-63.33l-1500,0" />
      <path d="M-750,-190l0,380" />
      <path d="M750,-190l0,380" />
    </symbol>
    <symbol id="$DorLib2D$00000002" overflow="visible" class="i0">
      <path d="M-0.5,0l0,-0.49" />
      <path d="M-0.48,0l0,-0.49" />
      <path d="M-0.5,0l0.02,0" />
      <path d="M-0.48,-0.49l-0.02,0" />
      <path d="M-0.48,-0.49a0.49,0.49 0 0,1 0.48,0.49" />
      <path d="M0,0a0.49,0.49 0 0,1 0.48,-0.49" />
      <path d="M0.48,0l0,-0.49" />
      <path d="M0.5,0l0,-0.49" />
      <path d="M0.48,-0.49l0.02,0" />
      <path d="M0.5,0l-0.02,0" />
    </symbol>
    <symbol id="$DorLib2D$00000001" overflow="visible" class="i0">
      <path d="M0.45,-0.98l0.05,0" />
      <path d="M0.5,0l-0.05,0" />
      <path d="M-0.5,0a0.98,0.98 0 0,1 0.95,-0.97" />
      <path d="M0.5,0l0,-0.98" />
      <path d="M0.45,0l0,-0.98" />
    </symbol>
    <symbol id="$DorLib2D$00000141" overflow="visible" class="i0">
      <path d="M0,0l0.03,0.12l0.06,0.11l0.08,0.1l0.1,0.08l0.11,0.05l0.12,0.03" class="cnc-4" />
      <path d="M-0.5,0l0,0.49" class="cnc-4" />
      <path d="M-0.5,0l0.03,0" class="cnc-5" />
      <path d="M-0.48,0.49l-0.03,0" class="cnc-4" />
      <path d="M-0.01,0.11l0.01,-0.11" class="cnc-5" />
      <path d="M-0.05,0.21l0.03,-0.1" class="cnc-4" />
      <path d="M-0.1,0.3l0.06,-0.09" class="cnc-4" />
      <path d="M-0.18,0.38l0.07,-0.08" class="cnc-4" />
      <path d="M-0.27,0.44l0.09,-0.06" class="cnc-4" />
      <path d="M-0.37,0.47l0.1,-0.04" class="cnc-4" />
      <path d="M-0.48,0.49l0.11,-0.01" class="cnc-4" />
      <path d="M0.01,-0.11l-0.01,0.11" class="cnc-5" />
      <path d="M0.05,-0.21l-0.03,0.1" class="cnc-5" />
      <path d="M0.1,-0.3l-0.06,0.09" class="cnc-5" />
      <path d="M0.18,-0.38l-0.07,0.08" class="cnc-5" />
      <path d="M0.27,-0.44l-0.09,0.06" class="cnc-5" />
      <path d="M0.37,-0.47l-0.1,0.04" class="cnc-5" />
      <path d="M0.48,-0.49l-0.11,0.01" class="cnc-5" />
      <path d="M0.47,0l0,-0.49" class="cnc-5" />
      <path d="M0.5,0l0,-0.49" class="cnc-5" />
      <path d="M0.47,-0.49l0.02,0" class="cnc-5" />
      <path d="M0.5,0l-0.02,0" class="cnc-5" />
      <path d="M-0.5,0l0,-0.49" class="cnc-5" />
      <path d="M-0.48,0l0,-0.49" class="cnc-5" />
      <path d="M-0.48,-0.49l-0.03,0" class="cnc-5" />
      <path d="M-0.37,-0.47l-0.11,-0.01" class="cnc-5" />
      <path d="M-0.27,-0.44l-0.1,-0.04" class="cnc-5" />
      <path d="M-0.18,-0.38l-0.09,-0.06" class="cnc-5" />
      <path d="M-0.1,-0.3l-0.07,-0.08" class="cnc-5" />
      <path d="M-0.05,-0.21l-0.06,-0.09" class="cnc-5" />
      <path d="M-0.01,-0.11l-0.03,-0.1" class="cnc-5" />
      <path d="M0,0l-0.01,-0.11" class="cnc-5" />
      <path d="M0.5,0l0,0.49" class="cnc-4" />
    </symbol>
  </defs>
  <g id="viewer">
    <g id="mirror" transform="scale(1, 1)" stroke-width="0.09%">
      <g id="background" fill="none">
        <g id="layer-0-fills" class="cnc-0">
          <path d="M426735.36,681878.62l105100,0l0,-59400l-105100,0z" />
          <path d="M426735.36,681878.62l105100,0l0,-59400l-105100,0z" class="cnc-1" />
          <path d="M429235.36,680878.62l101600,0l0,-57400l-101600,0z" class="cnc-2" />
          <path d="M530835.36,623478.62l-5166,0l0,57400l5166,0z" class="cnc-3" />
        </g>
        <g id="layer-body-fills" class="body">
          <path d="M471765.36,650133.53l0,2410l400,0l0,850l-3260,0l0,-3260z" />
          <path d="M471885.36,650013.53l0,2410l400,0l0,1090l-3500,0l0,-3500z" />
          <path d="M479805.36,650133.53l0,2410l-400,0l0,850l3260,0l0,-3260z" />
          <path d="M479685.36,650013.53l0,2410l-400,0l0,1090l3500,0l0,-3500z" />
          <path d="M478415.36,633813.53l1500,0l0,1000l-1500,0z" />
          <path d="M473155.36,633813.53l-1500,0l0,1000l1500,0z" />
          <path d="M478535.36,633933.53l1260,0l0,760l-1260,0z" />
          <path d="M473035.36,633933.53l-1260,0l0,760l1260,0z" />
          <path d="M439095.36,640603.53l1000,0l0,800l-1000,0z" />
          <path d="M439195.36,640703.53l800,0l0,600l-800,0z" />
          <path d="M439095.36,645203.53l1000,0l0,-800l-1000,0z" />
          <path d="M439195.36,645103.53l800,0l0,-600l-800,0z" />
          <path d="M512475.36,640603.53l-1000,0l0,800l1000,0z" />
          <path d="M512375.36,640703.53l-800,0l0,600l800,0z" />
          <path d="M512475.36,645203.53l-1000,0l0,-800l1000,0z" />
          <path d="M512375.36,645103.53l-800,0l0,-600l800,0z" />
          <path d="M494695.36,655713.53l1900,0l0,300l-1900,0z" />
          <path d="M494695.36,658213.53l1900,0l0,-300l-1900,0z" />
          <path d="M456875.36,655713.53l-1900,0l0,300l1900,0z" />
          <path d="M456875.36,658213.53l-1900,0l0,-300l1900,0z" />
        </g>
        <g id="layer-RM-fills" class="rm">
          <path d="M440475.36,635193.53l0,5620l3775,0l0,-5620z" />
          <path d="M472475.36,635193.53l0,2000l4175,0l0,-2000z" />
          <path d="M476800.36,635193.53l0,2000l2295,0l0,-2000z" />
          <path d="M486475.36,635193.53l0,5620l3120,0l0,-5620z" />
          <path d="M448975.36,643693.53l0,2600l2999.92,0l0,-2600z" />
          <path d="M479475.36,643693.53l0,5940l3120,0l0,-5940z" />
          <path d="M496975.36,643693.53l0,2600l5620,0l0,-2600z" />
        </g>
        <g id="layer-body" class="body">
          <path d="M472285.36,653513.53l7000,0" />
          <path d="M472285.36,653813.53l7000,0" />
          <path d="M471985.36,654113.53l7600,0" />
          <path d="M471685.36,654413.53l8200,0" />
          <path d="M472285.36,653513.53l0,300" />
          <path d="M471985.36,653513.53l0,600" />
          <path d="M471685.36,653513.53l0,900" />
          <path d="M479285.36,653513.53l0,300" />
          <path d="M479585.36,653513.53l0,600" />
          <path d="M479885.36,653513.53l0,900" />
          <path d="M473155.36,633813.53l5260,0" />
          <path d="M477295.36,639141.53l-3020,0" />
          <path d="M477295.36,639441.53l-3020,0" />
          <path d="M477295.36,639741.53l-3020,0" />
          <path d="M477295.36,640041.53l-3020,0" />
          <path d="M439095.36,644403.53l-200,0" />
          <path d="M438895.36,644403.53l0,-3000" />
          <path d="M439095.36,641403.53l-200,0" />
          <path d="M442649.81,642713.53l0,-1520" />
          <path d="M442949.81,642713.53l0,-1520" />
          <path d="M443249.81,642713.53l0,-1520" />
          <path d="M508920.91,642713.53l0,-1520" />
          <path d="M508620.91,642713.53l0,-1520" />
          <path d="M508320.91,642713.53l0,-1520" />
          <path d="M512475.36,644403.53l200,0" />
          <path d="M512675.36,644403.53l0,-3000" />
          <path d="M512475.36,641403.53l200,0" />
          <path d="M471655.36,634213.53l-32160,0l0,6390" />
          <path d="M440095.36,634813.53l-600,-600" />
          <path d="M479915.36,634213.53l32160,0l0,6390" />
          <path d="M511475.36,634813.53l600,-600" />
          <path d="M512075.36,645203.53l0,21090l-16080,0l0,-8080" />
          <path d="M495695.36,656013.53l0,1900" />
          <path d="M495395.36,656013.53l0,1900" />
          <path d="M495095.36,656013.53l0,1900" />
          <path d="M494795.36,656013.53l0,1900" />
          <path d="M455875.36,656013.53l0,1900" />
          <path d="M456175.36,656013.53l0,1900" />
          <path d="M456475.36,656013.53l0,1900" />
          <path d="M456775.36,656013.53l0,1900" />
          <path d="M482785.36,650613.53l13210,0l0,5100" />
          <path d="M439495.36,645203.53l0,21090l16080,0l0,-8080" />
          <path d="M468785.36,650613.53l-13210,0l0,5100" />
          <path d="M440095.36,665693.53l-600,600" />
          <path d="M454975.36,665693.53l600,600" />
          <path d="M455575.36,650613.53l-600,-600" />
          <path d="M495995.36,666293.53l600,-600" />
          <path d="M512075.36,666293.53l-600,-600" />
          <path d="M495995.36,650613.53l600,-600" />
          <path d="M440475.36,665313.53l0,-3910" />
          <path d="M440475.36,661403.53l-380,0" />
          <path d="M440095.36,661403.53l0,4290" />
          <path d="M440095.36,658503.53l0,900" />
          <path d="M440095.36,659403.53l380,0" />
          <path d="M440475.36,659403.53l0,-710" />
          <use xlink:href="#$TCHSYS$WIN2D_2000x380" x="440285.36" y="660403.53" transform="scale(1,-1) translate(0,-1320807.06) rotate(-270,440285.36,660403.53)">.</use>
          <path d="M440475.36,635193.53l4575,0" />
          <path d="M445050.36,635193.53l0,-380" />
          <path d="M445050.36,634813.53l-4955,0" />
          <path d="M454785.36,634813.53l-735,0" />
          <path d="M454050.36,634813.53l0,380" />
          <path d="M454050.36,635193.53l545,0" />
          <path d="M447050.36,635193.53l1500,0" />
          <path d="M448550.36,635193.53l0,-380" />
          <path d="M448550.36,634813.53l-1500,0" />
          <path d="M447050.36,634813.53l0,380" />
          <path d="M450550.36,635193.53l1500,0" />
          <path d="M452050.36,635193.53l0,-380" />
          <path d="M452050.36,634813.53l-1500,0" />
          <path d="M450550.36,634813.53l0,380" />
          <use xlink:href="#$TCHSYS$WIN2D_2000x380" x="446050.36" y="635003.53" transform="scale(-1,-1) translate(-892100.72,-1270007.06)">.</use>
          <use xlink:href="#$TCHSYS$WIN2D_2000x380" x="449550.36" y="635003.53" transform="scale(-1,-1) translate(-899100.72,-1270007.06)">.</use>
          <use xlink:href="#$TCHSYS$WIN2D_2000x380" x="453050.36" y="635003.53" transform="scale(-1,-1) translate(-906100.72,-1270007.06)">.</use>
          <path d="M511095.36,635193.53l0,3045" />
          <path d="M511095.36,638238.53l380,0" />
          <path d="M511475.36,638238.53l0,-3425" />
          <path d="M511475.36,641003.53l0,-765" />
          <path d="M511475.36,640238.53l-380,0" />
          <path d="M511095.36,640238.53l0,575" />
          <use xlink:href="#$TCHSYS$WIN2D_2000x380" x="511285.36" y="639238.53" transform="scale(-1,1) translate(-1022570.72,0) rotate(-90,511285.36,639238.53)">.</use>
          <path d="M511095.36,665313.53l-3160,0" />
          <path d="M507935.36,665313.53l0,380" />
          <path d="M507935.36,665693.53l3540,0" />
          <path d="M502785.36,665693.53l250,0" />
          <path d="M503035.36,665693.53l0,-380" />
          <path d="M503035.36,665313.53l-60,0" />
          <path d="M505935.36,665313.53l-900,0" />
          <path d="M505035.36,665313.53l0,380" />
          <path d="M505035.36,665693.53l900,0" />
          <path d="M505935.36,665693.53l0,-380" />
          <use xlink:href="#$TCHSYS$WIN2D_2000x380" x="504035.36" y="665503.53" transform="scale(-1,-1) translate(-1008070.72,-1331007.06) rotate(-180,504035.36,665503.53)">.</use>
          <use xlink:href="#$TCHSYS$WIN2D_2000x380" x="506935.36" y="665503.53" transform="scale(-1,-1) translate(-1013870.72,-1331007.06) rotate(-180,506935.36,665503.53)">.</use>
          <path d="M496975.36,665313.53l0,-1600" />
          <path d="M496975.36,663713.53l-380,0" />
          <path d="M496595.36,663713.53l0,1980" />
          <path d="M496595.36,655003.53l0,1210" />
          <path d="M496595.36,656213.53l380,0" />
          <path d="M496975.36,656213.53l0,-1020" />
          <path d="M496975.36,662213.53l0,-1500" />
          <path d="M496975.36,660713.53l-380,0" />
          <path d="M496595.36,660713.53l0,1500" />
          <path d="M496595.36,662213.53l380,0" />
          <path d="M496975.36,659213.53l0,-1500" />
          <path d="M496975.36,657713.53l-380,0" />
          <path d="M496595.36,657713.53l0,1500" />
          <path d="M496595.36,659213.53l380,0" />
          <use xlink:href="#$TCHSYS$WIN2D_1500x380" x="496785.36" y="659963.53" transform="scale(1,-1) translate(0,-1319927.06) rotate(-270,496785.36,659963.53)">.</use>
          <use xlink:href="#$TCHSYS$WIN2D_1500x380" x="496785.36" y="662963.53" transform="scale(1,-1) translate(0,-1325927.06) rotate(-270,496785.36,662963.53)">.</use>
          <path d="M496595.36,649633.53l-575,0" />
          <path d="M496020.36,649633.53l0,380" />
          <path d="M496020.36,650013.53l575,0" />
          <path d="M486285.36,650013.53l735,0" />
          <path d="M487020.36,650013.53l0,-380" />
          <path d="M487020.36,649633.53l-545,0" />
          <path d="M494020.36,649633.53l-1500,0" />
          <path d="M492520.36,649633.53l0,380" />
          <path d="M492520.36,650013.53l1500,0" />
          <path d="M494020.36,650013.53l0,-380" />
          <path d="M490520.36,649633.53l-1500,0" />
          <path d="M489020.36,649633.53l0,380" />
          <path d="M489020.36,650013.53l1500,0" />
          <path d="M490520.36,650013.53l0,-380" />
          <use xlink:href="#$TCHSYS$WIN2D_2000x380" x="495020.36" y="649823.53" transform="scale(-1,1) translate(-990040.72,0) rotate(-180,495020.36,649823.53)">.</use>
          <use xlink:href="#$TCHSYS$WIN2D_2000x380" x="491520.36" y="649823.53" transform="scale(-1,1) translate(-983040.72,0) rotate(-180,491520.36,649823.53)">.</use>
          <use xlink:href="#$TCHSYS$WIN2D_2000x380" x="488020.36" y="649823.53" transform="scale(-1,1) translate(-976040.72,0) rotate(-180,488020.36,649823.53)">.</use>
          <path d="M454975.36,643693.53l0,2790" />
          <path d="M454595.36,643693.53l0,2600" />
          <path d="M454595.36,665313.53l-3160,0" />
          <path d="M451435.36,665313.53l0,380" />
          <path d="M451435.36,665693.53l3540,0" />
          <path d="M440095.36,665693.53l3540,0" />
          <path d="M443635.36,665693.53l0,-380" />
          <path d="M443635.36,665313.53l-3160,0" />
          <path d="M449435.36,665313.53l-900,0" />
          <path d="M448535.36,665313.53l0,380" />
          <path d="M448535.36,665693.53l900,0" />
          <path d="M449435.36,665693.53l0,-380" />
          <path d="M446535.36,665313.53l-900,0" />
          <path d="M445635.36,665313.53l0,380" />
          <path d="M445635.36,665693.53l900,0" />
          <path d="M446535.36,665693.53l0,-380" />
          <use xlink:href="#$TCHSYS$WIN2D_2000x380" x="450435.36" y="665503.53" transform="scale(1,-1) translate(0,-1331007.06) rotate(-180,450435.36,665503.53)">.</use>
          <use xlink:href="#$TCHSYS$WIN2D_2000x380" x="447535.36" y="665503.53" transform="scale(1,-1) translate(0,-1331007.06) rotate(-180,447535.36,665503.53)">.</use>
          <use xlink:href="#$TCHSYS$WIN2D_2000x380" x="444635.36" y="665503.53" transform="scale(1,-1) translate(0,-1331007.06) rotate(-180,444635.36,665503.53)">.</use>
          <path d="M440475.36,640813.53l0,-575" />
          <path d="M440475.36,640238.53l-380,0" />
          <path d="M440095.36,640238.53l0,765" />
          <path d="M440095.36,634813.53l0,3425" />
          <path d="M440095.36,638238.53l380,0" />
          <path d="M440475.36,638238.53l0,-3045" />
          <use xlink:href="#$TCHSYS$WIN2D_2000x380" x="440285.36" y="639238.53" transform="scale(1,-1) translate(0,-1278477.06) rotate(-270,440285.36,639238.53)">.</use>
          <path d="M511095.36,641193.53l0,810" />
          <path d="M511095.36,642003.53l380,0" />
          <path d="M511475.36,642003.53l0,-1000" />
          <path d="M511475.36,644503.53l0,-700" />
          <path d="M511475.36,643803.53l-380,0" />
          <path d="M511095.36,643803.53l0,510" />
          <use xlink:href="#$DorLib2D$00000002" x="284.047" y="357.169" transform="scale(1800,1800) rotate(-270,284.05,357.17)" stroke-width="0.0001%">.</use>
          <path d="M440475.36,641193.53l5120,0" />
          <path d="M445595.36,641193.53l0,-380" />
          <path d="M445595.36,640813.53l-5120,0" />
          <path d="M449685.36,640813.53l-2590,0" />
          <path d="M447095.36,640813.53l0,380" />
          <path d="M447095.36,641193.53l2400,0" />
          <use xlink:href="#$DorLib2D$00000002" x="297.564" y="427.336" transform="scale(1500,1500) scale(-1,1) translate(-595.13,0)" stroke-width="0.0001%">.</use>
          <path d="M454975.36,635193.53l575,0" />
          <path d="M455550.36,635193.53l0,-380" />
          <path d="M455550.36,634813.53l-765,0" />
          <path d="M465285.36,634813.53l-735,0" />
          <path d="M464550.36,634813.53l0,380" />
          <path d="M464550.36,635193.53l545,0" />
          <path d="M457550.36,635193.53l1500,0" />
          <path d="M459050.36,635193.53l0,-380" />
          <path d="M459050.36,634813.53l-1500,0" />
          <path d="M457550.36,634813.53l0,380" />
          <path d="M461050.36,635193.53l1500,0" />
          <path d="M462550.36,635193.53l0,-380" />
          <path d="M462550.36,634813.53l-1500,0" />
          <path d="M461050.36,634813.53l0,380" />
          <use xlink:href="#$TCHSYS$WIN2D_2000x380" x="456550.36" y="635003.53" transform="scale(-1,-1) translate(-913100.72,-1270007.06)">.</use>
          <use xlink:href="#$TCHSYS$WIN2D_2000x380" x="460050.36" y="635003.53" transform="scale(-1,-1) translate(-920100.72,-1270007.06)">.</use>
          <use xlink:href="#$TCHSYS$WIN2D_2000x380" x="463550.36" y="635003.53" transform="scale(-1,-1) translate(-927100.72,-1270007.06)">.</use>
          <path d="M454785.36,641193.53l750,0" />
          <path d="M455535.36,641193.53l0,-380" />
          <path d="M455535.36,640813.53l-560,0" />
          <path d="M465095.36,640813.53l-530,0" />
          <path d="M464565.36,640813.53l0,380" />
          <path d="M464565.36,641193.53l720,0" />
          <path d="M456535.36,641193.53l7030,0" />
          <path d="M463565.36,641193.53l0,-380" />
          <path d="M463565.36,640813.53l-7030,0" />
          <path d="M456535.36,640813.53l0,380" />
          <use xlink:href="#$DorLib2D$00000001" x="456.035" y="641.004" transform="scale(1000,1000) scale(-1,1) translate(-912.07,0)" stroke-width="0.0001%">.</use>
          <use xlink:href="#$DorLib2D$00000001" x="464.065" y="641.004" transform="scale(1000,1000)" stroke-width="0.0001%">.</use>
          <path d="M454595.36,640813.53l0,-5620" />
          <path d="M454975.36,640813.53l0,-5620" />
          <path d="M465475.36,635193.53l575,0" />
          <path d="M466050.36,635193.53l0,-380" />
          <path d="M466050.36,634813.53l-765,0" />
          <path d="M472285.36,634813.53l-735,0" />
          <path d="M471550.36,634813.53l0,380" />
          <path d="M471550.36,635193.53l545,0" />
          <path d="M468050.36,635193.53l1500,0" />
          <path d="M469550.36,635193.53l0,-380" />
          <path d="M469550.36,634813.53l-1500,0" />
          <path d="M468050.36,634813.53l0,380" />
          <use xlink:href="#$TCHSYS$WIN2D_2000x380" x="467050.36" y="635003.53" transform="scale(-1,-1) translate(-934100.72,-1270007.06)">.</use>
          <use xlink:href="#$TCHSYS$WIN2D_2000x380" x="470550.36" y="635003.53" transform="scale(-1,-1) translate(-941100.72,-1270007.06)">.</use>
          <path d="M465285.36,641193.53l4010,0" />
          <path d="M469295.36,641193.53l0,-380" />
          <path d="M469295.36,640813.53l-3820,0" />
          <path d="M471385.36,640813.53l-1090,0" />
          <path d="M470295.36,640813.53l0,380" />
          <path d="M470295.36,641193.53l900,0" />
          <use xlink:href="#$DorLib2D$00000001" x="469.795" y="641.004" transform="scale(1000,1000)" stroke-width="0.0001%">.</use>
          <path d="M465095.36,640813.53l0,-5620" />
          <path d="M465475.36,640813.53l0,-5620" />
          <path d="M472475.36,635193.53l680,0" />
          <path d="M473155.36,635193.53l0,-380" />
          <path d="M473155.36,634813.53l-870,0" />
          <path d="M476725.36,634813.53l-190,0" />
          <path d="M476535.36,634813.53l0,380" />
          <path d="M476535.36,635193.53l115,0" />
          <path d="M474655.36,635193.53l380,0" />
          <path d="M475035.36,635193.53l0,-380" />
          <path d="M475035.36,634813.53l-380,0" />
          <path d="M474655.36,634813.53l0,380" />
          <use xlink:href="#$DorLib2D$00000002" x="317.19" y="423.336" transform="scale(1500,1500)" stroke-width="0.0001%">.</use>
          <use xlink:href="#$DorLib2D$00000002" x="315.937" y="423.336" transform="scale(1500,1500)" stroke-width="0.0001%">.</use>
          <use xlink:href="#$DorLib2D$00000002" x="318.444" y="423.336" transform="scale(1500,1500) scale(-1,1) translate(-636.89,0)" stroke-width="0.0001%">.</use>
          <path d="M472095.36,640813.53l0,-5620" />
          <path d="M472475.36,641193.53l0,-6000" />
          <path d="M479475.36,635193.53l545,0" />
          <path d="M480020.36,635193.53l0,-380" />
          <path d="M480020.36,634813.53l-735,0" />
          <path d="M482785.36,634813.53l-765,0" />
          <path d="M482020.36,634813.53l0,380" />
          <path d="M482020.36,635193.53l575,0" />
          <use xlink:href="#$TCHSYS$WIN2D_2000x380" x="481020.36" y="635003.53" transform="scale(1,-1) translate(0,-1270007.06)">.</use>
          <path d="M479475.36,640813.53l710,0" />
          <path d="M479095.36,641193.53l900,0" />
          <path d="M479095.36,641193.53l0,-6000" />
          <path d="M479475.36,640813.53l0,-5620" />
          <path d="M486475.36,635193.53l545,0" />
          <path d="M487020.36,635193.53l0,-380" />
          <path d="M487020.36,634813.53l-735,0" />
          <path d="M489785.36,634813.53l-765,0" />
          <path d="M489020.36,634813.53l0,380" />
          <path d="M489020.36,635193.53l575,0" />
          <use xlink:href="#$TCHSYS$WIN2D_2000x380" x="488020.36" y="635003.53" transform="scale(1,-1) translate(0,-1270007.06)">.</use>
          <path d="M486285.36,641193.53l1750,0" />
          <path d="M488035.36,641193.53l0,-380" />
          <path d="M488035.36,640813.53l-1560,0" />
          <path d="M489595.36,640813.53l-560,0" />
          <path d="M489035.36,640813.53l0,380" />
          <path d="M489035.36,641193.53l750,0" />
          <use xlink:href="#$DorLib2D$00000001" x="488.535" y="641.004" transform="scale(1000,1000)" stroke-width="0.0001%">.</use>
          <path d="M486095.36,640813.53l0,-5620" />
          <path d="M486475.36,640813.53l0,-5620" />
          <path d="M496975.36,635193.53l545,0" />
          <path d="M497520.36,635193.53l0,-380" />
          <path d="M497520.36,634813.53l-735,0" />
          <path d="M500270.36,634813.53l-750,0" />
          <path d="M499520.36,634813.53l0,380" />
          <path d="M499520.36,635193.53l650,0" />
          <use xlink:href="#$TCHSYS$WIN2D_2000x380" x="498520.36" y="635003.53" transform="scale(1,-1) translate(0,-1270007.06)">.</use>
          <use xlink:href="#$TCHSYS$WIN2D_2000x380" x="505520.36" y="635003.53" transform="scale(1,-1) translate(0,-1270007.06)">.</use>
          <use xlink:href="#$TCHSYS$WIN2D_2000x380" x="502020.36" y="635003.53" transform="scale(1,-1) translate(0,-1270007.06)">.</use>
          <path d="M496785.36,641193.53l750,0" />
          <path d="M497535.36,641193.53l0,-380" />
          <path d="M497535.36,640813.53l-560,0" />
          <path d="M500170.36,640813.53l-1635,0" />
          <path d="M498535.36,640813.53l0,380" />
          <path d="M498535.36,641193.53l1735,0" />
          <use xlink:href="#$DorLib2D$00000001" x="498.035" y="641.004" transform="scale(1000,1000) scale(-1,1) translate(-996.07,0)" stroke-width="0.0001%">.</use>
          <path d="M496595.36,640813.53l0,-5620" />
          <path d="M496975.36,640813.53l0,-5620" />
          <path d="M482975.36,635193.53l545,0" />
          <path d="M483520.36,635193.53l0,-380" />
          <path d="M483520.36,634813.53l-735,0" />
          <path d="M486285.36,634813.53l-765,0" />
          <path d="M485520.36,634813.53l0,380" />
          <path d="M485520.36,635193.53l575,0" />
          <use xlink:href="#$TCHSYS$WIN2D_2000x380" x="484520.36" y="635003.53" transform="scale(1,-1) translate(0,-1270007.06)">.</use>
          <path d="M482785.36,641193.53l690,0" />
          <path d="M483475.36,641193.53l0,-380" />
          <path d="M483475.36,640813.53l-500,0" />
          <path d="M486095.36,640813.53l-1620,0" />
          <path d="M484475.36,640813.53l0,380" />
          <path d="M484475.36,641193.53l1810,0" />
          <use xlink:href="#$DorLib2D$00000001" x="483.975" y="641.004" transform="scale(1000,1000) scale(-1,1) translate(-967.95,0)" stroke-width="0.0001%">.</use>
          <path d="M482595.36,640813.53l0,-5620" />
          <path d="M482975.36,640813.53l0,-5620" />
          <path d="M502595.36,643693.53l-710,0" />
          <path d="M502975.36,643313.53l-900,0" />
          <path d="M496975.36,654813.53l5620,0" />
          <path d="M496975.36,655193.53l5620,0" />
          <path d="M496595.36,649633.53l0,-3150" />
          <path d="M496975.36,649823.53l0,-3150" />
          <path d="M496785.36,643313.53l-720,0" />
          <path d="M496065.36,643313.53l0,380" />
          <path d="M496065.36,643693.53l530,0" />
          <path d="M486475.36,643693.53l500,0" />
          <path d="M486975.36,643693.53l0,-380" />
          <path d="M486975.36,643313.53l-690,0" />
          <path d="M495065.36,643313.53l-7090,0" />
          <path d="M487975.36,643313.53l0,380" />
          <path d="M487975.36,643693.53l7090,0" />
          <path d="M495065.36,643693.53l0,-380" />
          <use xlink:href="#$DorLib2D$00000001" x="495.565" y="643.504" transform="scale(1000,1000) scale(-1,1) translate(-991.13,0) rotate(-180,495.57,643.5)" stroke-width="0.0001%">.</use>
          <use xlink:href="#$DorLib2D$00000001" x="487.475" y="643.504" transform="scale(1000,1000) rotate(-180,487.48,643.5)" stroke-width="0.0001%">.</use>
          <path d="M505475.36,658313.53l0,-760" />
          <path d="M505475.36,657553.53l-380,0" />
          <path d="M505095.36,657553.53l0,760" />
          <path d="M505095.36,655003.53l0,1550" />
          <path d="M505095.36,656553.53l380,0" />
          <path d="M505475.36,656553.53l0,-1360" />
          <use xlink:href="#$DorLib2D$00000001" x="505.285" y="657.054" transform="scale(1000,1000) scale(-1,-1) translate(-1010.57,-1314.11) rotate(-90,505.29,657.05)" stroke-width="0.0001%">.</use>
          <path d="M502975.36,658693.53l310,0" />
          <path d="M503285.36,658693.53l0,-380" />
          <path d="M503285.36,658313.53l-310,0" />
          <path d="M505095.36,658313.53l-310,0" />
          <path d="M504785.36,658313.53l0,380" />
          <path d="M504785.36,658693.53l500,0" />
          <use xlink:href="#$DorLib2D$00000002" x="336.024" y="439.002" transform="scale(1500,1500) scale(-1,1) translate(-672.05,0)" stroke-width="0.0001%">.</use>
          <path d="M511095.36,644693.53l0,710" />
          <path d="M511095.36,645403.53l380,0" />
          <path d="M511475.36,645403.53l0,-900" />
          <path d="M511475.36,648003.53l0,-600" />
          <path d="M511475.36,647403.53l-380,0" />
          <path d="M511095.36,647403.53l0,410" />
          <use xlink:href="#$TCHSYS$WIN2D_2000x380" x="511285.36" y="646403.53" transform="scale(-1,-1) translate(-1022570.72,-1292807.06) rotate(-270,511285.36,646403.53)">.</use>
          <path d="M505095.36,644313.53l6000,0" />
          <path d="M505475.36,644693.53l5620,0" />
          <path d="M502075.36,643313.53l0,-310" />
          <path d="M502075.36,643003.53l-380,0" />
          <path d="M501695.36,643003.53l0,310" />
          <path d="M501695.36,641193.53l0,310" />
          <path d="M501695.36,641503.53l380,0" />
          <path d="M502075.36,641503.53l0,-310" />
          <path d="M501695.36,641503.53l0,1500" />
          <path d="M502075.36,643003.53l0,-1500" />
          <path d="M502075.36,641193.53l2400,0" />
          <path d="M504475.36,641193.53l0,-380" />
          <path d="M504475.36,640813.53l-2590,0" />
          <path d="M511095.36,640813.53l-5120,0" />
          <path d="M505975.36,640813.53l0,380" />
          <path d="M505975.36,641193.53l5120,0" />
          <use xlink:href="#$DorLib2D$00000002" x="336.817" y="427.336" transform="scale(1500,1500)" stroke-width="0.0001%">.</use>
          <path d="M501885.36,643693.53l-4910,0" />
          <path d="M501695.36,643313.53l-4910,0" />
          <path d="M501395.36,643566.86l-1200,0" />
          <path d="M501395.36,643440.2l-1200,0" />
          <path d="M500195.36,643693.53l0,-380" />
          <path d="M501395.36,643693.53l0,-380" />
          <path d="M502975.36,645593.53l310,0" />
          <path d="M503285.36,645593.53l0,-380" />
          <path d="M503285.36,645213.53l-310,0" />
          <path d="M505095.36,645213.53l-310,0" />
          <path d="M504785.36,645213.53l0,380" />
          <path d="M504785.36,645593.53l310,0" />
          <path d="M504785.36,645213.53l-1500,0" />
          <path d="M503285.36,645593.53l1500,0" />
          <path d="M502595.36,645403.53l0,-1710" />
          <path d="M502975.36,645213.53l0,-1900" />
          <path d="M505095.36,645213.53l0,-900" />
          <path d="M505475.36,645403.53l0,-710" />
          <path d="M454595.36,649823.53l0,390" />
          <path d="M454595.36,650213.53l380,0" />
          <path d="M454975.36,650213.53l0,-200" />
          <path d="M454975.36,655003.53l0,-290" />
          <path d="M454975.36,654713.53l-380,0" />
          <path d="M454595.36,654713.53l0,100" />
          <path d="M454595.36,651713.53l0,1500" />
          <path d="M454595.36,653213.53l380,0" />
          <path d="M454975.36,653213.53l0,-1500" />
          <path d="M454975.36,651713.53l-380,0" />
          <use xlink:href="#$TCHSYS$WIN2D_1500x380" x="454785.36" y="650963.53" transform="scale(-1,-1) translate(-909570.72,-1301927.06) rotate(-270,454785.36,650963.53)">.</use>
          <use xlink:href="#$TCHSYS$WIN2D_1500x380" x="454785.36" y="653963.53" transform="scale(-1,-1) translate(-909570.72,-1307927.06) rotate(-270,454785.36,653963.53)">.</use>
          <use xlink:href="#$DorLib2D$00000001" x="491.035" y="641.004" transform="scale(1000,1000) scale(-1,1) translate(-982.07,0)" stroke-width="0.0001%">.</use>
          <use xlink:href="#$TCHSYS$WIN2D_2000x380" x="495020.36" y="635003.53" transform="scale(1,-1) translate(0,-1270007.06)">.</use>
          <use xlink:href="#$TCHSYS$WIN2D_2000x380" x="491520.36" y="635003.53" transform="scale(1,-1) translate(0,-1270007.06)">.</use>
          <use xlink:href="#$DorLib2D$00000001" x="481.565" y="641.004" transform="scale(1000,1000)" stroke-width="0.0001%">.</use>
          <path d="M505475.36,647813.53l0,-300" />
          <path d="M505475.36,647513.53l-380,0" />
          <path d="M505095.36,647513.53l0,490" />
          <path d="M505095.36,645593.53l0,920" />
          <path d="M505095.36,646513.53l380,0" />
          <path d="M505475.36,646513.53l0,-1110" />
          <use xlink:href="#$DorLib2D$00000001" x="505.285" y="647.014" transform="scale(1000,1000) scale(-1,-1) translate(-1010.57,-1294.03) rotate(-90,505.29,647.01)" stroke-width="0.0001%">.</use>
          <path d="M511095.36,648193.53l0,710" />
          <path d="M511095.36,648903.53l380,0" />
          <path d="M511475.36,648903.53l0,-900" />
          <path d="M511475.36,655003.53l0,-600" />
          <path d="M511475.36,654403.53l-380,0" />
          <path d="M511095.36,654403.53l0,410" />
          <path d="M511095.36,650903.53l0,1500" />
          <path d="M511095.36,652403.53l380,0" />
          <path d="M511475.36,652403.53l0,-1500" />
          <path d="M511475.36,650903.53l-380,0" />
          <use xlink:href="#$TCHSYS$WIN2D_2000x380" x="511285.36" y="649903.53" transform="scale(-1,-1) translate(-1022570.72,-1299807.06) rotate(-270,511285.36,649903.53)">.</use>
          <use xlink:href="#$TCHSYS$WIN2D_2000x380" x="511285.36" y="653403.53" transform="scale(-1,-1) translate(-1022570.72,-1306807.06) rotate(-270,511285.36,653403.53)">.</use>
          <path d="M505475.36,647813.53l5620,0" />
          <path d="M505475.36,648193.53l5620,0" />
          <path d="M496975.36,646673.53l4320,0" />
          <path d="M501295.36,646673.53l0,-380" />
          <path d="M501295.36,646293.53l-4320,0" />
          <path d="M502595.36,646293.53l-300,0" />
          <path d="M502295.36,646293.53l0,380" />
          <path d="M502295.36,646673.53l300,0" />
          <use xlink:href="#$DorLib2D$00000001" x="501.795" y="646.484" transform="scale(1000,1000)" stroke-width="0.0001%">.</use>
          <path d="M496595.36,646483.53l0,-2790" />
          <path d="M496975.36,646293.53l0,-2600" />
          <path d="M502595.36,646293.53l0,-890" />
          <path d="M502975.36,646483.53l0,-890" />
          <path d="M496975.36,654813.53l0,-100" />
          <path d="M496975.36,654713.53l-380,0" />
          <path d="M496595.36,654713.53l0,290" />
          <path d="M496595.36,650013.53l0,200" />
          <path d="M496595.36,650213.53l380,0" />
          <path d="M496975.36,650213.53l0,-390" />
          <path d="M496975.36,653213.53l0,-1500" />
          <path d="M496975.36,651713.53l-380,0" />
          <path d="M496595.36,651713.53l0,1500" />
          <path d="M496595.36,653213.53l380,0" />
          <use xlink:href="#$TCHSYS$WIN2D_1500x380" x="496785.36" y="650963.53" transform="scale(1,-1) translate(0,-1301927.06) rotate(-270,496785.36,650963.53)">.</use>
          <use xlink:href="#$TCHSYS$WIN2D_1500x380" x="496785.36" y="653963.53" transform="scale(1,-1) translate(0,-1307927.06) rotate(-270,496785.36,653963.53)">.</use>
          <path d="M502595.36,665313.53l0,-6810" />
          <path d="M502975.36,665313.53l0,-6620" />
          <use xlink:href="#$DorLib2D$00000001" x="502.785" y="647.474" transform="scale(1000,1000) rotate(-90,502.79,647.47)" stroke-width="0.0001%">.</use>
          <path d="M448595.36,643313.53l900,0" />
          <path d="M448975.36,643693.53l710,0" />
          <path d="M454595.36,655193.53l-5620,0" />
          <path d="M454595.36,654813.53l-5620,0" />
          <path d="M448975.36,658313.53l0,-760" />
          <path d="M448975.36,657553.53l-380,0" />
          <path d="M448595.36,657553.53l0,760" />
          <path d="M448595.36,655003.53l0,1550" />
          <path d="M448595.36,656553.53l380,0" />
          <path d="M448975.36,656553.53l0,-1360" />
          <use xlink:href="#$DorLib2D$00000001" x="448.785" y="657.054" transform="scale(1000,1000) scale(-1,-1) translate(-897.57,-1314.11) rotate(-90,448.79,657.05)" stroke-width="0.0001%">.</use>
          <path d="M446475.36,658313.53l0,-760" />
          <path d="M446475.36,657553.53l-380,0" />
          <path d="M446095.36,657553.53l0,760" />
          <path d="M446095.36,655193.53l0,1360" />
          <path d="M446095.36,656553.53l380,0" />
          <path d="M446475.36,656553.53l0,-1550" />
          <use xlink:href="#$DorLib2D$00000001" x="446.285" y="657.054" transform="scale(1000,1000) scale(-1,1) translate(-892.57,0) rotate(-270,446.29,657.05)" stroke-width="0.0001%">.</use>
          <path d="M446095.36,655193.53l-5620,0" />
          <path d="M446095.36,654813.53l-5620,0" />
          <path d="M446095.36,644693.53l-5620,0" />
          <path d="M446475.36,644313.53l-6000,0" />
          <path d="M449875.36,643313.53l0,-310" />
          <path d="M449875.36,643003.53l-380,0" />
          <path d="M449495.36,643003.53l0,310" />
          <path d="M449495.36,641193.53l0,310" />
          <path d="M449495.36,641503.53l380,0" />
          <path d="M449875.36,641503.53l0,-310" />
          <path d="M449495.36,641503.53l0,1500" />
          <path d="M449875.36,643003.53l0,-1500" />
          <path d="M449685.36,643693.53l690,0" />
          <path d="M450375.36,643693.53l0,-380" />
          <path d="M450375.36,643313.53l-500,0" />
          <path d="M452050.28,643313.53l-674.92,0" />
          <path d="M451375.36,643313.53l0,380" />
          <path d="M451375.36,643693.53l599.92,0" />
          <use xlink:href="#$DorLib2D$00000001" x="450.875" y="643.504" transform="scale(1000,1000)" stroke-width="0.0001%">.</use>
          <use xlink:href="#$DorLib2D$00000001" x="453.535" y="643.504" transform="scale(1000,1000) scale(1,-1) translate(0,-1287.01)" stroke-width="0.0001%">.</use>
          <path d="M448595.36,645213.53l-310,0" />
          <path d="M448285.36,645213.53l0,380" />
          <path d="M448285.36,645593.53l310,0" />
          <path d="M446475.36,645593.53l310,0" />
          <path d="M446785.36,645593.53l0,-380" />
          <path d="M446785.36,645213.53l-310,0" />
          <path d="M446785.36,645593.53l1500,0" />
          <path d="M448285.36,645213.53l-1500,0" />
          <path d="M448595.36,645213.53l0,-1900" />
          <path d="M448975.36,645403.53l0,-1710" />
          <path d="M446095.36,645403.53l0,-710" />
          <path d="M446475.36,645213.53l0,-900" />
          <path d="M446475.36,648003.53l0,-490" />
          <path d="M446475.36,647513.53l-380,0" />
          <path d="M446095.36,647513.53l0,300" />
          <path d="M446095.36,645403.53l0,1110" />
          <path d="M446095.36,646513.53l380,0" />
          <path d="M446475.36,646513.53l0,-920" />
          <use xlink:href="#$DorLib2D$00000001" x="446.285" y="647.014" transform="scale(1000,1000) scale(-1,1) translate(-892.57,0) rotate(-270,446.29,647.01)" stroke-width="0.0001%">.</use>
          <path d="M446095.36,648193.53l-5620,0" />
          <path d="M446095.36,647813.53l-5620,0" />
          <path d="M454595.36,646673.53l-2545.08,0" />
          <path d="M454595.36,646293.53l-2470.08,0" />
          <path d="M448595.36,646483.53l0,-890" />
          <path d="M448975.36,646293.53l0,-890" />
          <path d="M448975.36,654813.53l0,-6310" />
          <path d="M448975.36,648503.53l-380,0" />
          <path d="M448595.36,648503.53l0,6500" />
          <path d="M448595.36,646483.53l0,1020" />
          <path d="M448595.36,647503.53l380,0" />
          <path d="M448975.36,647503.53l0,-830" />
          <use xlink:href="#$DorLib2D$00000001" x="448.785" y="648.004" transform="scale(1000,1000) scale(1,-1) translate(0,-1296.01) rotate(-270,448.79,648)" stroke-width="0.0001%">.</use>
          <use xlink:href="#$TCHSYS$WIN2D_1500x380" x="454785.36" y="659963.53" transform="scale(-1,-1) translate(-909570.72,-1319927.06) rotate(-270,454785.36,659963.53)">.</use>
          <use xlink:href="#$TCHSYS$WIN2D_1500x380" x="454785.36" y="662963.53" transform="scale(-1,-1) translate(-909570.72,-1325927.06) rotate(-270,454785.36,662963.53)">.</use>
          <path d="M454595.36,655193.53l0,1020" />
          <path d="M454595.36,656213.53l380,0" />
          <path d="M454975.36,656213.53l0,-1210" />
          <path d="M454975.36,658503.53l0,-790" />
          <path d="M454975.36,657713.53l-380,0" />
          <path d="M454595.36,657713.53l0,600" />
          <path d="M440475.36,654813.53l0,-410" />
          <path d="M440475.36,654403.53l-380,0" />
          <path d="M440095.36,654403.53l0,600" />
          <path d="M440095.36,648003.53l0,900" />
          <path d="M440095.36,648903.53l380,0" />
          <path d="M440475.36,648903.53l0,-710" />
          <path d="M440475.36,652403.53l0,-1500" />
          <path d="M440475.36,650903.53l-380,0" />
          <path d="M440095.36,650903.53l0,1500" />
          <path d="M440095.36,652403.53l380,0" />
          <use xlink:href="#$TCHSYS$WIN2D_2000x380" x="440285.36" y="649903.53" transform="scale(1,-1) translate(0,-1299807.06) rotate(-270,440285.36,649903.53)">.</use>
          <use xlink:href="#$TCHSYS$WIN2D_2000x380" x="440285.36" y="653403.53" transform="scale(1,-1) translate(0,-1306807.06) rotate(-270,440285.36,653403.53)">.</use>
          <path d="M440475.36,644313.53l0,-510" />
          <path d="M440475.36,643803.53l-380,0" />
          <path d="M440095.36,643803.53l0,700" />
          <path d="M440095.36,641003.53l0,1000" />
          <path d="M440095.36,642003.53l380,0" />
          <path d="M440475.36,642003.53l0,-810" />
          <use xlink:href="#$DorLib2D$00000002" x="244.603" y="357.169" transform="scale(1800,1800) scale(-1,1) translate(-489.21,0) rotate(-270,244.6,357.17)" stroke-width="0.0001%">.</use>
          <path d="M440475.36,647813.53l0,-410" />
          <path d="M440475.36,647403.53l-380,0" />
          <path d="M440095.36,647403.53l0,600" />
          <path d="M440095.36,644503.53l0,900" />
          <path d="M440095.36,645403.53l380,0" />
          <path d="M440475.36,645403.53l0,-710" />
          <use xlink:href="#$TCHSYS$WIN2D_2000x380" x="440285.36" y="646403.53" transform="scale(1,-1) translate(0,-1292807.06) rotate(-270,440285.36,646403.53)">.</use>
          <path d="M454975.36,646483.53l0,3150" />
          <path d="M454595.36,646673.53l0,3150" />
          <use xlink:href="#$TCHSYS$WIN2D_2000x380" x="440285.36" y="656903.53" transform="scale(1,-1) translate(0,-1313807.06) rotate(-270,440285.36,656903.53)">.</use>
          <path d="M468595.36,649633.53l0,-5940" />
          <path d="M468975.36,649633.53l0,-5940" />
          <path d="M468785.36,643313.53l-1000,0" />
          <path d="M467785.36,643313.53l0,380" />
          <path d="M467785.36,643693.53l810,0" />
          <path d="M465475.36,643693.53l1310,0" />
          <path d="M466785.36,643693.53l0,-380" />
          <path d="M466785.36,643313.53l-1500,0" />
          <use xlink:href="#$DorLib2D$00000001" x="467.285" y="643.504" transform="scale(1000,1000) rotate(-180,467.29,643.5)" stroke-width="0.0001%">.</use>
          <path d="M472095.36,649633.53l0,-1210" />
          <path d="M472475.36,650013.53l0,-1400" />
          <path d="M472095.36,643693.53l-710,0" />
          <path d="M472475.36,643313.53l-900,0" />
          <path d="M472095.36,649633.53l-545,0" />
          <path d="M471550.36,649633.53l0,380" />
          <path d="M471550.36,650013.53l925,0" />
          <path d="M468785.36,650013.53l765,0" />
          <path d="M469550.36,650013.53l0,-380" />
          <path d="M469550.36,649633.53l-575,0" />
          <use xlink:href="#$TCHSYS$WIN2D_2000x380" x="470550.36" y="649823.53" transform="rotate(-180,470550.36,649823.53)">.</use>
          <path d="M468595.36,649633.53l-545,0" />
          <path d="M468050.36,649633.53l0,380" />
          <path d="M468050.36,650013.53l735,0" />
          <path d="M465285.36,650013.53l765,0" />
          <path d="M466050.36,650013.53l0,-380" />
          <path d="M466050.36,649633.53l-575,0" />
          <use xlink:href="#$TCHSYS$WIN2D_2000x380" x="467050.36" y="649823.53" transform="rotate(-180,467050.36,649823.53)">.</use>
          <path d="M479095.36,650013.53l0,-1400" />
          <path d="M479475.36,649633.53l0,-1210" />
          <path d="M482595.36,649633.53l0,-5940" />
          <path d="M482975.36,649633.53l0,-5940" />
          <path d="M479095.36,648233.53l-1060,0" />
          <path d="M478035.36,648233.53l0,380" />
          <path d="M478035.36,648613.53l1060,0" />
          <path d="M472475.36,648613.53l1060,0" />
          <path d="M473535.36,648613.53l0,-380" />
          <path d="M473535.36,648233.53l-1060,0" />
          <use xlink:href="#$DorLib2D$00000141" x="317.19" y="432.282" transform="scale(1500,1500) scale(-1,-1) translate(-634.38,-864.56) rotate(-180,317.19,432.28)" stroke-width="0.0001%">.</use>
          <use xlink:href="#$DorLib2D$00000141" x="316.19" y="432.282" transform="scale(1500,1500) scale(-1,-1) translate(-632.38,-864.56) rotate(-180,316.19,432.28)" stroke-width="0.0001%">.</use>
          <use xlink:href="#$DorLib2D$00000141" x="318.19" y="432.282" transform="scale(1500,1500) scale(1,-1) translate(0,-864.56) rotate(-180,318.19,432.28)" stroke-width="0.0001%">.</use>
          <path d="M482595.36,649633.53l-575,0" />
          <path d="M482020.36,649633.53l0,380" />
          <path d="M482020.36,650013.53l765,0" />
          <path d="M479095.36,650013.53l925,0" />
          <path d="M480020.36,650013.53l0,-380" />
          <path d="M480020.36,649633.53l-545,0" />
          <use xlink:href="#$TCHSYS$WIN2D_2000x380" x="481020.36" y="649823.53" transform="scale(-1,1) translate(-962040.72,0) rotate(-180,481020.36,649823.53)">.</use>
          <path d="M482785.36,643313.53l-720,0" />
          <path d="M482065.36,643313.53l0,380" />
          <path d="M482065.36,643693.53l530,0" />
          <path d="M480185.36,643693.53l880,0" />
          <path d="M481065.36,643693.53l0,-380" />
          <path d="M481065.36,643313.53l-690,0" />
          <use xlink:href="#$DorLib2D$00000001" x="481.565" y="643.504" transform="scale(1000,1000) scale(-1,1) translate(-963.13,0) rotate(-180,481.57,643.5)" stroke-width="0.0001%">.</use>
          <use xlink:href="#$TCHSYS$WIN2D_2000x380" x="484520.36" y="649823.53" transform="scale(-1,1) translate(-969040.72,0) rotate(-180,484520.36,649823.53)">.</use>
          <path d="M480375.36,643313.53l0,-310" />
          <path d="M480375.36,643003.53l-380,0" />
          <path d="M479995.36,643003.53l0,310" />
          <path d="M479995.36,641193.53l0,310" />
          <path d="M479995.36,641503.53l380,0" />
          <path d="M480375.36,641503.53l0,-310" />
          <path d="M479995.36,641503.53l0,1500" />
          <path d="M480375.36,643003.53l0,-1500" />
          <path d="M480185.36,643693.53l-710,0" />
          <path d="M479995.36,643313.53l-900,0" />
          <path d="M480375.36,641193.53l690,0" />
          <path d="M481065.36,641193.53l0,-380" />
          <path d="M481065.36,640813.53l-880,0" />
          <path d="M482595.36,640813.53l-530,0" />
          <path d="M482065.36,640813.53l0,380" />
          <path d="M482065.36,641193.53l720,0" />
          <path d="M471575.36,643313.53l0,-310" />
          <path d="M471575.36,643003.53l-380,0" />
          <path d="M471195.36,643003.53l0,310" />
          <path d="M471195.36,641193.53l0,310" />
          <path d="M471195.36,641503.53l380,0" />
          <path d="M471575.36,641503.53l0,-310" />
          <path d="M471195.36,641503.53l0,1500" />
          <path d="M471575.36,643003.53l0,-1500" />
          <path d="M471195.36,643313.53l-690,0" />
          <path d="M470505.36,643313.53l0,380" />
          <path d="M470505.36,643693.53l880,0" />
          <path d="M468975.36,643693.53l530,0" />
          <path d="M469505.36,643693.53l0,-380" />
          <path d="M469505.36,643313.53l-720,0" />
          <use xlink:href="#$DorLib2D$00000001" x="470.005" y="643.504" transform="scale(1000,1000) rotate(-180,470.01,643.5)" stroke-width="0.0001%">.</use>
          <path d="M471385.36,640813.53l710,0" />
          <path d="M471575.36,641193.53l900,0" />
          <path d="M479095.36,648233.53l0,-4920" />
          <path d="M479475.36,648423.53l0,-4730" />
          <path d="M472095.36,648423.53l0,-4730" />
          <path d="M472475.36,648233.53l0,-4920" />
          <use xlink:href="#$TCHSYS$WIN2D_2000x380" x="456550.36" y="649823.53" transform="rotate(-180,456550.36,649823.53)">.</use>
          <use xlink:href="#$TCHSYS$WIN2D_2000x380" x="460050.36" y="649823.53" transform="rotate(-180,460050.36,649823.53)">.</use>
          <use xlink:href="#$TCHSYS$WIN2D_2000x380" x="463550.36" y="649823.53" transform="rotate(-180,463550.36,649823.53)">.</use>
          <path d="M471885.36,650013.53l0,160" />
          <path d="M471885.36,650173.53l200,0" />
          <path d="M472085.36,650173.53l0,-160" />
          <path d="M472085.36,650013.53l-200,0" />
          <path d="M472085.36,652223.53l0,-750" />
          <path d="M472085.36,651473.53l-200,0" />
          <path d="M471885.36,651473.53l0,950" />
          <path d="M472085.36,651473.53l0,-1300" />
          <path d="M471885.36,650173.53l0,1300" />
          <path d="M471885.36,652423.53l1700,0" />
          <path d="M473585.36,652423.53l0,-200" />
          <path d="M473585.36,652223.53l-1500,0" />
          <path d="M479285.36,652223.53l-1300,0" />
          <path d="M477985.36,652223.53l0,200" />
          <path d="M477985.36,652423.53l1500,0" />
          <path d="M477985.36,652223.53l-4400,0" />
          <path d="M473585.36,652423.53l4400,0" />
          <path d="M479485.36,652423.53l0,-950" />
          <path d="M479485.36,651473.53l-200,0" />
          <path d="M479285.36,651473.53l0,750" />
          <path d="M479285.36,650013.53l0,160" />
          <path d="M479285.36,650173.53l200,0" />
          <path d="M479485.36,650173.53l0,-160" />
          <path d="M479485.36,650013.53l-200,0" />
          <path d="M479285.36,650173.53l0,1300" />
          <path d="M479485.36,651473.53l0,-1300" />
          <path d="M472475.36,640893.53l1800,0" />
          <path d="M472475.36,640593.53l1800,0" />
          <path d="M472475.36,640293.53l1800,0" />
          <path d="M472475.36,639993.53l1800,0" />
          <path d="M472475.36,639693.53l1800,0" />
          <path d="M472475.36,639393.53l1800,0" />
          <path d="M472475.36,639093.53l1800,0" />
          <path d="M472664.83,638793.53l1610.53,0" />
          <path d="M473138.52,638493.53l1136.84,0" />
          <path d="M473612.2,638193.53l663.16,0" />
          <path d="M474085.89,637893.53l189.47,0" />
          <path d="M472475.36,641193.53l0,-2280" />
          <path d="M474275.36,641193.53l0,-3420" />
          <path d="M472475.36,641193.53l1800,0" />
          <path d="M474275.36,637773.53l-840.96,532.61" />
          <path d="M473434.4,638306.14l40.25,128.86" />
          <path d="M473474.65,638435l-212.95,-164.31" />
          <path d="M473261.7,638270.69l37.77,120.91" />
          <path d="M473299.46,638391.6l-824.1,521.93" />
          <path d="M474215.36,641058.53l0,-5130" />
          <path d="M474275.36,641058.53l0,-5130" />
          <path d="M474215.36,641058.53l60,0" />
          <path d="M474215.36,635928.53l60,0" />
          <path d="M477295.36,640893.53l1800,0" />
          <path d="M477295.36,640593.53l1800,0" />
          <path d="M477295.36,640293.53l1800,0" />
          <path d="M477295.36,639993.53l1800,0" />
          <path d="M477295.36,639693.53l1800,0" />
          <path d="M477295.36,639393.53l1800,0" />
          <path d="M477295.36,639093.53l1800,0" />
          <path d="M477484.83,638793.53l1610.53,0" />
          <path d="M477958.52,638493.53l1136.84,0" />
          <path d="M478432.2,638193.53l663.16,0" />
          <path d="M478905.89,637893.53l189.47,0" />
          <path d="M477295.36,641193.53l0,-2280" />
          <path d="M479095.36,641193.53l0,-3420" />
          <path d="M477295.36,641193.53l1800,0" />
          <path d="M479095.36,637773.53l-840.96,532.61" />
          <path d="M478254.4,638306.14l40.25,128.86" />
          <path d="M478294.65,638435l-212.95,-164.31" />
          <path d="M478081.7,638270.69l37.77,120.91" />
          <path d="M478119.46,638391.6l-824.1,521.93" />
          <path d="M477295.36,641058.53l0,-5130" />
          <path d="M477355.36,641058.53l0,-5130" />
          <path d="M477295.36,641058.53l60,0" />
          <path d="M477295.36,635928.53l60,0" />
          <path d="M472475.36,637393.53l405,0" />
          <path d="M472880.36,637393.53l0,-200" />
          <path d="M472880.36,637193.53l-405,0" />
          <path d="M472475.36,637193.53l0,200" />
          <path d="M474375.36,637193.53l-595,0" />
          <path d="M473780.36,637193.53l0,200" />
          <path d="M473780.36,637393.53l495,0" />
          <path d="M473780.36,637193.53l-900,0" />
          <path d="M472880.36,637393.53l900,0" />
          <path d="M474475.36,637393.53l0,1748" />
          <path d="M474275.36,637393.53l0,1748" />
          <path d="M474475.36,639141.53l-200,0" />
          <use xlink:href="#$TCHSYS$WIN2D_2000x380" x="511285.36" y="656903.53" transform="scale(-1,-1) translate(-1022570.72,-1313807.06) rotate(-270,511285.36,656903.53)">.</use>
          <path d="M479095.36,637193.53l-405,0" />
          <path d="M478690.36,637193.53l0,200" />
          <path d="M478690.36,637393.53l405,0" />
          <path d="M479095.36,637393.53l0,-200" />
          <path d="M477295.36,637393.53l495,0" />
          <path d="M477790.36,637393.53l0,-200" />
          <path d="M477790.36,637193.53l-595,0" />
          <use xlink:href="#$DorLib2D$00000001" x="531.378" y="708.104" transform="scale(900,900) scale(-1,-1) translate(-1062.76,-1416.21) rotate(-180,531.38,708.1)" stroke-width="0.0001%">.</use>
          <path d="M477295.36,637393.53l0,1748" />
          <path d="M477095.36,637393.53l0,1748" />
          <path d="M477295.36,639141.53l-200,0" />
          <path d="M445375.81,644313.53l0,-1400" />
          <path d="M445075.81,644313.53l0,-1400" />
          <path d="M444775.81,644313.53l0,-1400" />
          <path d="M444475.81,644313.53l0,-1400" />
          <path d="M444175.81,644313.53l0,-1400" />
          <path d="M443875.81,644313.53l0,-1400" />
          <path d="M443575.81,644313.53l0,-1400" />
          <path d="M443275.81,644166.16l0,-1252.63" />
          <path d="M442975.81,643797.74l0,-884.21" />
          <path d="M442675.81,643429.32l0,-515.79" />
          <path d="M442375.81,643060.9l0,-147.37" />
          <path d="M445675.81,644313.53l-2280,0" />
          <path d="M445675.81,642913.53l-3420,0" />
          <path d="M445675.81,644313.53l0,-1400" />
          <path d="M442255.81,642913.53l525.88,645.81" />
          <path d="M442781.69,643559.34l123.18,-55.24" />
          <path d="M442904.87,643504.1l-137.91,230.93" />
          <path d="M442766.96,643735.03l115.58,-51.83" />
          <path d="M442882.54,643683.19l513.27,630.34" />
          <path d="M445540.81,642973.53l-5130,0" />
          <path d="M445540.81,642913.53l-5130,0" />
          <path d="M445540.81,642973.53l0,-60" />
          <path d="M440410.81,642973.53l0,-60" />
          <path d="M441875.81,644313.53l0,-405" />
          <path d="M441875.81,643908.53l-200,0" />
          <path d="M441675.81,643908.53l0,405" />
          <path d="M441675.81,644313.53l200,0" />
          <path d="M441675.81,642713.53l0,295" />
          <path d="M441675.81,643008.53l200,0" />
          <path d="M441875.81,643008.53l0,-95" />
          <use xlink:href="#$DorLib2D$00000001" x="490.862" y="714.954" transform="scale(900,900) scale(-1,1) translate(-981.72,0) rotate(-270,490.86,714.95)" stroke-width="0.0001%">.</use>
          <path d="M441675.81,642713.53l1948,0" />
          <path d="M441875.81,642913.53l1748,0" />
          <path d="M443623.81,642713.53l0,200" />
          <path d="M506194.91,642913.53l0,1400" />
          <path d="M506494.91,642913.53l0,1400" />
          <path d="M506794.91,642913.53l0,1400" />
          <path d="M507094.91,642913.53l0,1400" />
          <path d="M507394.91,642913.53l0,1400" />
          <path d="M507694.91,642913.53l0,1400" />
          <path d="M507994.91,642913.53l0,1400" />
          <path d="M508294.91,643060.9l0,1252.63" />
          <path d="M508594.91,643429.32l0,884.21" />
          <path d="M508894.91,643797.74l0,515.79" />
          <path d="M509194.91,644166.16l0,147.37" />
          <path d="M505894.91,642913.53l2280,0" />
          <path d="M505894.91,644313.53l3420,0" />
          <path d="M505894.91,642913.53l0,1400" />
          <path d="M509314.91,644313.53l-525.88,-645.81" />
          <path d="M508789.03,643667.72l-123.18,55.24" />
          <path d="M508665.85,643722.96l137.91,-230.93" />
          <path d="M508803.76,643492.03l-115.58,51.83" />
          <path d="M508688.18,643543.87l-513.27,-630.34" />
          <path d="M506029.91,642913.53l5130,0" />
          <path d="M506029.91,642973.53l5130,0" />
          <path d="M506029.91,642913.53l0,60" />
          <path d="M511159.91,642913.53l0,60" />
          <path d="M509894.91,644313.53l0,-405" />
          <path d="M509894.91,643908.53l-200,0" />
          <path d="M509694.91,643908.53l0,405" />
          <path d="M509694.91,644313.53l200,0" />
          <path d="M509694.91,642913.53l0,95" />
          <path d="M509694.91,643008.53l200,0" />
          <path d="M509894.91,643008.53l0,-295" />
          <use xlink:href="#$DorLib2D$00000001" x="566.439" y="714.954" transform="scale(900,900) scale(-1,-1) translate(-1132.88,-1429.91) rotate(-90,566.44,714.95)" stroke-width="0.0001%">.</use>
          <path d="M509694.91,642913.53l-1748,0" />
          <path d="M509894.91,642713.53l-1948,0" />
          <path d="M507946.91,642913.53l0,-200" />
          <use xlink:href="#$TCHSYS$WIN2D_2000x380" x="501135.36" y="665503.53" transform="scale(-1,-1) translate(-1002270.72,-1331007.06) rotate(-180,501135.36,665503.53)">.</use>
          <path d="M454595.36,658693.53l-5810,0" />
          <path d="M454595.36,658313.53l-5620,0" />
          <use xlink:href="#$DorLib2D$00000002" x="298.357" y="439.002" transform="scale(1500,1500) scale(-1,-1) translate(-596.71,-878) rotate(-180,298.36,439)" stroke-width="0.0001%">.</use>
          <path d="M454595.36,658693.53l0,520" />
          <path d="M454595.36,659213.53l380,0" />
          <path d="M454975.36,659213.53l0,-710" />
          <path d="M454975.36,665693.53l0,-1980" />
          <path d="M454975.36,663713.53l-380,0" />
          <path d="M454595.36,663713.53l0,1600" />
          <path d="M454595.36,660713.53l0,1500" />
          <path d="M454595.36,662213.53l380,0" />
          <path d="M454975.36,662213.53l0,-1500" />
          <path d="M454975.36,660713.53l-380,0" />
          <path d="M440475.36,658313.53l0,-410" />
          <path d="M440475.36,657903.53l-380,0" />
          <path d="M440095.36,657903.53l0,600" />
          <path d="M440095.36,655003.53l0,900" />
          <path d="M440095.36,655903.53l380,0" />
          <path d="M440475.36,655903.53l0,-710" />
          <path d="M448595.36,658313.53l-310,0" />
          <path d="M448285.36,658313.53l0,380" />
          <path d="M448285.36,658693.53l500,0" />
          <path d="M446285.36,658693.53l500,0" />
          <path d="M446785.36,658693.53l0,-380" />
          <path d="M446785.36,658313.53l-310,0" />
          <path d="M446475.36,655003.53l0,-5510" />
          <path d="M446475.36,649493.53l-380,0" />
          <path d="M446095.36,649493.53l0,5320" />
          <path d="M446095.36,648193.53l0,300" />
          <path d="M446095.36,648493.53l380,0" />
          <path d="M446475.36,648493.53l0,-490" />
          <use xlink:href="#$DorLib2D$00000001" x="446.285" y="648.994" transform="scale(1000,1000) rotate(-90,446.29,648.99)" stroke-width="0.0001%">.</use>
          <path d="M446285.36,658693.53l-5810,0" />
          <path d="M446095.36,658313.53l-5620,0" />
          <path d="M449875.36,641193.53l3160,0" />
          <path d="M453035.36,641193.53l0,-380" />
          <path d="M453035.36,640813.53l-3350,0" />
          <path d="M454595.36,640813.53l-560,0" />
          <path d="M454035.36,640813.53l0,380" />
          <path d="M454035.36,641193.53l750,0" />
          <use xlink:href="#$DorLib2D$00000001" x="453.535" y="641.004" transform="scale(1000,1000)" stroke-width="0.0001%">.</use>
          <path d="M451400.36,635193.53l0,5620" />
          <path d="M451200.36,635193.53l0,5620" />
          <path d="M451400.36,635193.53l-200,0" />
          <path d="M451400.36,640813.53l-200,0" />
          <path d="M469095.36,640813.53l0,-2600" />
          <path d="M469295.36,640813.53l0,-2400" />
          <path d="M469095.36,640813.53l200,0" />
          <path d="M469295.36,638413.53l0,-200" />
          <path d="M469295.36,638213.53l-200,0" />
          <path d="M472095.36,638213.53l-1800,0" />
          <path d="M470295.36,638213.53l0,200" />
          <path d="M470295.36,638413.53l1800,0" />
          <path d="M472095.36,638413.53l0,-200" />
          <use xlink:href="#$DorLib2D$00000001" x="469.795" y="638.314" transform="scale(1000,1000) scale(-1,-1) translate(-939.59,-1276.63)" stroke-width="0.0001%">.</use>
          <path d="M465095.36,649633.53l0,-5940" />
          <path d="M465475.36,649633.53l0,-5940" />
          <path d="M465095.36,649633.53l-545,0" />
          <path d="M464550.36,649633.53l0,380" />
          <path d="M464550.36,650013.53l735,0" />
          <path d="M454975.36,650013.53l575,0" />
          <path d="M455550.36,650013.53l0,-380" />
          <path d="M455550.36,649633.53l-575,0" />
          <path d="M462550.36,649633.53l-1500,0" />
          <path d="M461050.36,649633.53l0,380" />
          <path d="M461050.36,650013.53l1500,0" />
          <path d="M462550.36,650013.53l0,-380" />
          <path d="M459050.36,649633.53l-1500,0" />
          <path d="M457550.36,649633.53l0,380" />
          <path d="M457550.36,650013.53l1500,0" />
          <path d="M459050.36,650013.53l0,-380" />
          <path d="M465285.36,643313.53l-720,0" />
          <path d="M464565.36,643313.53l0,380" />
          <path d="M464565.36,643693.53l530,0" />
          <path d="M454975.36,643693.53l560,0" />
          <path d="M455535.36,643693.53l0,-380" />
          <path d="M455535.36,643313.53l-750,0" />
          <path d="M463565.36,643313.53l-7030,0" />
          <path d="M456535.36,643313.53l0,380" />
          <path d="M456535.36,643693.53l7030,0" />
          <path d="M463565.36,643693.53l0,-380" />
          <use xlink:href="#$DorLib2D$00000001" x="456.035" y="643.504" transform="scale(1000,1000) rotate(-180,456.04,643.5)" stroke-width="0.0001%">.</use>
          <use xlink:href="#$DorLib2D$00000001" x="464.065" y="643.504" transform="scale(1000,1000) scale(-1,1) translate(-928.13,0) rotate(-180,464.07,643.5)" stroke-width="0.0001%">.</use>
          <path d="M489595.36,640813.53l0,-5620" />
          <path d="M489975.36,640813.53l0,-5620" />
          <path d="M486095.36,649633.53l0,-5940" />
          <path d="M486475.36,649633.53l0,-5940" />
          <path d="M486095.36,649633.53l-575,0" />
          <path d="M485520.36,649633.53l0,380" />
          <path d="M485520.36,650013.53l765,0" />
          <path d="M482785.36,650013.53l735,0" />
          <path d="M483520.36,650013.53l0,-380" />
          <path d="M483520.36,649633.53l-545,0" />
          <path d="M486285.36,643313.53l-720,0" />
          <path d="M485565.36,643313.53l0,380" />
          <path d="M485565.36,643693.53l530,0" />
          <path d="M482975.36,643693.53l1590,0" />
          <path d="M484565.36,643693.53l0,-380" />
          <path d="M484565.36,643313.53l-1780,0" />
          <use xlink:href="#$DorLib2D$00000001" x="485.065" y="643.504" transform="scale(1000,1000) scale(-1,1) translate(-970.13,0) rotate(-180,485.07,643.5)" stroke-width="0.0001%">.</use>
          <path d="M500170.36,635193.53l0,4370" />
          <path d="M500170.36,639563.53l200,0" />
          <path d="M500370.36,639563.53l0,-4370" />
          <path d="M500370.36,640813.53l0,-250" />
          <path d="M500370.36,640563.53l-200,0" />
          <path d="M500170.36,640563.53l0,250" />
          <use xlink:href="#$DorLib2D$00000001" x="500.27" y="640.064" transform="scale(1000,1000) rotate(-270,500.27,640.06)" stroke-width="0.0001%">.</use>
          <use xlink:href="#$DorLib2D$00000001" x="505.285" y="648.994" transform="scale(1000,1000) scale(1,-1) translate(0,-1297.99) rotate(-270,505.29,648.99)" stroke-width="0.0001%">.</use>
          <use xlink:href="#$DorLib2D$00000001" x="502.785" y="654.014" transform="scale(1000,1000) scale(-1,1) translate(-1005.57,0) rotate(-270,502.79,654.01)" stroke-width="0.0001%">.</use>
          <path d="M502975.36,655003.53l0,-490" />
          <path d="M502975.36,654513.53l-380,0" />
          <path d="M502595.36,654513.53l0,300" />
          <path d="M502595.36,646673.53l0,300" />
          <path d="M502595.36,646973.53l380,0" />
          <path d="M502975.36,646973.53l0,-490" />
          <path d="M502975.36,653513.53l0,-5540" />
          <path d="M502975.36,647973.53l-380,0" />
          <path d="M502595.36,647973.53l0,5540" />
          <path d="M502595.36,653513.53l380,0" />
          <path d="M502595.36,665313.53l-460,0" />
          <path d="M502135.36,665313.53l0,380" />
          <path d="M502135.36,665693.53l650,0" />
          <path d="M496595.36,665693.53l3540,0" />
          <path d="M500135.36,665693.53l0,-380" />
          <path d="M500135.36,665313.53l-3160,0" />
          <use xlink:href="#$DorLib2D$00000002" x="335.19" y="437.976" transform="scale(1500,1500) rotate(-90,335.19,437.98)" stroke-width="0.0001%">.</use>
          <path d="M502975.36,658313.53l0,-600" />
          <path d="M502975.36,657713.53l-380,0" />
          <path d="M502595.36,657713.53l0,790" />
          <path d="M502595.36,655193.53l0,1020" />
          <path d="M502595.36,656213.53l380,0" />
          <path d="M502975.36,656213.53l0,-1210" />
          <path d="M511095.36,658693.53l0,710" />
          <path d="M511095.36,659403.53l380,0" />
          <path d="M511475.36,659403.53l0,-900" />
          <path d="M511475.36,665693.53l0,-4290" />
          <path d="M511475.36,661403.53l-380,0" />
          <path d="M511095.36,661403.53l0,3910" />
          <use xlink:href="#$TCHSYS$WIN2D_2000x380" x="511285.36" y="660403.53" transform="scale(-1,-1) translate(-1022570.72,-1320807.06) rotate(-270,511285.36,660403.53)">.</use>
          <path d="M505475.36,658313.53l5620,0" />
          <path d="M505285.36,658693.53l5810,0" />
          <path d="M511095.36,655193.53l0,710" />
          <path d="M511095.36,655903.53l380,0" />
          <path d="M511475.36,655903.53l0,-900" />
          <path d="M511475.36,658503.53l0,-600" />
          <path d="M511475.36,657903.53l-380,0" />
          <path d="M511095.36,657903.53l0,410" />
          <path d="M505475.36,654813.53l5620,0" />
          <path d="M505475.36,655193.53l5620,0" />
          <path d="M505475.36,654813.53l0,-5320" />
          <path d="M505475.36,649493.53l-380,0" />
          <path d="M505095.36,649493.53l0,5510" />
          <path d="M505095.36,648003.53l0,490" />
          <path d="M505095.36,648493.53l380,0" />
          <path d="M505475.36,648493.53l0,-300" />
          <path d="M452125.28,643693.53l0,2600" />
          <path d="M451975.28,643693.53l0,2600" />
          <path d="M452125.28,643693.53l910.08,0" />
          <path d="M453035.36,643693.53l0,-380" />
          <path d="M453035.36,643313.53l-985.08,0" />
          <path d="M454785.36,643313.53l-750,0" />
          <path d="M454035.36,643313.53l0,380" />
          <path d="M454035.36,643693.53l560,0" />
          <path d="M452050.28,646673.53l-3074.92,0" />
          <path d="M451975.28,646293.53l-2999.92,0" />
          <path d="M444317.03,635193.53l0,4020" />
          <path d="M444317.03,640213.53l0,600" />
          <path d="M444283.69,635193.53l0,4020" />
          <path d="M444283.69,640213.53l0,600" />
          <path d="M444250.36,635193.53l0,4020" />
          <path d="M444250.36,639213.53l100,0" />
          <path d="M444350.36,639213.53l0,-4020" />
          <path d="M444350.36,635193.53l-100,0" />
          <path d="M444350.36,640813.53l0,-600" />
          <path d="M444350.36,640213.53l-100,0" />
          <path d="M444250.36,640213.53l0,600" />
          <path d="M444250.36,640813.53l100,0" />
          <use xlink:href="#$DorLib2D$00000001" x="444.3" y="639.714" transform="scale(1000,1000) scale(1,-1) translate(0,-1279.43) rotate(-90,444.3,639.71)" stroke-width="0.0001%">.</use>
          <path d="M477095.36,637393.53l-370,0" />
          <path d="M477195.36,637193.53l-395,0" />
          <use xlink:href="#$DorLib2D$00000002" x="317.19" y="424.862" transform="scale(1500,1500) scale(-1,-1) translate(-634.38,-849.72) rotate(-180,317.19,424.86)" stroke-width="0.0001%">.</use>
          <path d="M474655.36,635193.53l-1500,0" />
          <path d="M474655.36,635043.53l-1500,0" />
          <path d="M474655.36,635193.53l0,-150" />
          <path d="M473155.36,635193.53l0,-150" />
          <path d="M500370.36,635193.53l650,0" />
          <path d="M501020.36,635193.53l0,-380" />
          <path d="M501020.36,634813.53l-750,0" />
          <path d="M511475.36,634813.53l-4955,0" />
          <path d="M506520.36,634813.53l0,380" />
          <path d="M506520.36,635193.53l4575,0" />
          <path d="M503020.36,635193.53l1500,0" />
          <path d="M504520.36,635193.53l0,-380" />
          <path d="M504520.36,634813.53l-1500,0" />
          <path d="M503020.36,634813.53l0,380" />
          <path d="M500370.36,640813.53l1515,0" />
          <path d="M500270.36,641193.53l1425,0" />
          <path d="M489975.36,635193.53l545,0" />
          <path d="M490520.36,635193.53l0,-380" />
          <path d="M490520.36,634813.53l-735,0" />
          <path d="M496785.36,634813.53l-765,0" />
          <path d="M496020.36,634813.53l0,380" />
          <path d="M496020.36,635193.53l575,0" />
          <path d="M492520.36,635193.53l1500,0" />
          <path d="M494020.36,635193.53l0,-380" />
          <path d="M494020.36,634813.53l-1500,0" />
          <path d="M492520.36,634813.53l0,380" />
          <path d="M489785.36,641193.53l750,0" />
          <path d="M490535.36,641193.53l0,-380" />
          <path d="M490535.36,640813.53l-560,0" />
          <path d="M496595.36,640813.53l-5060,0" />
          <path d="M491535.36,640813.53l0,380" />
          <path d="M491535.36,641193.53l5250,0" />
          <path d="M476800.36,635193.53l0,2000" />
          <path d="M476650.36,635193.53l0,2000" />
          <path d="M476650.36,637193.53l-115,0" />
          <path d="M476535.36,637193.53l0,200" />
          <path d="M476535.36,637393.53l190,0" />
          <path d="M474475.36,637393.53l560,0" />
          <path d="M475035.36,637393.53l0,-200" />
          <path d="M475035.36,637193.53l-660,0" />
          <path d="M476800.36,635193.53l115,0" />
          <path d="M476915.36,635193.53l0,-380" />
          <path d="M476915.36,634813.53l-190,0" />
          <path d="M479285.36,634813.53l-870,0" />
          <path d="M478415.36,634813.53l0,380" />
          <path d="M478415.36,635193.53l680,0" />
          <path d="M454745.36,656213.53l0,1500" />
          <path d="M454595.36,656213.53l0,1500" />
          <path d="M454745.36,656213.53l-150,0" />
          <path d="M454745.36,657713.53l-150,0" />
          <use xlink:href="#$TCHSYS$WIN2D_1500x380" x="496794.05" y="656975.25" transform="scale(1,-1) translate(0,-1313950.5) rotate(-270,496794.05,656975.25)">.</use>
          <use xlink:href="#$TCHSYS$WIN2D_1500x380" x="454783.04" y="656962.87" transform="scale(1,-1) translate(0,-1313925.74) rotate(-270,454783.04,656962.87)">.</use>
        </g>
        <g id="layer-0" class="cnc-7">
          <path d="M525669.36,663515.12l5166,0" class="cnc-6" />
          <path d="M530835.36,666672.12l-5166,0" />
          <path d="M525669.36,675856.12l5166,0" />
          <path d="M530835.36,669829.12l-5166,0" class="cnc-6" />
          <path d="M525669.36,676860.62l5166,0" />
          <path d="M528395.86,675856.12l0,5022.5" />
          <path d="M525669.36,677865.12l5166,0" />
          <path d="M530835.36,678869.62l-5166,0" />
          <path d="M530835.36,679874.12l-5166,0" />
        </g>
      </g>
      <g id="assets" fill="none">
        <g id="rm-assets" class="rm-asset">
          <path id="15010;F01;117" d="M440475.36,658693.53l0,6620l14120,0l0,-6620z" />
          <path id="15010;F01;105" d="M500370.36,635193.53l0,5620l10725,0l0,-5620z" />
          <path id="15010;F01;126" d="M486475.36,643693.53l0,5940l10120,0l0,-5940z" />
          <path id="15010;F01;121" d="M454975.36,643693.53l0,5940l10120,0l0,-5940z" />
          <path id="15010;F01;128" d="M496975.36,655193.53l0,10120l5620,0l0,-10120z" />
          <path id="15010;F01;111" d="M454975.36,635193.53l0,5620l10120,0l0,-5620z" />
          <path id="15010;F01;101" d="M502975.36,658693.53l0,6620l8120,0l0,-6620z" />
          <path id="15010;F01;119" d="M448975.36,646673.53l0,8140l5620,0l0,-8140z" />
          <path id="15010;F01;127" d="M496975.36,646673.53l0,8140l5620,0l0,-8140z" />
          <path id="15010;F01;113" d="M444350.36,635193.53l0,5620l6850,0l0,-5620z" />
          <path id="15010;F01;110" d="M465475.36,635193.53l0,5620l6620,0l0,-5620z" />
          <path id="15010;F01;103" d="M505475.36,648193.53l0,6620l5620,0l0,-6620z" />
          <path id="15010;F01;115" d="M440475.36,648193.53l0,6620l5620,0l0,-6620z" />
          <path id="15010;F01;107" d="M489975.36,635193.53l0,5620l6620,0l0,-5620z" />
          <path id="15010;F01;125" d="M482975.36,643693.53l0,5940l3120,0l0,-5940z" />
          <path id="15010;F01;123" d="M468975.36,643693.53l0,5940l3120,0l0,-5940z" />
          <path id="15010;F01;122" d="M465475.36,643693.53l0,5940l3120,0l0,-5940z" />
          <path id="15010;F01;106" d="M496975.36,635193.53l0,5620l3195,0l0,-5620z" />
          <path id="15010;F01;112" d="M451400.36,635193.53l0,5620l3195,0l0,-5620z" />
          <path id="15010;F01;108" d="M482975.36,635193.53l0,5620l3120,0l0,-5620z" />
          <path id="15010;F01;102" d="M505475.36,655193.53l0,3120l5620,0l0,-3120z" />
          <path id="15010;F01;116" d="M440475.36,655193.53l0,3120l5620,0l0,-3120z" />
          <path id="15010;F01;118" d="M448975.36,655193.53l0,3120l5620,0l0,-3120z" />
          <path id="15010;F01;104" d="M505475.36,644693.53l0,3120l5620,0l0,-3120z" />
          <path id="15010;F01;114" d="M440475.36,644693.53l0,3120l5620,0l0,-3120z" />
          <path id="15010;F01;109" d="M479475.36,635193.53l0,5620l3120,0l0,-5620z" />
          <path id="15010;F01;120" d="M452125.28,643693.53l0,2600l2470.08,0l0,-2600z" />
        </g>
      </g>
    </g>
    <g id="text" font-family="黑体" font-size="390.1020253158228" font-weight="normal" text-style="normal" text-anchor="middle" dominant-baseline="alphabetical" fill="#00BFFF" xml:space="preserve">
      <g id="layer-0-text">
        <g transform="translate(528285.36,672078.62)" font-family="Arial" font-size="520" fill="#000000" stroke="#000000" stroke-width="0.02">
          <text>首层弱电平面图</text>
        </g>
        <g transform="translate(526817.36,663954.08)" font-size="389.889">
          <text>工程名称</text>
        </g>
        <g transform="translate(526817.36,667083.49)" font-size="389.889">
          <text>图    名</text>
        </g>
        <g transform="translate(526879.24,665523.26)" font-family="Arial" font-size="629.772" text-anchor="start" fill="#000000" stroke="#000000" stroke-width="0.02">
          <text>北京林业大学基础楼</text>
        </g>
        <g transform="translate(527054.13,676358.37)">
          <text>制    图</text>
        </g>
        <g transform="translate(527054.13,677362.87)">
          <text>校    对</text>
        </g>
        <g transform="translate(527054.13,678367.37)">
          <text>审    核</text>
        </g>
        <g transform="translate(527054.13,679371.87)">
          <text>图    号</text>
        </g>
        <g transform="translate(527054.13,680376.37)">
          <text>日    期</text>
        </g>
        <g transform="translate(528485.12,676581.49)" font-family="Arial" font-size="596.96" text-anchor="start" fill="#000000" stroke="#000000" stroke-width="0.02">
          <text>刘程程</text>
        </g>
        <g transform="translate(528618.72,680558.89)" font-family="Arial" font-size="596.96" text-anchor="start" fill="#000000" stroke="#000000" stroke-width="0.02">
          <text>2014.06</text>
        </g>
        <g transform="translate(527064.02,668625.84)" font-family="Arial" font-size="728" text-anchor="start" fill="#000000" stroke="#000000" stroke-width="0.02">
          <text>首层平面图</text>
        </g>
      </g>
    </g>
    <g id="asset-labels" font-family="Arial" font-weight="bold" font-size="38.1em" text-anchor="middle">
      <g id="rm-labels">
        <g id="l-rm-15010;F01;117" transform="translate(447535.36,662003.53)">
          <text>117</text>
        </g>
        <g id="l-rm-15010;F01;105" transform="translate(505732.86,638003.53)">
          <text>105</text>
        </g>
        <g id="l-rm-15010;F01;126" transform="translate(491535.36,646663.53)">
          <text>126</text>
        </g>
        <g id="l-rm-15010;F01;121" transform="translate(460035.36,646663.53)">
          <text>121</text>
        </g>
        <g id="l-rm-15010;F01;128" transform="translate(499785.36,660253.53)">
          <text>128</text>
        </g>
        <g id="l-rm-15010;F01;111" transform="translate(460035.36,638003.53)">
          <text>111</text>
        </g>
        <g id="l-rm-15010;F01;101" transform="translate(507035.36,662003.53)">
          <text>101</text>
        </g>
        <g id="l-rm-15010;F01;119" transform="translate(451785.36,650743.53)">
          <text>119</text>
        </g>
        <g id="l-rm-15010;F01;127" transform="translate(499785.36,650743.53)">
          <text>127</text>
        </g>
        <g id="l-rm-15010;F01;113" transform="translate(447775.36,638003.53)">
          <text>113</text>
        </g>
        <g id="l-rm-15010;F01;110" transform="translate(468785.36,638003.53)">
          <text>110</text>
        </g>
        <g id="l-rm-15010;F01;103" transform="translate(508285.36,651503.53)">
          <text>103</text>
        </g>
        <g id="l-rm-15010;F01;115" transform="translate(443285.36,651503.53)">
          <text>115</text>
        </g>
        <g id="l-rm-15010;F01;107" transform="translate(493285.36,638003.53)">
          <text>107</text>
        </g>
        <g id="l-rm-15010;F01;125" transform="translate(484535.36,646663.53)">
          <text>125</text>
        </g>
        <g id="l-rm-15010;F01;123" transform="translate(470535.36,646663.53)">
          <text>123</text>
        </g>
        <g id="l-rm-15010;F01;122" transform="translate(467035.36,646663.53)">
          <text>122</text>
        </g>
        <g id="l-rm-15010;F01;106" transform="translate(498572.86,638003.53)">
          <text>106</text>
        </g>
        <g id="l-rm-15010;F01;112" transform="translate(452997.86,638003.53)">
          <text>112</text>
        </g>
        <g id="l-rm-15010;F01;108" transform="translate(484535.36,638003.53)">
          <text>108</text>
        </g>
        <g id="l-rm-15010;F01;102" transform="translate(508285.36,656753.53)">
          <text>102</text>
        </g>
        <g id="l-rm-15010;F01;116" transform="translate(443285.36,656753.53)">
          <text>116</text>
        </g>
        <g id="l-rm-15010;F01;118" transform="translate(451785.36,656753.53)">
          <text>118</text>
        </g>
        <g id="l-rm-15010;F01;104" transform="translate(508285.36,646253.53)">
          <text>104</text>
        </g>
        <g id="l-rm-15010;F01;114" transform="translate(443285.36,646253.53)">
          <text>114</text>
        </g>
        <g id="l-rm-15010;F01;109" transform="translate(481035.36,638003.53)">
          <text>109</text>
        </g>
        <g id="l-rm-15010;F01;120" transform="translate(453360.32,644993.53)">
          <text>120</text>
        </g>
      </g>
    </g>
  </g>
</svg>