<svg version="1.1" xmlns="http://www.w3.org/2000/svg" xmlns:xlink="http://www.w3.org/1999/xlink" viewBox="12738.75 91072.08 72238 31931">
  <style>.i0 { stroke:#000000;   } .body { stroke:#ff7f00;   } .name { stroke:#ff0000;   } .rm { stroke:#00ffff;   } .gros { stroke:#ff00ff;   } .pub_wall { stroke:#c0c0c0;   } .rm-asset { stroke:#0000ff;   fill:#EEEEEE; fill-opacity:1;} .rmtc-asset { stroke:#0000ff;   } .rmtc { stroke:#00ffff;   } .rm-assettxt { stroke:#0000ff;   } .rmtc-assettxt { stroke:#0000ff;   } .blkclass0 { stroke:#000000;  stroke-width:0.02;  fill:#000000; fill-opacity:1; font-family:Arial; font-size:386.75; font-weight:normal; text-style:normal; text-anchor:start;}</style>
  <view id="defaultView" viewBox="12738.75 91072.08 72238 31931" />
  <defs>
    <symbol id="$TCHSYS$WIN2D_2000x380" overflow="visible" class="i0">
      <path d="M-1000,-190l2000,0" />
      <path d="M-1000,190l2000,0" />
      <path d="M1000,63.33l-2000,0" />
      <path d="M1000,-63.33l-2000,0" />
      <path d="M-1000,-190l0,380" />
      <path d="M1000,-190l0,380" />
    </symbol>
    <symbol id="$TCHSYS$WIN2D_1000x380" overflow="visible" class="i0">
      <path d="M-500,-190l1000,0" />
      <path d="M-500,190l1000,0" />
      <path d="M500,63.33l-1000,0" />
      <path d="M500,-63.33l-1000,0" />
      <path d="M-500,-190l0,380" />
      <path d="M500,-190l0,380" />
    </symbol>
    <symbol id="$TCHSYS$WIN2D_1500x380" overflow="visible" class="i0">
      <path d="M-750,-190l1500,0" />
      <path d="M-750,190l1500,0" />
      <path d="M750,63.33l-1500,0" />
      <path d="M750,-63.33l-1500,0" />
      <path d="M-750,-190l0,380" />
      <path d="M750,-190l0,380" />
    </symbol>
    <symbol id="$DorLib2D$00000002" overflow="visible" class="i0">
      <path d="M-0.5,0l0,-0.49" />
      <path d="M-0.48,0l0,-0.49" />
      <path d="M-0.5,0l0.02,0" />
      <path d="M-0.48,-0.49l-0.02,0" />
      <path d="M-0.48,-0.49a0.49,0.49 0 0,1 0.48,0.49" />
      <path d="M0,0a0.49,0.49 0 0,1 0.48,-0.49" />
      <path d="M0.48,0l0,-0.49" />
      <path d="M0.5,0l0,-0.49" />
      <path d="M0.48,-0.49l0.02,0" />
      <path d="M0.5,0l-0.02,0" />
    </symbol>
    <symbol id="$DorLib2D$00000001" overflow="visible" class="i0">
      <path d="M0.45,-0.98l0.05,0" />
      <path d="M0.5,0l-0.05,0" />
      <path d="M-0.5,0a0.98,0.98 0 0,1 0.95,-0.97" />
      <path d="M0.5,0l0,-0.98" />
      <path d="M0.45,0l0,-0.98" />
    </symbol>
    <symbol id="$TCHSYS$WIN2D_1600x380" overflow="visible" class="i0">
      <path d="M-800,-190l1600,0" />
      <path d="M-800,190l1600,0" />
      <path d="M800,63.33l-1600,0" />
      <path d="M800,-63.33l-1600,0" />
      <path d="M-800,-190l0,380" />
      <path d="M800,-190l0,380" />
    </symbol>
  </defs>
  <g id="viewer">
    <g id="mirror" transform="scale(1, 1)" stroke-width="0.09%">
      <g id="background" fill="none">
        <g id="layer-body-fills" class="body">
          <path d="M70048.13,93092.85l75.45,0l0,3557.36l-75.45,0z" />
          <path d="M27592.68,93092.85l75.45,0l0,3557.36l-75.45,0z" />
          <path d="M21668.13,101761.52l380,0l0,200l-380,0z" />
        </g>
        <g id="layer-RM-fills" class="rm">
          <path d="M13548.13,104681.52l5620,0l0,-3120l-5620,0z" />
          <path d="M24668.21,103161.52l2999.92,0l0,-2600l-2999.92,0z" />
          <path d="M78548.13,104681.52l5620,0l0,-3120l-5620,0z" />
          <path d="M23308.05,106011.52l0,605l4360.08,0l0,-3075l-5620,0l0,2470z" />
          <path d="M22048.13,106071.52l1199.92,0l0,1100l-1199.92,0z" />
        </g>
        <g id="layer-GROS-fills" class="gros">
          <path d="M13168.13,91681.52l0,30880l14880,0l0,-15680l41620,0l0,15680l14880,0l0,-30880z" />
        </g>
        <g id="layer-body" class="body">
          <use xlink:href="#$TCHSYS$WIN2D_2000x380" x="13358.13" y="113771.52" transform="scale(1,-1) translate(0,-227543.04) rotate(-270,13358.13,113771.52)">.<g class="blkclass0"><text transform="rotate(-90 -316.25,695) translate(-316.25,695)" font-size="386.75">WC2020</text></g></use>
          <path d="M13548.13,92061.52l1597.5,0" />
          <path d="M15145.63,92061.52l0,-380" />
          <path d="M15145.63,91681.52l-1977.5,0" />
          <path d="M27858.13,91681.52l-735,0" />
          <path d="M27123.13,91681.52l0,380" />
          <path d="M27123.13,92061.52l545,0" />
          <path d="M16145.63,92061.52l1977.5,0" />
          <path d="M18123.13,92061.52l0,-380" />
          <path d="M18123.13,91681.52l-1977.5,0" />
          <path d="M16145.63,91681.52l0,380" />
          <path d="M20123.13,92061.52l1500,0" />
          <path d="M21623.13,92061.52l0,-380" />
          <path d="M21623.13,91681.52l-1500,0" />
          <path d="M20123.13,91681.52l0,380" />
          <path d="M23623.13,92061.52l1500,0" />
          <path d="M25123.13,92061.52l0,-380" />
          <path d="M25123.13,91681.52l-1500,0" />
          <path d="M23623.13,91681.52l0,380" />
          <use xlink:href="#$TCHSYS$WIN2D_1000x380" x="15645.63" y="91871.52" transform="scale(-1,1) translate(-31291.26,0) rotate(-360,15645.63,91871.52)">.<g class="blkclass0"><text transform="rotate(0 -595,-312.56) translate(-595,-312.56)" font-size="386.75">WC0920</text></g></use>
          <use xlink:href="#$TCHSYS$WIN2D_2000x380" x="19123.13" y="91871.52" transform="scale(-1,1) translate(-38246.26,0) rotate(-360,19123.13,91871.52)">.<g class="blkclass0"><text transform="rotate(0 -595,-375.79) translate(-595,-375.79)" font-size="386.75">WC2020</text></g></use>
          <use xlink:href="#$TCHSYS$WIN2D_2000x380" x="22623.13" y="91871.52" transform="scale(-1,-1) translate(-45246.26,-183743.04) rotate(0,22623.13,91871.52)">.<g class="blkclass0"><text transform="rotate(0 -595,-316.25) translate(-595,-316.25)" font-size="386.75">WC2020</text></g></use>
          <use xlink:href="#$TCHSYS$WIN2D_2000x380" x="26123.13" y="91871.52" transform="scale(-1,-1) translate(-52246.26,-183743.04) rotate(0,26123.13,91871.52)">.<g class="blkclass0"><text transform="rotate(0 -595,-316.25) translate(-595,-316.25)" font-size="386.75">WC2020</text></g></use>
          <path d="M84548.13,91681.52l0,6190" />
          <path d="M84168.13,92061.52l0,5620" />
          <path d="M84168.13,122181.52l-3160,0" />
          <path d="M81008.13,122181.52l0,380" />
          <path d="M81008.13,122561.52l3540,0" />
          <path d="M69668.13,122561.52l3540,0" />
          <path d="M73208.13,122561.52l0,-380" />
          <path d="M73208.13,122181.52l-3160,0" />
          <path d="M79008.13,122181.52l-900,0" />
          <path d="M78108.13,122181.52l0,380" />
          <path d="M78108.13,122561.52l900,0" />
          <path d="M79008.13,122561.52l0,-380" />
          <path d="M76108.13,122181.52l-900,0" />
          <path d="M75208.13,122181.52l0,380" />
          <path d="M75208.13,122561.52l900,0" />
          <path d="M76108.13,122561.52l0,-380" />
          <use xlink:href="#$TCHSYS$WIN2D_2000x380" x="74208.13" y="122371.52" transform="scale(-1,-1) translate(-148416.26,-244743.04) rotate(-180,74208.13,122371.52)">.<g class="blkclass0"><text transform="translate(-600,613.75)" font-size="386.75">WC2020</text></g></use>
          <use xlink:href="#$TCHSYS$WIN2D_2000x380" x="77108.13" y="122371.52" transform="scale(-1,-1) translate(-154216.26,-244743.04) rotate(-180,77108.13,122371.52)">.<g class="blkclass0"><text transform="translate(-600,613.75)" font-size="386.75">WC2020</text></g></use>
          <use xlink:href="#$TCHSYS$WIN2D_2000x380" x="80008.13" y="122371.52" transform="scale(-1,-1) translate(-160016.26,-244743.04) rotate(-180,80008.13,122371.52)">.<g class="blkclass0"><text transform="translate(-600,613.75)" font-size="386.75">WC2020</text></g></use>
          <path d="M70048.13,122181.52l0,-1600" />
          <path d="M70048.13,120581.52l-380,0" />
          <path d="M69668.13,120581.52l0,1980" />
          <path d="M69668.13,115371.52l0,710" />
          <path d="M69668.13,116081.52l380,0" />
          <path d="M70048.13,116081.52l0,-610" />
          <path d="M70048.13,119081.52l0,-1500" />
          <path d="M70048.13,117581.52l-380,0" />
          <path d="M69668.13,117581.52l0,1500" />
          <path d="M69668.13,119081.52l380,0" />
          <use xlink:href="#$TCHSYS$WIN2D_1500x380" x="69858.13" y="116831.52" transform="scale(1,-1) translate(0,-233663.04) rotate(-270,69858.13,116831.52)">.<g class="blkclass0"><text transform="rotate(-90 -316.25,575) translate(-316.25,575)" font-size="386.75">WC1520</text></g></use>
          <use xlink:href="#$TCHSYS$WIN2D_1500x380" x="69858.13" y="119831.52" transform="scale(1,-1) translate(0,-239663.04) rotate(-270,69858.13,119831.52)">.<g class="blkclass0"><text transform="rotate(-90 -316.25,575) translate(-316.25,575)" font-size="386.75">WC1520</text></g></use>
          <use xlink:href="#$TCHSYS$WIN2D_1500x380" x="69858.13" y="113831.52" transform="scale(1,-1) translate(0,-227663.04) rotate(-270,69858.13,113831.52)">.<g class="blkclass0"><text transform="rotate(-90 -319.54,575) translate(-319.54,575)" font-size="386.75">WC1520</text></g></use>
          <path d="M69668.13,106501.52l-575,0" />
          <path d="M69093.13,106501.52l0,380" />
          <path d="M69093.13,106881.52l575,0" />
          <path d="M52358.13,106881.52l735,0" />
          <path d="M53093.13,106881.52l0,-380" />
          <path d="M53093.13,106501.52l-545,0" />
          <path d="M67093.13,106501.52l-1500,0" />
          <path d="M65593.13,106501.52l0,380" />
          <path d="M65593.13,106881.52l1500,0" />
          <path d="M67093.13,106881.52l0,-380" />
          <path d="M63593.13,106501.52l-1500,0" />
          <path d="M62093.13,106501.52l0,380" />
          <path d="M62093.13,106881.52l1500,0" />
          <path d="M63593.13,106881.52l0,-380" />
          <path d="M60093.13,106501.52l-1500,0" />
          <path d="M58593.13,106501.52l0,380" />
          <path d="M58593.13,106881.52l1500,0" />
          <path d="M60093.13,106881.52l0,-380" />
          <path d="M56593.13,106501.52l-1500,0" />
          <path d="M55093.13,106501.52l0,380" />
          <path d="M55093.13,106881.52l1500,0" />
          <path d="M56593.13,106881.52l0,-380" />
          <use xlink:href="#$TCHSYS$WIN2D_2000x380" x="68093.13" y="106691.52" transform="scale(-1,-1) translate(-136186.26,-213383.04) rotate(-180,68093.13,106691.52)">.<g class="blkclass0"><text transform="translate(-595,613.75)" font-size="386.75">WC2020</text></g></use>
          <use xlink:href="#$TCHSYS$WIN2D_2000x380" x="64593.13" y="106691.52" transform="scale(-1,-1) translate(-129186.26,-213383.04) rotate(-180,64593.13,106691.52)">.<g class="blkclass0"><text transform="translate(-595,613.75)" font-size="386.75">WC2020</text></g></use>
          <use xlink:href="#$TCHSYS$WIN2D_2000x380" x="61093.13" y="106691.52" transform="scale(-1,-1) translate(-122186.26,-213383.04) rotate(-180,61093.13,106691.52)">.<g class="blkclass0"><text transform="translate(-595,613.75)" font-size="386.75">WC2020</text></g></use>
          <use xlink:href="#$TCHSYS$WIN2D_2000x380" x="57593.13" y="106691.52" transform="scale(-1,-1) translate(-115186.26,-213383.04) rotate(-180,57593.13,106691.52)">.<g class="blkclass0"><text transform="translate(-595,613.75)" font-size="386.75">WC2020</text></g></use>
          <use xlink:href="#$TCHSYS$WIN2D_2000x380" x="54093.13" y="106691.52" transform="scale(-1,-1) translate(-108186.26,-213383.04) rotate(-180,54093.13,106691.52)">.<g class="blkclass0"><text transform="translate(-595,613.75)" font-size="386.75">WC2020</text></g></use>
          <path d="M28048.13,100561.52l0,2790" />
          <path d="M27668.13,100561.52l0,2600" />
          <path d="M27668.13,122181.52l-3165,0" />
          <path d="M24503.13,122181.52l0,380" />
          <path d="M24503.13,122561.52l3545,0" />
          <path d="M13168.13,122561.52l3545,0" />
          <path d="M16713.13,122561.52l0,-380" />
          <path d="M16713.13,122181.52l-3165,0" />
          <path d="M22503.13,122181.52l-900,0" />
          <path d="M21603.13,122181.52l0,380" />
          <path d="M21603.13,122561.52l900,0" />
          <path d="M22503.13,122561.52l0,-380" />
          <path d="M19603.13,122181.52l-890,0" />
          <path d="M18713.13,122181.52l0,380" />
          <path d="M18713.13,122561.52l890,0" />
          <path d="M19603.13,122561.52l0,-380" />
          <use xlink:href="#$TCHSYS$WIN2D_2000x380" x="23503.13" y="122371.52" transform="rotate(-180,23503.13,122371.52)">.<g class="blkclass0"><text transform="rotate(-360 -590,613.75) translate(-590,613.75)" font-size="386.75">WC2020</text></g></use>
          <use xlink:href="#$TCHSYS$WIN2D_2000x380" x="20603.13" y="122371.52" transform="rotate(-180,20603.13,122371.52)">.<g class="blkclass0"><text transform="rotate(-360 -590,613.75) translate(-590,613.75)" font-size="386.75">WC2020</text></g></use>
          <use xlink:href="#$TCHSYS$WIN2D_2000x380" x="17713.13" y="122371.52" transform="rotate(-180,17713.13,122371.52)">.<g class="blkclass0"><text transform="rotate(-360 -590,613.75) translate(-590,613.75)" font-size="386.75">WC2020</text></g></use>
          <path d="M13168.13,97871.52l0,-6190" />
          <path d="M13548.13,97681.52l0,-5620" />
          <path d="M84168.13,98061.52l0,710" />
          <path d="M84168.13,98771.52l380,0" />
          <path d="M84548.13,98771.52l0,-900" />
          <path d="M84548.13,101371.52l0,-600" />
          <path d="M84548.13,100771.52l-380,0" />
          <path d="M84168.13,100771.52l0,410" />
          <use xlink:href="#$TCHSYS$WIN2D_2000x380" x="84358.13" y="99771.52" transform="scale(1,-1) translate(0,-199543.04) rotate(-90,84358.13,99771.52)">.<g class="blkclass0"><text transform="rotate(-90 613.75,445) translate(613.75,445)" font-size="386.75">WC2020</text></g></use>
          <use xlink:href="#$DorLib2D$00000002" x="12.945" y="65.248" transform="scale(1500,1500) scale(-1,1) translate(-25.89,0)" stroke-width="0.0001%">.<g class="blkclass0"><text transform="translate(-470,613.75)" font-size="386.75">M1530</text></g></use>
          <path d="M28048.13,92061.52l575,0" />
          <path d="M28623.13,92061.52l0,-380" />
          <path d="M28623.13,91681.52l-765,0" />
          <path d="M38358.13,91681.52l-735,0" />
          <path d="M37623.13,91681.52l0,380" />
          <path d="M37623.13,92061.52l545,0" />
          <path d="M30623.13,92061.52l1500,0" />
          <path d="M32123.13,92061.52l0,-380" />
          <path d="M32123.13,91681.52l-1500,0" />
          <path d="M30623.13,91681.52l0,380" />
          <path d="M34123.13,92061.52l1500,0" />
          <path d="M35623.13,92061.52l0,-380" />
          <path d="M35623.13,91681.52l-1500,0" />
          <path d="M34123.13,91681.52l0,380" />
          <use xlink:href="#$TCHSYS$WIN2D_2000x380" x="29623.13" y="91871.52" transform="scale(-1,1) translate(-59246.26,0)">.<g class="blkclass0"><text transform="translate(-595,-314.4)" font-size="386.75">WC2020</text></g></use>
          <use xlink:href="#$TCHSYS$WIN2D_2000x380" x="33123.13" y="91871.52" transform="scale(-1,-1) translate(-66246.26,-183743.04)">.<g class="blkclass0"><text transform="translate(-595,-316.25)" font-size="386.75">WC2020</text></g></use>
          <use xlink:href="#$TCHSYS$WIN2D_2000x380" x="36623.13" y="91871.52" transform="scale(-1,-1) translate(-73246.26,-183743.04)">.<g class="blkclass0"><text transform="translate(-595,-316.25)" font-size="386.75">WC2020</text></g></use>
          <path d="M27858.13,98061.52l750,0" />
          <path d="M28608.13,98061.52l0,-380" />
          <path d="M28608.13,97681.52l-560,0" />
          <path d="M38168.13,97681.52l-410,0" />
          <path d="M37758.13,97681.52l0,380" />
          <path d="M37758.13,98061.52l600,0" />
          <path d="M29608.13,98061.52l7150,0" />
          <path d="M36758.13,98061.52l0,-380" />
          <path d="M36758.13,97681.52l-7150,0" />
          <path d="M29608.13,97681.52l0,380" />
          <use xlink:href="#$DorLib2D$00000001" x="29.108" y="97.872" transform="scale(1000,1000) scale(-1,1) translate(-58.22,0)" stroke-width="0.0001%">.<g class="blkclass0"><text transform="translate(-470,613.75)" font-size="386.75">M1030</text></g></use>
          <use xlink:href="#$DorLib2D$00000001" x="37.258" y="97.872" transform="scale(1000,1000)" stroke-width="0.0001%">.<g class="blkclass0"><text transform="translate(-470,613.75)" font-size="386.75">M1030</text></g></use>
          <path d="M27668.13,97681.52l0,-5620" />
          <path d="M28048.13,97681.52l0,-5620" />
          <path d="M38548.13,92061.52l575,0" />
          <path d="M39123.13,92061.52l0,-380" />
          <path d="M39123.13,91681.52l-765,0" />
          <path d="M45358.13,91681.52l-735,0" />
          <path d="M44623.13,91681.52l0,380" />
          <path d="M44623.13,92061.52l545,0" />
          <path d="M41123.13,92061.52l1500,0" />
          <path d="M42623.13,92061.52l0,-380" />
          <path d="M42623.13,91681.52l-1500,0" />
          <path d="M41123.13,91681.52l0,380" />
          <use xlink:href="#$TCHSYS$WIN2D_2000x380" x="40123.13" y="91871.52" transform="scale(-1,-1) translate(-80246.26,-183743.04)">.<g class="blkclass0"><text transform="translate(-595,-316.25)" font-size="386.75">WC2020</text></g></use>
          <use xlink:href="#$TCHSYS$WIN2D_2000x380" x="43623.13" y="91871.52" transform="scale(-1,-1) translate(-87246.26,-183743.04)">.<g class="blkclass0"><text transform="translate(-595,-316.25)" font-size="386.75">WC2020</text></g></use>
          <use xlink:href="#$DorLib2D$00000001" x="39.458" y="97.872" transform="scale(1000,1000) scale(-1,1) translate(-78.92,0)" stroke-width="0.0001%">.<g class="blkclass0"><text transform="translate(-470,613.75)" font-size="386.75">M1030</text></g></use>
          <path d="M38168.13,97681.52l0,-5620" />
          <path d="M38548.13,97681.52l0,-5620" />
          <path d="M45548.13,92061.52l530,0" />
          <path d="M46078.13,92061.52l0,-380" />
          <path d="M46078.13,91681.52l-720,0" />
          <path d="M52358.13,91681.52l-720,0" />
          <path d="M51638.13,91681.52l0,380" />
          <path d="M51638.13,92061.52l530,0" />
          <path d="M47678.13,92061.52l380,0" />
          <path d="M48058.13,92061.52l0,-380" />
          <path d="M48058.13,91681.52l-380,0" />
          <path d="M47678.13,91681.52l0,380" />
          <path d="M49658.13,92061.52l380,0" />
          <path d="M50038.13,92061.52l0,-380" />
          <path d="M50038.13,91681.52l-380,0" />
          <path d="M49658.13,91681.52l0,380" />
          <use xlink:href="#$TCHSYS$WIN2D_1600x380" x="48858.13" y="91871.52" transform="scale(1,-1) translate(0,-183743.04)">.<g class="blkclass0"><text transform="translate(-580,-493.27)" font-size="386.75">WC1624</text></g></use>
          <use xlink:href="#$TCHSYS$WIN2D_1600x380" x="46878.13" y="91871.52">.<g class="blkclass0"><text transform="translate(-530,-501.15)" font-size="386.75">WC1624</text></g></use>
          <use xlink:href="#$TCHSYS$WIN2D_1600x380" x="50838.13" y="91871.52" transform="scale(1,-1) translate(0,-183743.04)">.<g class="blkclass0"><text transform="translate(-630,-493.27)" font-size="386.75">WC1624</text></g></use>
          <path d="M45168.13,97681.52l0,-5620" />
          <path d="M45548.13,98061.52l0,-6000" />
          <path d="M52548.13,92061.52l545,0" />
          <path d="M53093.13,92061.52l0,-380" />
          <path d="M53093.13,91681.52l-735,0" />
          <path d="M55858.13,91681.52l-765,0" />
          <path d="M55093.13,91681.52l0,380" />
          <path d="M55093.13,92061.52l575,0" />
          <use xlink:href="#$TCHSYS$WIN2D_2000x380" x="54093.13" y="91871.52" transform="scale(1,-1) translate(0,-183743.04)">.<g class="blkclass0"><text transform="translate(-595,-316.25)" font-size="386.75">WC2020</text></g></use>
          <path d="M52168.13,98061.52l0,-6000" />
          <path d="M52548.13,97681.52l0,-5620" />
          <path d="M59548.13,92061.52l545,0" />
          <path d="M60093.13,92061.52l0,-380" />
          <path d="M60093.13,91681.52l-735,0" />
          <path d="M69858.13,91681.52l-765,0" />
          <path d="M69093.13,91681.52l0,380" />
          <path d="M69093.13,92061.52l575,0" />
          <path d="M62093.13,92061.52l1500,0" />
          <path d="M63593.13,92061.52l0,-380" />
          <path d="M63593.13,91681.52l-1500,0" />
          <path d="M62093.13,91681.52l0,380" />
          <path d="M65593.13,92061.52l1500,0" />
          <path d="M67093.13,92061.52l0,-380" />
          <path d="M67093.13,91681.52l-1500,0" />
          <path d="M65593.13,91681.52l0,380" />
          <use xlink:href="#$TCHSYS$WIN2D_2000x380" x="68093.13" y="91871.52" transform="scale(1,-1) translate(0,-183743.04) rotate(0,68093.13,91871.52)">.<g class="blkclass0"><text transform="translate(-595,-316.25)" font-size="386.75">WC2020</text></g></use>
          <use xlink:href="#$TCHSYS$WIN2D_2000x380" x="64593.13" y="91871.52" transform="scale(1,-1) translate(0,-183743.04) rotate(0,64593.13,91871.52)">.<g class="blkclass0"><text transform="translate(-595,-316.25)" font-size="386.75">WC2020</text></g></use>
          <use xlink:href="#$TCHSYS$WIN2D_2000x380" x="61093.13" y="91871.52" transform="scale(1,-1) translate(0,-183743.04) rotate(0,61093.13,91871.52)">.<g class="blkclass0"><text transform="translate(-595,-316.25)" font-size="386.75">WC2020</text></g></use>
          <path d="M59358.13,98061.52l720,0" />
          <path d="M60078.13,98061.52l0,-380" />
          <path d="M60078.13,97681.52l-530,0" />
          <path d="M69668.13,97681.52l-560,0" />
          <path d="M69108.13,97681.52l0,380" />
          <path d="M69108.13,98061.52l750,0" />
          <path d="M61078.13,98061.52l7030,0" />
          <path d="M68108.13,98061.52l0,-380" />
          <path d="M68108.13,97681.52l-7030,0" />
          <path d="M61078.13,97681.52l0,380" />
          <use xlink:href="#$DorLib2D$00000001" x="68.608" y="97.872" transform="scale(1000,1000)" stroke-width="0.0001%">.<g class="blkclass0"><text transform="translate(-470,613.75)" font-size="386.75">M1030</text></g></use>
          <use xlink:href="#$DorLib2D$00000001" x="60.578" y="97.872" transform="scale(1000,1000) scale(-1,1) translate(-121.16,0)" stroke-width="0.0001%">.<g class="blkclass0"><text transform="translate(-470,613.75)" font-size="386.75">M1030</text></g></use>
          <path d="M59168.13,97681.52l0,-5620" />
          <path d="M59548.13,97681.52l0,-5620" />
          <path d="M70048.13,92061.52l545,0" />
          <path d="M70593.13,92061.52l0,-380" />
          <path d="M70593.13,91681.52l-735,0" />
          <path d="M84548.13,91681.52l-1977.5,0" />
          <path d="M82570.63,91681.52l0,380" />
          <path d="M82570.63,92061.52l1597.5,0" />
          <path d="M72593.13,92061.52l1500,0" />
          <path d="M74093.13,92061.52l0,-380" />
          <path d="M74093.13,91681.52l-1500,0" />
          <path d="M72593.13,91681.52l0,380" />
          <path d="M76093.13,92061.52l1500,0" />
          <path d="M77593.13,92061.52l0,-380" />
          <path d="M77593.13,91681.52l-1500,0" />
          <path d="M76093.13,91681.52l0,380" />
          <path d="M79593.13,92061.52l1977.5,0" />
          <path d="M81570.63,92061.52l0,-380" />
          <path d="M81570.63,91681.52l-1977.5,0" />
          <path d="M79593.13,91681.52l0,380" />
          <use xlink:href="#$TCHSYS$WIN2D_1000x380" x="82070.63" y="91871.52" transform="scale(1,-1) translate(0,-183743.04)">.<g class="blkclass0"><text transform="translate(-595,-316.25)" font-size="386.75">WC0920</text></g></use>
          <use xlink:href="#$TCHSYS$WIN2D_2000x380" x="78593.13" y="91871.52" transform="scale(1,-1) translate(0,-183743.04)">.<g class="blkclass0"><text transform="translate(-595,-316.25)" font-size="386.75">WC2020</text></g></use>
          <use xlink:href="#$TCHSYS$WIN2D_2000x380" x="75093.13" y="91871.52" transform="scale(1,-1) translate(0,-183743.04)">.<g class="blkclass0"><text transform="translate(-595,-316.25)" font-size="386.75">WC2020</text></g></use>
          <use xlink:href="#$TCHSYS$WIN2D_2000x380" x="71593.13" y="91871.52" transform="scale(1,-1) translate(0,-183743.04)">.<g class="blkclass0"><text transform="translate(-595,-316.25)" font-size="386.75">WC2020</text></g></use>
          <use xlink:href="#$DorLib2D$00000002" x="47.572" y="65.248" transform="scale(1500,1500)" stroke-width="0.0001%">.<g class="blkclass0"><text transform="translate(-470,613.75)" font-size="386.75">M1530</text></g></use>
          <path d="M69668.13,97681.52l0,-5620" />
          <path d="M70048.13,97681.52l0,-5620" />
          <path d="M56048.13,92061.52l545,0" />
          <path d="M56593.13,92061.52l0,-380" />
          <path d="M56593.13,91681.52l-735,0" />
          <path d="M59358.13,91681.52l-765,0" />
          <path d="M58593.13,91681.52l0,380" />
          <path d="M58593.13,92061.52l575,0" />
          <use xlink:href="#$TCHSYS$WIN2D_2000x380" x="57593.13" y="91871.52" transform="scale(1,-1) translate(0,-183743.04)">.<g class="blkclass0"><text transform="translate(-595,-316.25)" font-size="386.75">WC2020</text></g></use>
          <path d="M55858.13,98061.52l1780,0" />
          <path d="M57638.13,98061.52l0,-380" />
          <path d="M57638.13,97681.52l-1590,0" />
          <path d="M59168.13,97681.52l-530,0" />
          <path d="M58638.13,97681.52l0,380" />
          <path d="M58638.13,98061.52l720,0" />
          <use xlink:href="#$DorLib2D$00000001" x="58.138" y="97.872" transform="scale(1000,1000)" stroke-width="0.0001%">.<g class="blkclass0"><text transform="translate(-470,613.75)" font-size="386.75">M1030</text></g></use>
          <path d="M55668.13,97681.52l0,-5620" />
          <path d="M56048.13,97681.52l0,-5620" />
          <path d="M76048.13,100181.52l-4760,0" />
          <path d="M71288.13,100181.52l0,380" />
          <path d="M71288.13,100561.52l4380,0" />
          <path d="M70048.13,100561.52l240,0" />
          <path d="M70288.13,100561.52l0,-380" />
          <path d="M70288.13,100181.52l-430,0" />
          <path d="M70048.13,111681.52l0,-100" />
          <path d="M70048.13,111581.52l-380,0" />
          <path d="M69668.13,111581.52l0,290" />
          <path d="M69668.13,109131.52l0,950" />
          <path d="M69668.13,110081.52l380,0" />
          <path d="M70048.13,110081.52l0,-950" />
          <use xlink:href="#$TCHSYS$WIN2D_1500x380" x="69858.13" y="110831.52" transform="scale(1,-1) translate(0,-221663.04) rotate(-270,69858.13,110831.52)">.<g class="blkclass0"><text transform="rotate(-90 -316.25,575) translate(-316.25,575)" font-size="386.75">WC1520</text></g></use>
          <path d="M84168.13,112061.52l0,710" />
          <path d="M84168.13,112771.52l380,0" />
          <path d="M84548.13,112771.52l0,-900" />
          <path d="M84548.13,122561.52l0,-7790" />
          <path d="M84548.13,114771.52l-380,0" />
          <path d="M84168.13,114771.52l0,7410" />
          <use xlink:href="#$TCHSYS$WIN2D_2000x380" x="84358.13" y="113771.52" transform="scale(-1,-1) translate(-168716.26,-227543.04) rotate(-270,84358.13,113771.52)">.<g class="blkclass0"><text transform="rotate(-90 613.75,695) translate(613.75,695)" font-size="386.75">WC2020</text></g></use>
          <path d="M70048.13,111681.52l5620,0" />
          <path d="M70048.13,112061.52l6000,0" />
          <path d="M69668.13,106501.52l0,-3150" />
          <path d="M70048.13,106691.52l0,-3150" />
          <path d="M76048.13,112061.52l0,-1060" />
          <path d="M76048.13,111001.52l-380,0" />
          <path d="M75668.13,111001.52l0,680" />
          <path d="M75668.13,109131.52l0,870" />
          <path d="M75668.13,110001.52l380,0" />
          <path d="M76048.13,110001.52l0,-870" />
          <path d="M62943.13,100561.52l265,0" />
          <path d="M63208.13,100561.52l0,-380" />
          <path d="M63208.13,100181.52l-365,0" />
          <path d="M66723.13,100181.52l-2515,0" />
          <path d="M64208.13,100181.52l0,380" />
          <path d="M64208.13,100561.52l2515,0" />
          <path d="M78548.13,111681.52l0,-360" />
          <path d="M78548.13,111321.52l-380,0" />
          <path d="M78168.13,111321.52l0,740" />
          <path d="M78168.13,104871.52l0,490" />
          <path d="M78168.13,105361.52l380,0" />
          <path d="M78548.13,105361.52l0,-300" />
          <path d="M78548.13,110321.52l0,-3960" />
          <path d="M78548.13,106361.52l-380,0" />
          <path d="M78168.13,106361.52l0,3960" />
          <path d="M78168.13,110321.52l380,0" />
          <use xlink:href="#$DorLib2D$00000001" x="78.358" y="105.862" transform="scale(1000,1000) scale(1,-1) translate(0,-211.72) rotate(-270,78.36,105.86)" stroke-width="0.0001%">.<g class="blkclass0"><text transform="rotate(-90 -217.5,470) translate(-217.5,470)" font-size="386.75">M1030</text></g></use>
          <path d="M78548.13,111681.52l5620,0" />
          <path d="M78168.13,112061.52l6000,0" />
          <path d="M84168.13,101561.52l0,710" />
          <path d="M84168.13,102271.52l380,0" />
          <path d="M84548.13,102271.52l0,-900" />
          <path d="M84548.13,104871.52l0,-600" />
          <path d="M84548.13,104271.52l-380,0" />
          <path d="M84168.13,104271.52l0,410" />
          <use xlink:href="#$TCHSYS$WIN2D_2000x380" x="84358.13" y="103271.52" transform="scale(-1,-1) translate(-168716.26,-206543.04) rotate(-270,84358.13,103271.52)">.<g class="blkclass0"><text transform="rotate(-90 613.75,595) translate(613.75,595)" font-size="386.75">WC2020</text></g></use>
          <path d="M78168.13,101181.52l6000,0" />
          <path d="M78548.13,101561.52l5620,0" />
          <path d="M69858.13,98061.52l750,0" />
          <path d="M70608.13,98061.52l0,-380" />
          <path d="M70608.13,97681.52l-560,0" />
          <path d="M84168.13,97681.52l-5120,0" />
          <path d="M79048.13,97681.52l0,380" />
          <path d="M79048.13,98061.52l5120,0" />
          <path d="M72108.13,98061.52l5440,0" />
          <path d="M77548.13,98061.52l0,-380" />
          <path d="M77548.13,97681.52l-5440,0" />
          <path d="M72108.13,97681.52l0,380" />
          <use xlink:href="#$DorLib2D$00000002" x="52.199" y="65.248" transform="scale(1500,1500)" stroke-width="0.0001%">.<g class="blkclass0"><text transform="translate(-470,613.75)" font-size="386.75">M1530</text></g></use>
          <path d="M75668.13,103161.52l0,-2600" />
          <path d="M76048.13,103351.52l0,-3170" />
          <path d="M75794.8,101961.52l0,-1200" />
          <path d="M75921.46,101961.52l0,-1200" />
          <path d="M75668.13,100761.52l380,0" />
          <path d="M75668.13,101961.52l380,0" />
          <path d="M78548.13,104681.52l0,-300" />
          <path d="M78548.13,104381.52l-380,0" />
          <path d="M78168.13,104381.52l0,490" />
          <path d="M78168.13,101181.52l0,2200" />
          <path d="M78168.13,103381.52l380,0" />
          <path d="M78548.13,103381.52l0,-1820" />
          <path d="M27668.13,106691.52l0,390" />
          <path d="M27668.13,107081.52l380,0" />
          <path d="M28048.13,107081.52l0,-200" />
          <path d="M28048.13,111871.52l0,-290" />
          <path d="M28048.13,111581.52l-380,0" />
          <path d="M27668.13,111581.52l0,100" />
          <path d="M27668.13,108581.52l0,1500" />
          <path d="M27668.13,110081.52l380,0" />
          <path d="M28048.13,110081.52l0,-1500" />
          <path d="M28048.13,108581.52l-380,0" />
          <use xlink:href="#$TCHSYS$WIN2D_1500x380" x="27858.13" y="107831.52" transform="scale(-1,1) translate(-55716.26,0) rotate(-90,27858.13,107831.52)">.<g class="blkclass0"><text transform="rotate(-90 683.46,575) translate(683.46,575)" font-size="386.75">WC1520</text></g></use>
          <use xlink:href="#$TCHSYS$WIN2D_1500x380" x="27858.13" y="110831.52" transform="scale(-1,-1) translate(-55716.26,-221663.04) rotate(-270,27858.13,110831.52)">.<g class="blkclass0"><text transform="rotate(-90 613.75,575) translate(613.75,575)" font-size="386.75">WC1520</text></g></use>
          <use xlink:href="#$DorLib2D$00000001" x="54.638" y="97.872" transform="scale(1000,1000)" stroke-width="0.0001%">.<g class="blkclass0"><text transform="translate(-470,613.75)" font-size="386.75">M1030</text></g></use>
          <use xlink:href="#$DorLib2D$00000001" x="78.358" y="103.882" transform="scale(1000,1000) scale(-1,-1) translate(-156.72,-207.76) rotate(-90,78.36,103.88)" stroke-width="0.0001%">.<g class="blkclass0"><text transform="rotate(-90 -217.5,425) translate(-217.5,425)" font-size="386.75">M1021</text></g></use>
          <path d="M84168.13,105061.52l0,710" />
          <path d="M84168.13,105771.52l380,0" />
          <path d="M84548.13,105771.52l0,-900" />
          <path d="M84548.13,111871.52l0,-600" />
          <path d="M84548.13,111271.52l-380,0" />
          <path d="M84168.13,111271.52l0,410" />
          <path d="M84168.13,107771.52l0,1500" />
          <path d="M84168.13,109271.52l380,0" />
          <path d="M84548.13,109271.52l0,-1500" />
          <path d="M84548.13,107771.52l-380,0" />
          <use xlink:href="#$TCHSYS$WIN2D_2000x380" x="84358.13" y="106771.52" transform="scale(-1,-1) translate(-168716.26,-213543.04) rotate(-270,84358.13,106771.52)">.<g class="blkclass0"><text transform="rotate(-90 613.75,695) translate(613.75,695)" font-size="386.75">WC2020</text></g></use>
          <use xlink:href="#$TCHSYS$WIN2D_2000x380" x="84358.13" y="110271.52" transform="scale(-1,-1) translate(-168716.26,-220543.04) rotate(-270,84358.13,110271.52)">.<g class="blkclass0"><text transform="rotate(-90 613.75,695) translate(613.75,695)" font-size="386.75">WC2020</text></g></use>
          <path d="M78548.13,104681.52l5620,0" />
          <path d="M78548.13,105061.52l5620,0" />
          <path d="M70048.13,103161.52l5620,0" />
          <path d="M70048.13,103541.52l5620,0" />
          <path d="M69668.13,103351.52l0,-2790" />
          <path d="M70048.13,103161.52l0,-2600" />
          <path d="M70048.13,109031.52l5620,0" />
          <path d="M70048.13,109231.52l5620,0" />
          <path d="M70048.13,109131.52l0,-550" />
          <path d="M70048.13,108581.52l-380,0" />
          <path d="M69668.13,108581.52l0,550" />
          <path d="M69668.13,106881.52l0,200" />
          <path d="M69668.13,107081.52l380,0" />
          <path d="M70048.13,107081.52l0,-390" />
          <use xlink:href="#$TCHSYS$WIN2D_1500x380" x="69858.13" y="107831.52" transform="scale(1,-1) translate(0,-215663.04) rotate(-270,69858.13,107831.52)">.<g class="blkclass0"><text transform="rotate(-90 -316.25,575) translate(-316.25,575)" font-size="386.75">WC1520</text></g></use>
          <path d="M76048.13,109131.52l0,-4140" />
          <path d="M76048.13,104991.52l-380,0" />
          <path d="M75668.13,104991.52l0,4140" />
          <path d="M75668.13,103541.52l0,450" />
          <path d="M75668.13,103991.52l380,0" />
          <path d="M76048.13,103991.52l0,-640" />
          <path d="M19548.13,111681.52l0,-750" />
          <path d="M19548.13,110931.52l-380,0" />
          <path d="M19168.13,110931.52l0,750" />
          <path d="M19168.13,105061.52l0,4870" />
          <path d="M19168.13,109931.52l380,0" />
          <path d="M19548.13,109931.52l0,-5060" />
          <use xlink:href="#$DorLib2D$00000001" x="19.358" y="110.432" transform="scale(1000,1000) scale(-1,1) translate(-38.72,0) rotate(-270,19.36,110.43)" stroke-width="0.0001%">.<g class="blkclass0"><text transform="rotate(-90 668.41,470) translate(668.41,470)" font-size="386.75">M1030</text></g></use>
          <path d="M19168.13,101561.52l-5620,0" />
          <path d="M19548.13,101181.52l-6000,0" />
          <path d="M22048.13,103161.52l0,-1400" />
          <path d="M22048.13,101761.52l-380,0" />
          <path d="M21668.13,101761.52l0,1590" />
          <path d="M21668.13,100181.52l0,580" />
          <path d="M21668.13,100761.52l380,0" />
          <path d="M22048.13,100761.52l0,-200" />
          <path d="M19548.13,104871.52l0,-490" />
          <path d="M19548.13,104381.52l-380,0" />
          <path d="M19168.13,104381.52l0,300" />
          <path d="M19168.13,101561.52l0,1820" />
          <path d="M19168.13,103381.52l380,0" />
          <path d="M19548.13,103381.52l0,-2200" />
          <use xlink:href="#$DorLib2D$00000002" x="17.572" y="65.248" transform="scale(1500,1500) scale(-1,1) translate(-35.14,0)" stroke-width="0.0001%">.<g class="blkclass0"><text transform="translate(-470,613.75)" font-size="386.75">M1530</text></g></use>
          <use xlink:href="#$DorLib2D$00000001" x="19.358" y="103.882" transform="scale(1000,1000) scale(-1,1) translate(-38.72,0) rotate(-270,19.36,103.88)" stroke-width="0.0001%">.<g class="blkclass0"><text transform="rotate(-90 515,425) translate(515,425)" font-size="386.75">M1021</text></g></use>
          <path d="M19168.13,105061.52l-5620,0" />
          <path d="M19168.13,104681.52l-5620,0" />
          <path d="M27668.13,103541.52l-3074.92,0" />
          <path d="M27668.13,103161.52l-2999.92,0" />
          <path d="M22048.13,111681.52l0,-750" />
          <path d="M22048.13,110931.52l-380,0" />
          <path d="M21668.13,110931.52l0,750" />
          <path d="M21668.13,109331.52l0,600" />
          <path d="M21668.13,109931.52l380,0" />
          <path d="M22048.13,109931.52l0,-500" />
          <use xlink:href="#$DorLib2D$00000001" x="21.858" y="110.432" transform="scale(1000,1000) scale(1,-1) translate(0,-220.86) rotate(-270,21.86,110.43)" stroke-width="0.0001%">.<g class="blkclass0"><text transform="rotate(-90 -366.68,470) translate(-366.68,470)" font-size="386.75">M1030</text></g></use>
          <use xlink:href="#$TCHSYS$WIN2D_1500x380" x="27858.13" y="113831.52" transform="scale(-1,-1) translate(-55716.26,-227663.04) rotate(-270,27858.13,113831.52)">.<g class="blkclass0"><text transform="rotate(-90 611.5,575) translate(611.5,575)" font-size="386.75">WC1520</text></g></use>
          <use xlink:href="#$TCHSYS$WIN2D_1500x380" x="27858.13" y="116831.52" transform="scale(-1,-1) translate(-55716.26,-233663.04) rotate(-270,27858.13,116831.52)">.<g class="blkclass0"><text transform="rotate(-90 613.75,575) translate(613.75,575)" font-size="386.75">WC1520</text></g></use>
          <use xlink:href="#$TCHSYS$WIN2D_1500x380" x="27858.13" y="119831.52" transform="scale(-1,1) translate(-55716.26,0) rotate(-90,27858.13,119831.52)">.<g class="blkclass0"><text transform="rotate(-90 613.75,575) translate(613.75,575)" font-size="386.75">WC1520</text></g></use>
          <use xlink:href="#$TCHSYS$WIN2D_2000x380" x="13358.13" y="106771.52" transform="scale(1,-1) translate(0,-213543.04) rotate(-270,13358.13,106771.52)">.<g class="blkclass0"><text transform="rotate(-90 -316.25,695) translate(-316.25,695)" font-size="386.75">WC2020</text></g></use>
          <use xlink:href="#$TCHSYS$WIN2D_2000x380" x="13358.13" y="110271.52" transform="scale(1,-1) translate(0,-220543.04) rotate(-270,13358.13,110271.52)">.<g class="blkclass0"><text transform="rotate(-90 -316.25,695) translate(-316.25,695)" font-size="386.75">WC2020</text></g></use>
          <path d="M13548.13,101181.52l0,-410" />
          <path d="M13548.13,100771.52l-380,0" />
          <path d="M13168.13,100771.52l0,600" />
          <path d="M13168.13,97871.52l0,900" />
          <path d="M13168.13,98771.52l380,0" />
          <path d="M13548.13,98771.52l0,-710" />
          <use xlink:href="#$TCHSYS$WIN2D_2000x380" x="13358.13" y="99771.52" transform="scale(-1,-1) translate(-26716.26,-199543.04) rotate(-90,13358.13,99771.52)">.<g class="blkclass0"><text transform="rotate(-90 -316.25,445) translate(-316.25,445)" font-size="386.75">WC2020</text></g></use>
          <path d="M13548.13,98061.52l5120,0" />
          <path d="M18668.13,98061.52l0,-380" />
          <path d="M18668.13,97681.52l-5120,0" />
          <path d="M27668.13,97681.52l-560,0" />
          <path d="M27108.13,97681.52l0,380" />
          <path d="M27108.13,98061.52l750,0" />
          <path d="M20168.13,98061.52l5440,0" />
          <path d="M25608.13,98061.52l0,-380" />
          <path d="M25608.13,97681.52l-5440,0" />
          <path d="M20168.13,97681.52l0,380" />
          <path d="M13548.13,104681.52l0,-410" />
          <path d="M13548.13,104271.52l-380,0" />
          <path d="M13168.13,104271.52l0,600" />
          <path d="M13168.13,101371.52l0,900" />
          <path d="M13168.13,102271.52l380,0" />
          <path d="M13548.13,102271.52l0,-710" />
          <use xlink:href="#$TCHSYS$WIN2D_2000x380" x="13358.13" y="103271.52" transform="scale(1,-1) translate(0,-206543.04) rotate(-270,13358.13,103271.52)">.<g class="blkclass0"><text transform="rotate(-90 -316.25,595) translate(-316.25,595)" font-size="386.75">WC2020</text></g></use>
          <path d="M28048.13,103351.52l0,3150" />
          <path d="M27668.13,103541.52l0,3150" />
          <path d="M45548.13,100181.52l-2090,0" />
          <path d="M43458.13,100181.52l0,380" />
          <path d="M43458.13,100561.52l1710,0" />
          <path d="M41958.13,100561.52l500,0" />
          <path d="M42458.13,100561.52l0,-380" />
          <path d="M42458.13,100181.52l-600,0" />
          <path d="M52168.13,106501.52l-575,0" />
          <path d="M51593.13,106501.52l0,380" />
          <path d="M51593.13,106881.52l765,0" />
          <path d="M45358.13,106881.52l765,0" />
          <path d="M46123.13,106881.52l0,-380" />
          <path d="M46123.13,106501.52l-575,0" />
          <path d="M49593.13,106501.52l-1470,0" />
          <path d="M48123.13,106501.52l0,380" />
          <path d="M48123.13,106881.52l1470,0" />
          <path d="M49593.13,106881.52l0,-380" />
          <use xlink:href="#$TCHSYS$WIN2D_2000x380" x="50593.13" y="106691.52" transform="scale(-1,-1) translate(-101186.26,-213383.04) rotate(-180,50593.13,106691.52)">.<g class="blkclass0"><text transform="translate(-595,613.75)" font-size="386.75">WC2020</text></g></use>
          <use xlink:href="#$TCHSYS$WIN2D_2000x380" x="47123.13" y="106691.52" transform="scale(1,-1) translate(0,-213383.04) rotate(-180,47123.13,106691.52)">.<g class="blkclass0"><text transform="translate(-595,613.75)" font-size="386.75">WC2020</text></g></use>
          <use xlink:href="#$TCHSYS$WIN2D_2000x380" x="43623.13" y="106691.52" transform="scale(1,-1) translate(0,-213383.04) rotate(-180,43623.13,106691.52)">.<g class="blkclass0"><text transform="translate(-595,613.75)" font-size="386.75">WC2020</text></g></use>
          <use xlink:href="#$TCHSYS$WIN2D_2000x380" x="29623.13" y="106691.52" transform="scale(1,-1) translate(0,-213383.04) rotate(-180,29623.13,106691.52)">.<g class="blkclass0"><text transform="translate(-595,613.75)" font-size="386.75">WC2020</text></g></use>
          <use xlink:href="#$TCHSYS$WIN2D_2000x380" x="33123.13" y="106691.52" transform="scale(1,-1) translate(0,-213383.04) rotate(-180,33123.13,106691.52)">.<g class="blkclass0"><text transform="translate(-595,613.75)" font-size="386.75">WC2020</text></g></use>
          <use xlink:href="#$TCHSYS$WIN2D_2000x380" x="36623.13" y="106691.52" transform="scale(1,-1) translate(0,-213383.04) rotate(-180,36623.13,106691.52)">.<g class="blkclass0"><text transform="translate(-595,613.75)" font-size="386.75">WC2020</text></g></use>
          <use xlink:href="#$TCHSYS$WIN2D_2000x380" x="40123.13" y="106691.52" transform="scale(1,-1) translate(0,-213383.04) rotate(-180,40123.13,106691.52)">.<g class="blkclass0"><text transform="translate(-595,613.75)" font-size="386.75">WC2020</text></g></use>
          <path d="M52168.13,98061.52l1970,0" />
          <path d="M54138.13,98061.52l0,-380" />
          <path d="M54138.13,97681.52l-1590,0" />
          <path d="M55668.13,97681.52l-530,0" />
          <path d="M55138.13,97681.52l0,380" />
          <path d="M55138.13,98061.52l720,0" />
          <use xlink:href="#$DorLib2D$00000001" x="39.458" y="100.372" transform="scale(1000,1000) rotate(-180,39.46,100.37)" stroke-width="0.0001%">.<g class="blkclass0"><text transform="translate(-470,-316.25)" font-size="386.75">M1030</text></g></use>
          <path d="M38358.13,98061.52l600,0" />
          <path d="M38958.13,98061.52l0,-380" />
          <path d="M38958.13,97681.52l-410,0" />
          <path d="M45168.13,97681.52l-1800,0" />
          <path d="M43368.13,97681.52l0,380" />
          <path d="M43368.13,98061.52l2180,0" />
          <path d="M39958.13,98061.52l2410,0" />
          <path d="M42368.13,98061.52l0,-380" />
          <path d="M42368.13,97681.52l-2410,0" />
          <path d="M39958.13,97681.52l0,380" />
          <path d="M52168.13,106501.52l0,-6320" />
          <path d="M52548.13,106501.52l0,-5940" />
          <path d="M45168.13,106501.52l0,-5940" />
          <path d="M45548.13,106501.52l0,-6320" />
          <path d="M45168.13,106501.52l-545,0" />
          <path d="M44623.13,106501.52l0,380" />
          <path d="M44623.13,106881.52l735,0" />
          <path d="M28048.13,106881.52l575,0" />
          <path d="M28623.13,106881.52l0,-380" />
          <path d="M28623.13,106501.52l-575,0" />
          <path d="M42623.13,106501.52l-1500,0" />
          <path d="M41123.13,106501.52l0,380" />
          <path d="M41123.13,106881.52l1500,0" />
          <path d="M42623.13,106881.52l0,-380" />
          <path d="M39123.13,106501.52l-1500,0" />
          <path d="M37623.13,106501.52l0,380" />
          <path d="M37623.13,106881.52l1500,0" />
          <path d="M39123.13,106881.52l0,-380" />
          <path d="M35623.13,106501.52l-1500,0" />
          <path d="M34123.13,106501.52l0,380" />
          <path d="M34123.13,106881.52l1500,0" />
          <path d="M35623.13,106881.52l0,-380" />
          <path d="M32123.13,106501.52l-1500,0" />
          <path d="M30623.13,106501.52l0,380" />
          <path d="M30623.13,106881.52l1500,0" />
          <path d="M32123.13,106881.52l0,-380" />
          <path d="M45548.13,100381.52l1960,0" />
          <path d="M47508.13,100381.52l0,-200" />
          <path d="M47508.13,100181.52l-1960,0" />
          <path d="M45548.13,100181.52l0,200" />
          <path d="M52168.13,100181.52l-1960,0" />
          <path d="M50208.13,100181.52l0,200" />
          <path d="M50208.13,100381.52l1960,0" />
          <path d="M52168.13,100381.52l0,-200" />
          <path d="M48508.13,100381.52l700,0" />
          <path d="M49208.13,100381.52l0,-200" />
          <path d="M49208.13,100181.52l-700,0" />
          <path d="M48508.13,100181.52l0,200" />
          <path d="M48958.13,100381.52l0,6120" />
          <path d="M48758.13,100381.52l0,6120" />
          <path d="M48958.13,100381.52l-200,0" />
          <path d="M48958.13,106501.52l-200,0" />
          <path d="M13548.13,122181.52l0,-7410" />
          <path d="M13548.13,114771.52l-380,0" />
          <path d="M13168.13,114771.52l0,7790" />
          <path d="M13168.13,111871.52l0,900" />
          <path d="M13168.13,112771.52l380,0" />
          <path d="M13548.13,112771.52l0,-710" />
          <path d="M27668.13,112061.52l-5810,0" />
          <path d="M27668.13,111681.52l-5620,0" />
          <path d="M27668.13,112061.52l0,1020" />
          <path d="M27668.13,113081.52l380,0" />
          <path d="M28048.13,113081.52l0,-1210" />
          <path d="M28048.13,122561.52l0,-1980" />
          <path d="M28048.13,120581.52l-380,0" />
          <path d="M27668.13,120581.52l0,1600" />
          <path d="M27668.13,114581.52l0,1500" />
          <path d="M27668.13,116081.52l380,0" />
          <path d="M28048.13,116081.52l0,-1500" />
          <path d="M28048.13,114581.52l-380,0" />
          <path d="M27668.13,117581.52l0,1500" />
          <path d="M27668.13,119081.52l380,0" />
          <path d="M28048.13,119081.52l0,-1500" />
          <path d="M28048.13,117581.52l-380,0" />
          <path d="M13548.13,111681.52l0,-410" />
          <path d="M13548.13,111271.52l-380,0" />
          <path d="M13168.13,111271.52l0,600" />
          <path d="M13168.13,104871.52l0,900" />
          <path d="M13168.13,105771.52l380,0" />
          <path d="M13548.13,105771.52l0,-710" />
          <path d="M13548.13,109271.52l0,-1500" />
          <path d="M13548.13,107771.52l-380,0" />
          <path d="M13168.13,107771.52l0,1500" />
          <path d="M13168.13,109271.52l380,0" />
          <path d="M21668.13,111681.52l-310,0" />
          <path d="M21358.13,111681.52l0,380" />
          <path d="M21358.13,112061.52l500,0" />
          <path d="M19358.13,112061.52l500,0" />
          <path d="M19858.13,112061.52l0,-380" />
          <path d="M19858.13,111681.52l-310,0" />
          <path d="M38458.13,100561.52l0,5940" />
          <path d="M38258.13,100561.52l0,5940" />
          <path d="M38458.13,106501.52l-200,0" />
          <path d="M38358.13,100181.52l-600,0" />
          <path d="M37758.13,100181.52l0,380" />
          <path d="M37758.13,100561.52l500,0" />
          <path d="M31458.13,100561.52l5300,0" />
          <path d="M36758.13,100561.52l0,-380" />
          <path d="M36758.13,100181.52l-5400,0" />
          <use xlink:href="#$DorLib2D$00000001" x="37.258" y="100.372" transform="scale(1000,1000) scale(-1,1) translate(-74.52,0) rotate(-180,37.26,100.37)" stroke-width="0.0001%">.<g class="blkclass0"><text transform="translate(-470,-316.25)" font-size="386.75">M1030</text></g></use>
          <path d="M62943.13,100561.52l0,5940" />
          <path d="M62743.13,100561.52l0,5940" />
          <path d="M62943.13,106501.52l-200,0" />
          <path d="M62843.13,100181.52l-335,0" />
          <path d="M62508.13,100181.52l0,380" />
          <path d="M62508.13,100561.52l235,0" />
          <path d="M52548.13,100561.52l1960,0" />
          <path d="M54508.13,100561.52l0,-380" />
          <path d="M54508.13,100181.52l-2340,0" />
          <path d="M61508.13,100181.52l-4300,0" />
          <path d="M57208.13,100181.52l0,380" />
          <path d="M57208.13,100561.52l4300,0" />
          <path d="M61508.13,100561.52l0,-380" />
          <path d="M56208.13,100181.52l-700,0" />
          <path d="M55508.13,100181.52l0,380" />
          <path d="M55508.13,100561.52l700,0" />
          <path d="M56208.13,100561.52l0,-380" />
          <use xlink:href="#$DorLib2D$00000002" x="51.405" y="76.914" transform="scale(1500,1500) scale(-1,1) translate(-102.81,0)" stroke-width="0.0001%">.<g class="blkclass0"><text transform="translate(-470,555.57)" font-size="386.75">M1530</text></g></use>
          <path d="M78168.13,112061.52l0,900" />
          <path d="M78168.13,112961.52l200,0" />
          <path d="M78368.13,112961.52l0,-900" />
          <path d="M78368.13,112061.52l-200,0" />
          <path d="M78368.13,115271.52l0,-1310" />
          <path d="M78368.13,113961.52l-200,0" />
          <path d="M78168.13,113961.52l0,1310" />
          <use xlink:href="#$DorLib2D$00000001" x="78.268" y="113.462" transform="scale(1000,1000) scale(-1,1) translate(-156.54,0) rotate(-90,78.27,113.46)" stroke-width="0.0001%">.<g class="blkclass0"><text transform="rotate(-90 -216.25,470) translate(-216.25,470)" font-size="386.75">M1030</text></g></use>
          <path d="M78368.13,115271.52l5800,0" />
          <path d="M78268.13,115471.52l5900,0" />
          <path d="M84168.13,115271.52l0,200" />
          <path d="M75848.13,112061.52l0,900" />
          <path d="M75848.13,112961.52l200,0" />
          <path d="M76048.13,112961.52l0,-900" />
          <path d="M76048.13,112061.52l-200,0" />
          <path d="M76048.13,115271.52l0,-1310" />
          <path d="M76048.13,113961.52l-200,0" />
          <path d="M75848.13,113961.52l0,1310" />
          <use xlink:href="#$DorLib2D$00000001" x="75.948" y="113.462" transform="scale(1000,1000) scale(-1,-1) translate(-151.9,-226.92) rotate(-270,75.95,113.46)" stroke-width="0.0001%">.<g class="blkclass0"><text transform="rotate(-90 513.75,470) translate(513.75,470)" font-size="386.75">M1030</text></g></use>
          <path d="M75948.13,115471.52l410,0" />
          <path d="M76358.13,115471.52l0,-200" />
          <path d="M76358.13,115271.52l-310,0" />
          <path d="M78168.13,115271.52l-310,0" />
          <path d="M77858.13,115271.52l0,200" />
          <path d="M77858.13,115471.52l410,0" />
          <path d="M70048.13,115271.52l0,-690" />
          <path d="M70048.13,114581.52l-380,0" />
          <path d="M69668.13,114581.52l0,790" />
          <path d="M69668.13,111871.52l0,1210" />
          <path d="M69668.13,113081.52l380,0" />
          <path d="M70048.13,113081.52l0,-1020" />
          <path d="M19358.13,112061.52l-5810,0" />
          <path d="M19168.13,111681.52l-5620,0" />
          <use xlink:href="#$DorLib2D$00000002" x="13.739" y="74.581" transform="scale(1500,1500) scale(-1,-1) translate(-27.48,-149.16) rotate(-180,13.74,74.58)" stroke-width="0.0001%">.<g class="blkclass0"><text transform="translate(-470,610.34)" font-size="386.75">M1530</text></g></use>
          <path d="M22048.13,109231.52l5620,0" />
          <path d="M22048.13,109431.52l5620,0" />
          <path d="M27668.13,109231.52l0,200" />
          <use xlink:href="#$DorLib2D$00000001" x="21.858" y="107.932" transform="scale(1000,1000) scale(-1,-1) translate(-43.72,-215.86) rotate(-90,21.86,107.93)" stroke-width="0.0001%">.<g class="blkclass0"><text transform="rotate(-90 -397.94,470) translate(-397.94,470)" font-size="386.75">M1030</text></g></use>
          <path d="M31458.13,100561.52l0,5940" />
          <path d="M31258.13,100561.52l0,5940" />
          <path d="M31458.13,106501.52l-200,0" />
          <path d="M31358.13,100181.52l-720,0" />
          <path d="M30638.13,100181.52l0,380" />
          <path d="M30638.13,100561.52l620,0" />
          <path d="M28048.13,100561.52l1590,0" />
          <path d="M29638.13,100561.52l0,-380" />
          <path d="M29638.13,100181.52l-1780,0" />
          <use xlink:href="#$DorLib2D$00000001" x="30.138" y="100.372" transform="scale(1000,1000) scale(-1,1) translate(-60.28,0) rotate(-180,30.14,100.37)" stroke-width="0.0001%">.<g class="blkclass0"><text transform="translate(-470,-316.25)" font-size="386.75">M1030</text></g></use>
          <path d="M41958.13,100561.52l0,5940" />
          <path d="M41758.13,100561.52l0,5940" />
          <path d="M41958.13,106501.52l-200,0" />
          <path d="M41858.13,100181.52l-1900,0" />
          <path d="M39958.13,100181.52l0,380" />
          <path d="M39958.13,100561.52l1800,0" />
          <path d="M38458.13,100561.52l500,0" />
          <path d="M38958.13,100561.52l0,-380" />
          <path d="M38958.13,100181.52l-600,0" />
          <use xlink:href="#$DorLib2D$00000001" x="42.958" y="100.372" transform="scale(1000,1000) rotate(-180,42.96,100.37)" stroke-width="0.0001%">.<g class="blkclass0"><text transform="translate(-470,-316.25)" font-size="386.75">M1030</text></g></use>
          <path d="M55958.13,100561.52l0,5940" />
          <path d="M55758.13,100561.52l0,5940" />
          <path d="M55958.13,100561.52l-200,0" />
          <path d="M55958.13,106501.52l-200,0" />
          <path d="M59458.13,100561.52l0,5940" />
          <path d="M59258.13,100561.52l0,5940" />
          <path d="M59458.13,100561.52l-200,0" />
          <path d="M59458.13,106501.52l-200,0" />
          <use xlink:href="#$DorLib2D$00000001" x="49.708" y="100.282" transform="scale(1000,1000) scale(-1,-1) translate(-99.42,-200.56)" stroke-width="0.0001%">.<g class="blkclass0"><text transform="translate(-470,-226.25)" font-size="386.75">M1030</text></g></use>
          <use xlink:href="#$DorLib2D$00000001" x="48.008" y="100.282" transform="scale(1000,1000) scale(1,-1) translate(0,-200.56)" stroke-width="0.0001%">.<g class="blkclass0"><text transform="translate(-470,-226.25)" font-size="386.75">M1030</text></g></use>
          <use xlink:href="#$DorLib2D$00000001" x="56.708" y="100.372" transform="scale(1000,1000) rotate(-180,56.71,100.37)" stroke-width="0.0001%">.<g class="blkclass0"><text transform="translate(-470,-359.84)" font-size="386.75">M1030</text></g></use>
          <use xlink:href="#$DorLib2D$00000001" x="55.008" y="100.372" transform="scale(1000,1000) scale(-1,1) translate(-110.02,0) rotate(-180,55.01,100.37)" stroke-width="0.0001%">.<g class="blkclass0"><text transform="translate(-470,-389.89)" font-size="386.75">M1030</text></g></use>
          <use xlink:href="#$DorLib2D$00000001" x="63.708" y="100.372" transform="scale(1000,1000) rotate(-180,63.71,100.37)" stroke-width="0.0001%">.<g class="blkclass0"><text transform="translate(-470,-403.76)" font-size="386.75">M1030</text></g></use>
          <use xlink:href="#$DorLib2D$00000001" x="62.008" y="100.372" transform="scale(1000,1000) scale(-1,1) translate(-124.02,0) rotate(-180,62.01,100.37)" stroke-width="0.0001%">.<g class="blkclass0"><text transform="translate(-470,-411.95)" font-size="386.75">M1030</text></g></use>
          <path d="M66258.13,100561.52l0,600" />
          <path d="M66258.13,101161.52l200,0" />
          <path d="M66458.13,101161.52l0,-600" />
          <path d="M66458.13,100561.52l-200,0" />
          <path d="M66458.13,106501.52l0,-4340" />
          <path d="M66458.13,102161.52l-200,0" />
          <path d="M66258.13,102161.52l0,4340" />
          <path d="M66258.13,106501.52l200,0" />
          <path d="M41758.13,97681.52l0,-5620" />
          <path d="M41958.13,97681.52l0,-5620" />
          <path d="M41758.13,97681.52l200,0" />
          <path d="M41758.13,92061.52l200,0" />
          <use xlink:href="#$DorLib2D$00000001" x="42.868" y="97.872" transform="scale(1000,1000) scale(-1,1) translate(-85.74,0)" stroke-width="0.0001%">.<g class="blkclass0"><text transform="translate(-470,613.75)" font-size="386.75">M1030</text></g></use>
          <path d="M62808.13,97681.52l100,0" />
          <path d="M66258.13,97681.52l200,0" />
          <path d="M66258.13,92061.52l200,0" />
          <use xlink:href="#$DorLib2D$00000001" x="78.358" y="110.822" transform="scale(1000,1000) scale(-1,-1) translate(-156.72,-221.64) rotate(-90,78.36,110.82)" stroke-width="0.0001%">.<g class="blkclass0"><text transform="rotate(-90 -217.5,470) translate(-217.5,470)" font-size="386.75">M1030</text></g></use>
          <path d="M80238.13,101181.52l2430,0" />
          <path d="M80238.13,99731.52l0,1450" />
          <path d="M80508.13,99731.52l0,1450" />
          <path d="M80778.13,99731.52l0,1450" />
          <path d="M81048.13,99731.52l0,1450" />
          <path d="M81318.13,99731.52l0,1450" />
          <path d="M81588.13,99731.52l0,1450" />
          <path d="M81858.13,99731.52l0,1450" />
          <path d="M82128.13,99731.52l0,1450" />
          <path d="M82398.13,99731.52l0,1450" />
          <path d="M82668.13,99731.52l0,1450" />
          <path d="M80238.13,99671.52l2430,0" />
          <path d="M80238.13,99671.52l0,60" />
          <path d="M82668.13,98061.52l-2430,0" />
          <path d="M82668.13,99511.52l0,-1450" />
          <path d="M82398.13,99511.52l0,-1450" />
          <path d="M82128.13,99511.52l0,-1450" />
          <path d="M81858.13,99511.52l0,-1450" />
          <path d="M81588.13,99511.52l0,-1450" />
          <path d="M81318.13,99511.52l0,-1450" />
          <path d="M81048.13,99511.52l0,-1450" />
          <path d="M80778.13,99511.52l0,-1450" />
          <path d="M80508.13,99511.52l0,-1450" />
          <path d="M80238.13,99511.52l0,-1450" />
          <path d="M82668.13,99571.52l-2430,0" />
          <path d="M80238.13,99671.52l2520,0" />
          <path d="M82758.13,99671.52l0,-100" />
          <path d="M82758.13,99571.52l-2610,0" />
          <path d="M80148.13,99571.52l0,1610" />
          <path d="M80238.13,99731.52l2580,0" />
          <path d="M82818.13,99731.52l0,-220" />
          <path d="M82818.13,99511.52l-2730,0" />
          <path d="M80088.13,99511.52l0,1670" />
          <path d="M80238.13,99671.52l0,60" />
          <path d="M80148.13,101181.52l-60,0" />
          <path d="M82668.13,101181.52l1500,0" />
          <path d="M84168.13,101181.52l0,-3120" />
          <path d="M84168.13,98061.52l-1500,0" />
          <path d="M82668.13,98061.52l0,1450" />
          <path d="M82668.13,99571.52l0,100" />
          <path d="M82668.13,99731.52l0,1450" />
          <path d="M80238.13,99671.52l0,-100" />
          <path d="M80103.13,98816.52l3315,0l0,1610l-1530,0l-300,0" />
          <path d="M48858.13,97026.52l0,-3765l-2410,0l0,3195l0,300" />
          <path d="M48858.13,97026.52l0,-3765l2410,0l0,3195l0,300" />
          <path d="M45548.13,96891.52l0,-2430" />
          <path d="M47348.13,96891.52l0,-2430" />
          <path d="M45548.13,96891.52l1800,0" />
          <path d="M45548.13,96621.52l1800,0" />
          <path d="M45548.13,96351.52l1800,0" />
          <path d="M45548.13,96081.52l1800,0" />
          <path d="M45548.13,95811.52l1800,0" />
          <path d="M45548.13,95541.52l1800,0" />
          <path d="M45548.13,95271.52l1800,0" />
          <path d="M45548.13,95001.52l1800,0" />
          <path d="M45548.13,94731.52l1800,0" />
          <path d="M45548.13,94461.52l1800,0" />
          <path d="M50058.13,94461.52l0,2430" />
          <path d="M47658.13,94461.52l0,2430" />
          <path d="M50058.13,94461.52l-2400,0" />
          <path d="M50058.13,94731.52l-2400,0" />
          <path d="M50058.13,95001.52l-2400,0" />
          <path d="M50058.13,95271.52l-2400,0" />
          <path d="M50058.13,95541.52l-2400,0" />
          <path d="M50058.13,95811.52l-2400,0" />
          <path d="M50058.13,96081.52l-2400,0" />
          <path d="M50058.13,96351.52l-2400,0" />
          <path d="M50058.13,96621.52l-2400,0" />
          <path d="M50058.13,96891.52l-2400,0" />
          <path d="M50368.13,96891.52l0,-2430" />
          <path d="M52168.13,96891.52l0,-2430" />
          <path d="M50368.13,96891.52l1800,0" />
          <path d="M50368.13,96621.52l1800,0" />
          <path d="M50368.13,96351.52l1800,0" />
          <path d="M50368.13,96081.52l1800,0" />
          <path d="M50368.13,95811.52l1800,0" />
          <path d="M50368.13,95541.52l1800,0" />
          <path d="M50368.13,95271.52l1800,0" />
          <path d="M50368.13,95001.52l1800,0" />
          <path d="M50368.13,94731.52l1800,0" />
          <path d="M50368.13,94461.52l1800,0" />
          <path d="M47288.13,96891.52l0,-2490" />
          <path d="M47288.13,94401.52l430,0" />
          <path d="M47718.13,94401.52l0,2550" />
          <path d="M47718.13,96951.52l-2170,0" />
          <path d="M47348.13,96891.52l0,-2430" />
          <path d="M47348.13,94461.52l310,0" />
          <path d="M47658.13,94461.52l0,2430" />
          <path d="M47658.13,96891.52l-2110,0" />
          <path d="M47288.13,96891.52l60,0" />
          <path d="M45548.13,96951.52l0,-60" />
          <path d="M50368.13,96891.52l0,-2430" />
          <path d="M50368.13,94461.52l-310,0" />
          <path d="M50058.13,94461.52l0,2430" />
          <path d="M50058.13,96891.52l2110,0" />
          <path d="M50428.13,96891.52l0,-2490" />
          <path d="M50428.13,94401.52l-430,0" />
          <path d="M49998.13,94401.52l0,2550" />
          <path d="M49998.13,96951.52l2170,0" />
          <path d="M50368.13,96891.52l60,0" />
          <path d="M52168.13,96891.52l0,60" />
          <path d="M52168.13,94461.52l0,-2400" />
          <path d="M52168.13,92061.52l-6620,0" />
          <path d="M45548.13,92061.52l0,2400" />
          <path d="M45548.13,94461.52l6620,0" />
          <use xlink:href="#$DorLib2D$00000001" x="21.858" y="101.262" transform="scale(1000,1000) scale(-1,-1) translate(-43.72,-202.52) rotate(-90,21.86,101.26)" stroke-width="0.0001%">.<g class="blkclass0"><text transform="rotate(-90 -390.63,470) translate(-390.63,470)" font-size="386.75">M1030</text></g></use>
          <path d="M24668.21,100561.52l0,2600" />
          <path d="M24518.21,100561.52l0,2600" />
          <path d="M21668.13,100181.52l2925.08,0" />
          <path d="M22048.13,100561.52l2470.08,0" />
          <use xlink:href="#$DorLib2D$00000001" x="75.858" y="104.492" transform="scale(1000,1000) rotate(-90,75.86,104.49)" stroke-width="0.0001%">.<g class="blkclass0"><text transform="rotate(-90 612.43,470) translate(612.43,470)" font-size="386.75">M1030</text></g></use>
          <use xlink:href="#$DorLib2D$00000001" x="70.788" y="100.372" transform="scale(1000,1000) rotate(-180,70.79,100.37)" stroke-width="0.0001%">.<g class="blkclass0"><text transform="translate(-470,-314.61)" font-size="386.75">M1030</text></g></use>
          <use xlink:href="#$DorLib2D$00000001" x="75.858" y="110.502" transform="scale(1000,1000) rotate(-90,75.86,110.5)" stroke-width="0.0001%">.<g class="blkclass0"><text transform="rotate(-90 494.43,470) translate(494.43,470)" font-size="386.75">M1030</text></g></use>
          <path d="M17478.13,101181.52l-2430,0" />
          <path d="M17478.13,101181.52l0,-1450" />
          <path d="M17208.13,101181.52l0,-1450" />
          <path d="M16938.13,101181.52l0,-1450" />
          <path d="M16668.13,101181.52l0,-1450" />
          <path d="M16398.13,101181.52l0,-1450" />
          <path d="M16128.13,101181.52l0,-1450" />
          <path d="M15858.13,101181.52l0,-1450" />
          <path d="M15588.13,101181.52l0,-1450" />
          <path d="M15318.13,101181.52l0,-1450" />
          <path d="M15048.13,101181.52l0,-1450" />
          <path d="M17478.13,99671.52l-2430,0" />
          <path d="M17478.13,99731.52l0,-60" />
          <path d="M15048.13,98061.52l2430,0" />
          <path d="M15048.13,98061.52l0,1450" />
          <path d="M15318.13,98061.52l0,1450" />
          <path d="M15588.13,98061.52l0,1450" />
          <path d="M15858.13,98061.52l0,1450" />
          <path d="M16128.13,98061.52l0,1450" />
          <path d="M16398.13,98061.52l0,1450" />
          <path d="M16668.13,98061.52l0,1450" />
          <path d="M16938.13,98061.52l0,1450" />
          <path d="M17208.13,98061.52l0,1450" />
          <path d="M17478.13,98061.52l0,1450" />
          <path d="M15048.13,99571.52l2430,0" />
          <path d="M17478.13,99731.52l-2580,0" />
          <path d="M14898.13,99731.52l0,-220" />
          <path d="M14898.13,99511.52l2730,0" />
          <path d="M17628.13,99511.52l0,1670" />
          <path d="M17478.13,99671.52l-2520,0" />
          <path d="M14958.13,99671.52l0,-100" />
          <path d="M14958.13,99571.52l2610,0" />
          <path d="M17568.13,99571.52l0,1610" />
          <path d="M17478.13,99731.52l0,-60" />
          <path d="M17628.13,101181.52l-60,0" />
          <path d="M15048.13,98061.52l-1500,0" />
          <path d="M13548.13,98061.52l0,3120" />
          <path d="M13548.13,101181.52l1500,0" />
          <path d="M15048.13,101181.52l0,-1450" />
          <path d="M15048.13,99671.52l0,-100" />
          <path d="M15048.13,99511.52l0,-1450" />
          <path d="M17478.13,99671.52l0,-100" />
          <path d="M24668.21,100561.52l1439.92,0" />
          <path d="M26108.13,100561.52l0,-380" />
          <path d="M26108.13,100181.52l-1514.92,0" />
          <path d="M27858.13,100181.52l-750,0" />
          <path d="M27108.13,100181.52l0,380" />
          <path d="M27108.13,100561.52l560,0" />
          <path d="M24593.21,103541.52l-2545.08,0" />
          <path d="M24518.21,103161.52l-2470.08,0" />
          <path d="M23308.05,106616.52l4360.08,0" />
          <path d="M23308.05,106766.52l4360.08,0" />
          <path d="M27668.13,106616.52l0,150" />
          <use xlink:href="#$DorLib2D$00000001" x="28.123" y="134.002" transform="scale(800,800) scale(-1,1) translate(-56.25,0) rotate(0,28.12,134)" stroke-width="0.0001%">.<g class="blkclass0"><text transform="translate(-550,-196.62)" font-size="386.75">BM0821</text></g></use>
          <path d="M22048.13,109231.52l0,-800" />
          <path d="M22048.13,108431.52l-380,0" />
          <path d="M21668.13,108431.52l0,900" />
          <path d="M21668.13,103351.52l0,4080" />
          <path d="M21668.13,107431.52l380,0" />
          <path d="M22048.13,107431.52l0,-3890" />
          <path d="M22048.13,107191.52l50,0" />
          <path d="M22898.13,107191.52l369.92,0" />
          <path d="M22048.13,107211.52l50,0" />
          <path d="M22898.13,107211.52l389.92,0" />
          <path d="M22048.13,107231.52l50,0" />
          <path d="M22098.13,107231.52l0,-60" />
          <path d="M22098.13,107171.52l-50,0" />
          <path d="M22048.13,107171.52l0,60" />
          <path d="M23248.05,107171.52l-349.92,0" />
          <path d="M22898.13,107171.52l0,60" />
          <path d="M22898.13,107231.52l409.92,0" />
          <path d="M22048.13,106031.52l50,0" />
          <path d="M22898.13,106031.52l389.92,0" />
          <path d="M22048.13,106051.52l50,0" />
          <path d="M22898.13,106051.52l369.92,0" />
          <path d="M22048.13,106071.52l50,0" />
          <path d="M22098.13,106071.52l0,-60" />
          <path d="M22098.13,106011.52l-50,0" />
          <path d="M22048.13,106011.52l0,60" />
          <path d="M23308.05,106011.52l-409.92,0" />
          <path d="M22898.13,106071.52l349.92,0" />
          <path d="M23268.05,107191.52l0,-500" />
          <path d="M23288.05,107211.52l0,-520" />
          <path d="M23248.05,107171.52l0,-480" />
          <path d="M23308.05,107231.52l0,-540" />
          <path d="M23268.05,106691.52l0,-640" />
          <path d="M23288.05,106691.52l0,-660" />
          <path d="M23248.05,106691.52l0,-620" />
          <path d="M23308.05,106691.52l0,-680" />
          <use xlink:href="#$DorLib2D$00000001" x="28.123" y="132.552" transform="scale(800,800) scale(-1,1) translate(-56.25,0) rotate(0,28.12,132.55)" stroke-width="0.0001%">.<g class="blkclass0"><text transform="translate(-550,-121.87)" font-size="386.75">BM0821</text></g></use>
          <path d="M69858.13,100181.52l-2135,0" />
          <path d="M67704.44,100561.52l18.69,0l1945,0" />
          <path d="M70048.13,115471.52l4257.87,0l1000,0l642.13,0" />
          <path d="M75848.13,115271.52l-542.13,0l-1000,0l-4257.87,0" />
          <use xlink:href="#$DorLib2D$00000001" x="67.223" y="100.372" transform="scale(1000,1000) rotate(-180,67.22,100.37)" stroke-width="0.0001%">.<g class="blkclass0"><text transform="translate(-470,-403.76)" font-size="386.75">M1030</text></g></use>
          <path d="M66723.13,100561.52l0,-380" />
          <path d="M67723.13,100181.52l0,380" />
          <use xlink:href="#$DorLib2D$00000001" x="26.608" y="100.372" transform="scale(1000,1000) scale(1,-1) translate(0,-200.74) rotate(-180,26.61,100.37)" stroke-width="0.0001%">.</use>
          <path d="M27108.13,100181.52l0,380" />
          <path d="M26108.13,100561.52l0,-380" />
          <path d="M66258.13,101161.52l0,1000" />
          <path d="M66458.13,101161.52l0,1000" />
        </g>
        <g id="layer-0" class="i0">
          <path d="M59548.13,96031.52l0,100" />
        </g>
      </g>
      <g id="assets" fill="none">
        <g id="rm-assets" class="rm-asset">
          <path id="15013;F03;313" d="M13548.13,122181.52l14120,0l0,-10120l-14120,0z" />
          <path id="15013;F03;301" d="M70048.13,115471.52l14120,0l0,6710l-14120,0z" />
          <path id="15013;F03;304" d="M70048.13,92061.52l14120,0l0,5620l-14120,0z" />
          <path id="15013;F03;311" d="M13548.13,97681.52l14120,0l0,-5620l-14120,0z" />
          <path id="15013;F03;305" d="M59548.13,97681.52l10120,0l0,-5620l-10120,0z" />
          <path id="15013;F03;310" d="M28048.13,97681.52l10120,0l0,-5620l-10120,0z" />
          <path id="15013;F03;318" d="M31458.13,106501.52l6800,0l0,-5940l-6800,0z" />
          <path id="15013;F03;312" d="M13548.13,111681.52l5620,0l0,-6620l-5620,0z" />
          <path id="15013;F03;303" d="M78548.13,111681.52l5620,0l0,-6620l-5620,0z" />
          <path id="15013;F03;330" d="M70048.13,103541.52l5620,0l0,5490l-5620,0z" />
          <path id="15013;F03;327" d="M62943.13,106501.52l3315,0l0,-5940l-3315,0z" />
          <path id="15013;F03;321" d="M45548.13,106501.52l3210,0l0,-6120l-3210,0z" />
          <path id="15013;F03;322" d="M48958.13,100381.52l3210,0l0,6120l-3210,0z" />
          <path id="15013;F03;319" d="M38458.13,100561.52l3300,0l0,5940l-3300,0z" />
          <path id="15013;F03;325" d="M55958.13,106501.52l3300,0l0,-5940l-3300,0z" />
          <path id="15013;F03;326" d="M59458.13,100561.52l3285,0l0,5940l-3285,0z" />
          <path id="15013;F03;317" d="M28048.13,106501.52l3210,0l0,-5940l-3210,0z" />
          <path id="15013;F03;328" d="M66458.13,100561.52l3210,0l0,5940l-3210,0z" />
          <path id="15013;F03;320" d="M41958.13,106501.52l3210,0l0,-5940l-3210,0z" />
          <path id="15013;F03;323" d="M52548.13,106501.52l3210,0l0,-5940l-3210,0z" />
          <path id="15013;F03;302" d="M78368.13,115271.52l5800,0l0,-3210l-5800,0z" />
          <path id="15013;F03;332" d="M70048.13,112061.52l5785.05,0l0,3210l-5785.05,0z" />
          <path id="15013;F03;309" d="M38548.13,92061.52l3210,0l0,5620l-3210,0z" />
          <path id="15013;F03;308" d="M41958.13,97681.52l3210,0l0,-5620l-3210,0z" />
          <path id="15013;F03;306" d="M56048.13,97681.52l3120,0l0,-5620l-3120,0z" />
          <path id="15013;F03;307" d="M52548.13,97681.52l3120,0l0,-5620l-3120,0z" />
          <path id="15013;F03;329" d="M70048.13,103161.52l5620,0l0,-2600l-5620,0z" />
          <path id="15013;F03;331" d="M70048.13,111681.52l5620,0l0,-2450l-5620,0z" />
          <path id="15013;F03;315" d="M23308.05,107231.52l0,-465l4360.08,0l0,2465l-5620,0l0,-2000z" />
          <path id="15013;F03;314" d="M22048.13,111681.52l5620,0l0,-2250l-5620,0z" />
          <path id="15013;F03;316" d="M22048.13,103161.52l2470.08,0l0,-2600l-2470.08,0z" />
        </g>
      </g>
    </g>
    <g id="text" font-family="Arial" font-size="910" font-weight="normal" text-style="normal" text-anchor="start" dominant-baseline="alphabetical" fill="#FF0000" xml:space="preserve">
      <g id="layer-body-text" font-size="438.865" fill="#ff7f00" stroke="#ff7f00" stroke-width="0.02">
        <g transform="rotate(-90 76471.88,101916.52) translate(76471.88,101916.52)" font-size="386.75">
          <text>GC1209</text>
        </g>
        <g transform="translate(79808.24,98991.52)">
          <text>下</text>
        </g>
        <g transform="translate(48763.18,97481.52)">
          <text>下</text>
        </g>
        <g transform="translate(48763.18,97481.52)">
          <text>下</text>
        </g>
        <g transform="translate(25948.77,101011.52)" font-size="386.75">
          <text>FM1021</text>
        </g>
        <g transform="translate(27088.77,101011.52)">
          <text>乙</text>
        </g>
      </g>
      <g id="layer-name-text">
        <g transform="translate(80706.53,103021.52)" font-size="626.95">
          <text>女卫生间</text>
        </g>
        <g transform="translate(15714.51,103021.52)" font-size="626.95">
          <text>男卫生间</text>
        </g>
        <g transform="translate(25676.85,102466.79)" font-size="626.95">
          <text>弱电机房</text>
        </g>
        <g transform="translate(76563.85,116735.14)">
          <text>301</text>
        </g>
        <g transform="translate(79147.06,110848.28)">
          <text>303</text>
        </g>
        <g transform="translate(73782.51,110894.85)">
          <text>331</text>
        </g>
        <g transform="translate(70460.15,102140.39)">
          <text>329</text>
        </g>
        <g transform="translate(67061.16,102084.78)">
          <text>328</text>
        </g>
        <g transform="translate(77667.07,96963.06)">
          <text>304</text>
        </g>
        <g transform="translate(70674.18,96745.7)">
          <text>304</text>
        </g>
        <g transform="translate(68079.99,96730.17)">
          <text>305</text>
        </g>
        <g transform="translate(61455.41,102084.78)">
          <text>326</text>
        </g>
        <g transform="translate(59914.83,96730.17)">
          <text>305</text>
        </g>
        <g transform="translate(57577.48,96730.17)">
          <text>306</text>
        </g>
        <g transform="translate(54071.45,96730.17)">
          <text>307</text>
        </g>
        <g transform="translate(54208.07,102072.71)">
          <text>323</text>
        </g>
        <g transform="translate(42331.83,102072.71)">
          <text>320</text>
        </g>
        <g transform="translate(39612.79,102072.71)">
          <text>319</text>
        </g>
        <g transform="translate(38788.6,96730.17)">
          <text>309</text>
        </g>
        <g transform="translate(36575.99,96730.17)">
          <text>310</text>
        </g>
        <g transform="translate(28434.51,96730.17)">
          <text>310</text>
        </g>
        <g transform="translate(25809.24,96730.17)">
          <text>311</text>
        </g>
        <g transform="translate(23235.57,101737.93)">
          <text>316</text>
        </g>
        <g transform="translate(18886.64,96730.17)">
          <text>311</text>
        </g>
        <g transform="translate(22697.33,111203.11)">
          <text>314</text>
        </g>
        <g transform="translate(20103.31,113342.28)">
          <text>313</text>
        </g>
        <g transform="translate(22697.33,108205.16)">
          <text>315</text>
        </g>
        <g transform="translate(17337.39,110912.76)">
          <text>312</text>
        </g>
        <g transform="translate(79147.06,114234.21)">
          <text>302</text>
        </g>
        <g transform="translate(74067.69,114331.08)">
          <text>332</text>
        </g>
        <g transform="translate(79147.06,106557.19)">
          <text>303</text>
        </g>
        <g transform="translate(63273.49,102115.05)">
          <text>327</text>
        </g>
        <g transform="translate(56698.1,102084.78)">
          <text>325</text>
        </g>
        <g transform="translate(49578.1,102072.71)">
          <text>322</text>
        </g>
        <g transform="translate(46910.84,102072.71)">
          <text>321</text>
        </g>
        <g transform="translate(42143.65,96730.17)">
          <text>308</text>
        </g>
        <g transform="translate(36660.35,102072.71)">
          <text>318</text>
        </g>
        <g transform="translate(29614.75,102072.71)">
          <text>317</text>
        </g>
        <g transform="translate(73619.4,105074.5)">
          <text>330</text>
        </g>
      </g>
    </g>
    <g id="asset-labels" font-family="Arial" font-weight="bold" font-size="38.1em" text-anchor="middle">
      <g id="rm-labels">
        <g id="l-rm-15013;F03;313" transform="translate(20608.13,117121.52)">
          <text>313</text>
        </g>
        <g id="l-rm-15013;F03;301" transform="translate(77108.13,118826.52)">
          <text>301</text>
        </g>
        <g id="l-rm-15013;F03;304" transform="translate(77108.13,94871.52)">
          <text>304</text>
        </g>
        <g id="l-rm-15013;F03;311" transform="translate(20608.13,94871.52)">
          <text>311</text>
        </g>
        <g id="l-rm-15013;F03;305" transform="translate(64608.13,94871.52)">
          <text>305</text>
        </g>
        <g id="l-rm-15013;F03;310" transform="translate(33108.13,94871.52)">
          <text>310</text>
        </g>
        <g id="l-rm-15013;F03;318" transform="translate(34858.13,103531.52)">
          <text>318</text>
        </g>
        <g id="l-rm-15013;F03;312" transform="translate(16358.13,108371.52)">
          <text>312</text>
        </g>
        <g id="l-rm-15013;F03;303" transform="translate(81358.13,108371.52)">
          <text>303</text>
        </g>
        <g id="l-rm-15013;F03;330" transform="translate(72858.13,106286.52)">
          <text>330</text>
        </g>
        <g id="l-rm-15013;F03;327" transform="translate(64600.63,103531.52)">
          <text>327</text>
        </g>
        <g id="l-rm-15013;F03;321" transform="translate(47153.13,103441.52)">
          <text>321</text>
        </g>
        <g id="l-rm-15013;F03;322" transform="translate(50563.13,103441.52)">
          <text>322</text>
        </g>
        <g id="l-rm-15013;F03;319" transform="translate(40108.13,103531.52)">
          <text>319</text>
        </g>
        <g id="l-rm-15013;F03;325" transform="translate(57608.13,103531.52)">
          <text>325</text>
        </g>
        <g id="l-rm-15013;F03;326" transform="translate(61100.63,103531.52)">
          <text>326</text>
        </g>
        <g id="l-rm-15013;F03;317" transform="translate(29653.13,103531.52)">
          <text>317</text>
        </g>
        <g id="l-rm-15013;F03;328" transform="translate(68063.13,103531.52)">
          <text>328</text>
        </g>
        <g id="l-rm-15013;F03;320" transform="translate(43563.13,103531.52)">
          <text>320</text>
        </g>
        <g id="l-rm-15013;F03;323" transform="translate(54153.13,103531.52)">
          <text>323</text>
        </g>
        <g id="l-rm-15013;F03;302" transform="translate(81268.13,113666.52)">
          <text>302</text>
        </g>
        <g id="l-rm-15013;F03;332" transform="translate(72940.65,113666.52)">
          <text>332</text>
        </g>
        <g id="l-rm-15013;F03;309" transform="translate(40153.13,94871.52)">
          <text>309</text>
        </g>
        <g id="l-rm-15013;F03;308" transform="translate(43563.13,94871.52)">
          <text>308</text>
        </g>
        <g id="l-rm-15013;F03;306" transform="translate(57608.13,94871.52)">
          <text>306</text>
        </g>
        <g id="l-rm-15013;F03;307" transform="translate(54108.13,94871.52)">
          <text>307</text>
        </g>
        <g id="l-rm-15013;F03;329" transform="translate(72858.13,101861.52)">
          <text>329</text>
        </g>
        <g id="l-rm-15013;F03;331" transform="translate(72858.13,110456.52)">
          <text>331</text>
        </g>
        <g id="l-rm-15013;F03;315" transform="translate(24858.13,107999.02)">
          <text>315</text>
        </g>
        <g id="l-rm-15013;F03;314" transform="translate(24858.13,110556.52)">
          <text>314</text>
        </g>
        <g id="l-rm-15013;F03;316" transform="translate(23283.17,101861.52)">
          <text>316</text>
        </g>
      </g>
    </g>
  </g>
</svg>