<svg version="1.1" xmlns="http://www.w3.org/2000/svg" xmlns:xlink="http://www.w3.org/1999/xlink" viewBox="440069.09 513591.79 71413 30898">
  <style>.i0 { stroke:#000000;   } .body { stroke:#ff7f00;   } .rm { stroke:#00ffff;   } .pub_wall { stroke:#c0c0c0;   } .rm-asset { stroke:#0000ff;   fill:#EEEEEE; fill-opacity:1;} .rmtc-asset { stroke:#0000ff;   } .rmtc { stroke:#00ffff;   } .rm-assettxt { stroke:#0000ff;   } .rmtc-assettxt { stroke:#0000ff;   } .cnc-0 { stroke:#000000; stroke-width:86.0999999998603; stroke-dasharray:0; } .cnc-1 { stroke:#00bfff;  stroke-dasharray:0; }</style>
  <view id="defaultView" viewBox="440069.09 513591.79 71413 30898" />
  <defs>
    <symbol id="$TCHSYS$WIN2D_2000x380" overflow="visible" class="i0">
      <path d="M-1000,-190l2000,0" />
      <path d="M-1000,190l2000,0" />
      <path d="M1000,63.33l-2000,0" />
      <path d="M1000,-63.33l-2000,0" />
      <path d="M-1000,-190l0,380" />
      <path d="M1000,-190l0,380" />
    </symbol>
    <symbol id="$TCHSYS$WIN2D_1500x380" overflow="visible" class="i0">
      <path d="M-750,-190l1500,0" />
      <path d="M-750,190l1500,0" />
      <path d="M750,63.33l-1500,0" />
      <path d="M750,-63.33l-1500,0" />
      <path d="M-750,-190l0,380" />
      <path d="M750,-190l0,380" />
    </symbol>
    <symbol id="$DorLib2D$00000002" overflow="visible" class="i0">
      <path d="M-0.5,0l0,-0.49" />
      <path d="M-0.48,0l0,-0.49" />
      <path d="M-0.5,0l0.02,0" />
      <path d="M-0.48,-0.49l-0.02,0" />
      <path d="M-0.48,-0.49a0.49,0.49 0 0,1 0.48,0.49" />
      <path d="M0,0a0.49,0.49 0 0,1 0.48,-0.49" />
      <path d="M0.48,0l0,-0.49" />
      <path d="M0.5,0l0,-0.49" />
      <path d="M0.48,-0.49l0.02,0" />
      <path d="M0.5,0l-0.02,0" />
    </symbol>
    <symbol id="$DorLib2D$00000001" overflow="visible" class="i0">
      <path d="M0.45,-0.98l0.05,0" />
      <path d="M0.5,0l-0.05,0" />
      <path d="M-0.5,0a0.98,0.98 0 0,1 0.95,-0.97" />
      <path d="M0.5,0l0,-0.98" />
      <path d="M0.45,0l0,-0.98" />
    </symbol>
    <symbol id="$TCHSYS$WIN2D_1600x380" overflow="visible" class="i0">
      <path d="M-800,-190l1600,0" />
      <path d="M-800,190l1600,0" />
      <path d="M800,63.33l-1600,0" />
      <path d="M800,-63.33l-1600,0" />
      <path d="M-800,-190l0,380" />
      <path d="M800,-190l0,380" />
    </symbol>
  </defs>
  <g id="viewer">
    <g id="mirror" transform="scale(1, 1)" stroke-width="0.09%">
      <g id="background" fill="none">
        <g id="layer-body-fills" class="body">
          <path d="M454391.93,514900.72l203.43,0l0,3770.54l-203.43,0z" />
          <path d="M468391.93,514900.72l203.43,0l0,3770.54l-203.43,0z" />
          <path d="M496975.36,515007.42l98.07,0l0,3557.13l-98.07,0z" />
          <path d="M506506.79,537095.99l0,-98.07l3557.13,0l0,98.07z" />
          <path d="M496595.36,527044.56l-98.07,0l0,-3557.13l98.07,0z" />
          <path d="M451175.36,522475.99l0,-380l200,0l0,380z" />
        </g>
        <g id="layer-RM-fills" class="rm">
          <path d="M482975.36,513975.99l0,5620l3120,0l0,-5620z" />
          <path d="M486475.36,513975.99l0,5620l3120,0l0,-5620z" />
          <path d="M468885.36,522475.99l0,5940l3210,0l0,-5940z" />
          <path d="M472475.36,522475.99l0,5940l6620,0l0,-5940z" />
          <path d="M479475.36,522475.99l0,5940l3195,0l0,-5940z" />
          <path d="M482870.36,522475.99l0,5940l13725,0l0,-5940z" />
          <path d="M496975.36,522475.99l0,2600l5620,0l0,-2600z" />
          <path d="M496975.36,525455.99l0,5400l5620,0l0,-5400z" />
          <path d="M496975.36,531235.99l0,2360l5620,0l0,-2360z" />
          <path d="M496975.36,533975.99l0,10120l5620,0l0,-10120z" />
          <path d="M451595.44,522475.99l0,2600l2999.92,0l0,-2600z" />
        </g>
        <g id="layer-body" class="body">
          <path d="M454975.36,528415.99l14018.57,0" />
          <path d="M502975.36,534995.99l-380,0" />
          <use xlink:href="#$TCHSYS$WIN2D_2000x380" x="440285.36" y="535685.99" transform="rotate(-90,440285.36,535685.99)">.</use>
          <path d="M440475.36,513975.99l4575,0" />
          <path d="M445050.36,513975.99l0,-380" />
          <path d="M445050.36,513595.99l-4955,0" />
          <path d="M454785.36,513595.99l-735,0" />
          <path d="M454050.36,513595.99l0,380" />
          <path d="M454050.36,513975.99l545,0" />
          <path d="M447050.36,513975.99l1500,0" />
          <path d="M448550.36,513975.99l0,-380" />
          <path d="M448550.36,513595.99l-1500,0" />
          <path d="M447050.36,513595.99l0,380" />
          <path d="M450550.36,513975.99l1500,0" />
          <path d="M452050.36,513975.99l0,-380" />
          <path d="M452050.36,513595.99l-1500,0" />
          <path d="M450550.36,513595.99l0,380" />
          <use xlink:href="#$TCHSYS$WIN2D_2000x380" x="446050.36" y="513785.99" transform="scale(-1,-1) translate(-892100.72,-1027571.98)">.</use>
          <use xlink:href="#$TCHSYS$WIN2D_2000x380" x="449550.36" y="513785.99" transform="scale(-1,-1) translate(-899100.72,-1027571.98)">.</use>
          <use xlink:href="#$TCHSYS$WIN2D_2000x380" x="453050.36" y="513785.99" transform="scale(-1,-1) translate(-906100.72,-1027571.98)">.</use>
          <path d="M511095.36,513975.99l0,3045" />
          <path d="M511095.36,517020.99l380,0" />
          <path d="M511475.36,517020.99l0,-3425" />
          <path d="M511475.36,519785.99l0,-765" />
          <path d="M511475.36,519020.99l-380,0" />
          <path d="M511095.36,519020.99l0,575" />
          <use xlink:href="#$TCHSYS$WIN2D_2000x380" x="511285.36" y="518020.99" transform="scale(-1,1) translate(-1022570.72,0) rotate(-90,511285.36,518020.99)">.</use>
          <path d="M511095.36,544095.99l-3160,0" />
          <path d="M507935.36,544095.99l0,380" />
          <path d="M507935.36,544475.99l3540,0" />
          <path d="M502785.36,544475.99l250,0" />
          <path d="M503035.36,544475.99l0,-380" />
          <path d="M503035.36,544095.99l-60,0" />
          <path d="M505935.36,544095.99l-900,0" />
          <path d="M505035.36,544095.99l0,380" />
          <path d="M505035.36,544475.99l900,0" />
          <path d="M505935.36,544475.99l0,-380" />
          <use xlink:href="#$TCHSYS$WIN2D_2000x380" x="504035.36" y="544285.99" transform="scale(-1,-1) translate(-1008070.72,-1088571.98) rotate(-180,504035.36,544285.99)">.</use>
          <use xlink:href="#$TCHSYS$WIN2D_2000x380" x="506935.36" y="544285.99" transform="scale(-1,-1) translate(-1013870.72,-1088571.98) rotate(-180,506935.36,544285.99)">.</use>
          <use xlink:href="#$TCHSYS$WIN2D_2000x380" x="501135.36" y="544285.99" transform="scale(-1,-1) translate(-1002270.72,-1088571.98) rotate(-180,501135.36,544285.99)">.</use>
          <use xlink:href="#$TCHSYS$WIN2D_1500x380" x="496785.36" y="535745.99" transform="scale(1,-1) translate(0,-1071491.98) rotate(-270,496785.36,535745.99)">.</use>
          <use xlink:href="#$TCHSYS$WIN2D_1500x380" x="496785.36" y="538745.99" transform="scale(1,-1) translate(0,-1077491.98) rotate(-270,496785.36,538745.99)">.</use>
          <use xlink:href="#$TCHSYS$WIN2D_1500x380" x="496785.36" y="541745.99" transform="scale(1,-1) translate(0,-1083491.98) rotate(-270,496785.36,541745.99)">.</use>
          <path d="M496595.36,528415.99l-575,0" />
          <path d="M496020.36,528415.99l0,380" />
          <path d="M496020.36,528795.99l575,0" />
          <path d="M479285.36,528795.99l735,0" />
          <path d="M480020.36,528795.99l0,-380" />
          <path d="M480020.36,528415.99l-545,0" />
          <path d="M494020.36,528415.99l-1500,0" />
          <path d="M492520.36,528415.99l0,380" />
          <path d="M492520.36,528795.99l1500,0" />
          <path d="M494020.36,528795.99l0,-380" />
          <path d="M490520.36,528415.99l-1500,0" />
          <path d="M489020.36,528415.99l0,380" />
          <path d="M489020.36,528795.99l1500,0" />
          <path d="M490520.36,528795.99l0,-380" />
          <path d="M487020.36,528415.99l-1500,0" />
          <path d="M485520.36,528415.99l0,380" />
          <path d="M485520.36,528795.99l1500,0" />
          <path d="M487020.36,528795.99l0,-380" />
          <path d="M483520.36,528415.99l-1500,0" />
          <path d="M482020.36,528415.99l0,380" />
          <path d="M482020.36,528795.99l1500,0" />
          <path d="M483520.36,528795.99l0,-380" />
          <use xlink:href="#$TCHSYS$WIN2D_2000x380" x="495020.36" y="528605.99" transform="scale(-1,-1) translate(-990040.72,-1057211.98) rotate(-180,495020.36,528605.99)">.</use>
          <use xlink:href="#$TCHSYS$WIN2D_2000x380" x="491520.36" y="528605.99" transform="scale(-1,-1) translate(-983040.72,-1057211.98) rotate(-180,491520.36,528605.99)">.</use>
          <use xlink:href="#$TCHSYS$WIN2D_2000x380" x="488020.36" y="528605.99" transform="scale(-1,-1) translate(-976040.72,-1057211.98) rotate(-180,488020.36,528605.99)">.</use>
          <use xlink:href="#$TCHSYS$WIN2D_2000x380" x="484520.36" y="528605.99" transform="scale(-1,-1) translate(-969040.72,-1057211.98) rotate(-180,484520.36,528605.99)">.</use>
          <use xlink:href="#$TCHSYS$WIN2D_2000x380" x="481020.36" y="528605.99" transform="scale(-1,-1) translate(-962040.72,-1057211.98) rotate(-180,481020.36,528605.99)">.</use>
          <path d="M454975.36,522475.99l0,2790" />
          <path d="M454595.36,522475.99l0,2600" />
          <path d="M454595.36,544095.99l-3160,0" />
          <path d="M451435.36,544095.99l0,380" />
          <path d="M451435.36,544475.99l3540,0" />
          <path d="M440095.36,544475.99l3540,0" />
          <path d="M443635.36,544475.99l0,-380" />
          <path d="M443635.36,544095.99l-3160,0" />
          <path d="M449435.36,544095.99l-900,0" />
          <path d="M448535.36,544095.99l0,380" />
          <path d="M448535.36,544475.99l900,0" />
          <path d="M449435.36,544475.99l0,-380" />
          <path d="M446535.36,544095.99l-900,0" />
          <path d="M445635.36,544095.99l0,380" />
          <path d="M445635.36,544475.99l900,0" />
          <path d="M446535.36,544475.99l0,-380" />
          <use xlink:href="#$TCHSYS$WIN2D_2000x380" x="450435.36" y="544285.99" transform="scale(1,-1) translate(0,-1088571.98) rotate(-180,450435.36,544285.99)">.</use>
          <use xlink:href="#$TCHSYS$WIN2D_2000x380" x="447535.36" y="544285.99" transform="scale(1,-1) translate(0,-1088571.98) rotate(-180,447535.36,544285.99)">.</use>
          <use xlink:href="#$TCHSYS$WIN2D_2000x380" x="444635.36" y="544285.99" transform="scale(1,-1) translate(0,-1088571.98) rotate(-180,444635.36,544285.99)">.</use>
          <path d="M440475.36,519595.99l0,-575" />
          <path d="M440475.36,519020.99l-380,0" />
          <path d="M440095.36,519020.99l0,765" />
          <path d="M440095.36,513595.99l0,3425" />
          <path d="M440095.36,517020.99l380,0" />
          <path d="M440475.36,517020.99l0,-3045" />
          <use xlink:href="#$TCHSYS$WIN2D_2000x380" x="440285.36" y="518020.99" transform="rotate(-90,440285.36,518020.99)">.</use>
          <path d="M511095.36,519975.99l0,710" />
          <path d="M511095.36,520685.99l380,0" />
          <path d="M511475.36,520685.99l0,-900" />
          <path d="M511475.36,523285.99l0,-600" />
          <path d="M511475.36,522685.99l-380,0" />
          <path d="M511095.36,522685.99l0,410" />
          <use xlink:href="#$TCHSYS$WIN2D_2000x380" x="511285.36" y="521685.99" transform="rotate(-270,511285.36,521685.99)">.</use>
          <path d="M440475.36,519975.99l5120,0" />
          <path d="M445595.36,519975.99l0,-380" />
          <path d="M445595.36,519595.99l-5120,0" />
          <path d="M449685.36,519595.99l-2590,0" />
          <path d="M447095.36,519595.99l0,380" />
          <path d="M447095.36,519975.99l2400,0" />
          <use xlink:href="#$DorLib2D$00000002" x="297.564" y="346.524" transform="scale(1500,1500) scale(-1,1) translate(-595.13,0)" stroke-width="0.0001%">.</use>
          <use xlink:href="#$TCHSYS$WIN2D_2000x380" x="456550.36" y="513785.99" transform="scale(-1,-1) translate(-913100.72,-1027571.98)">.</use>
          <use xlink:href="#$TCHSYS$WIN2D_2000x380" x="460050.36" y="513785.99" transform="scale(-1,-1) translate(-920100.72,-1027571.98)">.</use>
          <use xlink:href="#$TCHSYS$WIN2D_2000x380" x="463550.36" y="513785.99" transform="scale(-1,-1) translate(-927100.72,-1027571.98)">.</use>
          <use xlink:href="#$DorLib2D$00000001" x="456.035" y="519.786" transform="scale(1000,1000) scale(-1,1) translate(-912.07,0)" stroke-width="0.0001%">.</use>
          <path d="M454595.36,519595.99l0,-5620" />
          <path d="M454975.36,519595.99l0,-5620" />
          <use xlink:href="#$TCHSYS$WIN2D_2000x380" x="467050.36" y="513785.99" transform="scale(-1,-1) translate(-934100.72,-1027571.98)">.</use>
          <use xlink:href="#$TCHSYS$WIN2D_2000x380" x="470550.36" y="513785.99" transform="scale(-1,-1) translate(-941100.72,-1027571.98)">.</use>
          <path d="M472475.36,513975.99l530,0" />
          <path d="M473005.36,513975.99l0,-380" />
          <path d="M473005.36,513595.99l-720,0" />
          <path d="M479285.36,513595.99l-720,0" />
          <path d="M478565.36,513595.99l0,380" />
          <path d="M478565.36,513975.99l530,0" />
          <path d="M474605.36,513975.99l380,0" />
          <path d="M474985.36,513975.99l0,-380" />
          <path d="M474985.36,513595.99l-380,0" />
          <path d="M474605.36,513595.99l0,380" />
          <path d="M476585.36,513975.99l380,0" />
          <path d="M476965.36,513975.99l0,-380" />
          <path d="M476965.36,513595.99l-380,0" />
          <path d="M476585.36,513595.99l0,380" />
          <use xlink:href="#$TCHSYS$WIN2D_1600x380" x="475785.36" y="513785.99" transform="scale(1,-1) translate(0,-1027571.98)">.</use>
          <use xlink:href="#$TCHSYS$WIN2D_1600x380" x="473805.36" y="513785.99" transform="scale(1,-1) translate(0,-1027571.98)">.</use>
          <use xlink:href="#$TCHSYS$WIN2D_1600x380" x="477765.36" y="513785.99" transform="scale(-1,-1) translate(-955530.72,-1027571.98)">.</use>
          <path d="M472095.36,519595.99l0,-5620" />
          <path d="M472475.36,519975.99l0,-6000" />
          <path d="M479475.36,513975.99l545,0" />
          <path d="M480020.36,513975.99l0,-380" />
          <path d="M480020.36,513595.99l-735,0" />
          <path d="M482785.36,513595.99l-765,0" />
          <path d="M482020.36,513595.99l0,380" />
          <path d="M482020.36,513975.99l575,0" />
          <use xlink:href="#$TCHSYS$WIN2D_2000x380" x="481020.36" y="513785.99" transform="scale(1,-1) translate(0,-1027571.98)">.</use>
          <path d="M479475.36,519595.99l710,0" />
          <path d="M479095.36,519975.99l900,0" />
          <path d="M479095.36,519975.99l0,-6000" />
          <path d="M479475.36,519595.99l0,-5620" />
          <path d="M486475.36,513975.99l545,0" />
          <path d="M487020.36,513975.99l0,-380" />
          <path d="M487020.36,513595.99l-735,0" />
          <path d="M489785.36,513595.99l-765,0" />
          <path d="M489020.36,513595.99l0,380" />
          <path d="M489020.36,513975.99l575,0" />
          <use xlink:href="#$TCHSYS$WIN2D_2000x380" x="488020.36" y="513785.99" transform="scale(1,-1) translate(0,-1027571.98)">.</use>
          <use xlink:href="#$TCHSYS$WIN2D_2000x380" x="495020.36" y="513785.99" transform="scale(1,-1) translate(0,-1027571.98)">.</use>
          <use xlink:href="#$TCHSYS$WIN2D_2000x380" x="491520.36" y="513785.99" transform="scale(1,-1) translate(0,-1027571.98)">.</use>
          <path d="M486285.36,519975.99l1750,0" />
          <path d="M488035.36,519975.99l0,-380" />
          <path d="M488035.36,519595.99l-1560,0" />
          <path d="M489595.36,519595.99l-560,0" />
          <path d="M489035.36,519595.99l0,380" />
          <path d="M489035.36,519975.99l750,0" />
          <use xlink:href="#$DorLib2D$00000001" x="488.535" y="519.786" transform="scale(1000,1000)" stroke-width="0.0001%">.</use>
          <use xlink:href="#$DorLib2D$00000001" x="495.535" y="519.786" transform="scale(1000,1000)" stroke-width="0.0001%">.</use>
          <path d="M486095.36,519595.99l0,-5620" />
          <path d="M486475.36,519595.99l0,-5620" />
          <use xlink:href="#$TCHSYS$WIN2D_2000x380" x="505520.36" y="513785.99" transform="scale(1,-1) translate(0,-1027571.98)">.</use>
          <use xlink:href="#$TCHSYS$WIN2D_2000x380" x="502020.36" y="513785.99" transform="scale(1,-1) translate(0,-1027571.98)">.</use>
          <use xlink:href="#$TCHSYS$WIN2D_2000x380" x="498520.36" y="513785.99" transform="scale(1,-1) translate(0,-1027571.98)">.</use>
          <path d="M496785.36,519975.99l750,0" />
          <path d="M497535.36,519975.99l0,-380" />
          <path d="M497535.36,519595.99l-560,0" />
          <path d="M501885.36,519595.99l-3350,0" />
          <path d="M498535.36,519595.99l0,380" />
          <path d="M498535.36,519975.99l3160,0" />
          <use xlink:href="#$DorLib2D$00000001" x="498.035" y="519.786" transform="scale(1000,1000) scale(-1,1) translate(-996.07,0)" stroke-width="0.0001%">.</use>
          <path d="M496595.36,519595.99l0,-5620" />
          <path d="M496975.36,519595.99l0,-5620" />
          <path d="M482975.36,513975.99l545,0" />
          <path d="M483520.36,513975.99l0,-380" />
          <path d="M483520.36,513595.99l-735,0" />
          <path d="M486285.36,513595.99l-765,0" />
          <path d="M485520.36,513595.99l0,380" />
          <path d="M485520.36,513975.99l575,0" />
          <use xlink:href="#$TCHSYS$WIN2D_2000x380" x="484520.36" y="513785.99" transform="scale(1,-1) translate(0,-1027571.98)">.</use>
          <path d="M482785.36,519975.99l690,0" />
          <path d="M483475.36,519975.99l0,-380" />
          <path d="M483475.36,519595.99l-500,0" />
          <path d="M486095.36,519595.99l-1620,0" />
          <path d="M484475.36,519595.99l0,380" />
          <path d="M484475.36,519975.99l1810,0" />
          <use xlink:href="#$DorLib2D$00000001" x="483.975" y="519.786" transform="scale(1000,1000) scale(-1,1) translate(-967.95,0)" stroke-width="0.0001%">.</use>
          <path d="M482595.36,519595.99l0,-5620" />
          <path d="M482975.36,519595.99l0,-5620" />
          <path d="M502595.36,522475.99l-710,0" />
          <path d="M502975.36,522095.99l-900,0" />
          <path d="M496975.36,533595.99l0,-100" />
          <path d="M496975.36,533495.99l-380,0" />
          <path d="M496595.36,533495.99l0,290" />
          <path d="M496595.36,531045.99l0,950" />
          <path d="M496595.36,531995.99l380,0" />
          <path d="M496975.36,531995.99l0,-760" />
          <use xlink:href="#$TCHSYS$WIN2D_1500x380" x="496785.36" y="532745.99" transform="scale(1,-1) translate(0,-1065491.98) rotate(-270,496785.36,532745.99)">.</use>
          <use xlink:href="#$TCHSYS$WIN2D_2000x380" x="511285.36" y="535685.99" transform="scale(-1,1) translate(-1022570.72,0) rotate(-90,511285.36,535685.99)">.</use>
          <path d="M496975.36,533595.99l5620,0" />
          <path d="M496975.36,533975.99l5620,0" />
          <path d="M496595.36,528415.99l0,-3150" />
          <path d="M496975.36,528605.99l0,-3150" />
          <path d="M496785.36,522095.99l-750,0" />
          <path d="M496035.36,522095.99l0,380" />
          <path d="M496035.36,522475.99l560,0" />
          <path d="M482870.36,522475.99l1830,0" />
          <path d="M484700.36,522475.99l0,-380" />
          <path d="M484700.36,522095.99l-1930,0" />
          <path d="M495035.36,522095.99l-9335,0" />
          <path d="M485700.36,522095.99l0,380" />
          <path d="M485700.36,522475.99l9335,0" />
          <path d="M495035.36,522475.99l0,-380" />
          <use xlink:href="#$DorLib2D$00000001" x="495.535" y="522.286" transform="scale(1000,1000) scale(-1,1) translate(-991.07,0) rotate(-180,495.54,522.29)" stroke-width="0.0001%">.</use>
          <use xlink:href="#$DorLib2D$00000001" x="485.2" y="522.286" transform="scale(1000,1000) rotate(-180,485.2,522.29)" stroke-width="0.0001%">.</use>
          <path d="M511095.36,523475.99l0,710" />
          <path d="M511095.36,524185.99l380,0" />
          <path d="M511475.36,524185.99l0,-900" />
          <path d="M511475.36,537285.99l0,-600" />
          <path d="M511475.36,536685.99l-380,0" />
          <path d="M511095.36,536685.99l0,410" />
          <path d="M511095.36,526185.99l0,1500" />
          <path d="M511095.36,527685.99l380,0" />
          <path d="M511475.36,527685.99l0,-1500" />
          <path d="M511475.36,526185.99l-380,0" />
          <path d="M511095.36,529685.99l0,1500" />
          <path d="M511095.36,531185.99l380,0" />
          <path d="M511475.36,531185.99l0,-1500" />
          <path d="M511475.36,529685.99l-380,0" />
          <path d="M511095.36,533185.99l0,1500" />
          <path d="M511095.36,534685.99l380,0" />
          <path d="M511475.36,534685.99l0,-1500" />
          <path d="M511475.36,533185.99l-380,0" />
          <use xlink:href="#$TCHSYS$WIN2D_2000x380" x="511285.36" y="525185.99" transform="scale(-1,1) translate(-1022570.72,0) rotate(-90,511285.36,525185.99)">.</use>
          <use xlink:href="#$TCHSYS$WIN2D_2000x380" x="511285.36" y="528685.99" transform="scale(-1,1) translate(-1022570.72,0) rotate(-90,511285.36,528685.99)">.</use>
          <use xlink:href="#$TCHSYS$WIN2D_2000x380" x="511285.36" y="532185.99" transform="scale(-1,1) translate(-1022570.72,0) rotate(-90,511285.36,532185.99)">.</use>
          <path d="M505095.36,523095.99l6000,0" />
          <path d="M505475.36,523475.99l5620,0" />
          <path d="M502075.36,522095.99l0,-310" />
          <path d="M502075.36,521785.99l-380,0" />
          <path d="M501695.36,521785.99l0,310" />
          <path d="M501695.36,519975.99l0,310" />
          <path d="M501695.36,520285.99l380,0" />
          <path d="M502075.36,520285.99l0,-310" />
          <path d="M501695.36,520285.99l0,1500" />
          <path d="M502075.36,521785.99l0,-1500" />
          <path d="M501885.36,522475.99l-4910,0" />
          <path d="M501695.36,522095.99l-4910,0" />
          <path d="M501395.36,522349.32l-1200,0" />
          <path d="M501395.36,522222.66l-1200,0" />
          <path d="M500195.36,522475.99l0,-380" />
          <path d="M501395.36,522475.99l0,-380" />
          <use xlink:href="#$DorLib2D$00000001" x="500.875" y="525.266" transform="scale(1000,1000)" stroke-width="0.0001%">.</use>
          <path d="M502975.36,524375.99l310,0" />
          <path d="M503285.36,524375.99l0,-380" />
          <path d="M503285.36,523995.99l-310,0" />
          <path d="M505095.36,523995.99l-310,0" />
          <path d="M504785.36,523995.99l0,380" />
          <path d="M504785.36,524375.99l310,0" />
          <path d="M504785.36,523995.99l-1500,0" />
          <path d="M503285.36,524375.99l1500,0" />
          <path d="M502595.36,524185.99l0,-1710" />
          <path d="M502975.36,523995.99l0,-1900" />
          <path d="M505095.36,523995.99l0,-900" />
          <path d="M505475.36,524185.99l0,-710" />
          <path d="M454595.36,528605.99l0,390" />
          <path d="M454595.36,528995.99l380,0" />
          <path d="M454975.36,528995.99l0,-200" />
          <path d="M454975.36,533785.99l0,-290" />
          <path d="M454975.36,533495.99l-380,0" />
          <path d="M454595.36,533495.99l0,100" />
          <path d="M454595.36,530495.99l0,1500" />
          <path d="M454595.36,531995.99l380,0" />
          <path d="M454975.36,531995.99l0,-1500" />
          <path d="M454975.36,530495.99l-380,0" />
          <use xlink:href="#$TCHSYS$WIN2D_1500x380" x="454785.36" y="529745.99" transform="scale(-1,-1) translate(-909570.72,-1059491.98) rotate(-270,454785.36,529745.99)">.</use>
          <use xlink:href="#$TCHSYS$WIN2D_1500x380" x="454785.36" y="532745.99" transform="scale(-1,-1) translate(-909570.72,-1065491.98) rotate(-270,454785.36,532745.99)">.</use>
          <use xlink:href="#$DorLib2D$00000001" x="481.565" y="519.786" transform="scale(1000,1000)" stroke-width="0.0001%">.</use>
          <path d="M505475.36,537095.99l0,-760" />
          <path d="M505475.36,536335.99l-380,0" />
          <path d="M505095.36,536335.99l0,760" />
          <path d="M505095.36,524375.99l0,920" />
          <path d="M505095.36,525295.99l380,0" />
          <path d="M505475.36,525295.99l0,-1110" />
          <path d="M505475.36,535335.99l0,-9040" />
          <path d="M505475.36,526295.99l-380,0" />
          <path d="M505095.36,526295.99l0,9040" />
          <path d="M505095.36,535335.99l380,0" />
          <use xlink:href="#$DorLib2D$00000001" x="505.285" y="525.796" transform="scale(1000,1000) scale(1,-1) translate(0,-1051.59) rotate(-270,505.29,525.8)" stroke-width="0.0001%">.</use>
          <use xlink:href="#$DorLib2D$00000001" x="505.285" y="535.836" transform="scale(1000,1000) scale(-1,-1) translate(-1010.57,-1071.67) rotate(-90,505.29,535.84)" stroke-width="0.0001%">.</use>
          <path d="M496975.36,525455.99l3399.69,0" />
          <path d="M500375.05,525455.99l0,-380" />
          <path d="M500375.05,525075.99l-3399.69,0" />
          <path d="M502595.36,525075.99l-1220.31,0" />
          <path d="M501375.05,525075.99l0,380" />
          <path d="M501375.05,525455.99l1220.31,0" />
          <path d="M496595.36,525265.99l0,-2790" />
          <path d="M496975.36,525075.99l0,-2600" />
          <path d="M502595.36,525075.99l0,-890" />
          <path d="M502975.36,525265.99l0,-890" />
          <path d="M496975.36,531235.99l4120,0" />
          <path d="M501095.36,531235.99l0,-380" />
          <path d="M501095.36,530855.99l-4120,0" />
          <path d="M502595.36,530855.99l-500,0" />
          <path d="M502095.36,530855.99l0,380" />
          <path d="M502095.36,531235.99l500,0" />
          <use xlink:href="#$DorLib2D$00000001" x="501.595" y="531.046" transform="scale(1000,1000) scale(1,-1) translate(0,-1062.09)" stroke-width="0.0001%">.</use>
          <path d="M496975.36,530855.99l0,-360" />
          <path d="M496975.36,530495.99l-380,0" />
          <path d="M496595.36,530495.99l0,550" />
          <path d="M496595.36,528795.99l0,200" />
          <path d="M496595.36,528995.99l380,0" />
          <path d="M496975.36,528995.99l0,-390" />
          <use xlink:href="#$TCHSYS$WIN2D_1500x380" x="496785.36" y="529745.99" transform="scale(1,-1) translate(0,-1059491.98) rotate(-270,496785.36,529745.99)">.</use>
          <path d="M502595.36,530855.99l0,-4025" />
          <path d="M502975.36,531045.99l0,-4215" />
          <use xlink:href="#$DorLib2D$00000001" x="502.785" y="526.136" transform="scale(1000,1000) rotate(-90,502.79,526.14)" stroke-width="0.0001%">.</use>
          <path d="M448595.36,522095.99l900,0" />
          <path d="M448975.36,522475.99l710,0" />
          <path d="M454595.36,537385.99l-5900,0" />
          <path d="M454595.36,537185.99l-5800,0" />
          <use xlink:href="#$DorLib2D$00000001" x="448.785" y="526.456" transform="scale(1000,1000) scale(1,-1) translate(0,-1052.91) rotate(-270,448.79,526.46)" stroke-width="0.0001%">.</use>
          <use xlink:href="#$DorLib2D$00000002" x="298.357" y="358.191" transform="scale(1500,1500) scale(-1,-1) translate(-596.71,-716.38) rotate(-180,298.36,358.19)" stroke-width="0.0001%">.</use>
          <path d="M446095.36,523475.99l-5620,0" />
          <path d="M446475.36,523095.99l-6000,0" />
          <path d="M449875.36,522095.99l0,-310" />
          <path d="M449875.36,521785.99l-380,0" />
          <path d="M449495.36,521785.99l0,310" />
          <path d="M449495.36,519975.99l0,310" />
          <path d="M449495.36,520285.99l380,0" />
          <path d="M449875.36,520285.99l0,-310" />
          <path d="M449495.36,520285.99l0,1500" />
          <path d="M449875.36,521785.99l0,-1500" />
          <use xlink:href="#$DorLib2D$00000001" x="453.535" y="522.286" transform="scale(1000,1000)" stroke-width="0.0001%">.</use>
          <path d="M448595.36,523995.99l-310,0" />
          <path d="M448285.36,523995.99l0,380" />
          <path d="M448285.36,524375.99l310,0" />
          <path d="M446475.36,524375.99l310,0" />
          <path d="M446785.36,524375.99l0,-380" />
          <path d="M446785.36,523995.99l-310,0" />
          <path d="M446785.36,524375.99l1500,0" />
          <path d="M448285.36,523995.99l-1500,0" />
          <path d="M448595.36,523995.99l0,-1900" />
          <path d="M448975.36,524185.99l0,-1710" />
          <path d="M446095.36,524185.99l0,-710" />
          <path d="M446475.36,523995.99l0,-900" />
          <path d="M446475.36,533975.99l0,-7680" />
          <path d="M446475.36,526295.99l-380,0" />
          <path d="M446095.36,526295.99l0,7300" />
          <path d="M446095.36,524185.99l0,1110" />
          <path d="M446095.36,525295.99l380,0" />
          <path d="M446475.36,525295.99l0,-920" />
          <use xlink:href="#$DorLib2D$00000001" x="446.285" y="525.796" transform="scale(1000,1000) rotate(-90,446.29,525.8)" stroke-width="0.0001%">.</use>
          <path d="M454595.36,525455.99l-3074.92,0" />
          <path d="M454595.36,525075.99l-2999.92,0" />
          <path d="M448595.36,525265.99l0,-890" />
          <path d="M448975.36,525075.99l0,-890" />
          <path d="M448975.36,533595.99l0,-500" />
          <path d="M448975.36,533095.99l-380,0" />
          <path d="M448595.36,533095.99l0,880" />
          <path d="M448595.36,525265.99l0,690" />
          <path d="M448595.36,525955.99l380,0" />
          <path d="M448975.36,525955.99l0,-500" />
          <path d="M448975.36,532095.99l0,-5140" />
          <path d="M448975.36,526955.99l-380,0" />
          <path d="M448595.36,526955.99l0,5140" />
          <path d="M448595.36,532095.99l380,0" />
          <use xlink:href="#$DorLib2D$00000001" x="448.785" y="532.596" transform="scale(1000,1000) scale(-1,-1) translate(-897.57,-1065.19) rotate(-90,448.79,532.6)" stroke-width="0.0001%">.</use>
          <use xlink:href="#$TCHSYS$WIN2D_1500x380" x="454785.36" y="535745.99" transform="scale(-1,-1) translate(-909570.72,-1071491.98) rotate(-270,454785.36,535745.99)">.</use>
          <use xlink:href="#$TCHSYS$WIN2D_1500x380" x="454785.36" y="538745.99" transform="scale(-1,-1) translate(-909570.72,-1077491.98) rotate(-270,454785.36,538745.99)">.</use>
          <use xlink:href="#$TCHSYS$WIN2D_1500x380" x="454785.36" y="541745.99" transform="scale(-1,-1) translate(-909570.72,-1083491.98) rotate(-270,454785.36,541745.99)">.</use>
          <use xlink:href="#$TCHSYS$WIN2D_2000x380" x="440285.36" y="528685.99" transform="rotate(-90,440285.36,528685.99)">.</use>
          <use xlink:href="#$TCHSYS$WIN2D_2000x380" x="440285.36" y="532185.99" transform="rotate(-90,440285.36,532185.99)">.</use>
          <path d="M440475.36,523095.99l0,-410" />
          <path d="M440475.36,522685.99l-380,0" />
          <path d="M440095.36,522685.99l0,600" />
          <path d="M440095.36,519785.99l0,900" />
          <path d="M440095.36,520685.99l380,0" />
          <path d="M440475.36,520685.99l0,-710" />
          <use xlink:href="#$TCHSYS$WIN2D_2000x380" x="440285.36" y="521685.99" transform="scale(-1,1) translate(-880570.72,0) rotate(-270,440285.36,521685.99)">.</use>
          <path d="M449875.36,519975.99l3160,0" />
          <path d="M453035.36,519975.99l0,-380" />
          <path d="M453035.36,519595.99l-3350,0" />
          <path d="M454595.36,519595.99l-560,0" />
          <path d="M454035.36,519595.99l0,380" />
          <path d="M454035.36,519975.99l750,0" />
          <use xlink:href="#$DorLib2D$00000001" x="453.535" y="519.786" transform="scale(1000,1000)" stroke-width="0.0001%">.</use>
          <path d="M440475.36,533595.99l0,-410" />
          <path d="M440475.36,533185.99l-380,0" />
          <path d="M440095.36,533185.99l0,600" />
          <path d="M440095.36,523285.99l0,900" />
          <path d="M440095.36,524185.99l380,0" />
          <path d="M440475.36,524185.99l0,-710" />
          <path d="M440475.36,531185.99l0,-1500" />
          <path d="M440475.36,529685.99l-380,0" />
          <path d="M440095.36,529685.99l0,1500" />
          <path d="M440095.36,531185.99l380,0" />
          <path d="M440475.36,527685.99l0,-1500" />
          <path d="M440475.36,526185.99l-380,0" />
          <path d="M440095.36,526185.99l0,1500" />
          <path d="M440095.36,527685.99l380,0" />
          <use xlink:href="#$TCHSYS$WIN2D_2000x380" x="440285.36" y="525185.99" transform="rotate(-90,440285.36,525185.99)">.</use>
          <path d="M454975.36,525265.99l0,3150" />
          <path d="M454595.36,525455.99l0,3150" />
          <path d="M479285.36,522095.99l-3000,0" />
          <path d="M476285.36,522095.99l0,380" />
          <path d="M476285.36,522475.99l2810,0" />
          <path d="M472475.36,522475.99l2810,0" />
          <path d="M475285.36,522475.99l0,-380" />
          <path d="M475285.36,522095.99l-3000,0" />
          <use xlink:href="#$DorLib2D$00000001" x="475.785" y="522.286" transform="scale(1000,1000) rotate(-180,475.79,522.29)" stroke-width="0.0001%">.</use>
          <path d="M479095.36,528415.99l-560,0" />
          <path d="M478535.36,528415.99l0,380" />
          <path d="M478535.36,528795.99l750,0" />
          <path d="M472285.36,528795.99l750,0" />
          <path d="M473035.36,528795.99l0,-380" />
          <path d="M473035.36,528415.99l-560,0" />
          <path d="M477035.36,528415.99l-500,0" />
          <path d="M476535.36,528415.99l0,380" />
          <path d="M476535.36,528795.99l500,0" />
          <path d="M477035.36,528795.99l0,-380" />
          <path d="M475035.36,528415.99l-500,0" />
          <path d="M474535.36,528415.99l0,380" />
          <path d="M474535.36,528795.99l500,0" />
          <path d="M475035.36,528795.99l0,-380" />
          <use xlink:href="#$TCHSYS$WIN2D_1500x380" x="475785.36" y="528605.99" transform="scale(1,-1) translate(0,-1057211.98) rotate(-180,475785.36,528605.99)">.</use>
          <use xlink:href="#$TCHSYS$WIN2D_1500x380" x="473785.36" y="528605.99" transform="scale(-1,-1) translate(-947570.72,-1057211.98) rotate(-180,473785.36,528605.99)">.</use>
          <use xlink:href="#$TCHSYS$WIN2D_1500x380" x="477785.36" y="528605.99" transform="scale(1,-1) translate(0,-1057211.98) rotate(-180,477785.36,528605.99)">.</use>
          <use xlink:href="#$TCHSYS$WIN2D_2000x380" x="470550.36" y="528605.99" transform="scale(1,-1) translate(0,-1057211.98) rotate(-180,470550.36,528605.99)">.</use>
          <use xlink:href="#$TCHSYS$WIN2D_2000x380" x="456550.36" y="528605.99" transform="scale(1,-1) translate(0,-1057211.98) rotate(-180,456550.36,528605.99)">.</use>
          <use xlink:href="#$TCHSYS$WIN2D_2000x380" x="460050.36" y="528605.99" transform="scale(1,-1) translate(0,-1057211.98) rotate(-180,460050.36,528605.99)">.</use>
          <use xlink:href="#$TCHSYS$WIN2D_2000x380" x="463550.36" y="528605.99" transform="scale(1,-1) translate(0,-1057211.98) rotate(-180,463550.36,528605.99)">.</use>
          <use xlink:href="#$TCHSYS$WIN2D_2000x380" x="467050.36" y="528605.99" transform="scale(1,-1) translate(0,-1057211.98) rotate(-180,467050.36,528605.99)">.</use>
          <use xlink:href="#$DorLib2D$00000001" x="481.565" y="522.286" transform="scale(1000,1000) scale(-1,1) translate(-963.13,0) rotate(-180,481.57,522.29)" stroke-width="0.0001%">.</use>
          <path d="M480375.36,522095.99l0,-310" />
          <path d="M480375.36,521785.99l-380,0" />
          <path d="M479995.36,521785.99l0,310" />
          <path d="M479995.36,519975.99l0,310" />
          <path d="M479995.36,520285.99l380,0" />
          <path d="M480375.36,520285.99l0,-310" />
          <path d="M479995.36,520285.99l0,1500" />
          <path d="M480375.36,521785.99l0,-1500" />
          <path d="M480185.36,522475.99l-710,0" />
          <path d="M479995.36,522095.99l-710,0" />
          <path d="M480375.36,519975.99l690,0" />
          <path d="M481065.36,519975.99l0,-380" />
          <path d="M481065.36,519595.99l-880,0" />
          <path d="M482595.36,519595.99l-530,0" />
          <path d="M482065.36,519595.99l0,380" />
          <path d="M482065.36,519975.99l720,0" />
          <path d="M471575.36,522095.99l0,-310" />
          <path d="M471575.36,521785.99l-380,0" />
          <path d="M471195.36,521785.99l0,310" />
          <path d="M471195.36,519975.99l0,310" />
          <path d="M471195.36,520285.99l380,0" />
          <path d="M471575.36,520285.99l0,-310" />
          <path d="M471195.36,520285.99l0,1500" />
          <path d="M471575.36,521785.99l0,-1500" />
          <path d="M471195.36,522095.99l-690,0" />
          <path d="M470505.36,522095.99l0,380" />
          <path d="M470505.36,522475.99l880,0" />
          <path d="M468885.36,522475.99l620,0" />
          <path d="M469505.36,522475.99l0,-380" />
          <path d="M469505.36,522095.99l-720,0" />
          <use xlink:href="#$DorLib2D$00000001" x="470.005" y="522.286" transform="scale(1000,1000) rotate(-180,470.01,522.29)" stroke-width="0.0001%">.</use>
          <path d="M471385.36,519595.99l710,0" />
          <path d="M471575.36,519975.99l900,0" />
          <path d="M479095.36,528415.99l0,-5940" />
          <path d="M479475.36,528415.99l0,-5940" />
          <path d="M472095.36,528415.99l0,-5940" />
          <path d="M472475.36,528415.99l0,-5940" />
          <path d="M472095.36,528415.99l-545,0" />
          <path d="M471550.36,528415.99l0,380" />
          <path d="M471550.36,528795.99l735,0" />
          <path d="M454975.36,528795.99l575,0" />
          <path d="M455550.36,528795.99l0,-380" />
          <path d="M455550.36,528415.99l-575,0" />
          <path d="M469550.36,528415.99l-1500,0" />
          <path d="M468050.36,528415.99l0,380" />
          <path d="M468050.36,528795.99l1500,0" />
          <path d="M469550.36,528795.99l0,-380" />
          <path d="M466050.36,528415.99l-1500,0" />
          <path d="M464550.36,528415.99l0,380" />
          <path d="M464550.36,528795.99l1500,0" />
          <path d="M466050.36,528795.99l0,-380" />
          <path d="M462550.36,528415.99l-1500,0" />
          <path d="M461050.36,528415.99l0,380" />
          <path d="M461050.36,528795.99l1500,0" />
          <path d="M462550.36,528795.99l0,-380" />
          <path d="M459050.36,528415.99l-1500,0" />
          <path d="M457550.36,528415.99l0,380" />
          <path d="M457550.36,528795.99l1500,0" />
          <path d="M459050.36,528795.99l0,-380" />
          <path d="M454595.36,537385.99l0,610" />
          <path d="M454595.36,537995.99l380,0" />
          <path d="M454975.36,537995.99l0,-710" />
          <path d="M454975.36,544475.99l0,-1980" />
          <path d="M454975.36,542495.99l-380,0" />
          <path d="M454595.36,542495.99l0,1600" />
          <path d="M454595.36,539495.99l0,1500" />
          <path d="M454595.36,540995.99l380,0" />
          <path d="M454975.36,540995.99l0,-1500" />
          <path d="M454975.36,539495.99l-380,0" />
          <path d="M440475.36,544095.99l0,-7410" />
          <path d="M440475.36,536685.99l-380,0" />
          <path d="M440095.36,536685.99l0,7790" />
          <path d="M440095.36,533785.99l0,900" />
          <path d="M440095.36,534685.99l380,0" />
          <path d="M440475.36,534685.99l0,-710" />
          <path d="M454595.36,533975.99l-6000,0" />
          <path d="M454595.36,533595.99l-5620,0" />
          <path d="M454595.36,533975.99l0,1020" />
          <path d="M454595.36,534995.99l380,0" />
          <path d="M454975.36,534995.99l0,-1210" />
          <path d="M454975.36,537285.99l0,-790" />
          <path d="M454975.36,536495.99l-380,0" />
          <path d="M454595.36,536495.99l0,690" />
          <path d="M446475.36,533975.99l-6000,0" />
          <path d="M446095.36,533595.99l-5620,0" />
          <path d="M446275.36,533975.99l0,900" />
          <path d="M446275.36,534875.99l200,0" />
          <path d="M446475.36,534875.99l0,-900" />
          <path d="M446475.36,533975.99l-200,0" />
          <path d="M446475.36,537185.99l0,-1310" />
          <path d="M446475.36,535875.99l-200,0" />
          <path d="M446275.36,535875.99l0,1310" />
          <use xlink:href="#$DorLib2D$00000001" x="446.375" y="535.376" transform="scale(1000,1000) scale(1,-1) translate(0,-1070.75) rotate(-90,446.38,535.38)" stroke-width="0.0001%">.</use>
          <path d="M446375.36,537385.99l-5900,0" />
          <path d="M446275.36,537185.99l-5800,0" />
          <path d="M440475.36,537385.99l0,-200" />
          <path d="M448595.36,533975.99l0,900" />
          <path d="M448595.36,534875.99l200,0" />
          <path d="M448795.36,534875.99l0,-900" />
          <path d="M448795.36,533975.99l-200,0" />
          <path d="M448795.36,537185.99l0,-1310" />
          <path d="M448795.36,535875.99l-200,0" />
          <path d="M448595.36,535875.99l0,1310" />
          <use xlink:href="#$DorLib2D$00000001" x="448.695" y="535.376" transform="scale(1000,1000) rotate(-270,448.7,535.38)" stroke-width="0.0001%">.</use>
          <path d="M448595.36,537185.99l-310,0" />
          <path d="M448285.36,537185.99l0,200" />
          <path d="M448285.36,537385.99l410,0" />
          <path d="M446375.36,537385.99l410,0" />
          <path d="M446785.36,537385.99l0,-200" />
          <path d="M446785.36,537185.99l-310,0" />
          <use xlink:href="#$DorLib2D$00000001" x="456.035" y="522.286" transform="scale(1000,1000) rotate(-180,456.04,522.29)" stroke-width="0.0001%">.</use>
          <path d="M463565.36,522475.99l1000,0" />
          <path d="M464565.36,522095.99l-1000,0" />
          <use xlink:href="#$DorLib2D$00000001" x="466.505" y="522.286" transform="scale(1000,1000) scale(-1,1) translate(-933.01,0) rotate(-180,466.51,522.29)" stroke-width="0.0001%">.</use>
          <path d="M496975.36,544095.99l0,-1600" />
          <path d="M496975.36,542495.99l-380,0" />
          <path d="M496595.36,542495.99l0,1980" />
          <path d="M496595.36,533785.99l0,1210" />
          <path d="M496595.36,534995.99l380,0" />
          <path d="M496975.36,534995.99l0,-1020" />
          <path d="M496975.36,540995.99l0,-1500" />
          <path d="M496975.36,539495.99l-380,0" />
          <path d="M496595.36,539495.99l0,1500" />
          <path d="M496595.36,540995.99l380,0" />
          <path d="M496975.36,537995.99l0,-1500" />
          <path d="M496975.36,536495.99l-380,0" />
          <path d="M496595.36,536495.99l0,1500" />
          <path d="M496595.36,537995.99l380,0" />
          <path d="M468885.36,522475.99l0,5940" />
          <path d="M468685.36,522475.99l0,5940" />
          <path d="M468885.36,528415.99l-200,0" />
          <path d="M468785.36,522095.99l-1780,0" />
          <path d="M467005.36,522095.99l0,380" />
          <path d="M467005.36,522475.99l1680,0" />
          <path d="M454975.36,522475.99l560,0" />
          <path d="M455535.36,522475.99l0,-380" />
          <path d="M455535.36,522095.99l-750,0" />
          <path d="M466005.36,522095.99l-1440,0" />
          <path d="M464565.36,522475.99l1440,0" />
          <path d="M466005.36,522475.99l0,-380" />
          <path d="M463565.36,522095.99l-7030,0" />
          <path d="M456535.36,522095.99l0,380" />
          <path d="M456535.36,522475.99l7030,0" />
          <path d="M472095.36,522475.99l-710,0" />
          <path d="M472285.36,522095.99l-710,0" />
          <path d="M482870.36,522475.99l0,5940" />
          <path d="M482670.36,522475.99l0,5940" />
          <path d="M482870.36,528415.99l-200,0" />
          <path d="M482770.36,522095.99l-705,0" />
          <path d="M482065.36,522095.99l0,380" />
          <path d="M482065.36,522475.99l605,0" />
          <path d="M480185.36,522475.99l880,0" />
          <path d="M481065.36,522475.99l0,-380" />
          <path d="M481065.36,522095.99l-690,0" />
          <path d="M489595.36,519595.99l0,-5620" />
          <path d="M489975.36,519595.99l0,-5620" />
          <path d="M489785.36,519975.99l5250,0" />
          <path d="M495035.36,519975.99l0,-380" />
          <path d="M495035.36,519595.99l-5060,0" />
          <path d="M496595.36,519595.99l-560,0" />
          <path d="M496035.36,519595.99l0,380" />
          <path d="M496035.36,519975.99l750,0" />
          <path d="M489975.36,513975.99l545,0" />
          <path d="M490520.36,513975.99l0,-380" />
          <path d="M490520.36,513595.99l-735,0" />
          <path d="M496785.36,513595.99l-765,0" />
          <path d="M496020.36,513595.99l0,380" />
          <path d="M496020.36,513975.99l575,0" />
          <path d="M492520.36,513975.99l1500,0" />
          <path d="M494020.36,513975.99l0,-380" />
          <path d="M494020.36,513595.99l-1500,0" />
          <path d="M492520.36,513595.99l0,380" />
          <path d="M502595.36,533595.99l0,-2360" />
          <path d="M502975.36,533785.99l0,-2740" />
          <path d="M502595.36,544095.99l-460,0" />
          <path d="M502135.36,544095.99l0,380" />
          <path d="M502135.36,544475.99l650,0" />
          <path d="M496595.36,544475.99l3540,0" />
          <path d="M500135.36,544475.99l0,-380" />
          <path d="M500135.36,544095.99l-3160,0" />
          <use xlink:href="#$DorLib2D$00000002" x="336.024" y="358.191" transform="scale(1500,1500) scale(-1,1) translate(-672.05,0)" stroke-width="0.0001%">.</use>
          <path d="M502975.36,537475.99l310,0" />
          <path d="M503285.36,537475.99l0,-380" />
          <path d="M503285.36,537095.99l-310,0" />
          <path d="M505095.36,537095.99l-310,0" />
          <path d="M504785.36,537095.99l0,380" />
          <path d="M504785.36,537475.99l500,0" />
          <path d="M511095.36,537475.99l0,710" />
          <path d="M511095.36,538185.99l380,0" />
          <path d="M511475.36,538185.99l0,-900" />
          <path d="M511475.36,544475.99l0,-4290" />
          <path d="M511475.36,540185.99l-380,0" />
          <path d="M511095.36,540185.99l0,3910" />
          <use xlink:href="#$TCHSYS$WIN2D_2000x380" x="511285.36" y="539185.99" transform="scale(-1,1) translate(-1022570.72,0) rotate(-90,511285.36,539185.99)">.</use>
          <path d="M505475.36,537095.99l5620,0" />
          <path d="M505285.36,537475.99l5810,0" />
          <path d="M502975.36,537095.99l0,-600" />
          <path d="M502975.36,536495.99l-380,0" />
          <path d="M502595.36,536495.99l0,790" />
          <path d="M502595.36,533975.99l0,1520" />
          <path d="M502975.36,534995.99l0,-1210" />
          <path d="M444405.36,523095.99l-766.34,0" />
          <path d="M443526.32,523095.99l-1550.96,0" />
          <path d="M444405.36,523095.99l0,-1450" />
          <path d="M444135.36,523095.99l0,-1450" />
          <path d="M443865.36,523095.99l0,-1450" />
          <path d="M443595.36,523011.97l0,-1365.98" />
          <path d="M443325.36,523095.99l0,-386.75" />
          <path d="M443325.36,522492.36l0,-846.37" />
          <path d="M443055.36,523095.99l0,-906.37" />
          <path d="M443055.36,521972.74l0,-326.75" />
          <path d="M442785.36,523095.99l0,-1425.98" />
          <path d="M442515.36,523095.99l0,-1450" />
          <path d="M442245.36,523095.99l0,-1450" />
          <path d="M441975.36,523095.99l0,-1450" />
          <path d="M444405.36,521585.99l-1550.96,0" />
          <path d="M442741.7,521585.99l-766.34,0" />
          <path d="M443526.32,523095.99l-345.08,-664.12" />
          <path d="M443639.02,523095.99l-356.69,-686.45" />
          <path d="M443282.33,522409.54l-174.23,38.49" />
          <path d="M443108.1,522448.03l181.86,-198.17" />
          <path d="M443289.96,522249.86l-182.37,40.29" />
          <path d="M443107.59,522290.15l-365.89,-704.16" />
          <path d="M443208.68,522267.81l-354.29,-681.82" />
          <path d="M441975.36,519975.99l2430,0" />
          <path d="M441975.36,519975.99l0,1450" />
          <path d="M442245.36,519975.99l0,1450" />
          <path d="M442515.36,519975.99l0,1450" />
          <path d="M442785.36,519975.99l0,1450" />
          <path d="M443055.36,519975.99l0,1450" />
          <path d="M443325.36,519975.99l0,1450" />
          <path d="M443595.36,519975.99l0,1450" />
          <path d="M443865.36,519975.99l0,1450" />
          <path d="M444135.36,519975.99l0,1450" />
          <path d="M444405.36,519975.99l0,1450" />
          <path d="M441975.36,521485.99l2430,0" />
          <path d="M444555.36,521425.99l0,220" />
          <path d="M444555.36,521645.99l-1669.79,0" />
          <path d="M442772.88,521645.99l-947.52,0" />
          <path d="M441825.36,521645.99l0,-220" />
          <path d="M441825.36,521425.99l2730,0" />
          <path d="M444495.36,521485.99l0,100" />
          <path d="M444495.36,521585.99l-1640.96,0" />
          <path d="M442741.7,521585.99l-856.34,0" />
          <path d="M441885.36,521585.99l0,-100" />
          <path d="M441885.36,521485.99l2610,0" />
          <path d="M441975.36,519975.99l-1500,0" />
          <path d="M440475.36,519975.99l0,3120" />
          <path d="M440475.36,523095.99l1500,0" />
          <path d="M441975.36,523095.99l0,-1450" />
          <path d="M441975.36,521585.99l0,-100" />
          <path d="M441975.36,521425.99l0,-1450" />
          <path d="M444405.36,521585.99l0,-100" />
          <path d="M507165.36,523095.99l1550.96,0" />
          <path d="M508829.02,523095.99l766.34,0" />
          <path d="M507165.36,521645.99l0,1450" />
          <path d="M507435.36,521645.99l0,1450" />
          <path d="M507705.36,521645.99l0,1450" />
          <path d="M507975.36,521670.01l0,1425.98" />
          <path d="M508245.36,521645.99l0,326.75" />
          <path d="M508245.36,522189.62l0,906.37" />
          <path d="M508515.36,521645.99l0,846.37" />
          <path d="M508515.36,522709.24l0,386.75" />
          <path d="M508785.36,521645.99l0,1365.98" />
          <path d="M509055.36,521645.99l0,1450" />
          <path d="M509325.36,521645.99l0,1450" />
          <path d="M509595.36,521645.99l0,1450" />
          <path d="M507165.36,521585.99l766.34,0" />
          <path d="M508044.4,521585.99l1550.96,0" />
          <path d="M508044.4,521585.99l345.08,664.12" />
          <path d="M507931.7,521585.99l356.69,686.45" />
          <path d="M508288.39,522272.44l174.23,-38.49" />
          <path d="M508462.62,522233.95l-181.86,198.17" />
          <path d="M508280.76,522432.12l182.37,-40.29" />
          <path d="M508463.13,522391.83l365.89,704.16" />
          <path d="M508362.04,522414.17l354.29,681.82" />
          <path d="M509595.36,519975.99l-2430,0" />
          <path d="M509595.36,521425.99l0,-1450" />
          <path d="M509325.36,521425.99l0,-1450" />
          <path d="M509055.36,521425.99l0,-1450" />
          <path d="M508785.36,521425.99l0,-1450" />
          <path d="M508515.36,521425.99l0,-1450" />
          <path d="M508245.36,521425.99l0,-1450" />
          <path d="M507975.36,521425.99l0,-1450" />
          <path d="M507705.36,521425.99l0,-1450" />
          <path d="M507435.36,521425.99l0,-1450" />
          <path d="M507165.36,521425.99l0,-1450" />
          <path d="M509595.36,521485.99l-2430,0" />
          <path d="M507075.36,521485.99l0,100" />
          <path d="M507075.36,521585.99l856.34,0" />
          <path d="M508044.4,521585.99l1640.96,0" />
          <path d="M509685.36,521585.99l0,-100" />
          <path d="M509685.36,521485.99l-2610,0" />
          <path d="M507015.36,521425.99l0,220" />
          <path d="M507015.36,521645.99l947.52,0" />
          <path d="M508075.57,521645.99l1669.79,0" />
          <path d="M509745.36,521645.99l0,-220" />
          <path d="M509745.36,521425.99l-2730,0" />
          <path d="M509595.36,523095.99l1500,0" />
          <path d="M511095.36,523095.99l0,-3120" />
          <path d="M511095.36,519975.99l-1500,0" />
          <path d="M509595.36,519975.99l0,1450" />
          <path d="M509595.36,521485.99l0,100" />
          <path d="M509595.36,521645.99l0,1450" />
          <path d="M507165.36,521585.99l0,-100" />
          <path d="M472475.36,518805.99l0,-637.65" />
          <path d="M472475.36,518052.87l0,-1676.88" />
          <path d="M474275.36,518805.99l0,-1676.88" />
          <path d="M474275.36,517013.64l0,-637.65" />
          <path d="M472475.36,518805.99l1800,0" />
          <path d="M472475.36,518535.99l1800,0" />
          <path d="M472475.36,518265.99l1800,0" />
          <path d="M472475.36,517995.99l98.52,0" />
          <path d="M472773.88,517995.99l1501.48,0" />
          <path d="M472475.36,517725.99l566.17,0" />
          <path d="M473241.53,517725.99l1033.83,0" />
          <path d="M472475.36,517455.99l1033.83,0" />
          <path d="M473709.19,517455.99l566.17,0" />
          <path d="M472475.36,517185.99l1501.48,0" />
          <path d="M474176.84,517185.99l98.52,0" />
          <path d="M472475.36,516915.99l1800,0" />
          <path d="M472475.36,516645.99l1800,0" />
          <path d="M472475.36,516375.99l1800,0" />
          <path d="M472475.36,518052.87l808.8,-466.96" />
          <path d="M472475.36,518168.34l835.6,-482.43" />
          <path d="M473310.96,517685.91l-46.18,-172.35" />
          <path d="M473264.77,517513.56l206.04,172.89" />
          <path d="M473470.82,517686.45l-48.34,-180.4" />
          <path d="M473422.48,517506.05l852.88,-492.41" />
          <path d="M473449.28,517606.05l826.08,-476.94" />
          <path d="M476985.36,516375.99l0,2430" />
          <path d="M474585.36,516375.99l0,2430" />
          <path d="M476985.36,516375.99l-2400,0" />
          <path d="M476985.36,516645.99l-2400,0" />
          <path d="M476985.36,516915.99l-2400,0" />
          <path d="M476985.36,517185.99l-2400,0" />
          <path d="M476985.36,517455.99l-2400,0" />
          <path d="M476985.36,517725.99l-2400,0" />
          <path d="M476985.36,517995.99l-2400,0" />
          <path d="M476985.36,518265.99l-2400,0" />
          <path d="M476985.36,518535.99l-2400,0" />
          <path d="M476985.36,518805.99l-2400,0" />
          <path d="M477295.36,518805.99l0,-637.65" />
          <path d="M477295.36,518052.87l0,-1676.88" />
          <path d="M479095.36,518805.99l0,-1676.88" />
          <path d="M479095.36,517013.64l0,-637.65" />
          <path d="M477295.36,518805.99l1800,0" />
          <path d="M477295.36,518535.99l1800,0" />
          <path d="M477295.36,518265.99l1800,0" />
          <path d="M477295.36,517995.99l98.52,0" />
          <path d="M477593.88,517995.99l1501.48,0" />
          <path d="M477295.36,517725.99l566.17,0" />
          <path d="M478061.53,517725.99l1033.83,0" />
          <path d="M477295.36,517455.99l1033.83,0" />
          <path d="M478529.19,517455.99l566.17,0" />
          <path d="M477295.36,517185.99l1501.48,0" />
          <path d="M478996.84,517185.99l98.52,0" />
          <path d="M477295.36,516915.99l1800,0" />
          <path d="M477295.36,516645.99l1800,0" />
          <path d="M477295.36,516375.99l1800,0" />
          <path d="M477295.36,518052.87l808.8,-466.96" />
          <path d="M477295.36,518168.34l835.6,-482.43" />
          <path d="M478130.96,517685.91l-46.18,-172.35" />
          <path d="M478084.77,517513.56l206.04,172.89" />
          <path d="M478290.82,517686.45l-48.34,-180.4" />
          <path d="M478242.48,517506.05l852.88,-492.41" />
          <path d="M478269.28,517606.05l826.08,-476.94" />
          <path d="M474645.36,518865.99l-430,0" />
          <path d="M474215.36,518865.99l0,-2550" />
          <path d="M474215.36,516315.99l430,0" />
          <path d="M474645.36,516315.99l0,2550" />
          <path d="M474585.36,518805.99l-310,0" />
          <path d="M474275.36,518805.99l0,-2430" />
          <path d="M474275.36,516375.99l310,0" />
          <path d="M474585.36,516375.99l0,2430" />
          <path d="M476985.36,518805.99l310,0" />
          <path d="M477295.36,518805.99l0,-2430" />
          <path d="M477295.36,516375.99l-310,0" />
          <path d="M476985.36,516375.99l0,2430" />
          <path d="M476925.36,518865.99l430,0" />
          <path d="M477355.36,518865.99l0,-2550" />
          <path d="M477355.36,516315.99l-430,0" />
          <path d="M476925.36,516315.99l0,2550" />
          <path d="M479095.36,516375.99l0,-2400" />
          <path d="M479095.36,513975.99l-6620,0" />
          <path d="M472475.36,513975.99l0,2400" />
          <path d="M472475.36,516375.99l6620,0" />
          <path d="M468595.36,519595.99l0,-5620" />
          <path d="M468975.36,519595.99l0,-5620" />
          <path d="M468785.36,519975.99l985,0" />
          <path d="M469770.36,519975.99l0,-380" />
          <path d="M469770.36,519595.99l-795,0" />
          <path d="M471385.36,519595.99l-615,0" />
          <path d="M470770.36,519595.99l0,380" />
          <path d="M470770.36,519975.99l425,0" />
          <use xlink:href="#$DorLib2D$00000001" x="470.27" y="519.786" transform="scale(1000,1000) scale(-1,1) translate(-940.54,0)" stroke-width="0.0001%">.</use>
          <path d="M468975.36,513975.99l575,0" />
          <path d="M469550.36,513975.99l0,-380" />
          <path d="M469550.36,513595.99l-765,0" />
          <path d="M472285.36,513595.99l-735,0" />
          <path d="M471550.36,513595.99l0,380" />
          <path d="M471550.36,513975.99l545,0" />
          <path d="M454785.36,519975.99l750,0" />
          <path d="M455535.36,519975.99l0,-380" />
          <path d="M455535.36,519595.99l-560,0" />
          <path d="M468595.36,519595.99l-795,0" />
          <path d="M467800.36,519595.99l0,380" />
          <path d="M467800.36,519975.99l985,0" />
          <path d="M456535.36,519975.99l6950,0" />
          <path d="M463485.36,519595.99l-6950,0" />
          <path d="M456535.36,519595.99l0,380" />
          <path d="M464585.36,519975.99l2215,0" />
          <path d="M466800.36,519975.99l0,-380" />
          <path d="M466800.36,519595.99l-2215,0" />
          <use xlink:href="#$DorLib2D$00000001" x="467.3" y="519.786" transform="scale(1000,1000)" stroke-width="0.0001%">.</use>
          <path d="M464585.36,519595.99l-1100,0" />
          <path d="M463485.36,519975.99l1100,0" />
          <path d="M454975.36,513975.99l575,0" />
          <path d="M455550.36,513975.99l0,-380" />
          <path d="M455550.36,513595.99l-765,0" />
          <path d="M468785.36,513595.99l-735,0" />
          <path d="M468050.36,513595.99l0,380" />
          <path d="M468050.36,513975.99l545,0" />
          <path d="M457550.36,513975.99l1500,0" />
          <path d="M459050.36,513975.99l0,-380" />
          <path d="M459050.36,513595.99l-1500,0" />
          <path d="M457550.36,513595.99l0,380" />
          <path d="M461050.36,513975.99l1500,0" />
          <path d="M462550.36,513975.99l0,-380" />
          <path d="M462550.36,513595.99l-1500,0" />
          <path d="M461050.36,513595.99l0,380" />
          <path d="M464550.36,513975.99l1500,0" />
          <path d="M466050.36,513975.99l0,-380" />
          <path d="M466050.36,513595.99l-1500,0" />
          <path d="M464550.36,513595.99l0,380" />
          <use xlink:href="#$DorLib2D$00000001" x="505.475" y="519.786" transform="scale(1000,1000) scale(-1,1) translate(-1010.95,0)" stroke-width="0.0001%">.</use>
          <path d="M496975.36,513975.99l545,0" />
          <path d="M497520.36,513975.99l0,-380" />
          <path d="M497520.36,513595.99l-735,0" />
          <path d="M511475.36,513595.99l-4955,0" />
          <path d="M506520.36,513595.99l0,380" />
          <path d="M506520.36,513975.99l4575,0" />
          <path d="M499520.36,513975.99l1500,0" />
          <path d="M501020.36,513975.99l0,-380" />
          <path d="M501020.36,513595.99l-1500,0" />
          <path d="M499520.36,513595.99l0,380" />
          <path d="M503020.36,513975.99l1500,0" />
          <path d="M504520.36,513975.99l0,-380" />
          <path d="M504520.36,513595.99l-1500,0" />
          <path d="M503020.36,513595.99l0,380" />
          <path d="M502075.36,519975.99l2900,0" />
          <path d="M504975.36,519975.99l0,-380" />
          <path d="M504975.36,519595.99l-3090,0" />
          <path d="M511095.36,519595.99l-5120,0" />
          <path d="M505975.36,519595.99l0,380" />
          <path d="M505975.36,519975.99l5120,0" />
          <path d="M502595.36,544095.99l0,-6810" />
          <path d="M502975.36,544095.99l0,-6620" />
          <path d="M501445.36,526905.99l0,-75" />
          <path d="M501595.36,526905.99l0,0" />
          <path d="M501445.36,526905.99l150,0" />
          <path d="M501595.36,526905.99l0,-150" />
          <path d="M502595.36,526755.99l-100,0" />
          <path d="M502495.36,526755.99l0,150" />
          <path d="M502495.36,526905.99l100,0" />
          <use xlink:href="#$DorLib2D$00000001" x="557.828" y="585.368" transform="scale(900,900) scale(1,-1) translate(0,-1170.74)" stroke-width="0.0001%">.</use>
          <path d="M501445.36,526830.99l0,-1375" />
          <path d="M501595.36,526755.99l0,-1300" />
          <path d="M501445.36,525455.99l150,0" />
          <path d="M502975.36,526830.99l0,-195" />
          <path d="M502975.36,526635.99l-380,0" />
          <path d="M502595.36,526635.99l0,195" />
          <path d="M502595.36,525455.99l0,180" />
          <path d="M502595.36,525635.99l380,0" />
          <path d="M502975.36,525635.99l0,-370" />
          <path d="M451595.44,522475.99l0,2600" />
          <path d="M451445.44,522475.99l0,2600" />
          <path d="M449685.36,522475.99l490,0" />
          <path d="M450175.36,522475.99l0,-380" />
          <path d="M450175.36,522095.99l-300,0" />
          <path d="M451520.44,522095.99l-345.08,0" />
          <path d="M451175.36,522095.99l0,380" />
          <path d="M451175.36,522475.99l270.08,0" />
          <use xlink:href="#$DorLib2D$00000001" x="450.675" y="522.286" transform="scale(1000,1000) scale(-1,-1) translate(-901.35,-1044.57)" stroke-width="0.0001%">.</use>
          <path d="M451595.44,522475.99l1439.92,0" />
          <path d="M453035.36,522475.99l0,-380" />
          <path d="M453035.36,522095.99l-1514.92,0" />
          <path d="M454785.36,522095.99l-750,0" />
          <path d="M454035.36,522095.99l0,380" />
          <path d="M454035.36,522475.99l560,0" />
          <path d="M451520.44,525455.99l-2545.08,0" />
          <path d="M451445.44,525075.99l-2470.08,0" />
          <use xlink:href="#$DorLib2D$00000002" x="335.192" y="357.163" transform="scale(1500,1500) scale(-1,1) translate(-670.38,0) rotate(-270,335.19,357.16)" stroke-width="0.0001%">.</use>
        </g>
        <g id="layer-0" class="cnc-1">
          <path d="M525669.36,542297.58l5166,0" class="cnc-0" />
          <path d="M530835.36,545454.58l-5166,0" />
          <path d="M525669.36,554638.58l5166,0" />
          <path d="M530835.36,548611.58l-5166,0" class="cnc-0" />
          <path d="M525669.36,555643.08l5166,0" />
          <path d="M528395.86,554638.58l0,5022.5" />
          <path d="M525669.36,556647.58l5166,0" />
          <path d="M530835.36,557652.08l-5166,0" />
          <path d="M530835.36,558656.58l-5166,0" />
        </g>
      </g>
      <g id="assets" fill="none">
        <g id="rm-assets" class="rm-asset">
          <path id="15010;F03;315" d="M440475.36,537385.99l0,6710l14120,0l0,-6710z" />
          <path id="15010;F03;320" d="M454975.36,522475.99l0,5940l13710,0l0,-5940z" />
          <path id="15010;F03;304" d="M496975.36,513975.99l0,5620l14120,0l0,-5620z" />
          <path id="15010;F03;312" d="M440475.36,513975.99l0,5620l14120,0l0,-5620z" />
          <path id="15010;F03;302" d="M505475.36,523475.99l0,13620l5620,0l0,-13620z" />
          <path id="15010;F03;309" d="M454975.36,513975.99l0,5620l13620,0l0,-5620z" />
          <path id="15010;F03;313" d="M440475.36,523475.99l0,10120l5620,0l0,-10120z" />
          <path id="15010;F03;301" d="M502975.36,537475.99l0,6620l8120,0l0,-6620z" />
          <path id="15010;F03;318" d="M448975.36,525455.99l0,8140l5620,0l0,-8140z" />
          <path id="15010;F03;306" d="M489975.36,513975.99l0,5620l6620,0l0,-5620z" />
          <path id="15010;F03;316" d="M448795.36,533975.99l0,3210l5800,0l0,-3210z" />
          <path id="15010;F03;314" d="M440475.36,533975.99l0,3210l5620,0l0,-3210z" />
          <path id="15010;F03;308" d="M468975.36,513975.99l0,5620l3120,0l0,-5620z" />
          <path id="15010;F03;307" d="M479475.36,513975.99l0,5620l3120,0l0,-5620z" />
          <path id="15010;F03;319" d="M448975.36,522475.99l0,2600l2470.08,0l0,-2600z" />
        </g>
      </g>
    </g>
    <g id="text" font-family="黑体" font-size="390.1020253158228" font-weight="normal" text-style="normal" text-anchor="middle" dominant-baseline="alphabetical" fill="#00BFFF" xml:space="preserve">
      <g id="layer-0-text">
        <g transform="translate(528285.36,550861.08)" font-family="Arial" font-size="520" fill="#000000" stroke="#000000" stroke-width="0.02">
          <text>三层平面图</text>
        </g>
        <g transform="translate(526817.36,542736.54)" font-size="389.889">
          <text>工程名称</text>
        </g>
        <g transform="translate(526817.36,545865.95)" font-size="389.889">
          <text>图    名</text>
        </g>
        <g transform="translate(526879.24,544305.72)" font-family="Arial" font-size="629.772" text-anchor="start" fill="#000000" stroke="#000000" stroke-width="0.02">
          <text>北京林业大学基础楼</text>
        </g>
        <g transform="translate(527054.13,555140.83)">
          <text>制    图</text>
        </g>
        <g transform="translate(527054.13,556145.33)">
          <text>校    对</text>
        </g>
        <g transform="translate(527054.13,557149.83)">
          <text>审    核</text>
        </g>
        <g transform="translate(527054.13,558154.33)">
          <text>图    号</text>
        </g>
        <g transform="translate(527054.13,559158.83)">
          <text>日    期</text>
        </g>
        <g transform="translate(528485.12,555363.95)" font-family="Arial" font-size="596.96" text-anchor="start" fill="#000000" stroke="#000000" stroke-width="0.02">
          <text>刘程程</text>
        </g>
        <g transform="translate(528618.72,559341.35)" font-family="Arial" font-size="596.96" text-anchor="start" fill="#000000" stroke="#000000" stroke-width="0.02">
          <text>2014.06</text>
        </g>
      </g>
    </g>
    <g id="asset-labels" font-family="Arial" font-weight="bold" font-size="38.1em" text-anchor="middle">
      <g id="rm-labels">
        <g id="l-rm-15010;F03;315" transform="translate(447535.36,540740.99)">
          <text>315</text>
        </g>
        <g id="l-rm-15010;F03;320" transform="translate(461830.36,525445.99)">
          <text>320</text>
        </g>
        <g id="l-rm-15010;F03;304" transform="translate(504035.36,516785.99)">
          <text>304</text>
        </g>
        <g id="l-rm-15010;F03;312" transform="translate(447535.36,516785.99)">
          <text>312</text>
        </g>
        <g id="l-rm-15010;F03;302" transform="translate(508285.36,530285.99)">
          <text>302</text>
        </g>
        <g id="l-rm-15010;F03;309" transform="translate(461785.36,516785.99)">
          <text>309</text>
        </g>
        <g id="l-rm-15010;F03;313" transform="translate(443285.36,528535.99)">
          <text>313</text>
        </g>
        <g id="l-rm-15010;F03;301" transform="translate(507035.36,540785.99)">
          <text>301</text>
        </g>
        <g id="l-rm-15010;F03;318" transform="translate(451785.36,529525.99)">
          <text>318</text>
        </g>
        <g id="l-rm-15010;F03;306" transform="translate(493285.36,516785.99)">
          <text>306</text>
        </g>
        <g id="l-rm-15010;F03;316" transform="translate(451695.36,535580.99)">
          <text>316</text>
        </g>
        <g id="l-rm-15010;F03;314" transform="translate(443285.36,535580.99)">
          <text>314</text>
        </g>
        <g id="l-rm-15010;F03;308" transform="translate(470535.36,516785.99)">
          <text>308</text>
        </g>
        <g id="l-rm-15010;F03;307" transform="translate(481035.36,516785.99)">
          <text>307</text>
        </g>
        <g id="l-rm-15010;F03;319" transform="translate(450210.4,523775.99)">
          <text>319</text>
        </g>
      </g>
    </g>
  </g>
</svg>