<svg version="1.1" xmlns="http://www.w3.org/2000/svg" xmlns:xlink="http://www.w3.org/1999/xlink" viewBox="-129161.43 -156163.21 61802 26250">
  <style>.i0 { stroke:#000000;   } .body { stroke:#ff7f00;   } .rm { stroke:#00ffff;   } .defpoints { stroke:#000000;   } .axis_text { stroke:#000000;   } .pub_wall { stroke:#c0c0c0;   } .rm-asset { stroke:#0000ff;   fill:#EEEEEE; fill-opacity:1;} .rmtc-asset { stroke:#0000ff;   } .rmtc { stroke:#00ffff;   } .rm-assettxt { stroke:#0000ff;   } .rmtc-assettxt { stroke:#0000ff;   } .cnc-0 { stroke:#ff7f00; stroke-width:50; stroke-dasharray:0; } .cnc-1 { stroke:#000000;  stroke-dasharray:0; } .blkclass0 { stroke:#ff7f00;  stroke-width:0.02;  fill:#ff7f00; fill-opacity:1; font-family:Arial; font-size:386.75; font-weight:normal; text-style:normal; text-anchor:start;}</style>
  <view id="defaultView" viewBox="-129161.43 -156163.21 61802 26250" />
  <defs>
    <symbol id="$TCHSYS$WIN2D_1800x380" overflow="visible" class="i0">
      <path d="M-900,-190l1800,0" />
      <path d="M-900,190l1800,0" />
      <path d="M900,63.33l-1800,0" />
      <path d="M900,-63.33l-1800,0" />
      <path d="M-900,-190l0,380" />
      <path d="M900,-190l0,380" />
    </symbol>
    <symbol id="$TCHSYS$WIN2D_2000x380" overflow="visible" class="i0">
      <path d="M-1000,-190l2000,0" />
      <path d="M-1000,190l2000,0" />
      <path d="M1000,63.33l-2000,0" />
      <path d="M1000,-63.33l-2000,0" />
      <path d="M-1000,-190l0,380" />
      <path d="M1000,-190l0,380" />
    </symbol>
    <symbol id="$DorLib2D$00000002" overflow="visible" class="i0">
      <path d="M-0.5,0l0,-0.49" />
      <path d="M-0.48,0l0,-0.49" />
      <path d="M-0.5,0l0.02,0" />
      <path d="M-0.48,-0.49l-0.02,0" />
      <path d="M-0.48,-0.49a0.49,0.49 0 0,1 0.48,0.49" />
      <path d="M0,0a0.49,0.49 0 0,1 0.48,-0.49" />
      <path d="M0.48,0l0,-0.49" />
      <path d="M0.5,0l0,-0.49" />
      <path d="M0.48,-0.49l0.02,0" />
      <path d="M0.5,0l-0.02,0" />
    </symbol>
    <symbol id="$DorLib2D$00000003" overflow="visible" class="i0">
      <path d="M0.47,0l0,-0.97" />
      <path d="M-0.5,0a0.97,0.97 0 0,1 0.97,-0.97" />
    </symbol>
    <symbol id="$TCHSYS$WIN2D_1750x380" overflow="visible" class="i0">
      <path d="M-875,-190l1750,0" />
      <path d="M-875,190l1750,0" />
      <path d="M875,63.33l-1750,0" />
      <path d="M875,-63.33l-1750,0" />
      <path d="M-875,-190l0,380" />
      <path d="M875,-190l0,380" />
    </symbol>
    <symbol id="$TCHSYS$APDOOR2D" overflow="visible" class="i0">
      <path d="M0.5,0l-0.5,-0.87" />
      <path d="M-0.5,0a1,1 0 0,1 0.5,-0.87" />
    </symbol>
  </defs>
  <g id="viewer">
    <g id="mirror" transform="scale(1, 1)" stroke-width="0.09%">
      <g id="background" fill="none">
        <g id="layer-body-fills" class="body">
          <path d="M-79133.32,-152791.78l400,0l0,-500l-400,0z" />
          <path d="M-79183.32,-152741.78l500,0l0,-600l-500,0z" />
          <path d="M-92913.32,-138521.78l40,0l0,-40l-40,0z" />
        </g>
        <g id="layer-RM-fills" class="rm">
          <path d="M-82203.32,-153351.78l3520,0l0,5120l-3520,0z" />
        </g>
        <g id="layer-body" class="body">
          <path d="M-104403.32,-138351.78l0,2700l12319.79,0l0.21,-2700" />
          <path d="M-104353.32,-138351.78l0,2650l12219.8,0l0.2,-2650" />
          <path d="M-103503.32,-138351.78l0,1800l10519.86,0l0.14,-1800.07" />
          <path d="M-99973.32,-145731.78l370,0l0,380l-370,0" class="cnc-0" />
          <path d="M-98433.32,-145731.78l-370,0l0,380l370,0" class="cnc-0" />
          <path d="M-78923.32,-151167a40,40 0 0,0 40,-40m0,0l0,-199.57m0,0a40,40 0 0,0 -40,-40m0,0l-439.66,0m0,0a110,110 0 0,0 -110,110m0,0l0,59.57m0,0a110,110 0 0,0 110,110m0,0l439.66,0" />
          <path d="M-78913.32,-151207a10,10 0 0,1 -10,10" />
          <path d="M-78923.32,-151416.56a10,10 0 0,1 10,10" />
          <path d="M-78913.32,-151207l0,-199.57" />
          <circle r="20" cx="-79241.94" cy="-151306.78" />
          <path d="M-79352.98,-151167l0,-279.57" />
          <path d="M-79352.98,-151197l429.66,0" />
          <path d="M-78923.32,-151416.56l-429.66,0" />
          <path d="M-78923.32,-152067a40,40 0 0,0 40,-40m0,0l0,-199.57m0,0a40,40 0 0,0 -40,-40m0,0l-439.66,0m0,0a110,110 0 0,0 -110,110m0,0l0,59.57m0,0a110,110 0 0,0 110,110m0,0l439.66,0" />
          <path d="M-78913.32,-152107a10,10 0 0,1 -10,10" />
          <path d="M-78923.32,-152316.56a10,10 0 0,1 10,10" />
          <path d="M-78913.32,-152107l0,-199.57" />
          <circle r="20" cx="-79241.94" cy="-152206.78" />
          <path d="M-79352.98,-152067l0,-279.57" />
          <path d="M-79352.98,-152097l429.66,0" />
          <path d="M-78923.32,-152316.56l-429.66,0" />
          <circle r="50" cx="-78933.32" cy="-153041.78" />
          <path d="M-78964.56,-153002.74l-168.77,210.96" />
          <path d="M-78902.09,-153002.74l168.77,210.96" />
          <path d="M-79133.32,-153291.78l168.77,210.96" />
          <path d="M-78733.32,-153291.78l-168.77,210.96" />
          <path d="M-82008.85,-148642.83a314.4,314.4 0 0,0 0,-628.77m0,0l-194.48,0l0,628.77l194.48,0" />
          <circle r="18.675" cx="-82156.86" cy="-149046.69" />
          <circle r="23.675" cx="-82156.86" cy="-149046.69" />
          <circle r="23.675" cx="-82156.86" cy="-148867.64" />
          <circle r="18.675" cx="-82156.86" cy="-148867.64" />
          <path d="M-82193.67,-148935.67l39.86,6.39" />
          <path d="M-82193.67,-148978.75l39.86,-6.39" />
          <path d="M-82042.63,-148974.74l0,35.06" />
          <path d="M-82055.63,-148975.08l0,35.75" />
          <path d="M-82153.81,-148929.28l111.18,-10.39" />
          <path d="M-82193.67,-148935.67l151.04,-4.01" />
          <path d="M-82193.67,-148978.75l151.04,4.01" />
          <path d="M-82153.81,-148985.13l111.18,10.39" />
          <circle r="20.782" cx="-81945.16" cy="-148957.21" />
          <circle r="15.782" cx="-81945.16" cy="-148957.21" />
          <path d="M-82104.49,-148980.52l0.11,-1.37l0.11,-1.37l0.12,-1.37l0.12,-1.36l0.13,-1.36l0.14,-1.36l0.14,-1.36l0.15,-1.36l0.16,-1.36l0.16,-1.36l0.17,-1.36l0.17,-1.35l0.18,-1.35l0.19,-1.35l0.19,-1.35l0.2,-1.35l0.2,-1.35l0.21,-1.34l0.22,-1.34l0.22,-1.34l0.23,-1.34l0.23,-1.34l0.24,-1.34l0.25,-1.33l0.25,-1.33l0.26,-1.33l0.26,-1.33l0.27,-1.32l0.27,-1.32l0.28,-1.32l0.29,-1.32l0.29,-1.31l0.3,-1.31l0.3,-1.31l0.31,-1.31l0.32,-1.3l0.32,-1.3l0.33,-1.3l0.33,-1.3l0.34,-1.29l0.34,-1.29l0.35,-1.29l0.36,-1.28l0.36,-1.28l0.37,-1.28l0.37,-1.28l0.38,-1.27l0.38,-1.27l0.39,-1.27l0.4,-1.26l0.4,-1.26l0.41,-1.26l0.41,-1.25l0.42,-1.25l0.42,-1.25l0.43,-1.24l0.43,-1.24l0.44,-1.23l0.44,-1.23l0.45,-1.23l0.46,-1.22l0.46,-1.22l0.47,-1.22l0.47,-1.21l0.48,-1.21l0.48,-1.2l0.49,-1.2l0.49,-1.2l0.5,-1.19l0.5,-1.19l0.51,-1.18l0.51,-1.18l0.52,-1.17l0.52,-1.17l0.53,-1.16l0.53,-1.16l0.54,-1.16l0.54,-1.15l0.55,-1.15l0.55,-1.14l0.56,-1.14l0.56,-1.13l0.57,-1.13l0.57,-1.12l0.58,-1.12l0.58,-1.11l0.59,-1.11l0.59,-1.1l0.6,-1.1l0.6,-1.09l0.61,-1.09l0.61,-1.08l0.62,-1.08l0.62,-1.07l0.62,-1.07l0.63,-1.06l0.63,-1.06l0.64,-1.05l0.64,-1.05l0.65,-1.04l0.65,-1.04l0.66,-1.03l0.66,-1.02l0.66,-1.02l0.67,-1.01l0.67,-1.01l0.68,-1l0.68,-1l0.68,-0.99l0.69,-0.98l0.69,-0.98l0.7,-0.97l0.7,-0.97l0.71,-0.96l0.71,-0.96l0.71,-0.95l0.72,-0.94l0.72,-0.94l0.72,-0.93l0.73,-0.93l0.73,-0.92l0.74,-0.91l0.74,-0.91l0.74,-0.9l0.75,-0.89l0.75,-0.89l0.75,-0.88l0.76,-0.88l0.76,-0.87l0.76,-0.86l0.77,-0.86l0.77,-0.85l0.78,-0.84l0.78,-0.84l0.78,-0.83l0.78,-0.82l0.79,-0.82l0.79,-0.81l0.79,-0.8l0.8,-0.8l0.8,-0.79l0.8,-0.78l0.81,-0.78l0.81,-0.77l0.81,-0.76l0.82,-0.76l0.82,-0.75l0.82,-0.74l0.82,-0.74l0.83,-0.73l0.83,-0.72l0.83,-0.72l0.84,-0.71l0.84,-0.7l0.84,-0.7l0.84,-0.69l0.85,-0.68l0.85,-0.67l0.85,-0.67l0.85,-0.66l0.86,-0.65l0.86,-0.65l0.86,-0.64l0.86,-0.63l0.87,-0.63l0.87,-0.62l0.87,-0.61l0.87,-0.6l0.87,-0.6l0.88,-0.59l0.88,-0.58l0.88,-0.58l0.88,-0.57l0.88,-0.56l0.89,-0.55l0.89,-0.55l0.89,-0.54l0.89,-0.53l0.89,-0.52l0.9,-0.52l0.9,-0.51l0.9,-0.5l0.9,-0.5l0.9,-0.49l0.9,-0.48l0.91,-0.47l0.91,-0.47l0.91,-0.46l0.91,-0.45l0.91,-0.44l0.91,-0.44l0.92,-0.43l0.92,-0.42l0.92,-0.41l0.92,-0.41l0.92,-0.4l0.92,-0.39l0.92,-0.39l0.92,-0.38l0.93,-0.37l0.93,-0.36l0.93,-0.36l0.93,-0.35l0.93,-0.34l0.93,-0.33l0.93,-0.33l0.93,-0.32l0.93,-0.31l0.93,-0.3l0.94,-0.3l0.94,-0.29l0.94,-0.28l0.94,-0.27l0.94,-0.27l0.94,-0.26l0.94,-0.25l0.94,-0.24l0.94,-0.24l0.94,-0.23l0.94,-0.22l0.94,-0.21l0.95,-0.21l0.95,-0.2l0.95,-0.19l0.95,-0.19l0.95,-0.18l0.95,-0.17l0.95,-0.16l0.95,-0.16l0.95,-0.15l0.95,-0.14l0.95,-0.13l0.95,-0.13l0.95,-0.12l0.95,-0.11l0.95,-0.1l0.95,-0.1l0.95,-0.09l0.95,-0.08l0.95,-0.07l0.95,-0.07l0.95,-0.06l0.95,-0.05l0.95,-0.04l0.95,-0.04l0.95,-0.03l0.95,-0.02l0.95,-0.01l0.95,-0.01l0.95,0l0.95,0.01l0.95,0.01l0.95,0.02l0.95,0.03l0.95,0.04l0.95,0.04l0.95,0.05l0.95,0.06l0.95,0.07l0.95,0.07l0.95,0.08l0.95,0.09l0.95,0.1l0.95,0.1l0.95,0.11l0.95,0.12l0.95,0.13l0.95,0.13l0.95,0.14l0.95,0.15l0.95,0.16l0.95,0.16l0.95,0.17l0.95,0.18l0.95,0.19l0.95,0.19l0.95,0.2l0.94,0.21l0.94,0.22l0.94,0.22l0.94,0.23l0.94,0.24l0.94,0.24l0.94,0.25l0.94,0.26l0.94,0.27l0.94,0.27l0.94,0.28l0.94,0.29l0.94,0.3l0.93,0.3l0.93,0.31l0.93,0.32l0.93,0.33l0.93,0.33l0.93,0.34l0.93,0.35l0.93,0.36l0.93,0.36l0.93,0.37l0.92,0.38l0.92,0.39l0.92,0.39l0.92,0.4l0.92,0.41l0.92,0.42l0.92,0.42l0.91,0.43l0.91,0.44l0.91,0.44l0.91,0.45l0.91,0.46l0.91,0.47l0.91,0.47l0.9,0.48l0.9,0.49l0.9,0.5l0.9,0.5l0.9,0.51l0.9,0.52l0.89,0.52l0.89,0.53l0.89,0.54l0.89,0.55l0.89,0.55l0.88,0.56l0.88,0.57l0.88,0.58l0.88,0.58l0.88,0.59l0.87,0.6l0.87,0.6l0.87,0.61l0.87,0.62l0.87,0.63l0.86,0.63l0.86,0.64l0.86,0.65l0.86,0.65l0.85,0.66l0.85,0.67l0.85,0.67l0.85,0.68l0.84,0.69l0.84,0.7l0.84,0.7l0.84,0.71l0.83,0.72l0.83,0.72l0.83,0.73l0.82,0.74l0.82,0.74l0.82,0.75l0.82,0.76l0.81,0.76l0.81,0.77l0.81,0.78l0.8,0.78l0.8,0.79l0.8,0.8l0.79,0.8l0.79,0.81l0.79,0.82l0.78,0.82l0.78,0.83l0.78,0.84l0.77,0.84l0.77,0.85l0.77,0.86l0.76,0.86l0.76,0.87l0.76,0.88l0.75,0.88l0.75,0.89l0.75,0.89l0.74,0.9l0.74,0.91l0.74,0.91l0.73,0.92l0.73,0.93l0.72,0.93l0.72,0.94l0.72,0.94l0.71,0.95l0.71,0.96l0.71,0.96l0.7,0.97l0.7,0.97l0.69,0.98l0.69,0.98l0.68,0.99l0.68,1l0.68,1l0.67,1.01l0.67,1.01l0.66,1.02l0.66,1.02l0.66,1.03l0.65,1.04l0.65,1.04l0.64,1.05l0.64,1.05l0.63,1.06l0.63,1.06l0.62,1.07l0.62,1.07l0.61,1.08l0.61,1.08l0.61,1.09l0.6,1.09l0.6,1.1l0.59,1.1l0.59,1.11l0.58,1.11l0.58,1.12l0.57,1.12l0.57,1.13l0.56,1.13l0.56,1.14l0.55,1.14l0.55,1.15l0.54,1.15l0.54,1.16l0.53,1.16l0.53,1.17l0.52,1.17l0.52,1.17l0.51,1.18l0.51,1.18l0.5,1.19l0.5,1.19l0.49,1.2l0.49,1.2l0.48,1.2l0.48,1.21l0.47,1.21l0.47,1.22l0.46,1.22l0.45,1.22l0.45,1.23l0.44,1.23l0.44,1.23l0.43,1.24l0.43,1.24l0.42,1.25l0.42,1.25l0.41,1.25l0.41,1.26l0.4,1.26l0.39,1.26l0.39,1.27l0.38,1.27l0.38,1.27l0.37,1.28l0.37,1.28l0.36,1.28l0.36,1.28l0.35,1.29l0.34,1.29l0.34,1.29l0.33,1.3l0.33,1.3l0.32,1.3l0.32,1.3l0.31,1.31l0.3,1.31l0.3,1.31l0.29,1.31l0.29,1.32l0.28,1.32l0.27,1.32l0.27,1.32l0.26,1.33l0.26,1.33l0.25,1.33l0.25,1.33l0.24,1.34l0.23,1.34l0.23,1.34l0.22,1.34l0.22,1.34l0.21,1.34l0.2,1.35l0.2,1.35l0.19,1.35l0.19,1.35l0.18,1.35l0.17,1.35l0.17,1.36l0.16,1.36l0.15,1.36l0.15,1.36l0.14,1.36l0.14,1.36l0.13,1.36l0.12,1.36l0.12,1.37l0.11,1.37l0.11,1.37l0.1,1.37l0.09,1.37l0.09,1.37l0.08,1.37l0.08,1.37l0.07,1.37l0.06,1.37l0.06,1.37l0.05,1.37l0.04,1.37l0.04,1.37l0.03,1.37l0.03,1.37l0.02,1.37l0.01,1.37l0.01,1.37l0,1.38l0,1.38l-0.01,1.37l-0.02,1.37l-0.02,1.37l-0.03,1.37l-0.03,1.37l-0.04,1.37l-0.05,1.37l-0.05,1.37l-0.06,1.37l-0.07,1.37l-0.07,1.37l-0.08,1.37l-0.08,1.37l-0.09,1.37l-0.1,1.37l-0.1,1.37l-0.11,1.37l-0.11,1.37l-0.12,1.36l-0.13,1.36l-0.13,1.36l-0.14,1.36l-0.15,1.36l-0.15,1.36l-0.16,1.36l-0.16,1.36l-0.17,1.36l-0.18,1.35l-0.18,1.35l-0.19,1.35l-0.19,1.35l-0.2,1.35l-0.21,1.35l-0.21,1.34l-0.22,1.34l-0.22,1.34l-0.23,1.34l-0.24,1.34l-0.24,1.33l-0.25,1.33l-0.25,1.33l-0.26,1.33l-0.27,1.33l-0.27,1.32l-0.28,1.32l-0.28,1.32l-0.29,1.32l-0.29,1.31l-0.3,1.31l-0.31,1.31l-0.31,1.31l-0.32,1.3l-0.32,1.3l-0.33,1.3l-0.33,1.3l-0.34,1.29l-0.35,1.29l-0.35,1.29l-0.36,1.28l-0.36,1.28l-0.37,1.28l-0.37,1.27l-0.38,1.27l-0.39,1.27l-0.39,1.26l-0.4,1.26l-0.4,1.26l-0.41,1.25l-0.41,1.25l-0.42,1.25l-0.42,1.24l-0.43,1.24l-0.44,1.24l-0.44,1.23l-0.45,1.23l-0.45,1.23l-0.46,1.22l-0.46,1.22l-0.47,1.21l-0.47,1.21l-0.48,1.21l-0.48,1.2l-0.49,1.2l-0.49,1.19l-0.5,1.19l-0.5,1.19l-0.51,1.18l-0.51,1.18l-0.52,1.17l-0.52,1.17l-0.53,1.16l-0.53,1.16l-0.54,1.15l-0.54,1.15l-0.55,1.15l-0.55,1.14l-0.56,1.14l-0.56,1.13l-0.57,1.13l-0.57,1.12l-0.58,1.12l-0.58,1.11l-0.59,1.11l-0.59,1.1l-0.6,1.1l-0.6,1.09l-0.61,1.09l-0.61,1.08l-0.62,1.08l-0.62,1.07l-0.63,1.07l-0.63,1.06l-0.63,1.06l-0.64,1.05l-0.64,1.04l-0.65,1.04l-0.65,1.03l-0.66,1.03l-0.66,1.02l-0.67,1.02l-0.67,1.01l-0.67,1.01l-0.68,1l-0.68,0.99l-0.69,0.99l-0.69,0.98l-0.69,0.98l-0.7,0.97l-0.7,0.97l-0.71,0.96l-0.71,0.95l-0.71,0.95l-0.72,0.94l-0.72,0.94l-0.73,0.93l-0.73,0.92l-0.73,0.92l-0.74,0.91l-0.74,0.9l-0.74,0.9l-0.75,0.89l-0.75,0.89l-0.76,0.88l-0.76,0.87l-0.76,0.87l-0.77,0.86l-0.77,0.85l-0.77,0.85l-0.78,0.84l-0.78,0.83l-0.78,0.83l-0.79,0.82l-0.79,0.81l-0.79,0.81l-0.8,0.8l-0.8,0.8l-0.8,0.79l-0.81,0.78l-0.81,0.78l-0.81,0.77l-0.81,0.76l-0.82,0.75l-0.82,0.75l-0.82,0.74l-0.83,0.73l-0.83,0.73l-0.83,0.72l-0.83,0.71l-0.84,0.71l-0.84,0.7l-0.84,0.69l-0.84,0.69l-0.85,0.68l-0.85,0.67l-0.85,0.67l-0.85,0.66l-0.86,0.65l-0.86,0.64l-0.86,0.64l-0.86,0.63l-0.87,0.62l-0.87,0.62l-0.87,0.61l-0.87,0.6l-0.87,0.59l-0.88,0.59l-0.88,0.58l-0.88,0.57l-0.88,0.57l-0.89,0.56l-0.89,0.55l-0.89,0.54l-0.89,0.54l-0.89,0.53l-0.89,0.52l-0.9,0.51l-0.9,0.51l-0.9,0.5l-0.9,0.49l-0.9,0.49l-0.9,0.48l-0.91,0.47l-0.91,0.46l-0.91,0.46l-0.91,0.45l-0.91,0.44l-0.91,0.43l-0.92,0.43l-0.92,0.42l-0.92,0.41l-0.92,0.4l-0.92,0.4l-0.92,0.39l-0.92,0.38l-0.92,0.38l-0.93,0.37l-0.93,0.36l-0.93,0.35l-0.93,0.35l-0.93,0.34l-0.93,0.33l-0.93,0.32l-0.93,0.32l-0.93,0.31l-0.94,0.3l-0.94,0.29l-0.94,0.29l-0.94,0.28l-0.94,0.27l-0.94,0.26l-0.94,0.26l-0.94,0.25l-0.94,0.24l-0.94,0.23l-0.94,0.23l-0.94,0.22l-0.94,0.21l-0.95,0.2l-0.95,0.2l-0.95,0.19l-0.95,0.18l-0.95,0.18l-0.95,0.17l-0.95,0.16l-0.95,0.15l-0.95,0.15l-0.95,0.14l-0.95,0.13l-0.95,0.12l-0.95,0.12l-0.95,0.11l-0.95,0.1l-0.95,0.09l-0.95,0.09l-0.95,0.08l-0.95,0.07l-0.95,0.06l-0.95,0.06l-0.95,0.05l-0.95,0.04l-0.95,0.03l-0.95,0.03l-0.95,0.02l-0.95,0.01l-0.95,0l-0.95,0l-0.95,-0.01l-0.95,-0.02l-0.95,-0.02l-0.95,-0.03l-0.95,-0.04l-0.95,-0.05l-0.95,-0.05l-0.95,-0.06l-0.95,-0.07l-0.95,-0.08l-0.95,-0.08l-0.95,-0.09l-0.95,-0.1l-0.95,-0.11l-0.95,-0.11l-0.95,-0.12l-0.95,-0.13l-0.95,-0.14l-0.95,-0.14l-0.95,-0.15l-0.95,-0.16l-0.95,-0.17l-0.95,-0.17l-0.95,-0.18l-0.95,-0.19l-0.95,-0.2l-0.95,-0.2l-0.94,-0.21l-0.94,-0.22l-0.94,-0.23l-0.94,-0.23l-0.94,-0.24l-0.94,-0.25l-0.94,-0.25l-0.94,-0.26l-0.94,-0.27l-0.94,-0.28l-0.94,-0.28l-0.94,-0.29l-0.94,-0.3l-0.93,-0.31l-0.93,-0.31l-0.93,-0.32l-0.93,-0.33l-0.93,-0.34l-0.93,-0.34l-0.93,-0.35l-0.93,-0.36l-0.93,-0.37l-0.92,-0.37l-0.92,-0.38l-0.92,-0.39l-0.92,-0.4l-0.92,-0.4l-0.92,-0.41l-0.92,-0.42l-0.92,-0.42l-0.91,-0.43l-0.91,-0.44l-0.91,-0.45l-0.91,-0.45l-0.91,-0.46l-0.91,-0.47l-0.91,-0.48l-0.9,-0.48l-0.9,-0.49l-0.9,-0.5l-0.9,-0.51l-0.9,-0.51l-0.9,-0.52l-0.89,-0.53l-0.89,-0.53l-0.89,-0.54l-0.89,-0.55l-0.89,-0.56l-0.88,-0.56l-0.88,-0.57l-0.88,-0.58l-0.88,-0.59l-0.88,-0.59l-0.87,-0.6l-0.87,-0.61l-0.87,-0.61l-0.87,-0.62l-0.86,-0.63l-0.86,-0.63l-0.86,-0.64l-0.86,-0.65l-0.86,-0.66l-0.85,-0.66l-0.85,-0.67l-0.85,-0.68l-0.85,-0.68l-0.84,-0.69l-0.84,-0.7l-0.84,-0.71l-0.83,-0.71l-0.83,-0.72l-0.83,-0.73l-0.83,-0.73l-0.82,-0.74l-0.82,-0.75l-0.82,-0.75l-0.81,-0.76l-0.81,-0.77l-0.81,-0.77l-0.81,-0.78l-0.8,-0.79l-0.8,-0.79l-0.8,-0.8l-0.79,-0.81l-0.79,-0.81l-0.79,-0.82l-0.78,-0.83l-0.78,-0.83l-0.78,-0.84l-0.77,-0.85l-0.77,-0.85l-0.77,-0.86l-0.76,-0.87l-0.76,-0.87l-0.76,-0.88l-0.75,-0.88l-0.75,-0.89l-0.75,-0.9l-0.74,-0.9l-0.74,-0.91l-0.73,-0.92l-0.73,-0.92l-0.73,-0.93l-0.72,-0.93l-0.72,-0.94l-0.72,-0.95l-0.71,-0.95l-0.71,-0.96l-0.7,-0.96l-0.7,-0.97l-0.7,-0.98l-0.69,-0.98l-0.69,-0.99l-0.68,-0.99l-0.68,-1l-0.68,-1l-0.67,-1.01l-0.67,-1.02l-0.66,-1.02l-0.66,-1.03l-0.65,-1.03l-0.65,-1.04l-0.64,-1.04l-0.64,-1.05l-0.64,-1.05l-0.63,-1.06l-0.63,-1.06l-0.62,-1.07l-0.62,-1.07l-0.61,-1.08l-0.61,-1.09l-0.6,-1.09l-0.6,-1.1l-0.59,-1.1l-0.59,-1.11l-0.59,-1.11l-0.58,-1.12l-0.58,-1.12l-0.57,-1.13l-0.57,-1.13l-0.56,-1.13l-0.56,-1.14l-0.55,-1.14l-0.55,-1.15l-0.54,-1.15l-0.54,-1.16l-0.53,-1.16l-0.53,-1.17l-0.52,-1.17l-0.52,-1.18l-0.51,-1.18l-0.51,-1.18l-0.5,-1.19l-0.5,-1.19l-0.49,-1.2l-0.48,-1.2l-0.48,-1.2l-0.47,-1.21l-0.47,-1.21l-0.46,-1.22l-0.46,-1.22l-0.45,-1.22l-0.45,-1.23l-0.44,-1.23l-0.44,-1.24l-0.43,-1.24l-0.43,-1.24l-0.42,-1.25l-0.42,-1.25l-0.41,-1.25l-0.4,-1.26l-0.4,-1.26l-0.39,-1.26l-0.39,-1.27l-0.38,-1.27l-0.38,-1.27l-0.37,-1.28l-0.36,-1.28l-0.36,-1.28l-0.35,-1.29l-0.35,-1.29l-0.34,-1.29l-0.34,-1.29l-0.33,-1.3l-0.32,-1.3l-0.32,-1.3l-0.31,-1.31l-0.31,-1.31l-0.3,-1.31l-0.3,-1.31l-0.29,-1.32l-0.28,-1.32l-0.28,-1.32l-0.27,-1.32l-0.27,-1.33l-0.26,-1.33l-0.13,-0.67l-0.13,-0.67l-0.13,-0.67l-0.12,-0.68l-0.12,-0.68l-0.12,-0.69l-0.06,-0.35l-0.06,-0.35l-0.06,-0.35l-0.06,-0.36l-0.06,-0.36l-0.06,-0.36l-0.06,-0.36l-0.06,-0.37l-0.06,-0.37l-0.06,-0.37l-0.06,-0.38l-0.06,-0.38l-0.06,-0.39l-0.06,-0.39l-0.06,-0.39l-0.06,-0.4l-0.06,-0.4l-0.06,-0.41l-0.06,-0.41l-0.06,-0.42l-0.06,-0.42l-0.06,-0.43l-0.06,-0.43l-0.06,-0.44l-0.06,-0.45l-0.06,-0.45l-0.06,-0.46l-0.06,-0.46l-0.06,-0.47l-0.06,-0.48l-0.06,-0.48l-0.06,-0.49l-0.06,-0.5l-0.06,-0.5l-0.06,-0.51l-0.06,-0.52l-0.06,-0.53l-0.06,-0.53l-0.03,-0.27l-0.03,-0.27l-0.03,-0.27l-0.03,-0.28l-0.03,-0.28l-0.03,-0.28l-0.03,-0.28l-0.03,-0.28l-0.03,-0.29l-0.03,-0.29l-0.03,-0.29l-0.03,-0.29l-0.03,-0.3l-0.03,-0.3l-0.03,-0.3l-0.03,-0.3l-0.03,-0.3l-0.03,-0.31l-0.03,-0.31l-0.03,-0.31l-0.03,-0.31l-0.03,-0.32l-0.03,-0.32l-0.03,-0.32l-0.04,-0.32l-0.04,-0.33l-0.04,-0.33l-0.04,-0.33l-0.04,-0.33l-0.04,-0.34l-0.04,-0.34l-0.04,-0.34l-0.04,-0.34l-0.04,-0.35l-0.04,-0.35l-0.04,-0.35l-0.04,-0.35l-0.04,-0.36l-0.04,-0.36l-0.04,-0.36l-0.04,-0.37l-0.04,-0.37l-0.04,-0.37l-0.04,-0.37" class="cnc-1" />
          <path d="M-82110.74,-149055.32a326.47,326.47 0 0,0 -14.06,72.9m54.26,-150.78a255.65,255.65 0 0,0 -40.2,77.87m104.22,-132.98a201.65,201.65 0 0,0 -64.01,55.12m133.32,-72.82a144.6,144.6 0 0,0 -69.31,17.69m138.62,0a144.6,144.6 0 0,0 -69.31,-17.69m133.33,72.82a201.65,201.65 0 0,0 -64.01,-55.12m104.21,132.98a255.65,255.65 0 0,0 -40.2,-77.87m55.22,175.8a326.74,326.74 0 0,0 -15.02,-97.92m0,195.85a326.74,326.74 0 0,0 15.02,-97.92m-55.22,175.79a255.65,255.65 0 0,0 40.2,-77.87m-104.21,132.99a201.65,201.65 0 0,0 64.01,-55.12m-133.33,72.82a144.6,144.6 0 0,0 69.31,-17.69m-138.62,0a144.6,144.6 0 0,0 69.31,17.69m-133.32,-72.82a201.65,201.65 0 0,0 64.01,55.12m-104.22,-132.99a255.65,255.65 0 0,0 40.2,77.87m-54.24,-150.39a326.46,326.46 0 0,0 14.03,72.52" class="cnc-1" />
          <path d="M-78923.32,-150285.67a40,40 0 0,0 40,-40m0,0l0,-199.57m0,0a40,40 0 0,0 -40,-40m0,0l-439.66,0a110,110 0 0,0 -110,110l0,59.57m0,0a110,110 0 0,0 110,110m0,0l439.66,0" />
          <path d="M-78913.32,-150325.67a10,10 0 0,1 -10,10" />
          <path d="M-78923.32,-150535.24a10,10 0 0,1 10,10" />
          <path d="M-78913.32,-150325.67l0,-199.57" />
          <circle r="20" cx="-79241.94" cy="-150425.46" />
          <path d="M-79352.98,-150285.67l0,-279.57" />
          <path d="M-79352.98,-150315.67l429.66,0" />
          <path d="M-78923.32,-150535.24l-429.66,0" />
          <path d="M-103467.63,-144201.78l200,-200" />
          <path d="M-103405.76,-144201.78l200,-200" />
          <path d="M-103343.88,-144201.78l200,-200" />
          <path d="M-103282.01,-144201.78l200,-200" />
          <path d="M-103220.14,-144201.78l200,-200" />
          <path d="M-103158.27,-144201.78l200,-200" />
          <path d="M-103096.4,-144201.78l200,-200" />
          <path d="M-103034.53,-144201.78l200,-200" />
          <path d="M-102972.65,-144201.78l200,-200" />
          <path d="M-102910.78,-144201.78l200,-200" />
          <path d="M-102848.91,-144201.78l200,-200" />
          <path d="M-102787.04,-144201.78l200,-200" />
          <path d="M-102725.17,-144201.78l200,-200" />
          <path d="M-102663.29,-144201.78l200,-200" />
          <path d="M-101868.32,-144996.75l200,-200" />
          <path d="M-102601.42,-144201.78l200,-200" />
          <path d="M-101868.32,-144934.88l200,-200" />
          <path d="M-102539.55,-144201.78l200,-200" />
          <path d="M-101868.32,-144873.01l200,-200" />
          <path d="M-102477.68,-144201.78l200,-200" />
          <path d="M-101868.32,-144811.14l200,-200" />
          <path d="M-102415.81,-144201.78l200,-200" />
          <path d="M-101868.32,-144749.26l200,-200" />
          <path d="M-102353.94,-144201.78l200,-200" />
          <path d="M-101868.32,-144687.39l200,-200" />
          <path d="M-102292.06,-144201.78l200,-200" />
          <path d="M-101868.32,-144625.52l200,-200" />
          <path d="M-102230.19,-144201.78l200,-200" />
          <path d="M-101868.32,-144563.65l200,-200" />
          <path d="M-102168.32,-144201.78l200,-200" />
          <path d="M-101868.32,-144501.78l200,-200" />
          <path d="M-102106.45,-144201.78l200,-200" />
          <path d="M-101868.32,-144439.91l200,-200" />
          <path d="M-102044.58,-144201.78l376.25,-376.25" />
          <path d="M-101982.7,-144201.78l314.38,-314.38" />
          <path d="M-101920.83,-144201.78l252.51,-252.51" />
          <path d="M-101858.96,-144201.78l190.64,-190.64" />
          <path d="M-101797.09,-144201.78l128.76,-128.76" />
          <path d="M-101735.22,-144201.78l66.89,-66.89" />
          <path d="M-101673.34,-144201.78l5.02,-5.02" />
          <path d="M-103468.32,-144401.78l1600,0" />
          <path d="M-101868.32,-145351.78l0,950" />
          <path d="M-103468.32,-144201.78l1800,0" />
          <path d="M-101668.32,-145351.78l0,1150" />
          <path d="M-94418.32,-145110.26l200,-200" />
          <path d="M-94418.32,-145048.39l200,-200" />
          <path d="M-94418.32,-144986.51l200,-200" />
          <path d="M-94418.32,-144924.64l200,-200" />
          <path d="M-94418.32,-144862.77l200,-200" />
          <path d="M-94418.32,-144800.9l200,-200" />
          <path d="M-94418.32,-144739.03l200,-200" />
          <path d="M-94418.32,-144677.16l200,-200" />
          <path d="M-94418.32,-144615.28l200,-200" />
          <path d="M-94418.32,-144553.41l200,-200" />
          <path d="M-94418.32,-144491.54l200,-200" />
          <path d="M-94418.32,-144429.67l200,-200" />
          <path d="M-94418.32,-144367.8l200,-200" />
          <path d="M-94372.47,-144351.78l200,-200" />
          <path d="M-94310.6,-144351.78l200,-200" />
          <path d="M-94248.72,-144351.78l200,-200" />
          <path d="M-94186.85,-144351.78l200,-200" />
          <path d="M-94124.98,-144351.78l200,-200" />
          <path d="M-94063.11,-144351.78l200,-200" />
          <path d="M-94001.24,-144351.78l200,-200" />
          <path d="M-93939.36,-144351.78l200,-200" />
          <path d="M-93877.49,-144351.78l200,-200" />
          <path d="M-93815.62,-144351.78l200,-200" />
          <path d="M-93753.75,-144351.78l200,-200" />
          <path d="M-93691.88,-144351.78l200,-200" />
          <path d="M-93630.01,-144351.78l200,-200" />
          <path d="M-93568.13,-144351.78l200,-200" />
          <path d="M-93506.26,-144351.78l200,-200" />
          <path d="M-93444.39,-144351.78l200,-200" />
          <path d="M-93382.52,-144351.78l200,-200" />
          <path d="M-93320.65,-144351.78l200,-200" />
          <path d="M-93258.77,-144351.78l200,-200" />
          <path d="M-93018.32,-144551.78l-1200,0" />
          <path d="M-93018.32,-144351.78l-1400,0" />
          <path d="M-94218.32,-145351.78l0,800" />
          <path d="M-94418.32,-145351.78l0,1000" />
          <path d="M-101868.32,-145244.24l107.54,-107.54" />
          <path d="M-101868.32,-145182.37l169.41,-169.41" />
          <path d="M-101868.32,-145120.5l200,-200" />
          <path d="M-101868.32,-145058.62l200,-200" />
          <path d="M-101868.32,-144996.75l200,-200" />
          <path d="M-93251.59,-145721.87l19.82,-19.82" />
          <path d="M-93251.59,-145609.62l132.08,-132.08" />
          <path d="M-93197.26,-145551.69l190,-190" />
          <path d="M-93251.59,-145385.11l166.58,-166.58" />
          <path d="M-93085.01,-145551.69l190,-190" />
          <path d="M-93162.76,-145361.69l190,-190" />
          <path d="M-92972.76,-145551.69l91.16,-91.16" />
          <path d="M-93050.5,-145361.69l168.91,-168.91" />
          <path d="M-92938.25,-145361.69l56.66,-56.66" />
          <path d="M-115283.32,-147851.78l0,200l-250.29,0" />
          <path d="M-115533.61,-147651.78l0,-200" />
          <path d="M-115283.32,-145731.78l0,-200l-250,0l0,200" />
          <path d="M-109153.32,-147851.78l0,200l-250.29,0" />
          <path d="M-109403.61,-147651.78l0,-200" />
          <path d="M-109153.32,-145731.78l0,-200l-250,0l0,200" />
          <path d="M-87083.32,-147851.78l0,200l-250.29,0" />
          <path d="M-87333.61,-147651.78l0,-200" />
          <path d="M-87083.32,-145731.78l0,-200l-250,0l0,200" />
          <path d="M-81053.32,-147851.78l0,200l-250.29,0" />
          <path d="M-81303.61,-147651.78l0,-200" />
          <path d="M-81053.32,-145731.78l0,-200l-250,0l0,200" />
          <path d="M-128303.32,-145731.78l0,-185" />
          <path d="M-128303.32,-145916.78l-380,0" />
          <path d="M-128683.32,-145916.78l0,375" />
          <path d="M-128683.32,-148041.78l0,375" />
          <path d="M-128683.32,-147666.78l380,0" />
          <path d="M-128303.32,-147666.78l0,-185" />
          <path d="M-128303.32,-155351.78l1260,0" />
          <path d="M-127043.32,-155351.78l0,-380" />
          <path d="M-127043.32,-155731.78l-1640,0" />
          <path d="M-117803.32,-155731.78l-1640,0" />
          <path d="M-119443.32,-155731.78l0,380" />
          <path d="M-119443.32,-155351.78l1260,0" />
          <path d="M-125243.32,-155351.78l1100,0" />
          <path d="M-124143.32,-155351.78l0,-380" />
          <path d="M-124143.32,-155731.78l-1100,0" />
          <path d="M-125243.32,-155731.78l0,380" />
          <path d="M-122343.32,-155351.78l1100,0" />
          <path d="M-121243.32,-155351.78l0,-380" />
          <path d="M-121243.32,-155731.78l-1100,0" />
          <path d="M-122343.32,-155731.78l0,380" />
          <use xlink:href="#$TCHSYS$WIN2D_1800x380" x="-120343.32" y="-155541.78" transform="scale(1,-1) translate(0,311083.56)">.<g class="blkclass0"><text transform="translate(-460,-316.25)" font-size="386.75">C1824</text></g></use>
          <use xlink:href="#$TCHSYS$WIN2D_1800x380" x="-123243.32" y="-155541.78" transform="scale(1,-1) translate(0,311083.56)">.<g class="blkclass0"><text transform="translate(-460,-316.25)" font-size="386.75">C1824</text></g></use>
          <use xlink:href="#$TCHSYS$WIN2D_1800x380" x="-126143.32" y="-155541.78" transform="scale(1,-1) translate(0,311083.56)">.<g class="blkclass0"><text transform="translate(-460,-302.52)" font-size="386.75">C1824</text></g></use>
          <path d="M-117803.32,-155731.78l0,2000" />
          <path d="M-118183.32,-155351.78l0,1810" />
          <path d="M-118183.32,-130731.78l-1070,0" />
          <path d="M-119253.32,-130731.78l0,380" />
          <path d="M-119253.32,-130351.78l1450,0" />
          <path d="M-128683.32,-130351.78l1830,0" />
          <path d="M-126853.32,-130351.78l0,-380" />
          <path d="M-126853.32,-130731.78l-1450,0" />
          <path d="M-121053.32,-130731.78l-1100,0" />
          <path d="M-122153.32,-130731.78l0,380" />
          <path d="M-122153.32,-130351.78l1100,0" />
          <path d="M-121053.32,-130351.78l0,-380" />
          <path d="M-123953.32,-130731.78l-1100,0" />
          <path d="M-125053.32,-130731.78l0,380" />
          <path d="M-125053.32,-130351.78l1100,0" />
          <path d="M-123953.32,-130351.78l0,-380" />
          <use xlink:href="#$TCHSYS$WIN2D_1800x380" x="-125953.32" y="-130541.78" transform="scale(1,-1) translate(0,261083.56) rotate(-180,-125953.32,-130541.78)">.<g class="blkclass0"><text transform="translate(-460,613.75)" font-size="386.75">C1824</text></g></use>
          <use xlink:href="#$TCHSYS$WIN2D_1800x380" x="-123053.32" y="-130541.78" transform="scale(1,-1) translate(0,261083.56) rotate(-180,-123053.32,-130541.78)">.<g class="blkclass0"><text transform="translate(-460,613.75)" font-size="386.75">C1824</text></g></use>
          <use xlink:href="#$TCHSYS$WIN2D_1800x380" x="-120153.32" y="-130541.78" transform="scale(1,-1) translate(0,261083.56) rotate(-180,-120153.32,-130541.78)">.<g class="blkclass0"><text transform="translate(-460,613.75)" font-size="386.75">C1824</text></g></use>
          <path d="M-128303.32,-130731.78l0,-3310" />
          <path d="M-128303.32,-134041.78l-380,0" />
          <path d="M-128683.32,-134041.78l0,3690" />
          <path d="M-128683.32,-145541.78l0,3500" />
          <path d="M-128683.32,-142041.78l380,0" />
          <path d="M-128303.32,-142041.78l0,-3310" />
          <path d="M-128303.32,-136041.78l0,-1000" />
          <path d="M-128303.32,-137041.78l-380,0" />
          <path d="M-128683.32,-137041.78l0,1000" />
          <path d="M-128683.32,-136041.78l380,0" />
          <path d="M-128303.32,-139041.78l0,-1000" />
          <path d="M-128303.32,-140041.78l-380,0" />
          <path d="M-128683.32,-140041.78l0,1000" />
          <path d="M-128683.32,-139041.78l380,0" />
          <use xlink:href="#$TCHSYS$WIN2D_2000x380" x="-128493.32" y="-135041.78" transform="scale(1,-1) translate(0,270083.56) rotate(-270,-128493.32,-135041.78)">.<g class="blkclass0"><text transform="rotate(-90 -316.25,480) translate(-316.25,480)" font-size="386.75">C2024</text></g></use>
          <use xlink:href="#$TCHSYS$WIN2D_2000x380" x="-128493.32" y="-141041.78" transform="scale(1,-1) translate(0,282083.56) rotate(-270,-128493.32,-141041.78)">.<g class="blkclass0"><text transform="rotate(-90 -316.25,480) translate(-316.25,480)" font-size="386.75">C2024</text></g></use>
          <use xlink:href="#$TCHSYS$WIN2D_2000x380" x="-128493.32" y="-138041.78" transform="scale(1,-1) translate(0,276083.56) rotate(-270,-128493.32,-138041.78)">.<g class="blkclass0"><text transform="rotate(-90 -316.25,480) translate(-316.25,480)" font-size="386.75">C2024</text></g></use>
          <path d="M-128303.32,-145351.78l1360,0" />
          <path d="M-126943.32,-145351.78l0,-380" />
          <path d="M-126943.32,-145731.78l-1360,0" />
          <path d="M-117993.32,-145731.78l-1600,0" />
          <path d="M-119593.32,-145731.78l0,380" />
          <path d="M-119593.32,-145351.78l1410,0" />
          <path d="M-125393.32,-145351.78l4250,0" />
          <path d="M-121143.32,-145351.78l0,-380" />
          <path d="M-121143.32,-145731.78l-4250,0" />
          <path d="M-125393.32,-145731.78l0,380" />
          <use xlink:href="#$DorLib2D$00000002" x="-81.399" y="-93.898" transform="scale(1550,1550) scale(-1,-1) translate(162.8,187.8)" stroke-width="0.0001%">.<g class="blkclass0"><text transform="translate(-470,-316.25)" font-size="386.75">M1527</text></g></use>
          <use xlink:href="#$DorLib2D$00000002" x="-77.657" y="-93.898" transform="scale(1550,1550) scale(-1,-1) translate(155.31,187.8)" stroke-width="0.0001%">.<g class="blkclass0"><text transform="translate(-470,-316.25)" font-size="386.75">M1527</text></g></use>
          <path d="M-117803.32,-145351.78l0,6620" />
          <path d="M-118183.32,-145351.78l0,6810" />
          <path d="M-128303.32,-148231.78l0,-2500" />
          <path d="M-128303.32,-150731.78l-380,0" />
          <path d="M-128683.32,-150731.78l0,2690" />
          <path d="M-128683.32,-155731.78l0,3000" />
          <path d="M-128683.32,-152731.78l380,0" />
          <path d="M-128303.32,-152731.78l0,-2620" />
          <use xlink:href="#$TCHSYS$WIN2D_2000x380" x="-128493.32" y="-151731.78" transform="scale(1,-1) translate(0,303463.56) rotate(-270,-128493.32,-151731.78)">.<g class="blkclass0"><text transform="rotate(-90 -316.25,480) translate(-316.25,480)" font-size="386.75">C2024</text></g></use>
          <use xlink:href="#$TCHSYS$WIN2D_2000x380" x="-115803.32" y="-153541.78" transform="scale(1,-1) translate(0,307083.56) rotate(-360,-115803.32,-153541.78)">.<g class="blkclass0"><text transform="rotate(0 -480,-316.25) translate(-480,-316.25)" font-size="386.75">C2024</text></g></use>
          <path d="M-117803.32,-153351.78l0,2495" />
          <path d="M-118183.32,-153541.78l0,2810" />
          <path d="M-114283.32,-148231.78l0,-5120" />
          <path d="M-113903.32,-147851.78l0,-5500" />
          <path d="M-118183.32,-148231.78l-1410,0" />
          <path d="M-119593.32,-148231.78l0,380" />
          <path d="M-119593.32,-147851.78l1600,0" />
          <path d="M-128303.32,-147851.78l1360,0" />
          <path d="M-126943.32,-147851.78l0,-380" />
          <path d="M-126943.32,-148231.78l-1360,0" />
          <path d="M-121143.32,-148231.78l-4250,0" />
          <path d="M-125393.32,-148231.78l0,380" />
          <path d="M-125393.32,-147851.78l4250,0" />
          <path d="M-121143.32,-147851.78l0,-380" />
          <use xlink:href="#$DorLib2D$00000002" x="-81.399" y="-95.511" transform="scale(1550,1550) scale(1,-1) translate(0,191.02) rotate(-180,-81.4,-95.51)" stroke-width="0.0001%">.<g class="blkclass0"><text transform="translate(-470,229.09)" font-size="386.75">M1527</text></g></use>
          <use xlink:href="#$DorLib2D$00000002" x="-77.657" y="-95.511" transform="scale(1550,1550) scale(1,-1) translate(0,191.02) rotate(-180,-77.66,-95.51)" stroke-width="0.0001%">.<g class="blkclass0"><text transform="translate(-470,316.16)" font-size="386.75">M1527</text></g></use>
          <use xlink:href="#$DorLib2D$00000003" x="-146.504" y="-185.052" transform="scale(800,800) scale(1,-1) translate(0,370.1) rotate(-180,-146.5,-185.05)" stroke-width="0.0001%">.</use>
          <use xlink:href="#$DorLib2D$00000003" x="-134.854" y="-185.052" transform="scale(800,800)" stroke-width="0.0001%">.<g class="blkclass0"><text transform="translate(-490,250.34)" font-size="386.75">M0827</text></g></use>
          <use xlink:href="#$TCHSYS$WIN2D_2000x380" x="-108743.32" y="-153541.78" transform="rotate(-180,-108743.32,-153541.78)">.<g class="blkclass0"><text transform="translate(-480,-316.25)" font-size="386.75">C2024</text></g></use>
          <path d="M-110593.32,-153731.78l-775,0" />
          <path d="M-111368.32,-153731.78l0,380" />
          <path d="M-111368.32,-153351.78l585,0" />
          <path d="M-113903.32,-153351.78l785,0" />
          <path d="M-113118.32,-153351.78l0,-380" />
          <path d="M-113118.32,-153731.78l-975,0" />
          <use xlink:href="#$TCHSYS$WIN2D_1750x380" x="-112243.32" y="-153541.78" transform="rotate(-180,-112243.32,-153541.78)">.<g class="blkclass0"><text transform="translate(-460,-316.25)" font-size="386.75">C1724</text></g></use>
          <use xlink:href="#$TCHSYS$WIN2D_2000x380" x="-105243.32" y="-153541.78" transform="rotate(-180,-105243.32,-153541.78)">.<g class="blkclass0"><text transform="translate(-480,-316.25)" font-size="386.75">C2024</text></g></use>
          <path d="M-103783.32,-148231.78l0,-5120" />
          <path d="M-103403.32,-148231.78l0,-5120" />
          <path d="M-103593.32,-153731.78l-650,0" />
          <path d="M-104243.32,-153731.78l0,380" />
          <path d="M-104243.32,-153351.78l460,0" />
          <path d="M-106903.32,-153351.78l660,0" />
          <path d="M-106243.32,-153351.78l0,-380" />
          <path d="M-106243.32,-153731.78l-850,0" />
          <path d="M-107283.32,-148231.78l0,-5120" />
          <path d="M-106903.32,-148231.78l0,-5120" />
          <path d="M-107093.32,-147851.78l2310,0" />
          <path d="M-104783.32,-147851.78l0,-380" />
          <path d="M-104783.32,-148231.78l-2120,0" />
          <path d="M-103783.32,-148231.78l-200,0" />
          <path d="M-103983.32,-148231.78l0,380" />
          <path d="M-103983.32,-147851.78l390,0" />
          <use xlink:href="#$DorLib2D$00000003" x="-130.479" y="-185.052" transform="scale(800,800)" stroke-width="0.0001%">.<g class="blkclass0"><text transform="translate(-728.67,-242.93)" font-size="386.75">M0827</text></g></use>
          <path d="M-107093.32,-153731.78l-650,0" />
          <path d="M-107743.32,-153731.78l0,380" />
          <path d="M-107743.32,-153351.78l460,0" />
          <path d="M-110403.32,-153351.78l660,0" />
          <path d="M-109743.32,-153351.78l0,-380" />
          <path d="M-109743.32,-153731.78l-850,0" />
          <use xlink:href="#$DorLib2D$00000002" x="-75.309" y="-93.898" transform="scale(1550,1550) scale(-1,-1) translate(150.62,187.8)" stroke-width="0.0001%">.<g class="blkclass0"><text transform="translate(-470,-316.25)" font-size="386.75">M1527</text></g></use>
          <use xlink:href="#$TCHSYS$WIN2D_2000x380" x="-115803.32" y="-138541.78" transform="scale(1,-1) translate(0,277083.56)">.<g class="blkclass0"><text transform="translate(-480,738.35)" font-size="386.75">C2024</text></g></use>
          <use xlink:href="#$TCHSYS$WIN2D_2000x380" x="-112303.32" y="-138541.78" transform="scale(1,-1) translate(0,277083.56)">.<g class="blkclass0"><text transform="translate(-480,683.56)" font-size="386.75">C2024</text></g></use>
          <path d="M-118183.32,-138541.78l0,2500" />
          <path d="M-118183.32,-136041.78l380,0" />
          <path d="M-117803.32,-136041.78l0,-2310" />
          <path d="M-117803.32,-130351.78l0,-3690" />
          <path d="M-117803.32,-134041.78l-380,0" />
          <path d="M-118183.32,-134041.78l0,3310" />
          <use xlink:href="#$TCHSYS$WIN2D_2000x380" x="-117993.32" y="-135041.78" transform="scale(-1,1) translate(235986.64,0) rotate(-90,-117993.32,-135041.78)">.<g class="blkclass0"><text transform="rotate(-90 728.25,480) translate(728.25,480)" font-size="386.75">C2024</text></g></use>
          <path d="M-113903.32,-147851.78l-2090,0" />
          <path d="M-114283.32,-148231.78l-1585,0" />
          <path d="M-110783.32,-147851.78l2500,0" />
          <path d="M-108283.32,-147851.78l0,-380" />
          <path d="M-108283.32,-148231.78l-2120,0" />
          <path d="M-107283.32,-148231.78l-200,0" />
          <path d="M-107483.32,-148231.78l0,380" />
          <path d="M-107483.32,-147851.78l390,0" />
          <path d="M-117803.32,-145351.78l300,0" />
          <path d="M-117503.32,-145351.78l0,-380" />
          <path d="M-117503.32,-145731.78l-490,0" />
          <path d="M-103593.32,-145731.78l-1160,0" />
          <path d="M-104753.32,-145731.78l0,380" />
          <path d="M-104753.32,-145351.78l1035,0" />
          <path d="M-115953.32,-145351.78l9650,0" />
          <path d="M-106303.32,-145351.78l0,-380" />
          <path d="M-106303.32,-145731.78l-9650,0" />
          <path d="M-115953.32,-145731.78l0,380" />
          <use xlink:href="#$DorLib2D$00000002" x="-68.083" y="-93.898" transform="scale(1550,1550) scale(-1,-1) translate(136.17,187.8)" stroke-width="0.0001%">.<g class="blkclass0"><text transform="translate(-470,-316.25)" font-size="386.75">M1527</text></g></use>
          <path d="M-110783.32,-147851.78l0,-5500" />
          <path d="M-110403.32,-148231.78l0,-5120" />
          <path d="M-103718.32,-138731.78l0,-6620" />
          <path d="M-103468.32,-138731.78l0,-6620" />
          <path d="M-86018.32,-138731.78l-665,0" />
          <path d="M-86683.32,-138731.78l0,380" />
          <path d="M-86683.32,-138351.78l790,0" />
          <path d="M-92893.32,-138351.78l710,0" />
          <path d="M-92183.32,-138351.78l0,-380" />
          <path d="M-92183.32,-138731.78l-585,0" />
          <path d="M-88683.32,-138731.78l-1500,0" />
          <path d="M-90183.32,-138731.78l0,380" />
          <path d="M-90183.32,-138351.78l1500,0" />
          <path d="M-88683.32,-138351.78l0,-380" />
          <use xlink:href="#$TCHSYS$WIN2D_2000x380" x="-87683.32" y="-138541.78" transform="rotate(-180,-87683.32,-138541.78)">.<g class="blkclass0"><text transform="translate(-480,631.21)" font-size="386.75">C2024</text></g></use>
          <use xlink:href="#$TCHSYS$WIN2D_2000x380" x="-91183.32" y="-138541.78" transform="rotate(-180,-91183.32,-138541.78)">.<g class="blkclass0"><text transform="translate(-480,742.2)" font-size="386.75">C2024</text></g></use>
          <path d="M-92893.32,-153731.78l-850,0" />
          <path d="M-93743.32,-153731.78l0,380" />
          <path d="M-93743.32,-153351.78l660,0" />
          <path d="M-103403.32,-153351.78l660,0" />
          <path d="M-102743.32,-153351.78l0,-380" />
          <path d="M-102743.32,-153731.78l-850,0" />
          <path d="M-95743.32,-153731.78l-1500,0" />
          <path d="M-97243.32,-153731.78l0,380" />
          <path d="M-97243.32,-153351.78l1500,0" />
          <path d="M-95743.32,-153351.78l0,-380" />
          <path d="M-99243.32,-153731.78l-1500,0" />
          <path d="M-100743.32,-153731.78l0,380" />
          <path d="M-100743.32,-153351.78l1500,0" />
          <path d="M-99243.32,-153351.78l0,-380" />
          <use xlink:href="#$TCHSYS$WIN2D_2000x380" x="-94743.32" y="-153541.78" transform="scale(-1,1) translate(189486.64,0) rotate(-180,-94743.32,-153541.78)">.<g class="blkclass0"><text transform="translate(-480,-316.25)" font-size="386.75">C2024</text></g></use>
          <use xlink:href="#$TCHSYS$WIN2D_2000x380" x="-98243.32" y="-153541.78" transform="scale(-1,1) translate(196486.64,0) rotate(-180,-98243.32,-153541.78)">.<g class="blkclass0"><text transform="translate(-480,-316.25)" font-size="386.75">C2024</text></g></use>
          <use xlink:href="#$TCHSYS$WIN2D_2000x380" x="-101743.32" y="-153541.78" transform="scale(-1,1) translate(203486.64,0) rotate(-180,-101743.32,-153541.78)">.<g class="blkclass0"><text transform="translate(-480,-316.25)" font-size="386.75">C2024</text></g></use>
          <path d="M-67803.32,-145541.78l0,-375" />
          <path d="M-67803.32,-145916.78l-380,0" />
          <path d="M-68183.32,-145916.78l0,185" />
          <path d="M-68183.32,-147851.78l0,185" />
          <path d="M-68183.32,-147666.78l380,0" />
          <path d="M-67803.32,-147666.78l0,-375" />
          <path d="M-67803.32,-155731.78l-1640,0" />
          <path d="M-69443.32,-155731.78l0,380" />
          <path d="M-69443.32,-155351.78l1260,0" />
          <path d="M-78303.32,-155351.78l1191.06,0" />
          <path d="M-77112.27,-155351.78l0,-380" />
          <path d="M-77112.27,-155731.78l-1571.06,0" />
          <path d="M-71243.32,-155731.78l-1100,0" />
          <path d="M-72343.32,-155731.78l0,380" />
          <path d="M-72343.32,-155351.78l1100,0" />
          <path d="M-71243.32,-155351.78l0,-380" />
          <path d="M-74143.32,-155731.78l-1168.94,0" />
          <path d="M-75312.27,-155731.78l0,380" />
          <path d="M-75312.27,-155351.78l1168.94,0" />
          <path d="M-74143.32,-155351.78l0,-380" />
          <use xlink:href="#$TCHSYS$WIN2D_1800x380" x="-76212.27" y="-155541.78" transform="rotate(-180,-76212.27,-155541.78)">.<g class="blkclass0"><text transform="translate(-460,-316.25)" font-size="386.75">C1824</text></g></use>
          <use xlink:href="#$TCHSYS$WIN2D_1800x380" x="-73243.32" y="-155541.78" transform="rotate(-180,-73243.32,-155541.78)">.<g class="blkclass0"><text transform="translate(-460,-316.25)" font-size="386.75">C1824</text></g></use>
          <use xlink:href="#$TCHSYS$WIN2D_1800x380" x="-70343.32" y="-155541.78" transform="rotate(-180,-70343.32,-155541.78)">.<g class="blkclass0"><text transform="translate(-460,-302.52)" font-size="386.75">C1824</text></g></use>
          <path d="M-78303.32,-155351.78l0,1810" />
          <path d="M-78683.32,-155731.78l0,2000" />
          <path d="M-78683.32,-130351.78l1450,0" />
          <path d="M-77233.32,-130351.78l0,-380" />
          <path d="M-77233.32,-130731.78l-1070,0" />
          <path d="M-68183.32,-130731.78l-1450,0" />
          <path d="M-69633.32,-130731.78l0,380" />
          <path d="M-69633.32,-130351.78l1830,0" />
          <path d="M-75433.32,-130351.78l1100,0" />
          <path d="M-74333.32,-130351.78l0,-380" />
          <path d="M-74333.32,-130731.78l-1100,0" />
          <path d="M-75433.32,-130731.78l0,380" />
          <path d="M-72533.32,-130351.78l1100,0" />
          <path d="M-71433.32,-130351.78l0,-380" />
          <path d="M-71433.32,-130731.78l-1100,0" />
          <path d="M-72533.32,-130731.78l0,380" />
          <use xlink:href="#$TCHSYS$WIN2D_1800x380" x="-70533.32" y="-130541.78">.<g class="blkclass0"><text transform="translate(-460,613.75)" font-size="386.75">C1824</text></g></use>
          <use xlink:href="#$TCHSYS$WIN2D_1800x380" x="-73433.32" y="-130541.78">.<g class="blkclass0"><text transform="translate(-460,613.75)" font-size="386.75">C1824</text></g></use>
          <use xlink:href="#$TCHSYS$WIN2D_1800x380" x="-76333.32" y="-130541.78">.<g class="blkclass0"><text transform="translate(-460,613.75)" font-size="386.75">C1824</text></g></use>
          <path d="M-67803.32,-130351.78l0,-3690" />
          <path d="M-67803.32,-134041.78l-380,0" />
          <path d="M-68183.32,-134041.78l0,3310" />
          <path d="M-68183.32,-145351.78l0,3310" />
          <path d="M-68183.32,-142041.78l380,0" />
          <path d="M-67803.32,-142041.78l0,-3500" />
          <path d="M-67803.32,-136041.78l0,-1000" />
          <path d="M-67803.32,-137041.78l-380,0" />
          <path d="M-68183.32,-137041.78l0,1000" />
          <path d="M-68183.32,-136041.78l380,0" />
          <path d="M-67803.32,-139041.78l0,-1000" />
          <path d="M-67803.32,-140041.78l-380,0" />
          <path d="M-68183.32,-140041.78l0,1000" />
          <path d="M-68183.32,-139041.78l380,0" />
          <use xlink:href="#$TCHSYS$WIN2D_2000x380" x="-67993.32" y="-135041.78" transform="rotate(-90,-67993.32,-135041.78)">.<g class="blkclass0"><text transform="rotate(-90 613.75,480) translate(613.75,480)" font-size="386.75">C2024</text></g></use>
          <use xlink:href="#$TCHSYS$WIN2D_2000x380" x="-67993.32" y="-141041.78" transform="rotate(-90,-67993.32,-141041.78)">.<g class="blkclass0"><text transform="rotate(-90 613.75,480) translate(613.75,480)" font-size="386.75">C2024</text></g></use>
          <use xlink:href="#$TCHSYS$WIN2D_2000x380" x="-67993.32" y="-138041.78" transform="rotate(-90,-67993.32,-138041.78)">.<g class="blkclass0"><text transform="rotate(-90 613.75,480) translate(613.75,480)" font-size="386.75">C2024</text></g></use>
          <path d="M-68183.32,-145731.78l-1360,0" />
          <path d="M-69543.32,-145731.78l0,380" />
          <path d="M-69543.32,-145351.78l1360,0" />
          <path d="M-78303.32,-145351.78l1410,0" />
          <path d="M-76893.32,-145351.78l0,-380" />
          <path d="M-76893.32,-145731.78l-1600,0" />
          <path d="M-71093.32,-145731.78l-4250,0" />
          <path d="M-75343.32,-145731.78l0,380" />
          <path d="M-75343.32,-145351.78l4250,0" />
          <path d="M-71093.32,-145351.78l0,-380" />
          <use xlink:href="#$DorLib2D$00000002" x="-45.367" y="-93.898" transform="scale(1550,1550) scale(-1,1) translate(90.73,0) rotate(-180,-45.37,-93.9)" stroke-width="0.0001%">.<g class="blkclass0"><text transform="translate(-470,-316.25)" font-size="386.75">M1527</text></g></use>
          <use xlink:href="#$DorLib2D$00000002" x="-49.109" y="-93.898" transform="scale(1550,1550) scale(-1,1) translate(98.22,0) rotate(-180,-49.11,-93.9)" stroke-width="0.0001%">.<g class="blkclass0"><text transform="translate(-470,-316.25)" font-size="386.75">M1527</text></g></use>
          <path d="M-78303.32,-145351.78l0,6810" />
          <path d="M-78683.32,-145351.78l0,6620" />
          <path d="M-67803.32,-148041.78l0,-2690" />
          <path d="M-67803.32,-150731.78l-380,0" />
          <path d="M-68183.32,-150731.78l0,2500" />
          <path d="M-68183.32,-155351.78l0,2620" />
          <path d="M-68183.32,-152731.78l380,0" />
          <path d="M-67803.32,-152731.78l0,-3000" />
          <use xlink:href="#$TCHSYS$WIN2D_2000x380" x="-67993.32" y="-151731.78" transform="rotate(-90,-67993.32,-151731.78)">.<g class="blkclass0"><text transform="rotate(-90 613.75,480) translate(613.75,480)" font-size="386.75">C2024</text></g></use>
          <path d="M-78303.32,-153541.78l0,5310" />
          <path d="M-78683.32,-153351.78l0,5120" />
          <path d="M-82583.32,-147851.78l0,-5500" />
          <path d="M-82203.32,-148231.78l0,-5120" />
          <path d="M-78493.32,-147851.78l1600,0" />
          <path d="M-76893.32,-147851.78l0,-380" />
          <path d="M-76893.32,-148231.78l-1410,0" />
          <path d="M-68183.32,-148231.78l-1360,0" />
          <path d="M-69543.32,-148231.78l0,380" />
          <path d="M-69543.32,-147851.78l1360,0" />
          <path d="M-75343.32,-147851.78l4250,0" />
          <path d="M-71093.32,-147851.78l0,-380" />
          <path d="M-71093.32,-148231.78l-4250,0" />
          <path d="M-75343.32,-148231.78l0,380" />
          <use xlink:href="#$DorLib2D$00000002" x="-45.367" y="-95.511" transform="scale(1550,1550)" stroke-width="0.0001%">.<g class="blkclass0"><text transform="translate(-470,198.91)" font-size="386.75">M1527</text></g></use>
          <use xlink:href="#$DorLib2D$00000002" x="-49.109" y="-95.511" transform="scale(1550,1550)" stroke-width="0.0001%">.<g class="blkclass0"><text transform="translate(-470,203.39)" font-size="386.75">M1527</text></g></use>
          <use xlink:href="#$DorLib2D$00000003" x="-99.104" y="-185.052" transform="scale(800,800)" stroke-width="0.0001%">.<g class="blkclass0"><text transform="translate(-490,-230.57)" font-size="386.75">M0827</text></g></use>
          <path d="M-86083.32,-148231.78l-2120,0" />
          <path d="M-88203.32,-148231.78l0,380" />
          <path d="M-88203.32,-147851.78l2500,0" />
          <path d="M-89393.32,-147851.78l390,0" />
          <path d="M-89003.32,-147851.78l0,-380" />
          <path d="M-89003.32,-148231.78l-200,0" />
          <use xlink:href="#$DorLib2D$00000003" x="-110.754" y="-185.052" transform="scale(800,800) scale(1,-1) translate(0,370.1) rotate(-180,-110.75,-185.05)" stroke-width="0.0001%">.<g class="blkclass0"><text transform="translate(-324.88,-96.96)" font-size="386.75">M0827</text></g></use>
          <use xlink:href="#$TCHSYS$WIN2D_2000x380" x="-87743.32" y="-153541.78" transform="scale(1,-1) translate(0,307083.56)">.<g class="blkclass0"><text transform="translate(-480,-316.25)" font-size="386.75">C2024</text></g></use>
          <path d="M-85703.32,-153351.78l710,0" />
          <path d="M-84993.32,-153351.78l0,-380" />
          <path d="M-84993.32,-153731.78l-900,0" />
          <path d="M-82393.32,-153731.78l-850,0" />
          <path d="M-83243.32,-153731.78l0,380" />
          <path d="M-83243.32,-153351.78l660,0" />
          <use xlink:href="#$TCHSYS$WIN2D_1750x380" x="-84118.32" y="-153541.78" transform="scale(1,-1) translate(0,307083.56)">.<g class="blkclass0"><text transform="translate(-410,-316.25)" font-size="386.75">C1721</text></g></use>
          <use xlink:href="#$TCHSYS$WIN2D_2000x380" x="-91243.32" y="-153541.78" transform="scale(1,-1) translate(0,307083.56)">.<g class="blkclass0"><text transform="translate(-480,-316.25)" font-size="386.75">C2024</text></g></use>
          <path d="M-93083.32,-148231.78l0,-5120" />
          <path d="M-92703.32,-148231.78l0,-5120" />
          <path d="M-92703.32,-153351.78l460,0" />
          <path d="M-92243.32,-153351.78l0,-380" />
          <path d="M-92243.32,-153731.78l-650,0" />
          <path d="M-89393.32,-153731.78l-850,0" />
          <path d="M-90243.32,-153731.78l0,380" />
          <path d="M-90243.32,-153351.78l660,0" />
          <path d="M-89583.32,-148231.78l0,-5120" />
          <path d="M-89203.32,-148231.78l0,-5120" />
          <path d="M-89583.32,-148231.78l-2120,0" />
          <path d="M-91703.32,-148231.78l0,380" />
          <path d="M-91703.32,-147851.78l2310,0" />
          <path d="M-92893.32,-147851.78l390,0" />
          <path d="M-92503.32,-147851.78l0,-380" />
          <path d="M-92503.32,-148231.78l-200,0" />
          <use xlink:href="#$DorLib2D$00000003" x="-115.129" y="-185.052" transform="scale(800,800) scale(1,-1) translate(0,370.1) rotate(-180,-115.13,-185.05)" stroke-width="0.0001%">.<g class="blkclass0"><text transform="translate(-291.54,-176.11)" font-size="386.75">M0827</text></g></use>
          <path d="M-89203.32,-153351.78l460,0" />
          <path d="M-88743.32,-153351.78l0,-380" />
          <path d="M-88743.32,-153731.78l-650,0" />
          <path d="M-85893.32,-153731.78l-850,0" />
          <path d="M-86743.32,-153731.78l0,380" />
          <path d="M-86743.32,-153351.78l660,0" />
          <use xlink:href="#$DorLib2D$00000002" x="-51.457" y="-93.898" transform="scale(1550,1550) scale(-1,1) translate(102.91,0) rotate(-180,-51.46,-93.9)" stroke-width="0.0001%">.<g class="blkclass0"><text transform="translate(-470,-316.25)" font-size="386.75">M1527</text></g></use>
          <use xlink:href="#$TCHSYS$WIN2D_2000x380" x="-80683.32" y="-138541.78" transform="scale(-1,-1) translate(161366.64,277083.56)">.<g class="blkclass0"><text transform="translate(-480,664.36)" font-size="386.75">C2024</text></g></use>
          <use xlink:href="#$TCHSYS$WIN2D_2000x380" x="-84183.32" y="-138541.78" transform="scale(-1,-1) translate(168366.64,277083.56)">.<g class="blkclass0"><text transform="translate(-480,646.1)" font-size="386.75">C2024</text></g></use>
          <path d="M-78683.32,-138351.78l0,2310" />
          <path d="M-78683.32,-136041.78l380,0" />
          <path d="M-78303.32,-136041.78l0,-2500" />
          <path d="M-78303.32,-130731.78l0,-3310" />
          <path d="M-78303.32,-134041.78l-380,0" />
          <path d="M-78683.32,-134041.78l0,3690" />
          <use xlink:href="#$TCHSYS$WIN2D_2000x380" x="-78493.32" y="-135041.78" transform="scale(-1,-1) translate(156986.64,270083.56) rotate(-270,-78493.32,-135041.78)">.<g class="blkclass0"><text transform="rotate(-90 -360.78,480) translate(-360.78,480)" font-size="386.75">C2024</text></g></use>
          <use xlink:href="#$DorLib2D$00000002" x="-58.683" y="-93.898" transform="scale(1550,1550) scale(-1,1) translate(117.37,0) rotate(-180,-58.68,-93.9)" stroke-width="0.0001%">.<g class="blkclass0"><text transform="translate(-470,-316.25)" font-size="386.75">M1527</text></g></use>
          <path d="M-86083.32,-148231.78l0,-5120" />
          <path d="M-85703.32,-147851.78l0,-5500" />
          <path d="M-85893.32,-145731.78l-4290,0" />
          <path d="M-90183.32,-145731.78l0,380" />
          <path d="M-90183.32,-145351.78l4165,0" />
          <path d="M-92768.32,-145351.78l1035,0" />
          <path d="M-91733.32,-145351.78l0,-380" />
          <path d="M-91733.32,-145731.78l-1160,0" />
          <path d="M-86018.32,-138731.78l0,-6620" />
          <path d="M-85768.32,-138731.78l0,-6620" />
          <path d="M-85893.32,-138351.78l710,0" />
          <path d="M-85183.32,-138351.78l0,-380" />
          <path d="M-85183.32,-138731.78l-585,0" />
          <path d="M-78683.32,-138731.78l-1000,0" />
          <path d="M-79683.32,-138731.78l0,380" />
          <path d="M-79683.32,-138351.78l1000,0" />
          <path d="M-83183.32,-138351.78l1500,0" />
          <path d="M-81683.32,-138351.78l0,-380" />
          <path d="M-81683.32,-138731.78l-1500,0" />
          <path d="M-83183.32,-138731.78l0,380" />
          <path d="M-93018.32,-138731.78l0,-6620" />
          <path d="M-92768.32,-138731.78l0,-6620" />
          <path d="M-93018.32,-145351.78l-196.88,0" />
          <path d="M-92893.32,-145731.78l-321.88,0" />
          <path d="M-93215.21,-145351.78l0,-380" />
          <use xlink:href="#$DorLib2D$00000002" x="-65.586" y="-95.511" transform="scale(1550,1550)" stroke-width="0.0001%">.<g class="blkclass0"><text transform="translate(-470,236.48)" font-size="386.75">M1527</text></g></use>
          <use xlink:href="#$DorLib2D$00000002" x="-61.18" y="-95.511" transform="scale(1550,1550) scale(-1,1) translate(122.36,0)" stroke-width="0.0001%">.<g class="blkclass0"><text transform="translate(-470,203.59)" font-size="386.75">M1527</text></g></use>
          <path d="M-117803.32,-138351.78l1000,0" />
          <path d="M-116803.32,-138351.78l0,-380" />
          <path d="M-116803.32,-138731.78l-1000,0" />
          <path d="M-103718.32,-138731.78l-585,0" />
          <path d="M-104303.32,-138731.78l0,380" />
          <path d="M-104303.32,-138351.78l710,0" />
          <path d="M-114803.32,-138351.78l1500,0" />
          <path d="M-113303.32,-138351.78l0,-380" />
          <path d="M-113303.32,-138731.78l-1500,0" />
          <path d="M-114803.32,-138731.78l0,380" />
          <path d="M-111303.32,-138351.78l1500,0" />
          <path d="M-109803.32,-138351.78l0,-380" />
          <path d="M-109803.32,-138731.78l-1500,0" />
          <path d="M-111303.32,-138731.78l0,380" />
          <path d="M-107803.32,-138351.78l1500,0" />
          <path d="M-106303.32,-138351.78l0,-380" />
          <path d="M-106303.32,-138731.78l-1500,0" />
          <path d="M-107803.32,-138731.78l0,380" />
          <use xlink:href="#$TCHSYS$WIN2D_2000x380" x="-108803.32" y="-138541.78" transform="scale(1,-1) translate(0,277083.56)">.<g class="blkclass0"><text transform="translate(-480,570.34)" font-size="386.75">C2024</text></g></use>
          <use xlink:href="#$TCHSYS$WIN2D_2000x380" x="-105303.32" y="-138541.78" transform="scale(1,-1) translate(0,277083.56)">.<g class="blkclass0"><text transform="translate(-480,594.74)" font-size="386.75">C2024</text></g></use>
          <path d="M-117803.32,-153351.78l1000,0" />
          <path d="M-116803.32,-153351.78l0,-380" />
          <path d="M-116803.32,-153731.78l-1000,0" />
          <path d="M-114093.32,-153731.78l-710,0" />
          <path d="M-114803.32,-153731.78l0,380" />
          <path d="M-114803.32,-153351.78l520,0" />
          <path d="M-78683.32,-153731.78l-1060,0" />
          <path d="M-79743.32,-153731.78l0,380" />
          <path d="M-79743.32,-153351.78l1060,0" />
          <path d="M-82203.32,-153351.78l460,0" />
          <path d="M-81743.32,-153351.78l0,-380" />
          <path d="M-81743.32,-153731.78l-650,0" />
          <path d="M-78493.32,-145731.78l-490,0" />
          <path d="M-78983.32,-145731.78l0,380" />
          <path d="M-78983.32,-145351.78l300,0" />
          <path d="M-85768.32,-145351.78l5235,0" />
          <path d="M-80533.32,-145351.78l0,-380" />
          <path d="M-80533.32,-145731.78l-5360,0" />
          <use xlink:href="#$TCHSYS$WIN2D_2000x380" x="-80743.32" y="-153541.78" transform="rotate(-180,-80743.32,-153541.78)">.<g class="blkclass0"><text transform="rotate(-360 -480,-316.25) translate(-480,-316.25)" font-size="386.75">C2024</text></g></use>
          <use xlink:href="#$TCHSYS$WIN2D_1750x380" x="-67993.32" y="-146791.78" transform="scale(-1,-1) translate(135986.64,293583.56) rotate(-90,-67993.32,-146791.78)">.<g class="blkclass0"><text transform="rotate(-90 625.42,460) translate(625.42,460)" font-size="386.75">C1724</text></g></use>
          <use xlink:href="#$TCHSYS$WIN2D_1750x380" x="-128493.32" y="-146791.78" transform="scale(-1,-1) translate(256986.64,293583.56) rotate(-90,-128493.32,-146791.78)">.<g class="blkclass0"><text transform="rotate(-90 -367.54,460) translate(-367.54,460)" font-size="386.75">C1724</text></g></use>
          <path d="M-117803.32,-150856.78l1935,0" />
          <path d="M-117803.32,-150606.78l1685,0" />
          <path d="M-115868.32,-150856.78l0,2625" />
          <path d="M-116118.32,-150606.78l0,2375" />
          <path d="M-117803.32,-150606.78l0,2375" />
          <path d="M-118183.32,-150731.78l0,2500" />
          <path d="M-116118.32,-148231.78l-685,0" />
          <path d="M-116803.32,-148231.78l0,380" />
          <path d="M-116803.32,-147851.78l810,0" />
          <path d="M-117993.32,-147851.78l390,0" />
          <path d="M-117603.32,-147851.78l0,-380" />
          <path d="M-117603.32,-148231.78l-200,0" />
          <path d="M-110783.32,-148652.67l0,-1483.91" />
          <path d="M-110783.32,-150249.72l0,-1372.95" />
          <path d="M-110783.32,-148652.67l-120,0" />
          <path d="M-110783.32,-151622.67l-120,0" />
          <path d="M-110903.32,-148652.67l0,-1420.4" />
          <path d="M-110903.32,-150186.21l0,-1436.46" />
          <path d="M-111953.32,-148652.67l1050,0" />
          <path d="M-111953.32,-148922.67l1050,0" />
          <path d="M-111953.32,-149192.67l1050,0" />
          <path d="M-111953.32,-149462.67l1050,0" />
          <path d="M-111953.32,-149732.67l193.03,0" />
          <path d="M-111546.52,-149732.67l643.19,0" />
          <path d="M-111953.32,-150002.67l703.19,0" />
          <path d="M-111036.35,-150002.67l133.03,0" />
          <path d="M-111953.32,-150272.67l1050,0" />
          <path d="M-111953.32,-150542.67l1050,0" />
          <path d="M-111953.32,-150812.67l1050,0" />
          <path d="M-111953.32,-151082.67l1050,0" />
          <path d="M-111953.32,-151352.67l1050,0" />
          <path d="M-111953.32,-151622.67l1050,0" />
          <path d="M-112013.32,-148652.67l0,-832.95" />
          <path d="M-112013.32,-149598.76l0,-2023.91" />
          <path d="M-112013.32,-149598.76l524.05,-277.35" />
          <path d="M-112013.32,-149485.61l547.14,-289.57" />
          <path d="M-111466.18,-149775.18l-39.8,-173.94" />
          <path d="M-111505.98,-149949.12l199.54,180.36" />
          <path d="M-111306.44,-149768.76l-41.66,-182.06" />
          <path d="M-111348.11,-149950.81l564.78,-298.9" />
          <path d="M-111325.01,-149849.89l541.69,-286.68" />
          <path d="M-113903.32,-151622.67l0,2970" />
          <path d="M-113903.32,-151622.67l120,0" />
          <path d="M-113903.32,-148652.67l120,0" />
          <path d="M-113783.32,-151622.67l0,2970" />
          <path d="M-112733.32,-151622.67l-1050,0" />
          <path d="M-112733.32,-151352.67l-1050,0" />
          <path d="M-112733.32,-151082.67l-1050,0" />
          <path d="M-112733.32,-150812.67l-1050,0" />
          <path d="M-112733.32,-150542.67l-1050,0" />
          <path d="M-112733.32,-150272.67l-1050,0" />
          <path d="M-112733.32,-150002.67l-1050,0" />
          <path d="M-112733.32,-149732.67l-1050,0" />
          <path d="M-112733.32,-149462.67l-1050,0" />
          <path d="M-112733.32,-149192.67l-1050,0" />
          <path d="M-112733.32,-148922.67l-1050,0" />
          <path d="M-112733.32,-148652.67l-1050,0" />
          <path d="M-112673.32,-151622.67l0,2970" />
          <path d="M-112673.32,-148562.67l660,0" />
          <path d="M-112013.32,-148562.67l0,-922.95" />
          <path d="M-112013.32,-149598.76l0,-2113.91" />
          <path d="M-112013.32,-151712.67l-660,0" />
          <path d="M-112673.32,-151712.67l0,3150" />
          <path d="M-112733.32,-148502.67l780,0" />
          <path d="M-111953.32,-148502.67l0,-1014.7" />
          <path d="M-111953.32,-149630.51l0,-2142.16" />
          <path d="M-111953.32,-151772.67l-780,0" />
          <path d="M-112733.32,-151772.67l0,3270" />
          <path d="M-112013.32,-151622.67l-660,0" />
          <path d="M-112013.32,-148652.67l-660,0" />
          <path d="M-85703.32,-148652.67l0,-832.95" />
          <path d="M-85703.32,-149598.76l0,-2023.91" />
          <path d="M-85703.32,-148652.67l120,0" />
          <path d="M-85703.32,-151622.67l120,0" />
          <path d="M-85583.32,-148652.67l0,-896.46" />
          <path d="M-85583.32,-149662.26l0,-1960.4" />
          <path d="M-85583.32,-148652.67l1050,0" />
          <path d="M-85583.32,-148922.67l1050,0" />
          <path d="M-85583.32,-149192.67l1050,0" />
          <path d="M-85583.32,-149462.67l1050,0" />
          <path d="M-85583.32,-149732.67l133.03,0" />
          <path d="M-85236.52,-149732.67l703.19,0" />
          <path d="M-85583.32,-150002.67l643.19,0" />
          <path d="M-84726.35,-150002.67l193.03,0" />
          <path d="M-85583.32,-150272.67l1050,0" />
          <path d="M-85583.32,-150542.67l1050,0" />
          <path d="M-85583.32,-150812.67l1050,0" />
          <path d="M-85583.32,-151082.67l1050,0" />
          <path d="M-85583.32,-151352.67l1050,0" />
          <path d="M-85583.32,-151622.67l1050,0" />
          <path d="M-84473.32,-148652.67l0,-1483.91" />
          <path d="M-84473.32,-150249.72l0,-1372.95" />
          <path d="M-85703.32,-149598.76l524.05,-277.35" />
          <path d="M-85703.32,-149485.61l547.14,-289.57" />
          <path d="M-85156.18,-149775.18l-39.8,-173.94" />
          <path d="M-85195.98,-149949.12l199.54,180.36" />
          <path d="M-84996.44,-149768.76l-41.66,-182.06" />
          <path d="M-85038.11,-149950.81l564.78,-298.9" />
          <path d="M-85015.01,-149849.89l541.69,-286.68" />
          <path d="M-82583.32,-151622.67l0,2970" />
          <path d="M-82583.32,-151622.67l-120,0" />
          <path d="M-82583.32,-148652.67l-120,0" />
          <path d="M-82703.32,-151622.67l0,2970" />
          <path d="M-82703.32,-151622.67l-1050,0" />
          <path d="M-82703.32,-151352.67l-1050,0" />
          <path d="M-82703.32,-151082.67l-1050,0" />
          <path d="M-82703.32,-150812.67l-1050,0" />
          <path d="M-82703.32,-150542.67l-1050,0" />
          <path d="M-82703.32,-150272.67l-1050,0" />
          <path d="M-82703.32,-150002.67l-1050,0" />
          <path d="M-82703.32,-149732.67l-1050,0" />
          <path d="M-82703.32,-149462.67l-1050,0" />
          <path d="M-82703.32,-149192.67l-1050,0" />
          <path d="M-82703.32,-148922.67l-1050,0" />
          <path d="M-82703.32,-148652.67l-1050,0" />
          <path d="M-83813.32,-151622.67l0,2970" />
          <path d="M-83753.32,-148502.67l-780,0" />
          <path d="M-84533.32,-148502.67l0,-1602.16" />
          <path d="M-84533.32,-150217.96l0,-1554.7" />
          <path d="M-84533.32,-151772.67l780,0" />
          <path d="M-83753.32,-151772.67l0,3270" />
          <path d="M-83813.32,-148562.67l-660,0" />
          <path d="M-84473.32,-148562.67l0,-1573.91" />
          <path d="M-84473.32,-150249.72l0,-1462.95" />
          <path d="M-84473.32,-151712.67l660,0" />
          <path d="M-83813.32,-151712.67l0,3150" />
          <path d="M-84473.32,-151622.67l660,0" />
          <path d="M-84473.32,-148652.67l660,0" />
          <path d="M-100193.32,-148231.78l0,-5120" />
          <path d="M-99993.32,-148231.78l0,-5120" />
          <path d="M-100193.32,-153351.78l200,0" />
          <path d="M-103593.32,-147851.78l1160,0" />
          <path d="M-102433.32,-147851.78l0,-380" />
          <path d="M-102433.32,-148231.78l-970,0" />
          <path d="M-100193.32,-148231.78l-690,0" />
          <path d="M-100883.32,-148231.78l0,380" />
          <path d="M-100883.32,-147851.78l690,0" />
          <path d="M-100173.32,-138731.78l0,-6620" />
          <path d="M-99973.32,-138731.78l0,-6620" />
          <path d="M-100173.32,-138731.78l200,0" />
          <path d="M-100173.32,-145351.78l200,0" />
          <path d="M-96513.32,-138731.78l0,-6620" />
          <path d="M-96313.32,-138731.78l0,-6620" />
          <path d="M-96513.32,-138731.78l200,0" />
          <path d="M-96513.32,-145351.78l200,0" />
          <use xlink:href="#$DorLib2D$00000003" x="-124.004" y="-181.927" transform="scale(800,800) rotate(-180,-124,-181.93)" stroke-width="0.0001%">.<g class="blkclass0"><text transform="translate(-472.1,-320.34)" font-size="386.75">M0827</text></g></use>
          <path d="M-100193.32,-147851.78l4590,0" />
          <path d="M-95603.32,-147851.78l0,-380" />
          <path d="M-95603.32,-148231.78l-4590,0" />
          <path d="M-93083.32,-148231.78l-970,0" />
          <path d="M-94053.32,-148231.78l0,380" />
          <path d="M-94053.32,-147851.78l1155.06,0" />
          <path d="M-78683.32,-151756.78l-1187.5,0" />
          <path d="M-78683.32,-151781.78l-1187.5,0" />
          <path d="M-78683.32,-151756.78l0,-25" />
          <path d="M-79895.82,-151769.28l0,150" />
          <path d="M-79895.82,-151619.28l25,0" />
          <path d="M-79870.82,-151619.28l0,-137.5" />
          <path d="M-79870.82,-150869.28l0,-150" />
          <path d="M-79870.82,-151019.28l-25,0" />
          <path d="M-79895.82,-151019.28l0,150" />
          <use xlink:href="#$TCHSYS$APDOOR2D" x="-133.139" y="-252.199" transform="scale(600,600) scale(1,-1) translate(0,504.4) rotate(-90,-133.14,-252.2)" stroke-width="0.0002%">.</use>
          <path d="M-78683.32,-152656.78l-1187.5,0" />
          <path d="M-78683.32,-152681.78l-1212.5,0" />
          <path d="M-78683.32,-152656.78l0,-25" />
          <path d="M-79895.82,-152681.78l0,162.5" />
          <path d="M-79895.82,-152519.28l25,0" />
          <path d="M-79870.82,-152519.28l0,-137.5" />
          <path d="M-79870.82,-151781.78l0,-137.5" />
          <path d="M-79870.82,-151919.28l-25,0" />
          <path d="M-79895.82,-151919.28l0,150" />
          <use xlink:href="#$TCHSYS$APDOOR2D" x="-133.139" y="-253.699" transform="scale(600,600) scale(1,-1) translate(0,507.4) rotate(-90,-133.14,-253.7)" stroke-width="0.0002%">.</use>
          <path d="M-82583.32,-147851.78l2900,0" />
          <path d="M-79683.32,-147851.78l0,-380" />
          <path d="M-79683.32,-148231.78l-2520,0" />
          <path d="M-78683.32,-148231.78l-200,0" />
          <path d="M-78883.32,-148231.78l0,380" />
          <path d="M-78883.32,-147851.78l390,0" />
          <path d="M-78683.32,-150844.28l-1187.5,0" />
          <path d="M-78683.32,-150869.28l-1187.5,0" />
          <path d="M-78683.32,-150844.28l0,-25" />
          <path d="M-79895.82,-150856.78l0,150" />
          <path d="M-79895.82,-150706.78l25,0" />
          <path d="M-79870.82,-150706.78l0,-137.5" />
          <path d="M-79870.82,-149956.78l0,-150" />
          <path d="M-79870.82,-150106.78l-25,0" />
          <path d="M-79895.82,-150106.78l0,175" />
          <use xlink:href="#$TCHSYS$APDOOR2D" x="-133.139" y="-250.678" transform="scale(600,600) scale(1,-1) translate(0,501.36) rotate(-90,-133.14,-250.68)" stroke-width="0.0002%">.</use>
          <path d="M-78683.32,-149931.78l-1212.5,0" />
          <path d="M-78683.32,-149956.78l-1187.5,0" />
          <path d="M-78683.32,-149931.78l0,-25" />
          <use xlink:href="#$TCHSYS$WIN2D_2000x380" x="-94583.32" y="-138541.78" transform="rotate(-180,-94583.32,-138541.78)">.</use>
          <use xlink:href="#$TCHSYS$WIN2D_2000x380" x="-98243.32" y="-138541.78" transform="scale(-1,1) translate(196486.64,0) rotate(-180,-98243.32,-138541.78)">.</use>
          <path d="M-93018.32,-138731.78l-565,0" />
          <path d="M-93583.32,-138731.78l0,380" />
          <path d="M-93583.32,-138351.78l690,0" />
          <path d="M-103593.32,-138351.78l690,0" />
          <path d="M-102903.32,-138351.78l0,-380" />
          <path d="M-102903.32,-138731.78l-565,0" />
          <path d="M-95583.32,-138731.78l-1660,0" />
          <path d="M-97243.32,-138731.78l0,380" />
          <path d="M-97243.32,-138351.78l1660,0" />
          <path d="M-95583.32,-138351.78l0,-380" />
          <path d="M-99243.32,-138731.78l-1660,0" />
          <path d="M-100903.32,-138731.78l0,380" />
          <path d="M-100903.32,-138351.78l1660,0" />
          <path d="M-99243.32,-138351.78l0,-380" />
          <use xlink:href="#$TCHSYS$WIN2D_2000x380" x="-101903.32" y="-138541.78" transform="scale(-1,1) translate(203806.64,0) rotate(-180,-101903.32,-138541.78)">.</use>
          <path d="M-92913.32,-138521.78l40,-40" />
          <path d="M-92913.32,-138561.78l40,40" />
          <use xlink:href="#$DorLib2D$00000003" x="-116.989" y="-181.68" transform="scale(800,800) scale(-1,-1) translate(233.98,363.36) rotate(-180,-116.99,-181.68)" stroke-width="0.0001%">.<g class="blkclass0"><text transform="translate(-462.9,641.63)" font-size="386.75">M0821</text></g></use>
          <path d="M-93887.38,-145731.78l-1227.64,0" />
          <path d="M-95115.01,-145731.78l0,380" />
          <path d="M-95115.01,-145351.78l1227.64,0" />
          <path d="M-93887.38,-145351.78l0,-380" />
          <path d="M-102584.69,-145351.78l1187.66,0" />
          <path d="M-101397.03,-145351.78l0,-380" />
          <path d="M-101397.03,-145731.78l-1187.66,0" />
          <path d="M-102584.69,-145731.78l0,380" />
          <path d="M-95915.01,-145731.78l-2888.31,0" />
          <path d="M-98803.32,-145731.78l0,380" />
          <path d="M-98803.32,-145351.78l2888.31,0" />
          <path d="M-95915.01,-145351.78l0,-380" />
          <path d="M-99603.32,-145731.78l-993.71,0" />
          <path d="M-100597.03,-145731.78l0,380" />
          <path d="M-100597.03,-145351.78l993.71,0" />
          <path d="M-99603.32,-145351.78l0,-380" />
          <use xlink:href="#$DorLib2D$00000003" x="-128.731" y="-181.677" transform="scale(800,800) scale(1,-1) translate(0,363.35) rotate(-180,-128.73,-181.68)" stroke-width="0.0001%">.<g class="blkclass0"><text transform="translate(-427.1,334.59)" font-size="386.75">M0821</text></g></use>
          <path d="M-103360.69,-145351.78l-107.64,0" />
          <path d="M-103360.69,-145731.78l-232.64,0" />
          <path d="M-103360.69,-145351.78l0,-380" />
          <use xlink:href="#$DorLib2D$00000003" x="-126.246" y="-181.927" transform="scale(800,800) rotate(-180,-126.25,-181.93)" stroke-width="0.0001%">.<g class="blkclass0"><text transform="translate(-472.1,-478.06)" font-size="386.75">M0827</text></g></use>
          <use xlink:href="#$DorLib2D$00000003" x="-119.394" y="-181.927" transform="scale(800,800) rotate(-180,-119.39,-181.93)" stroke-width="0.0001%">.<g class="blkclass0"><text transform="translate(-472.1,-483.42)" font-size="386.75">M0827</text></g></use>
        </g>
      </g>
      <g id="assets" fill="none">
        <g id="rm-assets" class="rm-asset">
          <path id="15021;F02;201-202" d="M-128303.32,-145351.78l10120,0l0,14620l-10120,0z" />
          <path id="15021;F02;210-211" d="M-78303.32,-145351.78l10120,0l0,14620l-10120,0z" />
          <path id="15021;F02;203-204" d="M-117803.32,-145351.78l14085,0l0,6620l-14085,0z" />
          <path id="15021;F02;220" d="M-128303.32,-155351.78l10120,0l0,7120l-10120,0z" />
          <path id="15021;F02;212-213" d="M-78303.32,-155351.78l10120,0l0,7120l-10120,0l0,-7120z" />
          <path id="15021;F02;209" d="M-85768.32,-145351.78l7085,0l0,6620l-7085,0z" />
          <path id="15021;F02;208" d="M-92768.32,-145351.78l6750,0l0,6620l-6750,0z" />
          <path id="15021;F02;216" d="M-99993.32,-153351.78l0,5120l6910,0l0,-5120z" />
          <path id="15021;F02;206" d="M-99973.32,-145351.78l3460,0l0,6620l-3460,0z" />
          <path id="15021;F02;205" d="M-103468.32,-145351.78l3295,0l0,6620l-3295,0z" />
          <path id="15021;F02;207" d="M-96313.32,-145351.78l3295,0l0,6620l-3295,0z" />
          <path id="15021;F02;217" d="M-103403.32,-153351.78l0,5120l3210,0l0,-5120l-3210,0z" />
          <path id="15021;F02;218" d="M-106903.32,-153351.78l0,5120l3120,0l0,-5120z" />
          <path id="15021;F02;214" d="M-89203.32,-153351.78l3120,0l0,5120l-3120,0z" />
          <path id="15021;F02;219" d="M-110403.32,-153351.78l0,5120l3120,0l0,-5120z" />
          <path id="15021;F02;215" d="M-92703.32,-153351.78l3120,0l0,5120l-3120,0z" />
        </g>
      </g>
    </g>
    <g id="text" font-family="Arial" font-size="650" font-weight="normal" text-style="normal" text-anchor="start" dominant-baseline="alphabetical" fill="#FF7F00" xml:space="preserve">
      <g id="layer-body-text">
        <g transform="translate(-98478.91,-146657.62)">
          <text>走道</text>
        </g>
      </g>
    </g>
    <g id="asset-labels" font-family="Arial" font-weight="bold" font-size="38.1em" text-anchor="middle">
      <g id="rm-labels">
        <g id="l-rm-15021;F02;201-202" transform="translate(-123243.32,-138041.78)">
          <text>201-202</text>
        </g>
        <g id="l-rm-15021;F02;210-211" transform="translate(-73243.32,-138041.78)">
          <text>210-211</text>
        </g>
        <g id="l-rm-15021;F02;203-204" transform="translate(-110760.82,-142041.78)">
          <text>203-204</text>
        </g>
        <g id="l-rm-15021;F02;220" transform="translate(-123243.32,-151791.78)">
          <text>220</text>
        </g>
        <g id="l-rm-15021;F02;212-213" transform="translate(-73243.32,-151791.78)">
          <text>212-213</text>
        </g>
        <g id="l-rm-15021;F02;209" transform="translate(-82225.82,-142041.78)">
          <text>209</text>
        </g>
        <g id="l-rm-15021;F02;208" transform="translate(-89393.32,-142041.78)">
          <text>208</text>
        </g>
        <g id="l-rm-15021;F02;216" transform="translate(-96538.32,-150791.78)">
          <text>216</text>
        </g>
        <g id="l-rm-15021;F02;206" transform="translate(-98243.32,-142041.78)">
          <text>206</text>
        </g>
        <g id="l-rm-15021;F02;205" transform="translate(-101820.82,-142041.78)">
          <text>205</text>
        </g>
        <g id="l-rm-15021;F02;207" transform="translate(-94665.82,-142041.78)">
          <text>207</text>
        </g>
        <g id="l-rm-15021;F02;217" transform="translate(-101798.32,-150791.78)">
          <text>217</text>
        </g>
        <g id="l-rm-15021;F02;218" transform="translate(-105343.32,-150791.78)">
          <text>218</text>
        </g>
        <g id="l-rm-15021;F02;214" transform="translate(-87643.32,-150791.78)">
          <text>214</text>
        </g>
        <g id="l-rm-15021;F02;219" transform="translate(-108843.32,-150791.78)">
          <text>219</text>
        </g>
        <g id="l-rm-15021;F02;215" transform="translate(-91143.32,-150791.78)">
          <text>215</text>
        </g>
      </g>
    </g>
  </g>
</svg>