<svg version="1.1" xmlns="http://www.w3.org/2000/svg" xmlns:xlink="http://www.w3.org/1999/xlink" viewBox="-130793.83 -93230.95 65097 26250">
  <style>.i0 { stroke:#000000;   } .body { stroke:#ff7f00;   } .rm { stroke:#00ffff;   } .defpoints { stroke:#000000;   } .axis_text { stroke:#000000;   } .pub_wall { stroke:#c0c0c0;   } .rm-asset { stroke:#0000ff;   fill:#EEEEEE; fill-opacity:1;} .rmtc-asset { stroke:#0000ff;   } .rmtc { stroke:#00ffff;   } .rm-assettxt { stroke:#0000ff;   } .rmtc-assettxt { stroke:#0000ff;   } .cnc-0 { stroke:#000000;  stroke-dasharray:0; } .blkclass0 { stroke:#ff7f00;  stroke-width:0.02;  fill:#ff7f00; fill-opacity:1; font-family:Arial; font-size:386.75; font-weight:normal; text-style:normal; text-anchor:start;}</style>
  <view id="defaultView" viewBox="-130793.83 -93230.95 65097 26250" />
  <defs>
    <symbol id="$TCHSYS$WIN2D_2000x380" overflow="visible" class="i0">
      <path d="M-1000,-190l2000,0" />
      <path d="M-1000,190l2000,0" />
      <path d="M1000,63.33l-2000,0" />
      <path d="M1000,-63.33l-2000,0" />
      <path d="M-1000,-190l0,380" />
      <path d="M1000,-190l0,380" />
    </symbol>
    <symbol id="$DorLib2D$00000003" overflow="visible" class="i0">
      <path d="M0.47,0l0,-0.97" />
      <path d="M-0.5,0a0.97,0.97 0 0,1 0.97,-0.97" />
    </symbol>
    <symbol id="$DorLib2D$00000002" overflow="visible" class="i0">
      <path d="M-0.5,0l0,-0.49" />
      <path d="M-0.48,0l0,-0.49" />
      <path d="M-0.5,0l0.02,0" />
      <path d="M-0.48,-0.49l-0.02,0" />
      <path d="M-0.48,-0.49a0.49,0.49 0 0,1 0.48,0.49" />
      <path d="M0,0a0.49,0.49 0 0,1 0.48,-0.49" />
      <path d="M0.48,0l0,-0.49" />
      <path d="M0.5,0l0,-0.49" />
      <path d="M0.48,-0.49l0.02,0" />
      <path d="M0.5,0l-0.02,0" />
    </symbol>
    <symbol id="$TCHSYS$WIN2D_1800x380" overflow="visible" class="i0">
      <path d="M-900,-190l1800,0" />
      <path d="M-900,190l1800,0" />
      <path d="M900,63.33l-1800,0" />
      <path d="M900,-63.33l-1800,0" />
      <path d="M-900,-190l0,380" />
      <path d="M900,-190l0,380" />
    </symbol>
    <symbol id="$DorLib2D$00000013" overflow="visible" class="i0">
      <path d="M0.43,0.47a0.4,0.4 0 0,1 -0.43,-0.4" />
      <path d="M0.43,0.47l0,-0.4" />
      <path d="M-0.47,0.07l0,0.4" />
      <path d="M-0.43,0.47l0,-0.4" />
      <path d="M-0.49,0.41l0,-0.13" />
      <path d="M-0.41,0.41l0,-0.13" />
      <path d="M0,0.07a0.4,0.4 0 0,1 -0.43,0.4" />
      <path d="M-0.47,0.47l0.03,0" />
      <path d="M-0.43,-0.4a0.4,0.4 0 0,1 0.43,0.4" />
      <path d="M0,0a0.4,0.4 0 0,1 0.43,-0.4" />
      <path d="M0.43,0l0,0.07" />
      <path d="M0.41,-0.34l0,0.13" />
      <path d="M0.49,-0.34l0,0.13" />
      <path d="M0.43,-0.4l0,0.4" />
      <path d="M0.47,0l0,-0.4" />
      <path d="M0.5,0.07l0,0" />
      <path d="M0.43,0l0.03,0" />
      <path d="M0.47,-0.4l-0.03,0" />
      <path d="M0.5,0l0,0.07" />
      <path d="M0.43,0l0.07,0" />
      <path d="M0.5,0l0,0" />
      <path d="M0.5,0.07l-0.03,0" />
      <path d="M0.43,0.07l0.03,0" />
      <path d="M-0.43,-0.4l0,0.4" />
      <path d="M-0.43,0l0,0.07" />
      <path d="M-0.43,0l-0.03,0" />
      <path d="M-0.43,0.07l-0.07,0" />
      <path d="M-0.5,0.07l0,0" />
      <path d="M-0.5,0l0.03,0" />
      <path d="M-0.43,0.07l-0.03,0" />
      <path d="M-0.43,0l-0.07,0" />
      <path d="M-0.5,0l0,0.07" />
      <path d="M-0.5,0l0,0" />
      <path d="M-0.5,0.07l0.03,0" />
      <path d="M0.49,-0.34l-0.03,0" />
      <path d="M0.41,-0.34l0.03,0" />
      <path d="M0.49,-0.22l-0.03,0" />
      <path d="M0.41,-0.22l0.03,0" />
      <path d="M-0.41,0.28l-0.03,0" />
      <path d="M-0.41,0.41l-0.03,0" />
      <path d="M-0.49,0.28l0.03,0" />
      <path d="M-0.49,0.41l0.03,0" />
    </symbol>
    <symbol id="$TCHSYS$WIN2D_2000x250" overflow="visible" class="i0">
      <path d="M-1000,-125l2000,0" />
      <path d="M-1000,125l2000,0" />
      <path d="M1000,41.67l-2000,0" />
      <path d="M1000,-41.67l-2000,0" />
      <path d="M-1000,-125l0,250" />
      <path d="M1000,-125l0,250" />
    </symbol>
    <symbol id="$TCHSYS$APDOOR2D" overflow="visible" class="i0">
      <path d="M0.5,0l-0.5,-0.87" />
      <path d="M-0.5,0a1,1 0 0,1 0.5,-0.87" />
    </symbol>
  </defs>
  <g id="viewer">
    <g id="mirror" transform="scale(1, 1)" stroke-width="0.09%">
      <g id="background" fill="none">
        <g id="layer-body-fills" class="body">
          <path d="M-92183.32,-75409.02l2000,0l0,3350l-2000,0z" />
          <path d="M-92133.32,-75359.02l1900,0l0,3250l-1900,0z" />
          <path d="M-91933.32,-75159.02l1500,0l0,2850l-1500,0z" />
          <path d="M-104303.32,-75409.02l-2000,0l0,3350l2000,0z" />
          <path d="M-104353.32,-75359.02l-1900,0l0,3250l1900,0z" />
          <path d="M-104553.32,-75159.02l-1500,0l0,2850l1500,0z" />
          <path d="M-100433.32,-73059.02l500,0l0,-500l-500,0z" />
          <path d="M-96433.32,-73059.02l500,0l0,-500l-500,0z" />
          <path d="M-93933.32,-73059.02l500,0l0,-500l-500,0z" />
          <path d="M-102933.32,-73059.02l500,0l0,-500l-500,0z" />
          <path d="M-67803.32,-84909.02l1200,0l0,-1000l-1200,0z" />
          <path d="M-67653.32,-85059.02l900,0l0,-700l-900,0z" />
          <path d="M-67803.32,-81789.02l1200,0l0,-1000l-1200,0z" />
          <path d="M-67653.32,-81939.02l900,0l0,-700l-900,0z" />
          <path d="M-128683.32,-84909.02l-1200,0l0,-1000l1200,0z" />
          <path d="M-128833.32,-85059.02l-900,0l0,-700l900,0z" />
          <path d="M-128683.32,-81789.02l-1200,0l0,-1000l1200,0z" />
          <path d="M-128833.32,-81939.02l-900,0l0,-700l900,0z" />
          <path d="M-117803.32,-74659.02l1200,0l0,1200l-1200,0z" />
          <path d="M-117703.32,-74559.02l1000,0l0,1000l-1000,0z" />
          <path d="M-117803.32,-69509.02l1200,0l0,-1200l-1200,0z" />
          <path d="M-117703.32,-69609.02l1000,0l0,-1000l-1000,0z" />
          <path d="M-78683.32,-74659.02l-1200,0l0,1200l1200,0z" />
          <path d="M-78783.32,-74559.02l-1000,0l0,1000l1000,0z" />
          <path d="M-78683.32,-69509.02l-1200,0l0,-1200l1200,0z" />
          <path d="M-78783.32,-69609.02l-1000,0l0,-1000l1000,0z" />
          <path d="M-79133.32,-89849.02l400,0l0,-500l-400,0z" />
          <path d="M-79183.32,-89799.02l500,0l0,-600l-500,0z" />
          <path d="M-128303.32,-92409.02l10120,0l0,7120l-10120,0z" />
        </g>
        <g id="layer-RM-fills" class="rm">
          <path d="M-117803.32,-87664.02l1685,0l0,2375l-1685,0z" />
          <path d="M-117803.32,-90409.02l3620,0l0,5120l-1685,0l0,-2625l-1935,0z" />
          <path d="M-82303.32,-90409.02l3620,0l0,5120l-3620,0z" />
          <path d="M-89293.32,-82409.02l10610,0l0,6620l-10610,0z" />
          <path d="M-92803.32,-82409.02l3310,0l0,6620l-3310,0z" />
          <path d="M-128303.32,-70489.02l10120,0l0,2700l-10120,0z" />
          <path d="M-113803.32,-90409.02l3120,0l0,1345l-174.83,0l0,250l174.83,0l0,3525l-3121.17,0z" />
          <path d="M-112308.32,-89064.02l550.17,0l0,250l-300.17,0l0,1375l-250,0z" />
          <path d="M-82683.32,-90409.02l-3120,0l0,1345l174.83,0l0,250l-174.83,0l0,3525l3121.17,0z" />
          <path d="M-84178.32,-89064.02l-550.17,0l0,250l300.17,0l0,1375l250,0z" />
        </g>
        <g id="layer-0" class="i0">
          <path d="M-68920.93,-84909.02l0,0" />
        </g>
        <g id="layer-body" class="body">
          <path d="M-85803.32,-85289.02l1565,0" />
          <path d="M-85803.32,-85589.02l1565,0" />
          <path d="M-85803.32,-85889.02l1565,0" />
          <path d="M-85803.32,-86189.02l1565,0" />
          <path d="M-85803.32,-86489.02l1565,0" />
          <path d="M-85803.32,-86789.02l1565,0" />
          <path d="M-85803.32,-87089.02l1565,0" />
          <path d="M-85803.32,-87389.02l1565,0" />
          <path d="M-85803.32,-87689.02l1375,0" />
          <path d="M-85803.32,-87989.02l1375,0" />
          <path d="M-85803.32,-88289.02l1375,0" />
          <path d="M-85803.32,-88589.02l1375,0" />
          <path d="M-84178.32,-87439.02l0,2180" />
          <path d="M-84238.32,-87439.02l0,2180" />
          <path d="M-84238.32,-85259.02l60,0" />
          <path d="M-84178.32,-87689.02l1495,0" />
          <path d="M-84178.32,-87389.02l1495,0" />
          <path d="M-84178.32,-87089.02l1495,0" />
          <path d="M-84178.32,-86789.02l1495,0" />
          <path d="M-110683.32,-85289.02l-1565,0" />
          <path d="M-112248.32,-85259.02l-60,0" />
          <path d="M-110683.32,-85589.02l-1565,0" />
          <path d="M-110683.32,-85889.02l-1565,0" />
          <path d="M-110683.32,-86189.02l-1565,0" />
          <path d="M-110683.32,-86489.02l-1565,0" />
          <path d="M-110683.32,-86789.02l-1565,0" />
          <path d="M-110683.32,-87089.02l-1565,0" />
          <path d="M-110683.32,-87389.02l-1565,0" />
          <path d="M-110683.32,-87689.02l-1375,0" />
          <path d="M-110683.32,-87989.02l-1375,0" />
          <path d="M-110683.32,-88289.02l-1375,0" />
          <path d="M-110683.32,-88589.02l-1375,0" />
          <path d="M-112308.32,-87439.02l0,2180" />
          <path d="M-112248.32,-87439.02l0,2180" />
          <path d="M-112308.32,-87689.02l-1495,0" />
          <path d="M-112308.32,-87389.02l-1495,0" />
          <path d="M-112308.32,-87089.02l-1495,0" />
          <path d="M-112308.32,-86789.02l-1495,0" />
          <path d="M-104553.32,-72059.02l0,200" />
          <path d="M-91933.32,-72059.02l0,200" />
          <path d="M-91933.32,-71859.02l-12620,0" />
          <path d="M-92183.32,-72159.02l-12120,0" />
          <path d="M-92183.32,-72459.02l-12120,0" />
          <path d="M-92183.32,-72759.02l-12120,0" />
          <path d="M-92183.32,-73059.02l-12120,0" />
          <circle r="150" cx="-100183.32" cy="-73309.02" />
          <circle r="150" cx="-96183.32" cy="-73309.02" />
          <circle r="150" cx="-93683.32" cy="-73309.02" />
          <circle r="150" cx="-102683.32" cy="-73309.02" />
          <path d="M-116603.32,-70509.02l900,0" />
          <path d="M-116603.32,-73659.02l900,0" />
          <path d="M-115703.32,-73659.02l0,3150" />
          <path d="M-116003.32,-73659.02l0,3150" />
          <path d="M-116303.32,-73659.02l0,3150" />
          <path d="M-116603.32,-73459.02l0,2750" />
          <path d="M-116903.32,-73459.02l0,2750" />
          <path d="M-66603.32,-82409.02l900,0" />
          <path d="M-65703.32,-82409.02l0,-2880" />
          <path d="M-65703.32,-85289.02l-900,0" />
          <path d="M-66003.32,-85289.02l0,2880" />
          <path d="M-66303.32,-85289.02l0,2880" />
          <path d="M-66603.32,-84909.02l0,2120" />
          <path d="M-66903.32,-84909.02l0,2120" />
          <path d="M-67803.32,-84724.02l0,1750" />
          <path d="M-67203.32,-84909.02l0,2120" />
          <path d="M-129883.32,-82409.02l-900,0" />
          <path d="M-130783.32,-82409.02l0,-2880" />
          <path d="M-130783.32,-85289.02l900,0" />
          <path d="M-130483.32,-85289.02l0,2880" />
          <path d="M-130183.32,-85289.02l0,2880" />
          <path d="M-129883.32,-84909.02l0,2120" />
          <path d="M-129583.32,-84909.02l0,2120" />
          <path d="M-128683.32,-84724.02l0,1750" />
          <path d="M-129283.32,-84933.05l0,2144.03" />
          <path d="M-79883.32,-73659.02l-900,0" />
          <path d="M-79883.32,-70509.02l-900,0" />
          <path d="M-80783.32,-73659.02l0,3150" />
          <path d="M-80483.32,-73659.02l0,3150" />
          <path d="M-80183.32,-73659.02l0,3150" />
          <path d="M-79883.32,-73459.02l0,2750" />
          <path d="M-79583.32,-73459.02l0,2750" />
          <path d="M-79283.32,-73459.02l0,2750" />
          <path d="M-117203.32,-73459.02l0,2750" />
          <path d="M-117803.32,-72959.02l0,1750" />
          <path d="M-78683.32,-72959.02l0,1750" />
          <path d="M-78923.32,-88224.23a40,40 0 0,0 40,-40m0,0l0,-199.57m0,0a40,40 0 0,0 -40,-40m0,0l-439.66,0a110,110 0 0,0 -110,110l0,59.57m0,0a110,110 0 0,0 110,110m0,0l439.66,0" />
          <path d="M-78913.32,-88264.23a10,10 0 0,1 -10,10" />
          <path d="M-78923.32,-88473.8a10,10 0 0,1 10,10" />
          <path d="M-78913.32,-88264.23l0,-199.57" />
          <circle r="20" cx="-79241.94" cy="-88364.02" />
          <path d="M-79352.98,-88224.23l0,-279.57" />
          <path d="M-79352.98,-88254.23l429.66,0" />
          <path d="M-78923.32,-88473.8l-429.66,0" />
          <path d="M-78923.32,-89124.23a40,40 0 0,0 40,-40m0,0l0,-199.57m0,0a40,40 0 0,0 -40,-40m0,0l-439.66,0a110,110 0 0,0 -110,110l0,59.57m0,0a110,110 0 0,0 110,110m0,0l439.66,0" />
          <path d="M-78913.32,-89164.23a10,10 0 0,1 -10,10" />
          <path d="M-78923.32,-89373.8a10,10 0 0,1 10,10" />
          <path d="M-78913.32,-89164.23l0,-199.57" />
          <circle r="20" cx="-79241.94" cy="-89264.02" />
          <path d="M-79352.98,-89124.23l0,-279.57" />
          <path d="M-79352.98,-89154.23l429.66,0" />
          <path d="M-78923.32,-89373.8l-429.66,0" />
          <circle r="50" cx="-78933.32" cy="-90099.02" />
          <path d="M-78964.56,-90059.97l-168.77,210.96" />
          <path d="M-78902.09,-90059.97l168.77,210.96" />
          <path d="M-79133.32,-90349.02l168.77,210.96" />
          <path d="M-78733.32,-90349.02l-168.77,210.96" />
          <path d="M-82072.74,-89889.74a80,80 0 0,0 0,-138.56m0,138.57l-142.14,92.61m-27.3,8.1a50,50 0 0,0 27.3,-8.11m-27.29,8.11l-61.15,0l0,-340l61.15,0m27.29,8.1a50,50 0 0,0 -27.3,-8.11m27.3,8.11l142.14,92.61" />
          <path d="M-82087.74,-90002.32l-124.12,-80.87" />
          <path d="M-82227.32,-89843.22l0,-231.59" />
          <path d="M-82087.74,-90002.32a50,50 0 0,1 0,86.6" />
          <circle r="20" cx="-82126.34" cy="-89959.02" />
          <circle r="17.666" cx="-82265.32" cy="-89959.02" />
          <path d="M-82211.86,-89834.84a10,10 0 0,1 -15.46,-8.38" />
          <path d="M-82211.86,-89834.84l124.12,-80.87" />
          <path d="M-82227.32,-90074.81a10,10 0 0,1 15.46,-8.38" />
          <path d="M-82072.74,-89089.74a80,80 0 0,0 0,-138.56m0,138.57l-142.14,92.61m-27.3,8.1a50,50 0 0,0 27.3,-8.11m-27.29,8.11l-61.15,0l0,-340l61.15,0m27.29,8.1a50,50 0 0,0 -27.3,-8.11m27.3,8.11l142.14,92.61" />
          <path d="M-82087.74,-89202.32l-124.12,-80.87" />
          <path d="M-82227.32,-89043.22l0,-231.59" />
          <path d="M-82087.74,-89202.32a50,50 0 0,1 0,86.6" />
          <circle r="20" cx="-82126.34" cy="-89159.02" />
          <circle r="17.666" cx="-82265.32" cy="-89159.02" />
          <path d="M-82211.86,-89034.84a10,10 0 0,1 -15.46,-8.38" />
          <path d="M-82211.86,-89034.84l124.12,-80.87" />
          <path d="M-82227.32,-89274.81a10,10 0 0,1 15.46,-8.38" />
          <path d="M-82072.74,-88289.74a80,80 0 0,0 0,-138.56m0,138.57l-142.14,92.61m-27.3,8.1a50,50 0 0,0 27.3,-8.11m-27.29,8.11l-61.15,0l0,-340l61.15,0m27.29,8.1a50,50 0 0,0 -27.3,-8.11m27.3,8.11l142.14,92.61" />
          <path d="M-82087.74,-88402.32l-124.12,-80.87" />
          <path d="M-82227.32,-88243.22l0,-231.59" />
          <path d="M-82087.74,-88402.32a50,50 0 0,1 0,86.6" />
          <circle r="20" cx="-82126.34" cy="-88359.02" />
          <circle r="17.666" cx="-82265.32" cy="-88359.02" />
          <path d="M-82211.86,-88234.84a10,10 0 0,1 -15.46,-8.38" />
          <path d="M-82211.86,-88234.84l124.12,-80.87" />
          <path d="M-82227.32,-88474.81a10,10 0 0,1 15.46,-8.38" />
          <path d="M-82072.74,-87489.74a80,80 0 0,0 0,-138.56m0,138.57l-142.14,92.61m-27.3,8.1a50,50 0 0,0 27.3,-8.11m-27.29,8.11l-61.15,0l0,-340l61.15,0m27.29,8.1a50,50 0 0,0 -27.3,-8.11m27.3,8.11l142.14,92.61" />
          <path d="M-82087.74,-87602.32l-124.12,-80.87" />
          <path d="M-82227.32,-87443.22l0,-231.59" />
          <path d="M-82087.74,-87602.32a50,50 0 0,1 0,86.6" />
          <circle r="20" cx="-82126.34" cy="-87559.02" />
          <circle r="17.666" cx="-82265.32" cy="-87559.02" />
          <path d="M-82211.86,-87434.84a10,10 0 0,1 -15.46,-8.38" />
          <path d="M-82211.86,-87434.84l124.12,-80.87" />
          <path d="M-82227.32,-87674.81a10,10 0 0,1 15.46,-8.38" />
          <path d="M-82108.85,-86394.68a314.4,314.4 0 0,0 0,-628.77m0,0l-194.48,0l0,628.77l194.48,0" />
          <circle r="18.675" cx="-82256.86" cy="-86798.54" />
          <circle r="23.675" cx="-82256.86" cy="-86798.54" />
          <circle r="23.675" cx="-82256.86" cy="-86619.49" />
          <circle r="18.675" cx="-82256.86" cy="-86619.49" />
          <path d="M-82293.67,-86687.52l39.86,6.39" />
          <path d="M-82275.18,-86730.11l0,42.1" />
          <path d="M-82293.67,-86730.6l0,43.16" />
          <path d="M-82293.67,-86730.6l39.86,-6.39" />
          <path d="M-82142.63,-86726.59l0,35.06" />
          <path d="M-82155.63,-86726.94l0,35.75" />
          <path d="M-82253.81,-86681.14l111.18,-10.39" />
          <path d="M-82293.67,-86687.52l151.04,-4.01" />
          <path d="M-82293.67,-86730.6l151.04,4.01" />
          <path d="M-82253.81,-86736.98l111.18,10.39" />
          <circle r="20.782" cx="-82045.16" cy="-86709.06" />
          <circle r="15.782" cx="-82045.16" cy="-86709.06" />
          <path d="M-82204.49,-86732.37l0.11,-1.37l0.11,-1.37l0.12,-1.37l0.12,-1.36l0.13,-1.36l0.14,-1.36l0.14,-1.36l0.15,-1.36l0.16,-1.36l0.16,-1.36l0.17,-1.36l0.17,-1.35l0.18,-1.35l0.19,-1.35l0.19,-1.35l0.2,-1.35l0.2,-1.35l0.21,-1.34l0.22,-1.34l0.22,-1.34l0.23,-1.34l0.23,-1.34l0.24,-1.34l0.25,-1.33l0.25,-1.33l0.26,-1.33l0.26,-1.33l0.27,-1.32l0.27,-1.32l0.28,-1.32l0.29,-1.32l0.29,-1.31l0.3,-1.31l0.3,-1.31l0.31,-1.31l0.32,-1.3l0.32,-1.3l0.33,-1.3l0.33,-1.3l0.34,-1.29l0.34,-1.29l0.35,-1.29l0.36,-1.28l0.36,-1.28l0.37,-1.28l0.37,-1.28l0.38,-1.27l0.38,-1.27l0.39,-1.27l0.4,-1.26l0.4,-1.26l0.41,-1.26l0.41,-1.25l0.42,-1.25l0.42,-1.25l0.43,-1.24l0.43,-1.24l0.44,-1.23l0.44,-1.23l0.45,-1.23l0.46,-1.22l0.46,-1.22l0.47,-1.22l0.47,-1.21l0.48,-1.21l0.48,-1.2l0.49,-1.2l0.49,-1.2l0.5,-1.19l0.5,-1.19l0.51,-1.18l0.51,-1.18l0.52,-1.17l0.52,-1.17l0.53,-1.16l0.53,-1.16l0.54,-1.16l0.54,-1.15l0.55,-1.15l0.55,-1.14l0.56,-1.14l0.56,-1.13l0.57,-1.13l0.57,-1.12l0.58,-1.12l0.58,-1.11l0.59,-1.11l0.59,-1.1l0.6,-1.1l0.6,-1.09l0.61,-1.09l0.61,-1.08l0.62,-1.08l0.62,-1.07l0.62,-1.07l0.63,-1.06l0.63,-1.06l0.64,-1.05l0.64,-1.05l0.65,-1.04l0.65,-1.04l0.66,-1.03l0.66,-1.02l0.66,-1.02l0.67,-1.01l0.67,-1.01l0.68,-1l0.68,-1l0.68,-0.99l0.69,-0.98l0.69,-0.98l0.7,-0.97l0.7,-0.97l0.71,-0.96l0.71,-0.96l0.71,-0.95l0.72,-0.94l0.72,-0.94l0.72,-0.93l0.73,-0.93l0.73,-0.92l0.74,-0.91l0.74,-0.91l0.74,-0.9l0.75,-0.89l0.75,-0.89l0.75,-0.88l0.76,-0.88l0.76,-0.87l0.76,-0.86l0.77,-0.86l0.77,-0.85l0.78,-0.84l0.78,-0.84l0.78,-0.83l0.78,-0.82l0.79,-0.82l0.79,-0.81l0.79,-0.8l0.8,-0.8l0.8,-0.79l0.8,-0.78l0.81,-0.78l0.81,-0.77l0.81,-0.76l0.82,-0.76l0.82,-0.75l0.82,-0.74l0.82,-0.74l0.83,-0.73l0.83,-0.72l0.83,-0.72l0.84,-0.71l0.84,-0.7l0.84,-0.7l0.84,-0.69l0.85,-0.68l0.85,-0.67l0.85,-0.67l0.85,-0.66l0.86,-0.65l0.86,-0.65l0.86,-0.64l0.86,-0.63l0.87,-0.63l0.87,-0.62l0.87,-0.61l0.87,-0.6l0.87,-0.6l0.88,-0.59l0.88,-0.58l0.88,-0.58l0.88,-0.57l0.88,-0.56l0.89,-0.55l0.89,-0.55l0.89,-0.54l0.89,-0.53l0.89,-0.52l0.9,-0.52l0.9,-0.51l0.9,-0.5l0.9,-0.5l0.9,-0.49l0.9,-0.48l0.91,-0.47l0.91,-0.47l0.91,-0.46l0.91,-0.45l0.91,-0.44l0.91,-0.44l0.92,-0.43l0.92,-0.42l0.92,-0.41l0.92,-0.41l0.92,-0.4l0.92,-0.39l0.92,-0.39l0.92,-0.38l0.93,-0.37l0.93,-0.36l0.93,-0.36l0.93,-0.35l0.93,-0.34l0.93,-0.33l0.93,-0.33l0.93,-0.32l0.93,-0.31l0.93,-0.3l0.94,-0.3l0.94,-0.29l0.94,-0.28l0.94,-0.27l0.94,-0.27l0.94,-0.26l0.94,-0.25l0.94,-0.24l0.94,-0.24l0.94,-0.23l0.94,-0.22l0.94,-0.21l0.95,-0.21l0.95,-0.2l0.95,-0.19l0.95,-0.19l0.95,-0.18l0.95,-0.17l0.95,-0.16l0.95,-0.16l0.95,-0.15l0.95,-0.14l0.95,-0.13l0.95,-0.13l0.95,-0.12l0.95,-0.11l0.95,-0.1l0.95,-0.1l0.95,-0.09l0.95,-0.08l0.95,-0.07l0.95,-0.07l0.95,-0.06l0.95,-0.05l0.95,-0.04l0.95,-0.04l0.95,-0.03l0.95,-0.02l0.95,-0.01l0.95,-0.01l0.95,0l0.95,0.01l0.95,0.01l0.95,0.02l0.95,0.03l0.95,0.04l0.95,0.04l0.95,0.05l0.95,0.06l0.95,0.07l0.95,0.07l0.95,0.08l0.95,0.09l0.95,0.1l0.95,0.1l0.95,0.11l0.95,0.12l0.95,0.13l0.95,0.13l0.95,0.14l0.95,0.15l0.95,0.16l0.95,0.16l0.95,0.17l0.95,0.18l0.95,0.19l0.95,0.19l0.95,0.2l0.94,0.21l0.94,0.22l0.94,0.22l0.94,0.23l0.94,0.24l0.94,0.24l0.94,0.25l0.94,0.26l0.94,0.27l0.94,0.27l0.94,0.28l0.94,0.29l0.94,0.3l0.93,0.3l0.93,0.31l0.93,0.32l0.93,0.33l0.93,0.33l0.93,0.34l0.93,0.35l0.93,0.36l0.93,0.36l0.93,0.37l0.92,0.38l0.92,0.39l0.92,0.39l0.92,0.4l0.92,0.41l0.92,0.42l0.92,0.42l0.91,0.43l0.91,0.44l0.91,0.44l0.91,0.45l0.91,0.46l0.91,0.47l0.91,0.47l0.9,0.48l0.9,0.49l0.9,0.5l0.9,0.5l0.9,0.51l0.9,0.52l0.89,0.52l0.89,0.53l0.89,0.54l0.89,0.55l0.89,0.55l0.88,0.56l0.88,0.57l0.88,0.58l0.88,0.58l0.88,0.59l0.87,0.6l0.87,0.6l0.87,0.61l0.87,0.62l0.87,0.63l0.86,0.63l0.86,0.64l0.86,0.65l0.86,0.65l0.85,0.66l0.85,0.67l0.85,0.67l0.85,0.68l0.84,0.69l0.84,0.7l0.84,0.7l0.84,0.71l0.83,0.72l0.83,0.72l0.83,0.73l0.82,0.74l0.82,0.74l0.82,0.75l0.82,0.76l0.81,0.76l0.81,0.77l0.81,0.78l0.8,0.78l0.8,0.79l0.8,0.8l0.79,0.8l0.79,0.81l0.79,0.82l0.78,0.82l0.78,0.83l0.78,0.84l0.77,0.84l0.77,0.85l0.77,0.86l0.76,0.86l0.76,0.87l0.76,0.88l0.75,0.88l0.75,0.89l0.75,0.89l0.74,0.9l0.74,0.91l0.74,0.91l0.73,0.92l0.73,0.93l0.72,0.93l0.72,0.94l0.72,0.94l0.71,0.95l0.71,0.96l0.71,0.96l0.7,0.97l0.7,0.97l0.69,0.98l0.69,0.98l0.68,0.99l0.68,1l0.68,1l0.67,1.01l0.67,1.01l0.66,1.02l0.66,1.02l0.66,1.03l0.65,1.04l0.65,1.04l0.64,1.05l0.64,1.05l0.63,1.06l0.63,1.06l0.62,1.07l0.62,1.07l0.61,1.08l0.61,1.08l0.61,1.09l0.6,1.09l0.6,1.1l0.59,1.1l0.59,1.11l0.58,1.11l0.58,1.12l0.57,1.12l0.57,1.13l0.56,1.13l0.56,1.14l0.55,1.14l0.55,1.15l0.54,1.15l0.54,1.16l0.53,1.16l0.53,1.17l0.52,1.17l0.52,1.17l0.51,1.18l0.51,1.18l0.5,1.19l0.5,1.19l0.49,1.2l0.49,1.2l0.48,1.2l0.48,1.21l0.47,1.21l0.47,1.22l0.46,1.22l0.45,1.22l0.45,1.23l0.44,1.23l0.44,1.23l0.43,1.24l0.43,1.24l0.42,1.25l0.42,1.25l0.41,1.25l0.41,1.26l0.4,1.26l0.39,1.26l0.39,1.27l0.38,1.27l0.38,1.27l0.37,1.28l0.37,1.28l0.36,1.28l0.36,1.28l0.35,1.29l0.34,1.29l0.34,1.29l0.33,1.3l0.33,1.3l0.32,1.3l0.32,1.3l0.31,1.31l0.3,1.31l0.3,1.31l0.29,1.31l0.29,1.32l0.28,1.32l0.27,1.32l0.27,1.32l0.26,1.33l0.26,1.33l0.25,1.33l0.25,1.33l0.24,1.34l0.23,1.34l0.23,1.34l0.22,1.34l0.22,1.34l0.21,1.34l0.2,1.35l0.2,1.35l0.19,1.35l0.19,1.35l0.18,1.35l0.17,1.35l0.17,1.36l0.16,1.36l0.15,1.36l0.15,1.36l0.14,1.36l0.14,1.36l0.13,1.36l0.12,1.36l0.12,1.37l0.11,1.37l0.11,1.37l0.1,1.37l0.09,1.37l0.09,1.37l0.08,1.37l0.08,1.37l0.07,1.37l0.06,1.37l0.06,1.37l0.05,1.37l0.04,1.37l0.04,1.37l0.03,1.37l0.03,1.37l0.02,1.37l0.01,1.37l0.01,1.37l0,1.38l0,1.38l-0.01,1.37l-0.02,1.37l-0.02,1.37l-0.03,1.37l-0.03,1.37l-0.04,1.37l-0.05,1.37l-0.05,1.37l-0.06,1.37l-0.07,1.37l-0.07,1.37l-0.08,1.37l-0.08,1.37l-0.09,1.37l-0.1,1.37l-0.1,1.37l-0.11,1.37l-0.11,1.37l-0.12,1.36l-0.13,1.36l-0.13,1.36l-0.14,1.36l-0.15,1.36l-0.15,1.36l-0.16,1.36l-0.16,1.36l-0.17,1.36l-0.18,1.35l-0.18,1.35l-0.19,1.35l-0.19,1.35l-0.2,1.35l-0.21,1.35l-0.21,1.34l-0.22,1.34l-0.22,1.34l-0.23,1.34l-0.24,1.34l-0.24,1.33l-0.25,1.33l-0.25,1.33l-0.26,1.33l-0.27,1.33l-0.27,1.32l-0.28,1.32l-0.28,1.32l-0.29,1.32l-0.29,1.31l-0.3,1.31l-0.31,1.31l-0.31,1.31l-0.32,1.3l-0.32,1.3l-0.33,1.3l-0.33,1.3l-0.34,1.29l-0.35,1.29l-0.35,1.29l-0.36,1.28l-0.36,1.28l-0.37,1.28l-0.37,1.27l-0.38,1.27l-0.39,1.27l-0.39,1.26l-0.4,1.26l-0.4,1.26l-0.41,1.25l-0.41,1.25l-0.42,1.25l-0.42,1.24l-0.43,1.24l-0.44,1.24l-0.44,1.23l-0.45,1.23l-0.45,1.23l-0.46,1.22l-0.46,1.22l-0.47,1.21l-0.47,1.21l-0.48,1.21l-0.48,1.2l-0.49,1.2l-0.49,1.19l-0.5,1.19l-0.5,1.19l-0.51,1.18l-0.51,1.18l-0.52,1.17l-0.52,1.17l-0.53,1.16l-0.53,1.16l-0.54,1.15l-0.54,1.15l-0.55,1.15l-0.55,1.14l-0.56,1.14l-0.56,1.13l-0.57,1.13l-0.57,1.12l-0.58,1.12l-0.58,1.11l-0.59,1.11l-0.59,1.1l-0.6,1.1l-0.6,1.09l-0.61,1.09l-0.61,1.08l-0.62,1.08l-0.62,1.07l-0.63,1.07l-0.63,1.06l-0.63,1.06l-0.64,1.05l-0.64,1.04l-0.65,1.04l-0.65,1.03l-0.66,1.03l-0.66,1.02l-0.67,1.02l-0.67,1.01l-0.67,1.01l-0.68,1l-0.68,0.99l-0.69,0.99l-0.69,0.98l-0.69,0.98l-0.7,0.97l-0.7,0.97l-0.71,0.96l-0.71,0.95l-0.71,0.95l-0.72,0.94l-0.72,0.94l-0.73,0.93l-0.73,0.92l-0.73,0.92l-0.74,0.91l-0.74,0.9l-0.74,0.9l-0.75,0.89l-0.75,0.89l-0.76,0.88l-0.76,0.87l-0.76,0.87l-0.77,0.86l-0.77,0.85l-0.77,0.85l-0.78,0.84l-0.78,0.83l-0.78,0.83l-0.79,0.82l-0.79,0.81l-0.79,0.81l-0.8,0.8l-0.8,0.8l-0.8,0.79l-0.81,0.78l-0.81,0.78l-0.81,0.77l-0.81,0.76l-0.82,0.75l-0.82,0.75l-0.82,0.74l-0.83,0.73l-0.83,0.73l-0.83,0.72l-0.83,0.71l-0.84,0.71l-0.84,0.7l-0.84,0.69l-0.84,0.69l-0.85,0.68l-0.85,0.67l-0.85,0.67l-0.85,0.66l-0.86,0.65l-0.86,0.64l-0.86,0.64l-0.86,0.63l-0.87,0.62l-0.87,0.62l-0.87,0.61l-0.87,0.6l-0.87,0.59l-0.88,0.59l-0.88,0.58l-0.88,0.57l-0.88,0.57l-0.89,0.56l-0.89,0.55l-0.89,0.54l-0.89,0.54l-0.89,0.53l-0.89,0.52l-0.9,0.51l-0.9,0.51l-0.9,0.5l-0.9,0.49l-0.9,0.49l-0.9,0.48l-0.91,0.47l-0.91,0.46l-0.91,0.46l-0.91,0.45l-0.91,0.44l-0.91,0.43l-0.92,0.43l-0.92,0.42l-0.92,0.41l-0.92,0.4l-0.92,0.4l-0.92,0.39l-0.92,0.38l-0.92,0.38l-0.93,0.37l-0.93,0.36l-0.93,0.35l-0.93,0.35l-0.93,0.34l-0.93,0.33l-0.93,0.32l-0.93,0.32l-0.93,0.31l-0.94,0.3l-0.94,0.29l-0.94,0.29l-0.94,0.28l-0.94,0.27l-0.94,0.26l-0.94,0.26l-0.94,0.25l-0.94,0.24l-0.94,0.23l-0.94,0.23l-0.94,0.22l-0.94,0.21l-0.95,0.2l-0.95,0.2l-0.95,0.19l-0.95,0.18l-0.95,0.18l-0.95,0.17l-0.95,0.16l-0.95,0.15l-0.95,0.15l-0.95,0.14l-0.95,0.13l-0.95,0.12l-0.95,0.12l-0.95,0.11l-0.95,0.1l-0.95,0.09l-0.95,0.09l-0.95,0.08l-0.95,0.07l-0.95,0.06l-0.95,0.06l-0.95,0.05l-0.95,0.04l-0.95,0.03l-0.95,0.03l-0.95,0.02l-0.95,0.01l-0.95,0l-0.95,0l-0.95,-0.01l-0.95,-0.02l-0.95,-0.02l-0.95,-0.03l-0.95,-0.04l-0.95,-0.05l-0.95,-0.05l-0.95,-0.06l-0.95,-0.07l-0.95,-0.08l-0.95,-0.08l-0.95,-0.09l-0.95,-0.1l-0.95,-0.11l-0.95,-0.11l-0.95,-0.12l-0.95,-0.13l-0.95,-0.14l-0.95,-0.14l-0.95,-0.15l-0.95,-0.16l-0.95,-0.17l-0.95,-0.17l-0.95,-0.18l-0.95,-0.19l-0.95,-0.2l-0.95,-0.2l-0.94,-0.21l-0.94,-0.22l-0.94,-0.23l-0.94,-0.23l-0.94,-0.24l-0.94,-0.25l-0.94,-0.25l-0.94,-0.26l-0.94,-0.27l-0.94,-0.28l-0.94,-0.28l-0.94,-0.29l-0.94,-0.3l-0.93,-0.31l-0.93,-0.31l-0.93,-0.32l-0.93,-0.33l-0.93,-0.34l-0.93,-0.34l-0.93,-0.35l-0.93,-0.36l-0.93,-0.37l-0.92,-0.37l-0.92,-0.38l-0.92,-0.39l-0.92,-0.4l-0.92,-0.4l-0.92,-0.41l-0.92,-0.42l-0.92,-0.42l-0.91,-0.43l-0.91,-0.44l-0.91,-0.45l-0.91,-0.45l-0.91,-0.46l-0.91,-0.47l-0.91,-0.48l-0.9,-0.48l-0.9,-0.49l-0.9,-0.5l-0.9,-0.51l-0.9,-0.51l-0.9,-0.52l-0.89,-0.53l-0.89,-0.53l-0.89,-0.54l-0.89,-0.55l-0.89,-0.56l-0.88,-0.56l-0.88,-0.57l-0.88,-0.58l-0.88,-0.59l-0.88,-0.59l-0.87,-0.6l-0.87,-0.61l-0.87,-0.61l-0.87,-0.62l-0.86,-0.63l-0.86,-0.63l-0.86,-0.64l-0.86,-0.65l-0.86,-0.66l-0.85,-0.66l-0.85,-0.67l-0.85,-0.68l-0.85,-0.68l-0.84,-0.69l-0.84,-0.7l-0.84,-0.71l-0.83,-0.71l-0.83,-0.72l-0.83,-0.73l-0.83,-0.73l-0.82,-0.74l-0.82,-0.75l-0.82,-0.75l-0.81,-0.76l-0.81,-0.77l-0.81,-0.77l-0.81,-0.78l-0.8,-0.79l-0.8,-0.79l-0.8,-0.8l-0.79,-0.81l-0.79,-0.81l-0.79,-0.82l-0.78,-0.83l-0.78,-0.83l-0.78,-0.84l-0.77,-0.85l-0.77,-0.85l-0.77,-0.86l-0.76,-0.87l-0.76,-0.87l-0.76,-0.88l-0.75,-0.88l-0.75,-0.89l-0.75,-0.9l-0.74,-0.9l-0.74,-0.91l-0.73,-0.92l-0.73,-0.92l-0.73,-0.93l-0.72,-0.93l-0.72,-0.94l-0.72,-0.95l-0.71,-0.95l-0.71,-0.96l-0.7,-0.96l-0.7,-0.97l-0.7,-0.98l-0.69,-0.98l-0.69,-0.99l-0.68,-0.99l-0.68,-1l-0.68,-1l-0.67,-1.01l-0.67,-1.02l-0.66,-1.02l-0.66,-1.03l-0.65,-1.03l-0.65,-1.04l-0.64,-1.04l-0.64,-1.05l-0.64,-1.05l-0.63,-1.06l-0.63,-1.06l-0.62,-1.07l-0.62,-1.07l-0.61,-1.08l-0.61,-1.09l-0.6,-1.09l-0.6,-1.1l-0.59,-1.1l-0.59,-1.11l-0.59,-1.11l-0.58,-1.12l-0.58,-1.12l-0.57,-1.13l-0.57,-1.13l-0.56,-1.13l-0.56,-1.14l-0.55,-1.14l-0.55,-1.15l-0.54,-1.15l-0.54,-1.16l-0.53,-1.16l-0.53,-1.17l-0.52,-1.17l-0.52,-1.18l-0.51,-1.18l-0.51,-1.18l-0.5,-1.19l-0.5,-1.19l-0.49,-1.2l-0.48,-1.2l-0.48,-1.2l-0.47,-1.21l-0.47,-1.21l-0.46,-1.22l-0.46,-1.22l-0.45,-1.22l-0.45,-1.23l-0.44,-1.23l-0.44,-1.24l-0.43,-1.24l-0.43,-1.24l-0.42,-1.25l-0.42,-1.25l-0.41,-1.25l-0.4,-1.26l-0.4,-1.26l-0.39,-1.26l-0.39,-1.27l-0.38,-1.27l-0.38,-1.27l-0.37,-1.28l-0.36,-1.28l-0.36,-1.28l-0.35,-1.29l-0.35,-1.29l-0.34,-1.29l-0.34,-1.29l-0.33,-1.3l-0.32,-1.3l-0.32,-1.3l-0.31,-1.31l-0.31,-1.31l-0.3,-1.31l-0.3,-1.31l-0.29,-1.32l-0.28,-1.32l-0.28,-1.32l-0.27,-1.32l-0.27,-1.33l-0.26,-1.33l-0.13,-0.67l-0.13,-0.67l-0.13,-0.67l-0.12,-0.68l-0.12,-0.68l-0.12,-0.69l-0.06,-0.35l-0.06,-0.35l-0.06,-0.35l-0.06,-0.36l-0.06,-0.36l-0.06,-0.36l-0.06,-0.36l-0.06,-0.37l-0.06,-0.37l-0.06,-0.37l-0.06,-0.38l-0.06,-0.38l-0.06,-0.39l-0.06,-0.39l-0.06,-0.39l-0.06,-0.4l-0.06,-0.4l-0.06,-0.41l-0.06,-0.41l-0.06,-0.42l-0.06,-0.42l-0.06,-0.43l-0.06,-0.43l-0.06,-0.44l-0.06,-0.45l-0.06,-0.45l-0.06,-0.46l-0.06,-0.46l-0.06,-0.47l-0.06,-0.48l-0.06,-0.48l-0.06,-0.49l-0.06,-0.5l-0.06,-0.5l-0.06,-0.51l-0.06,-0.52l-0.06,-0.53l-0.06,-0.53l-0.03,-0.27l-0.03,-0.27l-0.03,-0.27l-0.03,-0.28l-0.03,-0.28l-0.03,-0.28l-0.03,-0.28l-0.03,-0.28l-0.03,-0.29l-0.03,-0.29l-0.03,-0.29l-0.03,-0.29l-0.03,-0.3l-0.03,-0.3l-0.03,-0.3l-0.03,-0.3l-0.03,-0.3l-0.03,-0.31l-0.03,-0.31l-0.03,-0.31l-0.03,-0.31l-0.03,-0.32l-0.03,-0.32l-0.03,-0.32l-0.04,-0.32l-0.04,-0.33l-0.04,-0.33l-0.04,-0.33l-0.04,-0.33l-0.04,-0.34l-0.04,-0.34l-0.04,-0.34l-0.04,-0.34l-0.04,-0.35l-0.04,-0.35l-0.04,-0.35l-0.04,-0.35l-0.04,-0.36l-0.04,-0.36l-0.04,-0.36l-0.04,-0.37l-0.04,-0.37l-0.04,-0.37l-0.04,-0.37" class="cnc-0" />
          <path d="M-82210.74,-86807.18a326.47,326.47 0 0,0 -14.06,72.9m54.26,-150.77a255.65,255.65 0 0,0 -40.2,77.87m104.22,-132.98a201.65,201.65 0 0,0 -64.01,55.12m133.32,-72.82a144.6,144.6 0 0,0 -69.31,17.69m138.62,0a144.6,144.6 0 0,0 -69.31,-17.69m133.33,72.82a201.65,201.65 0 0,0 -64.01,-55.12m104.21,132.98a255.65,255.65 0 0,0 -40.2,-77.87m55.22,175.8a326.74,326.74 0 0,0 -15.02,-97.92m0,195.85a326.74,326.74 0 0,0 15.02,-97.92m-55.22,175.79a255.65,255.65 0 0,0 40.2,-77.87m-104.21,132.99a201.65,201.65 0 0,0 64.01,-55.12m-133.33,72.82a144.6,144.6 0 0,0 69.31,-17.69m-138.62,0a144.6,144.6 0 0,0 69.31,17.69m-133.32,-72.82a201.65,201.65 0 0,0 64.01,55.12m-104.22,-132.99a255.65,255.65 0 0,0 40.2,77.87m-54.24,-150.39a326.46,326.46 0 0,0 14.03,72.52" class="cnc-0" />
          <path d="M-78923.32,-87324.23a40,40 0 0,0 40,-40m0,0l0,-199.57m0,0a40,40 0 0,0 -40,-40m0,0l-439.66,0a110,110 0 0,0 -110,110l0,59.57m0,0a110,110 0 0,0 110,110m0,0l439.66,0" />
          <circle r="20" cx="-79241.94" cy="-87464.02" />
          <path d="M-79352.98,-87324.23l0,-279.57" />
          <path d="M-79352.98,-87354.23l429.66,0" />
          <path d="M-78923.32,-87573.8l-429.66,0" />
          <path d="M-102093.32,-80009.02l-1210,0l0,-200l1010,0" />
          <path d="M-102093.32,-80209.02l0,200" />
          <path d="M-100593.32,-80209.02l100,0l0,200l-100,0" />
          <path d="M-100593.32,-80209.02l0,200" />
          <path d="M-102093.32,-80209.02l0,-400" />
          <path d="M-102293.32,-80609.02l0,400" />
          <path d="M-102293.32,-80609.02l200,0" />
          <path d="M-94393.32,-80009.02l1210,0l0,-200l-1210,0" />
          <path d="M-95893.32,-80209.02l-100,0l0,200l100,0" />
          <path d="M-94393.32,-80209.02l0,200" />
          <path d="M-95893.32,-80209.02l0,200" />
          <path d="M-118118.32,-84909.02l0,200l250,0l0,-200" />
          <path d="M-118118.32,-82789.02l0,-200l250,0l0,200" />
          <path d="M-110683.32,-84909.02l0,200l250,0l0,-200" />
          <path d="M-110683.32,-82789.02l0,-200l250,0l0,200" />
          <path d="M-87433.32,-84909.02l0,200l250,0l0,-200" />
          <path d="M-87433.32,-82789.02l0,-200l250,0l0,200" />
          <path d="M-81303.32,-84909.02l0,200l250,0l0,-200" />
          <path d="M-81303.32,-82789.02l0,-200l250,0l0,200" />
          <path d="M-67803.32,-82599.02l0,-375" />
          <path d="M-67803.32,-82974.02l-380,0" />
          <path d="M-68183.32,-82974.02l0,185" />
          <path d="M-68183.32,-84909.02l0,185" />
          <path d="M-68183.32,-84724.02l380,0" />
          <path d="M-67803.32,-84724.02l0,-375" />
          <path d="M-67803.32,-92789.02l-1640,0" />
          <path d="M-69443.32,-92789.02l0,380" />
          <path d="M-69443.32,-92409.02l1260,0" />
          <path d="M-78303.32,-92409.02l1260,0" />
          <path d="M-77043.32,-92409.02l0,-380" />
          <path d="M-77043.32,-92789.02l-1640,0" />
          <path d="M-71243.32,-92789.02l-1100,0" />
          <path d="M-72343.32,-92789.02l0,380" />
          <path d="M-72343.32,-92409.02l1100,0" />
          <path d="M-71243.32,-92409.02l0,-380" />
          <path d="M-74143.32,-92789.02l-1100,0" />
          <path d="M-75243.32,-92789.02l0,380" />
          <path d="M-75243.32,-92409.02l1100,0" />
          <path d="M-74143.32,-92409.02l0,-380" />
          <path d="M-78303.32,-92409.02l0,1810" />
          <path d="M-78683.32,-92789.02l0,2000" />
          <path d="M-78683.32,-67409.02l1450,0" />
          <path d="M-77233.32,-67409.02l0,-380" />
          <path d="M-77233.32,-67789.02l-1070,0" />
          <path d="M-68183.32,-67789.02l-1450,0" />
          <path d="M-69633.32,-67789.02l0,380" />
          <path d="M-69633.32,-67409.02l1830,0" />
          <path d="M-75433.32,-67409.02l1100,0" />
          <path d="M-74333.32,-67409.02l0,-380" />
          <path d="M-74333.32,-67789.02l-1100,0" />
          <path d="M-75433.32,-67789.02l0,380" />
          <path d="M-72533.32,-67409.02l1100,0" />
          <path d="M-71433.32,-67409.02l0,-380" />
          <path d="M-71433.32,-67789.02l-1100,0" />
          <path d="M-72533.32,-67789.02l0,380" />
          <path d="M-67803.32,-67409.02l0,-3690" />
          <path d="M-67803.32,-71099.02l-380,0" />
          <path d="M-68183.32,-71099.02l0,3310" />
          <path d="M-68183.32,-82409.02l0,3310" />
          <path d="M-68183.32,-79099.02l380,0" />
          <path d="M-67803.32,-79099.02l0,-3500" />
          <path d="M-67803.32,-73099.02l0,-1000" />
          <path d="M-67803.32,-74099.02l-380,0" />
          <path d="M-68183.32,-74099.02l0,1000" />
          <path d="M-68183.32,-73099.02l380,0" />
          <path d="M-67803.32,-76099.02l0,-1000" />
          <path d="M-67803.32,-77099.02l-380,0" />
          <path d="M-68183.32,-77099.02l0,1000" />
          <path d="M-68183.32,-76099.02l380,0" />
          <path d="M-68183.32,-82789.02l-7160,0" />
          <path d="M-75343.32,-82789.02l0,380" />
          <path d="M-75343.32,-82409.02l7160,0" />
          <path d="M-78303.32,-82409.02l1410,0" />
          <path d="M-76893.32,-82409.02l0,-380" />
          <path d="M-76893.32,-82789.02l-1600,0" />
          <path d="M-78303.32,-82409.02l0,6810" />
          <path d="M-78683.32,-82409.02l0,6620" />
          <path d="M-67803.32,-85099.02l0,-2690" />
          <path d="M-67803.32,-87789.02l-380,0" />
          <path d="M-68183.32,-87789.02l0,2500" />
          <path d="M-68183.32,-92409.02l0,2620" />
          <path d="M-68183.32,-89789.02l380,0" />
          <path d="M-67803.32,-89789.02l0,-3000" />
          <path d="M-78683.32,-90789.02l-1060,0" />
          <path d="M-79743.32,-90789.02l0,380" />
          <path d="M-79743.32,-90409.02l1060,0" />
          <path d="M-82303.32,-90409.02l560,0" />
          <path d="M-81743.32,-90409.02l0,-380" />
          <path d="M-81743.32,-90789.02l-750,0" />
          <path d="M-78303.32,-90599.02l0,5310" />
          <path d="M-78683.32,-90409.02l0,5120" />
          <path d="M-82683.32,-84909.02l0,-5500" />
          <path d="M-82303.32,-85289.02l0,-5120" />
          <path d="M-78493.32,-84909.02l1600,0" />
          <path d="M-76893.32,-84909.02l0,-380" />
          <path d="M-76893.32,-85289.02l-1410,0" />
          <path d="M-68183.32,-85289.02l-7160,0" />
          <path d="M-75343.32,-85289.02l0,380" />
          <path d="M-75343.32,-84909.02l7160,0" />
          <use xlink:href="#$TCHSYS$WIN2D_2000x380" x="-80743.32" y="-90599.02" transform="rotate(-180,-80743.32,-90599.02)">.<g class="blkclass0"><text transform="translate(-480,-316.25)" font-size="386.75">C2024</text></g></use>
          <use xlink:href="#$DorLib2D$00000003" x="-99.104" y="-106.374" transform="scale(800,800)" stroke-width="0.0001%">.<g class="blkclass0"><text transform="translate(-490,-195.54)" font-size="386.75">M0827</text></g></use>
          <path d="M-86183.32,-85289.02l-2120,0" />
          <path d="M-88303.32,-85289.02l0,380" />
          <path d="M-88303.32,-84909.02l2500,0" />
          <path d="M-89493.32,-84909.02l390,0" />
          <path d="M-89103.32,-84909.02l0,-380" />
          <path d="M-89103.32,-85289.02l-200,0" />
          <use xlink:href="#$DorLib2D$00000003" x="-110.879" y="-106.374" transform="scale(800,800) scale(1,-1) translate(0,212.75) rotate(-180,-110.88,-106.37)" stroke-width="0.0001%">.<g class="blkclass0"><text transform="translate(-441.58,385.56)" font-size="386.75">M0827</text></g></use>
          <use xlink:href="#$TCHSYS$WIN2D_2000x380" x="-87743.32" y="-90599.02" transform="scale(1,-1) translate(0,181198.04)">.<g class="blkclass0"><text transform="translate(-480,-316.25)" font-size="386.75">C2024</text></g></use>
          <path d="M-86183.32,-85289.02l0,-3650" />
          <path d="M-85803.32,-84909.02l0,-3905" />
          <path d="M-85803.32,-90409.02l685,0" />
          <path d="M-85118.32,-90409.02l0,-380" />
          <path d="M-85118.32,-90789.02l-875,0" />
          <path d="M-82493.32,-90789.02l-875,0" />
          <path d="M-83368.32,-90789.02l0,380" />
          <path d="M-83368.32,-90409.02l685,0" />
          <use xlink:href="#$DorLib2D$00000002" x="-48.139" y="-51.771" transform="scale(1750,1750)" stroke-width="0.0001%">.<g class="blkclass0"><text transform="translate(-452.57,-138.11)" font-size="386.75">WM1727</text></g></use>
          <use xlink:href="#$TCHSYS$WIN2D_1800x380" x="-76143.32" y="-92599.02" transform="rotate(-180,-76143.32,-92599.02)">.<g class="blkclass0"><text transform="translate(-460,-316.25)" font-size="386.75">C1824</text></g></use>
          <use xlink:href="#$TCHSYS$WIN2D_1800x380" x="-73243.32" y="-92599.02" transform="rotate(-180,-73243.32,-92599.02)">.<g class="blkclass0"><text transform="translate(-460,-316.25)" font-size="386.75">C1824</text></g></use>
          <use xlink:href="#$TCHSYS$WIN2D_1800x380" x="-70343.32" y="-92599.02" transform="rotate(-180,-70343.32,-92599.02)">.<g class="blkclass0"><text transform="translate(-460,-302.52)" font-size="386.75">C1824</text></g></use>
          <use xlink:href="#$TCHSYS$WIN2D_2000x380" x="-91243.32" y="-90599.02" transform="scale(1,-1) translate(0,181198.04)">.<g class="blkclass0"><text transform="translate(-480,-316.25)" font-size="386.75">C2024</text></g></use>
          <use xlink:href="#$TCHSYS$WIN2D_2000x380" x="-94743.32" y="-90599.02" transform="scale(1,-1) translate(0,181198.04)">.<g class="blkclass0"><text transform="translate(-480,-316.25)" font-size="386.75">C2024</text></g></use>
          <use xlink:href="#$TCHSYS$WIN2D_2000x380" x="-98243.32" y="-90599.02" transform="scale(1,-1) translate(0,181198.04)">.<g class="blkclass0"><text transform="translate(-480,-316.25)" font-size="386.75">C2024</text></g></use>
          <use xlink:href="#$TCHSYS$WIN2D_2000x380" x="-101743.32" y="-90599.02" transform="scale(1,-1) translate(0,181198.04)">.<g class="blkclass0"><text transform="translate(-480,-316.25)" font-size="386.75">C2024</text></g></use>
          <path d="M-93183.32,-85289.02l0,-5120" />
          <path d="M-92803.32,-85289.02l0,-5120" />
          <path d="M-93183.32,-85289.02l-1810,0" />
          <path d="M-94993.32,-85289.02l0,380" />
          <path d="M-94993.32,-84909.02l2000,0" />
          <path d="M-103493.32,-84909.02l1590,0" />
          <path d="M-101903.32,-84909.02l0,-380" />
          <path d="M-101903.32,-85289.02l-1400,0" />
          <path d="M-95793.32,-85289.02l-4510,0" />
          <path d="M-100303.32,-85289.02l0,380" />
          <path d="M-100303.32,-84909.02l4510,0" />
          <path d="M-95793.32,-84909.02l0,-380" />
          <path d="M-92803.32,-90409.02l560,0" />
          <path d="M-92243.32,-90409.02l0,-380" />
          <path d="M-92243.32,-90789.02l-750,0" />
          <path d="M-89493.32,-90789.02l-750,0" />
          <path d="M-90243.32,-90789.02l0,380" />
          <path d="M-90243.32,-90409.02l560,0" />
          <path d="M-89683.32,-85289.02l0,-5120" />
          <path d="M-89303.32,-85289.02l0,-5120" />
          <path d="M-89683.32,-85289.02l-2120,0" />
          <path d="M-91803.32,-85289.02l0,380" />
          <path d="M-91803.32,-84909.02l2310,0" />
          <path d="M-92993.32,-84909.02l390,0" />
          <path d="M-92603.32,-84909.02l0,-380" />
          <path d="M-92603.32,-85289.02l-200,0" />
          <path d="M-89303.32,-90409.02l560,0" />
          <path d="M-88743.32,-90409.02l0,-380" />
          <path d="M-88743.32,-90789.02l-750,0" />
          <path d="M-85993.32,-90789.02l-750,0" />
          <path d="M-86743.32,-90789.02l0,380" />
          <path d="M-86743.32,-90409.02l560,0" />
          <use xlink:href="#$DorLib2D$00000013" x="-63.19" y="-53.187" transform="scale(1600,1600) rotate(-180,-63.19,-53.19)" stroke-width="0.0001%">.<g class="blkclass0"><text transform="translate(-570.11,328.64)" font-size="386.75">TM1627</text></g></use>
          <use xlink:href="#$DorLib2D$00000003" x="-115.254" y="-106.374" transform="scale(800,800) scale(1,-1) translate(0,212.75) rotate(-180,-115.25,-106.37)" stroke-width="0.0001%">.<g class="blkclass0"><text transform="translate(-389.35,376.57)" font-size="386.75">M0827</text></g></use>
          <path d="M-78493.32,-82789.02l-490,0" />
          <path d="M-78983.32,-82789.02l0,380" />
          <path d="M-78983.32,-82409.02l300,0" />
          <path d="M-89493.32,-82409.02l8960,0" />
          <path d="M-80533.32,-82409.02l0,-380" />
          <path d="M-80533.32,-82789.02l-8960,0" />
          <path d="M-103493.32,-75409.02l810,0" />
          <path d="M-102683.32,-75409.02l0,-380" />
          <path d="M-102683.32,-75789.02l-620,0" />
          <path d="M-100493.32,-75789.02l-190,0" />
          <path d="M-100683.32,-75789.02l0,380" />
          <path d="M-100683.32,-75409.02l315,0" />
          <path d="M-93183.32,-75789.02l0,-6620" />
          <path d="M-92803.32,-75789.02l0,-6620" />
          <path d="M-100493.32,-82409.02l0,3310" />
          <path d="M-100493.32,-79099.02l250,0" />
          <path d="M-100243.32,-79099.02l0,-3690" />
          <path d="M-100243.32,-75789.02l0,-1310" />
          <path d="M-100243.32,-77099.02l-250,0" />
          <path d="M-100493.32,-77099.02l0,1310" />
          <path d="M-100368.32,-75409.02l685,0" />
          <path d="M-99683.32,-75409.02l0,-380" />
          <path d="M-99683.32,-75789.02l-560,0" />
          <path d="M-96243.32,-75789.02l-440,0" />
          <path d="M-96683.32,-75789.02l0,380" />
          <path d="M-96683.32,-75409.02l565,0" />
          <path d="M-96118.32,-75409.02l435,0" />
          <path d="M-95683.32,-75409.02l0,-380" />
          <path d="M-95683.32,-75789.02l-310,0" />
          <path d="M-93183.32,-75789.02l-500,0" />
          <path d="M-93683.32,-75789.02l0,380" />
          <path d="M-93683.32,-75409.02l690,0" />
          <use xlink:href="#$DorLib2D$00000002" x="-64.956" y="-50.399" transform="scale(1500,1500) scale(-1,-1) translate(129.91,100.8)" stroke-width="0.0001%">.<g class="blkclass0"><text transform="translate(-590,-186.25)" font-size="386.75">WM1527</text></g></use>
          <path d="M-92993.32,-75409.02l810,0" />
          <path d="M-92183.32,-75409.02l0,-380" />
          <path d="M-92183.32,-75789.02l-620,0" />
          <path d="M-89493.32,-75789.02l-690,0" />
          <path d="M-90183.32,-75789.02l0,380" />
          <path d="M-90183.32,-75409.02l690,0" />
          <path d="M-78683.32,-75409.02l0,2550" />
          <path d="M-78683.32,-72859.02l380,0" />
          <path d="M-78303.32,-72859.02l0,-2740" />
          <path d="M-78303.32,-67789.02l0,-3520" />
          <path d="M-78303.32,-71309.02l-380,0" />
          <path d="M-78683.32,-71309.02l0,3900" />
          <use xlink:href="#$TCHSYS$WIN2D_2000x380" x="-80683.32" y="-75599.02" transform="scale(-1,-1) translate(161366.64,151198.04)">.<g class="blkclass0"><text transform="translate(-452.71,670.85)" font-size="386.75">C2024</text></g></use>
          <use xlink:href="#$TCHSYS$WIN2D_2000x380" x="-84183.32" y="-75599.02" transform="scale(-1,-1) translate(168366.64,151198.04)">.<g class="blkclass0"><text transform="translate(-480,670.85)" font-size="386.75">C2024</text></g></use>
          <use xlink:href="#$TCHSYS$WIN2D_2000x380" x="-87683.32" y="-75599.02" transform="scale(-1,-1) translate(175366.64,151198.04)">.<g class="blkclass0"><text transform="translate(-480,577.02)" font-size="386.75">C2024</text></g></use>
          <use xlink:href="#$TCHSYS$WIN2D_2000x380" x="-94683.32" y="-75599.02" transform="scale(-1,-1) translate(189366.64,151198.04)">.<g class="blkclass0"><text transform="translate(-480,665.6)" font-size="386.75">C2024</text></g></use>
          <use xlink:href="#$TCHSYS$WIN2D_2000x380" x="-91183.32" y="-75599.02" transform="scale(-1,-1) translate(182366.64,151198.04)">.<g class="blkclass0"><text transform="translate(-480,695.25)" font-size="386.75">C2024</text></g></use>
          <use xlink:href="#$TCHSYS$WIN2D_2000x380" x="-67993.32" y="-72099.02" transform="rotate(-90,-67993.32,-72099.02)">.<g class="blkclass0"><text transform="rotate(-90 613.75,480) translate(613.75,480)" font-size="386.75">C2024</text></g></use>
          <use xlink:href="#$TCHSYS$WIN2D_2000x380" x="-67993.32" y="-78099.02" transform="rotate(-90,-67993.32,-78099.02)">.<g class="blkclass0"><text transform="rotate(-90 613.75,480) translate(613.75,480)" font-size="386.75">C2024</text></g></use>
          <use xlink:href="#$TCHSYS$WIN2D_2000x380" x="-67993.32" y="-75099.02" transform="rotate(-90,-67993.32,-75099.02)">.<g class="blkclass0"><text transform="rotate(-90 613.75,480) translate(613.75,480)" font-size="386.75">C2024</text></g></use>
          <use xlink:href="#$TCHSYS$WIN2D_1800x380" x="-70533.32" y="-67599.02">.<g class="blkclass0"><text transform="translate(-460,613.75)" font-size="386.75">C1824</text></g></use>
          <use xlink:href="#$TCHSYS$WIN2D_1800x380" x="-73433.32" y="-67599.02">.<g class="blkclass0"><text transform="translate(-460,613.75)" font-size="386.75">C1824</text></g></use>
          <use xlink:href="#$TCHSYS$WIN2D_1800x380" x="-76333.32" y="-67599.02">.<g class="blkclass0"><text transform="translate(-460,613.75)" font-size="386.75">C1824</text></g></use>
          <use xlink:href="#$TCHSYS$WIN2D_2000x250" x="-100368.32" y="-78099.02" transform="scale(-1,-1) translate(200736.64,156198.04) rotate(-270,-100368.32,-78099.02)">.<g class="blkclass0"><text transform="rotate(-90 -364.34,480) translate(-364.34,480)" font-size="386.75">C2024</text></g></use>
          <use xlink:href="#$TCHSYS$WIN2D_2000x380" x="-101683.32" y="-75599.02" transform="scale(-1,-1) translate(203366.64,151198.04)">.<g class="blkclass0"><text transform="translate(-480,687.66)" font-size="386.75">C2024</text></g></use>
          <use xlink:href="#$DorLib2D$00000002" x="-65.956" y="-50.399" transform="scale(1500,1500) scale(-1,-1) translate(131.91,100.8)" stroke-width="0.0001%">.<g class="blkclass0"><text transform="translate(-590,-200.41)" font-size="386.75">WM1527</text></g></use>
          <use xlink:href="#$DorLib2D$00000003" x="-126.367" y="-103.249" transform="scale(800,800) scale(1,-1) translate(0,206.5)" stroke-width="0.0001%">.<g class="blkclass0"><text transform="translate(-490,-423.18)" font-size="386.75">M0827</text></g></use>
          <use xlink:href="#$DorLib2D$00000002" x="-49.109" y="-54.903" transform="scale(1550,1550)" stroke-width="0.0001%">.<g class="blkclass0"><text transform="translate(-445.51,401.47)" font-size="386.75">M1527</text></g></use>
          <use xlink:href="#$DorLib2D$00000002" x="-49.109" y="-53.29" transform="scale(1550,1550) scale(-1,1) translate(98.22,0) rotate(-180,-49.11,-53.29)" stroke-width="0.0001%">.<g class="blkclass0"><text transform="translate(-470,-316.25)" font-size="386.75">M1527</text></g></use>
          <use xlink:href="#$DorLib2D$00000002" x="-51.457" y="-53.29" transform="scale(1550,1550) scale(-1,1) translate(102.91,0) rotate(-180,-51.46,-53.29)" stroke-width="0.0001%">.<g class="blkclass0"><text transform="translate(-470,-316.25)" font-size="386.75">M1527</text></g></use>
          <path d="M-85803.32,-88814.02l175,0" />
          <path d="M-85628.32,-88814.02l0,-250" />
          <path d="M-85628.32,-89064.02l-175,0" />
          <path d="M-84178.32,-89064.02l-550,0" />
          <path d="M-84728.32,-89064.02l0,250" />
          <path d="M-84728.32,-88814.02l300,0" />
          <path d="M-84178.32,-89064.02l0,1625" />
          <path d="M-84428.32,-88814.02l0,1375" />
          <path d="M-84178.32,-87439.02l-250,0" />
          <use xlink:href="#$TCHSYS$WIN2D_2000x380" x="-67993.32" y="-88789.02" transform="rotate(-90,-67993.32,-88789.02)">.<g class="blkclass0"><text transform="rotate(-90 613.75,480) translate(613.75,480)" font-size="386.75">C2024</text></g></use>
          <use xlink:href="#$DorLib2D$00000002" x="-58.747" y="-53.29" transform="scale(1550,1550) rotate(-180,-58.75,-53.29)" stroke-width="0.0001%">.<g class="blkclass0"><text transform="translate(-470,-316.25)" font-size="386.75">M1527</text></g></use>
          <path d="M-86183.32,-88939.02l0,-1470" />
          <path d="M-85803.32,-89064.02l0,-1345" />
          <use xlink:href="#$DorLib2D$00000003" x="-94.643" y="-98.821" transform="scale(900,900) scale(-1,-1) translate(189.29,197.64)" stroke-width="0.0001%">.<g class="blkclass0"><text transform="translate(-447,-251.25)" font-size="386.75">M0921</text></g></use>
          <path d="M-103303.32,-90409.02l560,0" />
          <path d="M-102743.32,-90409.02l0,-380" />
          <path d="M-102743.32,-90789.02l-750,0" />
          <path d="M-92993.32,-90789.02l-750,0" />
          <path d="M-93743.32,-90789.02l0,380" />
          <path d="M-93743.32,-90409.02l560,0" />
          <path d="M-100743.32,-90409.02l1500,0" />
          <path d="M-99243.32,-90409.02l0,-380" />
          <path d="M-99243.32,-90789.02l-1500,0" />
          <path d="M-100743.32,-90789.02l0,380" />
          <path d="M-97243.32,-90409.02l1500,0" />
          <path d="M-95743.32,-90409.02l0,-380" />
          <path d="M-95743.32,-90789.02l-1500,0" />
          <path d="M-97243.32,-90789.02l0,380" />
          <path d="M-128303.32,-92409.02l1260,0" />
          <path d="M-127043.32,-92409.02l0,-380" />
          <path d="M-127043.32,-92789.02l-1640,0" />
          <path d="M-117803.32,-92789.02l-1640,0" />
          <path d="M-119443.32,-92789.02l0,380" />
          <path d="M-119443.32,-92409.02l1260,0" />
          <path d="M-125243.32,-92409.02l1100,0" />
          <path d="M-124143.32,-92409.02l0,-380" />
          <path d="M-124143.32,-92789.02l-1100,0" />
          <path d="M-125243.32,-92789.02l0,380" />
          <path d="M-122343.32,-92409.02l1100,0" />
          <path d="M-121243.32,-92409.02l0,-380" />
          <path d="M-121243.32,-92789.02l-1100,0" />
          <path d="M-122343.32,-92789.02l0,380" />
          <use xlink:href="#$TCHSYS$WIN2D_1800x380" x="-120343.32" y="-92599.02" transform="scale(1,-1) translate(0,185198.04)">.<g class="blkclass0"><text transform="translate(-460,-316.25)" font-size="386.75">C1824</text></g></use>
          <use xlink:href="#$TCHSYS$WIN2D_1800x380" x="-123243.32" y="-92599.02" transform="scale(1,-1) translate(0,185198.04)">.<g class="blkclass0"><text transform="translate(-460,-316.25)" font-size="386.75">C1824</text></g></use>
          <use xlink:href="#$TCHSYS$WIN2D_1800x380" x="-126143.32" y="-92599.02" transform="scale(1,-1) translate(0,185198.04)">.<g class="blkclass0"><text transform="translate(-460,-302.52)" font-size="386.75">C1824</text></g></use>
          <path d="M-117803.32,-92789.02l0,2000" />
          <path d="M-118183.32,-92409.02l0,1810" />
          <path d="M-118183.32,-67789.02l-1070,0" />
          <path d="M-119253.32,-67789.02l0,380" />
          <path d="M-119253.32,-67409.02l1450,0" />
          <path d="M-128683.32,-67409.02l1830,0" />
          <path d="M-126853.32,-67409.02l0,-380" />
          <path d="M-126853.32,-67789.02l-1450,0" />
          <path d="M-121053.32,-67789.02l-1100,0" />
          <path d="M-122153.32,-67789.02l0,380" />
          <path d="M-122153.32,-67409.02l1100,0" />
          <path d="M-121053.32,-67409.02l0,-380" />
          <path d="M-123953.32,-67789.02l-1100,0" />
          <path d="M-125053.32,-67789.02l0,380" />
          <path d="M-125053.32,-67409.02l1100,0" />
          <path d="M-123953.32,-67409.02l0,-380" />
          <use xlink:href="#$TCHSYS$WIN2D_1800x380" x="-125953.32" y="-67599.02" transform="scale(1,-1) translate(0,135198.04) rotate(-180,-125953.32,-67599.02)">.<g class="blkclass0"><text transform="translate(-460,613.75)" font-size="386.75">C1824</text></g></use>
          <use xlink:href="#$TCHSYS$WIN2D_1800x380" x="-123053.32" y="-67599.02" transform="scale(1,-1) translate(0,135198.04) rotate(-180,-123053.32,-67599.02)">.<g class="blkclass0"><text transform="translate(-460,613.75)" font-size="386.75">C1824</text></g></use>
          <use xlink:href="#$TCHSYS$WIN2D_1800x380" x="-120153.32" y="-67599.02" transform="scale(1,-1) translate(0,135198.04) rotate(-180,-120153.32,-67599.02)">.<g class="blkclass0"><text transform="translate(-460,613.75)" font-size="386.75">C1824</text></g></use>
          <path d="M-128683.32,-67409.02l0,-3190" />
          <path d="M-128303.32,-67789.02l0,-2700" />
          <use xlink:href="#$TCHSYS$WIN2D_2000x380" x="-128493.32" y="-72099.02" transform="scale(1,-1) translate(0,144198.04) rotate(-270,-128493.32,-72099.02)">.<g class="blkclass0"><text transform="rotate(-90 -316.25,480) translate(-316.25,480)" font-size="386.75">C2024</text></g></use>
          <use xlink:href="#$TCHSYS$WIN2D_2000x380" x="-128493.32" y="-78099.02" transform="scale(1,-1) translate(0,156198.04) rotate(-270,-128493.32,-78099.02)">.<g class="blkclass0"><text transform="rotate(-90 -316.25,480) translate(-316.25,480)" font-size="386.75">C2024</text></g></use>
          <use xlink:href="#$TCHSYS$WIN2D_2000x380" x="-128493.32" y="-75099.02" transform="scale(1,-1) translate(0,150198.04) rotate(-270,-128493.32,-75099.02)">.<g class="blkclass0"><text transform="rotate(-90 -316.25,480) translate(-316.25,480)" font-size="386.75">C2024</text></g></use>
          <path d="M-128303.32,-82409.02l1260,0" />
          <path d="M-127043.32,-82409.02l0,-380" />
          <path d="M-127043.32,-82789.02l-1260,0" />
          <path d="M-117993.32,-82789.02l-1500,0" />
          <path d="M-119493.32,-82789.02l0,380" />
          <path d="M-119493.32,-82409.02l1310,0" />
          <path d="M-125293.32,-82409.02l4050,0" />
          <path d="M-121243.32,-82409.02l0,-380" />
          <path d="M-121243.32,-82789.02l-4050,0" />
          <path d="M-125293.32,-82789.02l0,380" />
          <use xlink:href="#$DorLib2D$00000002" x="-72.096" y="-47.199" transform="scale(1750,1750) scale(-1,-1) translate(144.19,94.4)" stroke-width="0.0001%">.<g class="blkclass0"><text transform="translate(-479.65,-118.92)" font-size="386.75">M1527</text></g></use>
          <use xlink:href="#$DorLib2D$00000002" x="-68.782" y="-47.199" transform="scale(1750,1750) scale(-1,-1) translate(137.56,94.4)" stroke-width="0.0001%">.<g class="blkclass0"><text transform="translate(-526.36,-108.98)" font-size="386.75">M1527</text></g></use>
          <path d="M-117803.32,-82409.02l0,6620" />
          <path d="M-118183.32,-82409.02l0,6810" />
          <path d="M-128303.32,-85289.02l0,-2500" />
          <path d="M-128303.32,-87789.02l-380,0" />
          <path d="M-128683.32,-87789.02l0,2690" />
          <path d="M-128683.32,-92789.02l0,3000" />
          <path d="M-128683.32,-89789.02l380,0" />
          <path d="M-128303.32,-89789.02l0,-2620" />
          <use xlink:href="#$TCHSYS$WIN2D_2000x380" x="-128493.32" y="-88789.02" transform="scale(1,-1) translate(0,177578.04) rotate(-270,-128493.32,-88789.02)">.<g class="blkclass0"><text transform="rotate(-90 -316.25,480) translate(-316.25,480)" font-size="386.75">C2024</text></g></use>
          <path d="M-117803.32,-90409.02l1060,0" />
          <path d="M-116743.32,-90409.02l0,-380" />
          <path d="M-116743.32,-90789.02l-1060,0" />
          <path d="M-113993.32,-90789.02l-750,0" />
          <path d="M-114743.32,-90789.02l0,380" />
          <path d="M-114743.32,-90409.02l560,0" />
          <use xlink:href="#$TCHSYS$WIN2D_2000x380" x="-115743.32" y="-90599.02" transform="scale(1,-1) translate(0,181198.04)">.<g class="blkclass0"><text transform="translate(-480,-316.25)" font-size="386.75">C2024</text></g></use>
          <path d="M-117803.32,-90409.02l0,2495" />
          <path d="M-118183.32,-90599.02l0,2810" />
          <path d="M-114183.32,-85289.02l0,-5120" />
          <path d="M-113803.32,-84909.02l0,-5500" />
          <path d="M-118183.32,-85289.02l-1410,0" />
          <path d="M-119593.32,-85289.02l0,380" />
          <path d="M-119593.32,-84909.02l1600,0" />
          <path d="M-128303.32,-84909.02l1080.41,0" />
          <path d="M-127222.91,-84909.02l0,-380" />
          <path d="M-127222.91,-85289.02l-1080.41,0" />
          <path d="M-121143.32,-85289.02l-4529.59,0" />
          <path d="M-125672.91,-85289.02l0,380" />
          <path d="M-125672.91,-84909.02l4529.59,0" />
          <path d="M-121143.32,-84909.02l0,-380" />
          <use xlink:href="#$DorLib2D$00000002" x="-77.657" y="-54.903" transform="scale(1550,1550) scale(1,-1) translate(0,109.81) rotate(-180,-77.66,-54.9)" stroke-width="0.0001%">.<g class="blkclass0"><text transform="translate(-489.66,303.95)" font-size="386.75">M1527</text></g></use>
          <use xlink:href="#$DorLib2D$00000003" x="-146.504" y="-106.374" transform="scale(800,800) scale(1,-1) translate(0,212.75) rotate(-180,-146.5,-106.37)" stroke-width="0.0001%">.</use>
          <use xlink:href="#$DorLib2D$00000003" x="-134.729" y="-106.374" transform="scale(800,800)" stroke-width="0.0001%">.<g class="blkclass0"><text transform="translate(-675,328.15)" font-size="386.75">M0827</text></g></use>
          <use xlink:href="#$TCHSYS$WIN2D_2000x380" x="-108743.32" y="-90599.02" transform="rotate(-180,-108743.32,-90599.02)">.<g class="blkclass0"><text transform="translate(-480,-316.25)" font-size="386.75">C2024</text></g></use>
          <path d="M-110683.32,-84909.02l0,-3905" />
          <path d="M-110303.32,-85289.02l0,-3650" />
          <path d="M-110493.32,-90789.02l-875,0" />
          <path d="M-111368.32,-90789.02l0,380" />
          <path d="M-111368.32,-90409.02l685,0" />
          <path d="M-113803.32,-90409.02l685,0" />
          <path d="M-113118.32,-90409.02l0,-380" />
          <path d="M-113118.32,-90789.02l-875,0" />
          <use xlink:href="#$DorLib2D$00000002" x="-64.139" y="-51.771" transform="scale(1750,1750) scale(1,-1) translate(0,103.54) rotate(-180,-64.14,-51.77)" stroke-width="0.0001%">.<g class="blkclass0"><text transform="translate(-724.54,-120.45)" font-size="386.75">WM1727</text></g></use>
          <use xlink:href="#$TCHSYS$WIN2D_2000x380" x="-105243.32" y="-90599.02" transform="rotate(-180,-105243.32,-90599.02)">.<g class="blkclass0"><text transform="translate(-480,-316.25)" font-size="386.75">C2024</text></g></use>
          <path d="M-103683.32,-85289.02l0,-5120" />
          <path d="M-103303.32,-85289.02l0,-5120" />
          <path d="M-103493.32,-90789.02l-750,0" />
          <path d="M-104243.32,-90789.02l0,380" />
          <path d="M-104243.32,-90409.02l560,0" />
          <path d="M-106803.32,-90409.02l560,0" />
          <path d="M-106243.32,-90409.02l0,-380" />
          <path d="M-106243.32,-90789.02l-750,0" />
          <path d="M-107183.32,-85289.02l0,-5120" />
          <path d="M-106803.32,-85289.02l0,-5120" />
          <path d="M-106993.32,-84909.02l2310,0" />
          <path d="M-104683.32,-84909.02l0,-380" />
          <path d="M-104683.32,-85289.02l-2120,0" />
          <path d="M-103683.32,-85289.02l-200,0" />
          <path d="M-103883.32,-85289.02l0,380" />
          <path d="M-103883.32,-84909.02l390,0" />
          <use xlink:href="#$DorLib2D$00000003" x="-130.354" y="-106.374" transform="scale(800,800)" stroke-width="0.0001%">.<g class="blkclass0"><text transform="translate(-721.53,404.71)" font-size="386.75">M0827</text></g></use>
          <path d="M-106993.32,-90789.02l-750,0" />
          <path d="M-107743.32,-90789.02l0,380" />
          <path d="M-107743.32,-90409.02l560,0" />
          <path d="M-110303.32,-90409.02l560,0" />
          <path d="M-109743.32,-90409.02l0,-380" />
          <path d="M-109743.32,-90789.02l-750,0" />
          <path d="M-103683.32,-75789.02l0,-6620" />
          <path d="M-103303.32,-75789.02l0,-6620" />
          <path d="M-103683.32,-75789.02l-620,0" />
          <path d="M-104303.32,-75789.02l0,380" />
          <path d="M-104303.32,-75409.02l810,0" />
          <path d="M-110493.32,-75409.02l690,0" />
          <path d="M-109803.32,-75409.02l0,-380" />
          <path d="M-109803.32,-75789.02l-565,0" />
          <path d="M-106303.32,-75789.02l-1500,0" />
          <path d="M-107803.32,-75789.02l0,380" />
          <path d="M-107803.32,-75409.02l1500,0" />
          <path d="M-106303.32,-75409.02l0,-380" />
          <use xlink:href="#$TCHSYS$WIN2D_2000x380" x="-115803.32" y="-75599.02" transform="scale(-1,1) translate(231606.64,0) rotate(-180,-115803.32,-75599.02)">.<g class="blkclass0"><text transform="translate(-480,706.64)" font-size="386.75">C2024</text></g></use>
          <use xlink:href="#$TCHSYS$WIN2D_2000x380" x="-112303.32" y="-75599.02" transform="scale(-1,1) translate(224606.64,0) rotate(-180,-112303.32,-75599.02)">.<g class="blkclass0"><text transform="translate(-480,766.86)" font-size="386.75">C2024</text></g></use>
          <use xlink:href="#$TCHSYS$WIN2D_2000x380" x="-108803.32" y="-75599.02" transform="scale(-1,1) translate(217606.64,0) rotate(-180,-108803.32,-75599.02)">.<g class="blkclass0"><text transform="translate(-480,698.98)" font-size="386.75">C2024</text></g></use>
          <use xlink:href="#$TCHSYS$WIN2D_2000x380" x="-105303.32" y="-75599.02" transform="scale(-1,1) translate(210606.64,0) rotate(-180,-105303.32,-75599.02)">.<g class="blkclass0"><text transform="translate(-480,892.14)" font-size="386.75">C2024</text></g></use>
          <path d="M-118183.32,-75599.02l0,2740" />
          <path d="M-118183.32,-72859.02l380,0" />
          <path d="M-117803.32,-72859.02l0,-2550" />
          <path d="M-117803.32,-70599.02l0,-710" />
          <path d="M-117803.32,-71309.02l-380,0" />
          <path d="M-118183.32,-71309.02l0,570" />
          <use xlink:href="#$DorLib2D$00000002" x="-76.125" y="-46.506" transform="scale(1550,1550) rotate(-270,-76.12,-46.51)" stroke-width="0.0001%">.<g class="blkclass0"><text transform="rotate(-90 -188.66,551.48) translate(-188.66,551.48)" font-size="386.75">WM1721</text></g></use>
          <path d="M-110683.32,-89064.02l-174.83,0" />
          <path d="M-110858.15,-89064.02l0,250" />
          <path d="M-110858.15,-88814.02l174.83,0" />
          <path d="M-112058.32,-88814.02l300.17,0" />
          <path d="M-111758.15,-88814.02l0,-250" />
          <path d="M-111758.15,-89064.02l-550.17,0" />
          <use xlink:href="#$DorLib2D$00000003" x="-123.676" y="-98.821" transform="scale(900,900) scale(-1,1) translate(247.35,0) rotate(-180,-123.68,-98.82)" stroke-width="0.0001%">.</use>
          <path d="M-112058.32,-88814.02l0,1375" />
          <path d="M-112308.32,-89064.02l0,1625" />
          <path d="M-112058.32,-87439.02l-250,0" />
          <path d="M-114183.32,-85289.02l-200,0" />
          <path d="M-114383.32,-85289.02l0,380" />
          <path d="M-114383.32,-84909.02l580,0" />
          <path d="M-115993.32,-84909.02l810,0" />
          <path d="M-115183.32,-84909.02l0,-380" />
          <path d="M-115183.32,-85289.02l-685,0" />
          <path d="M-110683.32,-84909.02l2500,0" />
          <path d="M-108183.32,-84909.02l0,-380" />
          <path d="M-108183.32,-85289.02l-2120,0" />
          <path d="M-107183.32,-85289.02l-200,0" />
          <path d="M-107383.32,-85289.02l0,380" />
          <path d="M-107383.32,-84909.02l390,0" />
          <path d="M-110368.32,-82409.02l4165,0" />
          <path d="M-106203.32,-82409.02l0,-380" />
          <path d="M-106203.32,-82789.02l-4290,0" />
          <path d="M-103493.32,-82789.02l-1160,0" />
          <path d="M-104653.32,-82789.02l0,380" />
          <path d="M-104653.32,-82409.02l970,0" />
          <use xlink:href="#$DorLib2D$00000002" x="-68.018" y="-53.29" transform="scale(1550,1550) scale(-1,-1) translate(136.04,106.58)" stroke-width="0.0001%">.<g class="blkclass0"><text transform="translate(-470,-316.25)" font-size="386.75">M1527</text></g></use>
          <path d="M-110683.32,-89064.02l0,-1345" />
          <path d="M-110303.32,-88939.02l0,-1470" />
          <use xlink:href="#$DorLib2D$00000002" x="-38.853" y="-47.914" transform="scale(1750,1750) scale(1,-1) translate(0,95.83) rotate(-270,-38.85,-47.91)" stroke-width="0.0001%">.<g class="blkclass0"><text transform="rotate(-90 -316.25,590) translate(-316.25,590)" font-size="386.75">WM1727</text></g></use>
          <path d="M-128303.32,-82789.02l0,-185" />
          <path d="M-128303.32,-82974.02l-380,0" />
          <path d="M-128683.32,-82974.02l0,375" />
          <path d="M-128683.32,-85099.02l0,375" />
          <path d="M-128683.32,-84724.02l380,0" />
          <path d="M-128303.32,-84724.02l0,-185" />
          <use xlink:href="#$DorLib2D$00000002" x="-73.425" y="-47.914" transform="scale(1750,1750) rotate(-90,-73.42,-47.91)" stroke-width="0.0001%">.<g class="blkclass0"><text transform="rotate(-90 683.46,230.76) translate(683.46,230.76)" font-size="386.75">WM1727</text></g></use>
          <use xlink:href="#$DorLib2D$00000002" x="-50.641" y="-46.506" transform="scale(1550,1550) scale(1,-1) translate(0,93.01) rotate(-90,-50.64,-46.51)" stroke-width="0.0001%">.<g class="blkclass0"><text transform="rotate(-90 577.31,590) translate(577.31,590)" font-size="386.75">WM1727</text></g></use>
          <use xlink:href="#$DorLib2D$00000003" x="-143.479" y="-106.374" transform="scale(800,800) scale(-1,-1) translate(286.96,212.75) rotate(-180,-143.48,-106.37)" stroke-width="0.0001%">.</use>
          <path d="M-117803.32,-87914.02l1935,0" />
          <path d="M-117803.32,-87664.02l1685,0" />
          <path d="M-117803.32,-87664.02l0,2375" />
          <path d="M-118183.32,-87789.02l0,2500" />
          <path d="M-115868.32,-87914.02l0,2625" />
          <path d="M-116118.32,-87664.02l0,2375" />
          <path d="M-116118.32,-85289.02l-685,0" />
          <path d="M-116803.32,-85289.02l0,380" />
          <path d="M-116803.32,-84909.02l810,0" />
          <path d="M-117993.32,-84909.02l390,0" />
          <path d="M-117603.32,-84909.02l0,-380" />
          <path d="M-117603.32,-85289.02l-200,0" />
          <path d="M-92993.32,-82789.02l-2000,0" />
          <path d="M-94993.32,-82789.02l0,380" />
          <path d="M-94993.32,-82409.02l1810,0" />
          <path d="M-95993.32,-82409.02l200,0" />
          <path d="M-95793.32,-82409.02l0,-380" />
          <path d="M-95793.32,-82789.02l-450,0" />
          <path d="M-95993.32,-82409.02l0,6620" />
          <path d="M-96243.32,-82789.02l0,7000" />
          <use xlink:href="#$DorLib2D$00000003" x="-119.242" y="-103.249" transform="scale(800,800) rotate(-180,-119.24,-103.25)" stroke-width="0.0001%">.<g class="blkclass0"><text transform="translate(-490,-316.25)" font-size="386.75">M0827</text></g></use>
          <path d="M-103303.32,-82409.02l1810,0" />
          <path d="M-101493.32,-82409.02l0,-380" />
          <path d="M-101493.32,-82789.02l-2000,0" />
          <path d="M-100243.32,-82789.02l-450,0" />
          <path d="M-100693.32,-82789.02l0,380" />
          <path d="M-100693.32,-82409.02l200,0" />
          <path d="M-113868.32,-82409.02l0,6620" />
          <path d="M-114118.32,-82409.02l0,6620" />
          <path d="M-110368.32,-82409.02l0,6620" />
          <path d="M-110618.32,-82409.02l0,6620" />
          <path d="M-117803.32,-82409.02l200,0" />
          <path d="M-117603.32,-82409.02l0,-380" />
          <path d="M-117603.32,-82789.02l-390,0" />
          <path d="M-113993.32,-82789.02l-2810,0" />
          <path d="M-116803.32,-82789.02l0,380" />
          <path d="M-116803.32,-82409.02l2685,0" />
          <path d="M-114118.32,-75789.02l-685,0" />
          <path d="M-114803.32,-75789.02l0,380" />
          <path d="M-114803.32,-75409.02l810,0" />
          <path d="M-117803.32,-75409.02l1000,0" />
          <path d="M-116803.32,-75409.02l0,-380" />
          <path d="M-116803.32,-75789.02l-1000,0" />
          <path d="M-110618.32,-75789.02l-685,0" />
          <path d="M-111303.32,-75789.02l0,380" />
          <path d="M-111303.32,-75409.02l810,0" />
          <path d="M-113993.32,-75409.02l690,0" />
          <path d="M-113303.32,-75409.02l0,-380" />
          <path d="M-113303.32,-75789.02l-565,0" />
          <path d="M-128303.32,-70489.02l7250,0" />
          <path d="M-121053.32,-70489.02l0,-250" />
          <path d="M-121053.32,-70739.02l-7250,0" />
          <path d="M-118183.32,-70739.02l-1120,0" />
          <path d="M-119303.32,-70739.02l0,250" />
          <path d="M-119303.32,-70489.02l1120,0" />
          <path d="M-117803.32,-70599.02l0,3190" />
          <path d="M-118183.32,-70489.02l0,2700" />
          <path d="M-128303.32,-70739.02l0,-360" />
          <path d="M-128303.32,-71099.02l-380,0" />
          <path d="M-128683.32,-71099.02l0,500" />
          <path d="M-128683.32,-82599.02l0,3500" />
          <path d="M-128683.32,-79099.02l380,0" />
          <path d="M-128303.32,-79099.02l0,-3310" />
          <path d="M-128303.32,-73099.02l0,-1000" />
          <path d="M-128303.32,-74099.02l-380,0" />
          <path d="M-128683.32,-74099.02l0,1000" />
          <path d="M-128683.32,-73099.02l380,0" />
          <path d="M-128303.32,-76099.02l0,-1000" />
          <path d="M-128303.32,-77099.02l-380,0" />
          <path d="M-128683.32,-77099.02l0,1000" />
          <path d="M-128683.32,-76099.02l380,0" />
          <use xlink:href="#$DorLib2D$00000002" x="-68.673" y="-40.351" transform="scale(1750,1750) scale(-1,-1) translate(137.35,80.7)" stroke-width="0.0001%">.<g class="blkclass0"><text transform="translate(-470,-381.25)" font-size="386.75">M1527</text></g></use>
          <use xlink:href="#$DorLib2D$00000003" x="-146.504" y="-103.249" transform="scale(800,800) scale(1,-1) translate(0,206.5)" stroke-width="0.0001%">.<g class="blkclass0"><text transform="translate(-574.86,653.44)" font-size="386.75">M0827</text></g></use>
          <use xlink:href="#$DorLib2D$00000003" x="-141.504" y="-103.249" transform="scale(800,800) scale(1,-1) translate(0,206.5)" stroke-width="0.0001%">.<g class="blkclass0"><text transform="translate(-482.86,-142.34)" font-size="386.75">M0827</text></g></use>
          <use xlink:href="#$DorLib2D$00000003" x="-119.242" y="-106.374" transform="scale(800,800) scale(-1,-1) translate(238.48,212.75) rotate(-180,-119.24,-106.37)" stroke-width="0.0001%">.<g class="blkclass0"><text transform="translate(-474.11,501.59)" font-size="386.75">M0827</text></g></use>
          <path d="M-89293.32,-75789.02l0,-5620" />
          <path d="M-89293.32,-81409.02l-200,0" />
          <path d="M-89493.32,-81409.02l0,5620" />
          <path d="M-89493.32,-82409.02l0,200" />
          <path d="M-89493.32,-82209.02l200,0" />
          <path d="M-89293.32,-82209.02l0,-200" />
          <path d="M-89493.32,-75409.02l810,0" />
          <path d="M-88683.32,-75409.02l0,-380" />
          <path d="M-88683.32,-75789.02l-810,0" />
          <path d="M-78683.32,-75789.02l-1000,0" />
          <path d="M-79683.32,-75789.02l0,380" />
          <path d="M-79683.32,-75409.02l1000,0" />
          <path d="M-86683.32,-75409.02l1500,0" />
          <path d="M-85183.32,-75409.02l0,-380" />
          <path d="M-85183.32,-75789.02l-1500,0" />
          <path d="M-86683.32,-75789.02l0,380" />
          <path d="M-83183.32,-75409.02l1500,0" />
          <path d="M-81683.32,-75409.02l0,-380" />
          <path d="M-81683.32,-75789.02l-1500,0" />
          <path d="M-83183.32,-75789.02l0,380" />
          <path d="M-89493.32,-82789.02l-790,0" />
          <path d="M-90283.32,-82789.02l0,380" />
          <path d="M-90283.32,-82409.02l790,0" />
          <path d="M-92803.32,-82409.02l970,0" />
          <path d="M-91833.32,-82409.02l0,-380" />
          <path d="M-91833.32,-82789.02l-1160,0" />
          <use xlink:href="#$DorLib2D$00000003" x="-111.742" y="-102.261" transform="scale(800,800) scale(1,-1) translate(0,204.52) rotate(-270,-111.74,-102.26)" stroke-width="0.0001%">.<g class="blkclass0"><text transform="rotate(-90 -155.77,453.74) translate(-155.77,453.74)" font-size="386.75">M0821</text></g></use>
          <path d="M-113868.32,-82409.02l265,0" />
          <path d="M-113603.32,-82409.02l0,-380" />
          <path d="M-113603.32,-82789.02l-390,0" />
          <path d="M-110493.32,-82789.02l-2310,0" />
          <path d="M-112803.32,-82789.02l0,380" />
          <path d="M-112803.32,-82409.02l2185,0" />
          <path d="M-78683.32,-88814.02l-1187.5,0" />
          <path d="M-78683.32,-88839.02l-1187.5,0" />
          <path d="M-78683.32,-88814.02l0,-25" />
          <path d="M-78683.32,-87914.02l-1187.5,0" />
          <path d="M-78683.32,-87939.02l-1187.5,0" />
          <path d="M-78683.32,-87914.02l0,-25" />
          <path d="M-79895.82,-88826.52l0,150" />
          <path d="M-79895.82,-88676.52l25,0" />
          <path d="M-79870.82,-88676.52l0,-137.5" />
          <path d="M-79870.82,-87939.02l0,-137.5" />
          <path d="M-79870.82,-88076.52l-25,0" />
          <path d="M-79895.82,-88076.52l0,150" />
          <use xlink:href="#$TCHSYS$APDOOR2D" x="-133.139" y="-147.294" transform="scale(600,600) scale(1,-1) translate(0,294.59) rotate(-90,-133.14,-147.29)" stroke-width="0.0002%">.</use>
          <path d="M-78683.32,-89714.02l-1187.5,0" />
          <path d="M-78683.32,-89739.02l-1212.5,0" />
          <path d="M-78683.32,-89714.02l0,-25" />
          <path d="M-79895.82,-89739.02l0,162.5" />
          <path d="M-79895.82,-89576.52l25,0" />
          <path d="M-79870.82,-89576.52l0,-137.5" />
          <path d="M-79870.82,-88839.02l0,-137.5" />
          <path d="M-79870.82,-88976.52l-25,0" />
          <path d="M-79895.82,-88976.52l0,150" />
          <use xlink:href="#$TCHSYS$APDOOR2D" x="-133.139" y="-148.794" transform="scale(600,600) scale(1,-1) translate(0,297.59) rotate(-90,-133.14,-148.79)" stroke-width="0.0002%">.</use>
          <path d="M-81903.32,-89546.52l-400,0" />
          <path d="M-81903.32,-89571.52l-400,0" />
          <path d="M-81903.32,-89546.52l0,-25" />
          <path d="M-82303.32,-89546.52l0,-25" />
          <path d="M-81903.32,-88746.52l-400,0" />
          <path d="M-81903.32,-88771.52l-400,0" />
          <path d="M-81903.32,-88746.52l0,-25" />
          <path d="M-82303.32,-88746.52l0,-25" />
          <path d="M-81903.32,-87946.52l-400,0" />
          <path d="M-81903.32,-87971.52l-400,0" />
          <path d="M-81903.32,-87946.52l0,-25" />
          <path d="M-82303.32,-87946.52l0,-25" />
          <path d="M-81903.32,-87146.52l-400,0" />
          <path d="M-81903.32,-87171.52l-400,0" />
          <path d="M-81903.32,-87146.52l0,-25" />
          <path d="M-82303.32,-87146.52l0,-25" />
          <path d="M-82683.32,-84909.02l3000,0" />
          <path d="M-79683.32,-84909.02l0,-380" />
          <path d="M-79683.32,-85289.02l-2620,0" />
          <path d="M-78683.32,-85289.02l-200,0" />
          <path d="M-78883.32,-85289.02l0,380" />
          <path d="M-78883.32,-84909.02l390,0" />
          <path d="M-78683.32,-87014.02l-1212.5,0" />
          <path d="M-78683.32,-87039.02l-1187.5,0" />
          <path d="M-78683.32,-87014.02l0,-25" />
          <path d="M-79895.82,-87926.52l0,150" />
          <path d="M-79895.82,-87776.52l25,0" />
          <path d="M-79870.82,-87776.52l0,-137.5" />
          <path d="M-79870.82,-87039.02l0,-137.5" />
          <path d="M-79870.82,-87176.52l-25,0" />
          <path d="M-79895.82,-87176.52l0,162.5" />
          <use xlink:href="#$TCHSYS$APDOOR2D" x="-133.139" y="-145.794" transform="scale(600,600) scale(1,-1) translate(0,291.59) rotate(-90,-133.14,-145.79)" stroke-width="0.0002%">.</use>
          <use xlink:href="#$DorLib2D$00000002" x="-65.612" y="-52.326" transform="scale(1560,1560) scale(-1,-1) translate(131.22,104.65) rotate(-90,-65.61,-52.33)" stroke-width="0.0001%">.<g class="blkclass0"><text transform="rotate(-90 -126.25,425) translate(-126.25,425)" font-size="386.75">M1821</text></g></use>
          <use xlink:href="#$DorLib2D$00000002" x="-81.579" y="-54.903" transform="scale(1550,1550) scale(1,-1) translate(0,109.81) rotate(-180,-81.58,-54.9)" stroke-width="0.0001%">.<g class="blkclass0"><text transform="translate(-489.66,303.95)" font-size="386.75">M1527</text></g></use>
        </g>
      </g>
      <g id="assets" fill="none">
        <g id="rm-assets" class="rm-asset">
          <path id="15021;F01;110" d="M-78303.32,-82409.02l10120,0l0,14620l-10120,0z" />
          <path id="15021;F01;101-102" d="M-128303.32,-82409.02l10120,0l0,11670l-10120,0z" />
          <path id="15021;F01;108-109" d="M-92803.32,-82409.02l14120,0l0,6620l-14120,0z" />
          <path id="15021;F01;118-119" d="M-128303.32,-92409.02l10120,0l0,7120l-10120,0z" />
          <path id="15021;F01;111" d="M-78303.32,-92409.02l10120,0l0,7120l-10120,0l0,-7120z" />
          <path id="15021;F01;114-115" d="M-103303.32,-90409.02l10120,0l0,5120l-10120,0z" />
          <path id="15021;F01;105" d="M-110368.32,-82409.02l6685,0l0,6620l-6685,0z" />
          <path id="15021;F01;103" d="M-117803.32,-82409.02l3685,0l0,6620l-3685,0l0,-6620z" />
          <path id="15021;F01;104" d="M-113868.32,-82409.02l3250,0l0,6620l-3250,0z" />
          <path id="15021;F01;106" d="M-102093.32,-82409.33l1600,0.31l0,2200l-100,0l0,200l100,0l0,4220l-2810,0l0,-4220l0,-2400z" />
          <path id="15021;F01;107" d="M-95993.32,-82409.02l2810,0l0,2200l-1210,0l0,200l1210,0l0,4220l-2810,0l0,-4220l100,0l0,-200l-100,0z" />
          <path id="15021;F01;117" d="M-110303.32,-90409.02l3120,0l0,5120l-3120,0z" />
          <path id="15021;F01;116" d="M-106803.32,-90409.02l3120,0l0,5120l-3120,0z" />
          <path id="15021;F01;113" d="M-92803.32,-90409.02l3120,0l0,5120l-3120,0z" />
          <path id="15021;F01;112" d="M-89303.32,-90409.02l3120,0l0,5120l-3120,0z" />
        </g>
      </g>
    </g>
    <g id="text" font-family="Arial" font-size="650" font-weight="normal" text-style="normal" text-anchor="start" dominant-baseline="alphabetical" fill="#FF7F00" xml:space="preserve">
      <g id="layer-body-text">
        <g transform="translate(-98706.72,-79460.78)">
          <text>门厅</text>
        </g>
        <g transform="translate(-98732.38,-83527.36)">
          <text>走道</text>
        </g>
      </g>
    </g>
    <g id="asset-labels" font-family="Arial" font-weight="bold" font-size="38.1em" text-anchor="middle">
      <g id="rm-labels">
        <g id="l-rm-15021;F01;110" transform="translate(-73243.32,-75099.02)">
          <text>110</text>
        </g>
        <g id="l-rm-15021;F01;101-102" transform="translate(-123243.32,-76574.02)">
          <text>101-102</text>
        </g>
        <g id="l-rm-15021;F01;108-109" transform="translate(-85743.32,-79099.02)">
          <text>108-109</text>
        </g>
        <g id="l-rm-15021;F01;118-119" transform="translate(-123243.32,-88849.02)">
          <text>118-119</text>
        </g>
        <g id="l-rm-15021;F01;111" transform="translate(-73243.32,-88849.02)">
          <text>111</text>
        </g>
        <g id="l-rm-15021;F01;114-115" transform="translate(-98243.32,-87849.02)">
          <text>114-115</text>
        </g>
        <g id="l-rm-15021;F01;105" transform="translate(-107025.82,-79099.02)">
          <text>105</text>
        </g>
        <g id="l-rm-15021;F01;103" transform="translate(-115960.82,-79099.02)">
          <text>103</text>
        </g>
        <g id="l-rm-15021;F01;104" transform="translate(-112243.32,-79099.02)">
          <text>104</text>
        </g>
        <g id="l-rm-15021;F01;106" transform="translate(-101898.32,-79099.17)">
          <text>106</text>
        </g>
        <g id="l-rm-15021;F01;107" transform="translate(-94588.32,-79099.02)">
          <text>107</text>
        </g>
        <g id="l-rm-15021;F01;117" transform="translate(-108743.32,-87849.02)">
          <text>117</text>
        </g>
        <g id="l-rm-15021;F01;116" transform="translate(-105243.32,-87849.02)">
          <text>116</text>
        </g>
        <g id="l-rm-15021;F01;113" transform="translate(-91243.32,-87849.02)">
          <text>113</text>
        </g>
        <g id="l-rm-15021;F01;112" transform="translate(-87743.32,-87849.02)">
          <text>112</text>
        </g>
      </g>
    </g>
  </g>
</svg>