<svg version="1.1" xmlns="http://www.w3.org/2000/svg" xmlns:xlink="http://www.w3.org/1999/xlink" viewBox="-129924.23 -219377.94 63358 27864">
  <style>.i0 { stroke:#000000;   } .body { stroke:#ff7f00;   } .name { stroke:#ff0000;   } .rm { stroke:#00ffff;   } .defpoints { stroke:#000000;   } .axis_text { stroke:#000000;   } .pub_wall { stroke:#c0c0c0;   } .rm-asset { stroke:#0000ff;   fill:#EEEEEE; fill-opacity:1;} .rmtc-asset { stroke:#0000ff;   } .rmtc { stroke:#00ffff;   } .rm-assettxt { stroke:#0000ff;   } .rmtc-assettxt { stroke:#0000ff;   } .cnc-0 { stroke:#ff7f00; stroke-width:50; stroke-dasharray:0; } .blkclass0 { stroke:#ff7f00;  stroke-width:0.02;  fill:#ff7f00; fill-opacity:1; font-family:Arial; font-size:386.75; font-weight:normal; text-style:normal; text-anchor:start;}</style>
  <view id="defaultView" viewBox="-129924.23 -219377.94 63358 27864" />
  <defs>
    <symbol id="$TCHSYS$WIN2D_2000x380" overflow="visible" class="i0">
      <path d="M-1000,-190l2000,0" />
      <path d="M-1000,190l2000,0" />
      <path d="M1000,63.33l-2000,0" />
      <path d="M1000,-63.33l-2000,0" />
      <path d="M-1000,-190l0,380" />
      <path d="M1000,-190l0,380" />
    </symbol>
    <symbol id="$TCHSYS$WIN2D_1750x380" overflow="visible" class="i0">
      <path d="M-875,-190l1750,0" />
      <path d="M-875,190l1750,0" />
      <path d="M875,63.33l-1750,0" />
      <path d="M875,-63.33l-1750,0" />
      <path d="M-875,-190l0,380" />
      <path d="M875,-190l0,380" />
    </symbol>
    <symbol id="$DorLib2D$00000002" overflow="visible" class="i0">
      <path d="M-0.5,0l0,-0.49" />
      <path d="M-0.48,0l0,-0.49" />
      <path d="M-0.5,0l0.02,0" />
      <path d="M-0.48,-0.49l-0.02,0" />
      <path d="M-0.48,-0.49a0.49,0.49 0 0,1 0.48,0.49" />
      <path d="M0,0a0.49,0.49 0 0,1 0.48,-0.49" />
      <path d="M0.48,0l0,-0.49" />
      <path d="M0.5,0l0,-0.49" />
      <path d="M0.48,-0.49l0.02,0" />
      <path d="M0.5,0l-0.02,0" />
    </symbol>
    <symbol id="$DorLib2D$00000003" overflow="visible" class="i0">
      <path d="M0.47,0l0,-0.97" />
      <path d="M-0.5,0a0.97,0.97 0 0,1 0.97,-0.97" />
    </symbol>
  </defs>
  <g id="viewer">
    <g id="mirror" transform="scale(1, 1)" stroke-width="0.09%">
      <g id="background" fill="none">
        <g id="layer-body" class="body">
          <path d="M-78683.32,-218138.24l5630,5793.33" />
          <path d="M-73053.32,-212344.91l5250,-5793.33" />
          <path d="M-73053.32,-212344.91l0,13793.33" />
          <path d="M-78683.32,-216138.24l0,-2000l10880,0l0,25380l-10880,0l0,-8000" />
          <path d="M-78683.32,-192758.24l5630,-5793.33" />
          <path d="M-73053.32,-198551.58l5250,5793.33" />
          <path d="M-117803.32,-218138.24l-5630,5793.33" />
          <path d="M-123433.32,-212344.91l-5250,-5793.33" />
          <path d="M-123433.32,-212344.91l0,13793.33" />
          <path d="M-117803.32,-216138.24l0,-2000l-10880,0l0,25380l10880,0l0,-8000" />
          <path d="M-116573.32,-216138.24l0,-3230l-13340,0l0,27840l13340,0l0,-9230" />
          <path d="M-117803.32,-192758.24l-5630,-5793.33" />
          <path d="M-123433.32,-198551.58l-5250,5793.33" />
          <path d="M-79913.32,-216138.24l0,-3230l13340,0l0,27840l-13340,0l0,-9230" />
          <path d="M-117803.32,-216138.24l0,-2000l-10880,0l0,25380l10880,0l0,-8000" />
          <path d="M-116723.32,-216138.24l0,-3080l-13040,0l0,27540l13040,0l0,-9080" />
          <path d="M-79763.32,-216138.24l0,-3080l13040,0l0,27540l-13040,0l0,-9080" />
          <path d="M-117773.32,-208138.24l370,0l0,380l-370,0" class="cnc-0" />
          <path d="M-115283.32,-208138.24l-370,0l0,380l370,0" class="cnc-0" />
          <path d="M-108553.32,-208138.24l370,0l0,380l-370,0" class="cnc-0" />
          <path d="M-107013.32,-208138.24l-370,0l0,380l370,0" class="cnc-0" />
          <path d="M-99873.32,-208138.24l370,0l0,380l-370,0" class="cnc-0" />
          <path d="M-98333.32,-208138.24l-370,0l0,380l370,0" class="cnc-0" />
          <path d="M-89373.32,-208138.24l370,0l0,380l-370,0" class="cnc-0" />
          <path d="M-87833.32,-208138.24l-370,0l0,380l370,0" class="cnc-0" />
          <path d="M-81403.32,-208138.24l370,0l0,380l-370,0" class="cnc-0" />
          <path d="M-78913.32,-208138.24l-370,0l0,380l370,0" class="cnc-0" />
          <path d="M-84893.32,-208138.24l0,380" />
          <path d="M-83143.32,-208138.24l0,380" />
          <path d="M-108553.32,-210258.91l370,0l0,-380l-370,0" class="cnc-0" />
          <path d="M-107013.32,-210258.91l-370,0l0,-380l370,0" class="cnc-0" />
          <path d="M-89373.32,-210258.91l370,0l0,-380l-370,0" class="cnc-0" />
          <path d="M-87833.32,-210258.91l-370,0l0,-380l370,0" class="cnc-0" />
          <path d="M-99873.32,-210638.24l370,0l0,380l-370,0" class="cnc-0" />
          <path d="M-98333.32,-210638.24l-370,0l0,380l370,0" class="cnc-0" />
          <path d="M-103468.32,-206808.24l1600,0" />
          <path d="M-101868.32,-207758.24l0,950" />
          <path d="M-103468.32,-206608.24l1800,0" />
          <path d="M-101668.32,-207758.24l0,1150" />
          <path d="M-93018.32,-206958.24l-1200,0" />
          <path d="M-93018.32,-206758.24l-1400,0" />
          <path d="M-94218.32,-207758.24l0,800" />
          <path d="M-94418.32,-207758.24l0,1000" />
          <path d="M-93965.58,-208138.24l-1149.43,0" />
          <path d="M-95115.01,-208138.24l0,380" />
          <path d="M-95115.01,-207758.24l2096.69,0" />
          <path d="M-103468.32,-207758.24l107.64,0" />
          <path d="M-101397.03,-207758.24l0,-380" />
          <path d="M-101397.03,-208138.24l-1293.09,0" />
          <path d="M-95915.01,-208138.24l-2788.31,0" />
          <path d="M-98703.32,-208138.24l0,380" />
          <path d="M-98703.32,-207758.24l2788.31,0" />
          <path d="M-95915.01,-207758.24l0,-380" />
          <path d="M-99503.32,-208138.24l-1093.71,0" />
          <path d="M-100597.03,-208138.24l0,380" />
          <path d="M-100597.03,-207758.24l1093.71,0" />
          <path d="M-99503.32,-207758.24l0,-380" />
          <path d="M-93215.21,-208118.66l19.82,-19.82" />
          <path d="M-93215.21,-208006.4l132.08,-132.08" />
          <path d="M-93215.21,-207894.15l54.33,-54.33" />
          <path d="M-93160.88,-207948.48l190,-190" />
          <path d="M-93215.21,-207781.9l166.58,-166.58" />
          <path d="M-93048.63,-207948.48l190,-190" />
          <path d="M-93126.37,-207758.48l190,-190" />
          <path d="M-92936.37,-207948.48l91.16,-91.16" />
          <path d="M-93014.12,-207758.48l168.91,-168.91" />
          <path d="M-92901.87,-207758.48l56.66,-56.66" />
          <path d="M-93965.58,-208138.24l0,380" />
          <path d="M-103360.69,-208138.24l-232.64,0" />
          <path d="M-102584.76,-207758.24l1187.73,0" />
          <path d="M-103467.63,-206608.24l200,-200" />
          <path d="M-103405.76,-206608.24l200,-200" />
          <path d="M-103343.88,-206608.24l200,-200" />
          <path d="M-103282.01,-206608.24l200,-200" />
          <path d="M-103220.14,-206608.24l200,-200" />
          <path d="M-103158.27,-206608.24l200,-200" />
          <path d="M-103096.4,-206608.24l200,-200" />
          <path d="M-103034.53,-206608.24l200,-200" />
          <path d="M-102972.65,-206608.24l200,-200" />
          <path d="M-102910.78,-206608.24l200,-200" />
          <path d="M-102848.91,-206608.24l200,-200" />
          <path d="M-102787.04,-206608.24l200,-200" />
          <path d="M-102725.17,-206608.24l200,-200" />
          <path d="M-102663.29,-206608.24l200,-200" />
          <path d="M-101868.32,-207403.21l200,-200" />
          <path d="M-102601.42,-206608.24l200,-200" />
          <path d="M-101868.32,-207341.34l200,-200" />
          <path d="M-102539.55,-206608.24l200,-200" />
          <path d="M-101868.32,-207279.47l200,-200" />
          <path d="M-102477.68,-206608.24l200,-200" />
          <path d="M-101868.32,-207217.6l200,-200" />
          <path d="M-102415.81,-206608.24l200,-200" />
          <path d="M-101868.32,-207155.73l200,-200" />
          <path d="M-102353.94,-206608.24l200,-200" />
          <path d="M-101868.32,-207093.85l200,-200" />
          <path d="M-102292.06,-206608.24l200,-200" />
          <path d="M-101868.32,-207031.98l200,-200" />
          <path d="M-102230.19,-206608.24l200,-200" />
          <path d="M-101868.32,-206970.11l200,-200" />
          <path d="M-102168.32,-206608.24l200,-200" />
          <path d="M-101868.32,-206908.24l200,-200" />
          <path d="M-102106.45,-206608.24l200,-200" />
          <path d="M-101868.32,-206846.37l200,-200" />
          <path d="M-102044.58,-206608.24l376.25,-376.25" />
          <path d="M-101982.7,-206608.24l314.38,-314.38" />
          <path d="M-101920.83,-206608.24l252.51,-252.51" />
          <path d="M-101858.96,-206608.24l190.64,-190.64" />
          <path d="M-101797.09,-206608.24l128.76,-128.76" />
          <path d="M-101735.22,-206608.24l66.89,-66.89" />
          <path d="M-101673.34,-206608.24l5.02,-5.02" />
          <path d="M-94418.32,-207516.72l200,-200" />
          <path d="M-94418.32,-207454.85l200,-200" />
          <path d="M-94418.32,-207392.98l200,-200" />
          <path d="M-94418.32,-207331.1l200,-200" />
          <path d="M-94418.32,-207269.23l200,-200" />
          <path d="M-94418.32,-207207.36l200,-200" />
          <path d="M-94418.32,-207145.49l200,-200" />
          <path d="M-94418.32,-207083.62l200,-200" />
          <path d="M-94418.32,-207021.75l200,-200" />
          <path d="M-94418.32,-206959.87l200,-200" />
          <path d="M-94418.32,-206898l200,-200" />
          <path d="M-94418.32,-206836.13l200,-200" />
          <path d="M-94418.32,-206774.26l200,-200" />
          <path d="M-94372.47,-206758.24l200,-200" />
          <path d="M-94310.6,-206758.24l200,-200" />
          <path d="M-94248.72,-206758.24l200,-200" />
          <path d="M-94186.85,-206758.24l200,-200" />
          <path d="M-94124.98,-206758.24l200,-200" />
          <path d="M-94063.11,-206758.24l200,-200" />
          <path d="M-94001.24,-206758.24l200,-200" />
          <path d="M-93939.36,-206758.24l200,-200" />
          <path d="M-93877.49,-206758.24l200,-200" />
          <path d="M-93815.62,-206758.24l200,-200" />
          <path d="M-93753.75,-206758.24l200,-200" />
          <path d="M-93691.88,-206758.24l200,-200" />
          <path d="M-93630.01,-206758.24l200,-200" />
          <path d="M-93568.13,-206758.24l200,-200" />
          <path d="M-93506.26,-206758.24l200,-200" />
          <path d="M-93444.39,-206758.24l200,-200" />
          <path d="M-93382.52,-206758.24l200,-200" />
          <path d="M-93320.65,-206758.24l200,-200" />
          <path d="M-93258.77,-206758.24l200,-200" />
          <path d="M-101868.32,-207650.7l107.54,-107.54" />
          <path d="M-101868.32,-207588.83l169.41,-169.41" />
          <path d="M-101868.32,-207526.96l200,-200" />
          <path d="M-101868.32,-207465.08l200,-200" />
          <path d="M-101868.32,-207403.21l200,-200" />
          <path d="M-113903.32,-210258.24l0,200l-250.29,0" />
          <path d="M-114153.61,-210058.24l0,-200" />
          <path d="M-113903.32,-208138.24l0,-200l-250,0l0,200" />
          <path d="M-109153.04,-210258.24l0,200l-250.29,0" />
          <path d="M-109403.32,-210058.24l0,-200" />
          <path d="M-109153.04,-208138.24l0,-200l-250,0l0,200" />
          <path d="M-87083.04,-210258.24l0,200l-250.29,0" />
          <path d="M-87333.32,-210058.24l0,-200" />
          <path d="M-87083.04,-208138.24l0,-200l-250,0l0,200" />
          <path d="M-82333.32,-210258.24l0,200l-250.29,0" />
          <path d="M-82583.61,-210058.24l0,-200" />
          <path d="M-82333.32,-208138.24l0,-200l-250,0l0,200" />
          <use xlink:href="#$TCHSYS$WIN2D_2000x380" x="-87683.32" y="-200948.24" transform="scale(-1,-1) translate(175366.64,401896.48)">.<g class="blkclass0"><text transform="translate(-480,-316.25)" font-size="386.75">C2024</text></g></use>
          <use xlink:href="#$TCHSYS$WIN2D_2000x380" x="-91183.32" y="-200948.24" transform="scale(-1,-1) translate(182366.64,401896.48)">.<g class="blkclass0"><text transform="translate(-480,-316.25)" font-size="386.75">C2024</text></g></use>
          <use xlink:href="#$TCHSYS$WIN2D_2000x380" x="-94743.32" y="-200948.24" transform="rotate(-180,-94743.32,-200948.24)">.<g class="blkclass0"><text transform="translate(-480,-316.25)" font-size="386.75">C2024</text></g></use>
          <use xlink:href="#$TCHSYS$WIN2D_2000x380" x="-98243.32" y="-200948.24" transform="scale(-1,1) translate(196486.64,0) rotate(-180,-98243.32,-200948.24)">.<g class="blkclass0"><text transform="translate(-480,-316.25)" font-size="386.75">C2024</text></g></use>
          <path d="M-92893.32,-216138.24l-850,0" />
          <path d="M-93743.32,-216138.24l0,380" />
          <path d="M-93743.32,-215758.24l660,0" />
          <path d="M-103403.32,-215758.24l660,0" />
          <path d="M-102743.32,-215758.24l0,-380" />
          <path d="M-102743.32,-216138.24l-850,0" />
          <path d="M-95743.32,-216138.24l-1540,0" />
          <path d="M-97283.32,-216138.24l0,380" />
          <path d="M-97283.32,-215758.24l1540,0" />
          <path d="M-95743.32,-215758.24l0,-380" />
          <path d="M-99283.32,-216138.24l-1460,0" />
          <path d="M-100743.32,-216138.24l0,380" />
          <path d="M-100743.32,-215758.24l1460,0" />
          <path d="M-99283.32,-215758.24l0,-380" />
          <use xlink:href="#$TCHSYS$WIN2D_2000x380" x="-94743.32" y="-215948.24" transform="scale(-1,1) translate(189486.64,0) rotate(-180,-94743.32,-215948.24)">.<g class="blkclass0"><text transform="translate(-480,-316.25)" font-size="386.75">C2024</text></g></use>
          <use xlink:href="#$TCHSYS$WIN2D_2000x380" x="-98283.32" y="-215948.24" transform="scale(-1,1) translate(196566.64,0) rotate(-180,-98283.32,-215948.24)">.<g class="blkclass0"><text transform="translate(-480,-316.25)" font-size="386.75">C2024</text></g></use>
          <path d="M-78303.32,-207948.24l0,7190" />
          <path d="M-78683.32,-207758.24l0,6620" />
          <path d="M-78303.32,-216138.24l0,5690" />
          <path d="M-78683.32,-215758.24l0,5120" />
          <path d="M-86083.32,-210638.24l-2120,0" />
          <path d="M-88203.32,-210638.24l0,380" />
          <path d="M-88203.32,-210258.24l2500,0" />
          <path d="M-92893.32,-210258.24l1160,0" />
          <path d="M-91733.32,-210258.24l0,-380" />
          <path d="M-91733.32,-210638.24l-970,0" />
          <path d="M-89003.32,-210638.24l-1180,0" />
          <path d="M-90183.32,-210638.24l0,380" />
          <path d="M-90183.32,-210258.24l1180,0" />
          <path d="M-89003.32,-210258.24l0,-380" />
          <use xlink:href="#$TCHSYS$WIN2D_2000x380" x="-87683.32" y="-215948.24" transform="scale(1,-1) translate(0,431896.48)">.<g class="blkclass0"><text transform="translate(-480,-316.25)" font-size="386.75">C2024</text></g></use>
          <path d="M-85703.32,-215758.24l645,0" />
          <path d="M-85058.32,-215758.24l0,-380" />
          <path d="M-85058.32,-216138.24l-835,0" />
          <path d="M-82393.32,-216138.24l-915,0" />
          <path d="M-83308.32,-216138.24l0,380" />
          <path d="M-83308.32,-215758.24l725,0" />
          <use xlink:href="#$TCHSYS$WIN2D_1750x380" x="-84183.32" y="-215948.24" transform="scale(1,-1) translate(0,431896.48)">.<g class="blkclass0"><text transform="translate(-460,-316.25)" font-size="386.75">C1724</text></g></use>
          <use xlink:href="#$TCHSYS$WIN2D_2000x380" x="-91183.32" y="-215948.24" transform="scale(1,-1) translate(0,431896.48)">.<g class="blkclass0"><text transform="translate(-480,-316.25)" font-size="386.75">C2024</text></g></use>
          <path d="M-93083.32,-210638.24l0,-5120" />
          <path d="M-92703.32,-210638.24l0,-5120" />
          <path d="M-92703.32,-215758.24l520,0" />
          <path d="M-92183.32,-215758.24l0,-380" />
          <path d="M-92183.32,-216138.24l-710,0" />
          <path d="M-85893.32,-216138.24l-790,0" />
          <path d="M-86683.32,-216138.24l0,380" />
          <path d="M-86683.32,-215758.24l600,0" />
          <path d="M-90183.32,-215758.24l1500,0" />
          <path d="M-88683.32,-215758.24l0,-380" />
          <path d="M-88683.32,-216138.24l-1500,0" />
          <path d="M-90183.32,-216138.24l0,380" />
          <use xlink:href="#$DorLib2D$00000002" x="-51.715" y="-134.16" transform="scale(1550,1550) scale(-1,1) translate(103.43,0) rotate(-180,-51.72,-134.16)" stroke-width="0.0001%">.<g class="blkclass0"><text transform="translate(-470,-316.25)" font-size="386.75">M1527</text></g></use>
          <use xlink:href="#$TCHSYS$WIN2D_2000x380" x="-80683.32" y="-200948.24" transform="scale(-1,-1) translate(161366.64,401896.48)">.<g class="blkclass0"><text transform="translate(-480,-316.25)" font-size="386.75">C2024</text></g></use>
          <use xlink:href="#$TCHSYS$WIN2D_2000x380" x="-84183.32" y="-200948.24" transform="scale(-1,-1) translate(168366.64,401896.48)">.<g class="blkclass0"><text transform="translate(-480,-316.25)" font-size="386.75">C2024</text></g></use>
          <path d="M-82583.32,-210258.24l580,0" />
          <path d="M-82003.32,-210258.24l0,-380" />
          <path d="M-82003.32,-210638.24l-200,0" />
          <path d="M-78683.32,-210638.24l-2520,0" />
          <path d="M-81203.32,-210638.24l0,380" />
          <path d="M-81203.32,-210258.24l2520,0" />
          <use xlink:href="#$DorLib2D$00000002" x="-58.683" y="-134.16" transform="scale(1550,1550) scale(-1,1) translate(117.37,0) rotate(-180,-58.68,-134.16)" stroke-width="0.0001%">.<g class="blkclass0"><text transform="translate(-470,-316.25)" font-size="386.75">M1527</text></g></use>
          <path d="M-86083.32,-210638.24l0,-5120" />
          <path d="M-85703.32,-210258.24l0,-5500" />
          <path d="M-92893.32,-200758.24l710,0" />
          <path d="M-92183.32,-200758.24l0,-380" />
          <path d="M-92183.32,-201138.24l-585,0" />
          <path d="M-78683.32,-201138.24l-1000,0" />
          <path d="M-79683.32,-201138.24l0,380" />
          <path d="M-79683.32,-200758.24l1380,0" />
          <path d="M-90183.32,-200758.24l1500,0" />
          <path d="M-88683.32,-200758.24l0,-380" />
          <path d="M-88683.32,-201138.24l-1500,0" />
          <path d="M-90183.32,-201138.24l0,380" />
          <path d="M-86683.32,-200758.24l1500,0" />
          <path d="M-85183.32,-200758.24l0,-380" />
          <path d="M-85183.32,-201138.24l-1500,0" />
          <path d="M-86683.32,-201138.24l0,380" />
          <path d="M-83183.32,-200758.24l1500,0" />
          <path d="M-81683.32,-200758.24l0,-380" />
          <path d="M-81683.32,-201138.24l-1500,0" />
          <path d="M-83183.32,-201138.24l0,380" />
          <path d="M-93018.32,-201138.24l0,-6620" />
          <path d="M-92768.32,-201138.24l0,-6620" />
          <path d="M-93018.32,-207758.24l-196.88,0" />
          <path d="M-92893.32,-208138.24l-321.88,0" />
          <path d="M-93215.21,-207758.24l0,-380" />
          <path d="M-93018.32,-201138.24l-725,0" />
          <path d="M-93743.32,-201138.24l0,380" />
          <path d="M-93743.32,-200758.24l850,0" />
          <path d="M-103593.32,-200758.24l850,0" />
          <path d="M-102743.32,-200758.24l0,-380" />
          <path d="M-102743.32,-201138.24l-725,0" />
          <path d="M-95743.32,-201138.24l-1500,0" />
          <path d="M-97243.32,-201138.24l0,380" />
          <path d="M-97243.32,-200758.24l1500,0" />
          <path d="M-95743.32,-200758.24l0,-380" />
          <path d="M-99243.32,-201138.24l-1500,0" />
          <path d="M-100743.32,-201138.24l0,380" />
          <path d="M-100743.32,-200758.24l1500,0" />
          <path d="M-99243.32,-200758.24l0,-380" />
          <use xlink:href="#$DorLib2D$00000002" x="-61.18" y="-135.773" transform="scale(1550,1550) scale(-1,1) translate(122.36,0)" stroke-width="0.0001%">.<g class="blkclass0"><text transform="translate(-409.32,-161.2)" font-size="386.75">M1527</text></g></use>
          <path d="M-78303.32,-216138.24l-1380,0" />
          <path d="M-79683.32,-216138.24l0,380" />
          <path d="M-79683.32,-215758.24l1000,0" />
          <path d="M-82203.32,-215758.24l520,0" />
          <path d="M-81683.32,-215758.24l0,-380" />
          <path d="M-81683.32,-216138.24l-710,0" />
          <path d="M-78683.32,-208138.24l-700,0" />
          <path d="M-79383.32,-208138.24l0,380" />
          <path d="M-79383.32,-207758.24l700,0" />
          <path d="M-92768.32,-207758.24l1035,0" />
          <path d="M-91733.32,-207758.24l0,-380" />
          <path d="M-91733.32,-208138.24l-1160,0" />
          <path d="M-80933.32,-208138.24l-7270,0" />
          <path d="M-88203.32,-208138.24l0,380" />
          <path d="M-88203.32,-207758.24l7270,0" />
          <path d="M-80933.32,-207758.24l0,-380" />
          <path d="M-89003.32,-208138.24l-1180,0" />
          <path d="M-90183.32,-208138.24l0,380" />
          <path d="M-90183.32,-207758.24l1180,0" />
          <path d="M-89003.32,-207758.24l0,-380" />
          <use xlink:href="#$DorLib2D$00000002" x="-58.683" y="-135.773" transform="scale(1550,1550) scale(-1,-1) translate(117.37,271.55) rotate(-180,-58.68,-135.77)" stroke-width="0.0001%">.<g class="blkclass0"><text transform="translate(-459.46,-124.81)" font-size="386.75">M1527</text></g></use>
          <use xlink:href="#$DorLib2D$00000003" x="-102.004" y="-263.06" transform="scale(800,800) scale(-1,1) translate(204.01,0)" stroke-width="0.0001%">.<g class="blkclass0"><text transform="translate(-402.58,240.71)" font-size="386.75">M0827</text></g></use>
          <path d="M-78683.32,-210258.24l0,185" />
          <path d="M-78683.32,-210073.24l380,0" />
          <path d="M-78303.32,-210073.24l0,-375" />
          <path d="M-78303.32,-207944.74l0,-378.5" />
          <path d="M-78303.32,-208323.24l-380,0" />
          <path d="M-78683.32,-208323.24l0,185" />
          <use xlink:href="#$TCHSYS$WIN2D_1750x380" x="-78493.32" y="-209198.24" transform="rotate(-270,-78493.32,-209198.24)">.<g class="blkclass0"><text transform="rotate(-90 1341.85,388.2) translate(1341.85,388.2)" font-size="386.75">C1724</text></g></use>
          <use xlink:href="#$TCHSYS$WIN2D_2000x380" x="-108803.32" y="-200948.24" transform="scale(-1,1) translate(217606.64,0) rotate(-180,-108803.32,-200948.24)">.<g class="blkclass0"><text transform="translate(-480,-316.25)" font-size="386.75">C2024</text></g></use>
          <use xlink:href="#$TCHSYS$WIN2D_2000x380" x="-105303.32" y="-200948.24" transform="scale(-1,1) translate(210606.64,0) rotate(-180,-105303.32,-200948.24)">.<g class="blkclass0"><text transform="translate(-480,-316.25)" font-size="386.75">C2024</text></g></use>
          <path d="M-117803.32,-207758.24l0,6620" />
          <path d="M-118183.32,-207948.24l0,7190" />
          <path d="M-117803.32,-215758.24l0,5120" />
          <path d="M-118183.32,-216138.24l0,5690" />
          <use xlink:href="#$TCHSYS$WIN2D_2000x380" x="-108803.32" y="-215948.24" transform="rotate(-180,-108803.32,-215948.24)">.<g class="blkclass0"><text transform="translate(-480,-316.25)" font-size="386.75">C2024</text></g></use>
          <path d="M-110593.32,-216138.24l-875,0" />
          <path d="M-111468.32,-216138.24l0,380" />
          <path d="M-111468.32,-215758.24l685,0" />
          <path d="M-113903.32,-215758.24l685,0" />
          <path d="M-113218.32,-215758.24l0,-380" />
          <path d="M-113218.32,-216138.24l-875,0" />
          <use xlink:href="#$TCHSYS$WIN2D_1750x380" x="-112343.32" y="-215948.24" transform="rotate(-180,-112343.32,-215948.24)">.<g class="blkclass0"><text transform="translate(-460,-316.25)" font-size="386.75">C1724</text></g></use>
          <use xlink:href="#$TCHSYS$WIN2D_2000x380" x="-105303.32" y="-215948.24" transform="rotate(-180,-105303.32,-215948.24)">.<g class="blkclass0"><text transform="translate(-480,-316.25)" font-size="386.75">C2024</text></g></use>
          <path d="M-103783.32,-210638.24l0,-5120" />
          <path d="M-103403.32,-210638.24l0,-5120" />
          <path d="M-103593.32,-216138.24l-710,0" />
          <path d="M-104303.32,-216138.24l0,380" />
          <path d="M-104303.32,-215758.24l520,0" />
          <path d="M-110403.32,-215758.24l600,0" />
          <path d="M-109803.32,-215758.24l0,-380" />
          <path d="M-109803.32,-216138.24l-790,0" />
          <path d="M-106303.32,-216138.24l-1500,0" />
          <path d="M-107803.32,-216138.24l0,380" />
          <path d="M-107803.32,-215758.24l1500,0" />
          <path d="M-106303.32,-215758.24l0,-380" />
          <use xlink:href="#$TCHSYS$WIN2D_2000x380" x="-115803.32" y="-200948.24" transform="scale(-1,1) translate(231606.64,0) rotate(-180,-115803.32,-200948.24)">.<g class="blkclass0"><text transform="translate(-480,-316.25)" font-size="386.75">C2024</text></g></use>
          <use xlink:href="#$TCHSYS$WIN2D_2000x380" x="-112303.32" y="-200948.24" transform="scale(-1,1) translate(224606.64,0) rotate(-180,-112303.32,-200948.24)">.<g class="blkclass0"><text transform="translate(-480,-316.25)" font-size="386.75">C2024</text></g></use>
          <path d="M-114283.32,-210638.24l-200,0" />
          <path d="M-114483.32,-210638.24l0,380" />
          <path d="M-114483.32,-210258.24l580,0" />
          <path d="M-117803.32,-210258.24l2520,0" />
          <path d="M-115283.32,-210258.24l0,-380" />
          <path d="M-115283.32,-210638.24l-2520,0" />
          <use xlink:href="#$DorLib2D$00000003" x="-143.604" y="-263.06" transform="scale(800,800) scale(-1,-1) translate(287.21,526.12) rotate(-180,-143.6,-263.06)" stroke-width="0.0001%">.<g class="blkclass0"><text transform="translate(-515.04,-255.16)" font-size="386.75">M0827</text></g></use>
          <path d="M-110783.32,-210258.24l2600,0" />
          <path d="M-108183.32,-210258.24l0,-380" />
          <path d="M-108183.32,-210638.24l-2220,0" />
          <path d="M-103783.32,-210638.24l-970,0" />
          <path d="M-104753.32,-210638.24l0,380" />
          <path d="M-104753.32,-210258.24l1160,0" />
          <path d="M-107383.32,-210258.24l1080,0" />
          <path d="M-106303.32,-210258.24l0,-380" />
          <path d="M-106303.32,-210638.24l-1080,0" />
          <path d="M-107383.32,-210638.24l0,380" />
          <use xlink:href="#$DorLib2D$00000002" x="-68.083" y="-135.773" transform="scale(1550,1550) scale(-1,1) translate(136.17,0)" stroke-width="0.0001%">.<g class="blkclass0"><text transform="translate(-394.86,-58.92)" font-size="386.75">M1527</text></g></use>
          <path d="M-117803.32,-207758.24l500,0" />
          <path d="M-117303.32,-207758.24l0,-380" />
          <path d="M-117303.32,-208138.24l-500,0" />
          <path d="M-103468.32,-208138.24l-1285,0" />
          <path d="M-104753.32,-208138.24l0,380" />
          <path d="M-104753.32,-207758.24l1035,0" />
          <path d="M-115753.32,-207758.24l7570,0" />
          <path d="M-108183.32,-207758.24l0,-380" />
          <path d="M-108183.32,-208138.24l-7570,0" />
          <path d="M-115753.32,-208138.24l0,380" />
          <path d="M-107383.32,-207758.24l1080,0" />
          <path d="M-106303.32,-207758.24l0,-380" />
          <path d="M-106303.32,-208138.24l-1080,0" />
          <path d="M-107383.32,-208138.24l0,380" />
          <use xlink:href="#$DorLib2D$00000002" x="-68.083" y="-134.16" transform="scale(1550,1550) scale(-1,-1) translate(136.17,268.32)" stroke-width="0.0001%">.<g class="blkclass0"><text transform="translate(-470,-316.25)" font-size="386.75">M1527</text></g></use>
          <path d="M-110783.32,-210258.24l0,-5500" />
          <path d="M-110403.32,-210638.24l0,-5120" />
          <path d="M-103718.32,-201138.24l-585,0" />
          <path d="M-104303.32,-201138.24l0,380" />
          <path d="M-104303.32,-200758.24l710,0" />
          <path d="M-118183.32,-200758.24l1380,0" />
          <path d="M-116803.32,-200758.24l0,-380" />
          <path d="M-116803.32,-201138.24l-1000,0" />
          <path d="M-106303.32,-201138.24l-1500,0" />
          <path d="M-107803.32,-201138.24l0,380" />
          <path d="M-107803.32,-200758.24l1500,0" />
          <path d="M-106303.32,-200758.24l0,-380" />
          <path d="M-109803.32,-201138.24l-1500,0" />
          <path d="M-111303.32,-201138.24l0,380" />
          <path d="M-111303.32,-200758.24l1500,0" />
          <path d="M-109803.32,-200758.24l0,-380" />
          <path d="M-113303.32,-201138.24l-1500,0" />
          <path d="M-114803.32,-201138.24l0,380" />
          <path d="M-114803.32,-200758.24l1500,0" />
          <path d="M-113303.32,-200758.24l0,-380" />
          <path d="M-103718.32,-201138.24l0,-6620" />
          <path d="M-103468.32,-201138.24l0,-7000" />
          <path d="M-117803.32,-215758.24l1000,0" />
          <path d="M-116803.32,-215758.24l0,-380" />
          <path d="M-116803.32,-216138.24l-1380,0" />
          <path d="M-114093.32,-216138.24l-710,0" />
          <path d="M-114803.32,-216138.24l0,380" />
          <path d="M-114803.32,-215758.24l520,0" />
          <path d="M-118183.32,-210448.24l0,375" />
          <path d="M-118183.32,-210073.24l380,0" />
          <path d="M-117803.32,-210073.24l0,-185" />
          <path d="M-117803.32,-208138.24l0,-185" />
          <path d="M-117803.32,-208323.24l-380,0" />
          <path d="M-118183.32,-208323.24l0,378.5" />
          <use xlink:href="#$TCHSYS$WIN2D_1750x380" x="-117993.32" y="-209198.24" transform="scale(1,-1) translate(0,418396.48) rotate(-90,-117993.32,-209198.24)">.<g class="blkclass0"><text transform="rotate(-90 -927.91,446.01) translate(-927.91,446.01)" font-size="386.75">C1721</text></g></use>
          <use xlink:href="#$TCHSYS$WIN2D_2000x380" x="-101743.32" y="-200948.24" transform="scale(-1,1) translate(203486.64,0) rotate(-180,-101743.32,-200948.24)">.<g class="blkclass0"><text transform="translate(-480,-316.25)" font-size="386.75">C2024</text></g></use>
          <use xlink:href="#$DorLib2D$00000002" x="-65.586" y="-135.773" transform="scale(1550,1550)" stroke-width="0.0001%">.<g class="blkclass0"><text transform="translate(-428.37,-114.49)" font-size="386.75">M1527</text></g></use>
          <use xlink:href="#$TCHSYS$WIN2D_2000x380" x="-101743.32" y="-215948.24" transform="rotate(-180,-101743.32,-215948.24)">.<g class="blkclass0"><text transform="translate(-480,-316.25)" font-size="386.75">C2024</text></g></use>
          <use xlink:href="#$TCHSYS$WIN2D_2000x380" x="-80683.32" y="-215948.24" transform="rotate(-180,-80683.32,-215948.24)">.<g class="blkclass0"><text transform="rotate(-360 -480,-316.25) translate(-480,-316.25)" font-size="386.75">C2024</text></g></use>
          <use xlink:href="#$TCHSYS$WIN2D_2000x380" x="-115803.32" y="-215948.24" transform="scale(1,-1) translate(0,431896.48) rotate(-360,-115803.32,-215948.24)">.<g class="blkclass0"><text transform="rotate(0 -480,-316.25) translate(-480,-316.25)" font-size="386.75">C2024</text></g></use>
          <path d="M-103593.32,-210258.24l1160,0" />
          <path d="M-102433.32,-210258.24l0,-380" />
          <path d="M-102433.32,-210638.24l-970,0" />
          <path d="M-93083.32,-210638.24l-970,0" />
          <path d="M-94053.32,-210638.24l0,380" />
          <path d="M-94053.32,-210258.24l1155.06,0" />
          <path d="M-100883.32,-210258.24l1380,0" />
          <path d="M-99503.32,-210258.24l0,-380" />
          <path d="M-99503.32,-210638.24l-1380,0" />
          <path d="M-100883.32,-210638.24l0,380" />
          <path d="M-98703.32,-210258.24l3100,0" />
          <path d="M-95603.32,-210258.24l0,-380" />
          <path d="M-95603.32,-210638.24l-3100,0" />
          <path d="M-98703.32,-210638.24l0,380" />
          <path d="M-85703.32,-211059.13l0,-2970" />
          <path d="M-85703.32,-211059.13l120,0" />
          <path d="M-85703.32,-214029.13l120,0" />
          <path d="M-85583.32,-211059.13l0,-2970" />
          <path d="M-85583.32,-211059.13l1050,0" />
          <path d="M-85583.32,-211329.13l1050,0" />
          <path d="M-85583.32,-211599.13l1050,0" />
          <path d="M-85583.32,-211869.13l1050,0" />
          <path d="M-85583.32,-212139.13l1050,0" />
          <path d="M-85583.32,-212409.13l1050,0" />
          <path d="M-85583.32,-212679.13l1050,0" />
          <path d="M-85583.32,-212949.13l1050,0" />
          <path d="M-85583.32,-213219.13l1050,0" />
          <path d="M-85583.32,-213489.13l1050,0" />
          <path d="M-85583.32,-213759.13l1050,0" />
          <path d="M-85583.32,-214029.13l1050,0" />
          <path d="M-84473.32,-211059.13l0,-2970" />
          <path d="M-84533.32,-211059.13l60,0" />
          <path d="M-82583.32,-214029.13l0,2970" />
          <path d="M-82583.32,-214029.13l-120,0" />
          <path d="M-82583.32,-211059.13l-120,0" />
          <path d="M-82703.32,-214029.13l0,2970" />
          <path d="M-82703.32,-214029.13l-1050,0" />
          <path d="M-82703.32,-213759.13l-1050,0" />
          <path d="M-82703.32,-213489.13l-1050,0" />
          <path d="M-82703.32,-213219.13l-1050,0" />
          <path d="M-82703.32,-212949.13l-1050,0" />
          <path d="M-82703.32,-212679.13l-1050,0" />
          <path d="M-82703.32,-212409.13l-1050,0" />
          <path d="M-82703.32,-212139.13l-1050,0" />
          <path d="M-82703.32,-211869.13l-1050,0" />
          <path d="M-82703.32,-211599.13l-1050,0" />
          <path d="M-82703.32,-211329.13l-1050,0" />
          <path d="M-82703.32,-211059.13l-1050,0" />
          <path d="M-83813.32,-214029.13l0,2970" />
          <path d="M-84533.32,-211059.13l0,-3120" />
          <path d="M-84533.32,-214179.13l780,0" />
          <path d="M-83753.32,-214179.13l0,3270" />
          <path d="M-83753.32,-210909.13l-1950,0" />
          <path d="M-84473.32,-211059.13l0,-3060" />
          <path d="M-84473.32,-214119.13l660,0" />
          <path d="M-83813.32,-214119.13l0,3150" />
          <path d="M-83813.32,-210969.13l-1890,0" />
          <path d="M-84533.32,-211059.13l60,0" />
          <path d="M-85703.32,-210909.13l0,-60" />
          <path d="M-84473.32,-214029.13l660,0" />
          <path d="M-84473.32,-211059.13l660,0" />
          <path d="M-110783.32,-211059.13l0,-2970" />
          <path d="M-110783.32,-211059.13l-120,0" />
          <path d="M-110783.32,-214029.13l-120,0" />
          <path d="M-110903.32,-211059.13l0,-2970" />
          <path d="M-111953.32,-211059.13l1050,0" />
          <path d="M-111953.32,-211329.13l1050,0" />
          <path d="M-111953.32,-211599.13l1050,0" />
          <path d="M-111953.32,-211869.13l1050,0" />
          <path d="M-111953.32,-212139.13l1050,0" />
          <path d="M-111953.32,-212409.13l1050,0" />
          <path d="M-111953.32,-212679.13l1050,0" />
          <path d="M-111953.32,-212949.13l1050,0" />
          <path d="M-111953.32,-213219.13l1050,0" />
          <path d="M-111953.32,-213489.13l1050,0" />
          <path d="M-111953.32,-213759.13l1050,0" />
          <path d="M-111953.32,-214029.13l1050,0" />
          <path d="M-112013.32,-211059.13l0,-2970" />
          <path d="M-112013.32,-211059.13l60,0" />
          <path d="M-113903.32,-214029.13l0,2970" />
          <path d="M-113903.32,-214029.13l120,0" />
          <path d="M-113903.32,-211059.13l120,0" />
          <path d="M-113783.32,-214029.13l0,2970" />
          <path d="M-112733.32,-214029.13l-1050,0" />
          <path d="M-112733.32,-213759.13l-1050,0" />
          <path d="M-112733.32,-213489.13l-1050,0" />
          <path d="M-112733.32,-213219.13l-1050,0" />
          <path d="M-112733.32,-212949.13l-1050,0" />
          <path d="M-112733.32,-212679.13l-1050,0" />
          <path d="M-112733.32,-212409.13l-1050,0" />
          <path d="M-112733.32,-212139.13l-1050,0" />
          <path d="M-112733.32,-211869.13l-1050,0" />
          <path d="M-112733.32,-211599.13l-1050,0" />
          <path d="M-112733.32,-211329.13l-1050,0" />
          <path d="M-112733.32,-211059.13l-1050,0" />
          <path d="M-112673.32,-214029.13l0,2970" />
          <path d="M-112013.32,-211059.13l0,-3060" />
          <path d="M-112013.32,-214119.13l-660,0" />
          <path d="M-112673.32,-214119.13l0,3150" />
          <path d="M-112673.32,-210969.13l1890,0" />
          <path d="M-111953.32,-211059.13l0,-3120" />
          <path d="M-111953.32,-214179.13l-780,0" />
          <path d="M-112733.32,-214179.13l0,3270" />
          <path d="M-112733.32,-210909.13l1950,0" />
          <path d="M-112013.32,-211059.13l60,0" />
          <path d="M-110783.32,-210969.13l0,60" />
          <path d="M-112013.32,-214029.13l-660,0" />
          <path d="M-112013.32,-211059.13l-660,0" />
          <path d="M-107253.32,-201138.24l0,-6620" />
          <path d="M-107053.32,-201138.24l0,-6620" />
          <path d="M-107253.32,-201138.24l200,0" />
          <path d="M-107253.32,-207758.24l200,0" />
          <path d="M-107253.32,-210638.24l0,-5120" />
          <path d="M-107053.32,-210638.24l0,-5120" />
          <path d="M-107253.32,-210638.24l200,0" />
          <path d="M-107253.32,-215758.24l200,0" />
          <path d="M-114283.32,-210638.24l0,-5120" />
          <path d="M-113903.32,-210258.24l0,-5500" />
          <use xlink:href="#$DorLib2D$00000002" x="-75.18" y="-134.16" transform="scale(1550,1550) scale(-1,-1) translate(150.36,268.32)" stroke-width="0.0001%">.<g class="blkclass0"><text transform="translate(-470,-316.25)" font-size="386.75">M1527</text></g></use>
          <path d="M-96513.32,-210638.24l0,-5120" />
          <path d="M-96313.32,-210638.24l0,-5120" />
          <path d="M-96513.32,-210638.24l200,0" />
          <path d="M-96513.32,-215758.24l200,0" />
          <path d="M-89433.32,-210638.24l0,-5120" />
          <path d="M-89233.32,-210638.24l0,-5120" />
          <path d="M-89433.32,-210638.24l200,0" />
          <path d="M-89433.32,-215758.24l200,0" />
          <path d="M-89433.32,-201138.24l0,-6620" />
          <path d="M-89233.32,-201138.24l0,-6620" />
          <path d="M-89433.32,-201138.24l200,0" />
          <path d="M-89433.32,-207758.24l200,0" />
          <path d="M-96513.32,-201138.24l0,-6620" />
          <path d="M-96313.32,-201138.24l0,-6620" />
          <path d="M-96513.32,-201138.24l200,0" />
          <path d="M-96513.32,-207758.24l200,0" />
          <path d="M-100173.32,-201138.24l0,-6620" />
          <path d="M-99973.32,-201138.24l0,-6620" />
          <path d="M-100173.32,-201138.24l200,0" />
          <path d="M-100173.32,-207758.24l200,0" />
          <use xlink:href="#$DorLib2D$00000003" x="-123.879" y="-263.06" transform="scale(800,800) scale(-1,1) translate(247.76,0)" stroke-width="0.0001%">.<g class="blkclass0"><text transform="translate(-255.88,-330.77)" font-size="386.75">M0827</text></g></use>
          <use xlink:href="#$DorLib2D$00000003" x="-134.729" y="-259.935" transform="scale(800,800) scale(1,-1) translate(0,519.87)" stroke-width="0.0001%">.<g class="blkclass0"><text transform="translate(-490,-316.25)" font-size="386.75">M0827</text></g></use>
          <path d="M-82583.32,-210258.24l0,-5500" />
          <path d="M-82203.32,-210638.24l0,-5120" />
          <use xlink:href="#$DorLib2D$00000003" x="-110.754" y="-259.935" transform="scale(800,800) rotate(-180,-110.75,-259.94)" stroke-width="0.0001%">.<g class="blkclass0"><text transform="translate(-490,-316.25)" font-size="386.75">M0827</text></g></use>
          <use xlink:href="#$DorLib2D$00000003" x="-134.729" y="-263.06" transform="scale(800,800)" stroke-width="0.0001%">.<g class="blkclass0"><text transform="translate(-490,613.08)" font-size="386.75">M0827</text></g></use>
          <use xlink:href="#$DorLib2D$00000003" x="-110.754" y="-263.06" transform="scale(800,800) scale(1,-1) translate(0,526.12) rotate(-180,-110.75,-263.06)" stroke-width="0.0001%">.<g class="blkclass0"><text transform="translate(-490,613.08)" font-size="386.75">M0827</text></g></use>
          <use xlink:href="#$DorLib2D$00000003" x="-116.989" y="-259.688" transform="scale(800,800) scale(-1,-1) translate(233.98,519.38) rotate(-180,-116.99,-259.69)" stroke-width="0.0001%">.<g class="blkclass0"><text transform="translate(-462.9,641.63)" font-size="386.75">M0821</text></g></use>
          <use xlink:href="#$DorLib2D$00000003" x="-128.731" y="-259.685" transform="scale(800,800) scale(1,-1) translate(0,519.37) rotate(-180,-128.73,-259.68)" stroke-width="0.0001%">.<g class="blkclass0"><text transform="translate(-427.1,311.16)" font-size="386.75">M0821</text></g></use>
          <use xlink:href="#$DorLib2D$00000003" x="-126.246" y="-259.935" transform="scale(800,800) rotate(-180,-126.25,-259.94)" stroke-width="0.0001%">.<g class="blkclass0"><text transform="translate(-472.1,-478.06)" font-size="386.75">M0827</text></g></use>
          <use xlink:href="#$DorLib2D$00000003" x="-119.394" y="-259.935" transform="scale(800,800) rotate(-180,-119.39,-259.94)" stroke-width="0.0001%">.<g class="blkclass0"><text transform="translate(-472.1,-483.42)" font-size="386.75">M0827</text></g></use>
          <path d="M-100003.26,-210638.24l0,-5120" />
          <path d="M-99803.26,-210638.24l0,-5120" />
          <path d="M-100003.26,-210638.24l200,0" />
          <path d="M-100003.26,-215758.24l200,0" />
        </g>
      </g>
      <g id="assets" fill="none">
        <g id="rm-assets" class="rm-asset">
          <path id="15021;F03;301-302" d="M-117803.32,-207758.24l10550,0l0,6620l-10550,0z" />
          <path id="15021;F03;308-309" d="M-89233.32,-207758.24l10550,0l0,6620l-10550,0z" />
          <path id="15021;F03;305" d="M-99973.32,-207758.24l3460,0l0,6620l-3460,0z" />
          <path id="15021;F03;307" d="M-92768.32,-207758.24l3335,0l0,6620l-3335,0z" />
          <path id="15021;F03;303" d="M-107053.32,-207758.24l3335,0l0,6620l-3335,0z" />
          <path id="15021;F03;306" d="M-96313.32,-207758.24l3295,0l0,6620l-3295,0z" />
          <path id="15021;F03;304" d="M-103467.63,-206608.24l1799.3,0l0,-1150l1495,0l0,6620l-3295,0z" />
          <path id="15021;F03;318" d="M-117803.32,-215758.24l3520,0l0,5120l-3520,0z" />
          <path id="15021;F03;310" d="M-82203.32,-215758.24l3520,0l0,5120l-3520,0z" />
          <path id="15021;F03;315" d="M-103403.32,-215758.24l3400.06,0l0,5120l-3400.06,0z" />
          <path id="15021;F03;314" d="M-99803.26,-215758.24l3289.94,0l0,5120l-3289.94,0z" />
          <path id="15021;F03;316" d="M-107053.32,-215758.24l3270,0l0,5120l-3270,0z" />
          <path id="15021;F03;312" d="M-92703.32,-215758.24l3270,0l0,5120l-3270,0z" />
          <path id="15021;F03;313" d="M-96313.32,-215758.24l3230,0l0,5120l-3230,0z" />
          <path id="15021;F03;311" d="M-89233.32,-215758.24l3150,0l0,5120l-3150,0z" />
          <path id="15021;F03;317" d="M-110403.32,-215758.24l3150,0l0,5120l-3150,0z" />
        </g>
      </g>
    </g>
    <g id="text" font-family="宋体" font-size="650" font-weight="normal" text-style="normal" text-anchor="start" dominant-baseline="alphabetical" fill="#FF0000" xml:space="preserve">
      <g id="layer-name-text">
        <g transform="translate(-117264.57,-206775.95)">
          <text>301</text>
        </g>
        <g transform="translate(-108267.34,-206589.79)">
          <text>302</text>
        </g>
        <g transform="translate(-106220.7,-206589.79)">
          <text>303</text>
        </g>
        <g transform="translate(-101617.92,-206798.61)">
          <text>304</text>
        </g>
        <g transform="translate(-99398.58,-206726.08)">
          <text>305</text>
        </g>
        <g transform="translate(-95891.01,-206755.58)">
          <text>306</text>
        </g>
        <g transform="translate(-91694.57,-206775.95)">
          <text>307</text>
        </g>
        <g transform="translate(-88743.58,-206689.78)">
          <text>308</text>
        </g>
        <g transform="translate(-80659.36,-206655.7)">
          <text>309</text>
        </g>
        <g transform="translate(-81979.32,-211414.61)">
          <text>310</text>
        </g>
        <g transform="translate(-88825.71,-211394.24)">
          <text>311</text>
        </g>
        <g transform="translate(-91725.11,-211394.24)">
          <text>312</text>
        </g>
        <g transform="translate(-95511.39,-211414.61)">
          <text>313</text>
        </g>
        <g transform="translate(-99428.92,-211414.61)">
          <text>314</text>
        </g>
        <g transform="translate(-102344.17,-211277.73)">
          <text>315</text>
        </g>
        <g transform="translate(-106214.17,-211394.24)">
          <text>316</text>
        </g>
        <g transform="translate(-108496.03,-211382.44)">
          <text>317</text>
        </g>
        <g transform="translate(-115606.07,-211674.14)">
          <text>318</text>
        </g>
      </g>
    </g>
    <g id="asset-labels" font-family="Arial" font-weight="bold" font-size="38.1em" text-anchor="middle">
      <g id="rm-labels">
        <g id="l-rm-15021;F03;301-302" transform="translate(-112528.32,-204448.24)">
          <text>301-302</text>
        </g>
        <g id="l-rm-15021;F03;308-309" transform="translate(-83958.32,-204448.24)">
          <text>308-309</text>
        </g>
        <g id="l-rm-15021;F03;305" transform="translate(-98243.32,-204448.24)">
          <text>305</text>
        </g>
        <g id="l-rm-15021;F03;307" transform="translate(-91100.82,-204448.24)">
          <text>307</text>
        </g>
        <g id="l-rm-15021;F03;303" transform="translate(-105385.82,-204448.24)">
          <text>303</text>
        </g>
        <g id="l-rm-15021;F03;306" transform="translate(-94665.82,-204448.24)">
          <text>306</text>
        </g>
        <g id="l-rm-15021;F03;304" transform="translate(-101820.82,-204448.24)">
          <text>304</text>
        </g>
        <g id="l-rm-15021;F03;318" transform="translate(-116043.32,-213198.24)">
          <text>318</text>
        </g>
        <g id="l-rm-15021;F03;310" transform="translate(-80443.32,-213198.24)">
          <text>310</text>
        </g>
        <g id="l-rm-15021;F03;315" transform="translate(-101703.29,-213198.24)">
          <text>315</text>
        </g>
        <g id="l-rm-15021;F03;314" transform="translate(-98158.29,-213198.24)">
          <text>314</text>
        </g>
        <g id="l-rm-15021;F03;316" transform="translate(-105418.32,-213198.24)">
          <text>316</text>
        </g>
        <g id="l-rm-15021;F03;312" transform="translate(-91068.32,-213198.24)">
          <text>312</text>
        </g>
        <g id="l-rm-15021;F03;313" transform="translate(-94698.32,-213198.24)">
          <text>313</text>
        </g>
        <g id="l-rm-15021;F03;311" transform="translate(-87658.32,-213198.24)">
          <text>311</text>
        </g>
        <g id="l-rm-15021;F03;317" transform="translate(-108828.32,-213198.24)">
          <text>317</text>
        </g>
      </g>
    </g>
  </g>
</svg>