<svg version="1.1" xmlns="http://www.w3.org/2000/svg" xmlns:xlink="http://www.w3.org/1999/xlink" viewBox="-130787.28 66991.04 65093 34752">
  <style>.i0 { stroke:#000000; } .i主体 { stroke:#c0c0c0; } .rm { stroke:#0000ff; } .pub_text { stroke:#000000; } .dim_symb { stroke:#00ff00; } .i_tch_wipeout { stroke:#000000; } .i_tch_mask { stroke:#000000; } .gors { stroke:#ff00ff; } .rm-asset { stroke:#0000ff; } .rmtc-asset { stroke:#0000ff; } .rmtc { stroke:#00ffff; } .rm-assettxt { stroke:#0000ff; } .rmtc-assettxt { stroke:#0000ff; }</style>
  <view id="defaultView" viewBox="-130787.28 66991.04 65093 34752" />
  <defs />
  <g id="viewer">
    <g id="mirror" transform="scale(1, -1)" stroke-width="0.09%">
      <g id="background" fill="none">
        <g id="layer-主体" class="i主体">
          <path d="M-92183.32,-84802.52l2000,0l0,-3350l-2000,0z" />
          <path d="M-92133.32,-84852.52l1900,0l0,-3250l-1900,0z" />
          <path d="M-91933.32,-85052.52l1500,0l0,-2850l-1500,0z" />
          <path d="M-85803.32,-74922.52l1565,0" />
          <path d="M-85803.32,-74622.52l1565,0" />
          <path d="M-85803.32,-74322.52l1565,0" />
          <path d="M-85803.32,-74022.52l1565,0" />
          <path d="M-85803.32,-73722.52l1565,0" />
          <path d="M-85803.32,-73422.52l1565,0" />
          <path d="M-85803.32,-73122.52l1565,0" />
          <path d="M-85803.32,-72822.52l1565,0" />
          <path d="M-85803.32,-72522.52l1375,0" />
          <path d="M-85803.32,-72222.52l1375,0" />
          <path d="M-85803.32,-71922.52l1375,0" />
          <path d="M-85803.32,-71622.52l1375,0" />
          <path d="M-84178.32,-72772.52l0,-2180" />
          <path d="M-84238.32,-72772.52l0,-2180" />
          <path d="M-84238.32,-74952.52l60,0" />
          <path d="M-84178.32,-72522.52l1495,0" />
          <path d="M-84178.32,-72822.52l1495,0" />
          <path d="M-84178.32,-73122.52l1495,0" />
          <path d="M-84178.32,-73422.52l1495,0" />
          <path d="M-104303.32,-84802.52l-2000,0l0,-3350l2000,0z" />
          <path d="M-104353.32,-84852.52l-1900,0l0,-3250l1900,0z" />
          <path d="M-104553.32,-85052.52l-1500,0l0,-2850l1500,0z" />
          <path d="M-110683.32,-74922.52l-1565,0" />
          <path d="M-112248.32,-74952.52l-60,0" />
          <path d="M-110683.32,-74622.52l-1565,0" />
          <path d="M-110683.32,-74322.52l-1565,0" />
          <path d="M-110683.32,-74022.52l-1565,0" />
          <path d="M-110683.32,-73722.52l-1565,0" />
          <path d="M-110683.32,-73422.52l-1565,0" />
          <path d="M-110683.32,-73122.52l-1565,0" />
          <path d="M-110683.32,-72822.52l-1565,0" />
          <path d="M-110683.32,-72522.52l-1375,0" />
          <path d="M-110683.32,-72222.52l-1375,0" />
          <path d="M-110683.32,-71922.52l-1375,0" />
          <path d="M-110683.32,-71622.52l-1375,0" />
          <path d="M-112308.32,-72772.52l0,-2180" />
          <path d="M-112248.32,-72772.52l0,-2180" />
          <path d="M-112308.32,-72522.52l-1495,0" />
          <path d="M-112308.32,-72822.52l-1495,0" />
          <path d="M-112308.32,-73122.52l-1495,0" />
          <path d="M-112308.32,-73422.52l-1495,0" />
          <path d="M-104553.32,-88152.52l0,-200" />
          <path d="M-91933.32,-88152.52l0,-200" />
          <path d="M-91933.32,-88352.52l-12620,0" />
          <path d="M-92183.32,-88052.52l-12120,0" />
          <path d="M-92183.32,-87752.52l-12120,0" />
          <path d="M-92183.32,-87452.52l-12120,0" />
          <path d="M-92183.32,-87152.52l-12120,0" />
          <path d="M-100433.32,-87152.52l500,0l0,500l-500,0z" />
          <circle r="150" cx="-100183.32" cy="-86902.52" />
          <path d="M-96433.32,-87152.52l500,0l0,500l-500,0z" />
          <circle r="150" cx="-96183.32" cy="-86902.52" />
          <path d="M-93933.32,-87152.52l500,0l0,500l-500,0z" />
          <circle r="150" cx="-93683.32" cy="-86902.52" />
          <path d="M-102933.32,-87152.52l500,0l0,500l-500,0z" />
          <circle r="150" cx="-102683.32" cy="-86902.52" />
          <path d="M-116603.32,-89702.52l900,0" />
          <path d="M-116603.32,-86552.52l900,0" />
          <path d="M-115703.32,-86552.52l0,-3150" />
          <path d="M-116003.32,-86552.52l0,-3150" />
          <path d="M-116303.32,-86552.52l0,-3150" />
          <path d="M-116603.32,-86752.52l0,-2750" />
          <path d="M-116903.32,-86752.52l0,-2750" />
          <path d="M-67803.32,-75302.52l1200,0l0,1000l-1200,0z" />
          <path d="M-67653.32,-75152.52l900,0l0,700l-900,0z" />
          <path d="M-67803.32,-78422.52l1200,0l0,1000l-1200,0z" />
          <path d="M-67653.32,-78272.52l900,0l0,700l-900,0z" />
          <path d="M-66603.32,-77802.52l900,0" />
          <path d="M-65703.32,-77802.52l0,2880" />
          <path d="M-65703.32,-74922.52l-900,0" />
          <path d="M-66003.32,-74922.52l0,-2880" />
          <path d="M-66303.32,-74922.52l0,-2880" />
          <path d="M-66603.32,-75302.52l0,-2120" />
          <path d="M-66903.32,-75302.52l0,-2120" />
          <path d="M-67803.32,-75487.52l0,-1750" />
          <path d="M-67203.32,-75302.52l0,-2120" />
          <path d="M-128683.32,-75302.52l-1200,0l0,1000l1200,0z" />
          <path d="M-128833.32,-75152.52l-900,0l0,700l900,0z" />
          <path d="M-128683.32,-78422.52l-1200,0l0,1000l1200,0z" />
          <path d="M-128833.32,-78272.52l-900,0l0,700l900,0z" />
          <path d="M-129883.32,-77802.52l-900,0" />
          <path d="M-130783.32,-77802.52l0,2880" />
          <path d="M-130783.32,-74922.52l900,0" />
          <path d="M-130483.32,-74922.52l0,-2880" />
          <path d="M-130183.32,-74922.52l0,-2880" />
          <path d="M-129883.32,-75302.52l0,-2120" />
          <path d="M-129583.32,-75302.52l0,-2120" />
          <path d="M-128683.32,-75487.52l0,-1750" />
          <path d="M-129283.32,-75278.49l0,-2144.03" />
          <path d="M-117803.32,-85552.52l1200,0l0,-1200l-1200,0z" />
          <path d="M-117703.32,-85652.52l1000,0l0,-1000l-1000,0z" />
          <path d="M-117803.32,-90702.52l1200,0l0,1200l-1200,0z" />
          <path d="M-117703.32,-90602.52l1000,0l0,1000l-1000,0z" />
          <path d="M-79883.32,-86552.52l-900,0" />
          <path d="M-79883.32,-89702.52l-900,0" />
          <path d="M-80783.32,-86552.52l0,-3150" />
          <path d="M-80483.32,-86552.52l0,-3150" />
          <path d="M-80183.32,-86552.52l0,-3150" />
          <path d="M-79883.32,-86752.52l0,-2750" />
          <path d="M-79583.32,-86752.52l0,-2750" />
          <path d="M-78683.32,-85552.52l-1200,0l0,-1200l1200,0z" />
          <path d="M-78783.32,-85652.52l-1000,0l0,-1000l1000,0z" />
          <path d="M-78683.32,-90702.52l-1200,0l0,1200l1200,0z" />
          <path d="M-78783.32,-90602.52l-1000,0l0,1000l1000,0z" />
          <path d="M-79283.32,-86752.52l0,-2750" />
          <path d="M-117203.32,-86752.52l0,-2750" />
          <path d="M-117803.32,-87252.52l0,-1750" />
          <path d="M-78683.32,-87252.52l0,-1750" />
          <path d="M-78923.32,-71987.31a40,40 0 0,1 40,40l0,199.57a40,40 0 0,1 -40,40l-439.66,0a110,110 0 0,1 -110,-110l0,-59.57a110,110 0 0,1 110,-110l439.66,0" />
          <path d="M-78923.32,-71957.31a10,10 0 0,1 10,10" />
          <path d="M-78913.32,-71747.74a10,10 0 0,1 -10,10" />
          <path d="M-78913.32,-71947.31l0,199.57" />
          <circle r="20" cx="-79241.94" cy="-71847.52" />
          <path d="M-79352.98,-71987.31l0,279.57" />
          <path d="M-79352.98,-71957.31l429.66,0" />
          <path d="M-78923.32,-71737.74l-429.66,0" />
          <path d="M-78923.32,-71087.31a40,40 0 0,1 40,40l0,199.57a40,40 0 0,1 -40,40l-439.66,0a110,110 0 0,1 -110,-110l0,-59.57a110,110 0 0,1 110,-110l439.66,0" />
          <path d="M-78923.32,-71057.31a10,10 0 0,1 10,10" />
          <path d="M-78913.32,-70847.74a10,10 0 0,1 -10,10" />
          <path d="M-78913.32,-71047.31l0,199.57" />
          <circle r="20" cx="-79241.94" cy="-70947.52" />
          <path d="M-79352.98,-71087.31l0,279.57" />
          <path d="M-79352.98,-71057.31l429.66,0" />
          <path d="M-78923.32,-70837.74l-429.66,0" />
          <circle r="50" cx="-78933.32" cy="-70112.52" />
          <path d="M-78964.56,-70151.57l-168.77,-210.96" />
          <path d="M-78902.09,-70151.57l168.77,-210.96" />
          <path d="M-79133.32,-70362.52l400,0l0,500l-400,0z" />
          <path d="M-79183.32,-70412.52l500,0l0,600l-500,0z" />
          <path d="M-79133.32,-69862.52l168.77,-210.96" />
          <path d="M-78733.32,-69862.52l-168.77,-210.96" />
          <path d="M-82072.74,-70321.81a80,80 0 0,1 0,138.56m0,-138.56l-142.14,-92.61m-27.3,-8.11a50,50 0 0,1 27.3,8.11m-27.3,-8.11l-61.15,0l0,340l61.15,0m27.3,-8.11a50,50 0 0,1 -27.3,8.11m27.3,-8.11l142.14,-92.61" />
          <path d="M-82087.74,-70209.22l-124.12,80.87" />
          <path d="M-82227.32,-70368.32l0,231.59" />
          <path d="M-82087.74,-70295.83a50,50 0 0,1 0,86.6" />
          <circle r="20" cx="-82126.34" cy="-70252.52" />
          <circle r="17.67" cx="-82265.32" cy="-70252.52" />
          <path d="M-82227.32,-70368.32a10,10 0 0,1 15.46,-8.38" />
          <path d="M-82211.86,-70376.7l124.12,80.87" />
          <path d="M-82211.86,-70128.35a10,10 0 0,1 -15.46,-8.38" />
          <path d="M-82072.74,-71121.81a80,80 0 0,1 0,138.56m0,-138.56l-142.14,-92.61m-27.3,-8.11a50,50 0 0,1 27.3,8.11m-27.3,-8.11l-61.15,0l0,340l61.15,0m27.3,-8.11a50,50 0 0,1 -27.3,8.11m27.3,-8.11l142.14,-92.61" />
          <path d="M-82087.74,-71009.22l-124.12,80.87" />
          <path d="M-82227.32,-71168.32l0,231.59" />
          <path d="M-82087.74,-71095.83a50,50 0 0,1 0,86.6" />
          <circle r="20" cx="-82126.34" cy="-71052.52" />
          <circle r="17.67" cx="-82265.32" cy="-71052.52" />
          <path d="M-82227.32,-71168.32a10,10 0 0,1 15.46,-8.38" />
          <path d="M-82211.86,-71176.7l124.12,80.87" />
          <path d="M-82211.86,-70928.35a10,10 0 0,1 -15.46,-8.38" />
          <path d="M-82072.74,-71921.81a80,80 0 0,1 0,138.56m0,-138.56l-142.14,-92.61m-27.3,-8.11a50,50 0 0,1 27.3,8.11m-27.3,-8.11l-61.15,0l0,340l61.15,0m27.3,-8.11a50,50 0 0,1 -27.3,8.11m27.3,-8.11l142.14,-92.61" />
          <path d="M-82087.74,-71809.22l-124.12,80.87" />
          <path d="M-82227.32,-71968.32l0,231.59" />
          <path d="M-82087.74,-71895.83a50,50 0 0,1 0,86.6" />
          <circle r="20" cx="-82126.34" cy="-71852.52" />
          <circle r="17.67" cx="-82265.32" cy="-71852.52" />
          <path d="M-82227.32,-71968.32a10,10 0 0,1 15.46,-8.38" />
          <path d="M-82211.86,-71976.7l124.12,80.87" />
          <path d="M-82211.86,-71728.35a10,10 0 0,1 -15.46,-8.38" />
          <path d="M-82072.74,-72721.81a80,80 0 0,1 0,138.56m0,-138.56l-142.14,-92.61m-27.3,-8.11a50,50 0 0,1 27.3,8.11m-27.3,-8.11l-61.15,0l0,340l61.15,0m27.3,-8.11a50,50 0 0,1 -27.3,8.11m27.3,-8.11l142.14,-92.61" />
          <path d="M-82087.74,-72609.22l-124.12,80.87" />
          <path d="M-82227.32,-72768.32l0,231.59" />
          <path d="M-82087.74,-72695.83a50,50 0 0,1 0,86.6" />
          <circle r="20" cx="-82126.34" cy="-72652.52" />
          <circle r="17.67" cx="-82265.32" cy="-72652.52" />
          <path d="M-82227.32,-72768.32a10,10 0 0,1 15.46,-8.38" />
          <path d="M-82211.86,-72776.7l124.12,80.87" />
          <path d="M-82211.86,-72528.35a10,10 0 0,1 -15.46,-8.38" />
          <path d="M-82108.85,-73816.86a314.4,314.4 0 0,1 0,628.77l-194.48,0l0,-628.77l194.48,0" />
          <circle r="18.67" cx="-82256.86" cy="-73413" />
          <circle r="23.67" cx="-82256.86" cy="-73413" />
          <circle r="23.67" cx="-82256.86" cy="-73592.05" />
          <circle r="18.67" cx="-82256.86" cy="-73592.05" />
          <path d="M-82293.67,-73524.02l39.86,-6.39" />
          <path d="M-82275.18,-73481.43l0,-42.1" />
          <path d="M-82293.67,-73480.94l0,-43.16" />
          <path d="M-82293.67,-73480.94l39.86,6.39" />
          <path d="M-82142.63,-73484.95l0,-35.06" />
          <path d="M-82155.63,-73484.6l0,-35.75" />
          <path d="M-82253.81,-73530.4l111.18,10.39" />
          <path d="M-82293.67,-73524.02l151.04,4.01" />
          <path d="M-82293.67,-73480.94l151.04,-4.01" />
          <path d="M-82253.81,-73474.56l111.18,-10.39" />
          <circle r="20.78" cx="-82045.16" cy="-73502.48" />
          <circle r="15.78" cx="-82045.16" cy="-73502.48" />
          <path d="M-82204.49,-73479.17l0.11,1.37l0.11,1.37l0.12,1.37l0.12,1.36l0.13,1.36l0.14,1.36l0.14,1.36l0.15,1.36l0.16,1.36l0.16,1.36l0.17,1.36l0.17,1.35l0.18,1.35l0.19,1.35l0.19,1.35l0.2,1.35l0.2,1.35l0.21,1.34l0.22,1.34l0.22,1.34l0.23,1.34l0.23,1.34l0.24,1.34l0.25,1.33l0.25,1.33l0.26,1.33l0.26,1.33l0.27,1.32l0.27,1.32l0.28,1.32l0.29,1.32l0.29,1.31l0.3,1.31l0.3,1.31l0.31,1.31l0.32,1.3l0.32,1.3l0.33,1.3l0.33,1.3l0.34,1.29l0.34,1.29l0.35,1.29l0.36,1.28l0.36,1.28l0.37,1.28l0.37,1.28l0.38,1.27l0.38,1.27l0.39,1.27l0.4,1.26l0.4,1.26l0.41,1.26l0.41,1.25l0.42,1.25l0.42,1.25l0.43,1.24l0.43,1.24l0.44,1.23l0.44,1.23l0.45,1.23l0.46,1.22l0.46,1.22l0.47,1.22l0.47,1.21l0.48,1.21l0.48,1.2l0.49,1.2l0.49,1.2l0.5,1.19l0.5,1.19l0.51,1.18l0.51,1.18l0.52,1.17l0.52,1.17l0.53,1.16l0.53,1.16l0.54,1.16l0.54,1.15l0.55,1.15l0.55,1.14l0.56,1.14l0.56,1.13l0.57,1.13l0.57,1.12l0.58,1.12l0.58,1.11l0.59,1.11l0.59,1.1l0.6,1.1l0.6,1.09l0.61,1.09l0.61,1.08l0.62,1.08l0.62,1.07l0.62,1.07l0.63,1.06l0.63,1.06l0.64,1.05l0.64,1.05l0.65,1.04l0.65,1.04l0.66,1.03l0.66,1.02l0.66,1.02l0.67,1.01l0.67,1.01l0.68,1l0.68,1l0.68,0.99l0.69,0.98l0.69,0.98l0.7,0.97l0.7,0.97l0.71,0.96l0.71,0.96l0.71,0.95l0.72,0.94l0.72,0.94l0.72,0.93l0.73,0.93l0.73,0.92l0.74,0.91l0.74,0.91l0.74,0.9l0.75,0.89l0.75,0.89l0.75,0.88l0.76,0.88l0.76,0.87l0.76,0.86l0.77,0.86l0.77,0.85l0.78,0.84l0.78,0.84l0.78,0.83l0.78,0.82l0.79,0.82l0.79,0.81l0.79,0.8l0.8,0.8l0.8,0.79l0.8,0.78l0.81,0.78l0.81,0.77l0.81,0.76l0.82,0.76l0.82,0.75l0.82,0.74l0.82,0.74l0.83,0.73l0.83,0.72l0.83,0.72l0.84,0.71l0.84,0.7l0.84,0.7l0.84,0.69l0.85,0.68l0.85,0.67l0.85,0.67l0.85,0.66l0.86,0.65l0.86,0.65l0.86,0.64l0.86,0.63l0.87,0.63l0.87,0.62l0.87,0.61l0.87,0.6l0.87,0.6l0.88,0.59l0.88,0.58l0.88,0.58l0.88,0.57l0.88,0.56l0.89,0.55l0.89,0.55l0.89,0.54l0.89,0.53l0.89,0.52l0.9,0.52l0.9,0.51l0.9,0.5l0.9,0.5l0.9,0.49l0.9,0.48l0.91,0.47l0.91,0.47l0.91,0.46l0.91,0.45l0.91,0.44l0.91,0.44l0.92,0.43l0.92,0.42l0.92,0.41l0.92,0.41l0.92,0.4l0.92,0.39l0.92,0.39l0.92,0.38l0.93,0.37l0.93,0.36l0.93,0.36l0.93,0.35l0.93,0.34l0.93,0.33l0.93,0.33l0.93,0.32l0.93,0.31l0.93,0.3l0.94,0.3l0.94,0.29l0.94,0.28l0.94,0.27l0.94,0.27l0.94,0.26l0.94,0.25l0.94,0.24l0.94,0.24l0.94,0.23l0.94,0.22l0.94,0.21l0.95,0.21l0.95,0.2l0.95,0.19l0.95,0.19l0.95,0.18l0.95,0.17l0.95,0.16l0.95,0.16l0.95,0.15l0.95,0.14l0.95,0.13l0.95,0.13l0.95,0.12l0.95,0.11l0.95,0.1l0.95,0.1l0.95,0.09l0.95,0.08l0.95,0.07l0.95,0.07l0.95,0.06l0.95,0.05l0.95,0.04l0.95,0.04l0.95,0.03l0.95,0.02l0.95,0.01l0.95,0.01l0.95,0l0.95,-0.01l0.95,-0.01l0.95,-0.02l0.95,-0.03l0.95,-0.04l0.95,-0.04l0.95,-0.05l0.95,-0.06l0.95,-0.07l0.95,-0.07l0.95,-0.08l0.95,-0.09l0.95,-0.1l0.95,-0.1l0.95,-0.11l0.95,-0.12l0.95,-0.13l0.95,-0.13l0.95,-0.14l0.95,-0.15l0.95,-0.16l0.95,-0.16l0.95,-0.17l0.95,-0.18l0.95,-0.19l0.95,-0.19l0.95,-0.2l0.94,-0.21l0.94,-0.22l0.94,-0.22l0.94,-0.23l0.94,-0.24l0.94,-0.24l0.94,-0.25l0.94,-0.26l0.94,-0.27l0.94,-0.27l0.94,-0.28l0.94,-0.29l0.94,-0.3l0.93,-0.3l0.93,-0.31l0.93,-0.32l0.93,-0.33l0.93,-0.33l0.93,-0.34l0.93,-0.35l0.93,-0.36l0.93,-0.36l0.93,-0.37l0.92,-0.38l0.92,-0.39l0.92,-0.39l0.92,-0.4l0.92,-0.41l0.92,-0.42l0.92,-0.42l0.91,-0.43l0.91,-0.44l0.91,-0.44l0.91,-0.45l0.91,-0.46l0.91,-0.47l0.91,-0.47l0.9,-0.48l0.9,-0.49l0.9,-0.5l0.9,-0.5l0.9,-0.51l0.9,-0.52l0.89,-0.52l0.89,-0.53l0.89,-0.54l0.89,-0.55l0.89,-0.55l0.88,-0.56l0.88,-0.57l0.88,-0.58l0.88,-0.58l0.88,-0.59l0.87,-0.6l0.87,-0.6l0.87,-0.61l0.87,-0.62l0.87,-0.63l0.86,-0.63l0.86,-0.64l0.86,-0.65l0.86,-0.65l0.85,-0.66l0.85,-0.67l0.85,-0.67l0.85,-0.68l0.84,-0.69l0.84,-0.7l0.84,-0.7l0.84,-0.71l0.83,-0.72l0.83,-0.72l0.83,-0.73l0.82,-0.74l0.82,-0.74l0.82,-0.75l0.82,-0.76l0.81,-0.76l0.81,-0.77l0.81,-0.78l0.8,-0.78l0.8,-0.79l0.8,-0.8l0.79,-0.8l0.79,-0.81l0.79,-0.82l0.78,-0.82l0.78,-0.83l0.78,-0.84l0.77,-0.84l0.77,-0.85l0.77,-0.86l0.76,-0.86l0.76,-0.87l0.76,-0.88l0.75,-0.88l0.75,-0.89l0.75,-0.89l0.74,-0.9l0.74,-0.91l0.74,-0.91l0.73,-0.92l0.73,-0.93l0.72,-0.93l0.72,-0.94l0.72,-0.94l0.71,-0.95l0.71,-0.96l0.71,-0.96l0.7,-0.97l0.7,-0.97l0.69,-0.98l0.69,-0.98l0.68,-0.99l0.68,-1l0.68,-1l0.67,-1.01l0.67,-1.01l0.66,-1.02l0.66,-1.02l0.66,-1.03l0.65,-1.04l0.65,-1.04l0.64,-1.05l0.64,-1.05l0.63,-1.06l0.63,-1.06l0.62,-1.07l0.62,-1.07l0.61,-1.08l0.61,-1.08l0.61,-1.09l0.6,-1.09l0.6,-1.1l0.59,-1.1l0.59,-1.11l0.58,-1.11l0.58,-1.12l0.57,-1.12l0.57,-1.13l0.56,-1.13l0.56,-1.14l0.55,-1.14l0.55,-1.15l0.54,-1.15l0.54,-1.16l0.53,-1.16l0.53,-1.17l0.52,-1.17l0.52,-1.17l0.51,-1.18l0.51,-1.18l0.5,-1.19l0.5,-1.19l0.49,-1.2l0.49,-1.2l0.48,-1.2l0.48,-1.21l0.47,-1.21l0.47,-1.22l0.46,-1.22l0.45,-1.22l0.45,-1.23l0.44,-1.23l0.44,-1.23l0.43,-1.24l0.43,-1.24l0.42,-1.25l0.42,-1.25l0.41,-1.25l0.41,-1.26l0.4,-1.26l0.39,-1.26l0.39,-1.27l0.38,-1.27l0.38,-1.27l0.37,-1.28l0.37,-1.28l0.36,-1.28l0.36,-1.28l0.35,-1.29l0.34,-1.29l0.34,-1.29l0.33,-1.3l0.33,-1.3l0.32,-1.3l0.32,-1.3l0.31,-1.31l0.3,-1.31l0.3,-1.31l0.29,-1.31l0.29,-1.32l0.28,-1.32l0.27,-1.32l0.27,-1.32l0.26,-1.33l0.26,-1.33l0.25,-1.33l0.25,-1.33l0.24,-1.34l0.23,-1.34l0.23,-1.34l0.22,-1.34l0.22,-1.34l0.21,-1.34l0.2,-1.35l0.2,-1.35l0.19,-1.35l0.19,-1.35l0.18,-1.35l0.17,-1.35l0.17,-1.36l0.16,-1.36l0.15,-1.36l0.15,-1.36l0.14,-1.36l0.14,-1.36l0.13,-1.36l0.12,-1.36l0.12,-1.37l0.11,-1.37l0.11,-1.37l0.1,-1.37l0.09,-1.37l0.09,-1.37l0.08,-1.37l0.08,-1.37l0.07,-1.37l0.06,-1.37l0.06,-1.37l0.05,-1.37l0.04,-1.37l0.04,-1.37l0.03,-1.37l0.03,-1.37l0.02,-1.37l0.01,-1.37l0.01,-1.37l0,-1.38l0,-1.38l-0.01,-1.37l-0.02,-1.37l-0.02,-1.37l-0.03,-1.37l-0.03,-1.37l-0.04,-1.37l-0.05,-1.37l-0.05,-1.37l-0.06,-1.37l-0.07,-1.37l-0.07,-1.37l-0.08,-1.37l-0.08,-1.37l-0.09,-1.37l-0.1,-1.37l-0.1,-1.37l-0.11,-1.37l-0.11,-1.37l-0.12,-1.36l-0.13,-1.36l-0.13,-1.36l-0.14,-1.36l-0.15,-1.36l-0.15,-1.36l-0.16,-1.36l-0.16,-1.36l-0.17,-1.36l-0.18,-1.35l-0.18,-1.35l-0.19,-1.35l-0.19,-1.35l-0.2,-1.35l-0.21,-1.35l-0.21,-1.34l-0.22,-1.34l-0.22,-1.34l-0.23,-1.34l-0.24,-1.34l-0.24,-1.33l-0.25,-1.33l-0.25,-1.33l-0.26,-1.33l-0.27,-1.33l-0.27,-1.32l-0.28,-1.32l-0.28,-1.32l-0.29,-1.32l-0.29,-1.31l-0.3,-1.31l-0.31,-1.31l-0.31,-1.31l-0.32,-1.3l-0.32,-1.3l-0.33,-1.3l-0.33,-1.3l-0.34,-1.29l-0.35,-1.29l-0.35,-1.29l-0.36,-1.28l-0.36,-1.28l-0.37,-1.28l-0.37,-1.27l-0.38,-1.27l-0.39,-1.27l-0.39,-1.26l-0.4,-1.26l-0.4,-1.26l-0.41,-1.25l-0.41,-1.25l-0.42,-1.25l-0.42,-1.24l-0.43,-1.24l-0.44,-1.24l-0.44,-1.23l-0.45,-1.23l-0.45,-1.23l-0.46,-1.22l-0.46,-1.22l-0.47,-1.21l-0.47,-1.21l-0.48,-1.21l-0.48,-1.2l-0.49,-1.2l-0.49,-1.19l-0.5,-1.19l-0.5,-1.19l-0.51,-1.18l-0.51,-1.18l-0.52,-1.17l-0.52,-1.17l-0.53,-1.16l-0.53,-1.16l-0.54,-1.15l-0.54,-1.15l-0.55,-1.15l-0.55,-1.14l-0.56,-1.14l-0.56,-1.13l-0.57,-1.13l-0.57,-1.12l-0.58,-1.12l-0.58,-1.11l-0.59,-1.11l-0.59,-1.1l-0.6,-1.1l-0.6,-1.09l-0.61,-1.09l-0.61,-1.08l-0.62,-1.08l-0.62,-1.07l-0.63,-1.07l-0.63,-1.06l-0.63,-1.06l-0.64,-1.05l-0.64,-1.04l-0.65,-1.04l-0.65,-1.03l-0.66,-1.03l-0.66,-1.02l-0.67,-1.02l-0.67,-1.01l-0.67,-1.01l-0.68,-1l-0.68,-0.99l-0.69,-0.99l-0.69,-0.98l-0.69,-0.98l-0.7,-0.97l-0.7,-0.97l-0.71,-0.96l-0.71,-0.95l-0.71,-0.95l-0.72,-0.94l-0.72,-0.94l-0.73,-0.93l-0.73,-0.92l-0.73,-0.92l-0.74,-0.91l-0.74,-0.9l-0.74,-0.9l-0.75,-0.89l-0.75,-0.89l-0.76,-0.88l-0.76,-0.87l-0.76,-0.87l-0.77,-0.86l-0.77,-0.85l-0.77,-0.85l-0.78,-0.84l-0.78,-0.83l-0.78,-0.83l-0.79,-0.82l-0.79,-0.81l-0.79,-0.81l-0.8,-0.8l-0.8,-0.8l-0.8,-0.79l-0.81,-0.78l-0.81,-0.78l-0.81,-0.77l-0.81,-0.76l-0.82,-0.75l-0.82,-0.75l-0.82,-0.74l-0.83,-0.73l-0.83,-0.73l-0.83,-0.72l-0.83,-0.71l-0.84,-0.71l-0.84,-0.7l-0.84,-0.69l-0.84,-0.69l-0.85,-0.68l-0.85,-0.67l-0.85,-0.67l-0.85,-0.66l-0.86,-0.65l-0.86,-0.64l-0.86,-0.64l-0.86,-0.63l-0.87,-0.62l-0.87,-0.62l-0.87,-0.61l-0.87,-0.6l-0.87,-0.59l-0.88,-0.59l-0.88,-0.58l-0.88,-0.57l-0.88,-0.57l-0.89,-0.56l-0.89,-0.55l-0.89,-0.54l-0.89,-0.54l-0.89,-0.53l-0.89,-0.52l-0.9,-0.51l-0.9,-0.51l-0.9,-0.5l-0.9,-0.49l-0.9,-0.49l-0.9,-0.48l-0.91,-0.47l-0.91,-0.46l-0.91,-0.46l-0.91,-0.45l-0.91,-0.44l-0.91,-0.43l-0.92,-0.43l-0.92,-0.42l-0.92,-0.41l-0.92,-0.4l-0.92,-0.4l-0.92,-0.39l-0.92,-0.38l-0.92,-0.38l-0.93,-0.37l-0.93,-0.36l-0.93,-0.35l-0.93,-0.35l-0.93,-0.34l-0.93,-0.33l-0.93,-0.32l-0.93,-0.32l-0.93,-0.31l-0.94,-0.3l-0.94,-0.29l-0.94,-0.29l-0.94,-0.28l-0.94,-0.27l-0.94,-0.26l-0.94,-0.26l-0.94,-0.25l-0.94,-0.24l-0.94,-0.23l-0.94,-0.23l-0.94,-0.22l-0.94,-0.21l-0.95,-0.2l-0.95,-0.2l-0.95,-0.19l-0.95,-0.18l-0.95,-0.18l-0.95,-0.17l-0.95,-0.16l-0.95,-0.15l-0.95,-0.15l-0.95,-0.14l-0.95,-0.13l-0.95,-0.12l-0.95,-0.12l-0.95,-0.11l-0.95,-0.1l-0.95,-0.09l-0.95,-0.09l-0.95,-0.08l-0.95,-0.07l-0.95,-0.06l-0.95,-0.06l-0.95,-0.05l-0.95,-0.04l-0.95,-0.03l-0.95,-0.03l-0.95,-0.02l-0.95,-0.01l-0.95,0l-0.95,0l-0.95,0.01l-0.95,0.02l-0.95,0.02l-0.95,0.03l-0.95,0.04l-0.95,0.05l-0.95,0.05l-0.95,0.06l-0.95,0.07l-0.95,0.08l-0.95,0.08l-0.95,0.09l-0.95,0.1l-0.95,0.11l-0.95,0.11l-0.95,0.12l-0.95,0.13l-0.95,0.14l-0.95,0.14l-0.95,0.15l-0.95,0.16l-0.95,0.17l-0.95,0.17l-0.95,0.18l-0.95,0.19l-0.95,0.2l-0.95,0.2l-0.94,0.21l-0.94,0.22l-0.94,0.23l-0.94,0.23l-0.94,0.24l-0.94,0.25l-0.94,0.25l-0.94,0.26l-0.94,0.27l-0.94,0.28l-0.94,0.28l-0.94,0.29l-0.94,0.3l-0.93,0.31l-0.93,0.31l-0.93,0.32l-0.93,0.33l-0.93,0.34l-0.93,0.34l-0.93,0.35l-0.93,0.36l-0.93,0.37l-0.92,0.37l-0.92,0.38l-0.92,0.39l-0.92,0.4l-0.92,0.4l-0.92,0.41l-0.92,0.42l-0.92,0.42l-0.91,0.43l-0.91,0.44l-0.91,0.45l-0.91,0.45l-0.91,0.46l-0.91,0.47l-0.91,0.48l-0.9,0.48l-0.9,0.49l-0.9,0.5l-0.9,0.51l-0.9,0.51l-0.9,0.52l-0.89,0.53l-0.89,0.53l-0.89,0.54l-0.89,0.55l-0.89,0.56l-0.88,0.56l-0.88,0.57l-0.88,0.58l-0.88,0.59l-0.88,0.59l-0.87,0.6l-0.87,0.61l-0.87,0.61l-0.87,0.62l-0.86,0.63l-0.86,0.63l-0.86,0.64l-0.86,0.65l-0.86,0.66l-0.85,0.66l-0.85,0.67l-0.85,0.68l-0.85,0.68l-0.84,0.69l-0.84,0.7l-0.84,0.71l-0.83,0.71l-0.83,0.72l-0.83,0.73l-0.83,0.73l-0.82,0.74l-0.82,0.75l-0.82,0.75l-0.81,0.76l-0.81,0.77l-0.81,0.77l-0.81,0.78l-0.8,0.79l-0.8,0.79l-0.8,0.8l-0.79,0.81l-0.79,0.81l-0.79,0.82l-0.78,0.83l-0.78,0.83l-0.78,0.84l-0.77,0.85l-0.77,0.85l-0.77,0.86l-0.76,0.87l-0.76,0.87l-0.76,0.88l-0.75,0.88l-0.75,0.89l-0.75,0.9l-0.74,0.9l-0.74,0.91l-0.73,0.92l-0.73,0.92l-0.73,0.93l-0.72,0.93l-0.72,0.94l-0.72,0.95l-0.71,0.95l-0.71,0.96l-0.7,0.96l-0.7,0.97l-0.7,0.98l-0.69,0.98l-0.69,0.99l-0.68,0.99l-0.68,1l-0.68,1l-0.67,1.01l-0.67,1.02l-0.66,1.02l-0.66,1.03l-0.65,1.03l-0.65,1.04l-0.64,1.04l-0.64,1.05l-0.64,1.05l-0.63,1.06l-0.63,1.06l-0.62,1.07l-0.62,1.07l-0.61,1.08l-0.61,1.09l-0.6,1.09l-0.6,1.1l-0.59,1.1l-0.59,1.11l-0.59,1.11l-0.58,1.12l-0.58,1.12l-0.57,1.13l-0.57,1.13l-0.56,1.13l-0.56,1.14l-0.55,1.14l-0.55,1.15l-0.54,1.15l-0.54,1.16l-0.53,1.16l-0.53,1.17l-0.52,1.17l-0.52,1.18l-0.51,1.18l-0.51,1.18l-0.5,1.19l-0.5,1.19l-0.49,1.2l-0.48,1.2l-0.48,1.2l-0.47,1.21l-0.47,1.21l-0.46,1.22l-0.46,1.22l-0.45,1.22l-0.45,1.23l-0.44,1.23l-0.44,1.24l-0.43,1.24l-0.43,1.24l-0.42,1.25l-0.42,1.25l-0.41,1.25l-0.4,1.26l-0.4,1.26l-0.39,1.26l-0.39,1.27l-0.38,1.27l-0.38,1.27l-0.37,1.28l-0.36,1.28l-0.36,1.28l-0.35,1.29l-0.35,1.29l-0.34,1.29l-0.34,1.29l-0.33,1.3l-0.32,1.3l-0.32,1.3l-0.31,1.31l-0.31,1.31l-0.3,1.31l-0.3,1.31l-0.29,1.32l-0.28,1.32l-0.28,1.32l-0.27,1.32l-0.27,1.33l-0.26,1.33l-0.13,0.67l-0.13,0.67l-0.13,0.67l-0.12,0.68l-0.12,0.68l-0.12,0.69l-0.06,0.35l-0.06,0.35l-0.06,0.35l-0.06,0.36l-0.06,0.36l-0.06,0.36l-0.06,0.36l-0.06,0.37l-0.06,0.37l-0.06,0.37l-0.06,0.38l-0.06,0.38l-0.06,0.39l-0.06,0.39l-0.06,0.39l-0.06,0.4l-0.06,0.4l-0.06,0.41l-0.06,0.41l-0.06,0.42l-0.06,0.42l-0.06,0.43l-0.06,0.43l-0.06,0.44l-0.06,0.45l-0.06,0.45l-0.06,0.46l-0.06,0.46l-0.06,0.47l-0.06,0.48l-0.06,0.48l-0.06,0.49l-0.06,0.5l-0.06,0.5l-0.06,0.51l-0.06,0.52l-0.06,0.53l-0.06,0.53l-0.03,0.27l-0.03,0.27l-0.03,0.27l-0.03,0.28l-0.03,0.28l-0.03,0.28l-0.03,0.28l-0.03,0.28l-0.03,0.29l-0.03,0.29l-0.03,0.29l-0.03,0.29l-0.03,0.3l-0.03,0.3l-0.03,0.3l-0.03,0.3l-0.03,0.3l-0.03,0.31l-0.03,0.31l-0.03,0.31l-0.03,0.31l-0.03,0.32l-0.03,0.32l-0.03,0.32l-0.04,0.32l-0.04,0.33l-0.04,0.33l-0.04,0.33l-0.04,0.33l-0.04,0.34l-0.04,0.34l-0.04,0.34l-0.04,0.34l-0.04,0.35l-0.04,0.35l-0.04,0.35l-0.04,0.35l-0.04,0.36l-0.04,0.36l-0.04,0.36l-0.04,0.37l-0.04,0.37l-0.04,0.37l-0.04,0.37" />
          <path d="M-82210.74,-73404.36a326.47,326.47 0 0,1 -14.06,-72.9m54.27,150.77a255.65,255.65 0 0,1 -40.2,-77.87m104.21,132.99a201.65,201.65 0 0,1 -64.01,-55.12m133.32,72.81a144.6,144.6 0 0,1 -69.31,-17.69m138.62,0a144.6,144.6 0 0,1 -69.31,17.69m133.32,-72.81a201.65,201.65 0 0,1 -64.01,55.12m104.21,-132.99a255.65,255.65 0 0,1 -40.2,77.87m55.22,-175.79a326.74,326.74 0 0,1 -15.02,97.92m0,-195.85a326.74,326.74 0 0,1 15.02,97.92m-55.22,-175.79a255.65,255.65 0 0,1 40.2,77.87m-104.21,-132.99a201.65,201.65 0 0,1 64.01,55.12m-133.32,-72.81a144.6,144.6 0 0,1 69.31,17.69m-138.62,0a144.6,144.6 0 0,1 69.31,-17.69m-133.32,72.81a201.65,201.65 0 0,1 64.01,-55.12m-104.21,132.99a255.65,255.65 0 0,1 40.2,-77.87m-54.24,150.39a326.46,326.46 0 0,1 14.03,-72.52" />
          <path d="M-78923.32,-72887.31a40,40 0 0,1 40,40l0,199.57a40,40 0 0,1 -40,40l-439.66,0a110,110 0 0,1 -110,-110l0,-59.57a110,110 0 0,1 110,-110l439.66,0" />
          <circle r="20" cx="-79241.94" cy="-72747.52" />
          <path d="M-79352.98,-72887.31l0,279.57" />
          <path d="M-79352.98,-72857.31l429.66,0" />
          <path d="M-78923.32,-72637.74l-429.66,0" />
          <path d="M-102093.32,-80202.52l-1210,0l0,200l1010,0" />
          <path d="M-102093.32,-80002.52l0,-200" />
          <path d="M-100593.32,-80002.52l100,0l0,-200l-100,0" />
          <path d="M-100593.32,-80002.52l0,-200" />
          <path d="M-102093.32,-80002.52l0,400" />
          <path d="M-102293.32,-79602.52l0,-400" />
          <path d="M-102293.32,-79602.52l200,0" />
          <path d="M-94393.32,-80202.52l1210,0l0,200l-1210,0" />
          <path d="M-95893.32,-80002.52l-100,0l0,-200l100,0" />
          <path d="M-94393.32,-80002.52l0,-200" />
          <path d="M-95893.32,-80002.52l0,-200" />
          <path d="M-118118.32,-75302.52l0,-200l250,0l0,200" />
          <path d="M-118118.32,-77422.52l0,200l250,0l0,-200" />
          <path d="M-110683.32,-75302.52l0,-200l250,0l0,200" />
          <path d="M-110683.32,-77422.52l0,200l250,0l0,-200" />
          <path d="M-87433.32,-75302.52l0,-200l250,0l0,200" />
          <path d="M-87433.32,-77422.52l0,200l250,0l0,-200" />
          <path d="M-81303.32,-75302.52l0,-200l250,0l0,200" />
          <path d="M-81303.32,-77422.52l0,200l250,0l0,-200" />
          <path d="M-128303.32,-67802.52l10120,0l0,-7120l-10120,0z" />
        </g>
        <g id="layer-0" class="i0">
          <path d="M-68920.93,-75302.52l0,0" />
        </g>
        <g id="layer-RM" class="rm">
          <path d="M-117803.32,-72547.52l1685,0l0,-2375l-1685,0z" />
          <path d="M-117803.32,-69802.52l3620,0l0,-5120l-1685,0l0,2625l-1935,0z" />
          <path d="M-82303.32,-69802.52l3620,0l0,-5120l-3620,0z" />
          <path d="M-89293.32,-77802.52l10610,0l0,-6620l-10610,0z" />
          <path d="M-92803.32,-77802.52l3310,0l0,-6620l-3310,0z" />
          <path d="M-128303.32,-89722.52l10120,0l0,-2700l-10120,0z" />
          <path d="M-113803.32,-69802.52l3120,0l0,-1345l-174.83,0l0,-250l174.83,0l0,-3525l-3121.17,0z" />
          <path d="M-112308.32,-71147.52l550.17,0l0,-250l-300.17,0l0,-1375l-250,0z" />
          <path d="M-82683.32,-69802.52l-3120,0l0,-1345l174.83,0l0,-250l-174.83,0l0,-3525l3121.17,0z" />
          <path d="M-84178.32,-71147.52l-550.17,0l0,-250l300.17,0l0,-1375l250,0z" />
        </g>
        <g id="layer-GORS" class="gors">
          <path d="M-128683.32,-92802.52l10880,0l0,8000l39120,0l0,-8000l10880,0l0,25380l-10880,0l0,-2000l-39120,0l0,2000l-10880,0l0,-25380z" />
        </g>
      </g>
      <g id="assets" fill="none">
        <g id="rm-assets" class="rm-asset">
          <path d="M-128303.32,-67802.52l10120,0l0,-7120l-10120,0z" id="XINXILOU;F01;118-119" />
          <path d="M-110303.32,-69802.52l3120,0l0,-5120l-3120,0z" id="XINXILOU;F01;117" />
          <path d="M-106803.32,-69802.52l3120,0l0,-5120l-3120,0z" id="XINXILOU;F01;116" />
          <path d="M-92803.32,-69802.52l3120,0l0,-5120l-3120,0z" id="XINXILOU;F01;113" />
          <path d="M-89303.32,-69802.52l3120,0l0,-5120l-3120,0z" id="XINXILOU;F01;112" />
          <path d="M-103303.32,-69802.52l10120,0l0,-5120l-10120,0z" id="XINXILOU;F01;114-115" />
          <path d="M-78303.32,-67802.52l10120,0l0,-7120l-10120,0l0,7120z" id="XINXILOU;F01;111" />
          <path d="M-78303.32,-77802.52l10120,0l0,-14620l-10120,0z" id="XINXILOU;F01;110" />
          <path d="M-95993.32,-77802.52l2810,0l0,-2200l-1210,0l0,-200l1210,0l0,-4220l-2810,0l0,4220l100,0l0,200l-100,0z" id="XINXILOU;F01;107" />
          <path d="M-102354.57,-77802.52l261.25,0.31l1600,-0.31l0,-2200l-100,0l0,-200l100,0l0,-4220l-2810,0l0,4220l0,2400z" id="XINXILOU;F01;106" />
          <path d="M-110368.32,-77802.52l6685,0l0,-6620l-6685,0z" id="XINXILOU;F01;105" />
          <path d="M-113868.32,-77802.52l3250,0l0,-6620l-3250,0z" id="XINXILOU;F01;104" />
          <path d="M-117803.32,-77802.52l3685,0l0,-6620l-3685,0l0,6620z" id="XINXILOU;F01;103" />
          <path d="M-128303.32,-77802.52l10120,0l0,-11670l-10120,0z" id="XINXILOU;F01;101-102" />
        </g>
      </g>
    </g>
    <g id="asset-labels" font-family="Arial" font-weight="bold" font-size="1.5em" text-anchor="middle">
      <g id="rm-labels">
        <g id="l-rm-XINXILOU;F01;118-119" transform="translate(-123243.32,71356.81)">
          <text>118-119</text>
        </g>
        <g id="l-rm-XINXILOU;F01;117" transform="translate(-108743.32,72350.9)">
          <text>117</text>
        </g>
        <g id="l-rm-XINXILOU;F01;116" transform="translate(-105243.32,72350.9)">
          <text>116</text>
        </g>
        <g id="l-rm-XINXILOU;F01;113" transform="translate(-91243.32,72350.9)">
          <text>113</text>
        </g>
        <g id="l-rm-XINXILOU;F01;112" transform="translate(-87743.32,72350.9)">
          <text>112</text>
        </g>
        <g id="l-rm-XINXILOU;F01;114-115" transform="translate(-98243.32,72356.81)">
          <text>114-115</text>
        </g>
        <g id="l-rm-XINXILOU;F01;111" transform="translate(-73243.32,71356.81)">
          <text>111</text>
        </g>
        <g id="l-rm-XINXILOU;F01;110" transform="translate(-73243.32,85106.81)">
          <text>110</text>
        </g>
        <g id="l-rm-XINXILOU;F01;107" transform="translate(-94588.32,81106.81)">
          <text>107</text>
        </g>
        <g id="l-rm-XINXILOU;F01;106" transform="translate(-101898.32,81099.41)">
          <text>106</text>
        </g>
        <g id="l-rm-XINXILOU;F01;105" transform="translate(-107025.82,81100.9)">
          <text>105</text>
        </g>
        <g id="l-rm-XINXILOU;F01;104" transform="translate(-112243.32,81100.9)">
          <text>104</text>
        </g>
        <g id="l-rm-XINXILOU;F01;103" transform="translate(-115960.82,81100.9)">
          <text>103</text>
        </g>
        <g id="l-rm-XINXILOU;F01;101-102" transform="translate(-123243.32,83631.81)">
          <text>101-102</text>
        </g>
      </g>
    </g>
  </g>
</svg>