<svg version="1.1" xmlns="http://www.w3.org/2000/svg" xmlns:xlink="http://www.w3.org/1999/xlink" viewBox="-129158.36 129920.53 61790 34744">
  <style>.i0 { stroke:#000000; } .i主体 { stroke:#c0c0c0; } .rm { stroke:#0000ff; } .pub_text { stroke:#000000; } .dim_symb { stroke:#00ff00; } .i_tch_wipeout { stroke:#000000; } .i_tch_mask { stroke:#000000; } .gors { stroke:#ff00ff; } .rm-asset { stroke:#0000ff; } .rmtc-asset { stroke:#0000ff; } .rmtc { stroke:#00ffff; } .rm-assettxt { stroke:#0000ff; } .rmtc-assettxt { stroke:#0000ff; }</style>
  <view id="defaultView" viewBox="-129158.36 129920.53 61790 34744" />
  <defs />
  <g id="viewer">
    <g id="mirror" transform="scale(1, -1)" stroke-width="0.09%">
      <g id="background" fill="none">
        <g id="layer-0" class="i0">
          <path d="M-127565.72,-138224.28l0,0" />
          <path d="M-68920.93,-138224.28l0,0" />
        </g>
        <g id="layer-主体" class="i主体">
          <path d="M-104403.32,-147724.28l0,-2700l12319.79,0l0.21,2700" />
          <path d="M-104353.32,-147724.28l0,-2650l12219.8,0l0.2,2650" />
          <path d="M-103503.32,-147724.28l0,-1800l10519.86,0l0.14,1800.07" />
          <path d="M-99973.32,-140344.28l370,0l0,-380l-370,0" />
          <path d="M-98433.32,-140344.28l-370,0l0,-380l370,0" />
          <path d="M-78923.32,-134909.06a40,40 0 0,1 40,40l0,199.57a40,40 0 0,1 -40,40l-439.66,0a110,110 0 0,1 -110,-110l0,-59.57a110,110 0 0,1 110,-110l439.66,0" />
          <path d="M-78923.32,-134879.06a10,10 0 0,1 10,10" />
          <path d="M-78913.32,-134669.5a10,10 0 0,1 -10,10" />
          <path d="M-78913.32,-134869.06l0,199.57" />
          <circle r="20" cx="-79241.94" cy="-134769.28" />
          <path d="M-79352.98,-134909.06l0,279.57" />
          <path d="M-79352.98,-134879.06l429.66,0" />
          <path d="M-78923.32,-134659.5l-429.66,0" />
          <path d="M-78923.32,-134009.06a40,40 0 0,1 40,40l0,199.57a40,40 0 0,1 -40,40l-439.66,0a110,110 0 0,1 -110,-110l0,-59.57a110,110 0 0,1 110,-110l439.66,0" />
          <path d="M-78923.32,-133979.06a10,10 0 0,1 10,10" />
          <path d="M-78913.32,-133769.5a10,10 0 0,1 -10,10" />
          <path d="M-78913.32,-133969.06l0,199.57" />
          <circle r="20" cx="-79241.94" cy="-133869.28" />
          <path d="M-79352.98,-134009.06l0,279.57" />
          <path d="M-79352.98,-133979.06l429.66,0" />
          <path d="M-78923.32,-133759.5l-429.66,0" />
          <circle r="50" cx="-78933.32" cy="-133034.28" />
          <path d="M-78964.56,-133073.32l-168.77,-210.96" />
          <path d="M-78902.09,-133073.32l168.77,-210.96" />
          <path d="M-79133.32,-133284.28l400,0l0,500l-400,0z" />
          <path d="M-79183.32,-133334.28l500,0l0,600l-500,0z" />
          <path d="M-79133.32,-132784.28l168.77,-210.96" />
          <path d="M-78733.32,-132784.28l-168.77,-210.96" />
          <path d="M-82008.85,-137433.23a314.4,314.4 0 0,1 0,628.77l-194.48,0l0,-628.77l194.48,0" />
          <circle r="18.67" cx="-82156.86" cy="-137029.37" />
          <circle r="23.67" cx="-82156.86" cy="-137029.37" />
          <circle r="23.67" cx="-82156.86" cy="-137208.42" />
          <circle r="18.67" cx="-82156.86" cy="-137208.42" />
          <path d="M-82193.67,-137140.39l39.86,-6.39" />
          <path d="M-82193.67,-137097.31l39.86,6.39" />
          <path d="M-82042.63,-137101.32l0,-35.06" />
          <path d="M-82055.63,-137100.98l0,-35.75" />
          <path d="M-82153.81,-137146.78l111.18,10.39" />
          <path d="M-82193.67,-137140.39l151.04,4.01" />
          <path d="M-82193.67,-137097.31l151.04,-4.01" />
          <path d="M-82153.81,-137090.93l111.18,-10.39" />
          <circle r="20.78" cx="-81945.16" cy="-137118.85" />
          <circle r="15.78" cx="-81945.16" cy="-137118.85" />
          <path d="M-82104.49,-137095.54l0.11,1.37l0.11,1.37l0.12,1.37l0.12,1.36l0.13,1.36l0.14,1.36l0.14,1.36l0.15,1.36l0.16,1.36l0.16,1.36l0.17,1.36l0.17,1.35l0.18,1.35l0.19,1.35l0.19,1.35l0.2,1.35l0.2,1.35l0.21,1.34l0.22,1.34l0.22,1.34l0.23,1.34l0.23,1.34l0.24,1.34l0.25,1.33l0.25,1.33l0.26,1.33l0.26,1.33l0.27,1.32l0.27,1.32l0.28,1.32l0.29,1.32l0.29,1.31l0.3,1.31l0.3,1.31l0.31,1.31l0.32,1.3l0.32,1.3l0.33,1.3l0.33,1.3l0.34,1.29l0.34,1.29l0.35,1.29l0.36,1.28l0.36,1.28l0.37,1.28l0.37,1.28l0.38,1.27l0.38,1.27l0.39,1.27l0.4,1.26l0.4,1.26l0.41,1.26l0.41,1.25l0.42,1.25l0.42,1.25l0.43,1.24l0.43,1.24l0.44,1.23l0.44,1.23l0.45,1.23l0.46,1.22l0.46,1.22l0.47,1.22l0.47,1.21l0.48,1.21l0.48,1.2l0.49,1.2l0.49,1.2l0.5,1.19l0.5,1.19l0.51,1.18l0.51,1.18l0.52,1.17l0.52,1.17l0.53,1.16l0.53,1.16l0.54,1.16l0.54,1.15l0.55,1.15l0.55,1.14l0.56,1.14l0.56,1.13l0.57,1.13l0.57,1.12l0.58,1.12l0.58,1.11l0.59,1.11l0.59,1.1l0.6,1.1l0.6,1.09l0.61,1.09l0.61,1.08l0.62,1.08l0.62,1.07l0.62,1.07l0.63,1.06l0.63,1.06l0.64,1.05l0.64,1.05l0.65,1.04l0.65,1.04l0.66,1.03l0.66,1.02l0.66,1.02l0.67,1.01l0.67,1.01l0.68,1l0.68,1l0.68,0.99l0.69,0.98l0.69,0.98l0.7,0.97l0.7,0.97l0.71,0.96l0.71,0.96l0.71,0.95l0.72,0.94l0.72,0.94l0.72,0.93l0.73,0.93l0.73,0.92l0.74,0.91l0.74,0.91l0.74,0.9l0.75,0.89l0.75,0.89l0.75,0.88l0.76,0.88l0.76,0.87l0.76,0.86l0.77,0.86l0.77,0.85l0.78,0.84l0.78,0.84l0.78,0.83l0.78,0.82l0.79,0.82l0.79,0.81l0.79,0.8l0.8,0.8l0.8,0.79l0.8,0.78l0.81,0.78l0.81,0.77l0.81,0.76l0.82,0.76l0.82,0.75l0.82,0.74l0.82,0.74l0.83,0.73l0.83,0.72l0.83,0.72l0.84,0.71l0.84,0.7l0.84,0.7l0.84,0.69l0.85,0.68l0.85,0.67l0.85,0.67l0.85,0.66l0.86,0.65l0.86,0.65l0.86,0.64l0.86,0.63l0.87,0.63l0.87,0.62l0.87,0.61l0.87,0.6l0.87,0.6l0.88,0.59l0.88,0.58l0.88,0.58l0.88,0.57l0.88,0.56l0.89,0.55l0.89,0.55l0.89,0.54l0.89,0.53l0.89,0.52l0.9,0.52l0.9,0.51l0.9,0.5l0.9,0.5l0.9,0.49l0.9,0.48l0.91,0.47l0.91,0.47l0.91,0.46l0.91,0.45l0.91,0.44l0.91,0.44l0.92,0.43l0.92,0.42l0.92,0.41l0.92,0.41l0.92,0.4l0.92,0.39l0.92,0.39l0.92,0.38l0.93,0.37l0.93,0.36l0.93,0.36l0.93,0.35l0.93,0.34l0.93,0.33l0.93,0.33l0.93,0.32l0.93,0.31l0.93,0.3l0.94,0.3l0.94,0.29l0.94,0.28l0.94,0.27l0.94,0.27l0.94,0.26l0.94,0.25l0.94,0.24l0.94,0.24l0.94,0.23l0.94,0.22l0.94,0.21l0.95,0.21l0.95,0.2l0.95,0.19l0.95,0.19l0.95,0.18l0.95,0.17l0.95,0.16l0.95,0.16l0.95,0.15l0.95,0.14l0.95,0.13l0.95,0.13l0.95,0.12l0.95,0.11l0.95,0.1l0.95,0.1l0.95,0.09l0.95,0.08l0.95,0.07l0.95,0.07l0.95,0.06l0.95,0.05l0.95,0.04l0.95,0.04l0.95,0.03l0.95,0.02l0.95,0.01l0.95,0.01l0.95,0l0.95,-0.01l0.95,-0.01l0.95,-0.02l0.95,-0.03l0.95,-0.04l0.95,-0.04l0.95,-0.05l0.95,-0.06l0.95,-0.07l0.95,-0.07l0.95,-0.08l0.95,-0.09l0.95,-0.1l0.95,-0.1l0.95,-0.11l0.95,-0.12l0.95,-0.13l0.95,-0.13l0.95,-0.14l0.95,-0.15l0.95,-0.16l0.95,-0.16l0.95,-0.17l0.95,-0.18l0.95,-0.19l0.95,-0.19l0.95,-0.2l0.94,-0.21l0.94,-0.22l0.94,-0.22l0.94,-0.23l0.94,-0.24l0.94,-0.24l0.94,-0.25l0.94,-0.26l0.94,-0.27l0.94,-0.27l0.94,-0.28l0.94,-0.29l0.94,-0.3l0.93,-0.3l0.93,-0.31l0.93,-0.32l0.93,-0.33l0.93,-0.33l0.93,-0.34l0.93,-0.35l0.93,-0.36l0.93,-0.36l0.93,-0.37l0.92,-0.38l0.92,-0.39l0.92,-0.39l0.92,-0.4l0.92,-0.41l0.92,-0.42l0.92,-0.42l0.91,-0.43l0.91,-0.44l0.91,-0.44l0.91,-0.45l0.91,-0.46l0.91,-0.47l0.91,-0.47l0.9,-0.48l0.9,-0.49l0.9,-0.5l0.9,-0.5l0.9,-0.51l0.9,-0.52l0.89,-0.52l0.89,-0.53l0.89,-0.54l0.89,-0.55l0.89,-0.55l0.88,-0.56l0.88,-0.57l0.88,-0.58l0.88,-0.58l0.88,-0.59l0.87,-0.6l0.87,-0.6l0.87,-0.61l0.87,-0.62l0.87,-0.63l0.86,-0.63l0.86,-0.64l0.86,-0.65l0.86,-0.65l0.85,-0.66l0.85,-0.67l0.85,-0.67l0.85,-0.68l0.84,-0.69l0.84,-0.7l0.84,-0.7l0.84,-0.71l0.83,-0.72l0.83,-0.72l0.83,-0.73l0.82,-0.74l0.82,-0.74l0.82,-0.75l0.82,-0.76l0.81,-0.76l0.81,-0.77l0.81,-0.78l0.8,-0.78l0.8,-0.79l0.8,-0.8l0.79,-0.8l0.79,-0.81l0.79,-0.82l0.78,-0.82l0.78,-0.83l0.78,-0.84l0.77,-0.84l0.77,-0.85l0.77,-0.86l0.76,-0.86l0.76,-0.87l0.76,-0.88l0.75,-0.88l0.75,-0.89l0.75,-0.89l0.74,-0.9l0.74,-0.91l0.74,-0.91l0.73,-0.92l0.73,-0.93l0.72,-0.93l0.72,-0.94l0.72,-0.94l0.71,-0.95l0.71,-0.96l0.71,-0.96l0.7,-0.97l0.7,-0.97l0.69,-0.98l0.69,-0.98l0.68,-0.99l0.68,-1l0.68,-1l0.67,-1.01l0.67,-1.01l0.66,-1.02l0.66,-1.02l0.66,-1.03l0.65,-1.04l0.65,-1.04l0.64,-1.05l0.64,-1.05l0.63,-1.06l0.63,-1.06l0.62,-1.07l0.62,-1.07l0.61,-1.08l0.61,-1.08l0.61,-1.09l0.6,-1.09l0.6,-1.1l0.59,-1.1l0.59,-1.11l0.58,-1.11l0.58,-1.12l0.57,-1.12l0.57,-1.13l0.56,-1.13l0.56,-1.14l0.55,-1.14l0.55,-1.15l0.54,-1.15l0.54,-1.16l0.53,-1.16l0.53,-1.17l0.52,-1.17l0.52,-1.17l0.51,-1.18l0.51,-1.18l0.5,-1.19l0.5,-1.19l0.49,-1.2l0.49,-1.2l0.48,-1.2l0.48,-1.21l0.47,-1.21l0.47,-1.22l0.46,-1.22l0.45,-1.22l0.45,-1.23l0.44,-1.23l0.44,-1.23l0.43,-1.24l0.43,-1.24l0.42,-1.25l0.42,-1.25l0.41,-1.25l0.41,-1.26l0.4,-1.26l0.39,-1.26l0.39,-1.27l0.38,-1.27l0.38,-1.27l0.37,-1.28l0.37,-1.28l0.36,-1.28l0.36,-1.28l0.35,-1.29l0.34,-1.29l0.34,-1.29l0.33,-1.3l0.33,-1.3l0.32,-1.3l0.32,-1.3l0.31,-1.31l0.3,-1.31l0.3,-1.31l0.29,-1.31l0.29,-1.32l0.28,-1.32l0.27,-1.32l0.27,-1.32l0.26,-1.33l0.26,-1.33l0.25,-1.33l0.25,-1.33l0.24,-1.34l0.23,-1.34l0.23,-1.34l0.22,-1.34l0.22,-1.34l0.21,-1.34l0.2,-1.35l0.2,-1.35l0.19,-1.35l0.19,-1.35l0.18,-1.35l0.17,-1.35l0.17,-1.36l0.16,-1.36l0.15,-1.36l0.15,-1.36l0.14,-1.36l0.14,-1.36l0.13,-1.36l0.12,-1.36l0.12,-1.37l0.11,-1.37l0.11,-1.37l0.1,-1.37l0.09,-1.37l0.09,-1.37l0.08,-1.37l0.08,-1.37l0.07,-1.37l0.06,-1.37l0.06,-1.37l0.05,-1.37l0.04,-1.37l0.04,-1.37l0.03,-1.37l0.03,-1.37l0.02,-1.37l0.01,-1.37l0.01,-1.37l0,-1.38l0,-1.38l-0.01,-1.37l-0.02,-1.37l-0.02,-1.37l-0.03,-1.37l-0.03,-1.37l-0.04,-1.37l-0.05,-1.37l-0.05,-1.37l-0.06,-1.37l-0.07,-1.37l-0.07,-1.37l-0.08,-1.37l-0.08,-1.37l-0.09,-1.37l-0.1,-1.37l-0.1,-1.37l-0.11,-1.37l-0.11,-1.37l-0.12,-1.36l-0.13,-1.36l-0.13,-1.36l-0.14,-1.36l-0.15,-1.36l-0.15,-1.36l-0.16,-1.36l-0.16,-1.36l-0.17,-1.36l-0.18,-1.35l-0.18,-1.35l-0.19,-1.35l-0.19,-1.35l-0.2,-1.35l-0.21,-1.35l-0.21,-1.34l-0.22,-1.34l-0.22,-1.34l-0.23,-1.34l-0.24,-1.34l-0.24,-1.33l-0.25,-1.33l-0.25,-1.33l-0.26,-1.33l-0.27,-1.33l-0.27,-1.32l-0.28,-1.32l-0.28,-1.32l-0.29,-1.32l-0.29,-1.31l-0.3,-1.31l-0.31,-1.31l-0.31,-1.31l-0.32,-1.3l-0.32,-1.3l-0.33,-1.3l-0.33,-1.3l-0.34,-1.29l-0.35,-1.29l-0.35,-1.29l-0.36,-1.28l-0.36,-1.28l-0.37,-1.28l-0.37,-1.27l-0.38,-1.27l-0.39,-1.27l-0.39,-1.26l-0.4,-1.26l-0.4,-1.26l-0.41,-1.25l-0.41,-1.25l-0.42,-1.25l-0.42,-1.24l-0.43,-1.24l-0.44,-1.24l-0.44,-1.23l-0.45,-1.23l-0.45,-1.23l-0.46,-1.22l-0.46,-1.22l-0.47,-1.21l-0.47,-1.21l-0.48,-1.21l-0.48,-1.2l-0.49,-1.2l-0.49,-1.19l-0.5,-1.19l-0.5,-1.19l-0.51,-1.18l-0.51,-1.18l-0.52,-1.17l-0.52,-1.17l-0.53,-1.16l-0.53,-1.16l-0.54,-1.15l-0.54,-1.15l-0.55,-1.15l-0.55,-1.14l-0.56,-1.14l-0.56,-1.13l-0.57,-1.13l-0.57,-1.12l-0.58,-1.12l-0.58,-1.11l-0.59,-1.11l-0.59,-1.1l-0.6,-1.1l-0.6,-1.09l-0.61,-1.09l-0.61,-1.08l-0.62,-1.08l-0.62,-1.07l-0.63,-1.07l-0.63,-1.06l-0.63,-1.06l-0.64,-1.05l-0.64,-1.04l-0.65,-1.04l-0.65,-1.03l-0.66,-1.03l-0.66,-1.02l-0.67,-1.02l-0.67,-1.01l-0.67,-1.01l-0.68,-1l-0.68,-0.99l-0.69,-0.99l-0.69,-0.98l-0.69,-0.98l-0.7,-0.97l-0.7,-0.97l-0.71,-0.96l-0.71,-0.95l-0.71,-0.95l-0.72,-0.94l-0.72,-0.94l-0.73,-0.93l-0.73,-0.92l-0.73,-0.92l-0.74,-0.91l-0.74,-0.9l-0.74,-0.9l-0.75,-0.89l-0.75,-0.89l-0.76,-0.88l-0.76,-0.87l-0.76,-0.87l-0.77,-0.86l-0.77,-0.85l-0.77,-0.85l-0.78,-0.84l-0.78,-0.83l-0.78,-0.83l-0.79,-0.82l-0.79,-0.81l-0.79,-0.81l-0.8,-0.8l-0.8,-0.8l-0.8,-0.79l-0.81,-0.78l-0.81,-0.78l-0.81,-0.77l-0.81,-0.76l-0.82,-0.75l-0.82,-0.75l-0.82,-0.74l-0.83,-0.73l-0.83,-0.73l-0.83,-0.72l-0.83,-0.71l-0.84,-0.71l-0.84,-0.7l-0.84,-0.69l-0.84,-0.69l-0.85,-0.68l-0.85,-0.67l-0.85,-0.67l-0.85,-0.66l-0.86,-0.65l-0.86,-0.64l-0.86,-0.64l-0.86,-0.63l-0.87,-0.62l-0.87,-0.62l-0.87,-0.61l-0.87,-0.6l-0.87,-0.59l-0.88,-0.59l-0.88,-0.58l-0.88,-0.57l-0.88,-0.57l-0.89,-0.56l-0.89,-0.55l-0.89,-0.54l-0.89,-0.54l-0.89,-0.53l-0.89,-0.52l-0.9,-0.51l-0.9,-0.51l-0.9,-0.5l-0.9,-0.49l-0.9,-0.49l-0.9,-0.48l-0.91,-0.47l-0.91,-0.46l-0.91,-0.46l-0.91,-0.45l-0.91,-0.44l-0.91,-0.43l-0.92,-0.43l-0.92,-0.42l-0.92,-0.41l-0.92,-0.4l-0.92,-0.4l-0.92,-0.39l-0.92,-0.38l-0.92,-0.38l-0.93,-0.37l-0.93,-0.36l-0.93,-0.35l-0.93,-0.35l-0.93,-0.34l-0.93,-0.33l-0.93,-0.32l-0.93,-0.32l-0.93,-0.31l-0.94,-0.3l-0.94,-0.29l-0.94,-0.29l-0.94,-0.28l-0.94,-0.27l-0.94,-0.26l-0.94,-0.26l-0.94,-0.25l-0.94,-0.24l-0.94,-0.23l-0.94,-0.23l-0.94,-0.22l-0.94,-0.21l-0.95,-0.2l-0.95,-0.2l-0.95,-0.19l-0.95,-0.18l-0.95,-0.18l-0.95,-0.17l-0.95,-0.16l-0.95,-0.15l-0.95,-0.15l-0.95,-0.14l-0.95,-0.13l-0.95,-0.12l-0.95,-0.12l-0.95,-0.11l-0.95,-0.1l-0.95,-0.09l-0.95,-0.09l-0.95,-0.08l-0.95,-0.07l-0.95,-0.06l-0.95,-0.06l-0.95,-0.05l-0.95,-0.04l-0.95,-0.03l-0.95,-0.03l-0.95,-0.02l-0.95,-0.01l-0.95,0l-0.95,0l-0.95,0.01l-0.95,0.02l-0.95,0.02l-0.95,0.03l-0.95,0.04l-0.95,0.05l-0.95,0.05l-0.95,0.06l-0.95,0.07l-0.95,0.08l-0.95,0.08l-0.95,0.09l-0.95,0.1l-0.95,0.11l-0.95,0.11l-0.95,0.12l-0.95,0.13l-0.95,0.14l-0.95,0.14l-0.95,0.15l-0.95,0.16l-0.95,0.17l-0.95,0.17l-0.95,0.18l-0.95,0.19l-0.95,0.2l-0.95,0.2l-0.94,0.21l-0.94,0.22l-0.94,0.23l-0.94,0.23l-0.94,0.24l-0.94,0.25l-0.94,0.25l-0.94,0.26l-0.94,0.27l-0.94,0.28l-0.94,0.28l-0.94,0.29l-0.94,0.3l-0.93,0.31l-0.93,0.31l-0.93,0.32l-0.93,0.33l-0.93,0.34l-0.93,0.34l-0.93,0.35l-0.93,0.36l-0.93,0.37l-0.92,0.37l-0.92,0.38l-0.92,0.39l-0.92,0.4l-0.92,0.4l-0.92,0.41l-0.92,0.42l-0.92,0.42l-0.91,0.43l-0.91,0.44l-0.91,0.45l-0.91,0.45l-0.91,0.46l-0.91,0.47l-0.91,0.48l-0.9,0.48l-0.9,0.49l-0.9,0.5l-0.9,0.51l-0.9,0.51l-0.9,0.52l-0.89,0.53l-0.89,0.53l-0.89,0.54l-0.89,0.55l-0.89,0.56l-0.88,0.56l-0.88,0.57l-0.88,0.58l-0.88,0.59l-0.88,0.59l-0.87,0.6l-0.87,0.61l-0.87,0.61l-0.87,0.62l-0.86,0.63l-0.86,0.63l-0.86,0.64l-0.86,0.65l-0.86,0.66l-0.85,0.66l-0.85,0.67l-0.85,0.68l-0.85,0.68l-0.84,0.69l-0.84,0.7l-0.84,0.71l-0.83,0.71l-0.83,0.72l-0.83,0.73l-0.83,0.73l-0.82,0.74l-0.82,0.75l-0.82,0.75l-0.81,0.76l-0.81,0.77l-0.81,0.77l-0.81,0.78l-0.8,0.79l-0.8,0.79l-0.8,0.8l-0.79,0.81l-0.79,0.81l-0.79,0.82l-0.78,0.83l-0.78,0.83l-0.78,0.84l-0.77,0.85l-0.77,0.85l-0.77,0.86l-0.76,0.87l-0.76,0.87l-0.76,0.88l-0.75,0.88l-0.75,0.89l-0.75,0.9l-0.74,0.9l-0.74,0.91l-0.73,0.92l-0.73,0.92l-0.73,0.93l-0.72,0.93l-0.72,0.94l-0.72,0.95l-0.71,0.95l-0.71,0.96l-0.7,0.96l-0.7,0.97l-0.7,0.98l-0.69,0.98l-0.69,0.99l-0.68,0.99l-0.68,1l-0.68,1l-0.67,1.01l-0.67,1.02l-0.66,1.02l-0.66,1.03l-0.65,1.03l-0.65,1.04l-0.64,1.04l-0.64,1.05l-0.64,1.05l-0.63,1.06l-0.63,1.06l-0.62,1.07l-0.62,1.07l-0.61,1.08l-0.61,1.09l-0.6,1.09l-0.6,1.1l-0.59,1.1l-0.59,1.11l-0.59,1.11l-0.58,1.12l-0.58,1.12l-0.57,1.13l-0.57,1.13l-0.56,1.13l-0.56,1.14l-0.55,1.14l-0.55,1.15l-0.54,1.15l-0.54,1.16l-0.53,1.16l-0.53,1.17l-0.52,1.17l-0.52,1.18l-0.51,1.18l-0.51,1.18l-0.5,1.19l-0.5,1.19l-0.49,1.2l-0.48,1.2l-0.48,1.2l-0.47,1.21l-0.47,1.21l-0.46,1.22l-0.46,1.22l-0.45,1.22l-0.45,1.23l-0.44,1.23l-0.44,1.24l-0.43,1.24l-0.43,1.24l-0.42,1.25l-0.42,1.25l-0.41,1.25l-0.4,1.26l-0.4,1.26l-0.39,1.26l-0.39,1.27l-0.38,1.27l-0.38,1.27l-0.37,1.28l-0.36,1.28l-0.36,1.28l-0.35,1.29l-0.35,1.29l-0.34,1.29l-0.34,1.29l-0.33,1.3l-0.32,1.3l-0.32,1.3l-0.31,1.31l-0.31,1.31l-0.3,1.31l-0.3,1.31l-0.29,1.32l-0.28,1.32l-0.28,1.32l-0.27,1.32l-0.27,1.33l-0.26,1.33l-0.13,0.67l-0.13,0.67l-0.13,0.67l-0.12,0.68l-0.12,0.68l-0.12,0.69l-0.06,0.35l-0.06,0.35l-0.06,0.35l-0.06,0.36l-0.06,0.36l-0.06,0.36l-0.06,0.36l-0.06,0.37l-0.06,0.37l-0.06,0.37l-0.06,0.38l-0.06,0.38l-0.06,0.39l-0.06,0.39l-0.06,0.39l-0.06,0.4l-0.06,0.4l-0.06,0.41l-0.06,0.41l-0.06,0.42l-0.06,0.42l-0.06,0.43l-0.06,0.43l-0.06,0.44l-0.06,0.45l-0.06,0.45l-0.06,0.46l-0.06,0.46l-0.06,0.47l-0.06,0.48l-0.06,0.48l-0.06,0.49l-0.06,0.5l-0.06,0.5l-0.06,0.51l-0.06,0.52l-0.06,0.53l-0.06,0.53l-0.03,0.27l-0.03,0.27l-0.03,0.27l-0.03,0.28l-0.03,0.28l-0.03,0.28l-0.03,0.28l-0.03,0.28l-0.03,0.29l-0.03,0.29l-0.03,0.29l-0.03,0.29l-0.03,0.3l-0.03,0.3l-0.03,0.3l-0.03,0.3l-0.03,0.3l-0.03,0.31l-0.03,0.31l-0.03,0.31l-0.03,0.31l-0.03,0.32l-0.03,0.32l-0.03,0.32l-0.04,0.32l-0.04,0.33l-0.04,0.33l-0.04,0.33l-0.04,0.33l-0.04,0.34l-0.04,0.34l-0.04,0.34l-0.04,0.34l-0.04,0.35l-0.04,0.35l-0.04,0.35l-0.04,0.35l-0.04,0.36l-0.04,0.36l-0.04,0.36l-0.04,0.37l-0.04,0.37l-0.04,0.37l-0.04,0.37" />
          <path d="M-82110.74,-137020.74a326.47,326.47 0 0,1 -14.06,-72.9m54.27,150.77a255.65,255.65 0 0,1 -40.2,-77.87m104.21,132.99a201.65,201.65 0 0,1 -64.01,-55.12m133.32,72.81a144.6,144.6 0 0,1 -69.31,-17.69m138.62,0a144.6,144.6 0 0,1 -69.31,17.69m133.32,-72.81a201.65,201.65 0 0,1 -64.01,55.12m104.21,-132.99a255.65,255.65 0 0,1 -40.2,77.87m55.22,-175.79a326.74,326.74 0 0,1 -15.02,97.92m0,-195.85a326.74,326.74 0 0,1 15.02,97.92m-55.22,-175.79a255.65,255.65 0 0,1 40.2,77.87m-104.21,-132.99a201.65,201.65 0 0,1 64.01,55.12m-133.32,-72.81a144.6,144.6 0 0,1 69.31,17.69m-138.62,0a144.6,144.6 0 0,1 69.31,-17.69m-133.32,72.81a201.65,201.65 0 0,1 64.01,-55.12m-104.21,132.99a255.65,255.65 0 0,1 40.2,-77.87m-54.24,150.39a326.46,326.46 0 0,1 14.03,-72.52" />
          <path d="M-78923.32,-135790.39a40,40 0 0,1 40,40l0,199.57a40,40 0 0,1 -40,40l-439.66,0a110,110 0 0,1 -110,-110l0,-59.57a110,110 0 0,1 110,-110l439.66,0" />
          <path d="M-78923.32,-135760.39a10,10 0 0,1 10,10" />
          <path d="M-78913.32,-135550.82a10,10 0 0,1 -10,10" />
          <path d="M-78913.32,-135750.39l0,199.57" />
          <circle r="20" cx="-79241.94" cy="-135650.6" />
          <path d="M-79352.98,-135790.39l0,279.57" />
          <path d="M-79352.98,-135760.39l429.66,0" />
          <path d="M-78923.32,-135540.82l-429.66,0" />
          <path d="M-103467.63,-141874.28l200,200" />
          <path d="M-103405.76,-141874.28l200,200" />
          <path d="M-103343.88,-141874.28l200,200" />
          <path d="M-103282.01,-141874.28l200,200" />
          <path d="M-103220.14,-141874.28l200,200" />
          <path d="M-103158.27,-141874.28l200,200" />
          <path d="M-103096.4,-141874.28l200,200" />
          <path d="M-103034.53,-141874.28l200,200" />
          <path d="M-102972.65,-141874.28l200,200" />
          <path d="M-102910.78,-141874.28l200,200" />
          <path d="M-102848.91,-141874.28l200,200" />
          <path d="M-102787.04,-141874.28l200,200" />
          <path d="M-102725.17,-141874.28l200,200" />
          <path d="M-102663.29,-141874.28l200,200" />
          <path d="M-101868.32,-141079.31l200,200" />
          <path d="M-102601.42,-141874.28l200,200" />
          <path d="M-101868.32,-141141.18l200,200" />
          <path d="M-102539.55,-141874.28l200,200" />
          <path d="M-101868.32,-141203.05l200,200" />
          <path d="M-102477.68,-141874.28l200,200" />
          <path d="M-101868.32,-141264.92l200,200" />
          <path d="M-102415.81,-141874.28l200,200" />
          <path d="M-101868.32,-141326.8l200,200" />
          <path d="M-102353.94,-141874.28l200,200" />
          <path d="M-101868.32,-141388.67l200,200" />
          <path d="M-102292.06,-141874.28l200,200" />
          <path d="M-101868.32,-141450.54l200,200" />
          <path d="M-102230.19,-141874.28l200,200" />
          <path d="M-101868.32,-141512.41l200,200" />
          <path d="M-102168.32,-141874.28l200,200" />
          <path d="M-101868.32,-141574.28l200,200" />
          <path d="M-102106.45,-141874.28l200,200" />
          <path d="M-101868.32,-141636.15l200,200" />
          <path d="M-102044.58,-141874.28l376.25,376.25" />
          <path d="M-101982.7,-141874.28l314.38,314.38" />
          <path d="M-101920.83,-141874.28l252.51,252.51" />
          <path d="M-101858.96,-141874.28l190.64,190.64" />
          <path d="M-101797.09,-141874.28l128.76,128.76" />
          <path d="M-101735.22,-141874.28l66.89,66.89" />
          <path d="M-101673.34,-141874.28l5.02,5.02" />
          <path d="M-103468.32,-141674.28l1600,0" />
          <path d="M-101868.32,-140724.28l0,-950" />
          <path d="M-103468.32,-141874.28l1800,0" />
          <path d="M-101668.32,-140724.28l0,-1150" />
          <path d="M-94418.32,-140965.8l200,200" />
          <path d="M-94418.32,-141027.67l200,200" />
          <path d="M-94418.32,-141089.55l200,200" />
          <path d="M-94418.32,-141151.42l200,200" />
          <path d="M-94418.32,-141213.29l200,200" />
          <path d="M-94418.32,-141275.16l200,200" />
          <path d="M-94418.32,-141337.03l200,200" />
          <path d="M-94418.32,-141398.9l200,200" />
          <path d="M-94418.32,-141460.78l200,200" />
          <path d="M-94418.32,-141522.65l200,200" />
          <path d="M-94418.32,-141584.52l200,200" />
          <path d="M-94418.32,-141646.39l200,200" />
          <path d="M-94418.32,-141708.26l200,200" />
          <path d="M-94372.47,-141724.28l200,200" />
          <path d="M-94310.6,-141724.28l200,200" />
          <path d="M-94248.72,-141724.28l200,200" />
          <path d="M-94186.85,-141724.28l200,200" />
          <path d="M-94124.98,-141724.28l200,200" />
          <path d="M-94063.11,-141724.28l200,200" />
          <path d="M-94001.24,-141724.28l200,200" />
          <path d="M-93939.36,-141724.28l200,200" />
          <path d="M-93877.49,-141724.28l200,200" />
          <path d="M-93815.62,-141724.28l200,200" />
          <path d="M-93753.75,-141724.28l200,200" />
          <path d="M-93691.88,-141724.28l200,200" />
          <path d="M-93630.01,-141724.28l200,200" />
          <path d="M-93568.13,-141724.28l200,200" />
          <path d="M-93506.26,-141724.28l200,200" />
          <path d="M-93444.39,-141724.28l200,200" />
          <path d="M-93382.52,-141724.28l200,200" />
          <path d="M-93320.65,-141724.28l200,200" />
          <path d="M-93258.77,-141724.28l200,200" />
          <path d="M-93018.32,-141524.28l-1200,0" />
          <path d="M-93018.32,-141724.28l-1400,0" />
          <path d="M-94218.32,-140724.28l0,-800" />
          <path d="M-94418.32,-140724.28l0,-1000" />
          <path d="M-101868.32,-140831.82l107.54,107.54" />
          <path d="M-101868.32,-140893.69l169.41,169.41" />
          <path d="M-101868.32,-140955.56l200,200" />
          <path d="M-101868.32,-141017.44l200,200" />
          <path d="M-101868.32,-141079.31l200,200" />
          <path d="M-93251.59,-140354.19l19.82,19.82" />
          <path d="M-93251.59,-140466.44l132.08,132.08" />
          <path d="M-93197.26,-140524.37l190,190" />
          <path d="M-93251.59,-140690.95l166.58,166.58" />
          <path d="M-93085.01,-140524.37l190,190" />
          <path d="M-93162.76,-140714.37l190,190" />
          <path d="M-92972.76,-140524.37l91.16,91.16" />
          <path d="M-93050.5,-140714.37l168.91,168.91" />
          <path d="M-92938.25,-140714.37l56.66,56.66" />
          <path d="M-115283.32,-138224.28l0,-200l-250.29,0" />
          <path d="M-115533.61,-138424.28l0,200" />
          <path d="M-115283.32,-140344.28l0,200l-250,0l0,-200" />
          <path d="M-109153.32,-138224.28l0,-200l-250.29,0" />
          <path d="M-109403.61,-138424.28l0,200" />
          <path d="M-109153.32,-140344.28l0,200l-250,0l0,-200" />
          <path d="M-87083.32,-138224.28l0,-200l-250.29,0" />
          <path d="M-87333.61,-138424.28l0,200" />
          <path d="M-87083.32,-140344.28l0,200l-250,0l0,-200" />
          <path d="M-81053.32,-138224.28l0,-200l-250.29,0" />
          <path d="M-81303.61,-138424.28l0,200" />
          <path d="M-81053.32,-140344.28l0,200l-250,0l0,-200" />
        </g>
        <g id="layer-RM" class="rm">
          <path d="M-128303.32,-130724.28l10120,0l0,-7120l-10120,0z" />
          <path d="M-117803.32,-135469.28l1685,0l0,-2375l-1685,0z" />
          <path d="M-82203.32,-132724.28l3520,0l0,-5120l-3520,0z" />
          <path d="M-117803.32,-132724.28l0,-2495l1935,0l0,-2625l1585,0l0,5120z" />
          <path d="M-93086.43,-132724.28l-3.11,0" />
          <path d="M-93089.54,-132724.28l-3.11,0l-2.49,0" />
          <path d="M-95743.32,-132724.28l-2.49,0" />
          <path d="M-95743.32,-132724.28l0,-2.49" />
          <path d="M-93095.14,-132724.28l-31.08,0l-2.49,0" />
          <path d="M-95576.05,-132721.89l0,-3117.54" />
          <path d="M-95576.05,-135839.43l2492.73,0" />
        </g>
        <g id="layer-GORS" class="gors">
          <path d="M-128683.32,-130344.28l10880,0l0,-2000l39120,0l0,2000l10880,0l0,-25380l-10880,0l0,8000l-39120,0l0,-8000l-10880,0l0,25380z" />
        </g>
      </g>
      <g id="assets" fill="none">
        <g id="rm-assets" class="rm-asset">
          <path d="M-92703.32,-132724.28l3120,0l0,-5120l-3120,0z" id="XINXILOU;F02;215" />
          <path d="M-89203.32,-132724.28l3120,0l0,-5120l-3120,0z" id="XINXILOU;F02;214" />
          <path d="M-78303.32,-130724.28l10120,0l0,-7120l-10120,0l0,7120z" id="XINXILOU;F02;212-213" />
          <path d="M-78303.32,-140724.28l10120,0l0,-14620l-10120,0z" id="XINXILOU;F02;210-211" />
          <path d="M-128303.32,-140724.28l10120,0l0,-14620l-10120,0z" id="XINXILOU;F02;201-202" />
          <path d="M-85768.32,-140724.28l7085,0l0,-6620l-7085,0z" id="XINXILOU;F02;209" />
          <path d="M-92768.32,-140724.28l6750,0l0,-6620l-6750,0z" id="XINXILOU;F02;208" />
          <path d="M-103468.32,-140724.28l3295,0l0,-6620l-3295,0z" id="XINXILOU;F02;205" />
          <path d="M-99973.32,-140724.28l3460,0l0,-6620l-3460,0z" id="XINXILOU;F02;206" />
          <path d="M-96313.32,-140724.28l3295,0l0,-6620l-3295,0z" id="XINXILOU;F02;207" />
          <path d="M-110403.32,-132724.28l0,-5120l3120,0l0,5120z" id="XINXILOU;F02;219" />
          <path d="M-106903.32,-132724.28l0,-5120l3120,0l0,5120z" id="XINXILOU;F02;218" />
          <path d="M-103403.32,-132724.28l0,-5120l3210,0l0,5120l-3210,0z" id="XINXILOU;F02;217" />
          <path d="M-99993.32,-132724.28l0,-5120l6910,0l0,5120z" id="XINXILOU;F02;216" />
          <path d="M-117803.32,-140724.28l14085,0l0,-6620l-14085,0z" id="XINXILOU;F02;203-204" />
        </g>
      </g>
    </g>
    <g id="asset-labels" font-family="Arial" font-weight="bold" font-size="1.5em" text-anchor="middle">
      <g id="rm-labels">
        <g id="l-rm-XINXILOU;F02;215" transform="translate(-91143.32,135278.56)">
          <text>215</text>
        </g>
        <g id="l-rm-XINXILOU;F02;214" transform="translate(-87643.32,135278.56)">
          <text>214</text>
        </g>
        <g id="l-rm-XINXILOU;F02;212-213" transform="translate(-73243.32,134278.56)">
          <text>212-213</text>
        </g>
        <g id="l-rm-XINXILOU;F02;210-211" transform="translate(-73243.32,148028.56)">
          <text>210-211</text>
        </g>
        <g id="l-rm-XINXILOU;F02;201-202" transform="translate(-123243.32,148028.56)">
          <text>201-202</text>
        </g>
        <g id="l-rm-XINXILOU;F02;209" transform="translate(-82225.82,144028.56)">
          <text>209</text>
        </g>
        <g id="l-rm-XINXILOU;F02;208" transform="translate(-89393.32,144028.56)">
          <text>208</text>
        </g>
        <g id="l-rm-XINXILOU;F02;205" transform="translate(-101820.82,144028.56)">
          <text>205</text>
        </g>
        <g id="l-rm-XINXILOU;F02;206" transform="translate(-98243.32,144028.56)">
          <text>206</text>
        </g>
        <g id="l-rm-XINXILOU;F02;207" transform="translate(-94665.82,144028.56)">
          <text>207</text>
        </g>
        <g id="l-rm-XINXILOU;F02;219" transform="translate(-108843.32,135272.46)">
          <text>219</text>
        </g>
        <g id="l-rm-XINXILOU;F02;218" transform="translate(-105343.32,135272.46)">
          <text>218</text>
        </g>
        <g id="l-rm-XINXILOU;F02;217" transform="translate(-101798.32,135272.46)">
          <text>217</text>
        </g>
        <g id="l-rm-XINXILOU;F02;216" transform="translate(-96538.32,135272.65)">
          <text>216</text>
        </g>
        <g id="l-rm-XINXILOU;F02;203-204" transform="translate(-110760.82,144028.56)">
          <text>203-204</text>
        </g>
      </g>
    </g>
  </g>
</svg>