<svg version="1.1" xmlns="http://www.w3.org/2000/svg" xmlns:xlink="http://www.w3.org/1999/xlink" viewBox="-129924.23 190339.92 63358 37238">
  <style>.i0 { stroke:#000000; } .i主体 { stroke:#c0c0c0; } .rm { stroke:#0000ff; } .pub_text { stroke:#000000; } .dim_symb { stroke:#00ff00; } .i_tch_wipeout { stroke:#000000; } .i_tch_mask { stroke:#000000; } .gors { stroke:#ff00ff; } .rm-asset { stroke:#0000ff; } .rmtc-asset { stroke:#0000ff; } .rmtc { stroke:#00ffff; } .rm-assettxt { stroke:#0000ff; } .rmtc-assettxt { stroke:#0000ff; }</style>
  <view id="defaultView" viewBox="-129924.23 190339.92 63358 37238" />
  <defs />
  <g id="viewer">
    <g id="mirror" transform="scale(1, -1)" stroke-width="0.09%">
      <g id="background" fill="none">
        <g id="layer-主体" class="i主体">
          <path d="M-78683.32,-192753.12l5630,-5793.33" />
          <path d="M-73053.32,-198546.45l5250,5793.33" />
          <path d="M-73053.32,-198546.45l0,-13793.33" />
          <path d="M-78683.32,-194753.12l0,2000l10880,0l0,-25380l-10880,0l0,8000" />
          <path d="M-78683.32,-218133.12l5630,5793.33" />
          <path d="M-73053.32,-212339.78l5250,-5793.33" />
          <path d="M-117803.32,-192753.12l-5630,-5793.33" />
          <path d="M-123433.32,-198546.45l-5250,5793.33" />
          <path d="M-123433.32,-198546.45l0,-13793.33" />
          <path d="M-117803.32,-194753.12l0,2000l-10880,0l0,-25380l10880,0l0,8000" />
          <path d="M-116573.32,-194753.12l0,3230l-13340,0l0,-27840l13340,0l0,9230" />
          <path d="M-117803.32,-218133.12l-5630,5793.33" />
          <path d="M-123433.32,-212339.78l-5250,-5793.33" />
          <path d="M-79913.32,-194753.12l0,3230l13340,0l0,-27840l-13340,0l0,9230" />
          <path d="M-117803.32,-194753.12l0,2000l-10880,0l0,-25380l10880,0l0,8000" />
          <path d="M-116723.32,-194753.12l0,3080l-13040,0l0,-27540l13040,0l0,9080" />
          <path d="M-79763.32,-194753.12l0,3080l13040,0l0,-27540l-13040,0l0,9080" />
          <path d="M-117773.32,-202753.12l370,0l0,-380l-370,0" />
          <path d="M-115283.32,-202753.12l-370,0l0,-380l370,0" />
          <path d="M-108553.32,-202753.12l370,0l0,-380l-370,0" />
          <path d="M-107013.32,-202753.12l-370,0l0,-380l370,0" />
          <path d="M-99873.32,-202753.12l370,0l0,-380l-370,0" />
          <path d="M-98333.32,-202753.12l-370,0l0,-380l370,0" />
          <path d="M-89373.32,-202753.12l370,0l0,-380l-370,0" />
          <path d="M-87083.04,-202753.12l-368.67,0l0,-380l371.53,0" />
          <path d="M-81403.32,-202753.12l370,0l0,-380l-370,0" />
          <path d="M-78913.32,-202753.12l-370,0l0,-380l370,0" />
          <path d="M-84893.32,-202753.12l0,-380" />
          <path d="M-83143.32,-202753.12l0,-380" />
          <path d="M-108553.32,-200632.45l370,0l0,380l-370,0" />
          <path d="M-107013.32,-200632.45l-370,0l0,380l370,0" />
          <path d="M-89373.32,-200632.45l370,0l0,380l-370,0" />
          <path d="M-87833.32,-200632.45l-370,0l0,380l370,0" />
          <path d="M-99873.32,-200253.12l370,0l0,-380l-370,0" />
          <path d="M-98333.32,-200253.12l-370,0l0,-380l370,0" />
          <path d="M-103468.32,-204083.12l1600,0" />
          <path d="M-101868.32,-203133.12l0,-950" />
          <path d="M-103468.32,-204283.12l1800,0" />
          <path d="M-101668.32,-203133.12l0,-1150" />
          <path d="M-93018.32,-203933.12l-1200,0" />
          <path d="M-93018.32,-204133.12l-1400,0" />
          <path d="M-94218.32,-203133.12l0,-800" />
          <path d="M-94418.32,-203133.12l0,-1000" />
          <path d="M-93965.58,-202753.12l-1149.43,0" />
          <path d="M-95115.01,-202753.12l0,-380" />
          <path d="M-95115.01,-203133.12l2096.69,0" />
          <path d="M-103468.32,-203133.12l107.64,0" />
          <path d="M-101397.03,-203133.12l0,380" />
          <path d="M-101397.03,-202753.12l-1293.09,0" />
          <path d="M-95915.01,-202753.12l-2788.31,0" />
          <path d="M-98703.32,-202753.12l0,-380" />
          <path d="M-98703.32,-203133.12l2788.31,0" />
          <path d="M-95915.01,-203133.12l0,380" />
          <path d="M-99503.32,-202753.12l-1093.71,0" />
          <path d="M-100597.03,-202753.12l0,-380" />
          <path d="M-100597.03,-203133.12l1093.71,0" />
          <path d="M-99503.32,-203133.12l0,380" />
          <path d="M-93215.21,-202772.7l19.82,19.82" />
          <path d="M-93215.21,-202884.96l132.08,132.08" />
          <path d="M-93215.21,-202997.21l54.33,54.33" />
          <path d="M-93160.88,-202942.88l190,190" />
          <path d="M-93215.21,-203109.46l166.58,166.58" />
          <path d="M-93048.63,-202942.88l190,190" />
          <path d="M-93126.37,-203132.88l190,190" />
          <path d="M-92936.37,-202942.88l91.16,91.16" />
          <path d="M-93014.12,-203132.88l168.91,168.91" />
          <path d="M-92901.87,-203132.88l56.66,56.66" />
          <path d="M-93965.58,-202753.12l0,-380" />
          <path d="M-103360.69,-202753.12l-232.64,0" />
          <path d="M-102584.76,-203133.12l1187.73,0" />
          <path d="M-103467.63,-204283.12l200,200" />
          <path d="M-103405.76,-204283.12l200,200" />
          <path d="M-103343.88,-204283.12l200,200" />
          <path d="M-103282.01,-204283.12l200,200" />
          <path d="M-103220.14,-204283.12l200,200" />
          <path d="M-103158.27,-204283.12l200,200" />
          <path d="M-103096.4,-204283.12l200,200" />
          <path d="M-103034.53,-204283.12l200,200" />
          <path d="M-102972.65,-204283.12l200,200" />
          <path d="M-102910.78,-204283.12l200,200" />
          <path d="M-102848.91,-204283.12l200,200" />
          <path d="M-102787.04,-204283.12l200,200" />
          <path d="M-102725.17,-204283.12l200,200" />
          <path d="M-102663.29,-204283.12l200,200" />
          <path d="M-101868.32,-203488.15l200,200" />
          <path d="M-102601.42,-204283.12l200,200" />
          <path d="M-101868.32,-203550.02l200,200" />
          <path d="M-102539.55,-204283.12l200,200" />
          <path d="M-101868.32,-203611.89l200,200" />
          <path d="M-102477.68,-204283.12l200,200" />
          <path d="M-101868.32,-203673.76l200,200" />
          <path d="M-102415.81,-204283.12l200,200" />
          <path d="M-101868.32,-203735.63l200,200" />
          <path d="M-102353.94,-204283.12l200,200" />
          <path d="M-101868.32,-203797.51l200,200" />
          <path d="M-102292.06,-204283.12l200,200" />
          <path d="M-101868.32,-203859.38l200,200" />
          <path d="M-102230.19,-204283.12l200,200" />
          <path d="M-101868.32,-203921.25l200,200" />
          <path d="M-102168.32,-204283.12l200,200" />
          <path d="M-101868.32,-203983.12l200,200" />
          <path d="M-102106.45,-204283.12l200,200" />
          <path d="M-101868.32,-204044.99l200,200" />
          <path d="M-102044.58,-204283.12l376.25,376.25" />
          <path d="M-101982.7,-204283.12l314.38,314.38" />
          <path d="M-101920.83,-204283.12l252.51,252.51" />
          <path d="M-101858.96,-204283.12l190.64,190.64" />
          <path d="M-101797.09,-204283.12l128.76,128.76" />
          <path d="M-101735.22,-204283.12l66.89,66.89" />
          <path d="M-101673.34,-204283.12l5.02,5.02" />
          <path d="M-94418.32,-203374.64l200,200" />
          <path d="M-94418.32,-203436.51l200,200" />
          <path d="M-94418.32,-203498.38l200,200" />
          <path d="M-94418.32,-203560.26l200,200" />
          <path d="M-94418.32,-203622.13l200,200" />
          <path d="M-94418.32,-203684l200,200" />
          <path d="M-94418.32,-203745.87l200,200" />
          <path d="M-94418.32,-203807.74l200,200" />
          <path d="M-94418.32,-203869.61l200,200" />
          <path d="M-94418.32,-203931.49l200,200" />
          <path d="M-94418.32,-203993.36l200,200" />
          <path d="M-94418.32,-204055.23l200,200" />
          <path d="M-94418.32,-204117.1l200,200" />
          <path d="M-94372.47,-204133.12l200,200" />
          <path d="M-94310.6,-204133.12l200,200" />
          <path d="M-94248.72,-204133.12l200,200" />
          <path d="M-94186.85,-204133.12l200,200" />
          <path d="M-94124.98,-204133.12l200,200" />
          <path d="M-94063.11,-204133.12l200,200" />
          <path d="M-94001.24,-204133.12l200,200" />
          <path d="M-93939.36,-204133.12l200,200" />
          <path d="M-93877.49,-204133.12l200,200" />
          <path d="M-93815.62,-204133.12l200,200" />
          <path d="M-93753.75,-204133.12l200,200" />
          <path d="M-93691.88,-204133.12l200,200" />
          <path d="M-93630.01,-204133.12l200,200" />
          <path d="M-93568.13,-204133.12l200,200" />
          <path d="M-93506.26,-204133.12l200,200" />
          <path d="M-93444.39,-204133.12l200,200" />
          <path d="M-93382.52,-204133.12l200,200" />
          <path d="M-93320.65,-204133.12l200,200" />
          <path d="M-93258.77,-204133.12l200,200" />
          <path d="M-101868.32,-203240.66l107.54,107.54" />
          <path d="M-101868.32,-203302.53l169.41,169.41" />
          <path d="M-101868.32,-203364.4l200,200" />
          <path d="M-101868.32,-203426.28l200,200" />
          <path d="M-101868.32,-203488.15l200,200" />
          <path d="M-113903.32,-200633.12l0,-200l-250.29,0" />
          <path d="M-114153.61,-200833.12l0,200" />
          <path d="M-113903.32,-202753.12l0,200l-250,0l0,-200" />
          <path d="M-109153.04,-200633.12l0,-200l-250.29,0" />
          <path d="M-109403.32,-200833.12l0,200" />
          <path d="M-109153.04,-202753.12l0,200l-250,0l0,-200" />
          <path d="M-87083.04,-200633.12l0,-200l-250.29,0" />
          <path d="M-87333.32,-200833.12l0,200" />
          <path d="M-87083.04,-202753.12l0,200l-250,0l0,-200" />
          <path d="M-82333.32,-200633.12l0,-200l-250.29,0" />
          <path d="M-82583.61,-200833.12l0,200" />
          <path d="M-82333.32,-202753.12l0,200l-250,0l0,-200" />
        </g>
        <g id="layer-GORS" class="gors">
          <path d="M-118183.32,-210133.12l39880,0l0,15380l-39880,0l0,-15380z" />
        </g>
      </g>
      <g id="assets" fill="none">
        <g id="rm-assets" class="rm-asset">
          <path d="M-117803.32,-195133.12l3520,0l0,-5120l-3520,0z" id="XINXILOU;F03;318" />
          <path d="M-110403.32,-195133.12l3150,0l0,-5120l-3150,0z" id="XINXILOU;F03;317" />
          <path d="M-107053.32,-195133.12l3270,0l0,-5120l-3270,0z" id="XINXILOU;F03;316" />
          <path d="M-103403.32,-195133.12l3400.06,0l0,-5120l-3400.06,0z" id="XINXILOU;F03;315" />
          <path d="M-99803.26,-195133.12l3289.94,0l0,-5120l-3289.94,0z" id="XINXILOU;F03;314" />
          <path d="M-96313.32,-195133.12l3230,0l0,-5120l-3230,0z" id="XINXILOU;F03;313" />
          <path d="M-92703.32,-195133.12l3270,0l0,-5120l-3270,0z" id="XINXILOU;F03;312" />
          <path d="M-89233.32,-195133.12l3150,0l0,-5120l-3150,0z" id="XINXILOU;F03;311" />
          <path d="M-82203.32,-195133.12l3520,0l0,-5120l-3520,0z" id="XINXILOU;F03;310" />
          <path d="M-117803.32,-203133.12l10550,0l0,-6620l-10550,0z" id="XINXILOU;F03;301-302" />
          <path d="M-107053.32,-203133.12l3335,0l0,-6620l-3335,0z" id="XINXILOU;F03;303" />
          <path d="M-103468.32,-203133.12l3295,0l0,-6620l-3295,0z" id="XINXILOU;F03;304" />
          <path d="M-99973.32,-203133.12l3460,0l0,-6620l-3460,0z" id="XINXILOU;F03;305" />
          <path d="M-96313.32,-203133.12l3295,0l0,-6620l-3295,0z" id="XINXILOU;F03;306" />
          <path d="M-92768.32,-203133.12l3335,0l0,-6620l-3335,0z" id="XINXILOU;F03;307" />
          <path d="M-89233.32,-203133.12l10550,0l0,-6620l-10550,0z" id="XINXILOU;F03;308-309" />
        </g>
      </g>
    </g>
    <g id="asset-labels" font-family="Arial" font-weight="bold" font-size="1.5em" text-anchor="middle">
      <g id="rm-labels">
        <g id="l-rm-XINXILOU;F03;318" transform="translate(-116043.32,197687.4)">
          <text>318</text>
        </g>
        <g id="l-rm-XINXILOU;F03;317" transform="translate(-108828.32,197687.4)">
          <text>317</text>
        </g>
        <g id="l-rm-XINXILOU;F03;316" transform="translate(-105418.32,197681.49)">
          <text>316</text>
        </g>
        <g id="l-rm-XINXILOU;F03;315" transform="translate(-101703.29,197687.4)">
          <text>315</text>
        </g>
        <g id="l-rm-XINXILOU;F03;314" transform="translate(-98158.29,197681.49)">
          <text>314</text>
        </g>
        <g id="l-rm-XINXILOU;F03;313" transform="translate(-94698.32,197681.49)">
          <text>313</text>
        </g>
        <g id="l-rm-XINXILOU;F03;312" transform="translate(-91068.32,197681.49)">
          <text>312</text>
        </g>
        <g id="l-rm-XINXILOU;F03;311" transform="translate(-87658.32,197681.49)">
          <text>311</text>
        </g>
        <g id="l-rm-XINXILOU;F03;310" transform="translate(-80443.32,197687.4)">
          <text>310</text>
        </g>
        <g id="l-rm-XINXILOU;F03;301-302" transform="translate(-112528.32,206437.4)">
          <text>301-302</text>
        </g>
        <g id="l-rm-XINXILOU;F03;303" transform="translate(-105385.82,206431.3)">
          <text>303</text>
        </g>
        <g id="l-rm-XINXILOU;F03;304" transform="translate(-101820.82,206437.4)">
          <text>304</text>
        </g>
        <g id="l-rm-XINXILOU;F03;305" transform="translate(-98243.32,206437.4)">
          <text>305</text>
        </g>
        <g id="l-rm-XINXILOU;F03;306" transform="translate(-94665.82,206437.4)">
          <text>306</text>
        </g>
        <g id="l-rm-XINXILOU;F03;307" transform="translate(-91100.82,206437.4)">
          <text>307</text>
        </g>
        <g id="l-rm-XINXILOU;F03;308-309" transform="translate(-83958.32,206437.4)">
          <text>308-309</text>
        </g>
      </g>
    </g>
  </g>
</svg>