<svg version="1.1" xmlns="http://www.w3.org/2000/svg" xmlns:xlink="http://www.w3.org/1999/xlink" viewBox="150653.96 -188144.24 54200 17807">
  <style>.i0 { stroke:#000000; } .i主体 { stroke:#000000; } .rm { stroke:#0000ff; } .defpoints { stroke:#000000; } .rm-asset { stroke:#0000ff; } .rmtc-asset { stroke:#0000ff; } .rmtc { stroke:#00ffff; } .rm-assettxt { stroke:#0000ff; } .rmtc-assettxt { stroke:#0000ff; } .gros { stroke:#ff00ff; }</style>
  <view id="defaultView" viewBox="150653.96 -188144.24 54200 17807" />
  <defs>
    <symbol id="$WINLIB2D$00000001_2900x360" overflow="visible" class="i0">
      <path d="M1450,-180l0,360" />
      <path d="M-1450,180l0,-360" />
      <path d="M1450,60l-2900,0" />
      <path d="M1450,-60l-2900,0" />
      <path d="M-1450,-180l2900,0" />
      <path d="M-1450,180l2900,0" />
    </symbol>
    <symbol id="$DorLib2D$00000114" overflow="visible" class="i0">
      <path d="M-0.21,0.71a1,1 0 0,1 -0.29,-0.71" />
      <path d="M0.5,0l-0.71,0.71" />
    </symbol>
    <symbol id="$WINLIB2D$00000001_3000x360" overflow="visible" class="i0">
      <path d="M1500,-180l0,360" />
      <path d="M-1500,180l0,-360" />
      <path d="M1500,60l-3000,0" />
      <path d="M1500,-60l-3000,0" />
      <path d="M-1500,-180l3000,0" />
      <path d="M-1500,180l3000,0" />
    </symbol>
    <symbol id="$DorLib2D$00000116" overflow="visible" class="i0">
      <path d="M-0.5,0l0.35,0.35" />
      <path d="M0,0a0.5,0.5 0 0,1 -0.15,0.35" />
      <path d="M0.15,0.35a0.5,0.5 0 0,1 -0.15,-0.35" />
      <path d="M0.5,0l-0.35,0.35" />
    </symbol>
    <symbol id="$lvtry$00000201" overflow="visible" class="i0">
      <path d="M-109.78,-40l0,-429.66" />
      <path d="M139.78,-40a40,40 0 0,1 -40,40l-199.57,0a40,40 0 0,1 -40,-40l0,-439.66a110,110 0 0,1 110,-110l59.57,0a110,110 0 0,1 110,110l0,439.66" />
      <path d="M109.78,-40a10,10 0 0,1 -10,10" />
      <path d="M-99.78,-30a10,10 0 0,1 -10,-10" />
      <path d="M99.78,-30l-199.57,0" />
      <circle r="20" cx="0" cy="-358.61" />
      <path d="M139.78,-469.66l-279.57,0" />
      <path d="M109.78,-469.66l0,429.66" />
    </symbol>
    <symbol id="$TCHSYS$APDOOR2D" overflow="visible" class="i0">
      <path d="M0.5,0l-0.5,0.87" />
      <path d="M0,0.87a1,1 0 0,1 -0.5,-0.87" />
    </symbol>
    <symbol id="$lvtry$00000171" overflow="visible" class="i0">
      <path d="M10.61,-74.25l63.64,63.64" />
      <path d="M-27.39,-69.82l97.21,97.21" />
      <path d="M-74.25,10.61l63.64,63.64" />
      <path d="M-69.82,-27.39l97.21,97.21" />
      <path d="M-53.03,-53.03l106.07,106.07" />
      <circle r="75" />
    </symbol>
    <symbol id="$lvtry$00000191" overflow="visible" class="i0">
      <circle r="50" cy="-250" />
      <path d="M39.04,-281.23l210.96,-168.77" />
      <path d="M39.04,-218.77l210.96,168.77" />
      <path d="M250,-450l0,400l-500,0l0,-400z" />
      <path d="M300,-500l0,500l-600,0l0,-500z" />
      <path d="M-250,-450l210.96,168.77" />
      <path d="M-250,-50l210.96,-168.77" />
    </symbol>
    <symbol id="$lvtry$00000194" overflow="visible" class="i0">
      <path d="M42.25,-27.17a172.58,172.58 0 0,1 -27.83,-7.78" />
      <path d="M8.85,-2.54a258.71,258.71 0 0,1 34.21,-5.14" />
      <circle r="20" cx="0" cy="-221.43" />
      <path d="M3.81,-42.78a166.25,166.25 0 0,1 -28.52,-25.84" />
      <path d="M-35.06,-60.48a6.77,6.77 0 0,1 10.36,-8.14" />
      <path d="M-35.06,-60.48a166.25,166.25 0 0,1 18.37,33.82" />
      <path d="M-9.19,-83.37a9.9,9.9 0 0,1 18.39,0" />
      <path d="M14.41,-34.95a372.22,372.22 0 0,1 -5.22,-48.41" />
      <path d="M-9.19,-83.37a372.22,372.22 0 0,1 -2.26,28.26" />
      <path d="M-19.46,-33.16a172.58,172.58 0 0,1 -22.78,5.99" />
      <circle r="16.69" cx="0" cy="-26.53" />
      <path d="M-13.78,-52.62a169.65,169.65 0 0,1 -13.49,-13.76" />
      <path d="M-22.1,-46.08a10.6,10.6 0 0,1 8.32,-6.54" />
      <path d="M-32.28,-62.44a169.65,169.65 0 0,1 10.18,16.36" />
      <path d="M-31.97,-61.9a3.37,3.37 0 0,1 5.15,-4.05" />
      <path d="M-16.69,-26.53l0,9.84" />
      <path d="M16.69,-26.53l0,9.84" />
      <path d="M-43.06,-7.68a258.71,258.71 0 0,1 34.21,5.14" />
      <path d="M16.69,-16.69a16.69,16.69 0 0,1 -33.38,0" />
      <path d="M-43.06,-7.68a10.06,10.06 0 0,1 0.81,-19.5" />
      <circle r="15" cx="0" cy="-221.43" />
      <path d="M92.26,-53.38a297.6,297.6 0 0,1 -78.54,14.35m152.45,-53.87a239.54,239.54 0 0,1 -73.91,39.52m125.84,-101.91a194.91,194.91 0 0,1 -51.93,62.39m68.83,-130.81a146.95,146.95 0 0,1 -16.9,68.42m0,-136.85a146.95,146.95 0 0,1 16.9,68.42m-68.83,-130.81a194.91,194.91 0 0,1 51.93,62.39m-125.84,-101.91a239.54,239.54 0 0,1 73.91,39.52m-166.17,-54.19a297.6,297.6 0 0,1 92.26,14.66m-184.52,0a297.6,297.6 0 0,1 92.26,-14.66m-166.17,54.19a239.54,239.54 0 0,1 73.91,-39.52m-125.84,101.91a194.91,194.91 0 0,1 51.93,-62.39m-68.83,130.81a146.95,146.95 0 0,1 16.9,-68.42m0,136.85a146.95,146.95 0 0,1 -16.9,-68.42m68.83,130.81a194.91,194.91 0 0,1 -51.93,-62.39m125.84,101.91a239.54,239.54 0 0,1 -73.91,-39.52m143.65,53.33a297.6,297.6 0 0,1 -69.74,-13.81" />
      <path d="M42.25,-27.17a10.06,10.06 0 0,1 0.81,19.5" />
    </symbol>
    <symbol id="$WINLIB2D$00000001_1500x360" overflow="visible" class="i0">
      <path d="M750,-180l0,360" />
      <path d="M-750,180l0,-360" />
      <path d="M750,60l-1500,0" />
      <path d="M750,-60l-1500,0" />
      <path d="M-750,-180l1500,0" />
      <path d="M-750,180l1500,0" />
    </symbol>
    <symbol id="$lvtry$00000222" overflow="visible" class="i0">
      <path d="M-205,-190.69l0,190.69l410,0l0,-190.69a203.43,203.43 0 0,1 -154.23,-132.77m-50.77,-36.18a54,54 0 0,1 50.77,36.18m-101.53,0a54,54 0 0,1 50.77,-36.18m-50.77,36.18a203.43,203.43 0 0,1 -154.23,132.77" />
      <path d="M161.08,-182.28a233.43,233.43 0 0,1 -138.63,-141.64" />
      <path d="M-22.45,-323.92a233.43,233.43 0 0,1 -133.44,139.63" />
      <circle r="20" cy="-241.62" />
      <path d="M0,-340a24,24 0 0,1 22.45,16.08" />
      <path d="M-22.45,-323.92a24,24 0 0,1 22.45,-16.08" />
      <path d="M161.54,-163.73a395,395 0 0,1 -317.79,-2.15" />
      <path d="M-156.25,-165.88a10,10 0 0,1 0.36,-18.41" />
      <circle r="20" cx="-0.03" cy="-60.43" />
      <path d="M161.08,-182.28a10,10 0 0,1 0.46,18.55" />
    </symbol>
  </defs>
  <g id="viewer">
    <g id="mirror" transform="scale(1, -1)" stroke-width="0.09%">
      <g id="background" fill="none">
        <g id="layer-主体" class="i主体">
          <path d="M158773.96,179840.49l0,1860l600,0l0,-1860z" />
          <path d="M158799.92,181700.49l0,-1860" />
          <path d="M158533.96,179840.49l0,1860l-600,0l0,-1860z" />
          <path d="M158508,181700.49l0,-1860" />
          <path d="M202053.96,179270.49l0,-1500" />
          <path d="M202353.96,179600.49l0,-2160" />
          <path d="M156353.96,179840.49l1000,0" />
          <path d="M159953.96,179840.49l1000,0" />
          <path d="M159986.46,181820.49l0,3900" />
          <path d="M157321.46,181820.49l0,3900" />
          <path d="M151253.96,171120.49l0,6000" />
          <path d="M151613.96,171120.49l0,6000" />
          <path d="M202053.96,185720.49l0,-5800" />
          <path d="M201693.96,185720.49l0,-5800" />
          <path d="M201653.96,186080.49l-200,0" />
          <path d="M201453.96,186080.49l0,-360" />
          <path d="M201453.96,185720.49l200,0" />
          <path d="M198453.96,185720.49l100,0" />
          <path d="M198553.96,185720.49l0,360" />
          <path d="M198553.96,186080.49l-100,0" />
          <use xlink:href="#$WINLIB2D$00000001_2900x360" x="200003.96" y="185900.49" transform="rotate(180,200003.96,185900.49)">.</use>
          <path d="M151653.96,170760.49l200,0" />
          <path d="M151853.96,170760.49l0,360" />
          <path d="M151853.96,171120.49l-200,0" />
          <path d="M154853.96,171120.49l-100,0" />
          <path d="M154753.96,171120.49l0,-360" />
          <path d="M154753.96,170760.49l100,0" />
          <use xlink:href="#$WINLIB2D$00000001_2900x360" x="153303.96" y="170940.49">.</use>
          <path d="M151613.96,177520.49l0,250" />
          <path d="M151613.96,177770.49l-360,0" />
          <path d="M151253.96,177770.49l0,-250" />
          <path d="M151253.96,179520.49l0,-250" />
          <path d="M151253.96,179270.49l360,0" />
          <path d="M151613.96,179270.49l0,250" />
          <path d="M202053.96,177120.49l0,-6000" />
          <path d="M201693.96,177120.49l0,-6000" />
          <path d="M151613.96,177200.49l1140,0" />
          <path d="M152753.96,177200.49l0,240" />
          <path d="M152753.96,177440.49l-1140,0" />
          <path d="M155053.96,177440.49l-1300,0" />
          <path d="M153753.96,177440.49l0,-240" />
          <path d="M153753.96,177200.49l1180,0" />
          <use xlink:href="#$DorLib2D$00000114" x="153.25" y="177.32" transform="scale(1000,1000) scale(-1,-1) translate(-306.51,-354.64)" stroke-width="0.0001%">.</use>
          <path d="M202053.96,177440.49l2080,0" />
          <path d="M202053.96,177200.49l2200,0" />
          <path d="M154933.96,179600.49l1420,0" />
          <path d="M156353.96,179600.49l0,240" />
          <path d="M156353.96,179840.49l-1180,0" />
          <path d="M158533.96,179840.49l-1180,0" />
          <path d="M157353.96,179840.49l0,-240" />
          <path d="M157353.96,179600.49l1300,0" />
          <use xlink:href="#$DorLib2D$00000114" x="156.85" y="179.72" transform="scale(1000,1000) scale(-1,1) translate(-313.71,0)" stroke-width="0.0001%">.</use>
          <path d="M154853.96,186080.49l-100,0" />
          <path d="M154753.96,186080.49l0,-360" />
          <path d="M154753.96,185720.49l100,0" />
          <path d="M151653.96,185720.49l200,0" />
          <path d="M151853.96,185720.49l0,360" />
          <path d="M151853.96,186080.49l-200,0" />
          <use xlink:href="#$WINLIB2D$00000001_2900x360" x="153303.96" y="185900.49" transform="rotate(180,153303.96,185900.49)">.</use>
          <path d="M155173.96,185720.49l0,-3900" />
          <path d="M154933.96,185720.49l0,-4020" />
          <path d="M198053.96,186080.49l-100,0" />
          <path d="M197953.96,186080.49l0,-360" />
          <path d="M197953.96,185720.49l100,0" />
          <path d="M194853.96,185720.49l100,0" />
          <path d="M194953.96,185720.49l0,360" />
          <path d="M194953.96,186080.49l-100,0" />
          <use xlink:href="#$WINLIB2D$00000001_3000x360" x="196453.96" y="185900.49" transform="rotate(180,196453.96,185900.49)">.</use>
          <path d="M198373.96,185720.49l0,-6120" />
          <path d="M198133.96,185720.49l0,-5880" />
          <path d="M187253.96,186080.49l-100,0" />
          <path d="M187153.96,186080.49l0,-360" />
          <path d="M187153.96,185720.49l100,0" />
          <path d="M184053.96,185720.49l100,0" />
          <path d="M184153.96,185720.49l0,360" />
          <path d="M184153.96,186080.49l-100,0" />
          <use xlink:href="#$WINLIB2D$00000001_3000x360" x="185653.96" y="185900.49" transform="rotate(180,185653.96,185900.49)">.</use>
          <path d="M187573.96,185720.49l0,-5880" />
          <path d="M187333.96,185720.49l0,-5880" />
          <path d="M180253.96,179600.49l1300,0" />
          <path d="M181553.96,179600.49l0,240" />
          <path d="M181553.96,179840.49l-1180,0" />
          <path d="M187333.96,179840.49l-4780,0" />
          <path d="M182553.96,179840.49l0,-240" />
          <path d="M182553.96,179600.49l4900,0" />
          <use xlink:href="#$DorLib2D$00000114" x="182.05" y="179.72" transform="scale(1000,1000) scale(-1,1) translate(-364.11,0)" stroke-width="0.0001%">.</use>
          <path d="M180053.96,187720.49l-100,0" />
          <path d="M179953.96,187720.49l0,-360" />
          <path d="M179953.96,187360.49l100,0" />
          <path d="M176853.96,187360.49l100,0" />
          <path d="M176953.96,187360.49l0,360" />
          <path d="M176953.96,187720.49l-100,0" />
          <use xlink:href="#$WINLIB2D$00000001_3000x360" x="178453.96" y="187540.49" transform="rotate(180,178453.96,187540.49)">.</use>
          <path d="M180373.96,185720.49l0,-5880" />
          <path d="M180133.96,185720.49l0,-5880" />
          <use xlink:href="#$WINLIB2D$00000001_3000x360" x="189253.96" y="185900.49" transform="rotate(180,189253.96,185900.49)">.</use>
          <path d="M187453.96,179600.49l4900,0" />
          <path d="M192353.96,179600.49l0,240" />
          <path d="M192353.96,179840.49l-4780,0" />
          <path d="M194533.96,179840.49l-1180,0" />
          <path d="M193353.96,179840.49l0,-240" />
          <path d="M193353.96,179600.49l1300,0" />
          <use xlink:href="#$DorLib2D$00000114" x="192.85" y="179.72" transform="scale(1000,1000)" stroke-width="0.0001%">.</use>
          <path d="M194453.96,186080.49l-100,0" />
          <path d="M194353.96,186080.49l0,-360" />
          <path d="M194353.96,185720.49l100,0" />
          <path d="M191253.96,185720.49l100,0" />
          <path d="M191353.96,185720.49l0,360" />
          <path d="M191353.96,186080.49l-100,0" />
          <use xlink:href="#$WINLIB2D$00000001_3000x360" x="192853.96" y="185900.49" transform="rotate(180,192853.96,185900.49)">.</use>
          <path d="M194653.96,179600.49l1300,0" />
          <path d="M195953.96,179600.49l0,240" />
          <path d="M195953.96,179840.49l-1180,0" />
          <path d="M198133.96,179840.49l-1180,0" />
          <path d="M196953.96,179840.49l0,-240" />
          <path d="M196953.96,179600.49l1420,0" />
          <use xlink:href="#$DorLib2D$00000114" x="196.45" y="179.72" transform="scale(1000,1000) scale(-1,1) translate(-392.91,0)" stroke-width="0.0001%">.</use>
          <path d="M194773.96,185720.49l0,-5880" />
          <path d="M194533.96,185720.49l0,-5880" />
          <path d="M169453.96,179600.49l1050,0" />
          <path d="M170503.96,179600.49l0,240" />
          <path d="M170503.96,179840.49l-930,0" />
          <path d="M180133.96,179840.49l-930,0" />
          <path d="M179203.96,179840.49l0,-240" />
          <path d="M179203.96,179600.49l1050,0" />
          <path d="M172003.96,179600.49l5700,0" />
          <path d="M177703.96,179600.49l0,240" />
          <path d="M177703.96,179840.49l-5700,0" />
          <path d="M172003.96,179840.49l0,-240" />
          <path d="M176453.96,187720.49l-100,0" />
          <path d="M176353.96,187720.49l0,-360" />
          <path d="M176353.96,187360.49l100,0" />
          <path d="M173253.96,187360.49l100,0" />
          <path d="M173353.96,187360.49l0,360" />
          <path d="M173353.96,187720.49l-100,0" />
          <use xlink:href="#$WINLIB2D$00000001_3000x360" x="174853.96" y="187540.49" transform="rotate(180,174853.96,187540.49)">.</use>
          <use xlink:href="#$WINLIB2D$00000001_3000x360" x="171253.96" y="187540.49" transform="rotate(180,171253.96,187540.49)">.</use>
          <path d="M169253.96,186080.49l-100,0" />
          <path d="M169153.96,186080.49l0,-360" />
          <path d="M169153.96,185720.49l100,0" />
          <path d="M166053.96,185720.49l100,0" />
          <path d="M166153.96,185720.49l0,360" />
          <path d="M166153.96,186080.49l-100,0" />
          <use xlink:href="#$WINLIB2D$00000001_3000x360" x="167653.96" y="185900.49" transform="rotate(180,167653.96,185900.49)">.</use>
          <path d="M169573.96,185720.49l0,-5880" />
          <path d="M169333.96,185720.49l0,-5880" />
          <path d="M162253.96,179600.49l4900,0" />
          <path d="M167153.96,179600.49l0,240" />
          <path d="M167153.96,179840.49l-4780,0" />
          <path d="M169333.96,179840.49l-1180,0" />
          <path d="M168153.96,179840.49l0,-240" />
          <path d="M168153.96,179600.49l1300,0" />
          <use xlink:href="#$DorLib2D$00000114" x="167.65" y="179.72" transform="scale(1000,1000)" stroke-width="0.0001%">.</use>
          <path d="M165653.96,186080.49l-100,0" />
          <path d="M165553.96,186080.49l0,-360" />
          <path d="M165553.96,185720.49l100,0" />
          <path d="M162453.96,185720.49l100,0" />
          <path d="M162553.96,185720.49l0,360" />
          <path d="M162553.96,186080.49l-100,0" />
          <use xlink:href="#$WINLIB2D$00000001_3000x360" x="164053.96" y="185900.49" transform="rotate(180,164053.96,185900.49)">.</use>
          <path d="M162053.96,186080.49l-100,0" />
          <path d="M161953.96,186080.49l0,-360" />
          <path d="M161953.96,185720.49l100,0" />
          <path d="M158853.96,185720.49l100,0" />
          <path d="M158953.96,185720.49l0,360" />
          <path d="M158953.96,186080.49l-100,0" />
          <use xlink:href="#$WINLIB2D$00000001_3000x360" x="160453.96" y="185900.49" transform="rotate(180,160453.96,185900.49)">.</use>
          <path d="M162373.96,185720.49l0,-4020" />
          <path d="M162133.96,185720.49l0,-3900" />
          <path d="M158653.96,179600.49l1300,0" />
          <path d="M159953.96,179600.49l0,240" />
          <path d="M159953.96,179840.49l-1180,0" />
          <path d="M162133.96,179840.49l-1180,0" />
          <path d="M160953.96,179840.49l0,-240" />
          <path d="M160953.96,179600.49l1300,0" />
          <use xlink:href="#$DorLib2D$00000114" x="160.45" y="179.72" transform="scale(1000,1000)" stroke-width="0.0001%">.</use>
          <path d="M158453.96,186080.49l-100,0" />
          <path d="M158353.96,186080.49l0,-360" />
          <path d="M158353.96,185720.49l100,0" />
          <path d="M155253.96,185720.49l100,0" />
          <path d="M155353.96,185720.49l0,360" />
          <path d="M155353.96,186080.49l-100,0" />
          <use xlink:href="#$WINLIB2D$00000001_3000x360" x="156853.96" y="185900.49" transform="rotate(180,156853.96,185900.49)">.</use>
          <path d="M158773.96,185720.49l0,-3900" />
          <path d="M158533.96,185720.49l0,-3900" />
          <path d="M155253.96,170760.49l100,0" />
          <path d="M155353.96,170760.49l0,360" />
          <path d="M155353.96,171120.49l-100,0" />
          <path d="M158453.96,171120.49l-100,0" />
          <path d="M158353.96,171120.49l0,-360" />
          <path d="M158353.96,170760.49l100,0" />
          <use xlink:href="#$WINLIB2D$00000001_3000x360" x="156853.96" y="170940.49">.</use>
          <path d="M155053.96,177440.49l1315.31,0" />
          <path d="M157369.27,177440.49l1284.69,0" />
          <path d="M155173.96,177200.49l1202.53,0" />
          <path d="M157249.27,177200.49l1284.69,0" />
          <use xlink:href="#$DorLib2D$00000114" x="160.45" y="177.32" transform="scale(1000,1000) scale(1,-1) translate(0,-354.64)" stroke-width="0.0001%">.</use>
          <path d="M155173.96,171120.49l0,6080" />
          <path d="M154933.96,177200.49l0,-6080" />
          <path d="M162453.96,170760.49l100,0" />
          <path d="M162553.96,170760.49l0,360" />
          <path d="M162553.96,171120.49l-100,0" />
          <path d="M165653.96,171120.49l-100,0" />
          <path d="M165553.96,171120.49l0,-360" />
          <path d="M165553.96,170760.49l100,0" />
          <use xlink:href="#$WINLIB2D$00000001_3000x360" x="164053.96" y="170940.49">.</use>
          <path d="M162373.96,177200.49l1180,0" />
          <path d="M163553.96,177200.49l0,240" />
          <path d="M163553.96,177440.49l-1300,0" />
          <path d="M165853.96,177440.49l-1300,0" />
          <path d="M164553.96,177440.49l0,-240" />
          <path d="M164553.96,177200.49l1180,0" />
          <use xlink:href="#$WINLIB2D$00000001_3000x360" x="167653.96" y="170940.49">.</use>
          <path d="M165973.96,177200.49l1180,0" />
          <path d="M167153.96,177200.49l0,240" />
          <path d="M167153.96,177440.49l-1300,0" />
          <path d="M169453.96,177440.49l-1300,0" />
          <path d="M168153.96,177440.49l0,-240" />
          <path d="M168153.96,177200.49l1180,0" />
          <use xlink:href="#$DorLib2D$00000114" x="171.25" y="177.32" transform="scale(1000,1000) scale(1,-1) translate(0,-354.64)" stroke-width="0.0001%">.</use>
          <use xlink:href="#$DorLib2D$00000114" x="167.65" y="177.32" transform="scale(1000,1000) scale(1,-1) translate(0,-354.64)" stroke-width="0.0001%">.</use>
          <path d="M173253.96,170760.49l100,0" />
          <path d="M173353.96,170760.49l0,360" />
          <path d="M173353.96,171120.49l-100,0" />
          <path d="M176453.96,171120.49l-100,0" />
          <path d="M176353.96,171120.49l0,-360" />
          <path d="M176353.96,170760.49l100,0" />
          <use xlink:href="#$WINLIB2D$00000001_3000x360" x="174853.96" y="170940.49">.</use>
          <path d="M173173.96,177200.49l1180,0" />
          <path d="M174353.96,177200.49l0,240" />
          <path d="M174353.96,177440.49l-1300,0" />
          <path d="M176653.96,177440.49l-1300,0" />
          <path d="M175353.96,177440.49l0,-240" />
          <path d="M175353.96,177200.49l1180,0" />
          <path d="M172933.96,171120.49l0,6080" />
          <path d="M173173.96,171120.49l0,6080" />
          <path d="M176853.96,170760.49l100,0" />
          <path d="M176953.96,170760.49l0,360" />
          <path d="M176953.96,171120.49l-100,0" />
          <path d="M180053.96,171120.49l-100,0" />
          <path d="M179953.96,171120.49l0,-360" />
          <path d="M179953.96,170760.49l100,0" />
          <use xlink:href="#$WINLIB2D$00000001_3000x360" x="178453.96" y="170940.49">.</use>
          <path d="M176773.96,177200.49l1180,0" />
          <path d="M177953.96,177200.49l0,240" />
          <path d="M177953.96,177440.49l-1300,0" />
          <path d="M180253.96,177440.49l-1300,0" />
          <path d="M178953.96,177440.49l0,-240" />
          <path d="M178953.96,177200.49l1180,0" />
          <use xlink:href="#$DorLib2D$00000114" x="178.45" y="177.32" transform="scale(1000,1000) scale(1,-1) translate(0,-354.64)" stroke-width="0.0001%">.</use>
          <path d="M176533.96,171120.49l0,6080" />
          <path d="M176773.96,171120.49l0,6080" />
          <use xlink:href="#$WINLIB2D$00000001_3000x360" x="182053.96" y="170940.49">.</use>
          <path d="M180373.96,177200.49l1180,0" />
          <path d="M181553.96,177200.49l0,240" />
          <path d="M181553.96,177440.49l-1300,0" />
          <path d="M183853.96,177440.49l-1300,0" />
          <path d="M182553.96,177440.49l0,-240" />
          <path d="M182553.96,177200.49l1180,0" />
          <path d="M180373.96,171120.49l0,4840" />
          <path d="M180373.96,175960.49l-240,0" />
          <path d="M180133.96,175960.49l0,-4840" />
          <path d="M180133.96,177200.49l0,-240" />
          <path d="M180133.96,176960.49l240,0" />
          <path d="M180373.96,176960.49l0,240" />
          <use xlink:href="#$WINLIB2D$00000001_3000x360" x="196453.96" y="170940.49">.</use>
          <path d="M194773.96,177200.49l1180,0" />
          <path d="M195953.96,177200.49l0,240" />
          <path d="M195953.96,177440.49l-1300,0" />
          <path d="M198253.96,177440.49l-1300,0" />
          <path d="M196953.96,177440.49l0,-240" />
          <path d="M196953.96,177200.49l1180,0" />
          <use xlink:href="#$DorLib2D$00000114" x="200.05" y="177.32" transform="scale(1000,1000) scale(1,-1) translate(0,-354.64)" stroke-width="0.0001%">.</use>
          <path d="M194533.96,171120.49l0,6080" />
          <path d="M194773.96,171120.49l0,6080" />
          <path d="M202053.96,179840.49l2200,0" />
          <path d="M202053.96,179600.49l2080,0" />
          <path d="M201693.96,179520.49l0,-250" />
          <path d="M201693.96,179270.49l360,0" />
          <path d="M202053.96,179270.49l0,250" />
          <path d="M202053.96,177520.49l0,250" />
          <path d="M202053.96,177770.49l-360,0" />
          <path d="M201693.96,177770.49l0,-250" />
          <use xlink:href="#$DorLib2D$00000116" x="134.58" y="119.01" transform="scale(1500,1500) rotate(270,134.58,119.01)" stroke-width="0.0001%">.</use>
          <path d="M204373.96,177440.49l480,0" />
          <path d="M204253.96,177200.49l600,0" />
          <path d="M204853.96,177440.49l0,-240" />
          <path d="M204253.96,179840.49l600,0" />
          <path d="M204373.96,179600.49l480,0" />
          <path d="M204853.96,179840.49l0,-240" />
          <path d="M204373.96,177440.49l0,330" />
          <path d="M204373.96,177770.49l-240,0" />
          <path d="M204133.96,177770.49l0,-330" />
          <path d="M204133.96,179600.49l0,-330" />
          <path d="M204133.96,179270.49l240,0" />
          <path d="M204373.96,179270.49l0,330" />
          <use xlink:href="#$DorLib2D$00000116" x="136.17" y="119.01" transform="scale(1500,1500) scale(1,-1) translate(0,-238.03) rotate(270,136.17,119.01)" stroke-width="0.0001%">.</use>
          <path d="M158453.96,185720.49l400,0" />
          <path d="M158853.96,185720.49l0,600" />
          <path d="M158853.96,186320.49l-400,0" />
          <path d="M158453.96,186320.49l0,-600" />
          <path d="M158453.96,170520.49l400,0" />
          <path d="M158853.96,170520.49l0,600" />
          <path d="M158853.96,171120.49l-400,0" />
          <path d="M158453.96,171120.49l0,-600" />
          <path d="M158853.96,170760.49l100,0" />
          <path d="M158953.96,170760.49l0,360" />
          <path d="M158953.96,171120.49l-100,0" />
          <path d="M162053.96,171120.49l-100,0" />
          <path d="M161953.96,171120.49l0,-360" />
          <path d="M161953.96,170760.49l100,0" />
          <use xlink:href="#$WINLIB2D$00000001_3000x360" x="160453.96" y="170940.49">.</use>
          <path d="M151253.96,170520.49l400,0" />
          <path d="M151653.96,170520.49l0,600" />
          <path d="M151653.96,171120.49l-400,0" />
          <path d="M151253.96,171120.49l0,-600" />
          <path d="M151253.96,185720.49l400,0" />
          <path d="M151653.96,185720.49l0,600" />
          <path d="M151653.96,186320.49l-400,0" />
          <path d="M151253.96,186320.49l0,-600" />
          <path d="M165653.96,185720.49l400,0" />
          <path d="M166053.96,185720.49l0,600" />
          <path d="M166053.96,186320.49l-400,0" />
          <path d="M165653.96,186320.49l0,-600" />
          <path d="M165653.96,170520.49l400,0" />
          <path d="M166053.96,170520.49l0,600" />
          <path d="M166053.96,171120.49l-400,0" />
          <path d="M165653.96,171120.49l0,-600" />
          <path d="M172853.96,170520.49l400,0" />
          <path d="M173253.96,170520.49l0,600" />
          <path d="M173253.96,171120.49l-400,0" />
          <path d="M172853.96,171120.49l0,-600" />
          <path d="M169253.96,187360.49l400,0" />
          <path d="M169653.96,187360.49l0,360" />
          <path d="M169653.96,187720.49l-400,0" />
          <path d="M169253.96,187720.49l0,-360" />
          <path d="M180053.96,185720.49l400,0" />
          <path d="M180453.96,185720.49l0,600" />
          <path d="M180453.96,186320.49l-400,0" />
          <path d="M180053.96,186320.49l0,-600" />
          <path d="M180053.96,170520.49l400,0" />
          <path d="M180453.96,170520.49l0,600" />
          <path d="M180453.96,171120.49l-400,0" />
          <path d="M180053.96,171120.49l0,-600" />
          <path d="M176453.96,187360.49l400,0" />
          <path d="M176853.96,187360.49l0,360" />
          <path d="M176853.96,187720.49l-400,0" />
          <path d="M176453.96,187720.49l0,-360" />
          <path d="M187253.96,185720.49l400,0" />
          <path d="M187653.96,185720.49l0,600" />
          <path d="M187653.96,186320.49l-400,0" />
          <path d="M187253.96,186320.49l0,-600" />
          <path d="M187253.96,170520.49l400,0" />
          <path d="M187653.96,170520.49l0,600" />
          <path d="M187653.96,171120.49l-400,0" />
          <path d="M187253.96,171120.49l0,-600" />
          <path d="M194453.96,185720.49l400,0" />
          <path d="M194853.96,185720.49l0,600" />
          <path d="M194853.96,186320.49l-400,0" />
          <path d="M194453.96,186320.49l0,-600" />
          <path d="M194453.96,170520.49l400,0" />
          <path d="M194853.96,170520.49l0,600" />
          <path d="M194853.96,171120.49l-400,0" />
          <path d="M194453.96,171120.49l0,-600" />
          <path d="M166053.96,170760.49l100,0" />
          <path d="M166153.96,170760.49l0,360" />
          <path d="M166153.96,171120.49l-100,0" />
          <path d="M169253.96,171120.49l-100,0" />
          <path d="M169153.96,171120.49l0,-360" />
          <path d="M169153.96,170760.49l100,0" />
          <use xlink:href="#$WINLIB2D$00000001_3000x360" x="171253.96" y="170940.49">.</use>
          <use xlink:href="#$WINLIB2D$00000001_3000x360" x="189253.96" y="170940.49">.</use>
          <use xlink:href="#$WINLIB2D$00000001_3000x360" x="182053.96" y="185900.49" transform="rotate(180,182053.96,185900.49)">.</use>
          <path d="M180453.96,170760.49l100,0" />
          <path d="M180553.96,170760.49l0,360" />
          <path d="M180553.96,171120.49l-100,0" />
          <path d="M183653.96,171120.49l-100,0" />
          <path d="M183553.96,171120.49l0,-360" />
          <path d="M183553.96,170760.49l100,0" />
          <use xlink:href="#$WINLIB2D$00000001_3000x360" x="185653.96" y="170940.49">.</use>
          <path d="M187653.96,170760.49l100,0" />
          <path d="M187753.96,170760.49l0,360" />
          <path d="M187753.96,171120.49l-100,0" />
          <path d="M190853.96,171120.49l-100,0" />
          <path d="M190753.96,171120.49l0,-360" />
          <path d="M190753.96,170760.49l100,0" />
          <use xlink:href="#$WINLIB2D$00000001_3000x360" x="192853.96" y="170940.49">.</use>
          <path d="M201653.96,185720.49l400,0" />
          <path d="M202053.96,185720.49l0,600" />
          <path d="M202053.96,186320.49l-400,0" />
          <path d="M201653.96,186320.49l0,-600" />
          <path d="M201653.96,170520.49l400,0" />
          <path d="M202053.96,170520.49l0,600" />
          <path d="M202053.96,171120.49l-400,0" />
          <path d="M201653.96,171120.49l0,-600" />
          <path d="M194853.96,170760.49l100,0" />
          <path d="M194953.96,170760.49l0,360" />
          <path d="M194953.96,171120.49l-100,0" />
          <path d="M198053.96,171120.49l-100,0" />
          <path d="M197953.96,171120.49l0,-360" />
          <path d="M197953.96,170760.49l100,0" />
          <use xlink:href="#$WINLIB2D$00000001_2900x360" x="200003.96" y="170940.49">.</use>
          <path d="M162133.96,171120.49l0,6080" />
          <path d="M162373.96,171120.49l0,6080" />
          <path d="M165733.96,171120.49l0,6080" />
          <path d="M165973.96,171120.49l0,6080" />
          <path d="M162133.96,181820.49l-1247.5,0" />
          <path d="M160886.46,181820.49l0,-120" />
          <path d="M160886.46,181700.49l1247.5,0" />
          <path d="M158773.96,181700.49l1212.5,0" />
          <path d="M159986.46,181700.49l0,120" />
          <path d="M159986.46,181820.49l-1212.5,0" />
          <path d="M159986.46,181820.49l0,-120" />
          <path d="M160886.46,181700.49l0,120" />
          <path d="M158533.96,181820.49l-1212.5,0" />
          <path d="M157321.46,181820.49l0,-120" />
          <path d="M157321.46,181700.49l1212.5,0" />
          <path d="M155173.96,181700.49l1247.5,0" />
          <path d="M156421.46,181700.49l0,120" />
          <path d="M156421.46,181820.49l-1247.5,0" />
          <path d="M156421.46,181820.49l0,-120" />
          <path d="M157321.46,181700.49l0,120" />
          <use xlink:href="#$lvtry$00000201" x="158333.96" y="182270.49" transform="rotate(270,158333.96,182270.49)">.</use>
          <use xlink:href="#$lvtry$00000201" x="158333.96" y="183170.49" transform="rotate(270,158333.96,183170.49)">.</use>
          <use xlink:href="#$lvtry$00000201" x="158333.96" y="184070.49" transform="rotate(270,158333.96,184070.49)">.</use>
          <use xlink:href="#$lvtry$00000201" x="158333.96" y="184970.49" transform="rotate(270,158333.96,184970.49)">.</use>
          <path d="M158533.96,182707.99l-1187.5,0" />
          <path d="M158533.96,182732.99l-1187.5,0" />
          <path d="M158533.96,182707.99l0,25" />
          <path d="M157346.46,181820.49l0,150" />
          <path d="M157346.46,181970.49l-25,0" />
          <path d="M157321.46,181970.49l0,-150" />
          <path d="M157321.46,181820.49l25,0" />
          <path d="M157321.46,182720.49l0,-150" />
          <path d="M157321.46,182570.49l25,0" />
          <path d="M157346.46,182570.49l0,137.5" />
          <use xlink:href="#$TCHSYS$APDOOR2D" x="262.22" y="303.78" transform="scale(600,600) scale(-1,1) translate(-524.45,0) rotate(270,262.22,303.78)" stroke-width="0.0002%">.</use>
          <path d="M158533.96,183607.99l-1187.5,0" />
          <path d="M158533.96,183632.99l-1187.5,0" />
          <path d="M158533.96,183607.99l0,25" />
          <path d="M157346.46,182732.99l0,137.5" />
          <path d="M157346.46,182870.49l-25,0" />
          <path d="M157321.46,182870.49l0,-150" />
          <path d="M157321.46,183620.49l0,-150" />
          <path d="M157321.46,183470.49l25,0" />
          <path d="M157346.46,183470.49l0,137.5" />
          <use xlink:href="#$TCHSYS$APDOOR2D" x="262.22" y="305.28" transform="scale(600,600) scale(-1,1) translate(-524.45,0) rotate(270,262.22,305.28)" stroke-width="0.0002%">.</use>
          <path d="M158533.96,184507.99l-1187.5,0" />
          <path d="M158533.96,184532.99l-1187.5,0" />
          <path d="M158533.96,184507.99l0,25" />
          <path d="M157346.46,183632.99l0,137.5" />
          <path d="M157346.46,183770.49l-25,0" />
          <path d="M157321.46,183770.49l0,-150" />
          <path d="M157321.46,184520.49l0,-150" />
          <path d="M157321.46,184370.49l25,0" />
          <path d="M157346.46,184370.49l0,137.5" />
          <use xlink:href="#$TCHSYS$APDOOR2D" x="262.22" y="306.78" transform="scale(600,600) scale(-1,1) translate(-524.45,0) rotate(270,262.22,306.78)" stroke-width="0.0002%">.</use>
          <path d="M158533.96,185407.99l-1187.5,0" />
          <path d="M158533.96,185432.99l-1212.5,0" />
          <path d="M158533.96,185407.99l0,25" />
          <path d="M157346.46,184532.99l0,137.5" />
          <path d="M157346.46,184670.49l-25,0" />
          <path d="M157321.46,184670.49l0,-150" />
          <path d="M157321.46,185432.99l0,-162.5" />
          <path d="M157321.46,185270.49l25,0" />
          <path d="M157346.46,185270.49l0,137.5" />
          <use xlink:href="#$TCHSYS$APDOOR2D" x="262.22" y="308.28" transform="scale(600,600) scale(-1,1) translate(-524.45,0) rotate(270,262.22,308.28)" stroke-width="0.0002%">.</use>
          <use xlink:href="#$lvtry$00000201" x="158973.96" y="182270.49" transform="scale(1,-1) translate(0,-364540.98) rotate(90,158973.96,182270.49)">.</use>
          <use xlink:href="#$lvtry$00000201" x="158973.96" y="183170.49" transform="scale(1,-1) translate(0,-366340.98) rotate(90,158973.96,183170.49)">.</use>
          <use xlink:href="#$lvtry$00000201" x="158973.96" y="184070.49" transform="scale(1,-1) translate(0,-368140.98) rotate(90,158973.96,184070.49)">.</use>
          <use xlink:href="#$lvtry$00000201" x="158973.96" y="184970.49" transform="scale(1,-1) translate(0,-369940.98) rotate(90,158973.96,184970.49)">.</use>
          <path d="M158773.96,182732.99l1187.5,0" />
          <path d="M158773.96,182707.99l1187.5,0" />
          <path d="M158773.96,182732.99l0,-25" />
          <path d="M159986.46,181820.49l0,150" />
          <path d="M159986.46,181970.49l-25,0" />
          <path d="M159961.46,181970.49l0,-150" />
          <path d="M159961.46,181820.49l25,0" />
          <path d="M159961.46,182707.99l0,-137.5" />
          <path d="M159961.46,182570.49l25,0" />
          <path d="M159986.46,182570.49l0,150" />
          <use xlink:href="#$TCHSYS$APDOOR2D" x="266.62" y="303.78" transform="scale(600,600) scale(-1,-1) translate(-533.25,-607.57) rotate(90,266.62,303.78)" stroke-width="0.0002%">.</use>
          <path d="M158773.96,183632.99l1187.5,0" />
          <path d="M158773.96,183607.99l1187.5,0" />
          <path d="M158773.96,183632.99l0,-25" />
          <path d="M159986.46,182720.49l0,150" />
          <path d="M159986.46,182870.49l-25,0" />
          <path d="M159961.46,182870.49l0,-137.5" />
          <path d="M159961.46,183607.99l0,-137.5" />
          <path d="M159961.46,183470.49l25,0" />
          <path d="M159986.46,183470.49l0,150" />
          <use xlink:href="#$TCHSYS$APDOOR2D" x="266.62" y="305.28" transform="scale(600,600) scale(-1,-1) translate(-533.25,-610.57) rotate(90,266.62,305.28)" stroke-width="0.0002%">.</use>
          <path d="M158773.96,184532.99l1187.5,0" />
          <path d="M158773.96,184507.99l1187.5,0" />
          <path d="M158773.96,184532.99l0,-25" />
          <path d="M159986.46,183620.49l0,150" />
          <path d="M159986.46,183770.49l-25,0" />
          <path d="M159961.46,183770.49l0,-137.5" />
          <path d="M159961.46,184507.99l0,-137.5" />
          <path d="M159961.46,184370.49l25,0" />
          <path d="M159986.46,184370.49l0,150" />
          <use xlink:href="#$TCHSYS$APDOOR2D" x="266.62" y="306.78" transform="scale(600,600) scale(-1,-1) translate(-533.25,-613.57) rotate(90,266.62,306.78)" stroke-width="0.0002%">.</use>
          <path d="M158773.96,185432.99l1212.5,0" />
          <path d="M158773.96,185407.99l1187.5,0" />
          <path d="M158773.96,185432.99l0,-25" />
          <path d="M159986.46,184520.49l0,150" />
          <path d="M159986.46,184670.49l-25,0" />
          <path d="M159961.46,184670.49l0,-137.5" />
          <path d="M159961.46,185407.99l0,-137.5" />
          <path d="M159961.46,185270.49l25,0" />
          <path d="M159986.46,185270.49l0,162.5" />
          <use xlink:href="#$TCHSYS$APDOOR2D" x="266.62" y="308.28" transform="scale(600,600) scale(-1,-1) translate(-533.25,-616.57) rotate(90,266.62,308.28)" stroke-width="0.0002%">.</use>
          <use xlink:href="#$lvtry$00000171" x="162003.08" y="185105.42">.</use>
          <path d="M162373.96,181700.49l0,-1860" />
          <path d="M162133.96,181700.49l0,-1860" />
          <path d="M158773.96,181700.49l0,-1860" />
          <path d="M158533.96,181700.49l0,-1860" />
          <path d="M155173.96,181700.49l0,-1860" />
          <path d="M154933.96,181700.49l0,-2100" />
          <use xlink:href="#$lvtry$00000191" x="155173.96" y="181400.49" transform="rotate(90,155173.96,181400.49)">.</use>
          <use xlink:href="#$lvtry$00000191" x="155173.96" y="181400.49" transform="rotate(90,155173.96,181400.49)">.</use>
          <use xlink:href="#$lvtry$00000191" x="162133.96" y="181400.49" transform="rotate(270,162133.96,181400.49)">.</use>
          <use xlink:href="#$lvtry$00000194" x="158875.62" y="180390.49" transform="rotate(90,158875.62,180390.49)">.</use>
          <use xlink:href="#$lvtry$00000194" x="158875.62" y="181090.49" transform="rotate(90,158875.62,181090.49)">.</use>
          <use xlink:href="#$lvtry$00000194" x="158432.3" y="180390.49" transform="scale(1,-1) translate(0,-360780.98) rotate(270,158432.3,180390.49)">.</use>
          <use xlink:href="#$lvtry$00000194" x="158432.3" y="181090.49" transform="scale(1,-1) translate(0,-362180.98) rotate(270,158432.3,181090.49)">.</use>
          <path d="M154133.96,180970.49l0,1650l0,300" />
          <path d="M152413.96,180970.49l0,3950l1720,0l0,-1400l0,-300" />
          <path d="M154933.96,181120.49l0,2354.15" />
          <path d="M154933.96,183590.11l0,530.38" />
          <path d="M153393.96,181120.49l1540,0" />
          <path d="M153393.96,181420.49l1540,0" />
          <path d="M153393.96,181720.49l1540,0" />
          <path d="M153393.96,182020.49l1540,0" />
          <path d="M153393.96,182320.49l1540,0" />
          <path d="M153454.53,182620.49l1479.42,0" />
          <path d="M153393.96,182920.49l380.19,0" />
          <path d="M153974.15,182920.49l959.81,0" />
          <path d="M153393.96,183220.49l899.81,0" />
          <path d="M154493.77,183220.49l440.19,0" />
          <path d="M153393.96,183520.49l1419.42,0" />
          <path d="M153393.96,183820.49l1540,0" />
          <path d="M153393.96,184120.49l1540,0" />
          <path d="M153333.96,181120.49l0,1430.38" />
          <path d="M153333.96,182666.35l0,1454.15" />
          <path d="M153333.96,182666.35l708.8,409.23" />
          <path d="M153333.96,182550.87l735.6,424.7" />
          <path d="M154069.55,182975.57l-46.18,172.35" />
          <path d="M154023.37,183147.92l206.04,-172.89" />
          <path d="M154229.42,182975.03l-48.34,180.4" />
          <path d="M154181.08,183155.43l752.88,434.67" />
          <path d="M154207.87,183055.43l726.08,419.2" />
          <path d="M151613.96,184120.49l0,-3000" />
          <path d="M153153.96,184120.49l-1540,0" />
          <path d="M153153.96,183820.49l-1540,0" />
          <path d="M153153.96,183520.49l-1540,0" />
          <path d="M153153.96,183220.49l-1540,0" />
          <path d="M153153.96,182920.49l-1540,0" />
          <path d="M153153.96,182620.49l-1540,0" />
          <path d="M153153.96,182320.49l-1540,0" />
          <path d="M153153.96,182020.49l-1540,0" />
          <path d="M153153.96,181720.49l-1540,0" />
          <path d="M153153.96,181420.49l-1540,0" />
          <path d="M153153.96,181120.49l-1540,0" />
          <path d="M153213.96,184120.49l0,-3000" />
          <path d="M153213.96,181120.49l120,0" />
          <path d="M153333.96,181120.49l0,1430.38" />
          <path d="M153333.96,182666.35l0,1454.15" />
          <path d="M153333.96,184120.49l-120,0" />
          <path d="M153213.96,184120.49l0,-3000" />
          <path d="M153153.96,181060.49l240,0" />
          <path d="M153393.96,181060.49l0,1525.03" />
          <path d="M153393.96,182700.99l0,1479.5" />
          <path d="M153393.96,184180.49l-240,0" />
          <path d="M153153.96,184180.49l0,-3120" />
          <path d="M154933.96,184120.49l0,1600" />
          <path d="M154853.96,185720.49l-3200,0" />
          <path d="M151613.96,185720.49l0,-1600" />
          <path d="M151613.96,184120.49l1540,0" />
          <path d="M153393.96,184120.49l1540,0" />
          <path d="M153213.96,184120.49l120,0" />
          <path d="M153333.96,181120.49l-120,0" />
          <path d="M199173.96,180970.49l0,1650l0,300" />
          <path d="M200893.96,180970.49l0,3950l-1720,0l0,-1400l0,-300" />
          <path d="M198373.96,181120.49l0,1430.38" />
          <path d="M198373.96,182666.35l0,1454.15" />
          <path d="M198373.96,181120.49l1540,0" />
          <path d="M198373.96,181420.49l1540,0" />
          <path d="M198373.96,181720.49l1540,0" />
          <path d="M198373.96,182020.49l1540,0" />
          <path d="M198373.96,182320.49l1540,0" />
          <path d="M198494.53,182620.49l1419.42,0" />
          <path d="M198373.96,182920.49l440.19,0" />
          <path d="M199014.15,182920.49l899.81,0" />
          <path d="M198373.96,183220.49l959.81,0" />
          <path d="M199533.77,183220.49l380.19,0" />
          <path d="M198373.96,183520.49l1479.42,0" />
          <path d="M198373.96,183820.49l1540,0" />
          <path d="M198373.96,184120.49l1540,0" />
          <path d="M199973.96,181120.49l0,2354.15" />
          <path d="M199973.96,183590.11l0,530.38" />
          <path d="M198373.96,182666.35l708.8,409.23" />
          <path d="M198373.96,182550.87l735.6,424.7" />
          <path d="M199109.55,182975.57l-46.18,172.35" />
          <path d="M199063.37,183147.92l206.04,-172.89" />
          <path d="M199269.42,182975.03l-48.34,180.4" />
          <path d="M199221.08,183155.43l752.88,434.67" />
          <path d="M199247.87,183055.43l726.08,419.2" />
          <path d="M201693.96,184120.49l0,-3000" />
          <path d="M201693.96,184120.49l-1540,0" />
          <path d="M201693.96,183820.49l-1540,0" />
          <path d="M201693.96,183520.49l-1540,0" />
          <path d="M201693.96,183220.49l-1540,0" />
          <path d="M201693.96,182920.49l-1540,0" />
          <path d="M201693.96,182620.49l-1540,0" />
          <path d="M201693.96,182320.49l-1540,0" />
          <path d="M201693.96,182020.49l-1540,0" />
          <path d="M201693.96,181720.49l-1540,0" />
          <path d="M201693.96,181420.49l-1540,0" />
          <path d="M201693.96,181120.49l-1540,0" />
          <path d="M200093.96,184120.49l0,-3000" />
          <path d="M200153.96,181060.49l-240,0" />
          <path d="M199913.96,181060.49l0,2379.5" />
          <path d="M199913.96,183555.46l0,625.03" />
          <path d="M199913.96,184180.49l240,0" />
          <path d="M200153.96,184180.49l0,-3120" />
          <path d="M200093.96,181120.49l-120,0" />
          <path d="M199973.96,181120.49l0,2354.15" />
          <path d="M199973.96,183590.11l0,530.38" />
          <path d="M199973.96,184120.49l120,0" />
          <path d="M200093.96,184120.49l0,-3000" />
          <path d="M201693.96,184120.49l0,1600" />
          <path d="M201693.96,185720.49l-3240,0" />
          <path d="M198373.96,185720.49l0,-1600" />
          <path d="M198373.96,184120.49l1540,0" />
          <path d="M200153.96,184120.49l1540,0" />
          <path d="M199973.96,184120.49l120,0" />
          <path d="M199973.96,181120.49l120,0" />
          <path d="M172853.96,187360.49l400,0" />
          <path d="M173253.96,187360.49l0,360" />
          <path d="M173253.96,187720.49l-400,0" />
          <path d="M172853.96,187720.49l0,-360" />
          <path d="M172853.96,187720.49l-100,0" />
          <path d="M172753.96,187720.49l0,-360" />
          <path d="M172753.96,187360.49l100,0" />
          <path d="M169653.96,187360.49l100,0" />
          <path d="M169753.96,187360.49l0,360" />
          <path d="M169753.96,187720.49l-100,0" />
          <path d="M180053.96,187360.49l400,0" />
          <path d="M180453.96,187360.49l0,360" />
          <path d="M180453.96,187720.49l-400,0" />
          <path d="M180053.96,187720.49l0,-360" />
          <path d="M198053.96,185720.49l400,0" />
          <path d="M198453.96,185720.49l0,600" />
          <path d="M198453.96,186320.49l-400,0" />
          <path d="M198053.96,186320.49l0,-600" />
          <path d="M190853.96,185720.49l400,0" />
          <path d="M191253.96,185720.49l0,600" />
          <path d="M191253.96,186320.49l-400,0" />
          <path d="M190853.96,186320.49l0,-600" />
          <path d="M183653.96,185720.49l400,0" />
          <path d="M184053.96,185720.49l0,600" />
          <path d="M184053.96,186320.49l-400,0" />
          <path d="M183653.96,186320.49l0,-600" />
          <path d="M169253.96,185720.49l400,0" />
          <path d="M169653.96,185720.49l0,600" />
          <path d="M169653.96,186320.49l-400,0" />
          <path d="M169253.96,186320.49l0,-600" />
          <path d="M190853.96,186080.49l-100,0" />
          <path d="M190753.96,186080.49l0,-360" />
          <path d="M190753.96,185720.49l100,0" />
          <path d="M187653.96,185720.49l100,0" />
          <path d="M187753.96,185720.49l0,360" />
          <path d="M187753.96,186080.49l-100,0" />
          <path d="M183653.96,186080.49l-100,0" />
          <path d="M183553.96,186080.49l0,-360" />
          <path d="M183553.96,185720.49l100,0" />
          <path d="M180453.96,185720.49l100,0" />
          <path d="M180553.96,185720.49l0,360" />
          <path d="M180553.96,186080.49l-100,0" />
          <path d="M154853.96,185720.49l400,0" />
          <path d="M155253.96,185720.49l0,600" />
          <path d="M155253.96,186320.49l-400,0" />
          <path d="M154853.96,186320.49l0,-600" />
          <path d="M162053.96,185720.49l400,0" />
          <path d="M162453.96,185720.49l0,600" />
          <path d="M162453.96,186320.49l-400,0" />
          <path d="M162053.96,186320.49l0,-600" />
          <path d="M169253.96,186320.49l0,1040" />
          <path d="M169613.96,186320.49l0,1040" />
          <path d="M180093.96,186320.49l0,1040" />
          <path d="M180453.96,186320.49l0,1040" />
          <path d="M198053.96,170520.49l400,0" />
          <path d="M198453.96,170520.49l0,600" />
          <path d="M198453.96,171120.49l-400,0" />
          <path d="M198053.96,171120.49l0,-600" />
          <path d="M190853.96,170520.49l400,0" />
          <path d="M191253.96,170520.49l0,600" />
          <path d="M191253.96,171120.49l-400,0" />
          <path d="M190853.96,171120.49l0,-600" />
          <path d="M183653.96,170520.49l400,0" />
          <path d="M184053.96,170520.49l0,600" />
          <path d="M184053.96,171120.49l-400,0" />
          <path d="M183653.96,171120.49l0,-600" />
          <path d="M176453.96,170520.49l400,0" />
          <path d="M176853.96,170520.49l0,600" />
          <path d="M176853.96,171120.49l-400,0" />
          <path d="M176453.96,171120.49l0,-600" />
          <path d="M169253.96,170520.49l400,0" />
          <path d="M169653.96,170520.49l0,600" />
          <path d="M169653.96,171120.49l-400,0" />
          <path d="M169253.96,171120.49l0,-600" />
          <path d="M162053.96,170520.49l400,0" />
          <path d="M162453.96,170520.49l0,600" />
          <path d="M162453.96,171120.49l-400,0" />
          <path d="M162053.96,171120.49l0,-600" />
          <path d="M154853.96,170520.49l400,0" />
          <path d="M155253.96,170520.49l0,600" />
          <path d="M155253.96,171120.49l-400,0" />
          <path d="M154853.96,171120.49l0,-600" />
          <path d="M198453.96,170760.49l100,0" />
          <path d="M198553.96,170760.49l0,360" />
          <path d="M198553.96,171120.49l-100,0" />
          <path d="M201653.96,171120.49l-200,0" />
          <path d="M201453.96,171120.49l0,-360" />
          <path d="M201453.96,170760.49l200,0" />
          <path d="M191253.96,170760.49l100,0" />
          <path d="M191353.96,170760.49l0,360" />
          <path d="M191353.96,171120.49l-100,0" />
          <path d="M194453.96,171120.49l-100,0" />
          <path d="M194353.96,171120.49l0,-360" />
          <path d="M194353.96,170760.49l100,0" />
          <path d="M184053.96,170760.49l100,0" />
          <path d="M184153.96,170760.49l0,360" />
          <path d="M184153.96,171120.49l-100,0" />
          <path d="M187253.96,171120.49l-100,0" />
          <path d="M187153.96,171120.49l0,-360" />
          <path d="M187153.96,170760.49l100,0" />
          <path d="M169653.96,170760.49l100,0" />
          <path d="M169753.96,170760.49l0,360" />
          <path d="M169753.96,171120.49l-100,0" />
          <path d="M172853.96,171120.49l-100,0" />
          <path d="M172753.96,171120.49l0,-360" />
          <path d="M172753.96,170760.49l100,0" />
          <use xlink:href="#$DorLib2D$00000116" x="118.97" y="119.81" transform="scale(1500,1500)" stroke-width="0.0001%">.</use>
          <use xlink:href="#$DorLib2D$00000116" x="114.17" y="119.81" transform="scale(1500,1500)" stroke-width="0.0001%">.</use>
          <path d="M158533.96,171120.49l0,6080" />
          <path d="M158773.96,171120.49l0,6080" />
          <path d="M158773.96,177200.49l1180,0" />
          <path d="M159953.96,177200.49l0,240" />
          <path d="M159953.96,177440.49l-1300,0" />
          <path d="M162253.96,177440.49l-1300,0" />
          <path d="M160953.96,177440.49l0,-240" />
          <path d="M160953.96,177200.49l1180,0" />
          <path d="M169333.96,171120.49l0,6080" />
          <path d="M169573.96,171120.49l0,6080" />
          <path d="M169573.96,177200.49l1180,0" />
          <path d="M170753.96,177200.49l0,240" />
          <path d="M170753.96,177440.49l-1300,0" />
          <path d="M173053.96,177440.49l-1300,0" />
          <path d="M171753.96,177440.49l0,-240" />
          <path d="M171753.96,177200.49l1180,0" />
          <path d="M198133.96,171120.49l0,6080" />
          <path d="M198373.96,171120.49l0,6080" />
          <path d="M190933.96,171120.49l0,6080" />
          <path d="M191173.96,171120.49l0,6080" />
          <path d="M187573.96,171120.49l0,4840" />
          <path d="M187573.96,175960.49l-240,0" />
          <path d="M187333.96,175960.49l0,-4840" />
          <path d="M187333.96,177200.49l0,-240" />
          <path d="M187333.96,176960.49l240,0" />
          <path d="M187573.96,176960.49l0,240" />
          <path d="M183733.96,171120.49l0,6080" />
          <path d="M183973.96,171120.49l0,6080" />
          <path d="M198373.96,177200.49l1180,0" />
          <path d="M199553.96,177200.49l0,240" />
          <path d="M199553.96,177440.49l-1300,0" />
          <path d="M201693.96,177440.49l-1140,0" />
          <path d="M200553.96,177440.49l0,-240" />
          <path d="M200553.96,177200.49l1140,0" />
          <path d="M191173.96,177200.49l1180,0" />
          <path d="M192353.96,177200.49l0,240" />
          <path d="M192353.96,177440.49l-1300,0" />
          <path d="M194653.96,177440.49l-1300,0" />
          <path d="M193353.96,177440.49l0,-240" />
          <path d="M193353.96,177200.49l1180,0" />
          <path d="M187573.96,177200.49l1180,0" />
          <path d="M188753.96,177200.49l0,240" />
          <path d="M188753.96,177440.49l-1300,0" />
          <path d="M191053.96,177440.49l-1300,0" />
          <path d="M189753.96,177440.49l0,-240" />
          <path d="M189753.96,177200.49l1180,0" />
          <path d="M183973.96,177200.49l1180,0" />
          <path d="M185153.96,177200.49l0,240" />
          <path d="M185153.96,177440.49l-1300,0" />
          <path d="M187453.96,177440.49l-1300,0" />
          <path d="M186153.96,177440.49l0,-240" />
          <path d="M186153.96,177200.49l1180,0" />
          <use xlink:href="#$DorLib2D$00000114" x="164.05" y="177.32" transform="scale(1000,1000) scale(1,-1) translate(0,-354.64)" stroke-width="0.0001%">.</use>
          <use xlink:href="#$DorLib2D$00000114" x="182.05" y="177.32" transform="scale(1000,1000) scale(1,-1) translate(0,-354.64)" stroke-width="0.0001%">.</use>
          <use xlink:href="#$DorLib2D$00000114" x="189.25" y="177.32" transform="scale(1000,1000) scale(1,-1) translate(0,-354.64)" stroke-width="0.0001%">.</use>
          <use xlink:href="#$DorLib2D$00000114" x="192.85" y="177.32" transform="scale(1000,1000) scale(1,-1) translate(0,-354.64)" stroke-width="0.0001%">.</use>
          <use xlink:href="#$DorLib2D$00000114" x="196.45" y="177.32" transform="scale(1000,1000) scale(1,-1) translate(0,-354.64)" stroke-width="0.0001%">.</use>
          <use xlink:href="#$DorLib2D$00000114" x="180.25" y="176.46" transform="scale(1000,1000) scale(1,-1) translate(0,-352.92) rotate(270,180.25,176.46)" stroke-width="0.0001%">.</use>
          <use xlink:href="#$DorLib2D$00000114" x="187.45" y="176.46" transform="scale(1000,1000) scale(1,-1) translate(0,-352.92) rotate(270,187.45,176.46)" stroke-width="0.0001%">.</use>
          <path d="M198133.96,179600.49l240,0" />
          <path d="M198373.96,179600.49l0,240" />
          <path d="M198373.96,179840.49l-240,0" />
          <path d="M198133.96,179840.49l0,-240" />
          <path d="M155173.96,179840.49l-240,0" />
          <path d="M154933.96,179840.49l0,-240" />
          <path d="M154933.96,179600.49l240,0" />
          <path d="M155173.96,179600.49l0,240" />
          <path d="M151613.96,179520.49l0,400" />
          <path d="M151613.96,179920.49l-360,0" />
          <path d="M151253.96,179920.49l0,-400" />
          <path d="M151253.96,179520.49l360,0" />
          <path d="M151613.96,177120.49l0,400" />
          <path d="M151613.96,177520.49l-360,0" />
          <path d="M151253.96,177520.49l0,-400" />
          <path d="M151253.96,177120.49l360,0" />
          <path d="M151253.96,179920.49l0,5800" />
          <path d="M151613.96,179920.49l0,5800" />
          <path d="M202053.96,179520.49l0,400" />
          <path d="M202053.96,179920.49l-360,0" />
          <path d="M201693.96,179920.49l0,-400" />
          <path d="M201693.96,179520.49l360,0" />
          <path d="M202053.96,177120.49l0,400" />
          <path d="M202053.96,177520.49l-360,0" />
          <path d="M201693.96,177520.49l0,-400" />
          <path d="M201693.96,177120.49l360,0" />
          <path d="M204853.96,179840.49l-240,0" />
          <path d="M204613.96,179840.49l0,-240" />
          <path d="M204613.96,179600.49l240,0" />
          <path d="M204853.96,179600.49l0,240" />
          <path d="M204853.96,177440.49l-240,0" />
          <path d="M204613.96,177440.49l0,-240" />
          <path d="M204613.96,177200.49l240,0" />
          <path d="M204853.96,177200.49l0,240" />
          <use xlink:href="#$WINLIB2D$00000001_1500x360" x="151433.96" y="178520.49" transform="scale(1,-1) translate(0,-357040.98) rotate(270,151433.96,178520.49)">.</use>
          <path d="M151253.96,179270.49l-600,0" />
          <path d="M151253.96,179390.49l-480,0" />
          <path d="M151253.96,179270.49l0,120" />
          <path d="M150653.96,179270.49l0,650" />
          <path d="M150773.96,179390.49l0,410" />
          <path d="M150653.96,179920.49l600,0" />
          <path d="M150773.96,179800.49l480,0" />
          <path d="M151253.96,177120.49l-600,0" />
          <path d="M151253.96,177240.49l-480,0" />
          <path d="M150653.96,177120.49l0,650" />
          <path d="M150773.96,177240.49l0,410" />
          <path d="M150653.96,177770.49l600,0" />
          <path d="M150773.96,177650.49l480,0" />
          <path d="M151253.96,177770.49l0,-120" />
          <use xlink:href="#$lvtry$00000222" x="162133.96" y="182170.49" transform="rotate(270,162133.96,182170.49)">.</use>
          <use xlink:href="#$lvtry$00000222" x="162133.96" y="182870.49" transform="rotate(270,162133.96,182870.49)">.</use>
          <use xlink:href="#$lvtry$00000222" x="162133.96" y="183570.49" transform="rotate(270,162133.96,183570.49)">.</use>
          <use xlink:href="#$lvtry$00000222" x="162133.96" y="184270.49" transform="rotate(270,162133.96,184270.49)">.</use>
          <path d="M162133.96,182507.99l-400,0" />
          <path d="M162133.96,182532.99l-400,0" />
          <path d="M162133.96,182507.99l0,25" />
          <path d="M161733.96,182507.99l0,25" />
          <path d="M162133.96,183207.99l-400,0" />
          <path d="M162133.96,183232.99l-400,0" />
          <path d="M162133.96,183207.99l0,25" />
          <path d="M161733.96,183207.99l0,25" />
          <path d="M162133.96,183907.99l-400,0" />
          <path d="M162133.96,183932.99l-400,0" />
          <path d="M162133.96,183907.99l0,25" />
          <path d="M161733.96,183907.99l0,25" />
          <path d="M162133.96,184607.99l-400,0" />
          <path d="M162133.96,184632.99l-400,0" />
          <path d="M162133.96,184607.99l0,25" />
          <path d="M161733.96,184607.99l0,25" />
          <use xlink:href="#$DorLib2D$00000114" x="156.87" y="177.32" transform="scale(1000,1000) scale(1,-1) translate(0,-354.64)" stroke-width="0.0001%">.</use>
          <path d="M157369.27,177200.49l0,240" />
          <path d="M156369.27,177200.49l0,240" />
          <use xlink:href="#$DorLib2D$00000114" x="185.65" y="177.32" transform="scale(1000,1000) scale(-1,-1) translate(-371.31,-354.64) rotate(180,185.65,177.32)" stroke-width="0.0001%">.</use>
          <use xlink:href="#$DorLib2D$00000114" x="174.85" y="177.32" transform="scale(1000,1000) scale(-1,-1) translate(-349.71,-354.64) rotate(180,174.85,177.32)" stroke-width="0.0001%">.</use>
        </g>
        <g id="layer-0" class="i0">
          <path d="M185270.13,179600.49l0,120l650,0l0,-120" />
          <path d="M179477.44,160274.07l0,120l650,0l0,-120" />
          <path d="M179473.9,159498.6l0,200" />
          <path d="M180173.9,159498.6l0,200" />
          <path d="M180173.9,159498.6l-700,200" />
          <path d="M179473.9,159698.6l700,0" />
          <path d="M179473.9,159498.6l700,0" />
          <path d="M155133.96,180080.49l-200,0" />
          <path d="M155133.96,180780.49l-200,0" />
          <path d="M155133.96,180780.49l-200,-700" />
          <path d="M154933.96,180080.49l0,700" />
          <path d="M155133.96,180080.49l0,700" />
          <path d="M198373.96,180080.49l-200,0" />
          <path d="M198373.96,180780.49l-200,0" />
          <path d="M198373.96,180780.49l-200,-700" />
          <path d="M198173.96,180080.49l0,700" />
          <path d="M198373.96,180080.49l0,700" />
          <path d="M172505.53,160263.22l5351.71,0" />
          <path d="M172505.53,160123.22l5351.71,0" />
          <path d="M219881.79,156745.64l0,40000l-79677.83,0l0,-40000z" />
          <path d="M220881.79,155745.64l0,42000l-83177.83,0l0,-42000z" />
          <path d="M219881.79,197552.14l-5166,0" />
          <path d="M216330.16,169220.55l3551.62,0" />
          <path d="M216330.16,160736.11l3551.62,0" />
          <path d="M219881.79,164879.67l-3551.62,0" />
          <path d="M219881.79,196745.64l-3551.62,0l0,-39462.5l3551.62,0l0,39462.5" />
          <path d="M216330.16,160045.51l3551.62,0" />
          <path d="M218204.63,160736.11l0,-3452.97" />
          <path d="M216330.16,159354.92l3551.62,0" />
          <path d="M219881.79,158664.33l-3551.62,0" />
          <path d="M219881.79,157973.73l-3551.62,0" />
          <path d="M216330.16,187163.09l3551.62,0" />
        </g>
        <g id="layer-RM" class="rm">
          <path d="M169613.96,186320.49l0,1040l10480,0l0,-1040l-40,0l0,-600l80,0l0,-5880l-10560,0l0,5880l80,0l0,600l-40,0z" />
        </g>
        <g id="layer-GROS" class="gros">
          <path d="M151253.96,186320.49l400,0l0,-240l3200,0l0,240l400,0l0,-240l3200,0l0,240l400,0l0,-240l3200,0l0,240l400,0l0,-240l3200,0l0,240l400,0l0,-240l3200,0l0,1640l11200,0l0,-1640l3200,0l0,240l400,0l0,-240l3200,0l0,240l400,0l0,-240l3100,0l100,0l0,240l400,0l0,-240l3200,0l0,240l400,0l0,-240l3200,0l0,240l400,0l0,-240l3200,0l0,240l400,0l0,-15800l-400,0l0,240l-3200,0l0,-240l-400,0l0,240l-3200,0l0,-240l-400,0l0,240l-3200,0l0,-240l-400,0l0,240l-3200,0l0,-240l-400,0l0,240l-3200,0l0,-240l-400,0l0,240l-3200,0l0,-240l-400,0l0,240l-3200,0l0,-240l-400,0l0,240l-3200,0l0,-240l-400,0l0,240l-3200,0l0,-240l-400,0l0,240l-3200,0l0,-240l-400,0l0,240l-3200,0l0,-240l-400,0l0,240l-3200,0l0,-240l-400,0l0,240l-3200,0l0,-240l-400,0l0,240l-3200,0l0,-240l-400,0l0,15800z" />
        </g>
      </g>
      <g id="assets" fill="none">
        <g id="rm-assets" class="rm-asset">
          <path d="M151613.96,177200.49l3320,0l0,-6080l-3320,0z" id="XIPEILOU;F02;214" />
          <path d="M155173.96,177200.49l3360,0l0,-6080l-3360,0z" id="XIPEILOU;F02;213" />
          <path d="M158773.96,177200.49l3360,0l0,-6080l-3360,0z" id="XIPEILOU;F02;212" />
          <path d="M162373.96,177200.49l3360,0l0,-6080l-3360,0z" id="XIPEILOU;F02;211" />
          <path d="M165973.96,177200.49l3360,0l0,-6080l-3360,0z" id="XIPEILOU;F02;210" />
          <path d="M169573.96,177200.49l3360,0l0,-6080l-3360,0z" id="XIPEILOU;F02;209" />
          <path d="M173173.96,177200.49l3360,0l0,-6080l-3360,0z" id="XIPEILOU;F02;208" />
          <path d="M176773.96,177200.49l3360,0l0,-6080l-3360,0z" id="XIPEILOU;F02;207" />
          <path d="M180373.96,177200.49l3360,0l0,-6080l-3360,0z" id="XIPEILOU;F02;206" />
          <path d="M183973.96,177200.49l3360,0l0,-6080l-3360,0z" id="XIPEILOU;F02;205" />
          <path d="M187573.96,177200.49l3360,0l0,-6080l-3360,0z" id="XIPEILOU;F02;204" />
          <path d="M191173.96,177200.49l3360,0l0,-6080l-3360,0z" id="XIPEILOU;F02;203" />
          <path d="M194773.96,177200.49l3360,0l0,-6080l-3360,0z" id="XIPEILOU;F02;202" />
          <path d="M198373.96,177200.49l3320,0l0,-6080l-3320,0z" id="XIPEILOU;F02;201" />
          <path d="M198133.96,179840.49l-3360,0l0,5880l3360,0z" id="XIPEILOU;F02;220" />
          <path d="M187573.96,185720.49l6960,0l0,-5880l-6960,0z" id="XIPEILOU;F02;219" />
          <path d="M187333.96,179840.49l-6960,0l0,5880l6960,0z" id="XIPEILOU;F02;218" />
          <path d="M169333.96,179840.49l-6960,0l0,5880l6960,0z" id="XIPEILOU;F02;215" />
        </g>
      </g>
    </g>
    <g id="asset-labels" font-family="Arial" font-weight="bold" font-size="1.5em" text-anchor="middle">
      <g id="rm-labels">
        <g id="l-rm-XIPEILOU;F02;214" transform="translate(153273.96,-174172.12)">
          <text>214</text>
        </g>
        <g id="l-rm-XIPEILOU;F02;213" transform="translate(156853.96,-174172.12)">
          <text>213</text>
        </g>
        <g id="l-rm-XIPEILOU;F02;212" transform="translate(160453.96,-174172.12)">
          <text>212</text>
        </g>
        <g id="l-rm-XIPEILOU;F02;211" transform="translate(164053.96,-174172.12)">
          <text>211</text>
        </g>
        <g id="l-rm-XIPEILOU;F02;210" transform="translate(167653.96,-174172.12)">
          <text>210</text>
        </g>
        <g id="l-rm-XIPEILOU;F02;209" transform="translate(171253.96,-174172.12)">
          <text>209</text>
        </g>
        <g id="l-rm-XIPEILOU;F02;208" transform="translate(174853.96,-174172.12)">
          <text>208</text>
        </g>
        <g id="l-rm-XIPEILOU;F02;207" transform="translate(178453.96,-174172.12)">
          <text>207</text>
        </g>
        <g id="l-rm-XIPEILOU;F02;206" transform="translate(182053.96,-174172.12)">
          <text>206</text>
        </g>
        <g id="l-rm-XIPEILOU;F02;205" transform="translate(185653.96,-174172.12)">
          <text>205</text>
        </g>
        <g id="l-rm-XIPEILOU;F02;204" transform="translate(189253.96,-174172.12)">
          <text>204</text>
        </g>
        <g id="l-rm-XIPEILOU;F02;203" transform="translate(192853.96,-174172.12)">
          <text>203</text>
        </g>
        <g id="l-rm-XIPEILOU;F02;202" transform="translate(196453.96,-174172.12)">
          <text>202</text>
        </g>
        <g id="l-rm-XIPEILOU;F02;201" transform="translate(200033.96,-174172.12)">
          <text>201</text>
        </g>
        <g id="l-rm-XIPEILOU;F02;220" transform="translate(196453.96,-182792.12)">
          <text>220</text>
        </g>
        <g id="l-rm-XIPEILOU;F02;219" transform="translate(191053.96,-182792.12)">
          <text>219</text>
        </g>
        <g id="l-rm-XIPEILOU;F02;218" transform="translate(183853.96,-182792.12)">
          <text>218</text>
        </g>
        <g id="l-rm-XIPEILOU;F02;215" transform="translate(165853.96,-182792.12)">
          <text>215</text>
        </g>
      </g>
    </g>
  </g>
</svg>