<svg version="1.1" xmlns="http://www.w3.org/2000/svg" xmlns:xlink="http://www.w3.org/1999/xlink" viewBox="149413.96 -231000.49 55440 17160">
  <style>.i0 { stroke:#000000; } .i主体 { stroke:#000000; } .rm { stroke:#0000ff; } .defpoints { stroke:#000000; } .rm-asset { stroke:#0000ff; } .rmtc-asset { stroke:#0000ff; } .rmtc { stroke:#00ffff; } .rm-assettxt { stroke:#0000ff; } .rmtc-assettxt { stroke:#0000ff; } .gors { stroke:#ff00ff; }</style>
  <view id="defaultView" viewBox="149413.96 -231000.49 55440 17160" />
  <defs>
    <symbol id="$WINLIB2D$00000001_2900x360" overflow="visible" class="i0">
      <path d="M1450,-180l0,360" />
      <path d="M-1450,180l0,-360" />
      <path d="M1450,60l-2900,0" />
      <path d="M1450,-60l-2900,0" />
      <path d="M-1450,-180l2900,0" />
      <path d="M-1450,180l2900,0" />
    </symbol>
    <symbol id="$WINLIB2D$00000001_3000x360" overflow="visible" class="i0">
      <path d="M1500,-180l0,360" />
      <path d="M-1500,180l0,-360" />
      <path d="M1500,60l-3000,0" />
      <path d="M1500,-60l-3000,0" />
      <path d="M-1500,-180l3000,0" />
      <path d="M-1500,180l3000,0" />
    </symbol>
    <symbol id="$DorLib2D$00000116" overflow="visible" class="i0">
      <path d="M-0.5,0l0.35,0.35" />
      <path d="M0,0a0.5,0.5 0 0,1 -0.15,0.35" />
      <path d="M0.15,0.35a0.5,0.5 0 0,1 -0.15,-0.35" />
      <path d="M0.5,0l-0.35,0.35" />
    </symbol>
    <symbol id="$DorLib2D$00000114" overflow="visible" class="i0">
      <path d="M-0.21,0.71a1,1 0 0,1 -0.29,-0.71" />
      <path d="M0.5,0l-0.71,0.71" />
    </symbol>
    <symbol id="$lvtry$00000201" overflow="visible" class="i0">
      <path d="M-109.78,-40l0,-429.66" />
      <path d="M139.78,-40a40,40 0 0,1 -40,40l-199.57,0a40,40 0 0,1 -40,-40l0,-439.66a110,110 0 0,1 110,-110l59.57,0a110,110 0 0,1 110,110l0,439.66" />
      <path d="M109.78,-40a10,10 0 0,1 -10,10" />
      <path d="M-99.78,-30a10,10 0 0,1 -10,-10" />
      <path d="M99.78,-30l-199.57,0" />
      <circle r="20" cx="0" cy="-358.61" />
      <path d="M139.78,-469.66l-279.57,0" />
      <path d="M109.78,-469.66l0,429.66" />
    </symbol>
    <symbol id="$TCHSYS$APDOOR2D" overflow="visible" class="i0">
      <path d="M0.5,0l-0.5,0.87" />
      <path d="M0,0.87a1,1 0 0,1 -0.5,-0.87" />
    </symbol>
    <symbol id="$lvtry$00000171" overflow="visible" class="i0">
      <path d="M10.61,-74.25l63.64,63.64" />
      <path d="M-27.39,-69.82l97.21,97.21" />
      <path d="M-74.25,10.61l63.64,63.64" />
      <path d="M-69.82,-27.39l97.21,97.21" />
      <path d="M-53.03,-53.03l106.07,106.07" />
      <circle r="75" />
    </symbol>
    <symbol id="$lvtry$00000191" overflow="visible" class="i0">
      <circle r="50" cy="-250" />
      <path d="M39.04,-281.23l210.96,-168.77" />
      <path d="M39.04,-218.77l210.96,168.77" />
      <path d="M250,-450l0,400l-500,0l0,-400z" />
      <path d="M300,-500l0,500l-600,0l0,-500z" />
      <path d="M-250,-450l210.96,168.77" />
      <path d="M-250,-50l210.96,-168.77" />
    </symbol>
    <symbol id="$lvtry$00000194" overflow="visible" class="i0">
      <path d="M42.25,-27.17a172.58,172.58 0 0,1 -27.83,-7.78" />
      <path d="M8.85,-2.54a258.71,258.71 0 0,1 34.21,-5.14" />
      <circle r="20" cx="0" cy="-221.43" />
      <path d="M3.81,-42.78a166.25,166.25 0 0,1 -28.52,-25.84" />
      <path d="M-35.06,-60.48a6.77,6.77 0 0,1 10.36,-8.14" />
      <path d="M-35.06,-60.48a166.25,166.25 0 0,1 18.37,33.82" />
      <path d="M-9.19,-83.37a9.9,9.9 0 0,1 18.39,0" />
      <path d="M14.41,-34.95a372.22,372.22 0 0,1 -5.22,-48.41" />
      <path d="M-9.19,-83.37a372.22,372.22 0 0,1 -2.26,28.26" />
      <path d="M-19.46,-33.16a172.58,172.58 0 0,1 -22.78,5.99" />
      <circle r="16.69" cx="0" cy="-26.53" />
      <path d="M-13.78,-52.62a169.65,169.65 0 0,1 -13.49,-13.76" />
      <path d="M-22.1,-46.08a10.6,10.6 0 0,1 8.32,-6.54" />
      <path d="M-32.28,-62.44a169.65,169.65 0 0,1 10.18,16.36" />
      <path d="M-31.97,-61.9a3.37,3.37 0 0,1 5.15,-4.05" />
      <path d="M-16.69,-26.53l0,9.84" />
      <path d="M16.69,-26.53l0,9.84" />
      <path d="M-43.06,-7.68a258.71,258.71 0 0,1 34.21,5.14" />
      <path d="M16.69,-16.69a16.69,16.69 0 0,1 -33.38,0" />
      <path d="M-43.06,-7.68a10.06,10.06 0 0,1 0.81,-19.5" />
      <circle r="15" cx="0" cy="-221.43" />
      <path d="M92.26,-53.38a297.6,297.6 0 0,1 -78.54,14.35m152.45,-53.87a239.54,239.54 0 0,1 -73.91,39.52m125.84,-101.91a194.91,194.91 0 0,1 -51.93,62.39m68.83,-130.81a146.95,146.95 0 0,1 -16.9,68.42m0,-136.85a146.95,146.95 0 0,1 16.9,68.42m-68.83,-130.81a194.91,194.91 0 0,1 51.93,62.39m-125.84,-101.91a239.54,239.54 0 0,1 73.91,39.52m-166.17,-54.19a297.6,297.6 0 0,1 92.26,14.66m-184.52,0a297.6,297.6 0 0,1 92.26,-14.66m-166.17,54.19a239.54,239.54 0 0,1 73.91,-39.52m-125.84,101.91a194.91,194.91 0 0,1 51.93,-62.39m-68.83,130.81a146.95,146.95 0 0,1 16.9,-68.42m0,136.85a146.95,146.95 0 0,1 -16.9,-68.42m68.83,130.81a194.91,194.91 0 0,1 -51.93,-62.39m125.84,101.91a239.54,239.54 0 0,1 -73.91,-39.52m143.65,53.33a297.6,297.6 0 0,1 -69.74,-13.81" />
      <path d="M42.25,-27.17a10.06,10.06 0 0,1 0.81,19.5" />
    </symbol>
    <symbol id="$lvtry$00000222" overflow="visible" class="i0">
      <path d="M-205,-190.69l0,190.69l410,0l0,-190.69a203.43,203.43 0 0,1 -154.23,-132.77m-50.77,-36.18a54,54 0 0,1 50.77,36.18m-101.53,0a54,54 0 0,1 50.77,-36.18m-50.77,36.18a203.43,203.43 0 0,1 -154.23,132.77" />
      <path d="M161.08,-182.28a233.43,233.43 0 0,1 -138.63,-141.64" />
      <path d="M-22.45,-323.92a233.43,233.43 0 0,1 -133.44,139.63" />
      <circle r="20" cy="-241.62" />
      <path d="M0,-340a24,24 0 0,1 22.45,16.08" />
      <path d="M-22.45,-323.92a24,24 0 0,1 22.45,-16.08" />
      <path d="M161.54,-163.73a395,395 0 0,1 -317.79,-2.15" />
      <path d="M-156.25,-165.88a10,10 0 0,1 0.36,-18.41" />
      <circle r="20" cx="-0.03" cy="-60.43" />
      <path d="M161.08,-182.28a10,10 0 0,1 0.46,18.55" />
    </symbol>
  </defs>
  <g id="viewer">
    <g id="mirror" transform="scale(1, -1)" stroke-width="0.09%">
      <g id="background" fill="none">
        <g id="layer-主体" class="i主体">
          <path d="M158773.96,223840.49l0,1860l600,0l0,-1860z" />
          <path d="M158799.92,225700.49l0,-1860" />
          <path d="M158533.96,223840.49l0,1860l-600,0l0,-1860z" />
          <path d="M158508,225700.49l0,-1860" />
          <path d="M151253.96,223270.49l0,-1500" />
          <path d="M150313.96,223520.49l0,-2000" />
          <path d="M151253.96,223920.49l-1840,0" />
          <path d="M150313.96,223520.49l-900,0" />
          <path d="M150313.96,221520.49l-900,0" />
          <path d="M151253.96,221120.49l-1840,0" />
          <path d="M150013.96,223520.49l0,-2000" />
          <path d="M149713.96,223520.49l0,-2000" />
          <path d="M149413.96,223920.49l0,-2800" />
          <path d="M151153.96,223920.49l0,6500l600,0l0,-240l6600,0l0,240l600,0l0,-240l6600,0l0,240l600,0l0,-240l6600,0l0,240l600,0l0,-240l6600,0l0,240l600,0l0,-240l6600,0l0,240l600,0l0,-240l6600,0l0,240l600,0l0,-240l6600,0l0,140" />
          <path d="M201553.96,230320.49l0,560" />
          <path d="M151153.96,221120.49l0,-6700l600,0l0,240l6600,0l0,-240l600,0l0,240l6600,0l0,-240l600,0l0,240l6600,0l0,-240l600,0l0,240l6600,0l0,-240l600,0l0,240l6600,0l0,-240l600,0l0,240l6600,0l0,-240l600,0l0,240l6600,0l0,-140l0,-560" />
          <path d="M201553.96,231000.49l-51240,0l0,-7080" />
          <path d="M150313.96,221120.49l0,-7280l51240,0" />
          <path d="M150433.96,221120.49l0,-7160l51120,0" />
          <path d="M201553.96,230880.49l-51120,0l0,-6960" />
          <path d="M202053.96,223270.49l0,-1500" />
          <path d="M202353.96,223600.49l0,-2160" />
          <path d="M156353.96,223840.49l1000,0" />
          <path d="M159953.96,223840.49l1000,0" />
          <path d="M159986.46,225820.49l0,3900" />
          <path d="M157321.46,225820.49l0,3900" />
          <path d="M151253.96,215120.49l0,6000" />
          <path d="M151613.96,215120.49l0,6000" />
          <path d="M202053.96,229720.49l0,-5800" />
          <path d="M201693.96,229720.49l0,-5800" />
          <path d="M201653.96,230080.49l-200,0" />
          <path d="M201453.96,230080.49l0,-360" />
          <path d="M201453.96,229720.49l200,0" />
          <path d="M198453.96,229720.49l100,0" />
          <path d="M198553.96,229720.49l0,360" />
          <path d="M198553.96,230080.49l-100,0" />
          <path d="M151653.96,214760.49l200,0" />
          <path d="M151853.96,214760.49l0,360" />
          <path d="M151853.96,215120.49l-200,0" />
          <path d="M154853.96,215120.49l-100,0" />
          <path d="M154753.96,215120.49l0,-360" />
          <path d="M154753.96,214760.49l100,0" />
          <path d="M151613.96,221520.49l0,250" />
          <path d="M151613.96,221770.49l-360,0" />
          <path d="M151253.96,221770.49l0,-250" />
          <path d="M151253.96,223520.49l0,-250" />
          <path d="M151253.96,223270.49l360,0" />
          <path d="M151613.96,223270.49l0,250" />
          <path d="M202053.96,221120.49l0,-6000" />
          <path d="M201693.96,221120.49l0,-6000" />
          <path d="M151613.96,221200.49l1140,0" />
          <path d="M152753.96,221200.49l0,240" />
          <path d="M152753.96,221440.49l-1140,0" />
          <path d="M155053.96,221440.49l-1300,0" />
          <path d="M153753.96,221440.49l0,-240" />
          <path d="M153753.96,221200.49l1180,0" />
          <path d="M202053.96,221440.49l2080,0" />
          <path d="M202053.96,221200.49l2200,0" />
          <path d="M154933.96,223600.49l1420,0" />
          <path d="M156353.96,223600.49l0,240" />
          <path d="M156353.96,223840.49l-1180,0" />
          <path d="M158533.96,223840.49l-1180,0" />
          <path d="M157353.96,223840.49l0,-240" />
          <path d="M157353.96,223600.49l1300,0" />
          <path d="M154853.96,230080.49l-100,0" />
          <path d="M154753.96,230080.49l0,-360" />
          <path d="M154753.96,229720.49l100,0" />
          <path d="M151653.96,229720.49l200,0" />
          <path d="M151853.96,229720.49l0,360" />
          <path d="M151853.96,230080.49l-200,0" />
          <path d="M155173.96,229720.49l0,-3900" />
          <path d="M154933.96,229720.49l0,-4020" />
          <path d="M198053.96,230080.49l-100,0" />
          <path d="M197953.96,230080.49l0,-360" />
          <path d="M197953.96,229720.49l100,0" />
          <path d="M194853.96,229720.49l100,0" />
          <path d="M194953.96,229720.49l0,360" />
          <path d="M194953.96,230080.49l-100,0" />
          <path d="M198373.96,229720.49l0,-6120" />
          <path d="M198133.96,229720.49l0,-5880" />
          <path d="M187453.96,223600.49l1300,0" />
          <path d="M188753.96,223600.49l0,240" />
          <path d="M188753.96,223840.49l-1180,0" />
          <path d="M190933.96,223840.49l-1180,0" />
          <path d="M189753.96,223840.49l0,-240" />
          <path d="M189753.96,223600.49l1300,0" />
          <path d="M187253.96,230080.49l-100,0" />
          <path d="M187153.96,230080.49l0,-360" />
          <path d="M187153.96,229720.49l100,0" />
          <path d="M184053.96,229720.49l100,0" />
          <path d="M184153.96,229720.49l0,360" />
          <path d="M184153.96,230080.49l-100,0" />
          <path d="M187573.96,229720.49l0,-5880" />
          <path d="M187333.96,229720.49l0,-5880" />
          <path d="M180253.96,223600.49l1300,0" />
          <path d="M181553.96,223600.49l0,240" />
          <path d="M181553.96,223840.49l-1180,0" />
          <path d="M187333.96,223840.49l-4780,0" />
          <path d="M182553.96,223840.49l0,-240" />
          <path d="M182553.96,223600.49l4900,0" />
          <path d="M180053.96,230080.49l-100,0" />
          <path d="M179953.96,230080.49l0,-360" />
          <path d="M179953.96,229720.49l100,0" />
          <path d="M176853.96,229720.49l100,0" />
          <path d="M176953.96,229720.49l0,360" />
          <path d="M176953.96,230080.49l-100,0" />
          <path d="M180373.96,229720.49l0,-5880" />
          <path d="M180133.96,229720.49l0,-5880" />
          <path d="M190853.96,230080.49l-100,0" />
          <path d="M190753.96,230080.49l0,-360" />
          <path d="M190753.96,229720.49l100,0" />
          <path d="M187653.96,229720.49l100,0" />
          <path d="M187753.96,229720.49l0,360" />
          <path d="M187753.96,230080.49l-100,0" />
          <path d="M191053.96,223600.49l1300,0" />
          <path d="M192353.96,223600.49l0,240" />
          <path d="M192353.96,223840.49l-1180,0" />
          <path d="M194533.96,223840.49l-1180,0" />
          <path d="M193353.96,223840.49l0,-240" />
          <path d="M193353.96,223600.49l1300,0" />
          <path d="M191173.96,229720.49l0,-5880" />
          <path d="M190933.96,229720.49l0,-5880" />
          <path d="M194453.96,230080.49l-100,0" />
          <path d="M194353.96,230080.49l0,-360" />
          <path d="M194353.96,229720.49l100,0" />
          <path d="M191253.96,229720.49l100,0" />
          <path d="M191353.96,229720.49l0,360" />
          <path d="M191353.96,230080.49l-100,0" />
          <path d="M194653.96,223600.49l1300,0" />
          <path d="M195953.96,223600.49l0,240" />
          <path d="M195953.96,223840.49l-1180,0" />
          <path d="M198133.96,223840.49l-1180,0" />
          <path d="M196953.96,223840.49l0,-240" />
          <path d="M196953.96,223600.49l1420,0" />
          <path d="M194773.96,229720.49l0,-5880" />
          <path d="M194533.96,229720.49l0,-5880" />
          <path d="M176653.96,223600.49l1300,0" />
          <path d="M177953.96,223600.49l0,240" />
          <path d="M177953.96,223840.49l-1180,0" />
          <path d="M180133.96,223840.49l-1180,0" />
          <path d="M178953.96,223840.49l0,-240" />
          <path d="M178953.96,223600.49l1300,0" />
          <path d="M176453.96,230080.49l-100,0" />
          <path d="M176353.96,230080.49l0,-360" />
          <path d="M176353.96,229720.49l100,0" />
          <path d="M173253.96,229720.49l100,0" />
          <path d="M173353.96,229720.49l0,360" />
          <path d="M173353.96,230080.49l-100,0" />
          <path d="M176773.96,229720.49l0,-5880" />
          <path d="M176533.96,229720.49l0,-5880" />
          <path d="M173053.96,223600.49l1300,0" />
          <path d="M174353.96,223600.49l0,240" />
          <path d="M174353.96,223840.49l-1180,0" />
          <path d="M176533.96,223840.49l-1180,0" />
          <path d="M175353.96,223840.49l0,-240" />
          <path d="M175353.96,223600.49l1300,0" />
          <path d="M172853.96,230080.49l-100,0" />
          <path d="M172753.96,230080.49l0,-360" />
          <path d="M172753.96,229720.49l100,0" />
          <path d="M169653.96,229720.49l100,0" />
          <path d="M169753.96,229720.49l0,360" />
          <path d="M169753.96,230080.49l-100,0" />
          <path d="M173173.96,229720.49l0,-5880" />
          <path d="M172933.96,229720.49l0,-5880" />
          <path d="M169453.96,223600.49l1300,0" />
          <path d="M170753.96,223600.49l0,240" />
          <path d="M170753.96,223840.49l-1180,0" />
          <path d="M172933.96,223840.49l-1180,0" />
          <path d="M171753.96,223840.49l0,-240" />
          <path d="M171753.96,223600.49l1300,0" />
          <path d="M169253.96,230080.49l-100,0" />
          <path d="M169153.96,230080.49l0,-360" />
          <path d="M169153.96,229720.49l100,0" />
          <path d="M166053.96,229720.49l100,0" />
          <path d="M166153.96,229720.49l0,360" />
          <path d="M166153.96,230080.49l-100,0" />
          <path d="M169573.96,229720.49l0,-5880" />
          <path d="M169333.96,229720.49l0,-5880" />
          <path d="M165853.96,223600.49l1300,0" />
          <path d="M167153.96,223600.49l0,240" />
          <path d="M167153.96,223840.49l-1180,0" />
          <path d="M169333.96,223840.49l-1180,0" />
          <path d="M168153.96,223840.49l0,-240" />
          <path d="M168153.96,223600.49l1300,0" />
          <path d="M165653.96,230080.49l-100,0" />
          <path d="M165553.96,230080.49l0,-360" />
          <path d="M165553.96,229720.49l100,0" />
          <path d="M162453.96,229720.49l100,0" />
          <path d="M162553.96,229720.49l0,360" />
          <path d="M162553.96,230080.49l-100,0" />
          <path d="M165973.96,229720.49l0,-5880" />
          <path d="M165733.96,229720.49l0,-5880" />
          <path d="M162253.96,223600.49l1300,0" />
          <path d="M163553.96,223600.49l0,240" />
          <path d="M163553.96,223840.49l-1180,0" />
          <path d="M165733.96,223840.49l-1180,0" />
          <path d="M164553.96,223840.49l0,-240" />
          <path d="M164553.96,223600.49l1300,0" />
          <path d="M162053.96,230080.49l-100,0" />
          <path d="M161953.96,230080.49l0,-360" />
          <path d="M161953.96,229720.49l100,0" />
          <path d="M158853.96,229720.49l100,0" />
          <path d="M158953.96,229720.49l0,360" />
          <path d="M158953.96,230080.49l-100,0" />
          <path d="M162373.96,229720.49l0,-4020" />
          <path d="M162133.96,229720.49l0,-3900" />
          <path d="M158653.96,223600.49l1300,0" />
          <path d="M159953.96,223600.49l0,240" />
          <path d="M159953.96,223840.49l-1180,0" />
          <path d="M162133.96,223840.49l-1180,0" />
          <path d="M160953.96,223840.49l0,-240" />
          <path d="M160953.96,223600.49l1300,0" />
          <path d="M158453.96,230080.49l-100,0" />
          <path d="M158353.96,230080.49l0,-360" />
          <path d="M158353.96,229720.49l100,0" />
          <path d="M155253.96,229720.49l100,0" />
          <path d="M155353.96,229720.49l0,360" />
          <path d="M155353.96,230080.49l-100,0" />
          <path d="M158773.96,229720.49l0,-3900" />
          <path d="M158533.96,229720.49l0,-3900" />
          <path d="M155253.96,214760.49l100,0" />
          <path d="M155353.96,214760.49l0,360" />
          <path d="M155353.96,215120.49l-100,0" />
          <path d="M158453.96,215120.49l-100,0" />
          <path d="M158353.96,215120.49l0,-360" />
          <path d="M158353.96,214760.49l100,0" />
          <path d="M155173.96,221200.49l4780,0" />
          <path d="M159953.96,221200.49l0,240" />
          <path d="M159953.96,221440.49l-4900,0" />
          <path d="M162253.96,221440.49l-1300,0" />
          <path d="M160953.96,221440.49l0,-240" />
          <path d="M160953.96,221200.49l1180,0" />
          <path d="M154933.96,215120.49l0,6080" />
          <path d="M155173.96,215120.49l0,6080" />
          <path d="M162453.96,214760.49l100,0" />
          <path d="M162553.96,214760.49l0,360" />
          <path d="M162553.96,215120.49l-100,0" />
          <path d="M165653.96,215120.49l-100,0" />
          <path d="M165553.96,215120.49l0,-360" />
          <path d="M165553.96,214760.49l100,0" />
          <path d="M162253.96,221440.49l1300,0" />
          <path d="M164553.96,221440.49l1300,0" />
          <path d="M162373.96,221200.49l1180,0" />
          <path d="M164553.96,221200.49l1180,0" />
          <path d="M162373.96,215120.49l0,240" />
          <path d="M162133.96,215360.49l0,-240" />
          <path d="M162133.96,218620.49l0,-2260" />
          <path d="M162373.96,216360.49l0,2380" />
          <path d="M166053.96,214760.49l100,0" />
          <path d="M166153.96,214760.49l0,360" />
          <path d="M166153.96,215120.49l-100,0" />
          <path d="M169253.96,215120.49l-100,0" />
          <path d="M169153.96,215120.49l0,-360" />
          <path d="M169153.96,214760.49l100,0" />
          <path d="M165973.96,221200.49l1180,0" />
          <path d="M167153.96,221200.49l0,240" />
          <path d="M167153.96,221440.49l-1300,0" />
          <path d="M173053.96,221440.49l-1300,0" />
          <path d="M171753.96,221440.49l0,-240" />
          <path d="M171753.96,221200.49l1180,0" />
          <path d="M168153.96,221200.49l2600,0" />
          <path d="M170753.96,221200.49l0,240" />
          <path d="M170753.96,221440.49l-2600,0" />
          <path d="M168153.96,221440.49l0,-240" />
          <path d="M165973.96,215120.49l0,2140" />
          <path d="M165973.96,217260.49l-240,0" />
          <path d="M165733.96,217260.49l0,-2140" />
          <path d="M165733.96,218500.49l0,-240" />
          <path d="M165733.96,218260.49l240,0" />
          <path d="M165973.96,218260.49l0,360" />
          <path d="M173253.96,214760.49l100,0" />
          <path d="M173353.96,214760.49l0,360" />
          <path d="M173353.96,215120.49l-100,0" />
          <path d="M176453.96,215120.49l-100,0" />
          <path d="M176353.96,215120.49l0,-360" />
          <path d="M176353.96,214760.49l100,0" />
          <path d="M173173.96,221200.49l1180,0" />
          <path d="M174353.96,221200.49l0,240" />
          <path d="M174353.96,221440.49l-1300,0" />
          <path d="M176653.96,221440.49l-1300,0" />
          <path d="M175353.96,221440.49l0,-240" />
          <path d="M175353.96,221200.49l1180,0" />
          <path d="M172933.96,215120.49l0,6080" />
          <path d="M173173.96,215120.49l0,6080" />
          <path d="M176853.96,214760.49l100,0" />
          <path d="M176953.96,214760.49l0,360" />
          <path d="M176953.96,215120.49l-100,0" />
          <path d="M180053.96,215120.49l-100,0" />
          <path d="M179953.96,215120.49l0,-360" />
          <path d="M179953.96,214760.49l100,0" />
          <path d="M176773.96,221200.49l1180,0" />
          <path d="M177953.96,221200.49l0,240" />
          <path d="M177953.96,221440.49l-1300,0" />
          <path d="M180253.96,221440.49l-1300,0" />
          <path d="M178953.96,221440.49l0,-240" />
          <path d="M178953.96,221200.49l1180,0" />
          <path d="M176533.96,215120.49l0,6080" />
          <path d="M176773.96,215120.49l0,6080" />
          <path d="M180453.96,214760.49l100,0" />
          <path d="M180553.96,214760.49l0,360" />
          <path d="M180553.96,215120.49l-100,0" />
          <path d="M183653.96,215120.49l-100,0" />
          <path d="M183553.96,215120.49l0,-360" />
          <path d="M183553.96,214760.49l100,0" />
          <path d="M180373.96,221200.49l930,0" />
          <path d="M181303.96,221440.49l-1050,0" />
          <path d="M194653.96,221440.49l-1050,0" />
          <path d="M193603.96,221440.49l0,-240" />
          <path d="M193603.96,221200.49l930,0" />
          <path d="M182803.96,221200.49l9300,0" />
          <path d="M192103.96,221200.49l0,240" />
          <path d="M192103.96,221440.49l-9300,0" />
          <path d="M182803.96,221440.49l0,-240" />
          <path d="M180133.96,215120.49l0,6080" />
          <path d="M180373.96,215120.49l0,6080" />
          <path d="M194853.96,214760.49l100,0" />
          <path d="M194953.96,214760.49l0,360" />
          <path d="M194953.96,215120.49l-100,0" />
          <path d="M198053.96,215120.49l-100,0" />
          <path d="M197953.96,215120.49l0,-360" />
          <path d="M197953.96,214760.49l100,0" />
          <path d="M194773.96,221200.49l1225,0" />
          <path d="M196998.96,221200.49l2555,0" />
          <path d="M199553.96,221200.49l0,240" />
          <path d="M199553.96,221440.49l-2555,0" />
          <path d="M195998.96,221440.49l-1345,0" />
          <path d="M201693.96,221440.49l-1140,0" />
          <path d="M200553.96,221440.49l0,-240" />
          <path d="M200553.96,221200.49l1140,0" />
          <path d="M194533.96,215120.49l0,6080" />
          <path d="M194773.96,215120.49l0,6080" />
          <path d="M202053.96,223840.49l2200,0" />
          <path d="M202053.96,223600.49l2080,0" />
          <path d="M201693.96,223520.49l0,-250" />
          <path d="M201693.96,223270.49l360,0" />
          <path d="M202053.96,223270.49l0,250" />
          <path d="M202053.96,221520.49l0,250" />
          <path d="M202053.96,221770.49l-360,0" />
          <path d="M201693.96,221770.49l0,-250" />
          <path d="M204373.96,221440.49l480,0" />
          <path d="M204253.96,221200.49l600,0" />
          <path d="M204853.96,221440.49l0,-240" />
          <path d="M204253.96,223840.49l600,0" />
          <path d="M204373.96,223600.49l480,0" />
          <path d="M204853.96,223840.49l0,-240" />
          <path d="M204373.96,221440.49l0,330" />
          <path d="M204373.96,221770.49l-240,0" />
          <path d="M204133.96,221770.49l0,-330" />
          <path d="M204133.96,223600.49l0,-330" />
          <path d="M204133.96,223270.49l240,0" />
          <path d="M204373.96,223270.49l0,330" />
          <path d="M158453.96,229720.49l400,0" />
          <path d="M158853.96,229720.49l0,600" />
          <path d="M158853.96,230320.49l-400,0" />
          <path d="M158453.96,230320.49l0,-600" />
          <path d="M158453.96,214520.49l400,0" />
          <path d="M158853.96,214520.49l0,600" />
          <path d="M158853.96,215120.49l-400,0" />
          <path d="M158453.96,215120.49l0,-600" />
          <path d="M158853.96,214760.49l100,0" />
          <path d="M158953.96,214760.49l0,360" />
          <path d="M158953.96,215120.49l-100,0" />
          <path d="M162053.96,215120.49l-100,0" />
          <path d="M161953.96,215120.49l0,-360" />
          <path d="M161953.96,214760.49l100,0" />
          <path d="M151253.96,214520.49l400,0" />
          <path d="M151653.96,214520.49l0,600" />
          <path d="M151653.96,215120.49l-400,0" />
          <path d="M151253.96,215120.49l0,-600" />
          <path d="M151253.96,229720.49l400,0" />
          <path d="M151653.96,229720.49l0,600" />
          <path d="M151653.96,230320.49l-400,0" />
          <path d="M151253.96,230320.49l0,-600" />
          <path d="M154853.96,229720.49l400,0" />
          <path d="M155253.96,229720.49l0,360" />
          <path d="M155253.96,230080.49l-400,0" />
          <path d="M154853.96,230080.49l0,-360" />
          <path d="M154853.96,214760.49l400,0" />
          <path d="M155253.96,214760.49l0,360" />
          <path d="M155253.96,215120.49l-400,0" />
          <path d="M154853.96,215120.49l0,-360" />
          <path d="M165653.96,229720.49l400,0" />
          <path d="M166053.96,229720.49l0,600" />
          <path d="M166053.96,230320.49l-400,0" />
          <path d="M165653.96,230320.49l0,-600" />
          <path d="M165653.96,214520.49l400,0" />
          <path d="M166053.96,214520.49l0,600" />
          <path d="M166053.96,215120.49l-400,0" />
          <path d="M165653.96,215120.49l0,-600" />
          <path d="M162053.96,229720.49l400,0" />
          <path d="M162453.96,229720.49l0,360" />
          <path d="M162453.96,230080.49l-400,0" />
          <path d="M162053.96,230080.49l0,-360" />
          <path d="M162053.96,214760.49l400,0" />
          <path d="M162453.96,214760.49l0,360" />
          <path d="M162453.96,215120.49l-400,0" />
          <path d="M162053.96,215120.49l0,-360" />
          <path d="M172853.96,229720.49l400,0" />
          <path d="M173253.96,229720.49l0,600" />
          <path d="M173253.96,230320.49l-400,0" />
          <path d="M172853.96,230320.49l0,-600" />
          <path d="M172853.96,214520.49l400,0" />
          <path d="M173253.96,214520.49l0,600" />
          <path d="M173253.96,215120.49l-400,0" />
          <path d="M172853.96,215120.49l0,-600" />
          <path d="M169253.96,229720.49l400,0" />
          <path d="M169653.96,229720.49l0,360" />
          <path d="M169653.96,230080.49l-400,0" />
          <path d="M169253.96,230080.49l0,-360" />
          <path d="M169253.96,214760.49l400,0" />
          <path d="M169653.96,214760.49l0,360" />
          <path d="M169653.96,215120.49l-400,0" />
          <path d="M169253.96,215120.49l0,-360" />
          <path d="M180053.96,229720.49l400,0" />
          <path d="M180453.96,229720.49l0,600" />
          <path d="M180453.96,230320.49l-400,0" />
          <path d="M180053.96,230320.49l0,-600" />
          <path d="M180053.96,214520.49l400,0" />
          <path d="M180453.96,214520.49l0,600" />
          <path d="M180453.96,215120.49l-400,0" />
          <path d="M180053.96,215120.49l0,-600" />
          <path d="M176453.96,229720.49l400,0" />
          <path d="M176853.96,229720.49l0,360" />
          <path d="M176853.96,230080.49l-400,0" />
          <path d="M176453.96,230080.49l0,-360" />
          <path d="M176453.96,214760.49l400,0" />
          <path d="M176853.96,214760.49l0,360" />
          <path d="M176853.96,215120.49l-400,0" />
          <path d="M176453.96,215120.49l0,-360" />
          <path d="M187253.96,229720.49l400,0" />
          <path d="M187653.96,229720.49l0,600" />
          <path d="M187653.96,230320.49l-400,0" />
          <path d="M187253.96,230320.49l0,-600" />
          <path d="M187253.96,214520.49l400,0" />
          <path d="M187653.96,214520.49l0,600" />
          <path d="M187653.96,215120.49l-400,0" />
          <path d="M187253.96,215120.49l0,-600" />
          <path d="M183653.96,229720.49l400,0" />
          <path d="M184053.96,229720.49l0,360" />
          <path d="M184053.96,230080.49l-400,0" />
          <path d="M183653.96,230080.49l0,-360" />
          <path d="M183653.96,214760.49l400,0" />
          <path d="M184053.96,214760.49l0,360" />
          <path d="M184053.96,215120.49l-400,0" />
          <path d="M183653.96,215120.49l0,-360" />
          <path d="M194453.96,229720.49l400,0" />
          <path d="M194853.96,229720.49l0,600" />
          <path d="M194853.96,230320.49l-400,0" />
          <path d="M194453.96,230320.49l0,-600" />
          <path d="M194453.96,214520.49l400,0" />
          <path d="M194853.96,214520.49l0,600" />
          <path d="M194853.96,215120.49l-400,0" />
          <path d="M194453.96,215120.49l0,-600" />
          <path d="M190853.96,229720.49l400,0" />
          <path d="M191253.96,229720.49l0,360" />
          <path d="M191253.96,230080.49l-400,0" />
          <path d="M190853.96,230080.49l0,-360" />
          <path d="M190853.96,214760.49l400,0" />
          <path d="M191253.96,214760.49l0,360" />
          <path d="M191253.96,215120.49l-400,0" />
          <path d="M190853.96,215120.49l0,-360" />
          <path d="M169653.96,214760.49l100,0" />
          <path d="M169753.96,214760.49l0,360" />
          <path d="M169753.96,215120.49l-100,0" />
          <path d="M172853.96,215120.49l-100,0" />
          <path d="M172753.96,215120.49l0,-360" />
          <path d="M172753.96,214760.49l100,0" />
          <path d="M187653.96,214760.49l100,0" />
          <path d="M187753.96,214760.49l0,360" />
          <path d="M187753.96,215120.49l-100,0" />
          <path d="M190853.96,215120.49l-100,0" />
          <path d="M190753.96,215120.49l0,-360" />
          <path d="M190753.96,214760.49l100,0" />
          <path d="M183653.96,230080.49l-100,0" />
          <path d="M183553.96,230080.49l0,-360" />
          <path d="M183553.96,229720.49l100,0" />
          <path d="M180453.96,229720.49l100,0" />
          <path d="M180553.96,229720.49l0,360" />
          <path d="M180553.96,230080.49l-100,0" />
          <path d="M184053.96,214760.49l100,0" />
          <path d="M184153.96,214760.49l0,360" />
          <path d="M184153.96,215120.49l-100,0" />
          <path d="M187253.96,215120.49l-100,0" />
          <path d="M187153.96,215120.49l0,-360" />
          <path d="M187153.96,214760.49l100,0" />
          <path d="M191253.96,214760.49l100,0" />
          <path d="M191353.96,214760.49l0,360" />
          <path d="M191353.96,215120.49l-100,0" />
          <path d="M194453.96,215120.49l-100,0" />
          <path d="M194353.96,215120.49l0,-360" />
          <path d="M194353.96,214760.49l100,0" />
          <path d="M201653.96,229720.49l400,0" />
          <path d="M202053.96,229720.49l0,600" />
          <path d="M202053.96,230320.49l-400,0" />
          <path d="M201653.96,230320.49l0,-600" />
          <path d="M202053.96,215120.49l-400,0" />
          <path d="M198053.96,229720.49l400,0" />
          <path d="M198453.96,229720.49l0,360" />
          <path d="M198453.96,230080.49l-400,0" />
          <path d="M198053.96,230080.49l0,-360" />
          <path d="M198053.96,214760.49l400,0" />
          <path d="M198453.96,214760.49l0,360" />
          <path d="M198453.96,215120.49l-400,0" />
          <path d="M198053.96,215120.49l0,-360" />
          <path d="M198453.96,214760.49l100,0" />
          <path d="M198553.96,214760.49l0,360" />
          <path d="M198553.96,215120.49l-100,0" />
          <path d="M201653.96,215120.49l-200,0" />
          <path d="M201453.96,215120.49l0,-360" />
          <path d="M201453.96,214760.49l200,0" />
          <use xlink:href="#$WINLIB2D$00000001_2900x360" x="153303.96" y="214940.49">.</use>
          <use xlink:href="#$WINLIB2D$00000001_3000x360" x="156853.96" y="214940.49">.</use>
          <use xlink:href="#$WINLIB2D$00000001_3000x360" x="160453.96" y="214940.49">.</use>
          <use xlink:href="#$WINLIB2D$00000001_3000x360" x="164053.96" y="214940.49">.</use>
          <use xlink:href="#$WINLIB2D$00000001_3000x360" x="167653.96" y="214940.49">.</use>
          <use xlink:href="#$WINLIB2D$00000001_3000x360" x="171253.96" y="214940.49">.</use>
          <use xlink:href="#$WINLIB2D$00000001_3000x360" x="174853.96" y="214940.49">.</use>
          <use xlink:href="#$WINLIB2D$00000001_3000x360" x="178453.96" y="214940.49">.</use>
          <use xlink:href="#$WINLIB2D$00000001_3000x360" x="182053.96" y="214940.49">.</use>
          <use xlink:href="#$WINLIB2D$00000001_3000x360" x="185653.96" y="214940.49">.</use>
          <use xlink:href="#$WINLIB2D$00000001_3000x360" x="189253.96" y="214940.49">.</use>
          <use xlink:href="#$WINLIB2D$00000001_3000x360" x="192853.96" y="214940.49">.</use>
          <use xlink:href="#$WINLIB2D$00000001_3000x360" x="196453.96" y="214940.49">.</use>
          <use xlink:href="#$WINLIB2D$00000001_2900x360" x="200003.96" y="214940.49">.</use>
          <use xlink:href="#$WINLIB2D$00000001_2900x360" x="200003.96" y="229900.49" transform="rotate(180,200003.96,229900.49)">.</use>
          <use xlink:href="#$WINLIB2D$00000001_3000x360" x="196453.96" y="229900.49" transform="rotate(180,196453.96,229900.49)">.</use>
          <use xlink:href="#$WINLIB2D$00000001_3000x360" x="192853.96" y="229900.49" transform="rotate(180,192853.96,229900.49)">.</use>
          <use xlink:href="#$WINLIB2D$00000001_3000x360" x="189253.96" y="229900.49" transform="rotate(180,189253.96,229900.49)">.</use>
          <use xlink:href="#$WINLIB2D$00000001_3000x360" x="185653.96" y="229900.49" transform="rotate(180,185653.96,229900.49)">.</use>
          <use xlink:href="#$WINLIB2D$00000001_3000x360" x="182053.96" y="229900.49" transform="rotate(180,182053.96,229900.49)">.</use>
          <use xlink:href="#$WINLIB2D$00000001_3000x360" x="178453.96" y="229900.49" transform="rotate(180,178453.96,229900.49)">.</use>
          <use xlink:href="#$WINLIB2D$00000001_3000x360" x="174853.96" y="229900.49" transform="rotate(180,174853.96,229900.49)">.</use>
          <use xlink:href="#$WINLIB2D$00000001_3000x360" x="171253.96" y="229900.49" transform="rotate(180,171253.96,229900.49)">.</use>
          <use xlink:href="#$WINLIB2D$00000001_3000x360" x="167653.96" y="229900.49" transform="rotate(180,167653.96,229900.49)">.</use>
          <use xlink:href="#$WINLIB2D$00000001_3000x360" x="164053.96" y="229900.49" transform="rotate(180,164053.96,229900.49)">.</use>
          <use xlink:href="#$WINLIB2D$00000001_3000x360" x="160453.96" y="229900.49" transform="rotate(180,160453.96,229900.49)">.</use>
          <use xlink:href="#$WINLIB2D$00000001_3000x360" x="156853.96" y="229900.49" transform="rotate(180,156853.96,229900.49)">.</use>
          <use xlink:href="#$WINLIB2D$00000001_2900x360" x="153303.96" y="229900.49" transform="rotate(180,153303.96,229900.49)">.</use>
          <use xlink:href="#$DorLib2D$00000116" x="100.96" y="148.35" transform="scale(1500,1500) rotate(90,100.96,148.35)" stroke-width="0.0001%">.</use>
          <use xlink:href="#$DorLib2D$00000116" x="134.58" y="148.35" transform="scale(1500,1500) rotate(270,134.58,148.35)" stroke-width="0.0001%">.</use>
          <use xlink:href="#$DorLib2D$00000116" x="136.17" y="148.35" transform="scale(1500,1500) scale(1,-1) translate(0,-296.69) rotate(270,136.17,148.35)" stroke-width="0.0001%">.</use>
          <use xlink:href="#$DorLib2D$00000116" x="128.57" y="147.55" transform="scale(1500,1500) scale(1,-1) translate(0,-295.09)" stroke-width="0.0001%">.</use>
          <use xlink:href="#$DorLib2D$00000116" x="121.37" y="147.55" transform="scale(1500,1500) scale(1,-1) translate(0,-295.09)" stroke-width="0.0001%">.</use>
          <use xlink:href="#$DorLib2D$00000114" x="160.45" y="223.72" transform="scale(1000,1000)" stroke-width="0.0001%">.</use>
          <use xlink:href="#$DorLib2D$00000114" x="156.85" y="223.72" transform="scale(1000,1000) scale(-1,1) translate(-313.71,0)" stroke-width="0.0001%">.</use>
          <use xlink:href="#$DorLib2D$00000114" x="164.05" y="223.72" transform="scale(1000,1000) scale(-1,1) translate(-328.11,0)" stroke-width="0.0001%">.</use>
          <use xlink:href="#$DorLib2D$00000114" x="167.65" y="223.72" transform="scale(1000,1000)" stroke-width="0.0001%">.</use>
          <use xlink:href="#$DorLib2D$00000114" x="171.25" y="223.72" transform="scale(1000,1000)" stroke-width="0.0001%">.</use>
          <use xlink:href="#$DorLib2D$00000114" x="174.85" y="223.72" transform="scale(1000,1000) scale(-1,1) translate(-349.71,0)" stroke-width="0.0001%">.</use>
          <use xlink:href="#$DorLib2D$00000114" x="178.45" y="223.72" transform="scale(1000,1000) scale(-1,1) translate(-356.91,0)" stroke-width="0.0001%">.</use>
          <use xlink:href="#$DorLib2D$00000114" x="182.05" y="223.72" transform="scale(1000,1000) scale(-1,1) translate(-364.11,0)" stroke-width="0.0001%">.</use>
          <use xlink:href="#$DorLib2D$00000114" x="189.25" y="223.72" transform="scale(1000,1000) scale(-1,1) translate(-378.51,0)" stroke-width="0.0001%">.</use>
          <use xlink:href="#$DorLib2D$00000114" x="192.85" y="223.72" transform="scale(1000,1000)" stroke-width="0.0001%">.</use>
          <use xlink:href="#$DorLib2D$00000114" x="196.45" y="223.72" transform="scale(1000,1000) scale(-1,1) translate(-392.91,0)" stroke-width="0.0001%">.</use>
          <use xlink:href="#$DorLib2D$00000114" x="200.05" y="221.32" transform="scale(1000,1000) scale(1,-1) translate(0,-442.64)" stroke-width="0.0001%">.</use>
          <use xlink:href="#$DorLib2D$00000114" x="178.45" y="221.32" transform="scale(1000,1000) scale(1,-1) translate(0,-442.64)" stroke-width="0.0001%">.</use>
          <use xlink:href="#$DorLib2D$00000114" x="174.85" y="221.32" transform="scale(1000,1000) scale(1,-1) translate(0,-442.64)" stroke-width="0.0001%">.</use>
          <use xlink:href="#$DorLib2D$00000114" x="171.25" y="221.32" transform="scale(1000,1000) scale(1,-1) translate(0,-442.64)" stroke-width="0.0001%">.</use>
          <use xlink:href="#$DorLib2D$00000114" x="167.65" y="221.32" transform="scale(1000,1000) scale(-1,-1) translate(-335.31,-442.64)" stroke-width="0.0001%">.</use>
          <use xlink:href="#$DorLib2D$00000114" x="153.25" y="221.32" transform="scale(1000,1000) scale(-1,-1) translate(-306.51,-442.64)" stroke-width="0.0001%">.</use>
          <use xlink:href="#$DorLib2D$00000114" x="160.45" y="221.32" transform="scale(1000,1000) scale(1,-1) translate(0,-442.64)" stroke-width="0.0001%">.</use>
          <path d="M162133.96,218620.49l0,2580" />
          <path d="M162373.96,218740.49l0,2460" />
          <path d="M165733.96,218500.49l0,2700" />
          <path d="M165973.96,218620.49l0,2580" />
          <use xlink:href="#$DorLib2D$00000114" x="165.85" y="217.76" transform="scale(1000,1000) scale(1,-1) translate(0,-435.52) rotate(270,165.85,217.76)" stroke-width="0.0001%">.</use>
          <path d="M162133.96,225820.49l-1247.5,0" />
          <path d="M160886.46,225820.49l0,-120" />
          <path d="M160886.46,225700.49l1247.5,0" />
          <path d="M158773.96,225700.49l1212.5,0" />
          <path d="M159986.46,225700.49l0,120" />
          <path d="M159986.46,225820.49l-1212.5,0" />
          <path d="M158533.96,225820.49l-1212.5,0" />
          <path d="M157321.46,225820.49l0,-120" />
          <path d="M157321.46,225700.49l1212.5,0" />
          <path d="M155173.96,225700.49l1247.5,0" />
          <path d="M156421.46,225700.49l0,120" />
          <path d="M156421.46,225820.49l-1247.5,0" />
          <use xlink:href="#$lvtry$00000201" x="158333.96" y="226270.49" transform="rotate(270,158333.96,226270.49)">.</use>
          <use xlink:href="#$lvtry$00000201" x="158333.96" y="227170.49" transform="rotate(270,158333.96,227170.49)">.</use>
          <use xlink:href="#$lvtry$00000201" x="158333.96" y="228070.49" transform="rotate(270,158333.96,228070.49)">.</use>
          <use xlink:href="#$lvtry$00000201" x="158333.96" y="228970.49" transform="rotate(270,158333.96,228970.49)">.</use>
          <path d="M158533.96,226707.99l-1187.5,0" />
          <path d="M158533.96,226732.99l-1187.5,0" />
          <path d="M158533.96,226707.99l0,25" />
          <path d="M157346.46,225820.49l0,150" />
          <path d="M157346.46,225970.49l-25,0" />
          <path d="M157321.46,225970.49l0,-150" />
          <path d="M157321.46,225820.49l25,0" />
          <path d="M157321.46,226720.49l0,-150" />
          <path d="M157321.46,226570.49l25,0" />
          <path d="M157346.46,226570.49l0,137.5" />
          <use xlink:href="#$TCHSYS$APDOOR2D" x="262.22" y="377.12" transform="scale(600,600) scale(-1,1) translate(-524.45,0) rotate(270,262.22,377.12)" stroke-width="0.0002%">.</use>
          <path d="M158533.96,227607.99l-1187.5,0" />
          <path d="M158533.96,227632.99l-1187.5,0" />
          <path d="M158533.96,227607.99l0,25" />
          <path d="M157346.46,226732.99l0,137.5" />
          <path d="M157346.46,226870.49l-25,0" />
          <path d="M157321.46,226870.49l0,-150" />
          <path d="M157321.46,227620.49l0,-150" />
          <path d="M157321.46,227470.49l25,0" />
          <path d="M157346.46,227470.49l0,137.5" />
          <use xlink:href="#$TCHSYS$APDOOR2D" x="262.22" y="378.62" transform="scale(600,600) scale(-1,1) translate(-524.45,0) rotate(270,262.22,378.62)" stroke-width="0.0002%">.</use>
          <path d="M158533.96,228507.99l-1187.5,0" />
          <path d="M158533.96,228532.99l-1187.5,0" />
          <path d="M158533.96,228507.99l0,25" />
          <path d="M157346.46,227632.99l0,137.5" />
          <path d="M157346.46,227770.49l-25,0" />
          <path d="M157321.46,227770.49l0,-150" />
          <path d="M157321.46,228520.49l0,-150" />
          <path d="M157321.46,228370.49l25,0" />
          <path d="M157346.46,228370.49l0,137.5" />
          <use xlink:href="#$TCHSYS$APDOOR2D" x="262.22" y="380.12" transform="scale(600,600) scale(-1,1) translate(-524.45,0) rotate(270,262.22,380.12)" stroke-width="0.0002%">.</use>
          <path d="M158533.96,229407.99l-1187.5,0" />
          <path d="M158533.96,229432.99l-1212.5,0" />
          <path d="M158533.96,229407.99l0,25" />
          <path d="M157346.46,228532.99l0,137.5" />
          <path d="M157346.46,228670.49l-25,0" />
          <path d="M157321.46,228670.49l0,-150" />
          <path d="M157321.46,229432.99l0,-162.5" />
          <path d="M157321.46,229270.49l25,0" />
          <path d="M157346.46,229270.49l0,137.5" />
          <use xlink:href="#$TCHSYS$APDOOR2D" x="262.22" y="381.62" transform="scale(600,600) scale(-1,1) translate(-524.45,0) rotate(270,262.22,381.62)" stroke-width="0.0002%">.</use>
          <use xlink:href="#$lvtry$00000201" x="158973.96" y="226270.49" transform="scale(1,-1) translate(0,-452540.98) rotate(90,158973.96,226270.49)">.</use>
          <use xlink:href="#$lvtry$00000201" x="158973.96" y="227170.49" transform="scale(1,-1) translate(0,-454340.98) rotate(90,158973.96,227170.49)">.</use>
          <use xlink:href="#$lvtry$00000201" x="158973.96" y="228070.49" transform="scale(1,-1) translate(0,-456140.98) rotate(90,158973.96,228070.49)">.</use>
          <use xlink:href="#$lvtry$00000201" x="158973.96" y="228970.49" transform="scale(1,-1) translate(0,-457940.98) rotate(90,158973.96,228970.49)">.</use>
          <path d="M158773.96,226732.99l1187.5,0" />
          <path d="M158773.96,226707.99l1187.5,0" />
          <path d="M158773.96,226732.99l0,-25" />
          <path d="M159986.46,225820.49l0,150" />
          <path d="M159986.46,225970.49l-25,0" />
          <path d="M159961.46,225970.49l0,-150" />
          <path d="M159961.46,225820.49l25,0" />
          <path d="M159961.46,226707.99l0,-137.5" />
          <path d="M159961.46,226570.49l25,0" />
          <path d="M159986.46,226570.49l0,150" />
          <use xlink:href="#$TCHSYS$APDOOR2D" x="266.62" y="377.12" transform="scale(600,600) scale(-1,-1) translate(-533.25,-754.23) rotate(90,266.62,377.12)" stroke-width="0.0002%">.</use>
          <path d="M158773.96,227632.99l1187.5,0" />
          <path d="M158773.96,227607.99l1187.5,0" />
          <path d="M158773.96,227632.99l0,-25" />
          <path d="M159986.46,226720.49l0,150" />
          <path d="M159986.46,226870.49l-25,0" />
          <path d="M159961.46,226870.49l0,-137.5" />
          <path d="M159961.46,227607.99l0,-137.5" />
          <path d="M159961.46,227470.49l25,0" />
          <path d="M159986.46,227470.49l0,150" />
          <use xlink:href="#$TCHSYS$APDOOR2D" x="266.62" y="378.62" transform="scale(600,600) scale(-1,-1) translate(-533.25,-757.23) rotate(90,266.62,378.62)" stroke-width="0.0002%">.</use>
          <path d="M158773.96,228532.99l1187.5,0" />
          <path d="M158773.96,228507.99l1187.5,0" />
          <path d="M158773.96,228532.99l0,-25" />
          <path d="M159986.46,227620.49l0,150" />
          <path d="M159986.46,227770.49l-25,0" />
          <path d="M159961.46,227770.49l0,-137.5" />
          <path d="M159961.46,228507.99l0,-137.5" />
          <path d="M159961.46,228370.49l25,0" />
          <path d="M159986.46,228370.49l0,150" />
          <use xlink:href="#$TCHSYS$APDOOR2D" x="266.62" y="380.12" transform="scale(600,600) scale(-1,-1) translate(-533.25,-760.23) rotate(90,266.62,380.12)" stroke-width="0.0002%">.</use>
          <path d="M158773.96,229432.99l1212.5,0" />
          <path d="M158773.96,229407.99l1187.5,0" />
          <path d="M158773.96,229432.99l0,-25" />
          <path d="M159986.46,228520.49l0,150" />
          <path d="M159986.46,228670.49l-25,0" />
          <path d="M159961.46,228670.49l0,-137.5" />
          <path d="M159961.46,229407.99l0,-137.5" />
          <path d="M159961.46,229270.49l25,0" />
          <path d="M159986.46,229270.49l0,162.5" />
          <use xlink:href="#$TCHSYS$APDOOR2D" x="266.62" y="381.62" transform="scale(600,600) scale(-1,-1) translate(-533.25,-763.23) rotate(90,266.62,381.62)" stroke-width="0.0002%">.</use>
          <use xlink:href="#$lvtry$00000171" x="162003.08" y="229105.42">.</use>
          <path d="M162373.96,225700.49l0,-1860" />
          <path d="M162133.96,225700.49l0,-1860" />
          <path d="M158773.96,225700.49l0,-1860" />
          <path d="M158533.96,225700.49l0,-1860" />
          <path d="M155173.96,225700.49l0,-1860" />
          <path d="M154933.96,225700.49l0,-2100" />
          <path d="M156421.46,225820.49l0,-120" />
          <path d="M157321.46,225700.49l0,120" />
          <path d="M159986.46,225820.49l0,-120" />
          <path d="M160886.46,225700.49l0,120" />
          <use xlink:href="#$lvtry$00000191" x="155173.96" y="225400.49" transform="rotate(90,155173.96,225400.49)">.</use>
          <use xlink:href="#$lvtry$00000191" x="155173.96" y="225400.49" transform="rotate(90,155173.96,225400.49)">.</use>
          <use xlink:href="#$lvtry$00000191" x="162133.96" y="225400.49" transform="rotate(270,162133.96,225400.49)">.</use>
          <use xlink:href="#$lvtry$00000194" x="158875.62" y="224390.49" transform="rotate(90,158875.62,224390.49)">.</use>
          <use xlink:href="#$lvtry$00000194" x="158875.62" y="225090.49" transform="rotate(90,158875.62,225090.49)">.</use>
          <use xlink:href="#$lvtry$00000194" x="158432.3" y="224390.49" transform="scale(1,-1) translate(0,-448780.98) rotate(270,158432.3,224390.49)">.</use>
          <use xlink:href="#$lvtry$00000194" x="158432.3" y="225090.49" transform="scale(1,-1) translate(0,-450180.98) rotate(270,158432.3,225090.49)">.</use>
          <path d="M154133.96,224970.49l0,1650l0,300" />
          <path d="M153393.96,225420.49l1540,0" />
          <path d="M153393.96,225720.49l1540,0" />
          <path d="M153393.96,226020.49l1540,0" />
          <path d="M153393.96,226320.49l1540,0" />
          <path d="M153393.96,226620.49l1540,0" />
          <path d="M153874.15,226920.49l1059.81,0" />
          <path d="M154393.77,227220.49l540.19,0" />
          <path d="M154933.96,225120.49l0,2411.88" />
          <path d="M153393.96,225120.49l1540,0" />
          <path d="M153333.96,225120.49l0,1488.12" />
          <path d="M154933.96,227532.37l-739.48,-426.94" />
          <path d="M154194.48,227105.43l34.94,-130.4" />
          <path d="M154229.42,226975.03l-206.04,172.89" />
          <path d="M154023.37,227147.92l32.78,-122.35" />
          <path d="M154056.16,227025.57l-722.2,-416.96" />
          <path d="M153333.96,225090.49l0,1518.12" />
          <path d="M153393.96,225090.49l0,1552.76" />
          <path d="M153333.96,225090.49l60,0" />
          <path d="M199173.96,224970.49l0,1650l0,300" />
          <path d="M198373.96,225420.49l1540,0" />
          <path d="M198373.96,225720.49l1540,0" />
          <path d="M198373.96,226020.49l1540,0" />
          <path d="M198373.96,226320.49l1540,0" />
          <path d="M198394.53,226620.49l1519.42,0" />
          <path d="M198914.15,226920.49l999.81,0" />
          <path d="M199433.77,227220.49l480.19,0" />
          <path d="M198373.96,225120.49l0,1488.12" />
          <path d="M198373.96,225120.49l1540,0" />
          <path d="M199973.96,225120.49l0,2411.88" />
          <path d="M199973.96,227532.37l-739.48,-426.94" />
          <path d="M199234.48,227105.43l34.94,-130.4" />
          <path d="M199269.42,226975.03l-206.04,172.89" />
          <path d="M199063.37,227147.92l32.78,-122.35" />
          <path d="M199096.16,227025.57l-722.2,-416.96" />
          <path d="M199913.96,225090.49l0,2407.24" />
          <path d="M199973.96,225090.49l0,2441.88" />
          <path d="M199913.96,225090.49l60,0" />
          <path d="M151613.96,223520.49l0,400" />
          <path d="M151613.96,223920.49l-360,0" />
          <path d="M151253.96,223920.49l0,-400" />
          <path d="M151253.96,223520.49l360,0" />
          <path d="M151253.96,223920.49l0,5800" />
          <path d="M151613.96,223920.49l0,5800" />
          <path d="M151613.96,221120.49l0,400" />
          <path d="M151613.96,221520.49l-360,0" />
          <path d="M151253.96,221520.49l0,-400" />
          <path d="M151253.96,221120.49l360,0" />
          <path d="M155173.96,223840.49l-240,0" />
          <path d="M154933.96,223840.49l0,-240" />
          <path d="M155173.96,223600.49l0,240" />
          <path d="M202053.96,223520.49l0,400" />
          <path d="M202053.96,223920.49l-360,0" />
          <path d="M201693.96,223920.49l0,-400" />
          <path d="M201693.96,223520.49l360,0" />
          <path d="M202053.96,221120.49l0,400" />
          <path d="M202053.96,221520.49l-360,0" />
          <path d="M201693.96,221520.49l0,-400" />
          <path d="M201693.96,221120.49l360,0" />
          <path d="M204853.96,223840.49l-240,0" />
          <path d="M204613.96,223840.49l0,-240" />
          <path d="M204613.96,223600.49l240,0" />
          <path d="M204853.96,223600.49l0,240" />
          <path d="M204853.96,221440.49l-240,0" />
          <path d="M204613.96,221440.49l0,-240" />
          <path d="M204613.96,221200.49l240,0" />
          <path d="M204853.96,221200.49l0,240" />
          <path d="M198133.96,223600.49l240,0" />
          <path d="M198373.96,223600.49l0,240" />
          <path d="M198373.96,223840.49l-240,0" />
          <path d="M198133.96,223840.49l0,-240" />
          <use xlink:href="#$lvtry$00000222" x="162133.96" y="226170.49" transform="rotate(270,162133.96,226170.49)">.</use>
          <use xlink:href="#$lvtry$00000222" x="162133.96" y="226870.49" transform="rotate(270,162133.96,226870.49)">.</use>
          <use xlink:href="#$lvtry$00000222" x="162133.96" y="227570.49" transform="rotate(270,162133.96,227570.49)">.</use>
          <use xlink:href="#$lvtry$00000222" x="162133.96" y="228270.49" transform="rotate(270,162133.96,228270.49)">.</use>
          <path d="M162133.96,226507.99l-400,0" />
          <path d="M162133.96,226532.99l-400,0" />
          <path d="M162133.96,226507.99l0,25" />
          <path d="M161733.96,226507.99l0,25" />
          <path d="M162133.96,227207.99l-400,0" />
          <path d="M162133.96,227232.99l-400,0" />
          <path d="M162133.96,227207.99l0,25" />
          <path d="M161733.96,227207.99l0,25" />
          <path d="M162133.96,227907.99l-400,0" />
          <path d="M162133.96,227932.99l-400,0" />
          <path d="M162133.96,227907.99l0,25" />
          <path d="M161733.96,227907.99l0,25" />
          <path d="M162133.96,228607.99l-400,0" />
          <path d="M162133.96,228632.99l-400,0" />
          <path d="M162133.96,228607.99l0,25" />
          <path d="M161733.96,228607.99l0,25" />
          <path d="M198328.96,221200.49l0,-6080" />
          <path d="M198178.96,221200.49l0,-6080" />
          <path d="M162373.96,216360.49l0,-1000" />
          <path d="M162133.96,216360.49l0,-1000" />
          <use xlink:href="#$DorLib2D$00000114" x="164.05" y="221.32" transform="scale(1000,1000) scale(-1,-1) translate(-328.11,-442.64)" stroke-width="0.0001%">.</use>
          <path d="M163553.96,221200.49l0,240" />
          <path d="M164553.96,221200.49l0,240" />
          <path d="M195998.96,221200.49l0,240" />
          <path d="M196998.96,221200.49l0,240" />
          <use xlink:href="#$DorLib2D$00000114" x="196.5" y="221.32" transform="scale(1000,1000) scale(-1,-1) translate(-393,-442.64)" stroke-width="0.0001%">.</use>
          <path d="M190933.96,225534.21l240,0l0,-1092.14l-240,0z" />
          <path d="M201653.96,215120.49l0,-600l400,0l0,600" />
        </g>
        <g id="layer-0" class="i0">
          <path d="M185270.13,223600.49l0,120l650,0l0,-120" />
          <path d="M177658.07,204274.07l0,120l650,0l0,-120" />
          <path d="M177654.53,203498.6l0,200" />
          <path d="M178354.53,203498.6l0,200" />
          <path d="M178354.53,203498.6l-700,200" />
          <path d="M177654.53,203698.6l700,0" />
          <path d="M177654.53,203498.6l700,0" />
          <path d="M155133.96,224080.49l-200,0" />
          <path d="M155133.96,224780.49l-200,0" />
          <path d="M155133.96,224780.49l-200,-700" />
          <path d="M154933.96,224080.49l0,700" />
          <path d="M155133.96,224080.49l0,700" />
          <path d="M198373.96,224080.49l-200,0" />
          <path d="M198373.96,224780.49l-200,0" />
          <path d="M198373.96,224780.49l-200,-700" />
          <path d="M198173.96,224080.49l0,700" />
          <path d="M198373.96,224080.49l0,700" />
          <path d="M181303.96,221200.49l0,240" />
          <path d="M154913.38,227520.49l20.58,0" />
          <path d="M170686.16,204457.54l5351.71,0" />
          <path d="M170686.16,204317.54l5351.71,0" />
          <path d="M219881.79,200745.64l0,40000l-79677.83,0l0,-40000z" />
          <path d="M220881.79,199745.64l0,42000l-83177.83,0l0,-42000z" />
          <path d="M216330.16,213220.55l3551.62,0" />
          <path d="M219881.79,197552.14l-5166,0" />
          <path d="M216330.16,204736.11l3551.62,0" />
          <path d="M219881.79,208879.67l-3551.62,0" />
          <path d="M219881.79,240745.64l-3551.62,0l0,-39462.5l3551.62,0l0,39462.5" />
          <path d="M216330.16,204045.51l3551.62,0" />
          <path d="M218204.63,204736.11l0,-3452.97" />
          <path d="M216330.16,203354.92l3551.62,0" />
          <path d="M219881.79,202664.33l-3551.62,0" />
          <path d="M219881.79,201973.73l-3551.62,0" />
          <path d="M216330.16,231163.09l3551.62,0" />
          <path d="M177658.07,204274.07l0,120l650,0l0,-120" />
          <path d="M177654.53,203498.6l0,200" />
          <path d="M178354.53,203498.6l0,200" />
          <path d="M178354.53,203498.6l-700,200" />
          <path d="M177654.53,203698.6l700,0" />
          <path d="M177654.53,203498.6l700,0" />
          <path d="M170686.16,204457.54l5351.71,0" />
          <path d="M170686.16,204317.54l5351.71,0" />
          <path d="M219881.79,200745.64l0,40000l-79677.83,0l0,-40000z" />
          <path d="M220881.79,199745.64l0,42000l-83177.83,0l0,-42000z" />
          <path d="M216330.16,204736.11l3551.62,0" />
          <path d="M219881.79,208879.67l-3551.62,0" />
          <path d="M219881.79,240745.64l-3551.62,0l0,-39462.5l3551.62,0l0,39462.5" />
          <path d="M216330.16,204045.51l3551.62,0" />
          <path d="M218204.63,204736.11l0,-3452.97" />
          <path d="M216330.16,203354.92l3551.62,0" />
          <path d="M219881.79,202664.33l-3551.62,0" />
          <path d="M219881.79,201973.73l-3551.62,0" />
        </g>
        <g id="layer-RM" class="rm">
          <path d="M165973.96,221200.49l6960,0l0,-6080l-6960,0z" />
          <path d="M180373.96,221200.49l14160,0l0,-6080l-14160,0z" />
        </g>
        <g id="layer-GORS" class="gors">
          <path d="M151153.96,215120.49l0,-700l600,0l0,240l6600,0l0,-240l600,0l0,240l6600,0l0,-240l600,0l0,240l6600,0l0,-240l600,0l0,240l6600,0l0,-240l155.59,0l444.41,0l0,240l6600,0l0,-240l600,0l0,240l6600,0l0,-240l600,0l0,240l6600,0l0,-140l500,0l0,15800l-400,0l0,-140l-100,0l-6600,0l0,240l-600,0l0,-240l-6600,0l0,240l-600,0l0,-240l-6600,0l0,240l-600,0l0,-240l-6600,0l0,240l-600,0l0,-240l-6600,0l0,240l-600,0l0,-240l-6600,0l0,240l-600,0l0,-240l-6600,0l0,240l-600,0z" />
        </g>
      </g>
      <g id="assets" fill="none">
        <g id="rm-assets" class="rm-asset">
          <path d="M151613.96,221200.49l3320,0l0,-6080l-3320,0z" id="XIPEILOU;F01;111" />
          <path d="M155173.96,221200.49l6960,0l0,-6080l-6960,0z" id="XIPEILOU;F01;110" />
          <path d="M162373.96,221200.49l3360,0l0,-6080l-3360,0z" id="XIPEILOU;F01;109" />
          <path d="M173173.96,221200.49l3360,0l0,-6080l-3360,0z" id="XIPEILOU;F01;106" />
          <path d="M176773.96,221200.49l3360,0l0,-6080l-3360,0z" id="XIPEILOU;F01;105" />
          <path d="M194773.96,221200.49l3405,0l0,-6080l-3405,0z" id="XIPEILOU;F01;102" />
          <path d="M198328.96,221200.49l3365,0l0,-6080l-3365,0z" id="XIPEILOU;F01;101" />
          <path d="M162373.96,229720.49l3360,0l0,-5880l-3360,0z" id="XIPEILOU;F01;112" />
          <path d="M165973.96,229720.49l3360,0l0,-5880l-3360,0z" id="XIPEILOU;F01;113" />
          <path d="M169573.96,229720.49l3360,0l0,-5880l-3360,0z" id="XIPEILOU;F01;114" />
          <path d="M173173.96,229720.49l3360,0l0,-5880l-3360,0z" id="XIPEILOU;F01;115" />
          <path d="M176773.96,229720.49l3360,0l0,-5880l-3360,0z" id="XIPEILOU;F01;116" />
          <path d="M180373.96,229720.49l6960,0l0,-5880l-6960,0z" id="XIPEILOU;F01;117" />
          <path d="M187573.96,229720.49l3360,0l0,-5880l-3360,0z" id="XIPEILOU;F01;118" />
          <path d="M191173.96,229720.49l3360,0l0,-5880l-3360,0z" id="XIPEILOU;F01;119" />
          <path d="M194773.96,229720.49l3360,0l0,-5880l-3360,0z" id="XIPEILOU;F01;120" />
        </g>
      </g>
    </g>
    <g id="asset-labels" font-family="Arial" font-weight="bold" font-size="1.5em" text-anchor="middle">
      <g id="rm-labels">
        <g id="l-rm-XIPEILOU;F01;111" transform="translate(153273.96,-218172.31)">
          <text>111</text>
        </g>
        <g id="l-rm-XIPEILOU;F01;110" transform="translate(158653.96,-218172.12)">
          <text>110</text>
        </g>
        <g id="l-rm-XIPEILOU;F01;109" transform="translate(164053.96,-218172.31)">
          <text>109</text>
        </g>
        <g id="l-rm-XIPEILOU;F01;106" transform="translate(174853.96,-218172.12)">
          <text>106</text>
        </g>
        <g id="l-rm-XIPEILOU;F01;105" transform="translate(178453.96,-218172.12)">
          <text>105</text>
        </g>
        <g id="l-rm-XIPEILOU;F01;102" transform="translate(196476.46,-218172.12)">
          <text>102</text>
        </g>
        <g id="l-rm-XIPEILOU;F01;101" transform="translate(200011.46,-218172.12)">
          <text>101</text>
        </g>
        <g id="l-rm-XIPEILOU;F01;112" transform="translate(164053.96,-226792.12)">
          <text>112</text>
        </g>
        <g id="l-rm-XIPEILOU;F01;113" transform="translate(167653.96,-226792.12)">
          <text>113</text>
        </g>
        <g id="l-rm-XIPEILOU;F01;114" transform="translate(171253.96,-226792.12)">
          <text>114</text>
        </g>
        <g id="l-rm-XIPEILOU;F01;115" transform="translate(174853.96,-226792.12)">
          <text>115</text>
        </g>
        <g id="l-rm-XIPEILOU;F01;116" transform="translate(178453.96,-226792.12)">
          <text>116</text>
        </g>
        <g id="l-rm-XIPEILOU;F01;117" transform="translate(183853.96,-226792.12)">
          <text>117</text>
        </g>
        <g id="l-rm-XIPEILOU;F01;118" transform="translate(189253.96,-226792.12)">
          <text>118</text>
        </g>
        <g id="l-rm-XIPEILOU;F01;119" transform="translate(192853.96,-226792.12)">
          <text>119</text>
        </g>
        <g id="l-rm-XIPEILOU;F01;120" transform="translate(196453.96,-226799.36)">
          <text>120</text>
        </g>
      </g>
    </g>
  </g>
</svg>