<svg version="1.1" xmlns="http://www.w3.org/2000/svg" xmlns:xlink="http://www.w3.org/1999/xlink" viewBox="147696.08 -143873.27 54400 17383">
  <style>.i0 { stroke:#000000; } .i主体 { stroke:#000000; } .rm { stroke:#0000ff; } .defpoints { stroke:#000000; } .rm-asset { stroke:#0000ff; } .rm-assettxt { stroke:#0000ff; } .rmtc-asset { stroke:#0000ff; } .rmtc { stroke:#00ffff; } .rmtc-assettxt { stroke:#0000ff; } .gros { stroke:#ff00ff; }</style>
  <view id="defaultView" viewBox="147696.08 -143873.27 54400 17383" />
  <defs>
    <symbol id="$DorLib2D$00000114" overflow="visible" class="i0">
      <path d="M-0.21,0.71a1,1 0 0,1 -0.29,-0.71" />
      <path d="M0.5,0l-0.71,0.71" />
    </symbol>
    <symbol id="$lvtry$00000201" overflow="visible" class="i0">
      <path d="M-109.78,-40l0,-429.66" />
      <path d="M139.78,-40a40,40 0 0,1 -40,40l-199.57,0a40,40 0 0,1 -40,-40l0,-439.66a110,110 0 0,1 110,-110l59.57,0a110,110 0 0,1 110,110l0,439.66" />
      <path d="M109.78,-40a10,10 0 0,1 -10,10" />
      <path d="M-99.78,-30a10,10 0 0,1 -10,-10" />
      <path d="M99.78,-30l-199.57,0" />
      <circle r="20" cx="0" cy="-358.61" />
      <path d="M139.78,-469.66l-279.57,0" />
      <path d="M109.78,-469.66l0,429.66" />
    </symbol>
    <symbol id="$TCHSYS$APDOOR2D" overflow="visible" class="i0">
      <path d="M0.5,0l-0.5,0.87" />
      <path d="M0,0.87a1,1 0 0,1 -0.5,-0.87" />
    </symbol>
    <symbol id="$lvtry$00000191" overflow="visible" class="i0">
      <circle r="50" cy="-250" />
      <path d="M39.04,-281.23l210.96,-168.77" />
      <path d="M39.04,-218.77l210.96,168.77" />
      <path d="M250,-450l0,400l-500,0l0,-400z" />
      <path d="M300,-500l0,500l-600,0l0,-500z" />
      <path d="M-250,-450l210.96,168.77" />
      <path d="M-250,-50l210.96,-168.77" />
    </symbol>
    <symbol id="$lvtry$00000194" overflow="visible" class="i0">
      <path d="M42.25,-27.17a172.58,172.58 0 0,1 -27.83,-7.78" />
      <path d="M8.85,-2.54a258.71,258.71 0 0,1 34.21,-5.14" />
      <circle r="20" cx="0" cy="-221.43" />
      <path d="M3.81,-42.78a166.25,166.25 0 0,1 -28.52,-25.84" />
      <path d="M-35.06,-60.48a6.77,6.77 0 0,1 10.36,-8.14" />
      <path d="M-35.06,-60.48a166.25,166.25 0 0,1 18.37,33.82" />
      <path d="M-9.19,-83.37a9.9,9.9 0 0,1 18.39,0" />
      <path d="M14.41,-34.95a372.22,372.22 0 0,1 -5.22,-48.41" />
      <path d="M-9.19,-83.37a372.22,372.22 0 0,1 -2.26,28.26" />
      <path d="M-19.46,-33.16a172.58,172.58 0 0,1 -22.78,5.99" />
      <circle r="16.69" cx="0" cy="-26.53" />
      <path d="M-13.78,-52.62a169.65,169.65 0 0,1 -13.49,-13.76" />
      <path d="M-22.1,-46.08a10.6,10.6 0 0,1 8.32,-6.54" />
      <path d="M-32.28,-62.44a169.65,169.65 0 0,1 10.18,16.36" />
      <path d="M-31.97,-61.9a3.37,3.37 0 0,1 5.15,-4.05" />
      <path d="M-16.69,-26.53l0,9.84" />
      <path d="M16.69,-26.53l0,9.84" />
      <path d="M-43.06,-7.68a258.71,258.71 0 0,1 34.21,5.14" />
      <path d="M16.69,-16.69a16.69,16.69 0 0,1 -33.38,0" />
      <path d="M-43.06,-7.68a10.06,10.06 0 0,1 0.81,-19.5" />
      <circle r="15" cx="0" cy="-221.43" />
      <path d="M92.26,-53.38a297.6,297.6 0 0,1 -78.54,14.35m152.45,-53.87a239.54,239.54 0 0,1 -73.91,39.52m125.84,-101.91a194.91,194.91 0 0,1 -51.93,62.39m68.83,-130.81a146.95,146.95 0 0,1 -16.9,68.42m0,-136.85a146.95,146.95 0 0,1 16.9,68.42m-68.83,-130.81a194.91,194.91 0 0,1 51.93,62.39m-125.84,-101.91a239.54,239.54 0 0,1 73.91,39.52m-166.17,-54.19a297.6,297.6 0 0,1 92.26,14.66m-184.52,0a297.6,297.6 0 0,1 92.26,-14.66m-166.17,54.19a239.54,239.54 0 0,1 73.91,-39.52m-125.84,101.91a194.91,194.91 0 0,1 51.93,-62.39m-68.83,130.81a146.95,146.95 0 0,1 16.9,-68.42m0,136.85a146.95,146.95 0 0,1 -16.9,-68.42m68.83,130.81a194.91,194.91 0 0,1 -51.93,-62.39m125.84,101.91a239.54,239.54 0 0,1 -73.91,-39.52m143.65,53.33a297.6,297.6 0 0,1 -69.74,-13.81" />
      <path d="M42.25,-27.17a10.06,10.06 0 0,1 0.81,19.5" />
    </symbol>
    <symbol id="$WINLIB2D$00000001_1500x360" overflow="visible" class="i0">
      <path d="M750,-180l0,360" />
      <path d="M-750,180l0,-360" />
      <path d="M750,60l-1500,0" />
      <path d="M750,-60l-1500,0" />
      <path d="M-750,-180l1500,0" />
      <path d="M-750,180l1500,0" />
    </symbol>
    <symbol id="$WINLIB2D$00000001_1200x360" overflow="visible" class="i0">
      <path d="M600,-180l0,360" />
      <path d="M-600,180l0,-360" />
      <path d="M600,60l-1200,0" />
      <path d="M600,-60l-1200,0" />
      <path d="M-600,-180l1200,0" />
      <path d="M-600,180l1200,0" />
    </symbol>
    <symbol id="$WINLIB2D$00000001_1100x360" overflow="visible" class="i0">
      <path d="M550,-180l0,360" />
      <path d="M-550,180l0,-360" />
      <path d="M550,60l-1100,0" />
      <path d="M550,-60l-1100,0" />
      <path d="M-550,-180l1100,0" />
      <path d="M-550,180l1100,0" />
    </symbol>
    <symbol id="$lvtry$00000222" overflow="visible" class="i0">
      <path d="M-205,-190.69l0,190.69l410,0l0,-190.69a203.43,203.43 0 0,1 -154.23,-132.77m-50.77,-36.18a54,54 0 0,1 50.77,36.18m-101.53,0a54,54 0 0,1 50.77,-36.18m-50.77,36.18a203.43,203.43 0 0,1 -154.23,132.77" />
      <path d="M161.08,-182.28a233.43,233.43 0 0,1 -138.63,-141.64" />
      <path d="M-22.45,-323.92a233.43,233.43 0 0,1 -133.44,139.63" />
      <circle r="20" cy="-241.62" />
      <path d="M0,-340a24,24 0 0,1 22.45,16.08" />
      <path d="M-22.45,-323.92a24,24 0 0,1 22.45,-16.08" />
      <path d="M161.54,-163.73a395,395 0 0,1 -317.79,-2.15" />
      <path d="M-156.25,-165.88a10,10 0 0,1 0.36,-18.41" />
      <circle r="20" cx="-0.03" cy="-60.43" />
      <path d="M161.08,-182.28a10,10 0 0,1 0.46,18.55" />
    </symbol>
    <symbol id="$DorLib2D$00000116" overflow="visible" class="i0">
      <path d="M-0.5,0l0.35,0.35" />
      <path d="M0,0a0.5,0.5 0 0,1 -0.15,0.35" />
      <path d="M0.15,0.35a0.5,0.5 0 0,1 -0.15,-0.35" />
      <path d="M0.5,0l-0.35,0.35" />
    </symbol>
  </defs>
  <g id="viewer">
    <g id="mirror" transform="scale(1, -1)" stroke-width="0.09%">
      <g id="background" fill="none">
        <g id="layer-主体" class="i主体">
          <path d="M158816.08,135993.27l0,1860l600,0l0,-1860z" />
          <path d="M158842.04,137853.27l0,-1860" />
          <path d="M158576.08,135993.27l0,1860l-600,0l0,-1860z" />
          <path d="M158550.12,137853.27l0,-1860" />
          <path d="M156396.08,135993.27l1000,0" />
          <path d="M159996.08,135993.27l1000,0" />
          <path d="M169296.08,142473.27l0,1400l11200,0l0,-1400" />
          <path d="M151296.08,126673.27l-3600,0l0,15800l3600,0" />
          <path d="M151296.08,126913.27l-2500,0" />
          <path d="M148796.08,142233.27l2500,0" />
          <path d="M148596.08,126913.27l-660,0l0,15320l660,0" />
          <path d="M169496.08,142473.27l0,1200l10800,0l0,-1200" />
          <path d="M160028.58,137973.27l0,3900" />
          <path d="M157363.58,137973.27l0,3900" />
          <path d="M151296.08,135423.27l0,-1500" />
          <path d="M151296.08,127273.27l0,6000" />
          <path d="M151656.08,127273.27l0,6000" />
          <path d="M202096.08,141873.27l0,-5800" />
          <path d="M201736.08,141873.27l0,-5800" />
          <path d="M151696.08,126913.27l200,0" />
          <path d="M151896.08,126913.27l0,360" />
          <path d="M151896.08,127273.27l-200,0" />
          <path d="M153296.08,127273.27l-300,0" />
          <path d="M152996.08,127273.27l0,-1.58" />
          <path d="M151656.08,133673.27l0,250" />
          <path d="M151656.08,133923.27l-360,0" />
          <path d="M151296.08,133923.27l0,-250" />
          <path d="M151296.08,135673.27l0,-250" />
          <path d="M151296.08,135423.27l360,0" />
          <path d="M151656.08,135423.27l0,250" />
          <path d="M202096.08,133273.27l0,-6000" />
          <path d="M201736.08,133273.27l0,-6000" />
          <path d="M151656.08,133353.27l1140,0" />
          <path d="M152796.08,133353.27l0,240" />
          <path d="M152796.08,133593.27l-1140,0" />
          <path d="M155096.08,133593.27l-1300,0" />
          <path d="M153796.08,133593.27l0,-240" />
          <path d="M153796.08,133353.27l1180,0" />
          <use xlink:href="#$DorLib2D$00000114" x="153.3" y="133.47" transform="scale(1000,1000) scale(-1,-1) translate(-306.59,-266.95)" stroke-width="0.0001%">.</use>
          <path d="M154976.08,135753.27l1420,0" />
          <path d="M156396.08,135753.27l0,240" />
          <path d="M156396.08,135993.27l-1180,0" />
          <path d="M158576.08,135993.27l-1180,0" />
          <path d="M157396.08,135993.27l0,-240" />
          <path d="M157396.08,135753.27l1300,0" />
          <use xlink:href="#$DorLib2D$00000114" x="156.9" y="135.87" transform="scale(1000,1000) scale(-1,1) translate(-313.79,0)" stroke-width="0.0001%">.</use>
          <path d="M154896.08,142233.27l-100,0" />
          <path d="M154796.08,142233.27l0,-360" />
          <path d="M154796.08,141873.27l100,0" />
          <path d="M155216.08,141873.27l0,-3900" />
          <path d="M154976.08,141873.27l0,-4020" />
          <path d="M198416.08,141873.27l0,-6120" />
          <path d="M198176.08,141873.27l0,-5880" />
          <path d="M187616.08,141873.27l0,-5880" />
          <path d="M187376.08,141873.27l0,-5880" />
          <path d="M180296.08,135753.27l1300,0" />
          <path d="M181596.08,135753.27l0,240" />
          <path d="M181596.08,135993.27l-1180,0" />
          <path d="M187376.08,135993.27l-4780,0" />
          <path d="M182596.08,135993.27l0,-240" />
          <path d="M182596.08,135753.27l4900,0" />
          <use xlink:href="#$DorLib2D$00000114" x="182.1" y="135.87" transform="scale(1000,1000) scale(-1,1) translate(-364.19,0)" stroke-width="0.0001%">.</use>
          <path d="M180416.08,141873.27l0,-5880" />
          <path d="M180176.08,141873.27l0,-5880" />
          <path d="M187496.08,135753.27l1300,0" />
          <path d="M188796.08,135753.27l0,240" />
          <path d="M188796.08,135993.27l-1180,0" />
          <path d="M194576.08,135993.27l-4780,0" />
          <path d="M189796.08,135753.27l4900,0" />
          <path d="M194696.08,135753.27l1300,0" />
          <path d="M195996.08,135753.27l0,240" />
          <path d="M195996.08,135993.27l-1180,0" />
          <path d="M198176.08,135993.27l-1180,0" />
          <path d="M196996.08,135993.27l0,-240" />
          <path d="M196996.08,135753.27l1420,0" />
          <use xlink:href="#$DorLib2D$00000114" x="196.5" y="135.87" transform="scale(1000,1000) scale(-1,1) translate(-392.99,0)" stroke-width="0.0001%">.</use>
          <path d="M194576.08,141873.27l0,-5880" />
          <path d="M194816.08,135993.27l0,5880" />
          <path d="M169496.08,135753.27l1300,0" />
          <path d="M170796.08,135753.27l0,240" />
          <path d="M170796.08,135993.27l-1180,0" />
          <path d="M180176.08,135993.27l-1180,0" />
          <path d="M178996.08,135993.27l0,-240" />
          <path d="M178996.08,135753.27l1300,0" />
          <path d="M171796.08,135753.27l6200,0" />
          <path d="M177996.08,135753.27l0,240" />
          <path d="M177996.08,135993.27l-6200,0" />
          <path d="M171796.08,135993.27l0,-240" />
          <path d="M169616.08,141873.27l0,-5880" />
          <path d="M169376.08,141873.27l0,-5880" />
          <path d="M162296.08,135753.27l1300,0" />
          <path d="M163596.08,135753.27l0,240" />
          <path d="M163596.08,135993.27l-1180,0" />
          <path d="M165776.08,135993.27l-1180,0" />
          <path d="M164596.08,135993.27l0,-240" />
          <path d="M164596.08,135753.27l1300,0" />
          <use xlink:href="#$DorLib2D$00000114" x="167.7" y="135.87" transform="scale(1000,1000) scale(-1,1) translate(-335.39,0)" stroke-width="0.0001%">.</use>
          <path d="M162416.08,141873.27l0,-4020" />
          <path d="M162176.08,141873.27l0,-3900" />
          <path d="M158696.08,135753.27l1300,0" />
          <path d="M159996.08,135753.27l0,240" />
          <path d="M159996.08,135993.27l-1180,0" />
          <path d="M162176.08,135993.27l-1180,0" />
          <path d="M160996.08,135993.27l0,-240" />
          <path d="M160996.08,135753.27l1300,0" />
          <use xlink:href="#$DorLib2D$00000114" x="160.5" y="135.87" transform="scale(1000,1000)" stroke-width="0.0001%">.</use>
          <path d="M158496.08,142233.27l-100,0" />
          <path d="M158396.08,142233.27l0,-360" />
          <path d="M158396.08,141873.27l100,0" />
          <path d="M158816.08,141873.27l0,-3900" />
          <path d="M158576.08,141873.27l0,-3900" />
          <path d="M155296.08,126913.27l100,0" />
          <path d="M155396.08,126913.27l0,360" />
          <path d="M155396.08,127273.27l-100,0" />
          <path d="M156896.08,127273.27l-300,0" />
          <path d="M156596.08,127273.27l0,-1.58" />
          <path d="M155216.08,133353.27l1180,0" />
          <path d="M156396.08,133353.27l0,240" />
          <path d="M156396.08,133593.27l-1300,0" />
          <path d="M158696.08,133593.27l-1300,0" />
          <path d="M157396.08,133593.27l0,-240" />
          <path d="M157396.08,133353.27l1180,0" />
          <path d="M154976.08,127273.27l0,6080" />
          <path d="M155216.08,127273.27l0,6080" />
          <use xlink:href="#$DorLib2D$00000114" x="162.3" y="132.61" transform="scale(1000,1000) rotate(90,162.3,132.61)" stroke-width="0.0001%">.</use>
          <path d="M162416.08,133353.27l1180,0" />
          <path d="M163596.08,133353.27l0,240" />
          <path d="M163596.08,133593.27l-1300,0" />
          <path d="M165896.08,133593.27l-1300,0" />
          <path d="M164596.08,133593.27l0,-240" />
          <path d="M164596.08,133353.27l1180,0" />
          <use xlink:href="#$DorLib2D$00000114" x="164.1" y="133.47" transform="scale(1000,1000) scale(1,-1) translate(0,-266.95)" stroke-width="0.0001%">.</use>
          <path d="M166016.08,133353.27l1180,0" />
          <path d="M167196.08,133353.27l0,240" />
          <path d="M167196.08,133593.27l-1300,0" />
          <path d="M169496.08,133593.27l-1300,0" />
          <path d="M168196.08,133593.27l0,-240" />
          <path d="M168196.08,133353.27l1180,0" />
          <use xlink:href="#$DorLib2D$00000114" x="167.7" y="133.47" transform="scale(1000,1000) scale(1,-1) translate(0,-266.95)" stroke-width="0.0001%">.</use>
          <use xlink:href="#$DorLib2D$00000114" x="171.3" y="133.47" transform="scale(1000,1000) scale(1,-1) translate(0,-266.95)" stroke-width="0.0001%">.</use>
          <path d="M173216.08,133353.27l1180,0" />
          <path d="M174396.08,133353.27l0,240" />
          <path d="M174396.08,133593.27l-1300,0" />
          <path d="M176696.08,133593.27l-1300,0" />
          <path d="M175396.08,133593.27l0,-240" />
          <path d="M175396.08,133353.27l1180,0" />
          <use xlink:href="#$DorLib2D$00000114" x="174.9" y="133.47" transform="scale(1000,1000) scale(1,-1) translate(0,-266.95)" stroke-width="0.0001%">.</use>
          <path d="M172976.08,127273.27l0,6080" />
          <path d="M173216.08,127273.27l0,6080" />
          <path d="M176816.08,133353.27l1180,0" />
          <path d="M177996.08,133353.27l0,240" />
          <path d="M177996.08,133593.27l-1300,0" />
          <path d="M180296.08,133593.27l-1300,0" />
          <path d="M178996.08,133593.27l0,-240" />
          <path d="M178996.08,133353.27l1180,0" />
          <use xlink:href="#$DorLib2D$00000114" x="178.5" y="133.47" transform="scale(1000,1000) scale(1,-1) translate(0,-266.95)" stroke-width="0.0001%">.</use>
          <path d="M176576.08,127273.27l0,6080" />
          <path d="M176816.08,127273.27l0,6080" />
          <path d="M180416.08,133353.27l1180,0" />
          <path d="M181596.08,133353.27l0,240" />
          <path d="M181596.08,133593.27l-1300,0" />
          <path d="M183896.08,133593.27l-1300,0" />
          <path d="M182596.08,133593.27l0,-240" />
          <path d="M182596.08,133353.27l1180,0" />
          <use xlink:href="#$DorLib2D$00000114" x="182.1" y="133.47" transform="scale(1000,1000) scale(1,-1) translate(0,-266.95)" stroke-width="0.0001%">.</use>
          <path d="M180176.08,127273.27l0,6080" />
          <path d="M180416.08,127273.27l0,6080" />
          <path d="M194816.08,133353.27l1180,0" />
          <path d="M195996.08,133353.27l0,240" />
          <path d="M195996.08,133593.27l-1300,0" />
          <path d="M198296.08,133593.27l-1300,0" />
          <path d="M196996.08,133593.27l0,-240" />
          <path d="M196996.08,133353.27l1180,0" />
          <use xlink:href="#$DorLib2D$00000114" x="196.5" y="133.47" transform="scale(1000,1000) scale(1,-1) translate(0,-266.95)" stroke-width="0.0001%">.</use>
          <use xlink:href="#$DorLib2D$00000114" x="200.1" y="133.47" transform="scale(1000,1000) scale(1,-1) translate(0,-266.95)" stroke-width="0.0001%">.</use>
          <path d="M194576.08,127273.27l0,6080" />
          <path d="M194816.08,127273.27l0,6080" />
          <path d="M201736.08,135673.27l0,-250" />
          <path d="M201736.08,135423.27l360,0" />
          <path d="M202096.08,135423.27l0,250" />
          <path d="M202096.08,133673.27l0,250" />
          <path d="M202096.08,133923.27l-360,0" />
          <path d="M201736.08,133923.27l0,-250" />
          <path d="M158496.08,141873.27l400,0" />
          <path d="M158896.08,141873.27l0,600" />
          <path d="M158896.08,142473.27l-400,0" />
          <path d="M158496.08,142473.27l0,-600" />
          <path d="M158496.08,126673.27l400,0" />
          <path d="M158896.08,126673.27l0,600" />
          <path d="M158896.08,127273.27l-400,0" />
          <path d="M158496.08,127273.27l0,-600" />
          <path d="M151296.08,126673.27l400,0" />
          <path d="M151696.08,126673.27l0,600" />
          <path d="M151696.08,127273.27l-400,0" />
          <path d="M151296.08,127273.27l0,-600" />
          <path d="M151296.08,141873.27l400,0" />
          <path d="M151696.08,141873.27l0,600" />
          <path d="M151696.08,142473.27l-400,0" />
          <path d="M151296.08,142473.27l0,-600" />
          <path d="M165696.08,141873.27l400,0" />
          <path d="M166096.08,141873.27l0,600" />
          <path d="M166096.08,142473.27l-400,0" />
          <path d="M165696.08,142473.27l0,-600" />
          <path d="M165696.08,126673.27l400,0" />
          <path d="M166096.08,126673.27l0,600" />
          <path d="M166096.08,127273.27l-400,0" />
          <path d="M165696.08,127273.27l0,-600" />
          <path d="M172896.08,126673.27l400,0" />
          <path d="M173296.08,126673.27l0,600" />
          <path d="M173296.08,127273.27l-400,0" />
          <path d="M172896.08,127273.27l0,-600" />
          <path d="M180096.08,141873.27l400,0" />
          <path d="M180496.08,141873.27l0,600" />
          <path d="M180496.08,142473.27l-400,0" />
          <path d="M180096.08,142473.27l0,-600" />
          <path d="M180096.08,126673.27l400,0" />
          <path d="M180496.08,126673.27l0,600" />
          <path d="M180496.08,127273.27l-400,0" />
          <path d="M180096.08,127273.27l0,-600" />
          <path d="M187296.08,141873.27l400,0" />
          <path d="M187696.08,141873.27l0,600" />
          <path d="M187696.08,142473.27l-400,0" />
          <path d="M187296.08,142473.27l0,-600" />
          <path d="M187296.08,126673.27l400,0" />
          <path d="M187696.08,126673.27l0,600" />
          <path d="M187696.08,127273.27l-400,0" />
          <path d="M187296.08,127273.27l0,-600" />
          <path d="M194496.08,141873.27l400,0" />
          <path d="M194896.08,141873.27l0,600" />
          <path d="M194896.08,142473.27l-400,0" />
          <path d="M194496.08,142473.27l0,-600" />
          <path d="M194496.08,126673.27l400,0" />
          <path d="M194896.08,126673.27l0,600" />
          <path d="M194896.08,127273.27l-400,0" />
          <path d="M194496.08,127273.27l0,-600" />
          <path d="M201696.08,141873.27l400,0" />
          <path d="M202096.08,141873.27l0,600" />
          <path d="M202096.08,142473.27l-400,0" />
          <path d="M201696.08,142473.27l0,-600" />
          <path d="M201696.08,126673.27l400,0" />
          <path d="M202096.08,126673.27l0,600" />
          <path d="M202096.08,127273.27l-400,0" />
          <path d="M201696.08,127273.27l0,-600" />
          <path d="M162416.08,127273.27l0,4840" />
          <path d="M162416.08,132113.27l-240,0" />
          <path d="M162176.08,132113.27l0,-4840" />
          <path d="M162176.08,133353.27l0,-240" />
          <path d="M162176.08,133113.27l240,0" />
          <path d="M162416.08,133113.27l0,240" />
          <path d="M165776.08,127273.27l0,6080" />
          <path d="M166016.08,127273.27l0,6080" />
          <path d="M162176.08,137973.27l-1247.5,0" />
          <path d="M160928.58,137973.27l0,-120" />
          <path d="M160928.58,137853.27l1247.5,0" />
          <path d="M158816.08,137853.27l1212.5,0" />
          <path d="M160028.58,137853.27l0,120" />
          <path d="M160028.58,137973.27l-1212.5,0" />
          <path d="M160028.58,137973.27l0,-120" />
          <path d="M160928.58,137853.27l0,120" />
          <path d="M158576.08,137973.27l-1212.5,0" />
          <path d="M157363.58,137973.27l0,-120" />
          <path d="M157363.58,137853.27l1212.5,0" />
          <path d="M155216.08,137853.27l1247.5,0" />
          <path d="M156463.58,137853.27l0,120" />
          <path d="M156463.58,137973.27l-1247.5,0" />
          <path d="M156463.58,137973.27l0,-120" />
          <path d="M157363.58,137853.27l0,120" />
          <use xlink:href="#$lvtry$00000201" x="158376.08" y="138423.27" transform="rotate(270,158376.08,138423.27)">.</use>
          <use xlink:href="#$lvtry$00000201" x="158376.08" y="139323.27" transform="rotate(270,158376.08,139323.27)">.</use>
          <use xlink:href="#$lvtry$00000201" x="158376.08" y="140223.27" transform="rotate(270,158376.08,140223.27)">.</use>
          <use xlink:href="#$lvtry$00000201" x="158376.08" y="141123.27" transform="rotate(270,158376.08,141123.27)">.</use>
          <path d="M158576.08,138860.77l-1187.5,0" />
          <path d="M158576.08,138885.77l-1187.5,0" />
          <path d="M158576.08,138860.77l0,25" />
          <path d="M157388.58,137973.27l0,150" />
          <path d="M157388.58,138123.27l-25,0" />
          <path d="M157363.58,138123.27l0,-150" />
          <path d="M157363.58,137973.27l25,0" />
          <path d="M157363.58,138873.27l0,-150" />
          <path d="M157363.58,138723.27l25,0" />
          <path d="M157388.58,138723.27l0,137.5" />
          <use xlink:href="#$TCHSYS$APDOOR2D" x="262.29" y="230.71" transform="scale(600,600) scale(-1,1) translate(-524.59,0) rotate(270,262.29,230.71)" stroke-width="0.0002%">.</use>
          <path d="M158576.08,139760.77l-1187.5,0" />
          <path d="M158576.08,139785.77l-1187.5,0" />
          <path d="M158576.08,139760.77l0,25" />
          <path d="M157388.58,138885.77l0,137.5" />
          <path d="M157388.58,139023.27l-25,0" />
          <path d="M157363.58,139023.27l0,-150" />
          <path d="M157363.58,139773.27l0,-150" />
          <path d="M157363.58,139623.27l25,0" />
          <path d="M157388.58,139623.27l0,137.5" />
          <use xlink:href="#$TCHSYS$APDOOR2D" x="262.29" y="232.21" transform="scale(600,600) scale(-1,1) translate(-524.59,0) rotate(270,262.29,232.21)" stroke-width="0.0002%">.</use>
          <path d="M158576.08,140660.77l-1187.5,0" />
          <path d="M158576.08,140685.77l-1187.5,0" />
          <path d="M158576.08,140660.77l0,25" />
          <path d="M157388.58,139785.77l0,137.5" />
          <path d="M157388.58,139923.27l-25,0" />
          <path d="M157363.58,139923.27l0,-150" />
          <path d="M157363.58,140673.27l0,-150" />
          <path d="M157363.58,140523.27l25,0" />
          <path d="M157388.58,140523.27l0,137.5" />
          <use xlink:href="#$TCHSYS$APDOOR2D" x="262.29" y="233.71" transform="scale(600,600) scale(-1,1) translate(-524.59,0) rotate(270,262.29,233.71)" stroke-width="0.0002%">.</use>
          <path d="M158576.08,141560.77l-1187.5,0" />
          <path d="M158576.08,141585.77l-1212.5,0" />
          <path d="M158576.08,141560.77l0,25" />
          <path d="M157388.58,140685.77l0,137.5" />
          <path d="M157388.58,140823.27l-25,0" />
          <path d="M157363.58,140823.27l0,-150" />
          <path d="M157363.58,141585.77l0,-162.5" />
          <path d="M157363.58,141423.27l25,0" />
          <path d="M157388.58,141423.27l0,137.5" />
          <use xlink:href="#$TCHSYS$APDOOR2D" x="262.29" y="235.21" transform="scale(600,600) scale(-1,1) translate(-524.59,0) rotate(270,262.29,235.21)" stroke-width="0.0002%">.</use>
          <use xlink:href="#$lvtry$00000201" x="159016.08" y="138423.27" transform="scale(1,-1) translate(0,-276846.53) rotate(90,159016.08,138423.27)">.</use>
          <use xlink:href="#$lvtry$00000201" x="159016.08" y="139323.27" transform="scale(1,-1) translate(0,-278646.53) rotate(90,159016.08,139323.27)">.</use>
          <use xlink:href="#$lvtry$00000201" x="159016.08" y="140223.27" transform="scale(1,-1) translate(0,-280446.53) rotate(90,159016.08,140223.27)">.</use>
          <use xlink:href="#$lvtry$00000201" x="159016.08" y="141123.27" transform="scale(1,-1) translate(0,-282246.53) rotate(90,159016.08,141123.27)">.</use>
          <path d="M158816.08,138885.77l1187.5,0" />
          <path d="M158816.08,138860.77l1187.5,0" />
          <path d="M158816.08,138885.77l0,-25" />
          <path d="M160028.58,137973.27l0,150" />
          <path d="M160028.58,138123.27l-25,0" />
          <path d="M160003.58,138123.27l0,-150" />
          <path d="M160003.58,137973.27l25,0" />
          <path d="M160003.58,138860.77l0,-137.5" />
          <path d="M160003.58,138723.27l25,0" />
          <path d="M160028.58,138723.27l0,150" />
          <use xlink:href="#$TCHSYS$APDOOR2D" x="266.69" y="230.71" transform="scale(600,600) scale(-1,-1) translate(-533.39,-461.41) rotate(90,266.69,230.71)" stroke-width="0.0002%">.</use>
          <path d="M158816.08,139785.77l1187.5,0" />
          <path d="M158816.08,139760.77l1187.5,0" />
          <path d="M158816.08,139785.77l0,-25" />
          <path d="M160028.58,138873.27l0,150" />
          <path d="M160028.58,139023.27l-25,0" />
          <path d="M160003.58,139023.27l0,-137.5" />
          <path d="M160003.58,139760.77l0,-137.5" />
          <path d="M160003.58,139623.27l25,0" />
          <path d="M160028.58,139623.27l0,150" />
          <use xlink:href="#$TCHSYS$APDOOR2D" x="266.69" y="232.21" transform="scale(600,600) scale(-1,-1) translate(-533.39,-464.41) rotate(90,266.69,232.21)" stroke-width="0.0002%">.</use>
          <path d="M158816.08,140685.77l1187.5,0" />
          <path d="M158816.08,140660.77l1187.5,0" />
          <path d="M158816.08,140685.77l0,-25" />
          <path d="M160028.58,139773.27l0,150" />
          <path d="M160028.58,139923.27l-25,0" />
          <path d="M160003.58,139923.27l0,-137.5" />
          <path d="M160003.58,140660.77l0,-137.5" />
          <path d="M160003.58,140523.27l25,0" />
          <path d="M160028.58,140523.27l0,150" />
          <use xlink:href="#$TCHSYS$APDOOR2D" x="266.69" y="233.71" transform="scale(600,600) scale(-1,-1) translate(-533.39,-467.41) rotate(90,266.69,233.71)" stroke-width="0.0002%">.</use>
          <path d="M158816.08,141585.77l1212.5,0" />
          <path d="M158816.08,141560.77l1187.5,0" />
          <path d="M158816.08,141585.77l0,-25" />
          <path d="M160028.58,140673.27l0,150" />
          <path d="M160028.58,140823.27l-25,0" />
          <path d="M160003.58,140823.27l0,-137.5" />
          <path d="M160003.58,141560.77l0,-137.5" />
          <path d="M160003.58,141423.27l25,0" />
          <path d="M160028.58,141423.27l0,162.5" />
          <use xlink:href="#$TCHSYS$APDOOR2D" x="266.69" y="235.21" transform="scale(600,600) scale(-1,-1) translate(-533.39,-470.41) rotate(90,266.69,235.21)" stroke-width="0.0002%">.</use>
          <path d="M162416.08,137853.27l0,-1860" />
          <path d="M162176.08,137853.27l0,-1860" />
          <path d="M158816.08,137853.27l0,-1860" />
          <path d="M158576.08,137853.27l0,-1860" />
          <path d="M155216.08,137853.27l0,-1860" />
          <path d="M154976.08,137853.27l0,-2100" />
          <use xlink:href="#$lvtry$00000191" x="155216.08" y="137553.27" transform="rotate(90,155216.08,137553.27)">.</use>
          <use xlink:href="#$lvtry$00000191" x="155216.08" y="137553.27" transform="rotate(90,155216.08,137553.27)">.</use>
          <use xlink:href="#$lvtry$00000191" x="162176.08" y="137553.27" transform="rotate(270,162176.08,137553.27)">.</use>
          <use xlink:href="#$lvtry$00000194" x="158917.74" y="136543.27" transform="rotate(90,158917.74,136543.27)">.</use>
          <use xlink:href="#$lvtry$00000194" x="158917.74" y="137243.27" transform="rotate(90,158917.74,137243.27)">.</use>
          <use xlink:href="#$lvtry$00000194" x="158474.42" y="136543.27" transform="scale(1,-1) translate(0,-273086.53) rotate(270,158474.42,136543.27)">.</use>
          <use xlink:href="#$lvtry$00000194" x="158474.42" y="137243.27" transform="scale(1,-1) translate(0,-274486.53) rotate(270,158474.42,137243.27)">.</use>
          <path d="M152456.08,137123.27l0,3950l1720,0l0,-3350l0,-300" />
          <path d="M154976.08,137273.27l0,3000" />
          <path d="M153436.08,137573.27l1540,0" />
          <path d="M153436.08,137873.27l1540,0" />
          <path d="M153436.08,138173.27l1540,0" />
          <path d="M153436.08,138473.27l1540,0" />
          <path d="M153436.08,138773.27l1540,0" />
          <path d="M153436.08,139073.27l1540,0" />
          <path d="M153436.08,139373.27l1540,0" />
          <path d="M153436.08,139673.27l1540,0" />
          <path d="M153436.08,139973.27l1540,0" />
          <path d="M153436.08,140273.27l1540,0" />
          <path d="M153376.08,137273.27l0,3000" />
          <path d="M153436.08,137273.27l1540,0" />
          <path d="M153376.08,137273.27l60,0" />
          <path d="M151656.08,140273.27l0,-3000" />
          <path d="M153196.08,140273.27l-1540,0" />
          <path d="M153196.08,139973.27l-1540,0" />
          <path d="M153196.08,139673.27l-1540,0" />
          <path d="M153196.08,139373.27l-1540,0" />
          <path d="M153196.08,139073.27l-1540,0" />
          <path d="M153196.08,138773.27l-1540,0" />
          <path d="M153196.08,138473.27l-1540,0" />
          <path d="M153196.08,138173.27l-1540,0" />
          <path d="M153196.08,137873.27l-1540,0" />
          <path d="M153196.08,137573.27l-1540,0" />
          <path d="M153196.08,137273.27l-1540,0" />
          <path d="M153256.08,140273.27l0,-3000" />
          <path d="M153376.08,137273.27l0,3000" />
          <path d="M153376.08,140273.27l-120,0" />
          <path d="M153256.08,140273.27l0,-3000" />
          <path d="M153256.08,137273.27l1720,0" />
          <path d="M153436.08,137273.27l0,3060" />
          <path d="M153436.08,140333.27l-240,0" />
          <path d="M153196.08,140333.27l0,-3120" />
          <path d="M153196.08,137213.27l1780,0" />
          <path d="M153376.08,137273.27l60,0" />
          <path d="M154976.08,137273.27l0,-60" />
          <path d="M154976.08,140273.27l0,1600" />
          <path d="M154896.08,141873.27l-1300,0" />
          <path d="M152996.08,141873.27l-1300,0" />
          <path d="M151656.08,141873.27l0,-1600" />
          <path d="M151656.08,140273.27l1540,0" />
          <path d="M153436.08,140273.27l1540,0" />
          <path d="M153256.08,140273.27l120,0" />
          <path d="M153376.08,137273.27l-120,0" />
          <path d="M199216.08,137123.27l0,1650l0,300" />
          <path d="M200936.08,137123.27l0,3950l-1720,0l0,-1400l0,-300" />
          <path d="M198416.08,137273.27l0,1430.38" />
          <path d="M198416.08,138819.12l0,1454.15" />
          <path d="M198416.08,137273.27l1540,0" />
          <path d="M198416.08,137573.27l1540,0" />
          <path d="M198416.08,137873.27l1540,0" />
          <path d="M198416.08,138173.27l1540,0" />
          <path d="M198416.08,138473.27l1540,0" />
          <path d="M198536.65,138773.27l1419.42,0" />
          <path d="M198416.08,139073.27l440.19,0" />
          <path d="M199056.27,139073.27l899.81,0" />
          <path d="M198416.08,139373.27l959.81,0" />
          <path d="M199575.88,139373.27l380.19,0" />
          <path d="M198416.08,139673.27l1479.42,0" />
          <path d="M198416.08,139973.27l1540,0" />
          <path d="M198416.08,140273.27l1540,0" />
          <path d="M200016.08,137273.27l0,2354.15" />
          <path d="M200016.08,139742.88l0,530.38" />
          <path d="M198416.08,138819.12l708.8,409.23" />
          <path d="M198416.08,138703.65l735.6,424.7" />
          <path d="M199151.67,139128.35l-46.18,172.35" />
          <path d="M199105.49,139300.7l206.04,-172.89" />
          <path d="M199311.54,139127.81l-48.34,180.4" />
          <path d="M199263.2,139308.21l752.88,434.67" />
          <path d="M199289.99,139208.21l726.08,419.2" />
          <path d="M201736.08,140273.27l0,-3000" />
          <path d="M201736.08,140273.27l-1540,0" />
          <path d="M201736.08,139973.27l-1540,0" />
          <path d="M201736.08,139673.27l-1540,0" />
          <path d="M201736.08,139373.27l-1540,0" />
          <path d="M201736.08,139073.27l-1540,0" />
          <path d="M201736.08,138773.27l-1540,0" />
          <path d="M201736.08,138473.27l-1540,0" />
          <path d="M201736.08,138173.27l-1540,0" />
          <path d="M201736.08,137873.27l-1540,0" />
          <path d="M201736.08,137573.27l-1540,0" />
          <path d="M201736.08,137273.27l-1540,0" />
          <path d="M200136.08,140273.27l0,-3000" />
          <path d="M200196.08,137213.27l-240,0" />
          <path d="M199956.08,137213.27l0,2379.5" />
          <path d="M199956.08,139708.24l0,625.03" />
          <path d="M199956.08,140333.27l240,0" />
          <path d="M200196.08,140333.27l0,-3120" />
          <path d="M200136.08,137273.27l-120,0" />
          <path d="M200016.08,137273.27l0,2354.15" />
          <path d="M200016.08,139742.88l0,530.38" />
          <path d="M200016.08,140273.27l120,0" />
          <path d="M200136.08,140273.27l0,-3000" />
          <path d="M201736.08,140273.27l0,1600" />
          <path d="M201736.08,141873.27l-1340,0" />
          <path d="M199796.08,141873.27l-1300,0" />
          <path d="M198416.08,141873.27l0,-1600" />
          <path d="M198416.08,140273.27l1540,0" />
          <path d="M200196.08,140273.27l1540,0" />
          <path d="M200016.08,140273.27l120,0" />
          <path d="M200016.08,137273.27l120,0" />
          <path d="M198096.08,141873.27l400,0" />
          <path d="M198496.08,141873.27l0,600" />
          <path d="M198496.08,142473.27l-400,0" />
          <path d="M198096.08,142473.27l0,-600" />
          <path d="M190896.08,141873.27l400,0" />
          <path d="M191296.08,141873.27l0,600" />
          <path d="M191296.08,142473.27l-400,0" />
          <path d="M190896.08,142473.27l0,-600" />
          <path d="M183696.08,141873.27l400,0" />
          <path d="M184096.08,141873.27l0,600" />
          <path d="M184096.08,142473.27l-400,0" />
          <path d="M183696.08,142473.27l0,-600" />
          <path d="M169296.08,141873.27l400,0" />
          <path d="M169696.08,141873.27l0,600" />
          <path d="M169696.08,142473.27l-400,0" />
          <path d="M169296.08,142473.27l0,-600" />
          <path d="M154896.08,141873.27l400,0" />
          <path d="M155296.08,141873.27l0,600" />
          <path d="M155296.08,142473.27l-400,0" />
          <path d="M154896.08,142473.27l0,-600" />
          <path d="M162096.08,141873.27l400,0" />
          <path d="M162496.08,141873.27l0,600" />
          <path d="M162496.08,142473.27l-400,0" />
          <path d="M162096.08,142473.27l0,-600" />
          <path d="M198096.08,126673.27l400,0" />
          <path d="M198496.08,126673.27l0,600" />
          <path d="M198496.08,127273.27l-400,0" />
          <path d="M198096.08,127273.27l0,-600" />
          <path d="M190896.08,126673.27l400,0" />
          <path d="M191296.08,126673.27l0,600" />
          <path d="M191296.08,127273.27l-400,0" />
          <path d="M190896.08,127273.27l0,-600" />
          <path d="M183696.08,126673.27l400,0" />
          <path d="M184096.08,126673.27l0,600" />
          <path d="M184096.08,127273.27l-400,0" />
          <path d="M183696.08,127273.27l0,-600" />
          <path d="M176496.08,126673.27l400,0" />
          <path d="M176896.08,126673.27l0,600" />
          <path d="M176896.08,127273.27l-400,0" />
          <path d="M176496.08,127273.27l0,-600" />
          <path d="M169296.08,126673.27l400,0" />
          <path d="M169696.08,126673.27l0,600" />
          <path d="M169696.08,127273.27l-400,0" />
          <path d="M169296.08,127273.27l0,-600" />
          <path d="M162096.08,126673.27l400,0" />
          <path d="M162496.08,126673.27l0,600" />
          <path d="M162496.08,127273.27l-400,0" />
          <path d="M162096.08,127273.27l0,-600" />
          <path d="M154896.08,126673.27l400,0" />
          <path d="M155296.08,126673.27l0,600" />
          <path d="M155296.08,127273.27l-400,0" />
          <path d="M154896.08,127273.27l0,-600" />
          <path d="M158576.08,127273.27l0,6080" />
          <path d="M158816.08,127273.27l0,6080" />
          <path d="M158696.08,133593.27l3600,0" />
          <path d="M158816.08,133353.27l3360,0" />
          <path d="M169376.08,127273.27l0,6080" />
          <path d="M169616.08,127273.27l0,6080" />
          <path d="M169616.08,133353.27l1180,0" />
          <path d="M170796.08,133353.27l0,240" />
          <path d="M170796.08,133593.27l-1300,0" />
          <path d="M173096.08,133593.27l-1300,0" />
          <path d="M171796.08,133593.27l0,-240" />
          <path d="M171796.08,133353.27l1180,0" />
          <path d="M198176.08,127273.27l0,6080" />
          <path d="M198416.08,127273.27l0,6080" />
          <path d="M190976.08,127273.27l0,6080" />
          <path d="M191216.08,127273.27l0,6080" />
          <path d="M187376.08,127273.27l0,6080" />
          <path d="M187616.08,127273.27l0,6080" />
          <path d="M183776.08,127273.27l0,6080" />
          <path d="M184016.08,127273.27l0,6080" />
          <path d="M198416.08,133353.27l1180,0" />
          <path d="M199596.08,133353.27l0,240" />
          <path d="M199596.08,133593.27l-1300,0" />
          <path d="M201736.08,133593.27l-1140,0" />
          <path d="M200596.08,133593.27l0,-240" />
          <path d="M200596.08,133353.27l1140,0" />
          <path d="M191216.08,133353.27l1180,0" />
          <path d="M192396.08,133353.27l0,240" />
          <path d="M192396.08,133593.27l-1300,0" />
          <path d="M194696.08,133593.27l-1300,0" />
          <path d="M193396.08,133593.27l0,-240" />
          <path d="M193396.08,133353.27l1180,0" />
          <use xlink:href="#$DorLib2D$00000114" x="192.9" y="133.47" transform="scale(1000,1000) scale(1,-1) translate(0,-266.95)" stroke-width="0.0001%">.</use>
          <path d="M187616.08,133353.27l1180,0" />
          <path d="M188796.08,133353.27l0,240" />
          <path d="M188796.08,133593.27l-1300,0" />
          <path d="M191096.08,133593.27l-1300,0" />
          <path d="M189796.08,133593.27l0,-240" />
          <path d="M189796.08,133353.27l1180,0" />
          <use xlink:href="#$DorLib2D$00000114" x="189.3" y="133.47" transform="scale(1000,1000) scale(1,-1) translate(0,-266.95)" stroke-width="0.0001%">.</use>
          <path d="M184016.08,133353.27l1180,0" />
          <path d="M185196.08,133353.27l0,240" />
          <path d="M185196.08,133593.27l-1300,0" />
          <path d="M187496.08,133593.27l-1300,0" />
          <path d="M186196.08,133593.27l0,-240" />
          <path d="M186196.08,133353.27l1180,0" />
          <use xlink:href="#$DorLib2D$00000114" x="185.7" y="133.47" transform="scale(1000,1000) scale(1,-1) translate(0,-266.95)" stroke-width="0.0001%">.</use>
          <path d="M198416.08,135753.27l0,240" />
          <path d="M198176.08,135993.27l0,-240" />
          <path d="M155216.08,135993.27l-240,0" />
          <path d="M154976.08,135993.27l0,-240" />
          <path d="M154976.08,135753.27l240,0" />
          <path d="M155216.08,135753.27l0,240" />
          <path d="M151656.08,135673.27l0,400" />
          <path d="M151656.08,136073.27l-360,0" />
          <path d="M151296.08,136073.27l0,-400" />
          <path d="M151296.08,135673.27l360,0" />
          <path d="M151656.08,133273.27l0,400" />
          <path d="M151656.08,133673.27l-360,0" />
          <path d="M151296.08,133673.27l0,-400" />
          <path d="M151296.08,133273.27l360,0" />
          <path d="M151296.08,136073.27l0,5800" />
          <path d="M151656.08,136073.27l0,5800" />
          <path d="M202096.08,135673.27l0,400" />
          <path d="M202096.08,136073.27l-360,0" />
          <path d="M201736.08,136073.27l0,-400" />
          <path d="M201736.08,135673.27l360,0" />
          <path d="M202096.08,133273.27l0,400" />
          <path d="M202096.08,133673.27l-360,0" />
          <path d="M201736.08,133673.27l0,-400" />
          <path d="M201736.08,133273.27l360,0" />
          <path d="M151296.08,135423.27l-600,0" />
          <path d="M151296.08,135543.27l-480,0" />
          <path d="M151296.08,135423.27l0,120" />
          <path d="M150696.08,135423.27l0,650" />
          <path d="M150816.08,135543.27l0,410" />
          <path d="M150696.08,136073.27l600,0" />
          <path d="M150816.08,135953.27l480,0" />
          <path d="M151296.08,133273.27l-600,0" />
          <path d="M151296.08,133393.27l-480,0" />
          <path d="M150696.08,133273.27l0,650" />
          <path d="M150816.08,133393.27l0,410" />
          <path d="M150696.08,133923.27l600,0" />
          <path d="M150816.08,133803.27l480,0" />
          <path d="M151296.08,133923.27l0,-120" />
          <use xlink:href="#$WINLIB2D$00000001_1500x360" x="201916.08" y="134673.27" transform="scale(-1,1) translate(-403832.15,0) rotate(90,201916.08,134673.27)">.</use>
          <path d="M154796.08,126913.27l0,-240" />
          <path d="M154796.08,126673.27l100,0" />
          <path d="M155296.08,126673.27l100,0" />
          <path d="M155396.08,126673.27l0,240" />
          <path d="M152996.08,126671.69l600,0" />
          <path d="M153596.08,126671.69l0,600" />
          <path d="M153596.08,127271.69l-600,0" />
          <path d="M152996.08,127271.69l0,-600" />
          <use xlink:href="#$WINLIB2D$00000001_1200x360" x="154196.08" y="127093.27">.</use>
          <path d="M153596.08,127271.69l0,1.58" />
          <path d="M153596.08,127273.27l-300,0" />
          <path d="M154896.08,127273.27l-100,0" />
          <path d="M154796.08,127273.27l0,-360" />
          <path d="M154796.08,126913.27l100,0" />
          <use xlink:href="#$WINLIB2D$00000001_1100x360" x="152446.08" y="127093.27">.</use>
          <path d="M151696.08,126673.27l200,0" />
          <path d="M151896.08,126673.27l0,240" />
          <path d="M158396.08,126913.27l0,-240" />
          <path d="M158396.08,126673.27l100,0" />
          <path d="M151896.08,142233.27l0,240" />
          <path d="M151896.08,142473.27l-200,0" />
          <path d="M154896.08,142473.27l-100,0" />
          <path d="M154796.08,142473.27l0,-240" />
          <path d="M152996.08,141873.27l600,0" />
          <path d="M153596.08,141873.27l0,600" />
          <path d="M153596.08,142473.27l-600,0" />
          <path d="M152996.08,142473.27l0,-600" />
          <use xlink:href="#$WINLIB2D$00000001_1200x360" x="154196.08" y="142053.27" transform="scale(-1,1) translate(-308392.15,0) rotate(180,154196.08,142053.27)">.</use>
          <use xlink:href="#$WINLIB2D$00000001_1100x360" x="152446.08" y="142053.27" transform="scale(-1,-1) translate(-304892.15,-284106.53) rotate(180,152446.08,142053.27)">.</use>
          <path d="M151696.08,141873.27l200,0" />
          <path d="M151896.08,141873.27l0,360" />
          <path d="M151896.08,142233.27l-200,0" />
          <path d="M155396.08,142233.27l0,240" />
          <path d="M155396.08,142473.27l-100,0" />
          <path d="M158496.08,142473.27l-100,0" />
          <path d="M158396.08,142473.27l0,-240" />
          <use xlink:href="#$WINLIB2D$00000001_1200x360" x="157796.08" y="142053.27" transform="rotate(180,157796.08,142053.27)">.</use>
          <use xlink:href="#$WINLIB2D$00000001_1200x360" x="155996.08" y="142053.27" transform="rotate(180,155996.08,142053.27)">.</use>
          <path d="M156596.08,141873.27l600,0" />
          <path d="M157196.08,141873.27l0,600" />
          <path d="M157196.08,142473.27l-600,0" />
          <path d="M156596.08,142473.27l0,-600" />
          <path d="M155296.08,141873.27l100,0" />
          <path d="M155396.08,141873.27l0,360" />
          <path d="M155396.08,142233.27l-100,0" />
          <path d="M162096.08,142233.27l-100,0" />
          <path d="M161996.08,142233.27l0,-360" />
          <path d="M161996.08,141873.27l100,0" />
          <use xlink:href="#$WINLIB2D$00000001_1200x360" x="161396.08" y="142053.27" transform="rotate(180,161396.08,142053.27)">.</use>
          <path d="M158996.08,142233.27l0,240" />
          <path d="M158996.08,142473.27l-100,0" />
          <path d="M162096.08,142473.27l-100,0" />
          <path d="M161996.08,142473.27l0,-240" />
          <use xlink:href="#$WINLIB2D$00000001_1200x360" x="159596.08" y="142053.27" transform="rotate(180,159596.08,142053.27)">.</use>
          <path d="M160196.08,141873.27l600,0" />
          <path d="M160796.08,141873.27l0,600" />
          <path d="M160796.08,142473.27l-600,0" />
          <path d="M160196.08,142473.27l0,-600" />
          <path d="M158896.08,141873.27l100,0" />
          <path d="M158996.08,141873.27l0,360" />
          <path d="M158996.08,142233.27l-100,0" />
          <path d="M165696.08,142233.27l-100,0" />
          <path d="M165596.08,142233.27l0,-360" />
          <path d="M165596.08,141873.27l100,0" />
          <use xlink:href="#$WINLIB2D$00000001_1200x360" x="164996.08" y="142053.27" transform="rotate(180,164996.08,142053.27)">.</use>
          <path d="M162596.08,142233.27l0,240" />
          <path d="M162596.08,142473.27l-100,0" />
          <path d="M165696.08,142473.27l-100,0" />
          <path d="M165596.08,142473.27l0,-240" />
          <use xlink:href="#$WINLIB2D$00000001_1200x360" x="163196.08" y="142053.27" transform="rotate(180,163196.08,142053.27)">.</use>
          <path d="M163796.08,141873.27l600,0" />
          <path d="M164396.08,141873.27l0,600" />
          <path d="M164396.08,142473.27l-600,0" />
          <path d="M163796.08,142473.27l0,-600" />
          <path d="M162496.08,141873.27l100,0" />
          <path d="M162596.08,141873.27l0,360" />
          <path d="M162596.08,142233.27l-100,0" />
          <path d="M169296.08,142233.27l-100,0" />
          <path d="M169196.08,142233.27l0,-360" />
          <path d="M169196.08,141873.27l100,0" />
          <use xlink:href="#$WINLIB2D$00000001_1200x360" x="168596.08" y="142053.27" transform="rotate(180,168596.08,142053.27)">.</use>
          <path d="M166196.08,142233.27l0,240" />
          <path d="M166196.08,142473.27l-100,0" />
          <path d="M169296.08,142473.27l-100,0" />
          <path d="M169196.08,142473.27l0,-240" />
          <use xlink:href="#$WINLIB2D$00000001_1200x360" x="166796.08" y="142053.27" transform="rotate(180,166796.08,142053.27)">.</use>
          <path d="M167396.08,141873.27l600,0" />
          <path d="M167996.08,141873.27l0,600" />
          <path d="M167996.08,142473.27l-600,0" />
          <path d="M167396.08,142473.27l0,-600" />
          <path d="M166096.08,141873.27l100,0" />
          <path d="M166196.08,141873.27l0,360" />
          <path d="M166196.08,142233.27l-100,0" />
          <use xlink:href="#$WINLIB2D$00000001_1200x360" x="172196.08" y="142053.27" transform="rotate(180,172196.08,142053.27)">.</use>
          <path d="M169796.08,142233.27l0,240" />
          <path d="M169796.08,142473.27l-100,0" />
          <path d="M172896.08,142473.27l-100,0" />
          <path d="M172796.08,142473.27l0,-240" />
          <use xlink:href="#$WINLIB2D$00000001_1200x360" x="170396.08" y="142053.27" transform="rotate(180,170396.08,142053.27)">.</use>
          <path d="M170996.08,141873.27l600,0" />
          <path d="M171596.08,141873.27l0,600" />
          <path d="M171596.08,142473.27l-600,0" />
          <path d="M170996.08,142473.27l0,-600" />
          <path d="M169696.08,141873.27l100,0" />
          <path d="M169796.08,141873.27l0,360" />
          <path d="M169796.08,142233.27l-100,0" />
          <use xlink:href="#$WINLIB2D$00000001_1200x360" x="175796.08" y="142053.27" transform="rotate(180,175796.08,142053.27)">.</use>
          <path d="M173396.08,142233.27l0,240" />
          <path d="M173396.08,142473.27l-100,0" />
          <path d="M176496.08,142473.27l-100,0" />
          <path d="M176396.08,142473.27l0,-240" />
          <use xlink:href="#$WINLIB2D$00000001_1200x360" x="173996.08" y="142053.27" transform="rotate(180,173996.08,142053.27)">.</use>
          <path d="M174596.08,141873.27l600,0" />
          <path d="M175196.08,141873.27l0,600" />
          <path d="M175196.08,142473.27l-600,0" />
          <path d="M174596.08,142473.27l0,-600" />
          <path d="M173296.08,141873.27l100,0" />
          <path d="M173396.08,141873.27l0,360" />
          <path d="M173396.08,142233.27l-100,0" />
          <path d="M180096.08,142233.27l-100,0" />
          <path d="M179996.08,142233.27l0,-360" />
          <path d="M179996.08,141873.27l100,0" />
          <use xlink:href="#$WINLIB2D$00000001_1200x360" x="179396.08" y="142053.27" transform="rotate(180,179396.08,142053.27)">.</use>
          <path d="M176996.08,142233.27l0,240" />
          <path d="M176996.08,142473.27l-100,0" />
          <path d="M180096.08,142473.27l-100,0" />
          <path d="M179996.08,142473.27l0,-240" />
          <use xlink:href="#$WINLIB2D$00000001_1200x360" x="177596.08" y="142053.27" transform="rotate(180,177596.08,142053.27)">.</use>
          <path d="M178196.08,141873.27l600,0" />
          <path d="M178796.08,141873.27l0,600" />
          <path d="M178796.08,142473.27l-600,0" />
          <path d="M178196.08,142473.27l0,-600" />
          <path d="M176896.08,141873.27l100,0" />
          <path d="M176996.08,141873.27l0,360" />
          <path d="M176996.08,142233.27l-100,0" />
          <path d="M183696.08,142233.27l-100,0" />
          <path d="M183596.08,142233.27l0,-360" />
          <path d="M183596.08,141873.27l100,0" />
          <use xlink:href="#$WINLIB2D$00000001_1200x360" x="182996.08" y="142053.27" transform="rotate(180,182996.08,142053.27)">.</use>
          <path d="M180596.08,142233.27l0,240" />
          <path d="M180596.08,142473.27l-100,0" />
          <path d="M183696.08,142473.27l-100,0" />
          <path d="M183596.08,142473.27l0,-240" />
          <use xlink:href="#$WINLIB2D$00000001_1200x360" x="181196.08" y="142053.27" transform="rotate(180,181196.08,142053.27)">.</use>
          <path d="M181796.08,141873.27l600,0" />
          <path d="M182396.08,141873.27l0,600" />
          <path d="M182396.08,142473.27l-600,0" />
          <path d="M181796.08,142473.27l0,-600" />
          <path d="M180496.08,141873.27l100,0" />
          <path d="M180596.08,141873.27l0,360" />
          <path d="M180596.08,142233.27l-100,0" />
          <path d="M187296.08,142233.27l-100,0" />
          <path d="M187196.08,142233.27l0,-360" />
          <path d="M187196.08,141873.27l100,0" />
          <use xlink:href="#$WINLIB2D$00000001_1200x360" x="186596.08" y="142053.27" transform="rotate(180,186596.08,142053.27)">.</use>
          <path d="M184196.08,142233.27l0,240" />
          <path d="M184196.08,142473.27l-100,0" />
          <path d="M187296.08,142473.27l-100,0" />
          <path d="M187196.08,142473.27l0,-240" />
          <use xlink:href="#$WINLIB2D$00000001_1200x360" x="184796.08" y="142053.27" transform="rotate(180,184796.08,142053.27)">.</use>
          <path d="M185396.08,141873.27l600,0" />
          <path d="M185996.08,141873.27l0,600" />
          <path d="M185996.08,142473.27l-600,0" />
          <path d="M185396.08,142473.27l0,-600" />
          <path d="M184096.08,141873.27l100,0" />
          <path d="M184196.08,141873.27l0,360" />
          <path d="M184196.08,142233.27l-100,0" />
          <path d="M190896.08,142233.27l-100,0" />
          <path d="M190796.08,142233.27l0,-360" />
          <path d="M190796.08,141873.27l100,0" />
          <use xlink:href="#$WINLIB2D$00000001_1200x360" x="190196.08" y="142053.27" transform="rotate(180,190196.08,142053.27)">.</use>
          <path d="M187796.08,142233.27l0,240" />
          <path d="M187796.08,142473.27l-100,0" />
          <path d="M190896.08,142473.27l-100,0" />
          <path d="M190796.08,142473.27l0,-240" />
          <use xlink:href="#$WINLIB2D$00000001_1200x360" x="188396.08" y="142053.27" transform="rotate(180,188396.08,142053.27)">.</use>
          <path d="M188996.08,141873.27l600,0" />
          <path d="M189596.08,141873.27l0,600" />
          <path d="M189596.08,142473.27l-600,0" />
          <path d="M188996.08,142473.27l0,-600" />
          <path d="M187696.08,141873.27l100,0" />
          <path d="M187796.08,141873.27l0,360" />
          <path d="M187796.08,142233.27l-100,0" />
          <path d="M194496.08,142233.27l-100,0" />
          <path d="M194396.08,142233.27l0,-360" />
          <path d="M194396.08,141873.27l100,0" />
          <use xlink:href="#$WINLIB2D$00000001_1200x360" x="193796.08" y="142053.27" transform="rotate(180,193796.08,142053.27)">.</use>
          <path d="M191396.08,142233.27l0,240" />
          <path d="M191396.08,142473.27l-100,0" />
          <path d="M194496.08,142473.27l-100,0" />
          <path d="M194396.08,142473.27l0,-240" />
          <use xlink:href="#$WINLIB2D$00000001_1200x360" x="191996.08" y="142053.27" transform="rotate(180,191996.08,142053.27)">.</use>
          <path d="M192596.08,141873.27l600,0" />
          <path d="M193196.08,141873.27l0,600" />
          <path d="M193196.08,142473.27l-600,0" />
          <path d="M192596.08,142473.27l0,-600" />
          <path d="M191296.08,141873.27l100,0" />
          <path d="M191396.08,141873.27l0,360" />
          <path d="M191396.08,142233.27l-100,0" />
          <path d="M198096.08,142233.27l-100,0" />
          <path d="M197996.08,142233.27l0,-360" />
          <path d="M197996.08,141873.27l100,0" />
          <use xlink:href="#$WINLIB2D$00000001_1200x360" x="197396.08" y="142053.27" transform="rotate(180,197396.08,142053.27)">.</use>
          <path d="M194996.08,142233.27l0,240" />
          <path d="M194996.08,142473.27l-100,0" />
          <path d="M198096.08,142473.27l-100,0" />
          <path d="M197996.08,142473.27l0,-240" />
          <use xlink:href="#$WINLIB2D$00000001_1200x360" x="195596.08" y="142053.27" transform="rotate(180,195596.08,142053.27)">.</use>
          <path d="M196196.08,141873.27l600,0" />
          <path d="M196796.08,141873.27l0,600" />
          <path d="M196796.08,142473.27l-600,0" />
          <path d="M196196.08,142473.27l0,-600" />
          <path d="M194896.08,141873.27l100,0" />
          <path d="M194996.08,141873.27l0,360" />
          <path d="M194996.08,142233.27l-100,0" />
          <path d="M176496.08,141873.27l400,0" />
          <path d="M176896.08,141873.27l0,600" />
          <path d="M176896.08,142473.27l-400,0" />
          <path d="M176496.08,142473.27l0,-600" />
          <path d="M172896.08,141873.27l400,0" />
          <path d="M173296.08,141873.27l0,600" />
          <path d="M173296.08,142473.27l-400,0" />
          <path d="M172896.08,142473.27l0,-600" />
          <path d="M176496.08,142233.27l-100,0" />
          <path d="M176396.08,142233.27l0,-360" />
          <path d="M176396.08,141873.27l100,0" />
          <path d="M172896.08,142233.27l-100,0" />
          <path d="M172796.08,142233.27l0,-360" />
          <path d="M172796.08,141873.27l100,0" />
          <path d="M198496.08,141873.27l100,0" />
          <path d="M198596.08,141873.27l0,360" />
          <path d="M198596.08,142233.27l-100,0" />
          <use xlink:href="#$WINLIB2D$00000001_1200x360" x="199196.08" y="142053.27" transform="scale(-1,-1) translate(-398392.15,-284106.53)">.</use>
          <path d="M201696.08,142473.27l-200,0" />
          <path d="M201496.08,142473.27l0,-240" />
          <path d="M198596.08,142233.27l0,240" />
          <path d="M198596.08,142473.27l-100,0" />
          <path d="M200396.08,141873.27l0,600" />
          <path d="M200396.08,142473.27l-600,0" />
          <path d="M199796.08,142473.27l0,-600" />
          <path d="M199796.08,141873.27l600,0" />
          <use xlink:href="#$WINLIB2D$00000001_1100x360" x="200946.08" y="142053.27" transform="scale(-1,1) translate(-401892.15,0)">.</use>
          <path d="M201696.08,142233.27l-200,0" />
          <path d="M201496.08,142233.27l0,-360" />
          <path d="M201496.08,141873.27l200,0" />
          <use xlink:href="#$WINLIB2D$00000001_1200x360" x="155996.08" y="127093.27">.</use>
          <use xlink:href="#$WINLIB2D$00000001_1200x360" x="157796.08" y="127093.27">.</use>
          <path d="M156596.08,126671.69l600,0" />
          <path d="M157196.08,126671.69l0,600" />
          <path d="M157196.08,127271.69l-600,0" />
          <path d="M156596.08,127271.69l0,-600" />
          <path d="M157196.08,127271.69l0,1.58" />
          <path d="M157196.08,127273.27l-300,0" />
          <path d="M158496.08,127273.27l-100,0" />
          <path d="M158396.08,127273.27l0,-360" />
          <path d="M158396.08,126913.27l100,0" />
          <path d="M201696.08,127273.27l-200,0" />
          <path d="M201496.08,127273.27l0,-360" />
          <path d="M201496.08,126913.27l200,0" />
          <path d="M200396.08,127271.69l0,1.58" />
          <path d="M200396.08,127273.27l-300,0" />
          <use xlink:href="#$WINLIB2D$00000001_1100x360" x="200946.08" y="127093.27" transform="scale(1,-1) translate(0,-254186.53) rotate(180,200946.08,127093.27)">.</use>
          <path d="M198496.08,126673.27l100,0" />
          <path d="M198596.08,126673.27l0,240" />
          <path d="M200396.08,126671.69l0,600" />
          <path d="M200396.08,127271.69l-600,0" />
          <path d="M199796.08,127271.69l0,-600" />
          <path d="M199796.08,126671.69l600,0" />
          <use xlink:href="#$WINLIB2D$00000001_1200x360" x="199196.08" y="127093.27" transform="scale(1,-1) translate(0,-254186.53) rotate(180,199196.08,127093.27)">.</use>
          <path d="M200096.08,127273.27l-300,0" />
          <path d="M199796.08,127273.27l0,-1.58" />
          <path d="M198496.08,126913.27l100,0" />
          <path d="M198596.08,126913.27l0,360" />
          <path d="M198596.08,127273.27l-100,0" />
          <path d="M201496.08,126913.27l0,-240" />
          <path d="M201496.08,126673.27l200,0" />
          <path d="M158896.08,126913.27l100,0" />
          <path d="M158996.08,126913.27l0,360" />
          <path d="M158996.08,127273.27l-100,0" />
          <path d="M160496.08,127273.27l-300,0" />
          <path d="M160196.08,127273.27l0,-1.58" />
          <use xlink:href="#$WINLIB2D$00000001_1200x360" x="159596.08" y="127093.27">.</use>
          <path d="M158896.08,126673.27l100,0" />
          <path d="M158996.08,126673.27l0,240" />
          <path d="M161996.08,126913.27l0,-240" />
          <path d="M161996.08,126673.27l100,0" />
          <use xlink:href="#$WINLIB2D$00000001_1200x360" x="161396.08" y="127093.27">.</use>
          <path d="M160196.08,126671.69l600,0" />
          <path d="M160796.08,126671.69l0,600" />
          <path d="M160796.08,127271.69l-600,0" />
          <path d="M160196.08,127271.69l0,-600" />
          <path d="M160796.08,127271.69l0,1.58" />
          <path d="M160796.08,127273.27l-300,0" />
          <path d="M162096.08,127273.27l-100,0" />
          <path d="M161996.08,127273.27l0,-360" />
          <path d="M161996.08,126913.27l100,0" />
          <path d="M162496.08,126913.27l100,0" />
          <path d="M162596.08,126913.27l0,360" />
          <path d="M162596.08,127273.27l-100,0" />
          <path d="M164096.08,127273.27l-300,0" />
          <path d="M163796.08,127273.27l0,-1.58" />
          <use xlink:href="#$WINLIB2D$00000001_1200x360" x="163196.08" y="127093.27">.</use>
          <path d="M162496.08,126673.27l100,0" />
          <path d="M162596.08,126673.27l0,240" />
          <path d="M165596.08,126913.27l0,-240" />
          <path d="M165596.08,126673.27l100,0" />
          <use xlink:href="#$WINLIB2D$00000001_1200x360" x="164996.08" y="127093.27">.</use>
          <path d="M163796.08,126671.69l600,0" />
          <path d="M164396.08,126671.69l0,600" />
          <path d="M164396.08,127271.69l-600,0" />
          <path d="M163796.08,127271.69l0,-600" />
          <path d="M164396.08,127271.69l0,1.58" />
          <path d="M164396.08,127273.27l-300,0" />
          <path d="M165696.08,127273.27l-100,0" />
          <path d="M165596.08,127273.27l0,-360" />
          <path d="M165596.08,126913.27l100,0" />
          <path d="M166096.08,126913.27l100,0" />
          <path d="M166196.08,126913.27l0,360" />
          <path d="M166196.08,127273.27l-100,0" />
          <path d="M167696.08,127273.27l-300,0" />
          <path d="M167396.08,127273.27l0,-1.58" />
          <use xlink:href="#$WINLIB2D$00000001_1200x360" x="166796.08" y="127093.27">.</use>
          <path d="M166096.08,126673.27l100,0" />
          <path d="M166196.08,126673.27l0,240" />
          <path d="M169196.08,126913.27l0,-240" />
          <path d="M169196.08,126673.27l100,0" />
          <use xlink:href="#$WINLIB2D$00000001_1200x360" x="168596.08" y="127093.27">.</use>
          <path d="M167396.08,126671.69l600,0" />
          <path d="M167996.08,126671.69l0,600" />
          <path d="M167996.08,127271.69l-600,0" />
          <path d="M167396.08,127271.69l0,-600" />
          <path d="M167996.08,127271.69l0,1.58" />
          <path d="M167996.08,127273.27l-300,0" />
          <path d="M169296.08,127273.27l-100,0" />
          <path d="M169196.08,127273.27l0,-360" />
          <path d="M169196.08,126913.27l100,0" />
          <path d="M169696.08,126913.27l100,0" />
          <path d="M169796.08,126913.27l0,360" />
          <path d="M169796.08,127273.27l-100,0" />
          <path d="M171296.08,127273.27l-300,0" />
          <path d="M170996.08,127273.27l0,-1.58" />
          <use xlink:href="#$WINLIB2D$00000001_1200x360" x="170396.08" y="127093.27">.</use>
          <path d="M169696.08,126673.27l100,0" />
          <path d="M169796.08,126673.27l0,240" />
          <path d="M172796.08,126913.27l0,-240" />
          <path d="M172796.08,126673.27l100,0" />
          <use xlink:href="#$WINLIB2D$00000001_1200x360" x="172196.08" y="127093.27">.</use>
          <path d="M170996.08,126671.69l600,0" />
          <path d="M171596.08,126671.69l0,600" />
          <path d="M171596.08,127271.69l-600,0" />
          <path d="M170996.08,127271.69l0,-600" />
          <path d="M171596.08,127271.69l0,1.58" />
          <path d="M171596.08,127273.27l-300,0" />
          <path d="M172896.08,127273.27l-100,0" />
          <path d="M172796.08,127273.27l0,-360" />
          <path d="M172796.08,126913.27l100,0" />
          <path d="M173296.08,126913.27l100,0" />
          <path d="M173396.08,126913.27l0,360" />
          <path d="M173396.08,127273.27l-100,0" />
          <path d="M174896.08,127273.27l-300,0" />
          <path d="M174596.08,127273.27l0,-1.58" />
          <use xlink:href="#$WINLIB2D$00000001_1200x360" x="173996.08" y="127093.27">.</use>
          <path d="M173296.08,126673.27l100,0" />
          <path d="M173396.08,126673.27l0,240" />
          <path d="M176396.08,126913.27l0,-240" />
          <path d="M176396.08,126673.27l100,0" />
          <use xlink:href="#$WINLIB2D$00000001_1200x360" x="175796.08" y="127093.27">.</use>
          <path d="M174596.08,126671.69l600,0" />
          <path d="M175196.08,126671.69l0,600" />
          <path d="M175196.08,127271.69l-600,0" />
          <path d="M174596.08,127271.69l0,-600" />
          <path d="M175196.08,127271.69l0,1.58" />
          <path d="M175196.08,127273.27l-300,0" />
          <path d="M176496.08,127273.27l-100,0" />
          <path d="M176396.08,127273.27l0,-360" />
          <path d="M176396.08,126913.27l100,0" />
          <path d="M176896.08,126913.27l100,0" />
          <path d="M176996.08,126913.27l0,360" />
          <path d="M176996.08,127273.27l-100,0" />
          <path d="M178496.08,127273.27l-300,0" />
          <path d="M178196.08,127273.27l0,-1.58" />
          <use xlink:href="#$WINLIB2D$00000001_1200x360" x="177596.08" y="127093.27">.</use>
          <path d="M176896.08,126673.27l100,0" />
          <path d="M176996.08,126673.27l0,240" />
          <path d="M179996.08,126913.27l0,-240" />
          <path d="M179996.08,126673.27l100,0" />
          <use xlink:href="#$WINLIB2D$00000001_1200x360" x="179396.08" y="127093.27">.</use>
          <path d="M178196.08,126671.69l600,0" />
          <path d="M178796.08,126671.69l0,600" />
          <path d="M178796.08,127271.69l-600,0" />
          <path d="M178196.08,127271.69l0,-600" />
          <path d="M178796.08,127271.69l0,1.58" />
          <path d="M178796.08,127273.27l-300,0" />
          <path d="M180096.08,127273.27l-100,0" />
          <path d="M179996.08,127273.27l0,-360" />
          <path d="M179996.08,126913.27l100,0" />
          <path d="M180496.08,126913.27l100,0" />
          <path d="M180596.08,126913.27l0,360" />
          <path d="M180596.08,127273.27l-100,0" />
          <path d="M182096.08,127273.27l-300,0" />
          <path d="M181796.08,127273.27l0,-1.58" />
          <use xlink:href="#$WINLIB2D$00000001_1200x360" x="181196.08" y="127093.27">.</use>
          <path d="M180496.08,126673.27l100,0" />
          <path d="M180596.08,126673.27l0,240" />
          <path d="M183596.08,126913.27l0,-240" />
          <path d="M183596.08,126673.27l100,0" />
          <use xlink:href="#$WINLIB2D$00000001_1200x360" x="182996.08" y="127093.27">.</use>
          <path d="M181796.08,126671.69l600,0" />
          <path d="M182396.08,126671.69l0,600" />
          <path d="M182396.08,127271.69l-600,0" />
          <path d="M181796.08,127271.69l0,-600" />
          <path d="M182396.08,127271.69l0,1.58" />
          <path d="M182396.08,127273.27l-300,0" />
          <path d="M183696.08,127273.27l-100,0" />
          <path d="M183596.08,127273.27l0,-360" />
          <path d="M183596.08,126913.27l100,0" />
          <path d="M184096.08,126913.27l100,0" />
          <path d="M184196.08,126913.27l0,360" />
          <path d="M184196.08,127273.27l-100,0" />
          <path d="M185696.08,127273.27l-300,0" />
          <path d="M185396.08,127273.27l0,-1.58" />
          <use xlink:href="#$WINLIB2D$00000001_1200x360" x="184796.08" y="127093.27">.</use>
          <path d="M184096.08,126673.27l100,0" />
          <path d="M184196.08,126673.27l0,240" />
          <path d="M187196.08,126913.27l0,-240" />
          <path d="M187196.08,126673.27l100,0" />
          <use xlink:href="#$WINLIB2D$00000001_1200x360" x="186596.08" y="127093.27">.</use>
          <path d="M185396.08,126671.69l600,0" />
          <path d="M185996.08,126671.69l0,600" />
          <path d="M185996.08,127271.69l-600,0" />
          <path d="M185396.08,127271.69l0,-600" />
          <path d="M185996.08,127271.69l0,1.58" />
          <path d="M185996.08,127273.27l-300,0" />
          <path d="M187296.08,127273.27l-100,0" />
          <path d="M187196.08,127273.27l0,-360" />
          <path d="M187196.08,126913.27l100,0" />
          <path d="M187696.08,126913.27l100,0" />
          <path d="M187796.08,126913.27l0,360" />
          <path d="M187796.08,127273.27l-100,0" />
          <path d="M189296.08,127273.27l-300,0" />
          <path d="M188996.08,127273.27l0,-1.58" />
          <use xlink:href="#$WINLIB2D$00000001_1200x360" x="188396.08" y="127093.27">.</use>
          <path d="M187696.08,126673.27l100,0" />
          <path d="M187796.08,126673.27l0,240" />
          <path d="M190796.08,126913.27l0,-240" />
          <path d="M190796.08,126673.27l100,0" />
          <use xlink:href="#$WINLIB2D$00000001_1200x360" x="190196.08" y="127093.27">.</use>
          <path d="M188996.08,126671.69l600,0" />
          <path d="M189596.08,126671.69l0,600" />
          <path d="M189596.08,127271.69l-600,0" />
          <path d="M188996.08,127271.69l0,-600" />
          <path d="M189596.08,127271.69l0,1.58" />
          <path d="M189596.08,127273.27l-300,0" />
          <path d="M190896.08,127273.27l-100,0" />
          <path d="M190796.08,127273.27l0,-360" />
          <path d="M190796.08,126913.27l100,0" />
          <path d="M191296.08,126913.27l100,0" />
          <path d="M191396.08,126913.27l0,360" />
          <path d="M191396.08,127273.27l-100,0" />
          <path d="M192896.08,127273.27l-300,0" />
          <path d="M192596.08,127273.27l0,-1.58" />
          <use xlink:href="#$WINLIB2D$00000001_1200x360" x="191996.08" y="127093.27">.</use>
          <path d="M191296.08,126673.27l100,0" />
          <path d="M191396.08,126673.27l0,240" />
          <path d="M194396.08,126913.27l0,-240" />
          <path d="M194396.08,126673.27l100,0" />
          <use xlink:href="#$WINLIB2D$00000001_1200x360" x="193796.08" y="127093.27">.</use>
          <path d="M192596.08,126671.69l600,0" />
          <path d="M193196.08,126671.69l0,600" />
          <path d="M193196.08,127271.69l-600,0" />
          <path d="M192596.08,127271.69l0,-600" />
          <path d="M193196.08,127271.69l0,1.58" />
          <path d="M193196.08,127273.27l-300,0" />
          <path d="M194496.08,127273.27l-100,0" />
          <path d="M194396.08,127273.27l0,-360" />
          <path d="M194396.08,126913.27l100,0" />
          <path d="M194896.08,126913.27l100,0" />
          <path d="M194996.08,126913.27l0,360" />
          <path d="M194996.08,127273.27l-100,0" />
          <path d="M196496.08,127273.27l-300,0" />
          <path d="M196196.08,127273.27l0,-1.58" />
          <use xlink:href="#$WINLIB2D$00000001_1200x360" x="195596.08" y="127093.27">.</use>
          <path d="M194896.08,126673.27l100,0" />
          <path d="M194996.08,126673.27l0,240" />
          <path d="M197996.08,126913.27l0,-240" />
          <path d="M197996.08,126673.27l100,0" />
          <use xlink:href="#$WINLIB2D$00000001_1200x360" x="197396.08" y="127093.27">.</use>
          <path d="M196196.08,126671.69l600,0" />
          <path d="M196796.08,126671.69l0,600" />
          <path d="M196796.08,127271.69l-600,0" />
          <path d="M196196.08,127271.69l0,-600" />
          <path d="M196796.08,127271.69l0,1.58" />
          <path d="M196796.08,127273.27l-300,0" />
          <path d="M198096.08,127273.27l-100,0" />
          <path d="M197996.08,127273.27l0,-360" />
          <path d="M197996.08,126913.27l100,0" />
          <path d="M148596.08,133273.27l400,0" />
          <path d="M148996.08,133273.27l0,650" />
          <path d="M148996.08,133923.27l-400,0" />
          <path d="M148596.08,133923.27l0,-650" />
          <path d="M148596.08,126673.27l200,0" />
          <path d="M148796.08,126673.27l0,650" />
          <path d="M148796.08,127323.27l-200,0" />
          <path d="M148596.08,127323.27l0,-650" />
          <path d="M148596.08,135423.27l400,0" />
          <path d="M148996.08,135423.27l0,650" />
          <path d="M148996.08,136073.27l-400,0" />
          <path d="M148596.08,136073.27l0,-650" />
          <path d="M148596.08,141823.27l200,0" />
          <path d="M148796.08,141823.27l0,650" />
          <path d="M148796.08,142473.27l-200,0" />
          <path d="M148596.08,142473.27l0,-650" />
          <use xlink:href="#$DorLib2D$00000114" x="156.9" y="133.47" transform="scale(1000,1000) scale(1,-1) translate(0,-266.95)" stroke-width="0.0001%">.</use>
          <path d="M166016.08,141873.27l0,-5880" />
          <path d="M165776.08,141873.27l0,-5880" />
          <path d="M165896.08,135753.27l1300,0" />
          <path d="M167196.08,135753.27l0,240" />
          <path d="M167196.08,135993.27l-1180,0" />
          <path d="M169376.08,135993.27l-1180,0" />
          <path d="M168196.08,135993.27l0,-240" />
          <path d="M168196.08,135753.27l1300,0" />
          <use xlink:href="#$DorLib2D$00000114" x="164.1" y="135.87" transform="scale(1000,1000) scale(-1,1) translate(-328.19,0)" stroke-width="0.0001%">.</use>
          <use xlink:href="#$DorLib2D$00000114" x="189.3" y="135.87" transform="scale(1000,1000) scale(-1,1) translate(-378.59,0)" stroke-width="0.0001%">.</use>
          <use xlink:href="#$DorLib2D$00000114" x="171.3" y="135.87" transform="scale(1000,1000) scale(-1,1) translate(-342.59,0)" stroke-width="0.0001%">.</use>
          <use xlink:href="#$DorLib2D$00000114" x="178.5" y="135.87" transform="scale(1000,1000)" stroke-width="0.0001%">.</use>
          <use xlink:href="#$lvtry$00000222" x="162176.08" y="138323.27" transform="rotate(270,162176.08,138323.27)">.</use>
          <use xlink:href="#$lvtry$00000222" x="162176.08" y="139023.27" transform="rotate(270,162176.08,139023.27)">.</use>
          <use xlink:href="#$lvtry$00000222" x="162176.08" y="139723.27" transform="rotate(270,162176.08,139723.27)">.</use>
          <use xlink:href="#$lvtry$00000222" x="162176.08" y="140423.27" transform="rotate(270,162176.08,140423.27)">.</use>
          <path d="M162176.08,138660.77l-400,0" />
          <path d="M162176.08,138685.77l-400,0" />
          <path d="M162176.08,138660.77l0,25" />
          <path d="M161776.08,138660.77l0,25" />
          <path d="M162176.08,139360.77l-400,0" />
          <path d="M162176.08,139385.77l-400,0" />
          <path d="M162176.08,139360.77l0,25" />
          <path d="M161776.08,139360.77l0,25" />
          <path d="M162176.08,140060.77l-400,0" />
          <path d="M162176.08,140085.77l-400,0" />
          <path d="M162176.08,140060.77l0,25" />
          <path d="M161776.08,140060.77l0,25" />
          <path d="M162176.08,140760.77l-400,0" />
          <path d="M162176.08,140785.77l-400,0" />
          <path d="M162176.08,140760.77l0,25" />
          <path d="M161776.08,140760.77l0,25" />
          <use xlink:href="#$DorLib2D$00000116" x="100.98" y="89.78" transform="scale(1500,1500) rotate(90,100.98,89.78)" stroke-width="0.0001%">.</use>
        </g>
        <g id="layer-0" class="i0">
          <path d="M185312.25,135753.27l0,120l650,0l0,-120" />
          <path d="M179727.46,116426.84l0,120l650,0l0,-120" />
          <path d="M155176.08,136233.27l-200,0" />
          <path d="M155176.08,136933.27l-200,0" />
          <path d="M155176.08,136933.27l-200,-700" />
          <path d="M154976.08,136233.27l0,700" />
          <path d="M155176.08,136233.27l0,700" />
          <path d="M198416.08,136233.27l-200,0" />
          <path d="M198416.08,136933.27l-200,0" />
          <path d="M198416.08,136933.27l-200,-700" />
          <path d="M198216.08,136233.27l0,700" />
          <path d="M198416.08,136233.27l0,700" />
          <path d="M179723.93,115651.38l0,200" />
          <path d="M180423.93,115651.38l0,200" />
          <path d="M180423.93,115651.38l-700,200" />
          <path d="M179723.93,115851.38l700,0" />
          <path d="M179723.93,115651.38l700,0" />
          <path d="M189796.08,135993.27l0,-240" />
          <path d="M172755.55,116445.07l5351.71,0" />
          <path d="M172755.55,116305.07l5351.71,0" />
          <path d="M198176.08,135753.27l240,0" />
          <path d="M198416.08,135993.27l-240,0" />
          <path d="M140246.08,152898.42l0,-40000l79677.83,0l0,40000z" />
          <path d="M137746.08,153898.42l0,-42000l83177.83,0l0,42000z" />
          <path d="M216372.28,125373.32l3551.62,0" />
          <path d="M216372.28,116888.88l3551.62,0" />
          <path d="M219923.91,121032.45l-3551.62,0" />
          <path d="M219923.91,152898.42l-3551.62,0l0,-39462.5l3551.62,0l0,39462.5" />
          <path d="M216372.28,116198.29l3551.62,0" />
          <path d="M218246.75,116888.88l0,-3452.97" />
          <path d="M216372.28,115507.7l3551.62,0" />
          <path d="M219923.91,114817.1l-3551.62,0" />
          <path d="M219923.91,114126.51l-3551.62,0" />
          <path d="M216372.28,143315.87l3551.62,0" />
        </g>
        <g id="layer-RM" class="rm">
          <path d="M169616.08,141873.27l10560,0l0,-5880l-10560,0z" />
        </g>
        <g id="layer-GROS" class="gros">
          <path d="M147696.08,142473.27l4200,0l0,-240l1100,0l0,240l600,0l0,-240l1200,0l0,240l600,0l0,-240l1200,0l0,240l600,0l0,-240l1200,0l0,240l600,0l0,-240l1200,0l0,182.79l0,57.21l600,0l0,-240l1200,0l0,240l600,0l0,-240l1200,0l0,240l600,0l0,-240l1200,0l0,240l600,0l0,-240l1200,0l0,240l600,0l0,-240l1200,0l0,240l100,0l0,1400l11200,0l0,-1400l100,0l0,-240l1200,0l0,240l600,0l0,-240l1200,0l0,240l600,0l0,-240l1200,0l0,240l600,0l0,-240l1200,0l0,240l600,0l0,-240l1200,0l0,240l600,0l0,-240l1200,0l0,240l600,0l0,-240l1200,0l0,240l600,0l0,-240l1200,0l0,240l600,0l0,-240l1200,0l0,240l600,0l0,-240l1200,0l0,240l600,0l0,-240l1200,0l0,240l600,0l0,-240l1100,0l0,240l600,0l0,-15800l-400,0l-200,0l0,240l-1100,0l0,-241.58l-600,0l0,241.58l-1200,0l0,-240l-600,0l0,240l-1200,0l0,-241.58l-600,0l0,241.58l-1200,0l0,-240l-600,0l0,240l-1200,0l0,-241.58l-600,0l0,241.58l-1200,0l0,-240l-600,0l0,240l-1200,0l0,-241.58l-600,0l0,241.58l-1200,0l0,-240l-600,0l0,240l-1200,0l0,-241.58l-600,0l0,241.58l-1200,0l0,-240l-600,0l0,240l-1200,0l0,-241.58l-600,0l0,241.58l-1200,0l0,-240l-600,0l0,240l-1200,0l0,-241.58l-600,0l0,241.58l-1200,0l0,-240l-600,0l0,242.08l-1200,-2.08l0,-241.58l-600,0l0,241.58l-1200,0l0,-240l-600,0l0,240l-1200,0l0,-241.58l-600,0l0,241.58l-1200,0l0,-240l-600,0l0,240l-1200,0l0,-241.58l-600,0l0,241.58l-1200,0l0,-240l-600,0l0,240l-1200,0l0,-241.58l-600,0l0,241.58l-1200,0l0,-240l-600,0l0,240l-1200,0l0,-241.58l-600,0l0,241.58l-1200,0l0,-240l-600,0l0,240l-1200,0l0,-241.58l-600,0l0,241.58l-1200,0l0,-240l-600,0l0,240l-1200,0l0,-241.58l-600,0l0,241.58l-1100,0l0,-240l-4200,0l0,15800z" />
        </g>
      </g>
      <g id="assets" fill="none">
        <g id="rm-assets" class="rm-asset">
          <path d="M162416.08,141873.27l3360,0l0,-5880l-3360,0z" id="XIPEILOU;F03;314" />
          <path d="M166016.08,141873.27l3360,0l0,-5880l-3360,0z" id="XIPEILOU;F03;315" />
          <path d="M180416.08,141873.27l6960,0l0,-5880l-6960,0z" id="XIPEILOU;F03;318" />
          <path d="M187616.08,141873.27l6960,0l0,-5880l-6960,0z" id="XIPEILOU;F03;319" />
          <path d="M194816.08,141873.27l3360,0l0,-5880l-3360,0z" id="XIPEILOU;F03;320" />
          <path d="M198416.08,133353.27l3320,0l0,-6080l-3320,0z" id="XIPEILOU;F03;301" />
          <path d="M194816.08,133353.27l3360,0l0,-6080l-3360,0z" id="XIPEILOU;F03;302" />
          <path d="M191216.08,133353.27l3360,0l0,-6080l-3360,0z" id="XIPEILOU;F03;303" />
          <path d="M187616.08,133353.27l3360,0l0,-6080l-3360,0z" id="XIPEILOU;F03;304" />
          <path d="M184016.08,133353.27l3360,0l0,-6080l-3360,0z" id="XIPEILOU;F03;305" />
          <path d="M180416.08,133353.27l3360,0l0,-6080l-3360,0z" id="XIPEILOU;F03;306" />
          <path d="M176816.08,133353.27l3360,0l0,-6080l-3360,0z" id="XIPEILOU;F03;307" />
          <path d="M176576.08,133353.27l-3360,0l0,-6080l3360,0z" id="XIPEILOU;F03;308" />
          <path d="M172976.08,133353.27l-3360,0l0,-6080l3360,0z" id="XIPEILOU;F03;309" />
          <path d="M169376.08,133353.27l-3360,0l0,-6080l3360,0z" id="XIPEILOU;F03;310" />
          <path d="M165776.08,133353.27l-6960,0l0,-6080l6960,0z" id="XIPEILOU;F03;311" />
          <path d="M155216.08,133353.27l3360,0l0,-6080l-3360,0z" id="XIPEILOU;F03;312" />
          <path d="M154976.08,133353.27l-3320,0l0,-6080l3320,0z" id="XIPEILOU;F03;313" />
        </g>
      </g>
    </g>
    <g id="asset-labels" font-family="Arial" font-weight="bold" font-size="1.5em" text-anchor="middle">
      <g id="rm-labels">
        <g id="l-rm-XIPEILOU;F03;314" transform="translate(164096.08,-138944.89)">
          <text>314</text>
        </g>
        <g id="l-rm-XIPEILOU;F03;315" transform="translate(167696.08,-138944.89)">
          <text>315</text>
        </g>
        <g id="l-rm-XIPEILOU;F03;318" transform="translate(183896.08,-138944.89)">
          <text>318</text>
        </g>
        <g id="l-rm-XIPEILOU;F03;319" transform="translate(191096.08,-138944.89)">
          <text>319</text>
        </g>
        <g id="l-rm-XIPEILOU;F03;320" transform="translate(196496.08,-138945.08)">
          <text>320</text>
        </g>
        <g id="l-rm-XIPEILOU;F03;301" transform="translate(200076.08,-130325.08)">
          <text>301</text>
        </g>
        <g id="l-rm-XIPEILOU;F03;302" transform="translate(196496.08,-130325.08)">
          <text>302</text>
        </g>
        <g id="l-rm-XIPEILOU;F03;303" transform="translate(192896.08,-130325.08)">
          <text>303</text>
        </g>
        <g id="l-rm-XIPEILOU;F03;304" transform="translate(189296.08,-130325.08)">
          <text>304</text>
        </g>
        <g id="l-rm-XIPEILOU;F03;305" transform="translate(185696.08,-130324.89)">
          <text>305</text>
        </g>
        <g id="l-rm-XIPEILOU;F03;306" transform="translate(182096.08,-130324.89)">
          <text>306</text>
        </g>
        <g id="l-rm-XIPEILOU;F03;307" transform="translate(178496.08,-130324.89)">
          <text>307</text>
        </g>
        <g id="l-rm-XIPEILOU;F03;308" transform="translate(174896.08,-130325.08)">
          <text>308</text>
        </g>
        <g id="l-rm-XIPEILOU;F03;309" transform="translate(171296.08,-130324.89)">
          <text>309</text>
        </g>
        <g id="l-rm-XIPEILOU;F03;310" transform="translate(167696.08,-130325.08)">
          <text>310</text>
        </g>
        <g id="l-rm-XIPEILOU;F03;311" transform="translate(164096.08,-130324.89)">
          <text>311</text>
        </g>
        <g id="l-rm-XIPEILOU;F03;312" transform="translate(156896.08,-130324.89)">
          <text>312</text>
        </g>
        <g id="l-rm-XIPEILOU;F03;313" transform="translate(153316.08,-130324.89)">
          <text>313</text>
        </g>
      </g>
    </g>
  </g>
</svg>